<svg xmlns="http://www.w3.org/2000/svg" xmlns:xlink="http://www.w3.org/1999/xlink" width="1368.482" height="1367.379" viewBox="0 0 1368.482 1367.379">
  <defs>
    <linearGradient id="a" x1="683.689" y1="1043.182" x2="683.689" y2="495.435" gradientUnits="userSpaceOnUse">
      <stop offset="0" stop-color="#666"/>
      <stop offset="0.156" stop-color="#757575"/>
      <stop offset="0.455" stop-color="#9c9c9b"/>
      <stop offset="0.864" stop-color="#dbdad9"/>
      <stop offset="1" stop-color="#f1f0ef"/>
    </linearGradient>
    <linearGradient id="b" x1="683.689" y1="1298.244" x2="683.689" y2="1014.996" gradientUnits="userSpaceOnUse">
      <stop offset="0.113" stop-color="#1a1a1a"/>
      <stop offset="0.259" stop-color="#202020"/>
      <stop offset="0.462" stop-color="#323232"/>
      <stop offset="0.697" stop-color="#505050"/>
      <stop offset="0.955" stop-color="#787878"/>
      <stop offset="1" stop-color="gray"/>
    </linearGradient>
    <linearGradient id="c" x1="1303.989" y1="646.111" x2="943.008" y2="646.111" gradientUnits="userSpaceOnUse">
      <stop offset="0" stop-color="#5a1402"/>
      <stop offset="0.203" stop-color="#5e1805"/>
      <stop offset="0.424" stop-color="#69260c"/>
      <stop offset="0.653" stop-color="#7b3b19"/>
      <stop offset="0.887" stop-color="#955a2b"/>
      <stop offset="1" stop-color="#a46b35"/>
    </linearGradient>
    <linearGradient id="d" x1="63.417" y1="646.111" x2="424.398" y2="646.111" xlink:href="#c"/>
    <radialGradient id="e" cx="683.689" cy="673.295" r="675.093" gradientUnits="userSpaceOnUse">
      <stop offset="0.843" stop-color="#5a1402"/>
      <stop offset="0.869" stop-color="#5d1704"/>
      <stop offset="0.889" stop-color="#65210a"/>
      <stop offset="0.907" stop-color="#733113"/>
      <stop offset="0.923" stop-color="#874821"/>
      <stop offset="0.939" stop-color="#a06532"/>
      <stop offset="0.943" stop-color="#a86f38"/>
      <stop offset="0.957" stop-color="#8f5325"/>
      <stop offset="0.974" stop-color="#783812"/>
      <stop offset="0.989" stop-color="#6a2807"/>
      <stop offset="1" stop-color="#652203"/>
    </radialGradient>
    <radialGradient id="f" cx="676.664" cy="684.151" r="677.404" xlink:href="#e"/>
    <radialGradient id="g" cx="691.818" cy="684.151" r="677.063" xlink:href="#e"/>
    <radialGradient id="h" cx="683.689" cy="698.927" r="669.908" gradientUnits="userSpaceOnUse">
      <stop offset="0.843" stop-color="#1a1a1a"/>
      <stop offset="0.943" stop-color="#666"/>
      <stop offset="1" stop-color="#1a1a1a"/>
    </radialGradient>
    <linearGradient id="i" x1="203.189" y1="221" x2="255.441" y2="268.687" gradientUnits="userSpaceOnUse">
      <stop offset="0" stop-color="#696562"/>
      <stop offset="0.5" stop-color="#ebeff0"/>
      <stop offset="1" stop-color="#81807e"/>
    </linearGradient>
    <linearGradient id="j" x1="1163.838" y1="220.851" x2="1112.854" y2="268.284" xlink:href="#i"/>
    <linearGradient id="k" x1="334.945" y1="1252.359" x2="372.739" y2="1188.185" xlink:href="#i"/>
    <linearGradient id="l" x1="1033.21" y1="1252.745" x2="996.304" y2="1191.869" xlink:href="#i"/>
    <linearGradient id="m" x1="88.007" y1="460.109" x2="308.303" y2="681.547" gradientUnits="userSpaceOnUse">
      <stop offset="0.095" stop-color="#a86f38"/>
      <stop offset="1" stop-color="#ef9143"/>
    </linearGradient>
    <linearGradient id="n" x1="-2908.763" y1="460.109" x2="-2688.467" y2="681.547" gradientTransform="matrix(-1, 0, 0, 1, -1629.364, 0)" xlink:href="#m"/>
    <radialGradient id="o" cx="684.241" cy="683.69" r="184.512" gradientUnits="userSpaceOnUse">
      <stop offset="0.869" stop-color="#989898"/>
      <stop offset="0.885" stop-color="#9c9c9c"/>
      <stop offset="0.903" stop-color="#aaa9a9"/>
      <stop offset="0.921" stop-color="#bfbfbf"/>
      <stop offset="0.94" stop-color="#dedddc"/>
      <stop offset="0.953" stop-color="#f7f6f5"/>
      <stop offset="0.955" stop-color="#dddcdc"/>
      <stop offset="0.96" stop-color="#b9b9b9"/>
      <stop offset="0.964" stop-color="#9c9d9e"/>
      <stop offset="0.968" stop-color="#88898b"/>
      <stop offset="0.973" stop-color="#7c7d7f"/>
      <stop offset="0.977" stop-color="#78797b"/>
    </radialGradient>
    <linearGradient id="p" x1="684.241" y1="814.291" x2="684.241" y2="556.838" gradientUnits="userSpaceOnUse">
      <stop offset="0" stop-color="#efeeed"/>
      <stop offset="0.17" stop-color="#cecdcd"/>
      <stop offset="0.434" stop-color="#a1a1a1"/>
      <stop offset="0.67" stop-color="#818181"/>
      <stop offset="0.866" stop-color="#6d6d6d"/>
      <stop offset="1" stop-color="#666"/>
    </linearGradient>
    <linearGradient id="q" x1="684.241" y1="797.497" x2="684.241" y2="569.882" gradientUnits="userSpaceOnUse">
      <stop offset="0" stop-color="#cbcbcb"/>
      <stop offset="0.034" stop-color="#c8c8c8"/>
      <stop offset="0.061" stop-color="#bebebe"/>
      <stop offset="0.085" stop-color="#adadad"/>
      <stop offset="0.108" stop-color="#969696"/>
      <stop offset="0.13" stop-color="#787878"/>
      <stop offset="0.151" stop-color="#535353"/>
      <stop offset="0.154" stop-color="#4d4d4d"/>
      <stop offset="0.162" stop-color="#626262"/>
      <stop offset="0.174" stop-color="#777"/>
      <stop offset="0.186" stop-color="#868686"/>
      <stop offset="0.202" stop-color="#8e8e8e"/>
      <stop offset="0.225" stop-color="#919191"/>
      <stop offset="0.321" stop-color="#ccc"/>
      <stop offset="0.328" stop-color="#f2f2f2"/>
      <stop offset="0.545" stop-color="#d6d6d6"/>
      <stop offset="0.656" stop-color="#f2f2f2"/>
      <stop offset="0.791" stop-color="#aeaeae"/>
      <stop offset="1" stop-color="#e6e6e6"/>
    </linearGradient>
    <radialGradient id="r" cx="684.241" cy="683.69" r="108.079" gradientUnits="userSpaceOnUse">
      <stop offset="0" stop-color="#4d4d4d"/>
      <stop offset="0.216" stop-color="#494949"/>
      <stop offset="0.452" stop-color="#3b3b3b"/>
      <stop offset="0.697" stop-color="#262626"/>
      <stop offset="0.947" stop-color="#070707"/>
      <stop offset="1"/>
    </radialGradient>
  </defs>
  <g>
    <path d="M978.844,734.963,955.635,603.586s-143.63-95.657-271.946-95.657-271.945,95.657-271.945,95.657l-23.21,131.377c264.812,35.384,252,309.327,252,309.327h86.3S714.032,770.347,978.844,734.963Z" fill="#efeded"/>
    <path d="M978.844,740.7,955.635,609.326s-143.63-95.657-271.946-95.657-271.945,95.657-271.945,95.657L388.534,740.7c264.812,35.384,252,309.328,252,309.328h86.3S714.032,776.087,978.844,740.7Z" fill="url(#a)"/>
    <path d="M758.258,1181.825c-16-67.53-20.724-132.05-21.867-152a6.671,6.671,0,0,0-6.667-6.289h-92.07a6.67,6.67,0,0,0-6.666,6.289c-1.143,19.946-5.87,84.466-21.867,152-19.265,81.324-170.595,37.522-170.595,37.522L554.1,1279.32l129.59,16.134L813.28,1279.32l115.573-59.973S777.523,1263.149,758.258,1181.825Z" fill="#282828"/>
    <path d="M748.487,1183.176c-14.086-69.015-18.116-134.913-19.039-154.075a5.842,5.842,0,0,0-5.842-5.561H643.772a5.842,5.842,0,0,0-5.841,5.561c-.924,19.162-4.953,85.06-19.04,154.075-16.741,82.019-148.243,37.842-148.243,37.842l100.43,60.485,112.611,16.272L796.3,1281.5l100.43-60.485S765.228,1265.2,748.487,1183.176Z" fill="url(#b)"/>
    <path d="M1226.372,429.249h-23.685s58.9,119.455,0,197.073c-36.18,47.679-120.135,36.525-170.358,0-33.2-24.149-62.418-33.33-78.4-36.779a9.037,9.037,0,0,0-10.784,10.379l23.96,139.77a9.04,9.04,0,0,0,8.973,7.517c48.538-.321,309.438,3.126,257.155,115.764h46.994L1303.989,722.2v-187.2Z" fill="url(#c)"/>
    <path d="M413.48,589.543c-15.985,3.449-45.2,12.63-78.4,36.779-50.223,36.525-134.178,47.679-170.358,0-58.9-77.618,0-197.073,0-197.073H141.034L63.417,535.007V722.2L87.182,862.973h46.994C81.893,750.335,342.794,746.888,391.331,747.209a9.039,9.039,0,0,0,8.973-7.517l23.961-139.77A9.038,9.038,0,0,0,413.48,589.543Z" fill="url(#d)"/>
    <path d="M419.915,590.571,391.488,747.2a9.036,9.036,0,0,0,8.816-7.511l23.961-139.77A9.045,9.045,0,0,0,419.915,590.571Z" opacity="0.26"/>
    <path d="M947.491,590.571,975.918,747.2a9.037,9.037,0,0,1-8.816-7.511l-23.96-139.77A9.043,9.043,0,0,1,947.491,590.571Z" opacity="0.26"/>
    <path d="M1159.821,193.058C1036.718,73.57,868.8,0,683.69,0S330.661,73.57,207.558,193.058a11.285,11.285,0,0,0,.359,16.492l62.173,55.7A11.3,11.3,0,0,0,285.422,265a577.835,577.835,0,0,1,796.535,0,11.3,11.3,0,0,0,15.332.252l62.173-55.7A11.284,11.284,0,0,0,1159.821,193.058Z" fill="url(#e)"/>
    <path d="M207.917,209.55l62.173,55.7a11.266,11.266,0,0,0,10.865,2.366l-76.648-68.32A11.3,11.3,0,0,0,207.917,209.55Z" opacity="0.32"/>
    <path d="M360.844,1163.021C207,1059.2,105.821,883.261,105.821,683.69A575.716,575.716,0,0,1,253.477,297.879a11.308,11.308,0,0,0-.836-15.988L190.65,226.355a11.293,11.293,0,0,0-15.935.853A681.144,681.144,0,0,0,0,683.69c0,238.23,121.851,447.995,306.623,570.388a11.291,11.291,0,0,0,16-3.787l41.714-72.25A11.3,11.3,0,0,0,360.844,1163.021Z" fill="url(#f)"/>
    <path d="M312.576,1255.932a11.294,11.294,0,0,0,10.047-5.641l41.714-72.25a11.267,11.267,0,0,0,.034-11.2Z" opacity="0.32"/>
    <path d="M252.641,281.891,190.65,226.355a11.29,11.29,0,0,0-9.335-2.739l74.993,67.941A11.239,11.239,0,0,0,252.641,281.891Z" opacity="0.32"/>
    <path d="M1193.768,227.208a11.294,11.294,0,0,0-15.936-.853l-61.991,55.536a11.308,11.308,0,0,0-.835,15.988A575.72,575.72,0,0,1,1262.661,683.69c0,199.571-101.174,375.5-255.023,479.331a11.3,11.3,0,0,0-3.493,15.02l41.714,72.25a11.291,11.291,0,0,0,16,3.787c184.772-122.393,306.623-332.158,306.623-570.388A681.148,681.148,0,0,0,1193.768,227.208Z" fill="url(#g)"/>
    <path d="M1024.565,1263.4l-41.627-72.1a11.3,11.3,0,0,0-15.363-4.162,578.654,578.654,0,0,1-567.771,0,11.3,11.3,0,0,0-15.364,4.163l-41.627,72.1a11.285,11.285,0,0,0,4.181,15.458,684.569,684.569,0,0,0,673.391,0A11.284,11.284,0,0,0,1024.565,1263.4Z" fill="url(#h)"/>
    <path d="M384.44,1191.3l-41.627,72.1a11.306,11.306,0,0,0,.243,11.705l51.177-89.433A11.26,11.26,0,0,0,384.44,1191.3Z" opacity="0.22"/>
    <path d="M982.941,1191.3l41.627,72.1a11.306,11.306,0,0,1-.243,11.705l-51.177-89.433A11.26,11.26,0,0,1,982.941,1191.3Z" opacity="0.22"/>
    <path d="M249.056,278.227c5.309-5.689,10.87-11.406,16.533-17.011l-54.283-48.63c-.2.2-.411.405-.614.609-5.445,5.474-10.849,11.1-16.068,16.721l54.2,48.559C248.9,278.392,248.979,278.309,249.056,278.227Z" fill="url(#i)"/>
    <path d="M1118.323,278.227l.228.248,54.2-48.559c-5.223-5.627-10.627-11.251-16.068-16.721-.2-.2-.41-.405-.614-.609l-54.284,48.63C1107.455,266.822,1113.016,272.54,1118.323,278.227Z" fill="url(#j)"/>
    <path d="M381.676,1195.749c-6.7-3.96-13.526-8.191-20.3-12.573l-36.429,63.1c.2.13.405.264.609.394,6.588,4.2,13.275,8.3,19.881,12.193l36.389-63.026C381.773,1195.805,381.724,1195.778,381.676,1195.749Z" fill="url(#k)"/>
    <path d="M985.7,1195.749c-.048.029-.1.056-.146.085l36.388,63.026c6.6-3.89,13.291-7.991,19.88-12.192.2-.13.406-.265.611-.4l-36.429-63.1C999.232,1187.556,992.406,1191.787,985.7,1195.749Z" fill="url(#l)"/>
    <path d="M164.719,626.322c-58.345-76.889-1.1-194.815-.025-197.021q11.57-23.56,25.19-45.869c-4.034,0-7.537.1-8.841.148-105.219,3.5-145.419,294.952,6.6,325.948,123.39,25.157,170.241-49.8,192.825-109.243a234.29,234.29,0,0,0-45.39,26.037C284.854,662.847,200.9,674,164.719,626.322Z" opacity="0.12"/>
    <path d="M364,603.984a232.719,232.719,0,0,0-32.293,19.78c-48.56,35.313-129.744,46.1-164.728,0-56.411-74.349-.935-188.317-.019-190.508,5.985-14.318,14.649-29.025,19.853-37.382a4.8,4.8,0,0,0-4.253-7.319c-102.053,3.4-141.044,286.076,6.4,316.139C313.7,730.125,358.826,642.151,370.9,610.2A4.986,4.986,0,0,0,364,603.984Z" fill="url(#m)"/>
    <g opacity="0.06">
      <path d="M140.946,558.031a3.072,3.072,0,0,0,1.689,1.308c-.2-1.89-.358-3.78-.491-5.668-.062.032-.127.053-.188.091A3.1,3.1,0,0,0,140.946,558.031Z"/>
      <path d="M169.834,423.751a3.1,3.1,0,0,0-1.01,4.268,2.957,2.957,0,0,0,.274.357q1.162-2.554,2.4-5.081A3.076,3.076,0,0,0,169.834,423.751Z"/>
      <path d="M277.192,694.962a3.1,3.1,0,1,0,4.268,1.009A3.1,3.1,0,0,0,277.192,694.962Z"/>
      <path d="M267.112,672.731A3.1,3.1,0,1,0,266.1,677,3.1,3.1,0,0,0,267.112,672.731Z"/>
      <path d="M148.06,485.8a3.1,3.1,0,0,0-1.01,4.268,3.058,3.058,0,0,0,.6.69q.606-2.7,1.249-5.3A3.051,3.051,0,0,0,148.06,485.8Z"/>
      <path d="M282.783,678.65a3.1,3.1,0,1,0-1.01,4.269A3.1,3.1,0,0,0,282.783,678.65Z"/>
      <path d="M284.512,661.989a3.1,3.1,0,1,0-1.01,4.268A3.1,3.1,0,0,0,284.512,661.989Z"/>
      <path d="M125.773,599.5a3.1,3.1,0,1,0-1.01,4.268A3.1,3.1,0,0,0,125.773,599.5Z"/>
      <path d="M131.877,531.531a3.1,3.1,0,1,0-1.01,4.269A3.1,3.1,0,0,0,131.877,531.531Z"/>
      <path d="M127.1,582.175a3.1,3.1,0,1,0-1.01,4.269A3.1,3.1,0,0,0,127.1,582.175Z"/>
      <path d="M124.043,616.158a3.1,3.1,0,1,0-1.009,4.269A3.1,3.1,0,0,0,124.043,616.158Z"/>
      <path d="M130.147,548.193a3.1,3.1,0,1,0-1.01,4.268A3.1,3.1,0,0,0,130.147,548.193Z"/>
      <path d="M128.825,565.514a3.1,3.1,0,1,0-1.01,4.269A3.1,3.1,0,0,0,128.825,565.514Z"/>
      <path d="M251.035,666.152a3.1,3.1,0,1,0-1.01,4.268A3.1,3.1,0,0,0,251.035,666.152Z"/>
      <circle cx="247.073" cy="685.102" r="3.102" transform="translate(-386.638 326.187) rotate(-40.643)"/>
      <path d="M214.008,656.912a3.1,3.1,0,1,0,4.559-4.052q-1.447-.24-2.879-.518a3.069,3.069,0,0,0-1.68,4.57Z"/>
      <path d="M215.225,691.905a3.1,3.1,0,1,0-4.269-1.01A3.1,3.1,0,0,0,215.225,691.905Z"/>
      <path d="M213.7,669.965a3.1,3.1,0,1,0,4.269,1.01A3.1,3.1,0,0,0,213.7,669.965Z"/>
      <path d="M228.044,693.205a3.1,3.1,0,1,0,4.269,1.01A3.1,3.1,0,0,0,228.044,693.205Z"/>
      <path d="M268.435,655.41a3.1,3.1,0,1,0-1.01,4.268A3.1,3.1,0,0,0,268.435,655.41Z"/>
      <path d="M233.635,676.894a3.1,3.1,0,1,0-1.01,4.269A3.1,3.1,0,0,0,233.635,676.894Z"/>
      <path d="M261.114,688.382a3.1,3.1,0,1,0,4.269,1.01A3.1,3.1,0,0,0,261.114,688.382Z"/>
      <path d="M235.365,660.233a3.1,3.1,0,1,0-1.01,4.268A3.1,3.1,0,0,0,235.365,660.233Z"/>
      <path d="M246.973,704.4a3.1,3.1,0,1,0-4.269-1.01A3.1,3.1,0,0,0,246.973,704.4Z"/>
      <path d="M100.129,519.033a3.1,3.1,0,1,0-1.01,4.269A3.1,3.1,0,0,0,100.129,519.033Z"/>
      <path d="M157.521,612a3.1,3.1,0,1,0-1.01,4.269A3.1,3.1,0,0,0,157.521,612Z"/>
      <path d="M96.067,557.284a3.1,3.1,0,1,0-3.259-5.278,3.069,3.069,0,0,0-.99,1q.012,1.679.047,3.355A3.1,3.1,0,0,0,96.067,557.284Z"/>
      <path d="M154.469,645.978a3.1,3.1,0,1,0-1.01,4.268A3.1,3.1,0,0,0,154.469,645.978Z"/>
      <path d="M155.791,628.657a3.1,3.1,0,1,0-1.01,4.268A3.1,3.1,0,0,0,155.791,628.657Z"/>
      <path d="M121.711,637.748a3.1,3.1,0,1,0-4.268-1.01A3.1,3.1,0,0,0,121.711,637.748Z"/>
      <path d="M98.4,535.694a3.1,3.1,0,1,0-1.009,4.269A3.1,3.1,0,0,0,98.4,535.694Z"/>
      <circle cx="150.1" cy="664.269" r="3.102" transform="translate(-396.46 257.999) rotate(-40.643)"/>
      <path d="M371.2,607.873a3.1,3.1,0,1,0-1.33,4.966c.364-.915.709-1.8,1.027-2.643A4.959,4.959,0,0,0,371.2,607.873Z"/>
      <path d="M135.34,673.381a3.094,3.094,0,0,0-4.049-1.117q2,2.179,4.106,4.251A3.091,3.091,0,0,0,135.34,673.381Z"/>
      <path d="M101.451,501.711a3.1,3.1,0,0,0-4.268-1.009,3.029,3.029,0,0,0-.71.624q-.292,1.545-.566,3.1a3.1,3.1,0,1,0,5.544-2.713Z"/>
      <path d="M147.148,678.95a3.1,3.1,0,1,0,4.269,1.01A3.1,3.1,0,0,0,147.148,678.95Z"/>
      <path d="M183.27,640.145a3.1,3.1,0,1,0,4.667,2.053c-1.307-.761-2.594-1.554-3.851-2.392A3.069,3.069,0,0,0,183.27,640.145Z"/>
      <path d="M259.792,705.7a3.081,3.081,0,0,0-1.2,1.379c1.7-.282,3.382-.583,5.036-.916A3.1,3.1,0,0,0,259.792,705.7Z"/>
      <path d="M116.624,460.246a3.1,3.1,0,1,0,1.01-4.269A3.1,3.1,0,0,0,116.624,460.246Z"/>
      <path d="M122.623,444.594a3.1,3.1,0,1,0-4.269-1.01A3.1,3.1,0,0,0,122.623,444.594Z"/>
      <path d="M117.529,508.291a3.1,3.1,0,1,0-1.01,4.268A3.1,3.1,0,0,0,117.529,508.291Z"/>
      <path d="M113.573,494.228a3.1,3.1,0,1,0,1.009-4.269A3.1,3.1,0,0,0,113.573,494.228Z"/>
      <path d="M115.8,524.952a3.1,3.1,0,1,0-1.01,4.269A3.1,3.1,0,0,0,115.8,524.952Z"/>
      <path d="M115.3,477.567a3.1,3.1,0,1,0,1.01-4.269A3.1,3.1,0,0,0,115.3,477.567Z"/>
      <path d="M111.425,576.256a3.1,3.1,0,1,0-1.01,4.269A3.1,3.1,0,0,0,111.425,576.256Z"/>
      <path d="M109.7,592.917a3.1,3.1,0,1,0-1.009,4.269A3.1,3.1,0,0,0,109.7,592.917Z"/>
      <path d="M107.363,614.507A3.1,3.1,0,1,0,103.1,613.5,3.1,3.1,0,0,0,107.363,614.507Z"/>
      <path d="M103.181,485.05a3.089,3.089,0,0,0-2.7-1.46q-.759,2.87-1.456,5.78a3.092,3.092,0,0,0,4.154-4.32Z"/>
      <path d="M112.747,558.935a3.1,3.1,0,1,0-1.009,4.268A3.1,3.1,0,0,0,112.747,558.935Z"/>
      <circle cx="111.838" cy="543.903" r="3.102" transform="translate(-327.29 204.043) rotate(-40.643)"/>
      <path d="M249,654a3.085,3.085,0,0,0,2.753-.238Q250.375,653.892,249,654Z"/>
      <path d="M184.487,675.138a3.1,3.1,0,1,0-1.01,4.268A3.1,3.1,0,0,0,184.487,675.138Z"/>
      <path d="M182.155,696.727a3.1,3.1,0,1,0-4.269-1.009A3.1,3.1,0,0,0,182.155,696.727Z"/>
      <path d="M171.869,635.235a3.1,3.1,0,1,0-1.01,4.269A3.1,3.1,0,0,0,171.869,635.235Z"/>
      <path d="M186.217,658.476a3.1,3.1,0,1,0-1.01,4.269A3.1,3.1,0,0,0,186.217,658.476Z"/>
      <path d="M198.338,650.993a3.095,3.095,0,0,0,5.732-1.638q-2.776-.9-5.464-1.97A3.092,3.092,0,0,0,198.338,650.993Z"/>
      <path d="M170.139,651.9a3.1,3.1,0,1,0-1.01,4.269A3.1,3.1,0,0,0,170.139,651.9Z"/>
      <path d="M141.443,605.416a3.1,3.1,0,1,0-1.01,4.269A3.1,3.1,0,0,0,141.443,605.416Z"/>
      <path d="M143.173,588.754a3.1,3.1,0,1,0-1.01,4.269A3.1,3.1,0,0,0,143.173,588.754Z"/>
      <path d="M201.887,664.4a3.1,3.1,0,1,0-1.01,4.269A3.1,3.1,0,0,0,201.887,664.4Z"/>
      <path d="M168.817,669.218a3.1,3.1,0,1,0-1.01,4.269A3.1,3.1,0,0,0,168.817,669.218Z"/>
      <path d="M144.861,573.815c-.174-.854-.346-1.708-.5-2.563a3.088,3.088,0,1,0,.5,2.563Z"/>
      <path d="M166.077,690.148a3.1,3.1,0,1,0-4.268-1.009A3.1,3.1,0,0,0,166.077,690.148Z"/>
      <path d="M95.348,569.677a3.1,3.1,0,0,0-2.972-1.445q.208,3.087.5,6.158a3.071,3.071,0,0,0,1.466-.444A3.1,3.1,0,0,0,95.348,569.677Z"/>
      <path d="M104.909,468.8q-.471,1.4-.926,2.82A3.1,3.1,0,0,0,104.909,468.8Z"/>
      <path d="M196.3,680.707a3.1,3.1,0,1,0,4.269,1.01A3.1,3.1,0,0,0,196.3,680.707Z"/>
      <path d="M349.843,618.01a3.1,3.1,0,1,0,4.269,1.01A3.1,3.1,0,0,0,349.843,618.01Z"/>
      <path d="M171.876,394.037a3.1,3.1,0,1,0,3.065-4.688c-.656.114-1.31.235-1.96.373-.031.017-.064.027-.095.046A3.1,3.1,0,0,0,171.876,394.037Z"/>
      <path d="M119.982,654.41a3.1,3.1,0,1,0-4.5-3.8q1.245,2.143,2.558,4.23A3.077,3.077,0,0,0,119.982,654.41Z"/>
      <path d="M106.644,626.9a3.09,3.09,0,0,0-2.785-1.455q1,2.772,2.084,5.487A3.092,3.092,0,0,0,106.644,626.9Z"/>
      <path d="M140.121,622.737a3.1,3.1,0,1,0-1.01,4.269A3.1,3.1,0,0,0,140.121,622.737Z"/>
      <path d="M214.913,704.957a3.094,3.094,0,0,0-5.408,2.994q2.637.3,5.219.523A3.1,3.1,0,0,0,214.913,704.957Z"/>
      <path d="M351.372,639.95a3.1,3.1,0,1,0-4.269-1.009A3.1,3.1,0,0,0,351.372,639.95Z"/>
      <path d="M197.825,702.647a3.1,3.1,0,1,0-4.268-1.01A3.1,3.1,0,0,0,197.825,702.647Z"/>
      <path d="M364.392,625.158c-.034.067-.07.132-.1.2Z"/>
      <path d="M345.425,655.379q1.514-1.918,2.939-3.836a3.064,3.064,0,0,0-2.939,3.836Z"/>
      <path d="M332.443,628.752a3.1,3.1,0,1,0,4.269,1.01A3.1,3.1,0,0,0,332.443,628.752Z"/>
      <path d="M153.154,422.1a3.1,3.1,0,1,0,1.01-4.269A3.1,3.1,0,0,0,153.154,422.1Z"/>
      <path d="M294.9,671.167a3.1,3.1,0,1,0,1.01-4.269A3.1,3.1,0,0,0,294.9,671.167Z"/>
      <path d="M333.972,650.693a3.1,3.1,0,1,0-4.268-1.01A3.1,3.1,0,0,0,333.972,650.693Z"/>
      <path d="M328.381,667a3.1,3.1,0,1,0,1.01-4.269A3.1,3.1,0,0,0,328.381,667Z"/>
      <path d="M155.486,400.51a3.1,3.1,0,1,0,4.269,1.01A3.1,3.1,0,0,0,155.486,400.51Z"/>
      <path d="M171.564,407.089a3.1,3.1,0,1,0,4.268,1.01A3.1,3.1,0,0,0,171.564,407.089Z"/>
      <path d="M284.825,648.936a3.086,3.086,0,0,0,1.455-2.411q-2.742.885-5.512,1.678A3.091,3.091,0,0,0,284.825,648.936Z"/>
      <path d="M310.982,677.746a3.1,3.1,0,1,0,1.009-4.269A3.1,3.1,0,0,0,310.982,677.746Z"/>
      <path d="M293.582,688.488a3.1,3.1,0,1,0,1.009-4.269A3.1,3.1,0,0,0,293.582,688.488Z"/>
      <path d="M300.9,655.515a3.1,3.1,0,1,0-4.268-1.01A3.1,3.1,0,0,0,300.9,655.515Z"/>
      <circle cx="314.943" cy="658.795" r="3.102" transform="translate(-353.132 364.048) rotate(-40.643)"/>
      <path d="M318.3,644.773a3.1,3.1,0,1,0-4.269-1.01A3.1,3.1,0,0,0,318.3,644.773Z"/>
      <path d="M148.372,472.744a3.094,3.094,0,0,0,3.559,1.322c.483-1.677.97-3.322,1.459-4.921a3.094,3.094,0,0,0-5.018,3.6Z"/>
      <path d="M130.972,483.486a3.1,3.1,0,1,0,1.01-4.268A3.1,3.1,0,0,0,130.972,483.486Z"/>
      <path d="M129.65,500.807a3.1,3.1,0,1,0,1.01-4.268A3.1,3.1,0,0,0,129.65,500.807Z"/>
      <circle cx="135.341" cy="465.195" r="3.102" transform="translate(-270.355 200.366) rotate(-40.643)"/>
      <path d="M134.024,449.5a3.1,3.1,0,1,0,1.01-4.269A3.1,3.1,0,0,0,134.024,449.5Z"/>
      <path d="M127.921,517.469a3.1,3.1,0,1,0,1.009-4.269A3.1,3.1,0,0,0,127.921,517.469Z"/>
      <path d="M136.059,660.988a3.1,3.1,0,1,0-4.268-1.009A3.1,3.1,0,0,0,136.059,660.988Z"/>
      <path d="M138.391,639.4a3.1,3.1,0,1,0-1.009,4.268A3.1,3.1,0,0,0,138.391,639.4Z"/>
      <path d="M150.1,456.083a3.1,3.1,0,1,0,1.01-4.269A3.1,3.1,0,0,0,150.1,456.083Z"/>
      <path d="M151.424,438.761a3.1,3.1,0,1,0,1.01-4.268A3.1,3.1,0,0,0,151.424,438.761Z"/>
      <path d="M138.086,411.252a3.1,3.1,0,1,0,4.269,1.01A3.1,3.1,0,0,0,138.086,411.252Z"/>
      <path d="M144.982,504.263a3.1,3.1,0,0,0-.114.655C144.905,504.7,144.945,504.482,144.982,504.263Z"/>
      <path d="M135.754,432.842a3.1,3.1,0,1,0,1.01-4.269A3.1,3.1,0,0,0,135.754,432.842Z"/>
    </g>
    <path d="M1202.687,626.322c58.345-76.889,1.105-194.815.026-197.021q-11.571-23.56-25.191-45.869c4.034,0,7.537.1,8.841.148,105.219,3.5,145.42,294.952-6.6,325.948-123.39,25.157-170.241-49.8-192.824-109.243a234.315,234.315,0,0,1,45.389,26.037C1082.552,662.847,1166.507,674,1202.687,626.322Z" opacity="0.12"/>
    <path d="M1003.4,603.984a232.66,232.66,0,0,1,32.293,19.78c48.56,35.313,129.744,46.1,164.728,0,56.411-74.349.935-188.317.019-190.508-5.985-14.318-14.649-29.025-19.853-37.382a4.8,4.8,0,0,1,4.254-7.319c102.052,3.4,141.043,286.076-6.4,316.139-124.734,25.431-169.864-62.543-181.936-94.5A4.986,4.986,0,0,1,1003.4,603.984Z" fill="url(#n)"/>
    <g opacity="0.06">
      <path d="M1226.46,558.031a3.072,3.072,0,0,1-1.689,1.308c.2-1.89.358-3.78.491-5.668.062.032.127.053.188.091A3.1,3.1,0,0,1,1226.46,558.031Z"/>
      <path d="M1197.572,423.751a3.1,3.1,0,0,1,1.01,4.268,2.951,2.951,0,0,1-.273.357q-1.162-2.554-2.4-5.081A3.073,3.073,0,0,1,1197.572,423.751Z"/>
      <path d="M1090.215,694.962a3.1,3.1,0,1,1-4.269,1.009A3.1,3.1,0,0,1,1090.215,694.962Z"/>
      <path d="M1100.294,672.731A3.1,3.1,0,1,1,1101.3,677,3.1,3.1,0,0,1,1100.294,672.731Z"/>
      <path d="M1219.346,485.8a3.1,3.1,0,0,1,1.01,4.268,3.033,3.033,0,0,1-.6.69q-.606-2.7-1.248-5.3A3.057,3.057,0,0,1,1219.346,485.8Z"/>
      <path d="M1084.624,678.65a3.1,3.1,0,1,1,1.009,4.269A3.1,3.1,0,0,1,1084.624,678.65Z"/>
      <path d="M1082.894,661.989a3.1,3.1,0,1,1,1.01,4.268A3.1,3.1,0,0,1,1082.894,661.989Z"/>
      <path d="M1241.633,599.5a3.1,3.1,0,1,1,1.01,4.268A3.1,3.1,0,0,1,1241.633,599.5Z"/>
      <path d="M1235.529,531.531a3.1,3.1,0,1,1,1.01,4.269A3.1,3.1,0,0,1,1235.529,531.531Z"/>
      <path d="M1240.311,582.175a3.1,3.1,0,1,1,1.01,4.269A3.1,3.1,0,0,1,1240.311,582.175Z"/>
      <path d="M1243.363,616.158a3.1,3.1,0,1,1,1.01,4.269A3.1,3.1,0,0,1,1243.363,616.158Z"/>
      <path d="M1237.259,548.193a3.1,3.1,0,1,1,1.01,4.268A3.1,3.1,0,0,1,1237.259,548.193Z"/>
      <path d="M1238.581,565.514a3.1,3.1,0,1,1,1.01,4.269A3.1,3.1,0,0,1,1238.581,565.514Z"/>
      <path d="M1116.371,666.152a3.1,3.1,0,1,1,1.01,4.268A3.1,3.1,0,0,1,1116.371,666.152Z"/>
      <circle cx="1120.333" cy="685.102" r="3.102" transform="translate(-129.232 1088.957) rotate(-49.357)"/>
      <path d="M1153.4,656.912a3.1,3.1,0,1,1-4.559-4.052q1.448-.24,2.879-.518a3.069,3.069,0,0,1,1.68,4.57Z"/>
      <path d="M1152.181,691.905a3.1,3.1,0,1,1,4.269-1.01A3.1,3.1,0,0,1,1152.181,691.905Z"/>
      <path d="M1153.71,669.965a3.1,3.1,0,1,1-4.268,1.01A3.1,3.1,0,0,1,1153.71,669.965Z"/>
      <path d="M1139.362,693.205a3.1,3.1,0,1,1-4.268,1.01A3.1,3.1,0,0,1,1139.362,693.205Z"/>
      <path d="M1098.972,655.41a3.1,3.1,0,1,1,1.009,4.268A3.1,3.1,0,0,1,1098.972,655.41Z"/>
      <path d="M1133.771,676.894a3.1,3.1,0,1,1,1.01,4.269A3.1,3.1,0,0,1,1133.771,676.894Z"/>
      <path d="M1106.292,688.382a3.1,3.1,0,1,1-4.269,1.01A3.1,3.1,0,0,1,1106.292,688.382Z"/>
      <path d="M1132.042,660.233a3.1,3.1,0,1,1,1.01,4.268A3.1,3.1,0,0,1,1132.042,660.233Z"/>
      <path d="M1120.433,704.4a3.1,3.1,0,1,1,4.269-1.01A3.1,3.1,0,0,1,1120.433,704.4Z"/>
      <path d="M1267.277,519.033a3.1,3.1,0,1,1,1.01,4.269A3.1,3.1,0,0,1,1267.277,519.033Z"/>
      <path d="M1209.885,612a3.1,3.1,0,1,1,1.01,4.269A3.1,3.1,0,0,1,1209.885,612Z"/>
      <path d="M1271.339,557.284a3.1,3.1,0,1,1,3.259-5.278,3.069,3.069,0,0,1,.99,1q-.012,1.679-.046,3.355A3.1,3.1,0,0,1,1271.339,557.284Z"/>
      <path d="M1212.937,645.978a3.1,3.1,0,1,1,1.01,4.268A3.1,3.1,0,0,1,1212.937,645.978Z"/>
      <path d="M1211.615,628.657a3.1,3.1,0,1,1,1.01,4.268A3.1,3.1,0,0,1,1211.615,628.657Z"/>
      <path d="M1245.7,637.748a3.1,3.1,0,1,1,4.269-1.01A3.1,3.1,0,0,1,1245.7,637.748Z"/>
      <path d="M1269.007,535.694a3.1,3.1,0,1,1,1.01,4.269A3.1,3.1,0,0,1,1269.007,535.694Z"/>
      <circle cx="1217.306" cy="664.269" r="3.102" transform="translate(-79.614 1155.274) rotate(-49.357)"/>
      <path d="M996.205,607.873a3.1,3.1,0,1,1,1.331,4.966c-.364-.915-.71-1.8-1.028-2.643A4.959,4.959,0,0,1,996.205,607.873Z"/>
      <path d="M1232.067,673.381a3.093,3.093,0,0,1,4.049-1.117q-2,2.179-4.107,4.251A3.088,3.088,0,0,1,1232.067,673.381Z"/>
      <path d="M1265.955,501.711a3.1,3.1,0,0,1,4.269-1.009,3.07,3.07,0,0,1,.71.624q.291,1.545.565,3.1a3.156,3.156,0,0,1-.265.546,3.1,3.1,0,0,1-5.279-3.259Z"/>
      <path d="M1220.258,678.95a3.1,3.1,0,1,1-4.269,1.01A3.1,3.1,0,0,1,1220.258,678.95Z"/>
      <path d="M1184.136,640.145a3.1,3.1,0,1,1-4.667,2.053c1.308-.761,2.594-1.554,3.851-2.392A3.069,3.069,0,0,1,1184.136,640.145Z"/>
      <path d="M1107.614,705.7a3.081,3.081,0,0,1,1.2,1.379c-1.7-.282-3.382-.583-5.036-.916A3.1,3.1,0,0,1,1107.614,705.7Z"/>
      <path d="M1250.782,460.246a3.1,3.1,0,1,1-1.01-4.269A3.1,3.1,0,0,1,1250.782,460.246Z"/>
      <path d="M1244.783,444.594a3.1,3.1,0,1,1,4.269-1.01A3.1,3.1,0,0,1,1244.783,444.594Z"/>
      <path d="M1249.877,508.291a3.1,3.1,0,1,1,1.01,4.268A3.1,3.1,0,0,1,1249.877,508.291Z"/>
      <path d="M1253.834,494.228a3.1,3.1,0,1,1-1.01-4.269A3.1,3.1,0,0,1,1253.834,494.228Z"/>
      <path d="M1251.607,524.952a3.1,3.1,0,1,1,1.01,4.269A3.1,3.1,0,0,1,1251.607,524.952Z"/>
      <path d="M1252.1,477.567a3.1,3.1,0,1,1-1.01-4.269A3.1,3.1,0,0,1,1252.1,477.567Z"/>
      <path d="M1255.981,576.256a3.1,3.1,0,1,1,1.01,4.269A3.1,3.1,0,0,1,1255.981,576.256Z"/>
      <path d="M1257.711,592.917a3.1,3.1,0,1,1,1.01,4.269A3.1,3.1,0,0,1,1257.711,592.917Z"/>
      <path d="M1260.043,614.507a3.1,3.1,0,1,1,4.269-1.009A3.1,3.1,0,0,1,1260.043,614.507Z"/>
      <path d="M1264.225,485.05a3.089,3.089,0,0,1,2.7-1.46q.759,2.87,1.456,5.78a3.092,3.092,0,0,1-4.154-4.32Z"/>
      <path d="M1254.659,558.935a3.1,3.1,0,1,1,1.01,4.268A3.1,3.1,0,0,1,1254.659,558.935Z"/>
      <circle cx="1255.569" cy="543.903" r="3.102" transform="translate(25.059 1142.341) rotate(-49.357)"/>
      <path d="M1118.406,654a3.083,3.083,0,0,1-2.752-.238Q1117.031,653.892,1118.406,654Z"/>
      <path d="M1182.919,675.138a3.1,3.1,0,1,1,1.01,4.268A3.1,3.1,0,0,1,1182.919,675.138Z"/>
      <path d="M1185.251,696.727a3.1,3.1,0,1,1,4.269-1.009A3.1,3.1,0,0,1,1185.251,696.727Z"/>
      <path d="M1195.537,635.235a3.1,3.1,0,1,1,1.01,4.269A3.1,3.1,0,0,1,1195.537,635.235Z"/>
      <path d="M1181.189,658.476a3.1,3.1,0,1,1,1.01,4.269A3.1,3.1,0,0,1,1181.189,658.476Z"/>
      <path d="M1169.068,650.993a3.094,3.094,0,0,1-5.731-1.638q2.775-.9,5.463-1.97A3.092,3.092,0,0,1,1169.068,650.993Z"/>
      <path d="M1197.267,651.9a3.1,3.1,0,1,1,1.01,4.269A3.1,3.1,0,0,1,1197.267,651.9Z"/>
      <path d="M1225.963,605.416a3.1,3.1,0,1,1,1.01,4.269A3.1,3.1,0,0,1,1225.963,605.416Z"/>
      <path d="M1224.233,588.754a3.1,3.1,0,1,1,1.01,4.269A3.1,3.1,0,0,1,1224.233,588.754Z"/>
      <path d="M1165.519,664.4a3.1,3.1,0,1,1,1.01,4.269A3.1,3.1,0,0,1,1165.519,664.4Z"/>
      <path d="M1198.589,669.218a3.1,3.1,0,1,1,1.01,4.269A3.1,3.1,0,0,1,1198.589,669.218Z"/>
      <path d="M1222.545,573.815c.174-.854.346-1.708.5-2.563a3.088,3.088,0,1,1-.5,2.563Z"/>
      <path d="M1201.329,690.148a3.1,3.1,0,1,1,4.268-1.009A3.1,3.1,0,0,1,1201.329,690.148Z"/>
      <path d="M1272.059,569.677a3.093,3.093,0,0,1,2.971-1.445q-.207,3.087-.5,6.158a3.064,3.064,0,0,1-1.465-.444A3.1,3.1,0,0,1,1272.059,569.677Z"/>
      <path d="M1262.5,468.8q.472,1.4.927,2.82A3.1,3.1,0,0,1,1262.5,468.8Z"/>
      <path d="M1171.11,680.707a3.1,3.1,0,1,1-4.269,1.01A3.1,3.1,0,0,1,1171.11,680.707Z"/>
      <path d="M1017.563,618.01a3.1,3.1,0,1,1-4.269,1.01A3.1,3.1,0,0,1,1017.563,618.01Z"/>
      <path d="M1195.53,394.037a3.1,3.1,0,1,1-3.065-4.688c.656.114,1.31.235,1.96.373.031.017.065.027.1.046A3.1,3.1,0,0,1,1195.53,394.037Z"/>
      <path d="M1247.425,654.41a3.1,3.1,0,1,1,4.5-3.8q-1.245,2.143-2.558,4.23A3.073,3.073,0,0,1,1247.425,654.41Z"/>
      <path d="M1260.763,626.9a3.089,3.089,0,0,1,2.785-1.455q-1,2.772-2.084,5.487A3.09,3.09,0,0,1,1260.763,626.9Z"/>
      <path d="M1227.285,622.737a3.1,3.1,0,1,1,1.01,4.269A3.1,3.1,0,0,1,1227.285,622.737Z"/>
      <path d="M1152.493,704.957a3.094,3.094,0,0,1,5.408,2.994q-2.636.3-5.219.523A3.1,3.1,0,0,1,1152.493,704.957Z"/>
      <path d="M1016.034,639.95a3.1,3.1,0,1,1,4.269-1.009A3.1,3.1,0,0,1,1016.034,639.95Z"/>
      <path d="M1169.581,702.647a3.1,3.1,0,1,1,4.269-1.01A3.1,3.1,0,0,1,1169.581,702.647Z"/>
      <path d="M1003.014,625.158c.034.067.07.132.1.2Z"/>
      <path d="M1021.982,655.379c-1.009-1.279-1.993-2.558-2.94-3.836a3.065,3.065,0,0,1,2.94,3.836Z"/>
      <path d="M1034.963,628.752a3.1,3.1,0,1,1-4.269,1.01A3.1,3.1,0,0,1,1034.963,628.752Z"/>
      <path d="M1214.252,422.1a3.1,3.1,0,1,1-1.01-4.269A3.1,3.1,0,0,1,1214.252,422.1Z"/>
      <path d="M1072.5,671.167a3.1,3.1,0,1,1-1.01-4.269A3.1,3.1,0,0,1,1072.5,671.167Z"/>
      <path d="M1033.434,650.693a3.1,3.1,0,1,1,4.269-1.01A3.1,3.1,0,0,1,1033.434,650.693Z"/>
      <path d="M1039.025,667a3.1,3.1,0,1,1-1.01-4.269A3.1,3.1,0,0,1,1039.025,667Z"/>
      <path d="M1211.92,400.51a3.1,3.1,0,1,1-4.268,1.01A3.1,3.1,0,0,1,1211.92,400.51Z"/>
      <path d="M1195.843,407.089a3.1,3.1,0,1,1-4.269,1.01A3.1,3.1,0,0,1,1195.843,407.089Z"/>
      <path d="M1082.582,648.936a3.09,3.09,0,0,1-1.456-2.411q2.742.885,5.512,1.678A3.09,3.09,0,0,1,1082.582,648.936Z"/>
      <path d="M1056.425,677.746a3.1,3.1,0,1,1-1.01-4.269A3.1,3.1,0,0,1,1056.425,677.746Z"/>
      <path d="M1073.825,688.488a3.1,3.1,0,1,1-1.01-4.269A3.1,3.1,0,0,1,1073.825,688.488Z"/>
      <path d="M1066.5,655.515a3.1,3.1,0,1,1,4.269-1.01A3.1,3.1,0,0,1,1066.5,655.515Z"/>
      <circle cx="1052.463" cy="658.795" r="3.102" transform="translate(-132.934 1028.286) rotate(-49.357)"/>
      <path d="M1049.1,644.773a3.1,3.1,0,1,1,4.269-1.01A3.1,3.1,0,0,1,1049.1,644.773Z"/>
      <path d="M1219.034,472.744a3.094,3.094,0,0,1-3.559,1.322c-.483-1.677-.97-3.322-1.459-4.921a3.094,3.094,0,0,1,5.018,3.6Z"/>
      <path d="M1236.434,483.486a3.1,3.1,0,1,1-1.01-4.268A3.1,3.1,0,0,1,1236.434,483.486Z"/>
      <path d="M1237.756,500.807a3.1,3.1,0,1,1-1.01-4.268A3.1,3.1,0,0,1,1237.756,500.807Z"/>
      <circle cx="1232.065" cy="465.195" r="3.102" transform="translate(76.586 1097.065) rotate(-49.357)"/>
      <path d="M1233.382,449.5a3.1,3.1,0,1,1-1.01-4.269A3.1,3.1,0,0,1,1233.382,449.5Z"/>
      <path d="M1239.486,517.469a3.1,3.1,0,1,1-1.01-4.269A3.1,3.1,0,0,1,1239.486,517.469Z"/>
      <path d="M1231.347,660.988a3.1,3.1,0,1,1,4.269-1.009A3.1,3.1,0,0,1,1231.347,660.988Z"/>
      <path d="M1229.015,639.4a3.1,3.1,0,1,1,1.01,4.268A3.1,3.1,0,0,1,1229.015,639.4Z"/>
      <path d="M1217.3,456.083a3.1,3.1,0,1,1-1.01-4.269A3.1,3.1,0,0,1,1217.3,456.083Z"/>
      <path d="M1215.982,438.761a3.1,3.1,0,1,1-1.01-4.268A3.1,3.1,0,0,1,1215.982,438.761Z"/>
      <path d="M1229.32,411.252a3.1,3.1,0,1,1-4.269,1.01A3.1,3.1,0,0,1,1229.32,411.252Z"/>
      <path d="M1222.424,504.263a3.166,3.166,0,0,1,.115.655C1222.5,504.7,1222.461,504.482,1222.424,504.263Z"/>
      <path d="M1231.652,432.842a3.1,3.1,0,1,1-1.01-4.269A3.1,3.1,0,0,1,1231.652,432.842Z"/>
    </g>
    <path d="M1054.8,1255.932a11.3,11.3,0,0,1-10.048-5.641l-41.713-72.25a11.267,11.267,0,0,1-.034-11.2Z" opacity="0.32"/>
    <path d="M1114.726,281.891l61.991-55.536a11.29,11.29,0,0,1,9.335-2.739l-74.993,67.941A11.239,11.239,0,0,1,1114.726,281.891Z" opacity="0.32"/>
    <path d="M1159.469,209.55l-62.173,55.7a11.267,11.267,0,0,1-10.866,2.366l76.648-68.32A11.3,11.3,0,0,1,1159.469,209.55Z" opacity="0.32"/>
    <g>
      <circle cx="684.241" cy="683.69" r="184.512" fill="url(#o)"/>
      <g>
        <circle cx="684.241" cy="683.69" r="129.845" fill="url(#p)"/>
        <circle cx="684.241" cy="683.69" r="113.808" fill="url(#q)"/>
        <circle cx="684.241" cy="683.69" r="108.079" fill="url(#r)"/>
      </g>
      <ellipse cx="684.241" cy="626.112" rx="61.078" ry="33.811" fill="#fff" opacity="0.15"/>
    </g>
    <path d="M729.724,1023.54H637.655a6.671,6.671,0,0,0-6.583,5.564H736.307A6.671,6.671,0,0,0,729.724,1023.54Z" fill="#fff" opacity="0.33"/>
  </g>
</svg>
