<!DOCTYPE svg PUBLIC "-//W3C//DTD SVG 1.1//EN" "http://www.w3.org/Graphics/SVG/1.1/DTD/svg11.dtd">
<!-- Uploaded to: SVG Repo, www.svgrepo.com, Transformed by: SVG Repo Mixer Tools -->
<svg fill="#3d3838" height="256px" width="256px" version="1.1" id="Layer_1" xmlns="http://www.w3.org/2000/svg" xmlns:xlink="http://www.w3.org/1999/xlink" viewBox="0 0 512.00 512.00" xml:space="preserve" stroke="#3d3838" stroke-width="0.00512" transform="rotate(0)matrix(1, 0, 0, 1, 0, 0)">
<g id="SVGRepo_bgCarrier" stroke-width="0"/>
<g id="SVGRepo_tracerCarrier" stroke-linecap="round" stroke-linejoin="round" stroke="#CCCCCC" stroke-width="1.024"/>
<g id="SVGRepo_iconCarrier"> <g> <g> <path d="M256,0C114.842,0,0,114.842,0,256s114.842,256,256,256s256-114.842,256-256S397.158,0,256,0z M60.041,202.556 C84.25,113.647,164.838,51.558,256,51.558c91.17,0,171.75,62.089,195.968,150.997c0.7,2.569,0.162,5.308-1.451,7.424 c-1.613,2.108-4.122,3.354-6.784,3.354H68.267c-2.654,0-5.163-1.246-6.775-3.354C59.878,207.863,59.341,205.124,60.041,202.556z M341.333,281.6c0,24.32-36.838,42.667-85.692,42.667c-48.845,0-85.692-18.347-85.692-42.667 c0-24.328,36.847-42.667,85.692-42.667C304.495,238.933,341.333,257.271,341.333,281.6z M84.813,355.473 c-0.683,0.171-1.374,0.247-2.057,0.247c-3.115,0-6.042-1.698-7.543-4.548C59.733,321.894,51.558,288.99,51.558,256 c0-2.253,0.145-4.463,0.299-6.673l0.188-3.106c0.196-3.934,3.046-7.219,6.912-7.97c3.721-0.717,7.68-1.092,11.443-1.092 c33.135,0,60.092,26.948,60.092,60.083C130.492,324.83,111.71,348.774,84.813,355.473z M375.595,421.478 c-35.166,25.489-76.527,38.963-119.595,38.963c-43.11,0-84.514-13.5-119.714-39.049c-3.763-2.739-4.642-7.987-1.971-11.802 c20.685-29.585,68.454-48.7,121.685-48.7c53.111,0,100.838,19.149,121.583,48.794C380.245,413.5,379.366,418.748,375.595,421.478z M436.779,351.215c-1.502,2.842-4.437,4.54-7.543,4.54c-0.683,0-1.374-0.085-2.057-0.247c-26.889-6.69-45.67-30.652-45.67-58.266 c0-30.703,23.031-49.775,60.092-49.775c3.533,0,7.39,0.401,11.477,1.195c3.849,0.751,6.699,4.036,6.895,7.962l0.179,3.038 c0.154,2.202,0.29,4.403,0.29,6.647C460.442,300.066,452.13,322.193,436.779,351.215z"/> </g> </g> </g>
</svg>