<svg width="267" height="267" viewBox="0 0 267 267" fill="none" xmlns="http://www.w3.org/2000/svg">
<g clip-path="url(#clip0_239_20773)">
<path fill-rule="evenodd" clip-rule="evenodd" d="M21.86 157.95C22.56 150.38 27.36 148.91 36.23 153.59C65.92 169.21 91.6 194.01 102.03 226.5C105.06 235.6 103.17 240.57 96.31 241.46C59 228.68 30.43 197.1 21.86 157.94L21.86 157.95ZM244.53 157.95C243.84 150.38 239.06 148.91 230.16 153.59C200.48 169.21 174.79 194.01 164.38 226.5C161.35 235.6 163.27 240.57 170.1 241.46C207.39 228.68 235.98 197.1 244.53 157.94L244.53 157.95ZM133.21 19.27C88.63 19.27 50.02 44.91 31.29 82.24C25.65 93.48 27.37 108.6 43.3 106.04C59.42 103.43 64.32 101.29 78.7 95.47C96.17 88.4 114.66 84.84 133.21 84.74C151.72 84.83 170.24 88.4 187.72 95.47C202.12 101.29 207.02 103.43 223.11 106.04C237.06 108.29 241.25 95.16 236.23 84.56C217.93 45.97 178.69 19.28 133.22 19.28L133.21 19.27ZM133.21 116.42C142.58 116.42 150.19 124.02 150.19 133.43C150.19 142.84 142.57 150.44 133.21 150.44C123.85 150.44 116.2 142.84 116.2 133.43C116.2 124.02 123.82 116.42 133.21 116.42ZM133.21 266.86C59.64 266.86 4.92369e-10 207.12 3.17192e-10 133.43C1.42015e-10 59.74 59.64 -1.41777e-10 133.21 -3.16669e-10C206.78 -4.9156e-10 266.43 59.75 266.43 133.43C266.43 207.11 206.78 266.86 133.21 266.86Z" fill="#939598"/>
<path d="M43.4023 231.765L55.3793 217.107" stroke="#FFF200" stroke-width="4" stroke-miterlimit="10"/>
<path d="M209.316 218L222.155 233.165" stroke="#FFF200" stroke-width="4" stroke-miterlimit="10" stroke-linejoin="round"/>
<path d="M37.0002 40.4509L50.7464 53.4648" stroke="#FFF200" stroke-width="4" stroke-miterlimit="10"/>
<path d="M217.322 55.658L229.299 40.9995" stroke="#FFF200" stroke-width="4" stroke-miterlimit="10"/>
<path d="M58.5 103C48.4277 123.11 46.6198 135.755 51 162L31.5 151.5C24.4224 150.212 22.2099 151.485 22 158C28.9983 184.019 36.3447 196.481 54 216L42 230.5C6.34635 193.191 -2.12496 164.483 1.49997 114C4.47876 88.612 16.6131 62.7393 36 42.5L49.5 55.5C32.2715 77.2839 25.2857 88.1778 29.5 99.5C33.0937 109.99 43.9294 105.463 58.5 103Z" fill="#D7ED53" fill-opacity="0.54"/>
<path d="M211 104C219.61 124.273 220.983 136.779 218.5 160.5C237.312 148.739 243.16 148.022 244.5 159C238.597 183.233 230.823 195.957 211 217.5L224 231.5C256.261 195.31 266.617 172.883 266 127.5C263.392 91.289 254.569 72.9943 231 42.5L218.5 57C234.713 79.0333 241.902 90.2838 237 100C233.694 107.314 226.738 107.126 211 104Z" fill="#D7ED53" fill-opacity="0.54"/>
<path d="M58.5 103C48.4277 123.11 46.6198 135.755 51 162L31.5 151.5C24.4224 150.212 22.2099 151.485 22 158C28.9983 184.019 36.3447 196.481 54 216L42 230.5C6.34635 193.191 -2.12496 164.483 1.49997 114C4.47876 88.612 16.6131 62.7393 36 42.5L49.5 55.5C32.2715 77.2839 25.2857 88.1778 29.5 99.5C33.0937 109.99 43.9294 105.463 58.5 103Z" stroke="#D7ED53" stroke-opacity="0.55"/>
<path d="M211 104C219.61 124.273 220.983 136.779 218.5 160.5C237.312 148.739 243.16 148.022 244.5 159C238.597 183.233 230.823 195.957 211 217.5L224 231.5C256.261 195.31 266.617 172.883 266 127.5C263.392 91.289 254.569 72.9943 231 42.5L218.5 57C234.713 79.0333 241.902 90.2838 237 100C233.694 107.314 226.738 107.126 211 104Z" stroke="#D7ED53" stroke-opacity="0.55"/>
</g>
<defs>
<clipPath id="clip0_239_20773">
<rect width="266.43" height="266.86" fill="white"/>
</clipPath>
</defs>
</svg>
