<?xml version="1.0" encoding="UTF-8"?>
<svg id="_Шар_2" data-name="Шар 2" xmlns="http://www.w3.org/2000/svg" xmlns:xlink="http://www.w3.org/1999/xlink" viewBox="0 0 327.49 328.3">
  <defs>
    <style>
      .cls-1 {
        fill: #755d55;
      }

      .cls-1, .cls-2, .cls-3, .cls-4, .cls-5, .cls-6, .cls-7, .cls-8, .cls-9, .cls-10, .cls-11, .cls-12, .cls-13, .cls-14, .cls-15, .cls-16, .cls-17, .cls-18, .cls-19, .cls-20, .cls-21, .cls-22, .cls-23, .cls-24, .cls-25, .cls-26, .cls-27, .cls-28, .cls-29, .cls-30, .cls-31, .cls-32, .cls-33, .cls-34, .cls-35, .cls-36, .cls-37, .cls-38, .cls-39, .cls-40, .cls-41, .cls-42, .cls-43, .cls-44 {
        stroke-width: 0px;
      }

      .cls-2 {
        fill: #4a4131;
      }

      .cls-3 {
        fill: #9b6a5f;
      }

      .cls-4 {
        fill: #ab7f70;
      }

      .cls-5 {
        fill: #736e6a;
      }

      .cls-6 {
        fill: #31160b;
      }

      .cls-7 {
        fill: #624030;
      }

      .cls-8 {
        fill: #596d75;
      }

      .cls-9 {
        fill: #591812;
      }

      .cls-10 {
        fill: #6f777d;
      }

      .cls-11 {
        fill: #1e0e06;
      }

      .cls-12 {
        fill: #5e4931;
      }

      .cls-13 {
        fill: #606368;
      }

      .cls-14 {
        fill: #6c3e34;
      }

      .cls-15 {
        fill: #e4d0c0;
      }

      .cls-16 {
        fill: #a7684a;
      }

      .cls-17 {
        fill: #1e2c34;
      }

      .cls-18 {
        fill: #8e9295;
      }

      .cls-19 {
        fill: #4c2e24;
      }

      .cls-20 {
        fill: #c5c7c9;
      }

      .cls-21 {
        fill: url(#_Градієнт_без_назви_38);
      }

      .cls-22 {
        fill: #495255;
      }

      .cls-23 {
        fill: #afb6c1;
      }

      .cls-24 {
        fill: #b48b72;
      }

      .cls-25 {
        fill: #a44a42;
      }

      .cls-26 {
        fill: #5e3021;
      }

      .cls-27 {
        fill: #3f1815;
      }

      .cls-28 {
        fill: #34363b;
      }

      .cls-29 {
        fill: #7f7b7c;
      }

      .cls-30 {
        fill: #817557;
      }

      .cls-31 {
        fill: #70828a;
      }

      .cls-32 {
        fill: #d3a990;
      }

      .cls-33 {
        fill: #f1e5d9;
      }

      .cls-34 {
        fill: #444445;
      }

      .cls-35 {
        fill: #312927;
      }

      .cls-36 {
        fill: #212225;
      }

      .cls-37 {
        fill: #e1e2e4;
      }

      .cls-38 {
        fill: #a7aaad;
      }

      .cls-39 {
        fill: #5c1b22;
      }

      .cls-40 {
        fill: #d4b6a7;
      }

      .cls-41 {
        fill: #84593e;
      }

      .cls-42 {
        fill: #fafbfd;
      }

      .cls-43 {
        fill: #32444d;
      }

      .cls-44 {
        fill: #0d0d0c;
      }
    </style>
    <linearGradient id="_Градієнт_без_назви_38" data-name="Градієнт без назви 38" x1="-30.45" y1="277.07" x2="32" y2="322.11" gradientTransform="translate(300.46 5.5) scale(.5)" gradientUnits="userSpaceOnUse">
      <stop offset="0" stop-color="#3c4f58"/>
      <stop offset="1" stop-color="#1e2d34"/>
    </linearGradient>
  </defs>
  <g id="_Шар_1-2" data-name="Шар 1">
    <g>
      <path class="cls-6" d="m296.75,252.92c-.92.84-7.39,12.78-14,20.75-16.53,19.92-44.74,39.11-69,47.75-3.64,1.3-7.29,2.95-11.25,3l.25,1c-24.61,2.94-51.52,4.64-76,0-2.26-.43-9.12-2.24-11.5-3-28.66-9.09-69.58-38.95-83.5-66,.76.2,1.18-.56,1.5-1,36.64,52.51,112.22,76.5,173.25,60,19.86-5.37,54.36-24.05,69.5-38,3.47-3.19,17.49-20.56,18.75-23.75.13-.33-.08-1.15,0-1.75.39.16,1.6-.42,2,1Z"/>
      <path class="cls-16" d="m11.75,106.92l-1-.5c2.93-7.73,6.55-15.01,10-22.5,5.05-3.09-5.05,13.09-9,23Z"/>
      <path class="cls-41" d="m35.75,251.42c-.96,1.25-1.63,2.8-2.5,4-.32.44-.74,1.2-1.5,1-1.5-2.92-.05-3.69-2.5-3.5.27-.11-.85-.81-.25-1,.84-.26,4.01.35,6.75-.5Z"/>
      <path class="cls-44" d="m290.75,249.92c1.18.28,2.96,1.57,4,2-.08.6.13,1.42,0,1.75-1.26,3.19-15.28,20.56-18.75,23.75-15.14,13.95-49.64,32.63-69.5,38-61.03,16.5-136.61-7.49-173.25-60,.87-1.2,1.54-2.75,2.5-4,.6-.77,2.02-.89,1.5-2.5,8.47.58,17.04-.9,25.5,0,.1.24-.26,1.92,1,4.25.58,1.08,5.44,7.53,6.5,8.75-2.71-1.05-4.2,1.19-7,1-2.39-2.71-3.97-6.19-6.25-9-.64-.31-4.04.51-4.25.5-10.42-.71-11.41-1.91-1,10.25,13.42,15.68,45.13,35.18,64.75,40.75,23.5,6.67,63.76,7.8,87.5,2.5,20.97-4.68,70-32.13,78.5-54-1.65.25-3.16-.32-4.75-.5-.83-.1-2.15-.08-3,0-.07,0,.05-.86-1.25-.5-1.01.28-6.02,7.16-14.75,15-5.98-1.51-.09,2.28-3.75,2-3.69-.29-1.42-2.89-2.75-3.5,4.97-4.66,8.75-10.48,13-15.75.33-1.23-.77-2.31-.5-2.75,8.09.49,16.15,3.67,24.25,1,.41.36,1.27.89,1.75,1Z"/>
      <path class="cls-36" d="m304.25,76.92c2.17,5.61-.72,3.85-.5,6.25.07.77,2.5,3.34,3,4.25,5.18,12.61,10.83,23.57,14,37,1.71,7.22,5.45,30.3,4.5,36.25-.08.49-3.88,7.68-5,8.5-1.77,15.93-5.34,36.2-12.75,50.25-2.4-.07-4.86-.1-7.25,0,3.42-7.78,4.97-16.04,7-24.25,14.57-23.54,16.5-41.56,10-68.5-1.4-5.81-15.87-44.68-19.75-45.75-11.53,1.01-3.02.44-1.75,2.5-4.58-1.46-10.41,5.45-8.5-3,1.47.32,2.65-.22,4-.5.66-.14,8.29-3.94,13-3Z"/>
      <path class="cls-44" d="m321.75,125.92c.85,3.94,1.47,3.07,1.5,3.25.18.96-.74,1.56-.5,3,.23,1.37,1.46,4.68,2,10.25,2.29,23.78,1.1,55.98-10.5,77.5h-1c-5.38-.29-10.64.16-16,.5-.31-1.46,1.03-.92,3-1,2.39-.1,4.85-.07,7.25,0,7.41-14.05,10.98-34.32,12.75-50.25,1.12-.82,4.92-8.01,5-8.5.95-5.95-2.79-29.03-4.5-36.25l1,1.5Z"/>
      <path class="cls-19" d="m318.25,216.92c-3.11,5.3-5.79,11.02-11.5,14-.02-.78.22-1.53-.5-1.5,2.48-2.08,4.69-4.48,7-6.75,1.38-2.06.93-2.62,1-2.75,11.6-21.52,12.79-53.72,10.5-77.5,1.02.63,2.31,10.27,2.5,13.25,1.99,31.85-8.97,58.14-9,61.25Z"/>
      <path class="cls-3" d="m321.75,125.92l-1-1.5c-3.17-13.43-8.82-24.39-14-37,6.14,11.24,10.46,20.51,14.5,32.75,1.24,4.73.44,5.47.5,5.75Z"/>
      <path class="cls-21" d="m300.25,219.42c-1.97.08-3.31-.46-3,1-1.86.12-5.7-.04-6,0,7.21-13,16.96-36.13,15.5-50.75-1.26-12.54-18.23-33.04-27.5-41.75,6.76-2.48,16.58-2.44,15-5,.62.05,1.04.99,1.25,1,8.65.48-7.47-3.65-11.25-5,.81-1.23-7.45-2.97-4.25-3.5.29-.05,4.69.87,5.75,1,.06,0-.03.43.75,1h6l15-2c.54-.39-.58-2.85-.75-3.5-.13-.48-.34-.99-.5-1.5-3.75-12.42-11.59-20.36-7-18.5,2.75,4.16.65-.6-1.5-7.75-1.18-1.63-2.08.66-.5,4.75-1.01.32-1.96-1.42-2-2-.09-1.19,1.32-2.17.5-3.5-1.27-2.06-9.78-1.49,1.75-2.5,3.88,1.07,18.35,39.94,19.75,45.75,6.5,26.94,4.57,44.96-10,68.5-2.03,8.21-3.58,16.47-7,24.25Z"/>
      <path class="cls-42" d="m180.25,272.42c-1.75,6.35-2.9,5.98-2.25,7.5-7.13-.56-20.96.75-26.25,0-1.28-.18-2.46.07-3.5-1.25-1.88-7.34-3.01-14.83-4.5-22.25,2.65,1.77-.53-2.16,3-3.5,3.14,5.48,17.21,5.61,22.75,5,19.63-2.17,10.81-27.17,15.5-26.5.16.02,2.2,2.1,2.25,2.25.78,2.38-5.65,33.86-7,38.75Z"/>
      <path class="cls-13" d="m246.25,111.92c.09.68.12.91.5,1.5-1.18,2.1-8.8-1.05-14.25-2-6.51-1.13-13.2-1.64-19.75-2.5-10.76-1.41-19.13-2.28-30-3-3.51-.23-7.24-1.02-10.75-1.5-8.47-.43-16.83.44-25.25,1-7.77.52-15.29,1.51-23,2.5-15.74,2.03-31.41,5.02-47,8,.44-.48,2.2-3.14,2-4,8.06.27,16.64-5.37,23.75-7.5,24.42-7.34,38.28-2.42,62.5-5,28.91.35,53.86,2.87,81.25,12.5Z"/>
      <path class="cls-36" d="m247.25,106.92c-.22.83-.32,1.65-.5,2.5-27.57-11.57-54.01-17.7-84-17.5-5.97.04-11.57.51-17.5,1-11.79.97-17.9,1.82-29.5,4.5v-2.5c46.28-10.14,87.87-6.13,131.5,12Z"/>
      <path class="cls-42" d="m76.75,115.92c-8.74,9.49-12.23,22.38-16.5,34.25.96,1.26,1.73,2.26,3,3.25l-2,2c-2.57-1.48-4.59-2.98-6.5-5.25,3.05-7.1,11.29-28.52,15.5-33,2.06-2.19,6.09-3.38,8.5-5.25.2.86-1.56,3.52-2,4Z"/>
      <path class="cls-18" d="m294.25,122.92c1.58,2.56-8.24,2.52-15,5-.65-.61-2.21-1.38-3.5-2.5-4.57-3.99-9.22-7.96-14.5-11-6.2-3.57-13.85-3.63-9.5-7.5,14.19,7.14,26.55,14.68,42.5,16Z"/>
      <path class="cls-36" d="m212.75,108.92c-.5,2.9-11.66,4.55-17.75,8-3.71-4.2-12.06-7.49-12.25-11,10.87.72,19.24,1.59,30,3Z"/>
      <path class="cls-36" d="m146.75,105.42c.81,2.87-11.5,6.27-16.75,12-5.59-1.97-10.27-3.21-6.25-9.5,7.71-.99,15.23-1.98,23-2.5Z"/>
      <path class="cls-38" d="m284.25,118.92c3.78,1.35,19.9,5.48,11.25,5-.21-.01-.63-.95-1.25-1-15.95-1.32-28.31-8.86-42.5-16,.06-.05.16-.99,1.25-1,1.69-.02,22.47,9.87,31.25,13Z"/>
      <path class="cls-36" d="m295.25,86.92c.04.58.99,2.32,2,2,.25.64,1.42,2.12,2,3-4.59-1.86,3.25,6.08,7,18.5-4.68,2.66-14.15-21.52-13.5-22.75.19-.35,1.88-.9,2.5-.75Z"/>
      <path class="cls-17" d="m306.75,111.92c.17.65,1.29,3.11.75,3.5l-15,2h-6c-.78-.57-.69-.99-.75-1l21-4.5Z"/>
      <path class="cls-17" d="m52.75,254.42c19.41,29.63,53.25,45.11,87.5,49.5,16.01,2.05,30.99,2.03,47,0,6.81-.86,13.78-2.56,20.5-4,13.32-2.86,26.49-5.79,38.25-13,8.22-5.04,29.08-24.25,31.75-33.5,1.59.18,3.1.75,4.75.5-8.5,21.87-57.53,49.32-78.5,54-23.74,5.3-64,4.17-87.5-2.5-19.62-5.57-51.33-25.07-64.75-40.75-10.41-12.16-9.42-10.96,1-10.25Z"/>
      <path class="cls-31" d="m63.25,262.92c15.79,17.86,47.44,36,71.75,33,5.25-.65,10.19-3.18,13.25-7.5-.62,2.15-.55,4.42-1.5,6.5-.43.93-1.2.2-1.5.75-.1.19-.72,2.95-1.5,4-1.43,1.93-3.92,2.06-3.5,4.25-34.25-4.39-68.09-19.87-87.5-49.5.21.01,3.61-.81,4.25-.5,2.28,2.81,3.86,6.29,6.25,9Z"/>
      <path class="cls-31" d="m274.75,253.42c-14.66,24.1-40.87,38.22-67,46.5-6.72,1.44-13.69,3.14-20.5,4-.32-1.96,2.66-.15,2.5-1.75-.05-.54-4.28-2.19-8-7.25-1.47-2-2.7-4.65-3.5-7,2.54.06,9.45,17.82,47.25,2,12.43-5.2,23.32-13.09,33.25-22,8.73-7.84,13.74-14.72,14.75-15,1.3-.36,1.18.51,1.25.5Z"/>
      <path class="cls-43" d="m277.75,253.42c-2.67,9.25-23.53,28.46-31.75,33.5-11.76,7.21-24.93,10.14-38.25,13,26.13-8.28,52.34-22.4,67-46.5.85-.08,2.17-.1,3,0Z"/>
      <g>
        <path class="cls-6" d="m204.75,4.42c1.87,3.13-.26.71-.5,3.5-.09,1.01,1.23,3.35,1.5,4.5l-3-.5c-.18-.33-.48-1.7-.5-2.25-2.95-3.98-26.56-5.71-32.25-6.25-.41-.04.04-.93-.75-1-11.52-1-23.5-.17-13,1-3.89.08-7.62.13-11.5.5-.41-1.62,3.44-.75,6-1.75-10.19-.72-32.31,9.14-24.5,1.25l1.75,1c21.04-6.61,51.46-5.42,72.5,1-.56-4.29,2.24-1.36,4.25-1Z"/>
        <path class="cls-23" d="m202.75,11.92c.54,1,.46,1.39.5,1.5-4.54-.65-10.76-4.25-15-3-21.36-4.63-55.58-2.83-75.75,7,7.03-9.99,20.7-12.41,32.25-13.5,3.88-.37,7.61-.42,11.5-.5,5.6-.12,13.29.71,13-1,.79.07.34.96.75,1,5.69.54,29.3,2.27,32.25,6.25.02.55.32,1.92.5,2.25Z"/>
        <path class="cls-27" d="m54.25,78.42c-1.51,2.01-5.54,8.48-6,8.75-.86.51-1.69.06-2.5.25,1.3-2.93,5.18-10.34,8.5-9Z"/>
        <path class="cls-30" d="m169.25,2.42c.29,1.71-7.4.88-13,1-10.5-1.17,1.48-2,13-1Z"/>
        <g>
          <path class="cls-6" d="m87.25,19.42l-1.25-.5-12.75,13.25c-2.88,4.65-12.84,17.77-6,11.75-4.41,9.04,11.76-9.13,16.5-15,1.22,1.14,2.4,1,2.5,1.25,1.17,2.85-24.83,28.15-28,32-1.39,1.68-6.35,11.2-7.25,11.75-2.66,1.03-17.13,2.76-18,2.5-.2-.06.23-1.22-.75-3,4.04-1.9,8.66-4.38,12.25-7,1.38-1.01,9.82-7.58,8.5-8.5-5.46,4.02-19.98,10.78-23.75,14,.06-1.63,5.29-8.17,7.5-10.75,5.77-6.74,23.01-22.39,23.5-24,.19-.63-.49-.74-.5-1.25,5.13-3.27,9.65-8.13,14.75-11.5,2.89-1.91,7.02-2.2,8.25-5.5,2.36-1.07,4.61-2.01,7-3,.06,1.53-2.02,2.87-2.5,3.5Z"/>
          <path class="cls-6" d="m59.75,35.92c0,.51.69.62.5,1.25-.49,1.61-17.73,17.26-23.5,24-2.21,2.58-7.44,9.12-7.5,10.75-.99.84-1.62,2.53-2,3-.89,1.1-2.62,1.62-2.5,3.5-1.28.42-2.64.9-4,1,2.71-9.35,21.34-29.72,29-37,2.05-1.94,4.79-4.09,7-6-.57,1.62,2.16.04,3-.5Z"/>
          <path class="cls-33" d="m118.75,3.42c-1.75,1.54-2.92,4.27-4.5,5.75-3.74,3.52-6.89,5.82-9.5,8.25-4.05,3.77-7.99,7.15-11.5,11.5.73-1.7,1.78-8.71,4-12.5l.5-.5c3.14-1.19,6.24-3.33,8.75-5.5,5.86-5.08,4.52-4.12,2.25-4-.83.05-1.67-.03-2.5,0,4.27-1.67,7.77-3.18,12.5-3Z"/>
          <path class="cls-32" d="m95.25,14.42c-.04.37.07.84,0,1-.04.08-.2-.12-1,1.5-2.29-.83-5.76,5.77-9.5,10.5-.45.57-.67,1.09-1,1.5-4.74,5.87-20.91,24.04-16.5,15,7.19-6.32,14.17-16.77,20-24.5.48-.63,2.56-1.97,2.5-3.5,1.19-.49,4.14-.61,5.5-1.5Z"/>
          <path class="cls-7" d="m124.75.42c-4.5,4.99-9.61,9.35-13,15.25-1.76,1.85-4.32,2.55-4.5,2.75l-2.5-1c2.61-2.43,5.76-4.73,9.5-8.25,1.58-1.48,2.75-4.21,4.5-5.75,1.2-1.05,4.46-3.75,6-3Z"/>
          <path class="cls-19" d="m82.75,18.92c-1.23,3.3-5.36,3.59-8.25,5.5-5.1,3.37-9.62,8.23-14.75,11.5-.84.54-3.57,2.12-3,.5,10.18-8.78,13.54-11.84,26-17.5Z"/>
          <path class="cls-6" d="m108.75,6.42c-2.91,2.85-10.73,6.04-11,9.5l-.5.5c-1-.68.01-2.31-2-1,.07-.16-.04-.63,0-1,2.44-1.6-.44-3.51,11-8,.83-.03,1.67.05,2.5,0Z"/>
          <path class="cls-6" d="m107.25,18.42c-10.54,11.61-11.47,15.78-15,20.25-13.06,16.51-1.21-4.6,1-9.75,3.51-4.35,7.45-7.73,11.5-11.5l2.5,1Z"/>
          <path class="cls-24" d="m32.25,73.42c-.35.16-.65.34-1,.5-.83.38-3.82,1.92-4,1,.38-.47,1.01-2.16,2-3,3.77-3.22,18.29-9.98,23.75-14,1.32.92-7.12,7.49-8.5,8.5-3.59,2.62-8.21,5.1-12.25,7Z"/>
          <path class="cls-7" d="m94.25,16.92c-2.67,5.39-6.81,14.47-9.5,10.5,3.74-4.73,7.21-11.33,9.5-10.5Z"/>
          <path class="cls-6" d="m24.75,78.42c-.12-1.88,1.61-2.4,2.5-3.5.18.92,3.17-.62,4-1,.73,3.23-1.2,2.75-6.5,4.5Z"/>
          <path class="cls-19" d="m87.25,19.42c-5.83,7.73-12.81,18.18-20,24.5-6.84,6.02,3.12-7.1,6-11.75l12.75-13.25,1.25.5Z"/>
          <path class="cls-41" d="m97.75,15.92c.27-3.46,8.09-6.65,11-9.5,2.27-.12,3.61-1.08-2.25,4-2.51,2.17-5.61,4.31-8.75,5.5Z"/>
        </g>
        <g>
          <path class="cls-6" d="m210.75,17.42c1.52.26,2.22.63,3.5,1,14.37,4.17,32.69,11.92,50,17,2.07.61,6.08,2.01,8,1.5,1.95,1.51,3.26,3.36,5,5,1.03,4.11-6.23-1.67-13.25-4-4.58-1.52-9.43-2.39-14-4-7.76.22-22.11-5.37-6.75,1,10.72,4.45,33.68,13.42,42,19-8.26-3.21-20.71-6.39-28.25-9.5-8.09-3.34-15.52-8.48-20-10.5-.68-.31-4.42-.27-4.5-2.5-1.57,2.9-9.33-1.48-14.5-2-1.06-3.14-5.79-4.1-8.75-5-.04-.39-2.12-5.98-2.5-7.5,1.29.36,2.73.28,4,.5Z"/>
          <path class="cls-19" d="m277.25,41.92c2.83,2.67,5.52,5.52,8,8.5-13.68-5.96-27.75-11.04-42-15.5-15.36-6.37-1.01-.78,6.75-1,4.57,1.61,9.42,2.48,14,4,7.02,2.33,14.28,8.11,13.25,4Z"/>
          <path class="cls-4" d="m285.25,50.42c.92,1.11,2.88,3.3,3,3.5.05.09.38,1.4.5,2-.16-.13-2.67-1.45-3.5-2-8.32-5.58-31.28-14.55-42-19,14.25,4.46,28.32,9.54,42,15.5Z"/>
          <path class="cls-4" d="m259.75,29.92c.12.06.6.06,2.5,1l1,1.25-1,.25c-9.34-5.24-31.27-10.48-42.5-14.5l-.5-1.5c5.2,2.24,25.58,6.67,40.5,13.5Z"/>
          <g>
            <path class="cls-19" d="m216.75,6.92c1.68.05,2.5.61,4,1,1.23,3.25,5.6,5.01,8.5,7,.95,1.24.87,2.9,2.75,3.5,9.62,2.81,19.42,5.73,27.75,11.5-14.92-6.83-35.3-11.26-40.5-13.5-1.54-.66-3.55-1.48-4.5-3-.57-.91-.58-4.32-2-5.75.02-.57,3.54-.76,4-.75Z"/>
            <path class="cls-33" d="m216.75,6.92c-.46-.01-3.98.18-4,.75,1.42,1.43,1.43,4.84,2,5.75.2.76-3.2-.92-5-2-1.84-1.11-3.49-2.69-5.5-3.5.24-2.79,2.37-.37.5-3.5,3.51.62,11.62.82,12,2.5Z"/>
            <g>
              <path class="cls-6" d="m229.25,14.92c-2.9-1.99-7.27-3.75-8.5-7,7.62,1.99,4.61,1.94,8.5,7Z"/>
              <path class="cls-14" d="m272.25,36.92c-1.92.51-5.93-.89-8-1.5,2.96-.78-.45-2.13-2-3l1-.25-1-1.25c2.25,1.11,8.2,4.61,10,6Z"/>
            </g>
          </g>
          <path class="cls-6" d="m209.25,24.42c2.96.9,7.69,1.86,8.75,5,5.17.52,12.93,4.9,14.5,2,.08,2.23,3.82,2.19,4.5,2.5,4.48,2.02,11.91,7.16,20,10.5,7.54,3.11,19.99,6.29,28.25,9.5.83.55,3.34,1.87,3.5,2,1.46,1.21,10.48,11.44,10.5,12.25.07,2.5-6.14,1.37-7.25,1.75-.5.17-.12,1.38-.25,1.5-.15.14-1.3-.26-1.5.25,1.43,4.68,2.98,2.17,6,1.75,4.56-.63,5.76-2.28,8,3.5-4.71-.94-12.34,2.86-13,3-3.36-1.79-5.89-2.54-9.5-1-2.01-.51-11.59-4.42-12.5-3.25.42.39.77.69,1,1.25l-25-23.5c-.07-.3.69-1.01.75-1,2.99.48,17.73,8.35,20.5,8l9.25-3.75c-3.59-2.31-7.41-4.42-11.25-6.25-5.34-2.54-41.23-17.2-41.25-8-12.04-6.36-18.21-9.36-32.25-12-31.87-6-66.38-2.62-94.75,13.5,20.13-30.42,82.42-30.2,112.75-17.5.4-.28.3-1.47.25-2Z"/>
          <path class="cls-19" d="m296.25,73.42c-3.02.42-4.57,2.93-6-1.75.2-.51,1.35-.11,1.5-.25,1.59-.82,5.1-.2,4.5,2Z"/>
          <path class="cls-19" d="m209.75,11.42l1,6c-1.27-.22-2.71-.14-4-.5-.36-1.44-.66-3.03-1-4.5-.27-1.15-1.59-3.49-1.5-4.5,2.01.81,3.66,2.39,5.5,3.5Z"/>
          <path class="cls-7" d="m291.25,79.92c-1.35.28-2.53.82-4,.5-1.9-.18-3.69-1.04-5.5-1.5,3.61-1.54,6.14-.79,9.5,1Z"/>
          <path class="cls-19" d="m219.75,17.92c11.23,4.02,33.16,9.26,42.5,14.5,1.55.87,4.96,2.22,2,3-17.31-5.08-35.63-12.83-50-17l5.75.5-.25-1Z"/>
          <path class="cls-41" d="m214.75,13.42c.95,1.52,2.96,2.34,4.5,3l.5,1.5.25,1-5.75-.5c-1.28-.37-1.98-.74-3.5-1l-1-6c1.8,1.08,5.2,2.76,5,2Z"/>
          <path class="cls-44" d="m245.25,53.42c-11.18-2.91-18.26-9.03-22-11,.02-9.2,35.91,5.46,41.25,8,3.84,1.83,7.66,3.94,11.25,6.25l-9.25,3.75c-2.77.35-17.51-7.52-20.5-8-.06,0-.82.7-.75,1Z"/>
        </g>
      </g>
      <path class="cls-10" d="m299.25,91.92c-.58-.88-1.75-2.36-2-3-1.58-4.09-.68-6.38.5-4.75,2.15,7.15,4.25,11.91,1.5,7.75Z"/>
      <path class="cls-43" d="m178.25,287.92c.8,2.35,2.03,5,3.5,7-11.44,2.5-23.49,1.79-35,0,.95-2.08.88-4.35,1.5-6.5,14.29,2.74,28.49-.54,30-.5Z"/>
      <g>
        <path class="cls-44" d="m148.25,282.42c5.69,1.74,6.7,1.99,4.5-.5-.59-.67-1.25-.87-2-1.25l1-.75c5.29.75,19.12-.56,26.25,0-.65-1.52.5-1.15,2.25-7.5,4.04,4.12-1.58,7.61,1.5,11,4.2,4.61,22.62,7.72,28.75,7,9.01-1.05,34.6-17.3,41.75-24,1.33.61-.94,3.21,2.75,3.5,3.66.28-2.23-3.51,3.75-2-9.93,8.91-20.82,16.8-33.25,22-37.8,15.82-44.71-1.94-47.25-2-1.51-.04-15.71,3.24-30,.5-3.06,4.32-8,6.85-13.25,7.5-24.31,3-55.96-15.14-71.75-33,2.8.19,4.29-2.05,7-1,7.29,8.38,33.24,25.95,43.75,28,8.4,1.64,26.09-.97,31.75-7.75-2.16-9.35-3.79-18.82-5.5-28.25,3.45-2.65,2.94,6.77,3.5,9.25,1.27,5.63,4.84,14.61,3.5,19l1,.25Z"/>
        <path class="cls-34" d="m152.75,281.92c2.2,2.49,1.19,2.24-4.5.5-.47-2.68,1.62-.64,4.5-.5Z"/>
        <path class="cls-20" d="m161,282.92l9.75.75c-3.6.43-9.85.55-9.75-.75Z"/>
      </g>
      <path class="cls-18" d="m162.75,91.92c1.71,2.86,10.68-1.76,6.25,4.5-.32.06-5.67-.99-6.5-1-11.3-.18-20.6,1.71-17.25-2.5,5.93-.49,11.53-.96,17.5-1Z"/>
      <g>
        <path class="cls-10" d="m246.75,109.42c-.09.41-.73.8-.5,2.5-27.39-9.63-52.34-12.15-81.25-12.5-24.22,2.58-38.08-2.34-62.5,5-7.11,2.13-15.69,7.77-23.75,7.5,3.7-2.87.1-1.14.5-2.75.46-1.86,32.38-10.8,36.5-11.75,11.6-2.68,17.71-3.53,29.5-4.5-3.35,4.21,5.95,2.32,17.25,2.5.83.01,6.18,1.06,6.5,1,4.43-6.26-4.54-1.64-6.25-4.5,29.99-.2,56.43,5.93,84,17.5Z"/>
        <path class="cls-18" d="m172,93.42c5.26-.36,5.23,1.36,0,1v-1Z"/>
      </g>
      <g>
        <path class="cls-11" d="m9.75,216.92l.5,1c-2.95.16,2.42,6.96,4,9.5,2.24,3.6,4.45,7.11,7,10.5,2.62,3.48,5.25,6.94,7.75,10.5,2.8-.37,5.52.31,8.25.5.52,1.61-.9,1.73-1.5,2.5-2.74.85-5.91.24-6.75.5-.6.19.52.89.25,1-.71.27-1.17,1.01-1.25,1-2.8-.36-23.87-35.12-21-37.5.54-.45,2.05.55,2.75.5Z"/>
        <path class="cls-32" d="m39.75,218.92c2.14.02,4.79,4.95,6.5,7-13.9.39-21.48.74-33.5-7l.5-2c11.62,5.81,14.28,12.57,26.5,2Z"/>
        <path class="cls-6" d="m49.25,228.92c1.99,2.63,5.53,7.06,6.5,10-7.31,1.1-14.9-3.52-20.25,0-5.46-.19-13.08-2.94-14.25-1-2.55-3.39-4.76-6.9-7-10.5,11.6,1.69,23.32,1.03,35,1.5Z"/>
        <path class="cls-6" d="m10.25,217.92c.86.06,1.8.55,2.5,1,12.02,7.74,19.6,7.39,33.5,7,.57.69,1.84,1.46,3,3-11.68-.47-23.4.19-35-1.5-1.58-2.54-6.95-9.34-4-9.5Z"/>
        <g>
          <path class="cls-6" d="m55.75,238.92c.03.08,1.22.99.75,1.5-26.36-.95-2.41,1.31,5.75,6.25-.22,1.15.2,1.55.5,2.25-8.46-.9-17.03.58-25.5,0-2.73-.19-5.45-.87-8.25-.5-2.5-3.56-5.13-7.02-7.75-10.5,1.17-1.94,8.79.81,14.25,1,5.35-3.52,12.94,1.1,20.25,0Z"/>
          <path class="cls-1" d="m36.5,238.92c10.83.41,8.53,3.11,2,1.5-.54-.13-3.32-.95-2-1.5Z"/>
        </g>
      </g>
      <path class="cls-10" d="m181.75,294.92c3.72,5.06,7.95,6.71,8,7.25.16,1.6-2.82-.21-2.5,1.75-16.01,2.03-30.99,2.05-47,0-.42-2.19,2.07-2.32,3.5-4.25.78-1.05,1.4-3.81,1.5-4,.3-.55,1.07.18,1.5-.75,11.51,1.79,23.56,2.5,35,0Z"/>
      <g>
        <path class="cls-32" d="m294.75,249.42c1.29.41,2.99,1.55,4,2.5-.09.07-.79-.1-2,1-.4-1.42-1.61-.84-2-1-1.04-.43-2.82-1.72-4-2,3.35-2.19,3.02-.81,4-.5Z"/>
        <path class="cls-11" d="m318.25,216.92c-.02,1.98,3.54,2.13-3.5,15.75-2.28,4.41-11.13,16.75-14.75,19.75-.24-.44-1-.7-1.25-.5-1.01-.95-2.71-2.09-4-2.5-.49-2.49,2.98-2.5,4.25-3.5,4.15-3.25,7.88-9.57,7.75-15,5.71-2.98,8.39-8.7,11.5-14Z"/>
        <path class="cls-7" d="m313.25,219.92c-1.01,1.44-1.91,1.42-2,1.5.06-.78-2.12-.49-4.5-.5-7.8-.02-15.28.5-23,1.5-.19-1.16.47-.95.5-1,2.43.84,4.77-.74,7-1,.3-.04,4.14.12,6,0,5.36-.34,10.62-.79,16-.5Z"/>
        <path class="cls-6" d="m306.75,230.92c.13,5.43-3.6,11.75-7.75,15-1.27,1-4.74,1.01-4.25,3.5-.98-.31-.65-1.69-4,.5-.48-.11-1.34-.64-1.75-1-8.1,2.67-16.16-.51-24.25-1,1.33-2.17,4.79-5.67,5-6l20.25-2c1.74-1.81,4.04-3.37,6.25-4.5,5.11-2.62,3.97-1.08,9.5-5.5.03-.02.11-.17.5-.5.72-.03.48.72.5,1.5Z"/>
        <path class="cls-32" d="m314.25,219.92c-.07.13.38.69-1,2.75-2.31,2.27-4.52,4.67-7,6.75-.39.33-.47.48-.5.5-1.95-.98-4.03-.53-6,0,4.35-2.61,7.66-5.21,11.5-8.5.09-.08.99-.06,2-1.5h1Z"/>
        <path class="cls-6" d="m311.25,221.42c-3.84,3.29-7.15,5.89-11.5,8.5-2.65.71-14.16,7.17-11,7-6.06,1.36-12.28,3.85-18.5,3.5,4.12-6.74,6.27-9.02,10-14.5,2.98.87,25.03-2.9,26.25-3.5.45-.22.2-1.05.25-1.5,2.38,0,4.56-.28,4.5.5Z"/>
        <path class="cls-19" d="m306.75,220.92c-.05.45.2,1.28-.25,1.5-1.22.6-23.27,4.37-26.25,3.5.82-1.21,2.13-2.91,3.5-3.5,7.72-1,15.2-1.52,23-1.5Z"/>
        <path class="cls-40" d="m296.25,235.42c-2.21,1.13-4.51,2.69-6.25,4.5l-20.25,2c.04-.07-.16-.42.5-1.5,6.22.35,12.44-2.14,18.5-3.5,2.48-.56,5.04-.8,7.5-1.5Z"/>
        <path class="cls-19" d="m305.75,229.92c-5.53,4.42-4.39,2.88-9.5,5.5-2.46.7-5.02.94-7.5,1.5-3.16.17,8.35-6.29,11-7,1.97-.53,4.05-.98,6,0Z"/>
      </g>
      <g>
        <path class="cls-44" d="m126.25,3.42c-7.81,7.89,14.31-1.97,24.5-1.25-2.56,1-6.41.13-6,1.75-11.55,1.09-25.22,3.51-32.25,13.5,20.17-9.83,54.39-11.63,75.75-7,3.5.76,16.09,6.02,16.5,5.25-.75-3.06-1.45-2.12-1.5-2.25-.04-.11.04-.5-.5-1.5l3,.5c.34,1.47.64,3.06,1,4.5.38,1.52,2.46,7.11,2.5,7.5.05.53.15,1.72-.25,2-30.33-12.7-92.62-12.92-112.75,17.5-4.81,2.73-33.59,22.78-35.75,25-.4.41-4.32,6.93-6.25,9.5-3.32-1.34-7.2,6.07-8.5,9-4.14.95-.13.47,0,1.75.09.87-8.75,6.76-7.5,15,.32,2.12,3.9,7,6.25,7.25,3.18.33,26.21-9.55,28.5-9,1.29.31,2.8,4.78,5,4.5,12.15-5.16,24.86-9.18,37.75-12v2.5c-4.12.95-36.04,9.89-36.5,11.75-.4,1.61,3.2-.12-.5,2.75-2.41,1.87-6.44,3.06-8.5,5.25-4.21,4.48-12.45,25.9-15.5,33,1.91,2.27,3.93,3.77,6.5,5.25,9.05,5.22,39.84,13.77,52.75,20.5-7.96-9.58-43.39-16.78-50.75-22.5-1.27-.99-2.04-1.99-3-3.25,4.27-11.87,7.76-24.76,16.5-34.25,15.59-2.98,31.26-5.97,47-8-4.02,6.29.66,7.53,6.25,9.5,5.25-5.73,17.56-9.13,16.75-12,8.42-.56,16.78-1.43,25.25-1,3.51.48,7.24,1.27,10.75,1.5.19,3.51,8.54,6.8,12.25,11,6.09-3.45,17.25-5.1,17.75-8,6.55.86,13.24,1.37,19.75,2.5,5.45.95,13.07,4.1,14.25,2,1.16,1.83,12.66,7.91,20.5,37.25-1.05,1.59-1.85,3.14-3.5,4.25-3.48,2.34-44.71,14.67-48.75,18-.77.64-.88,1.68-1.75,2.25,16.26-6.44,35.89-11.01,51.5-18.25,2.88-1.34,5.88-2.38,8.5-4.25-5.29-13.71-11.87-36.03-27-40.75-.23-1.7.41-2.09.5-2.5.18-.85.28-1.67.5-2.5,2.12,1.87,1.89-4.36,7.75-4,1.35.08,23.38,8.84,25.5,9,3.43.25,7.34-4.39,7.75-7.75,1.26-10.29-16.53-23.68-18-27.25-.23-.56-.58-.86-1-1.25.91-1.17,10.49,2.74,12.5,3.25,1.81.46,3.6,1.32,5.5,1.5-1.91,8.45,3.92,1.54,8.5,3,.82,1.33-.59,2.31-.5,3.5-.62-.15-2.31.4-2.5.75-.65,1.23,8.82,25.41,13.5,22.75.16.51.37,1.02.5,1.5l-21,4.5c-1.06-.13-5.46-1.05-5.75-1-3.2.53,5.06,2.27,4.25,3.5-8.78-3.13-29.56-13.02-31.25-13-1.09.01-1.19.95-1.25,1-4.35,3.87,3.3,3.93,9.5,7.5.3,1.09-1.21,1.41-1,2.25.22.9,11.19,9.86,15.5,8.75,1.29,1.12,2.85,1.89,3.5,2.5,9.27,8.71,26.24,29.21,27.5,41.75,1.46,14.62-8.29,37.75-15.5,50.75-2.23.26-4.57,1.84-7,1,9-13.58,22.79-56.26,1.25-63.5-24.8,4.55-56.1,10.82-73.75,30.25-6.22,6.85-9.79,15.34-15.5,22.5-1.72,10.3-4.77,20.31-7,30.5-1.07,4.91-7.79,38.45-8,40.5-.09.87.15,1.08.5,1.75-3.08-3.39,2.54-6.88-1.5-11,1.35-4.89,7.78-36.37,7-38.75-.05-.15-2.09-2.23-2.25-2.25-4.69-.67,4.13,24.33-15.5,26.5-5.54.61-19.61.48-22.75-5-4.02-7.02-1.25-27.28-8-25.25,1.24,9.66,3.08,19.21,5,28.75,1.49,7.42,2.62,14.91,4.5,22.25,1.04,1.32,2.22,1.07,3.5,1.25l-1,.75c.75.38,1.41.58,2,1.25-2.88-.14-4.97-2.18-4.5.5l-1-.25c1.34-4.39-2.23-13.37-3.5-19-.56-2.48-.05-11.9-3.5-9.25-2.64-14.59-5.29-29-9.5-43.25-14.24-24.41-27.18-36.61-54.25-45.75-7.21-2.44-26.26-7.38-33-7.5-24.06-.41-10.76,48.14-3.25,60.25l-.5,1.25c-12.22,10.57-14.88,3.81-26.5-2-4.63-3.84-9-22.95-10-29.25-1.88-11.82-2.49-28.35-1.5-40.25,1.15-13.86,4.87-27.6,10-40.5,3.95-9.91,14.05-26.09,9-23-1.98-3.61-.07-4.26,0-4.5,1.36-.1,2.72-.58,4-1,5.3-1.75,7.23-1.27,6.5-4.5.35-.16.65-.34,1-.5.98,1.78.55,2.94.75,3,.87.26,15.34-1.47,18-2.5.9-.55,5.86-10.07,7.25-11.75,3.17-3.85,29.17-29.15,28-32-.1-.25-1.28-.11-2.5-1.25.33-.41.55-.93,1-1.5,2.69,3.97,6.83-5.11,9.5-10.5.8-1.62.96-1.42,1-1.5,2.01-1.31,1,.32,2,1-2.22,3.79-3.27,10.8-4,12.5-2.21,5.15-14.06,26.26-1,9.75,3.53-4.47,4.46-8.64,15-20.25.18-.2,2.74-.9,4.5-2.75,3.39-5.9,8.5-10.26,13-15.25,1.29.62,1.4,1.27,1.5,3Z"/>
        <g>
          <path class="cls-26" d="m1.75,147.42c-.99,11.9-.38,28.43,1.5,40.25,1,6.3,5.37,25.41,10,29.25l-.5,2c-.7-.45-1.64-.94-2.5-1l-.5-1C.55,195.38-1.29,170.63.75,147.42h1Z"/>
          <path class="cls-12" d="m11.75,106.92c-5.13,12.9-8.85,26.64-10,40.5H.75c1.24-14.06,5.02-27.84,10-41l1,.5Z"/>
          <path class="cls-17" d="m37.25,79.92v.5l-17,29.75c6.51,0,12.71,1.65,19,3.25-.22.8-.45,2.63-1.25,3-.95.43-17.41-2.88-18.75,3.75-1.54,7.62,8.93,20.07,17,20.25-4.37,5.03-14.94,17.17-16,23.25-2.48,14.3,8.86,42.92,14.5,57-2.44,1.41-4.31,1.97-7,1.25-.31-1.55.6-2.3.5-2.75-.2-.87-5.58-9.81-8-16-.02-.05.72-.43.5-1-.17-.44-2.26-3.33-2.5-4-1.68-4.66-3.62-14.8-4-15.5-.22-.41-.65-.25-1-.25,1.33-3.33,3.28-14.05,5.5-18.75-4.22-1.75-7.88-6.07-11-5.75-1.26-25.09,4.15-41.67,15.5-63.5,5.29.81,4.62-9.04,9.5-13.5.61-.24,3.75-.97,4.5-1Z"/>
          <path class="cls-43" d="m47.25,116.42c-1.88.43-9.37,1.27-12,1.5-.82.07-1.68-.07-2.5,0-.2.02-1.09-1.46-4,.25.88,7.51,7.95,13.25,15,13.75-1.83,1.81-5.46,6.15-7.5,8.5-8.07-.18-18.54-12.63-17-20.25,1.34-6.63,17.8-3.32,18.75-3.75.8-.37,1.03-2.2,1.25-3,3.66.93,8.66,1.64,8,3Z"/>
          <path class="cls-42" d="m264.75,156.92l-1-2c1.65-1.11,2.45-2.66,3.5-4.25-7.84-29.34-19.34-35.42-20.5-37.25-.38-.59-.41-.82-.5-1.5,15.13,4.72,21.71,27.04,27,40.75-2.62,1.87-5.62,2.91-8.5,4.25Z"/>
          <path class="cls-38" d="m73.75,106.42c-6.4,4.16-12.32,9.08-18.5,13.5-1.38.99-5.22,4.32-6.25,4.5-4.44.77-15.46-2.47-13.75-6.5,2.63-.23,10.12-1.07,12-1.5,6.09-1.41,18.67-7.68,25.25-10.5,1.45-.21,1.19.47,1.25.5Z"/>
          <path class="cls-36" d="m11.25,181.92c.22,1.18.15,1.86.25,3,.62.25,1.57-2.04,1.75-2.5.35,0,.78-.16,1,.25.38.7,2.32,10.84,4,15.5.24.67,2.33,3.56,2.5,4,.22.57-.52.95-.5,1,2.42,6.19,7.8,15.13,8,16,.1.45-.81,1.2-.5,2.75-11.9-3.16-15.06-30.99-18-41.25l1.5,1.25Z"/>
          <path class="cls-10" d="m136.5,216.42c17.37,5.42,36.26,5.13,53.75.25-5.83,10.32-48.94,10.71-53.75-.25Z"/>
          <path class="cls-17" d="m13.25,182.42c-.18.46-1.13,2.75-1.75,2.5-.1-1.14-.03-1.82-.25-3-1.44-7.87-3.1-15.99-3.5-24,3.12-.32,6.78,4,11,5.75-2.22,4.7-4.17,15.42-5.5,18.75Z"/>
          <path class="cls-38" d="m61.25,155.42l2-2c7.36,5.72,42.79,12.92,50.75,22.5-12.91-6.73-43.7-15.28-52.75-20.5Z"/>
          <path class="cls-38" d="m263.75,154.92l1,2c-15.61,7.24-35.24,11.81-51.5,18.25.87-.57.98-1.61,1.75-2.25,4.04-3.33,45.27-15.66,48.75-18Z"/>
          <path class="cls-36" d="m149,229.92c1.06-.75,26.53,1.19,25.25,3.75-3.06,2.13-24.56,2.05-25.5.5-.11-.19-.11-4,.25-4.25Z"/>
          <path class="cls-36" d="m74.75,133.42l13-1.5c.7,12.49-5.7,16.56-9.75,3.5-3.78,1.44-.13,6.14-3.5,5-1.03-.35-.12-6.03.25-7Z"/>
          <path class="cls-42" d="m146.75,252.92c-3.53,1.34-.35,5.27-3,3.5-1.92-9.54-3.76-19.09-5-28.75,6.75-2.03,3.98,18.23,8,25.25Z"/>
          <path class="cls-8" d="m32.75,117.92c.03,6.52,9.31,10.17,15,10-1.12,1-2.79,2.8-4,4-7.05-.5-14.12-6.24-15-13.75,2.91-1.71,3.8-.23,4-.25Z"/>
          <path class="cls-27" d="m46.5,136.92c1.13-.21,8.57,1.73,8.75,2.25.11.31-2.94,5.63-3.25,5.75-1.07.41-11.74-.12-14.25-.25,2.38-.97,6.98-7.41,8.75-7.75Z"/>
          <path class="cls-31" d="m35.25,117.92c-1.71,4.03,9.31,7.27,13.75,6.5,1.03-.18,4.87-3.51,6.25-4.5l.5,2c-.66.5-1.35.99-2,1.5-1.92,1.51-4.21,2.9-6,4.5-5.69.17-14.97-3.48-15-10,.82-.07,1.68.07,2.5,0Z"/>
          <path class="cls-28" d="m88.25,124.42c.76.56,1.63,1.06,2,2-1.08.23.42,3.13-12.25,1-.36-.2,1.47-7.7,1.75-8,2.87,1.52,5.89,3.07,8.5,5Z"/>
          <path class="cls-8" d="m75.25,108.92c-4.54,2.51-5.68,4.29-6,4.5-2.18,1.41-4.75,2.46-7,4-2.15,1.47-4.43,2.93-6.5,4.5l-.5-2c6.18-4.42,12.1-9.34,18.5-13.5.82.44,1.21,1.67,1.5,2.5Z"/>
          <path class="cls-2" d="m275.75,125.42c-4.31,1.11-15.28-7.85-15.5-8.75-.21-.84,1.3-1.16,1-2.25,5.28,3.04,9.93,7.01,14.5,11Z"/>
          <path class="cls-9" d="m260,146.92c6.51,6.86-3.47,8.01-4.5,7.5-.31-.15-1.93-4.87-1.75-5.25.17-.36,5.4-1.44,6.25-2.25Z"/>
          <path class="cls-9" d="m68.5,146.92c3.3-1.4,6.72,3.68,6.75,5.25.06,3.24-7.68,1.36-8.5-.5-.61-1.38,1.26-4.54,1.75-4.75Z"/>
          <path class="cls-9" d="m51.5,128.92c.45-.09,8.66,1.69,9,2,.47.42-.58,3.66-.75,3.75-.77.39-8.72-2.71-10.75-2.25-1.2-.51,2.26-3.45,2.5-3.5Z"/>
          <path class="cls-36" d="m88.75,117.42c1.38,2.6,2.05,5.23-.5,7-2.61-1.93-5.63-3.48-8.5-5,.88-.95,7.22-1.67,9-2Z"/>
          <path class="cls-22" d="m23.25,94.42c3.97-7.63,3.33-11.09,9.5-13.5-4.88,4.46-4.21,14.31-9.5,13.5Z"/>
          <path class="cls-14" d="m53.75,123.42c.65-.51,1.34-1,2-1.5,2.07-1.57,4.35-3.03,6.5-4.5,5.91,5.72-4.19,6.41-8.5,6Z"/>
          <g>
            <path class="cls-28" d="m237.25,132.42c4.21,1.19,14.55-4.27,15,2-.43,1.6-.91,3.33-1,5-8.79.31-7.48,6.27-19-9.75.04-.96,3.46-1.8,5-2.25,2.57-.76,4.64-.11,4.5-1.25.03-.6-8.11-6.85-7.5-9.25,12.1,1.28,12.85.52,16.5,9.25-3.41,3.02-15.33,1.49-15.5,4-.04.54,1.1,1.99,2,2.25Z"/>
            <path class="cls-36" d="m251.25,139.42c.09-1.67.57-3.4,1-5,.32-1.18.74-2.31,1-3.5,1.82.67.42-.91,2-.25,7.23,15.27-3.15,8.72-4,8.75Z"/>
            <path class="cls-20" d="m253.25,130.92c-.26,1.19-.68,2.32-1,3.5-.45-6.27-10.79-.81-15-2-2.66-1.76,14.44-3.18,15.25-3,.81.18.67,1.47.75,1.5Z"/>
          </g>
          <path class="cls-17" d="m203.25,13.42c.05.13.75-.81,1.5,2.25-.41.77-13-4.49-16.5-5.25,4.24-1.25,10.46,2.35,15,3Z"/>
          <path class="cls-42" d="m87.75,131.92l-13,1.5c1.47-3.83,12.03-2.92,13-1.5Z"/>
          <path class="cls-37" d="m247,144.92c5.54,1.23-3,6.43-5.25,3.75-1.97-2.34,4.88-3.83,5.25-3.75Z"/>
          <path class="cls-34" d="m72.5,127.92c2.46-.6-3.68,20.36-3.75,10.75,0-.57,3.29-8.99,3.75-10.75Z"/>
          <path class="cls-20" d="m240,146.92c4.64,1.78-5.02,5.26-6.25,4.25-3.07-2.52,5.81-4.42,6.25-4.25Z"/>
          <path class="cls-38" d="m258,142.92c9.99-.14-9.63,7.04-5,1.5.17-.2,4.74-1.5,5-1.5Z"/>
          <path class="cls-20" d="m220.25,115.92c-2.16.39-4.34.62-6.5,1-5.54.98-11.39,3.26-13.5,2,2.4-.65,19.21-4.58,20-3Z"/>
          <path class="cls-25" d="m69.25,113.42c.32-.21,1.46-1.99,6-4.5.02.06,1.05.46,1,.75-.1.52-6.73,8.52-7,3.75Z"/>
          <path class="cls-42" d="m92.5,127.92c2.47.92-.16,5.35-2.5,4.5-2.61-.94.52-5.24,2.5-4.5Z"/>
          <path class="cls-20" d="m80.5,145.92c.31-.1,5.43,1.24,6.25,1.75.66,2.59-10.93-.23-6.25-1.75Z"/>
          <path class="cls-37" d="m68,143.42l8.75,2.25c.22,1.07-9.47-.72-8.75-2.25Z"/>
          <path class="cls-42" d="m88,147.92c4.37-1.53,8.33,4.21-.5,1.5-.64-.45.11-1.36.5-1.5Z"/>
          <path class="cls-28" d="m173.5,206.42c.15-.18,4.08.3,3.25,2.25-.91,2.15-4.84-.34-3.25-2.25Z"/>
          <path class="cls-9" d="m286,141.42c.72-.13,2.87,3.72,1.5,4-2.67.55-2.9-3.75-1.5-4Z"/>
          <path class="cls-1" d="m273,156.92c.61.05.86-.02.75.75-9.28,7.83-3.07-.95-.75-.75Z"/>
          <path class="cls-36" d="m150.5,207.42c.11-.06,2.39-.06,2.5,0,5.31,2.85-6.78,2.22-2.5,0Z"/>
          <path class="cls-5" d="m105.5,176.92c8.9,4.89,8.83,7.43,0,.5l-.25-.25.25-.25Z"/>
          <path class="cls-20" d="m37.25,80.42v-.5c.89-.04.66-1.78,3,2.25l-3-1.75Z"/>
          <path class="cls-5" d="m140.5,203.92c1.34-.27,3.83.18,3.25,1.25-.39.72-3.16-.45-3.25-1.25Z"/>
          <g>
            <path class="cls-36" d="m108.25,116.42c.03.32-.06.69,0,1,.79,4.07,3.17,4.04,9,3-2.82,2.89,3.59,2.17,6,3-.26.49-3.79,9.55-4,10.25-1.09,3.58-3.01,13.62-3,17.25-2.15-.26-12.17-.75-13-2.25-1.13-2.05.99-9.79,2-12.5,3.62-9.77,14.17-19.52,1.25-11.25-.26-1.54-1.57-.39-2.75,0,.11-1.54-9.09.57-13.5,1.5-.37-.94-1.24-1.44-2-2,2.55-1.77,1.88-4.4.5-7,5.4-.99,10.83-1.26,16.25-2,2.82-.05,3.08,1,3.25,1Z"/>
            <path class="cls-36" d="m116.25,150.92c.02,7.15,2.81,14.18,3.5,21.25-.86-1.74-3.69-5.61-4-6.25-.15-.3-.85-5.39-1.75-6.5l-16.75-4c-.86-2.99-2.09-15.98.5-17.75.49-.33,1.27.98,2.5-.25.99-1-.61-2.71-2-1-.57-2.77,14.79-11.09-3.5-8.25,2.44-1.31,5.76-2.17,9-3.25,1.18-.39,2.49-1.54,2.75,0,12.92-8.27,2.37,1.48-1.25,11.25-1.01,2.71-3.13,10.45-2,12.5.83,1.5,10.85,1.99,13,2.25Z"/>
            <path class="cls-44" d="m115.75,165.92c-5.55-1.39-16.89-4.89-18.5-10.5l16.75,4c.9,1.11,1.6,6.2,1.75,6.5Z"/>
            <path class="cls-42" d="m100.25,137.42c-.85.12-1.79.01-2-1,1.39-1.71,2.99,0,2,1Z"/>
          </g>
          <path class="cls-18" d="m220.75,127.92c-.12-1.21,5.04.15,4.25.5-.67.3-4.23-.28-4.25-.5Z"/>
          <path class="cls-29" d="m186,203.92c2.22-.03,1.71,1.35-1,1-.62-.18.93-1,1-1Z"/>
          <g>
            <path class="cls-36" d="m234.25,116.92c-.61,2.4,7.53,8.65,7.5,9.25.14,1.14-1.93.49-4.5,1.25-8-.2-17.78-4.12-18.5-1.5-.27,1,6.31,11.01,7.5,11.5,2.32.96,1.46-1.92,3,.75l1.5,19-17.25,5.25-6,13,3.25-12.25c2.62-14.74-2.25-28.54-11-40,2.91-4.39-4.21-2.97.5-4.25,2.11,1.26,7.96-1.02,13.5-2,.36,1.56-4.59,1.08-8.5,2.75,14.93,3.3,12.32-.55,14.5-1.75,6.03-3.32,7.94-1.69,14.5-1Z"/>
            <path class="cls-39" d="m220.25,115.92c.33.65-.77,1.27-.5,2-2.18,1.2.43,5.05-14.5,1.75,3.91-1.67,8.86-1.19,8.5-2.75,2.16-.38,4.34-.61,6.5-1Z"/>
            <path class="cls-10" d="m220.75,127.92c1.97,2.97,3.58,6.47,5.5,9.5-1.19-.49-7.77-10.5-7.5-11.5.46.31,1.92,1.88,2,2Z"/>
            <path class="cls-22" d="m206,120.42c.33-.22,6.74,1.43,7.75,1.75-.12.76-10.43.02-7.75-1.75Z"/>
          </g>
          <g>
            <path class="cls-28" d="m125.75,117.92c4.24,1.41-.51,1.73-2.5,5.5-2.41-.83-8.82-.11-6-3,2.91-.52,4.99-.81,2.5-3,1.99.27,4.92,1.88,6,.5Z"/>
            <path class="cls-20" d="m125.75,117.92c-1.08,1.38-4.01-.23-6-.5-3.62-.5-7.95-1.04-11.5,0-.06-.31.03-.68,0-1,6.09.16,11.28-.57,17.5,1.5Z"/>
            <path class="cls-39" d="m119.75,117.42c2.49,2.19.41,2.48-2.5,3-5.83,1.04-8.21,1.07-9-3,3.55-1.04,7.88-.5,11.5,0Z"/>
          </g>
          <g>
            <path class="cls-42" d="m191.75,184.42c-1.99,1.35-4.18,2.95-6.5,2,.84-.52.94-.96,1-1,5.92-4.12,11.41-9.85,14-16.75,6.03-16.04-1.99-13.37-2-15.5.84-1.75,3.66,2.47,4.5.5-1.58-26.97-25.82-41.26-51.25-35.25-22.81,6.58-34.1,33.37-22.25,55l-2.5,1.5c-18.78-33.31,4.72-70.69,43.25-66,40.86,4.97,46.98,58.36,21.75,75.5Z"/>
            <path class="cls-38" d="m191.75,184.42c-9.04,9.47-22.85,12.82-35.5,11-1.1-2.64-9.55-.89-7.5-5.5,12.43,4.41,25.28,3.5,36.5-3.5,2.32.95,4.51-.65,6.5-2Z"/>
            <path class="cls-20" d="m148.75,189.92c-2.05,4.61,6.4,2.86,7.5,5.5-12.36-1.78-23.43-9.74-29.5-20.5l2.5-1.5c3.99,7.29,11.68,13.73,19.5,16.5Z"/>
            <g>
              <path class="cls-44" d="m186.25,185.42c.09-.1.08-2-.25-2-.55,0-.24,2.53.25,2-.06.04-.16.48-1,1-11.22,7-24.07,7.91-36.5,3.5-7.82-2.77-15.51-9.21-19.5-16.5-11.85-21.63-.56-48.42,22.25-55,25.43-6.01,49.67,8.28,51.25,35.25-.84,1.97-3.66-2.25-4.5-.5,0,2.13,8.03-.54,2,15.5-2.59,6.9-8.08,12.63-14,16.75Z"/>
              <g>
                <path class="cls-33" d="m157.5,188.92c6.11,2.01,13.6-.64,13.75.25-6.25,2.53-6.93,4.02-13.75-.25Z"/>
                <path class="cls-35" d="m186.75,180.42v-.5c2.95-4.47,6.25-8.72,8.25-13.5,1.07.47-3.24,9.15-8.25,14Z"/>
                <path class="cls-20" d="m186.75,180.42c-5.78,5.59-5.36,3.54,0-.5v.5Z"/>
                <path class="cls-20" d="m186.25,185.42c-.49.53-.8-2-.25-2,.33,0,.34,1.9.25,2Z"/>
                <g>
                  <path class="cls-40" d="m185.75,129.92c-2.84,1.23.46,2.68-4.5,2-10.09-8.26-29.11-7.53-38.5,1.5l-3-2c13.67-13.9,31.47-13.92,46-1.5Z"/>
                  <path class="cls-41" d="m152.25,180.92c3.47,1.28,7.72,1.53,11.5.5,3.54,2,9.22-.17,13-2l.5,3c-16.26,8.3-34.85,2.49-43.5-13.5,1.63-.3,4.08-1.09,4.5-2.5,1.9,3.73,10.31,13.14,14,14.5Z"/>
                  <path class="cls-16" d="m142.75,133.42c-9.34,8.98-10.27,21.66-4.5,33-.42,1.41-2.87,2.2-4.5,2.5-7.13-13.18-4.3-27.03,6-37.5l3,2Z"/>
                  <path class="cls-41" d="m183.25,165.92c1.58-.22,4.09.06,6,0-.06.15.06.36,0,.5-2.09,5.14-7.46,10.56-12.5,13-3.78,1.83-9.46,4-13,2,7.58-2.06,16.15-15.09,17.25-15.5.41-.15,1.47.11,2.25,0Z"/>
                  <path class="cls-26" d="m196.75,146.92c.58,2.6,1.21,6.14,1,8.75-1.09,13.46-7.71,10.22-8.5,10.25,1.29-3.39,2.46-8.43,2.5-12,.03-2.1-.59-3.92-.5-6,1.38-.12,3.86-1.15,5.5-1Z"/>
                  <path class="cls-41" d="m185.75,129.92c5.54,4.73,9.39,9.7,11,17-1.64-.15-4.12.88-5.5,1-.17.01-.33-.01-.5,0-.92-5.21-3.92-9.69-7.5-13.5-.64-.68-1.31-1.93-2-2.5,4.96.68,1.66-.77,4.5-2Z"/>
                  <path class="cls-26" d="m177.25,182.42l-.5-3c5.04-2.44,10.41-7.86,12.5-13-.4,1.81,2.67.36,3,1.75.24,1.01-7.96,10.66-15,14.25Z"/>
                  <path class="cls-24" d="m183.25,147.92c1.86-.3,5.13.18,7.5,0,.17-.01.33.01.5,0-.09,2.08.53,3.9.5,6-4.07-.87-3.97,9.51-8.5,12-.78.11-1.84-.15-2.25,0-1.1.41-9.67,13.44-17.25,15.5-3.78,1.03-8.03.78-11.5-.5-.78-1.18-.6-1.08.25-2,5.39-5.88,19.72-12.48,27-17-.07,9.59,4.77-3.25,3.75-8.75-.18-.97-5.05-4.43,0-5.25Z"/>
                  <path class="cls-16" d="m191.75,153.92c-.04,3.57-1.21,8.61-2.5,12-1.91.06-4.42-.22-6,0,4.53-2.49,4.43-12.87,8.5-12Z"/>
                  <path class="cls-32" d="m190.75,147.92c-2.37.18-5.64-.3-7.5,0,1.47-1.51-.56-3.98-2-4.5l-1-7.5c1.23-.87,2.6-.03,3-1.5,3.58,3.81,6.58,8.29,7.5,13.5Z"/>
                  <g>
                    <path class="cls-15" d="m181.25,131.92c.69.57,1.36,1.82,2,2.5-.4,1.47-1.77.63-3,1.5-1.61,1.14-7.58,8.22-10,10.25.57,1.92,3.78-5.35,11-2.75,1.44.52,3.47,2.99,2,4.5-5.05.82-.18,4.28,0,5.25,1.02,5.5-3.82,18.34-3.75,8.75-7.28,4.52-21.61,11.12-27,17-.85.92-1.03.82-.25,2-3.69-1.36-12.1-10.77-14-14.5-5.77-11.34-4.84-24.02,4.5-33,9.39-9.03,28.41-9.76,38.5-1.5Z"/>
                    <path class="cls-44" d="m146.5,133.92c2.94-.7-.26,9.84,1.5,10.5,5.95-2.3,9.78-1.99,14-7.5l-2,4.5c1.93.55,15.01-6.15,14.75-4.25-8.56,6.51-19.32,5.39-29.25,8.75,2.66-17.3,2-7.55-3.5,1-.48-1.44,3.82-12.84,4.5-13Z"/>
                    <path class="cls-44" d="m159,147.92c2.9,0-8.6,8.42-5.5,11,.86.72,17.21-11.96,19.25-6.75-7.4,2.59.79,1.08-.5,3.5-11.86-4.44-18.72,10.18-20.5,4-1.53-5.29,4.37-8.28,7.25-11.75Z"/>
                  </g>
                  <g>
                    <path class="cls-44" d="m181.25,143.42c-7.22-2.6-10.43,4.67-11,2.75,2.42-2.03,8.39-9.11,10-10.25l1,7.5Z"/>
                    <path class="cls-37" d="m178.5,139.92c1.88-.27-.16,2.08-.75.75-.02-.05.7-.74.75-.75Z"/>
                  </g>
                </g>
              </g>
            </g>
          </g>
        </g>
      </g>
    </g>
  </g>
</svg>