<?xml version="1.0" encoding="UTF-8"?>
<svg id="_Шар_2" data-name="Шар 2" xmlns="http://www.w3.org/2000/svg" xmlns:xlink="http://www.w3.org/1999/xlink" viewBox="0 0 449.15 418.06">
  <defs>
    <style>
      .cls-1 {
        fill: #23150e;
      }

      .cls-1, .cls-2, .cls-3, .cls-4, .cls-5, .cls-6, .cls-7, .cls-8, .cls-9, .cls-10, .cls-11, .cls-12, .cls-13, .cls-14, .cls-15, .cls-16, .cls-17, .cls-18, .cls-19, .cls-20, .cls-21, .cls-22, .cls-23, .cls-24, .cls-25, .cls-26, .cls-27, .cls-28, .cls-29, .cls-30, .cls-31, .cls-32, .cls-33, .cls-34, .cls-35, .cls-36, .cls-37, .cls-38, .cls-39, .cls-40, .cls-41, .cls-42, .cls-43, .cls-44, .cls-45, .cls-46, .cls-47, .cls-48, .cls-49, .cls-50, .cls-51, .cls-52, .cls-53, .cls-54 {
        stroke-width: 0px;
      }

      .cls-2 {
        fill: #656864;
      }

      .cls-3 {
        fill: #c5a58f;
      }

      .cls-4 {
        fill: #441502;
      }

      .cls-5 {
        fill: #826f6a;
      }

      .cls-6 {
        fill: #e8e8e6;
      }

      .cls-7 {
        fill: #2d1106;
      }

      .cls-8 {
        fill: #e4d2c2;
      }

      .cls-9 {
        fill: #8a7560;
      }

      .cls-10 {
        fill: #ad9c8e;
      }

      .cls-11 {
        fill: #50514b;
      }

      .cls-12 {
        fill: #39261d;
      }

      .cls-13 {
        fill: #150403;
      }

      .cls-14 {
        fill: #5c5043;
      }

      .cls-15 {
        fill: #897d76;
      }

      .cls-16 {
        fill: #b4aaa5;
      }

      .cls-17 {
        fill: #c28e70;
      }

      .cls-18 {
        fill: #524845;
      }

      .cls-19 {
        fill: #999a9a;
      }

      .cls-20 {
        fill: #6e411f;
      }

      .cls-21 {
        fill: #996548;
      }

      .cls-22 {
        fill: #a58974;
      }

      .cls-23 {
        fill: #816555;
      }

      .cls-24 {
        fill: #9c7961;
      }

      .cls-25 {
        fill: #ccc4bb;
      }

      .cls-26 {
        fill: #545e66;
      }

      .cls-27 {
        fill: #493831;
      }

      .cls-28 {
        fill: #624737;
      }

      .cls-29 {
        fill: #8f8a79;
      }

      .cls-30 {
        fill: #6c655b;
      }

      .cls-31 {
        fill: #ddc0ab;
      }

      .cls-32 {
        fill: #af7c62;
      }

      .cls-33 {
        fill: #0e0d0c;
      }

      .cls-34 {
        fill: #3e1f10;
      }

      .cls-35 {
        fill: #6f5d50;
      }

      .cls-36 {
        fill: #2d2f32;
      }

      .cls-37 {
        fill: silver;
      }

      .cls-38 {
        fill: #a65b4b;
      }

      .cls-39 {
        fill: #cbbca5;
      }

      .cls-40 {
        fill: #27231d;
      }

      .cls-41 {
        fill: #a08f87;
      }

      .cls-42 {
        fill: #824430;
      }

      .cls-43 {
        fill: #383931;
      }

      .cls-44 {
        fill: #be9978;
      }

      .cls-45 {
        fill: #bdab96;
      }

      .cls-46 {
        fill: url(#_Градієнт_без_назви_177);
      }

      .cls-47 {
        fill: #fbf4e6;
      }

      .cls-48 {
        fill: #513222;
      }

      .cls-49 {
        fill: #6e3e2f;
      }

      .cls-50 {
        fill: #344046;
      }

      .cls-51 {
        fill: #747674;
      }

      .cls-52 {
        fill: #3b3432;
      }

      .cls-53 {
        fill: #7c5540;
      }

      .cls-54 {
        fill: #8f543a;
      }
    </style>
    <linearGradient id="_Градієнт_без_назви_177" data-name="Градієнт без назви 177" x1="292.05" y1="315.67" x2="269.36" y2="366.3" gradientUnits="userSpaceOnUse">
      <stop offset="0" stop-color="#42433e"/>
      <stop offset=".55" stop-color="#201f1a"/>
      <stop offset="1" stop-color="#595c53"/>
    </linearGradient>
  </defs>
  <g id="_Шар_1-2" data-name="Шар 1">
    <g>
      <g>
        <path class="cls-33" d="m233.69,65.53c1.28,3.2,4.26,7.16,1.75,8.5-5.51-8.46-3.53,10.33,0,12,1.16.55,3.4.52,4.75.5-.08.29.94,1.84-1,3.5-.17.14-1.41.98-1.5,1-10.35,2.08-11.36-15.24-9.5-21.74h-1c.27,10.53-3.7,77.58-2.5,81.48.77,2.51,3.28,1.68,3.5,1.75.5.17,1.51-.17,2,0,2.54.91.11,5.66,0,7.75-.04.7.73,4.2.5,5.5-.61,3.44-1.85,2.61-2,2.75-.71-9.05,2.68-17.65-2-13-.03-.14-.94-1.98-1-2.75h-1c.22,4.42-2.13,31.46-1.5,32.99.67,1.61,1.87-3.53,1.5,4.75-3.12-1.76-2.83,5.8-3,8.25-.29,4.25-.84,17.12,1.5,15.25-.01.5.01,1,0,1.5-1.31.38-.87,1.24-1,2l-3-1.5c.07-2.75.29-6.42-.5-7-.55-.62-.05-2.18,0-3.5.26-6.36,2.07-13.6,1.5-19.99-.13-1.44-.38-2.84-.5-4.25-.03-.4-1.53,1.34-.5-6.75,1.55-11.37,3.6-16.63-2-11-.04-.04-.44-.77-.5-1,1.24-1.53,2.58-2.89,4-4.25.78-6.23.23-12.51.5-18.74.03-.74-.03-1.42,0-2,.95-21.91,1.51-43.84,3-65.73l-7.5,2.75c.12-.15-.59-.5,2.5-3,1.39-1.12,4.35-2.71,6-3.5.65-.31,1.67-.86,2-1,2.04-.85,4.46-.94,6.5-1.5Z"/>
        <g>
          <path class="cls-33" d="m244.19,5.05c4.64,5.93,3.04-.35,6-.5-1.16,4.37-3.39,3.98-3.5,4.25-.09.2,1.05,4.15,1.25,4.25.27.14,3.65-4.46,3.75-4.75.53-1.53-2.15-1.24,0-2.25,1.19,2.95-.78,9.39-1,13-.73,11.97-.87,24.04-2,35.99-.09.97-.61,2.1-1,3-.63.08-1.9.1-2.5,0,2.97-8.28.94-8.75,1-9.25.04-.39.96-.11,1-.5.44-4.68.63-9.54.5-14.25-.25-9.09-1.89-23.83-13-12.25-1.73,12.78,4.22-7.56,9,2.75-.91,1.63-1.09-1.67-3-1.5-5.15.45-5.65,31.74-7,36.99-.25.05-.6.29-2,.5-1.27.19-2.89,1.93-4,.25-.8-1.86,5.68-42.45,1.25-39.74.39,8.19-1.05,15.93-1.75,24.24-.47,5.62-.24,23.03-2.5,17-.49-1.3,2.19-23.97,2.5-27.74.09-1.15-.11-2.35,0-3.5.1-1.06.39-1.94.5-3,.5-4.99.17-11.24.5-13.75.05-.42.99-.2,1-.25l1.5,1.25c.13-7.83,5.61-14.98,13.5-10.25Z"/>
          <path class="cls-6" d="m244.19,5.05c-7.88-4.73-13.37,2.42-13.5,10.25l-1.5-1.25c.74-5.26-.72-13.33,7.25-14,5.08-.42,5.3,1.87,7.75,5Z"/>
          <path class="cls-36" d="m251.68,6.05c-2.15,1.01.53.72,0,2.25-.1.29-3.48,4.89-3.75,4.75-.2-.1-1.34-4.04-1.25-4.25.11-.27,2.34.13,3.5-4.25,1.09-.05,1.19.73,1.5,1.5Z"/>
          <path class="cls-19" d="m243.69,24.54c1.96,4.23,2.45,11.1,4,9.5.13,4.7-.06,9.57-.5,14.25-.04.39-.96.11-1,.5-.05.5,1.97.97-1,9.25-1.45-.23-1.79-.23-3-1.25,1.09-10.06,1.81-24.44-1.5-33.74,1.91-.17,2.09,3.13,3,1.5Z"/>
          <path class="cls-37" d="m247.68,34.04c-1.55,1.6-2.04-5.27-4-9.5-4.78-10.31-10.73,10.03-9-2.75,11.1-11.59,12.75,3.16,13,12.25Z"/>
        </g>
        <path class="cls-33" d="m248.68,63.03c-.54.79-.71,1.62-1,2.5-2.15,6.64-2.08,10.75-3,17-1.91,12.96-3.47,25.98-5,38.99-2.84,24.28-5.79,48.5-6.5,72.98-.09,3.1-.51,6.47-.5,9.5.02,8.38-.26,15.09,3.25,22.99.78-8.71.01-17.23.75-25.99,1.07-.54,3.54-.21,4-1.25.35-.8-.39-7.81,1.5-6.25-1.25,4.84-.98,9.1-1,14,0,.67-.02,1.33,0,2,.08,2.87.34,5.89,0,8.75l3,7.5c-.58-3.76-1.69-7.43-2-11.25,1.56.82,1.9-7.01,4-14.5h3.5c-.03,2.78-.08,5.51.5,8.25h1c.14-1.78.59-3.52,1-5.25,1.78-.43,2.1,1.34,3,2.5-.44,1.84-2,14.42-1.5,15.25,2.38.56,5.7-4.05,9-5.25.05,2.15,2.43,21.39,3.5,15.25.27-1.53-1.94-15.66-.25-15.75,1.43,3.12,5.29,7.44,6.25,10-.02,2.19-.49,7.3-1.5,9,.16-1.67-.28-2-1-.5-2.58-4-1.59-1.88-2.5,3.5-.34,2.01-.51,3.98-.75,6-2.02.95-4.18.28-6.25.5-.16.02-.33-.01-.5,0-2.82.19-4.75.08-7.5,0l7-.75c-6.93-11.29-7.96-6.15-8.75-6.25-.31-.04-1.62-1.9-2-2-1.88-.5-.24,9.03,2.75,9-.75-.04-1.66.09-2.5,0-1.74-.19-5.5-.21-6.5-.5-.47-.14-2.67-1.23-3-1.5-2.04-1.65-4.33-8.39-5.5-11-.55-1.22-.97-2.51-1.5-3.75h-1c-.77,4.5-.77,8.96-1,13.5-.02.41-.92-.51-1,1.75-.06,1.75.52.97.5,1.5l-1,.25c.43,6.31-.99,12.53-1.5,18.74-.27,3.29-.24,6.69-.5,10-.12,1.48.12,3.02,0,4.5-.51,6.33-.98,12.67-1.5,18.99-.79,9.66-2.32,19.33-3,28.99-3.89.28-.08-10.54-3.5-13,.67-10.32.66-20.66.5-30.99,3.7-4.67,2.64-6.71,3.5-12.5.51-3.44-.15-7.73,1.5-10.75.38-13.03.02-26.23.5-39.24.34-9.35,1.33-18.57,1.5-27.99,4.47-3.17,1.02-12.2,3.5-17.75-.48-2.24-.94-1.61-3-.75,0-.08-.52.43-.5-1.5,1.01-.47,1.72-1.25,2.5-2,.15-.14,1.39.69,2-2.75.23-1.29-.54-4.8-.5-5.5.11-2.09,2.54-6.84,0-7.75l9-62.48c1.94-1.66.92-3.2,1-3.5,1.27-4.71,1.44-9.51,2.5-14.25l-1-1.25c-7.83-1.98,5.81-1.05,6-8,.33-.01.67,0,1,0Z"/>
        <path class="cls-40" d="m223.69,218.49c-.4,15.15-1.32,30.12-2,45.24-.13,2.88-.31,5.29,1,4.75-.86,5.78.2,7.82-3.5,12.5-.7.89-1.03,1.36-1.25,2.5-.14-5.38-1.25-15.4-1.25-16.5,1.72,3.44,1.89,4.44,3.5.25-.23-11.16.42-40.77,2-49.74.13-.76-.31-1.62,1-2-.06,2.45.5,2.85.5,3Z"/>
        <path class="cls-18" d="m222.19,217.49c-1.58,8.96-2.23,38.58-2,49.74-1.61,4.19-1.78,3.19-3.5-.25-.02-13.41,2.07-34.85,2.5-50.99l3,1.5Z"/>
        <path class="cls-40" d="m222.19,324.96c-.14,1.98-.18,4.56.5,4.5-.66,4.48-.73,11.15-3,10.75.19-3.24-2.61-5.19-3-6.25.67.07.64-2.54.5-4.5-.04-.6-.5-1.55-.5-4.5,1.73-2.18,1.75-9.21,2-13,3.41,2.46-.39,13.28,3.5,13Z"/>
        <path class="cls-6" d="m237.69,91.02c-1.39,20.8-6.44,40.93-9.5,61.48-.21-.07-2.73.76-3.5-1.75-1.2-3.9,2.77-70.94,2.5-81.48h1c-1.86,6.5-.85,23.82,9.5,21.74Z"/>
        <path class="cls-6" d="m242.69,63.53l-6.5,3.25c1.93,4.14,4.85,7.08,5.5,4.25l1,1.25c-1.06,4.73-1.23,9.54-2.5,14.25-1.35.02-3.59.05-4.75-.5-3.53-1.67-5.51-20.46,0-12,2.51-1.34-.47-5.29-1.75-8.5,4.36-1.2,4.03-1.41,9-2Z"/>
        <path class="cls-6" d="m226.69,155.51c.38,1.97-.44,10.36-.5,15-.02,1.93.5,1.42.5,1.5-.02,2.7-.98,6.05-1,8.75-.03,3.22.55,6.64.5,9.75-.17,9.42-1.16,18.64-1.5,27.99h-1c0-.15-.56-.55-.5-3,.01-.5-.01-1,0-1.5.18-7.8,1.15-15.68,1.5-23.49.37-8.28-.83-3.14-1.5-4.75-.63-1.53,1.72-28.58,1.5-32.99h1c.06.77.97,2.61,1,2.75Z"/>
        <path class="cls-26" d="m230.19,152.51c-.48-.17-1.49.17-2,0,3.05-20.55,8.1-40.68,9.5-61.48.09-.02,1.33-.86,1.5-1l-9,62.48Z"/>
        <path class="cls-50" d="m224.69,190.5c-.35,7.81-1.32,15.69-1.5,23.49-2.34,1.88-1.79-10.99-1.5-15.25.17-2.44-.12-10.01,3-8.25Z"/>
        <path class="cls-26" d="m228.69,168.5c-.78.75-1.49,1.53-2.5,2,.06-4.64.88-13.03.5-15,4.68-4.66,1.29,3.95,2,13Z"/>
        <path class="cls-1" d="m247.68,63.03c-.19,6.95-13.83,6.02-6,8-.65,2.83-3.57-.11-5.5-4.25l6.5-3.25c1.76-.21,3.19-.44,5-.5Z"/>
        <path class="cls-37" d="m256.68,96.02l-1,1.5c-4.66-3.94-8.07-9.08-9-6.75-.89,2.23-3.42,40.84-5,47.74-.61-.13-1.36.08-2,0,.35-5.49.31-11.48,0-17,1.52-13.01,3.09-26.03,5-38.99q6,6.75,12,13.5Z"/>
        <path class="cls-6" d="m239.69,138.51c-.29,4.52-1.21,9-1.5,13.5-.64,10.02-1.5,19.93-1,29.99-.71,1.97-1.01,3.97-1.5,6-.46,1.9-1.21,4.68-1.5,6.5h-1c.71-24.48,3.65-48.7,6.5-72.98.31,5.51.35,11.51,0,17Z"/>
        <path class="cls-15" d="m224.69,218.49c-.48,13.01-.12,26.21-.5,39.24-1.65,3.02-.99,7.31-1.5,10.75-1.31.54-1.13-1.87-1-4.75.68-15.12,1.6-30.09,2-45.24h1Z"/>
        <path class="cls-50" d="m226.19,190.5c.05-3.11-.53-6.52-.5-9.75.02-2.7.98-6.05,1-8.75,2.06-.86,2.52-1.49,3,.75-2.48,5.54.97,14.57-3.5,17.75Z"/>
        <path class="cls-37" d="m229.69,243.48c-.02.38.63,1.41.5,7.5-.08,3.89-.82,7.65-1,11.5h-2c.5-6.21,1.93-12.44,1.5-18.74l1-.25Z"/>
        <path class="cls-11" d="m216.69,333.96c-.52-1.4-1.17-3.92.5-4.5.14,1.96.17,4.56-.5,4.5Z"/>
      </g>
      <g>
        <path class="cls-19" d="m355.65,382.44c1.22,2.4,2.66,5.94,3.5,8.5.5,1.53-.05,3.09,0,3.25.16.54,3.82,6.41,2.5,10.25-3.73-14.51-9.96-12.48-17-16.5-2.62-1.49-4.01-2.24-3.5-5.5,14.62-.03,8.87-.98,10.5-3.25,1.83-2.55,2.81.91,4,3.25Z"/>
        <path class="cls-1" d="m310.17,379.44c.99,2.56,7.92-1.89,6,3-2.02-.03-5.12,1.34-6.75,1.5-4.13.4-16.56.51-5.75,1-1.07,1.37.59,1.47,2.5,2,6.11,1.69,12.77,1.93,18.99,3-4.59,2.99-9.62-3.35-6,8.5-1.55-.56-3.42-.93-5-1.5-.08-.03.07-.37-1.5-1,4.25-.12,4.53-4.81,3.75-5.5-.31-.27-6.45-1.01-8-1.5-7.97-2.53-9.03-3.85-18.24-4.5,2.54-1.68-.79-1.86-1.25-3.5,5.4-.03,10.87.16,16.25-.5,1.6-.2,3.38-.73,5-1Z"/>
        <path class="cls-48" d="m329.66,392.94l5,10c-5.09-1.92-10.38-2.64-15.5-4.5-3.62-11.85,1.41-5.51,6-8.5.03-.02-.11-.56.5-.5.48.59,2.97.57,4,3.5Z"/>
        <path class="cls-45" d="m341.16,382.44c-.52,3.26.88,4,3.5,5.5-1.92,1.12-4.91.53-4.5,2,.29,1.06,2.12,1.88,2.5,3-.66.37-.47.48-.5.5-2.21,1.04-1.41.99-1.5,1-4.82.41-11.08-9.63-17-10.5,0-.06-1.2.33-1-.75.85-.33,1.65-.96,2.5-1.25-.57.58,12.24,5.82,13.75,7.5,3.74-.39-12.67-8.6-13.75-7.5,2.96-.99,12.1.51,16,.5Z"/>
        <path class="cls-35" d="m290.17,384.44c9.21.65,10.27,1.96,18.24,4.5,1.55.49,7.69,1.23,8,1.5.78.69.5,5.38-3.75,5.5-6.72-2.72-16.02-8.59-23.99-10.5v-.5c.08,0,1.24-.52,1.5-.5Z"/>
        <path class="cls-40" d="m353.65,403.94c-.16.41-.04,2.15-.5,3-2.03,1.13-4.05,4.41-5.75,5.5-5.97,3.84-17.78,7.31-23.74,4.5.07-.05-.05-1.32.75-1.5,1.6-.37,17.22,2.81,28.24-13l1,1.5Z"/>
        <path class="cls-35" d="m340.66,394.44c-.11.95.16,2.11,0,3-.01.06-.43-.03-1,.75,5.24,6.34-7.33-5.77-9.25-6.25-.06-.02-.77.64-.75,1-1.03-2.93-3.52-2.91-4-3.5-.25-.31-.96-1.64-1.5-2.5-.44-.69-.89-1.22-1.5-1.75-.08-.25.79.24,1-1.25,5.92.87,12.18,10.9,17,10.5Z"/>
        <path class="cls-40" d="m342.16,393.44c1.25,2.33,1.51,6.24-1.5,4,.16-.89-.11-2.05,0-3,.09,0-.71.04,1.5-1Z"/>
        <path class="cls-1" d="m342.66,392.94c-.38-1.12-2.21-1.94-2.5-3,3.38-1.43,4.9,1.23,4,3.25-.36.82-1.27-.38-1.5-.25Z"/>
        <path class="cls-6" d="m209.69,322.96c4.76,7.85,6,14.38,12,21.49,14.1,16.73,36.24,25.36,57.48,26.99.65,1.94,2.55,1.57,2,4-4.29-.3-9.05-1.62-10.75-1.5-.17.01-.96,2.16-3,1.5-2.67-.87,2.93-.85,1.5-2l-12-3.5c-5.7,2.69-1.2.03-1.25-.25-.08-.5-1.25-.1-1.5-.25-7.6-4.61-17.39-8.03-26.24-15.5-11.45-9.67-11.71-16.89-18.74-23.49-5.26-4.94-12.32-7.83-19.49-8.5-.05-.31.66-1,.75-1,7.13-.12,17.53,4.68,21.49,11-3-9.38-9.44-12.25-18.74-12.5l6.5-.75-2.5-3.25c7.77,2.56,6.79,2.82,12.5,7.5Z"/>
        <path class="cls-45" d="m193.2,319.46c9.31.24,15.74,3.12,18.74,12.5-3.96-6.32-14.36-11.12-21.49-11-.09,0-.8.69-.75,1-8.5-.78-10.26,2.87-10.5-1.5,3.69-.64,10.23-1.1,14-1Z"/>
        <path class="cls-33" d="m188.7,313.46c-.51,5.62-1.64,2.01-3.5.5-.1-2.04,2.39-.67,3.5-.5Z"/>
        <path class="cls-37" d="m356.15,344.45c-.1.79.15,1.8,0,2.5-.05.21-2.87,3.88-.5,3.5-.21,1.28.91,1.24,1.5,2l.5,3c-.14.06-.38-.07-.5,0-.29.16-.71-.53-.75-.5-1.56,1.09-.09,1-5.25,3.5-4.42-1.43-2.19-2.2-2-3.5.36-2.4-1.13.44-1.5-.75-.11-.35,3.57-2.95,4-6,.15-1.07-.99-.62-1-1-.2-8.38-.37,2.72-7,5.25,2.01-2.71,6.18-8.98,5-12,1.72-2.34,4.86,1.76,7.5,4Z"/>
        <path class="cls-51" d="m331.66,322.46c1.53.79,3.78,1.81,5,2.5,6.56,3.72,12.68,8.93,18.49,13.5-19.27-13.29-37.63-21.3-59.98-27.99,1.18-.14,2.72-1.16,3.75-1,1.19.19,6.59,3.31,2.75.75,2.02-1.2,3.93,2.09,4.25,2.25.11.06.85-1.27,1.5-1,.27.11-1.03,2.68,1,.5,7.07,4.2,15.61,6.57,23.24,10.5Z"/>
        <path class="cls-1" d="m207.2,343.95c3.75,5.48,18.39,17.43,24.49,20.99-.3,1.99,10.57,6.92,11.25,7,1.12.12.69-.98.75-1,.32-.09,1.42,1.38,1.5-.25l-1.5-.75s.06-.85.75-.5c4.31,2.18,15.41,9.02,11.75,4.5.52.16.98.75,2.5.5,12.63,9.53,28.39,1.52,25.99,10-21.69-1.64-42.77-6.68-60.23-20.49-2.59-2.05-17.62-16.39-18.24-17.99-.46-1.18-.59-2.05,1-2Z"/>
        <path class="cls-28" d="m291.17,378.94c4.67.38,9.38.62,14,1.5-5.37.66-10.85.47-16.25.5.46,1.63,3.79,1.82,1.25,3.5-.26-.02-1.42.51-1.5.5-.97-.07-1.7-.76-2.75-.5.18,2.45-1.13,0-1.25,0,2.39-8.48-13.36-.46-25.99-10,10.83,2.32,21.46,3.6,32.49,4.5Z"/>
        <path class="cls-51" d="m357.15,355.45l-1,1.75,1.75-.75c.26.57-.2,1.57-.25,2-.31,2.61-.94,3.44-1.5,5.5q-6.25.37-12.5.75c.85-3.26,6.7-2.8,8.75-4.25,3.57-2.53-11.07,2.75-1.25-2,5.16-2.49,3.69-2.41,5.25-3.5.04-.03.46.66.75.5Z"/>
        <path class="cls-11" d="m347.16,373.45c2.11,4.16,3.17,2.79,7,1.5.12.92.33,1.62.5,2.5-5.33.2-10.67,1.32-16,1.5,2.67-5.58-.69-2.65-7-2.5.14-.1,1.25-1.76,2.25-2.5.98-.26,3.67.79,9.25,0,.67,1.87,2.72,1.74,2.5-.5.48-.07,1.03.09,1.5,0Z"/>
        <path class="cls-2" d="m355.65,364.95c-.3.87-.67,4.29-1.5,6.5-10.12-.17-6.19-5.5,1.5-6.5Z"/>
        <path class="cls-2" d="m354.15,374.94c-3.83,1.29-4.89,2.67-7-1.5,2.17-.41,4.42-.67,6.5-1.5.8,1,.36,1.95.5,3Z"/>
        <path class="cls-14" d="m326.16,372.95c-1.47,1.03-1.61,2.29-2.75,3.5-1.98,1.07-2.5-.09-2.75,0-1.25.44-2.17.9-2.5,1-2.62.81-5.3,1.55-8,2-1.62.27-3.4.8-5,1-4.62-.88-9.33-1.12-14-1.5.69-3.67-3.01-.71-3-3,13.53.53,21.75,1.45,35.24-3.5l-2.25-3c.42-.12.58-.36,1-.5l4,4Z"/>
        <path class="cls-25" d="m324.16,386.94c.54.86,1.25,2.19,1.5,2.5-.61-.06-.47.48-.5.5-6.23-1.07-12.88-1.31-18.99-3,5.73-.28,13.81-2.49,17.99,0Z"/>
        <path class="cls-43" d="m325.16,381.94c1.08-1.11,17.49,7.1,13.75,7.5-1.51-1.68-14.31-6.92-13.75-7.5Z"/>
        <path class="cls-16" d="m209.19,330.46c7.04,6.6,7.29,13.83,18.74,23.49,8.85,7.47,18.64,10.89,26.24,15.5l-5.5.25c-.37.72,6.83,4.04,7.5,4.25,3.66,4.52-7.43-2.32-11.75-4.5-.69-.35-.71.52-.75.5-12.86-6.61-26.51-16.12-31.99-29.99-.58-1.46,1.81-1.8-1.5-2.5.77.03.39-.67.5-1,.97-2.86-3.89-4.65-1.5-6Z"/>
        <path class="cls-6" d="m211.69,339.95c5.48,13.87,19.13,23.38,31.99,29.99l1.5.75c-.08,1.63-1.18.16-1.5.25-3.65-2.64-8.16-3.76-12-6-6.11-3.57-20.75-15.51-24.49-20.99-1.24-1.82-.88-4.3-1-4.5l5.5.5Z"/>
        <g>
          <path class="cls-1" d="m189.7,321.96c7.18.66,14.23,3.56,19.49,8.5-2.39,1.35,2.47,3.14,1.5,6-1.79-4.57-8.31-8.14-12.75-9-12.68-2.46.84,5.35,7.25,10-.3,1.72.55,1.23,1,2,.12.2-.24,2.68,1,4.5-1.59-.05-1.46.82-1,2-8.12,2.02-2.42-2.48-3.5-6.25-.33-1.15-12.33-8.94-14.25-10.75-7.81,5.43-17.64,7.23-26.49,10.5-2.85,1.05-20.25,9.46-15.5,5,2.35-2.21,14.36-4.8,17.75-7.5,2.23-.74,4.31-1.76,6.5-2.5,2.46-.83,15.38-3.56,15-6.25-.54-.97-2.48-.43-3.5-.25-5.35.96-11.63,5.86-13.75,6.5-1.6.48-11.22,1.24-16.5,2.5-7.26,1.74-12.07,5.07-12.75,5,1.42-5.95,7.57-2.71,11.5-11,7.54-3.56,20.62-9.13,28.49-10.5.24,4.37,2,.71,10.5,1.5Z"/>
          <path class="cls-5" d="m170.71,334.46c3.75-3.93,13.57-4.1,11.5-6.5,1.02-.18,2.96-.72,3.5.25.39,2.69-12.54,5.42-15,6.25Z"/>
          <path class="cls-6" d="m210.69,336.46c-.11.33.27,1.03-.5,1-1.24-.26-3.48.19-5,0-6.41-4.65-19.93-12.46-7.25-10,4.44.86,10.95,4.42,12.75,9Z"/>
          <path class="cls-6" d="m175.95,322.96c7.35-.62-12.52,5.67-18.99,8-1.96.71-3.69,3.5-5.75,1.75,5.74-2.42,20.06-9.35,24.74-9.75Z"/>
        </g>
        <path class="cls-1" d="m210.19,337.46c3.31.7.92,1.04,1.5,2.5l-5.5-.5c-.45-.77-1.3-.28-1-2,1.52.19,3.75-.26,5,0Z"/>
        <path class="cls-37" d="m321.16,369.45l2.25,3c-13.49,4.95-21.71,4.03-35.24,3.5-2.36-.09-4.65-.34-7-.5.55-2.43-1.35-2.06-2-4,11.92.92,30.68,1.24,41.99-2Z"/>
        <path class="cls-22" d="m254.18,369.45c.25.15,1.42-.25,1.5.25.05.28-4.46,2.94,1.25.25l12,3.5c1.43,1.15-4.17,1.13-1.5,2,2.04.66,2.83-1.49,3-1.5,1.7-.12,6.46,1.2,10.75,1.5,2.35.16,4.63.41,7,.5,0,2.29,3.69-.67,3,3-11.03-.9-21.66-2.18-32.49-4.5-1.51.25-1.98-.34-2.5-.5-.67-.2-7.86-3.53-7.5-4.25l5.5-.25Z"/>
        <g>
          <path class="cls-27" d="m98.73,379.94c5.01,4.51,10.69,8.66,16.5,12l1.25,2-7.25-.5c-1.77-1.02-3.31-1.8-5-3-2.71-1.92-5.02-4.3-7.5-6.5-.09-3.46-2.86-3.36,2-4Z"/>
          <path class="cls-1" d="m141.21,347.95c.86,2.56-1.36,3.01-1,3.75,7.9-1.08,6.46,13.89,9.5,7.75,1.66,6.1.8,11.13,1.25,11.5,1.05-.26,5.12-5.41,5.5-5.5,2.91-.66,2.28,16.83-1.75,21.74,1.23,2,3.13-3.09,3.5-1-5.62,5.74-13.98,12.97-21.99,14.25l-1-1.5c.87-.12,3.67-1.07,4.25-1.5,3.28-2.43-4.9-1.61-12.75-1.5-.79-.93-.01-1.48,1-2q7.87-.25,15.75-.5l-4.25-2c.41-.11,1.33-.04,4-1,2.88,2.72,8.07-3.85,2.5-1.5.06-.92-1.5.55-1.5-.25,0-.08.69-.55,1-1.25.13-.3,2.02-.47,1-6,.35-.36.72-1.06,1-1.5,1.35-2.1,2.64-4.35-1-3.25,1.68-4,2.03-9,1-13.25-.57-2.36-2.39-3.79-2.5-4-5.23-10.02-7.54-8.54-12.5-11.5-1.3-.77-4.75-1.96-5.5-3-2.49-3.45-3.13-10.51,3.75-9.5.06,4.72,9.92,10.05,10.75,12.5Z"/>
          <path class="cls-7" d="m104.22,376.94c-8.47-4.44,4.08,8.25,8.25,7.5-1.72,3.17,7.01,4.61,8.75,5,8.57,1.91,9.12,1.29,17.75,1,.18-.64,1.16-1.46,1.25-1.5,1.57-.66,3.22-1.59,5-1.5-.31.7-1,1.17-1,1.25,0,.8,1.56-.67,1.5.25-.13.06-.85.9-2.5,1.5-2.67.96-3.59.89-4,1-5.7,1.49-9.66,1.55-11.5,2.5-1.01.52-1.79,1.07-1,2-2.43.04-5.14.67-7.5-.5.12-.14,2.9.36.75-1.5-.19-.17-2.4-.65-4.75-2-5.8-3.34-11.48-7.48-16.5-12-3.53-3.18-6.23-7.58-10.5-10-8.68-12.69-.26-.08,2.75-6.5q6.62,6.75,13.25,13.5Z"/>
          <path class="cls-6" d="m147.21,379.94c-.28.44-.65,1.14-1,1.5-4.92,5.04-13.88,6.45-20.49,5.5-.02-.41.15-.67-.25-1-1.21-.99-13.62-1.74-25.74-16.75-9.11-11.28,4.37,2.82,7.75,5.75,2.8,2.42,11.51,10.53,12.5,6.5,10.35,5.14,26.32-4.25,27.74-2.75.05.05-.74.41-.5,1.25Z"/>
          <path class="cls-21" d="m104.22,376.94c4.83,2.53,11.74,8.6,21.49,10,.05.84-1.7,1.37-2,2-.69-.08-1.18-1.43-2.5.5-1.74-.39-10.47-1.83-8.75-5-4.17.75-16.72-11.94-8.25-7.5Z"/>
          <path class="cls-18" d="m132.22,347.95l-1,3c-.42-.09-2.09-.1-2.5,0-2.54.59-3.44,5.28-7.25,8-1.35-5.4,5.01-5.33,3-7.5-17,8.38-.91-1.34,2.25-6.5.75,1.04,4.2,2.22,5.5,3Z"/>
          <path class="cls-40" d="m131.22,350.95c1.62.36,9.98,7.79,13.5,8.5.11.21,1.93,1.64,2.5,4-7.85-.78-12.39-8.39-18.49-12.5.41-.1,2.08-.09,2.5,0Z"/>
          <path class="cls-53" d="m150.71,330.96c-3.93,8.29-10.08,5.05-11.5,11-.74-.08-4.31-2.8-.75-5.5.53-.41,10.27-4.57,12.25-5.5Z"/>
          <path class="cls-35" d="m119.22,395.44c-1.07,1.21,13.5,3.85,16,3.5l1,1.5c-4.12.66-7.94.31-12-.5-5.3-1.06-10.35-3.82-15-6.5l7.25.5-1.25-2c2.35,1.35,4.55,1.83,4.75,2,2.15,1.86-.63,1.36-.75,1.5Z"/>
          <path class="cls-49" d="m145.21,387.44c-1.78-.09-3.42.84-5,1.5-5.63.61-10.52.69-16.5,0,.3-.63,2.05-1.15,2-2,6.62.95,15.57-.46,20.49-5.5,1.02,5.53-.87,5.7-1,6Z"/>
          <path class="cls-6" d="m144.71,359.45c-3.51-.71-11.88-8.14-13.5-8.5l1-3c4.95,2.95,7.26,1.47,12.5,11.5Z"/>
          <path class="cls-33" d="m126.72,395.94c7.85-.11,16.03-.93,12.75,1.5-.57.43-3.37,1.38-4.25,1.5-2.5.35-17.06-2.28-16-3.5,2.36,1.17,5.06.53,7.5.5Z"/>
          <path class="cls-25" d="m127.72,393.94c1.84-.95,5.8-1,11.5-2.5l4.25,2q-7.87.25-15.75.5Z"/>
          <path class="cls-16" d="m143.21,390.44c1.65-.6,2.36-1.44,2.5-1.5,5.57-2.35.38,4.22-2.5,1.5Z"/>
          <path class="cls-48" d="m123.72,388.94c5.98.69,10.86.61,16.5,0-.09.04-1.07.86-1.25,1.5-8.62.29-9.18.91-17.75-1,1.32-1.93,1.81-.58,2.5-.5Z"/>
        </g>
        <g>
          <path class="cls-37" d="m376.65,384.44c-4.3,1.98-1.63,1.99-1.5,5.5.37,10.05-.62,5.27-1.5,6.25-.35.39-.96,6.83-2.5,10.25-.03.06-.89.19-1,1-2.93-1.98-3.26-2.32-3-6,.24-3.38,2.93-9.24,3-9.75,1.55-10.65-4.06-13.33-4-14.5.01-.24,2.03-1,2-1.5-.06-1-4.42-6.59-3-7.75,3.87,5.39,7.55,11.2,11.5,16.5Z"/>
          <path class="cls-37" d="m364.65,405.94c-2.76.36-2.25-.31-3-1.5,1.32-3.83-2.34-9.71-2.5-10.25-.05-.16.5-1.72,0-3.25,5.66-1.21,5.88,10.67,5.5,15Z"/>
          <path class="cls-19" d="m370.15,407.44c.11-.81.97-.94,1-1,2.06,2.12,9.15-6.05,1.75,2.5-.79-1.28-2.06-1.03-2.75-1.5Z"/>
          <path class="cls-37" d="m361.65,350.95c3.56,2.57,9.29,15.71,11.5,20.74,3.68,8.39,8.56,19.53,3.5,12.75-3.95-5.29-7.63-11.11-11.5-16.5-3.6-5.01-3.34-3.53-3.5-3.75-1.54-2.12-2.04-6.34-4-5.75.05-.43.51-1.43.25-2l-1.75.75,1-1.75c.12-.07.36.06.5,0,2.86-1.26-.38-2.84-.5-3-.59-.76-1.71-.72-1.5-2,.67-.11,2.1.28,2.5-.25.06-.08-.51-.13-1-1.75,1.29,1.2,3.28,1.62,4.5,2.5Z"/>
          <path class="cls-51" d="m356.15,346.95h1c-2.25,1.72-.04,1.38,0,1.5.49,1.62,1.06,1.67,1,1.75-.39.53-1.83.14-2.5.25-2.37.38.45-3.29.5-3.5Z"/>
          <g>
            <path class="cls-19" d="m365.15,367.95c-1.42,1.16,2.94,6.75,3,7.75.03.5-1.99,1.26-2,1.5-.06,1.17,5.55,3.84,4,14.5-.07.5-2.76,6.37-3,9.75-1.81.44-.83,4.28-2.5,4.5.38-4.33.16-16.21-5.5-15-.84-2.56-2.28-6.09-3.5-8.5.08-1.74-.68-3.33-1-5-.17-.88-.38-1.57-.5-2.5-.14-1.05.3-2-.5-3l.5-.5c.83-2.21,1.2-5.63,1.5-6.5.02-.05.13.36.5-1,.56-2.06,1.19-2.89,1.5-5.5,1.96-.6,2.46,3.63,4,5.75.16.22-.1-1.26,3.5,3.75Z"/>
            <path class="cls-19" d="m362.15,378.94c1.04,7.51-.19,8.01-3,1,.91-2.37.99-3.42,3-1Z"/>
            <path class="cls-51" d="m362.15,378.94c-2.01-2.42-2.09-1.37-3,1-3.99-9.97-1.86-5.88,3.5-1.75l-.5.75Z"/>
          </g>
          <path class="cls-2" d="m357.65,355.45l-.5-3c.12.16,3.36,1.74.5,3Z"/>
        </g>
        <path class="cls-19" d="m349.16,354.95c-1.63-.28-3.07,1.82-4,3-3.48.4-3.77,3.89-5.5-.5.28-.42.89-1.57,1-2,.66-.93,2.52-2.36,3-3,6.63-2.53,6.8-13.63,7-5.25,0,.38,1.15-.07,1,1-.43,3.05-4.11,5.64-4,6,.37,1.19,1.86-1.65,1.5.75Z"/>
        <path class="cls-48" d="m243.69,370.95c-.06.02.37,1.12-.75,1-.67-.07-11.54-5.01-11.25-7,3.84,2.24,8.35,3.35,12,6Z"/>
        <path class="cls-37" d="m345.16,357.95c-.71.89-.42,2.16-.5,2.25-.55.63-6.31,3.75-4.25,4.25-3.57,1.84-6.71,4.84-10,7-.21.14-1.32-.56-4.25,1.5l-4-4c6.35-2.1,12.31-5.73,16.5-11,.04-.05.97-.45,1-.5,1.72,4.39,2.02.9,5.5.5Z"/>
        <path class="cls-11" d="m338.66,378.94c-3.41.11-6.84-.08-10.25,0-.21-1.05,2.88-2.23,3.25-2.5,6.31-.15,9.67-3.08,7,2.5Z"/>
        <g>
          <path class="cls-43" d="m349.16,354.95c-.19,1.3-2.43,2.07,2,3.5-9.82,4.75,4.82-.53,1.25,2-2.05,1.45-7.9.99-8.75,4.25q6.25-.37,12.5-.75c-.37,1.36-.48.95-.5,1-7.69,1-11.62,6.33-1.5,6.5l-.5.5c-2.08.83-4.32,1.09-6.5,1.5-.47.09-1.02-.07-1.5,0-.16.02-.92.28-2.5.5-5.58.79-8.27-.26-9.25,0-1,.74-2.11,2.4-2.25,2.5-.37.27-3.46,1.44-3.25,2.5,3.41-.08,6.84.11,10.25,0,5.33-.18,10.66-1.3,16-1.5.32,1.66,1.08,3.26,1,5-1.19-2.34-2.16-5.8-4-3.25-1.63,2.26,4.12,3.22-10.5,3.25-3.9,0-13.04-1.49-16-.5-.85.28-1.65.92-2.5,1.25-.2,1.08,1.01.69,1,.75-.21,1.49-1.08,1-1,1.25.61.53,1.06,1.06,1.5,1.75-4.18-2.49-12.26-.28-17.99,0-1.91-.53-3.57-.63-2.5-2,2.51.11,11.72-.52,12.5-2.5,1.92-4.89-5.01-.44-6-3,2.7-.45,5.38-1.19,8-2,1.1,1.11,3.03.75,2.5-1,.25-.09.77,1.07,2.75,0,1.14-1.21,1.28-2.47,2.75-3.5,2.93-2.06,4.04-1.36,4.25-1.5,3.29-2.15,6.43-5.16,10-7-2.06-.5,3.7-3.62,4.25-4.25.08-.09-.21-1.36.5-2.25.93-1.18,2.37-3.28,4-3Z"/>
          <path class="cls-16" d="m316.16,382.44c-.78,1.98-9.99,2.61-12.5,2.5-10.82-.49,1.62-.6,5.75-1,1.63-.16,4.73-1.53,6.75-1.5Z"/>
          <path class="cls-33" d="m340.91,371.95c.6-.36,4.21-.17,3.25,1.25-.68,1-5.24-.06-3.25-1.25Z"/>
          <path class="cls-40" d="m320.66,376.44c.53,1.75-1.4,2.11-2.5,1,.33-.1,1.25-.56,2.5-1Z"/>
          <path class="cls-11" d="m343.16,373.95c1.58-.22,2.34-.48,2.5-.5.22,2.24-1.82,2.37-2.5.5Z"/>
        </g>
        <g>
          <path class="cls-43" d="m209.69,322.96c-5.71-4.68-4.73-4.94-12.5-7.5-2.71-.89-5.66-1.57-8.5-2-1.11-.17-3.6-1.54-3.5.5-.41-.33-1.13-.65-1.5-1-.88-.83-1.69-2.07-2.5-3-1.79-2.04-12.06-15.46-12-17q23.37,3.5,46.74,7c1.25.55.45,26.48-2.5,26.49-.35,0-3.09-2.96-3.75-3.5Z"/>
          <path class="cls-6" d="m295.17,310.46c22.35,6.69,40.71,14.7,59.98,27.99,1.58,1.24,2.02,1.87,4,3,1.42,1.22,1.44.93,1.5,1,.37.41.62.63,1,1,3.62,3.46,1.38,1.59-5.5,1-2.64-2.24-5.78-6.34-7.5-4-3.79-9.69-36.8-21.94-46.74-24.99-8.31-2.55-17.37-3.33-17.99-4-.25-.27.81-2.31,0-3-.58,3.34-13.15-1.31-19.99-2.5-5.21-.9-32.51-5.4-34.24-5.5-1.19-.07-2.31.07-3.5-.25-1.16,9.73-2.07,19.55-3.5,29.24-.68.07-.64-2.52-.5-4.5.68-9.66,2.21-19.33,3-28.99,23.57,3.38,47.14,7.66,69.98,14.5Z"/>
          <path class="cls-33" d="m217.19,297.97c1.18,4.07-.5,21.13-.5,26.99,0,2.95.46,3.9.5,4.5-1.67.57-1.02,3.1-.5,4.5.39,1.05,3.19,3.01,3,6.25,2.27.41,2.34-6.27,3-10.75,1.43-9.69,2.34-19.51,3.5-29.24,1.19.32,2.31.18,3.5.25.22,8.36-2.9,16.12-4.5,23.99-.3,1.45-.96,2.98-1,4.5l-2.5,15.5c-5.99-7.11-7.23-13.65-12-21.49.66.54,3.4,3.5,3.75,3.5,2.95-.01,3.75-25.94,2.5-26.49q-23.37-3.5-46.74-7c.74.07,2.35-1.49,2.5-1.5,2.65-.14,36.91,6.9,45.49,6.5Z"/>
          <path class="cls-19" d="m217.19,297.97c-8.58.4-42.83-6.64-45.49-6.5.11-.66-.28-2.13.25-2.5,1.88-1.33,40.19,6.84,45.24,7.25.09.54-.14,1.28,0,1.75Z"/>
          <g>
            <path class="cls-46" d="m348.66,340.45c1.18,3.02-2.99,9.28-5,12-.47.64-2.34,2.07-3,3,.13-.49.56-2.07-.25-2.5-17.15-2.59-35.18-9.59-51.99-12.5-5.23-.91-11.41-1.59-7.5,1,5.13,3.39,31.54,10.42,38.99,12,6.88,1.45,20.56,2.12,18.74,4.5-4.18,5.27-10.14,8.9-16.5,11-.42.14-.58.38-1,.5-11.31,3.24-30.06,2.92-41.99,2-21.24-1.63-43.38-10.26-57.48-26.99l2.5-15.5q16.87.5,33.74,1v-1c-2.63-.5-5.14-1.39-7.75-2-3.51-.82-7.12-2-6.5-.5-1.13-.27-1.83-.87-2.75-1.5l-15.75-.5c1.6-7.87,4.72-15.64,4.5-23.99,1.73.1,29.03,4.6,34.24,5.5,6.85,1.19,19.41,5.84,19.99,2.5.81.69-.25,2.73,0,3,.63.67,9.68,1.45,17.99,4,9.94,3.05,42.95,15.31,46.74,24.99Z"/>
            <g>
              <path class="cls-40" d="m243.69,326.46c1.84.44,4.57,1.14,6.5.5,2.61.61,5.11,1.5,7.75,2v1q-16.87-.5-33.74-1c.04-1.52.7-3.05,1-4.5l15.75.5c.92.63,1.62,1.23,2.75,1.5Z"/>
              <path class="cls-40" d="m340.66,355.45c-.11.43-.72,1.58-1,2-.03.05-.96.45-1,.5,1.82-2.38-11.86-3.04-18.74-4.5-7.44-1.57-33.86-8.61-38.99-12-3.91-2.59,2.27-1.9,7.5-1,16.81,2.91,34.84,9.91,51.99,12.5.81.43.38,2.01.25,2.5Z"/>
              <path class="cls-40" d="m261.43,330.96c5.73,1.44,10.74.27,11.75,6.75l-19.74-3.75c-1.24-3.36,5.65.88,8-3Z"/>
              <path class="cls-2" d="m287.42,324.96l7.25,2.75-7.25-1.75v-1Z"/>
              <path class="cls-51" d="m250.18,326.96c-1.93.65-4.66-.06-6.5-.5-.62-1.5,2.99-.32,6.5.5Z"/>
            </g>
          </g>
        </g>
      </g>
      <g>
        <path class="cls-10" d="m245.68,58.53c-.35,1.88,2.41.58,4.25,1,1.61.37,4.26,2.16,5.75,3-.15.88-4.26.45-7,.5-.33,0-.67-.01-1,0-1.81.06-3.23.29-5,.5-4.97.59-4.63.8-9,2-2.04.56-4.46.65-6.5,1.5-7-2.06,1.67-3.9,4.5-5.5,1.41,2.8,3.97.75,8.25-.5,1.39-.41,1.98,2.06,1.75-2.5,1.38-.11,2.63-.05,4,0Z"/>
        <path class="cls-48" d="m215.69,75.53c-2.98,4.29-8.94,17.85-11.5,23.49l-1-3.5c1.23-2.79,2.21-5.71,3.5-8.5,2.41-5.21,7.45-8.88,6-15.25l1-.75c1,2.45-2.06,6.69,2,4.5Z"/>
        <path class="cls-45" d="m241.69,58.53c.23,4.56-.36,2.09-1.75,2.5-4.28,1.25-6.84,3.3-8.25.5-.02-.04.78-.19,0-1,1.4-.21,1.75-.45,2-.5,2.63-.49,5.33-1.28,8-1.5Z"/>
        <path class="cls-22" d="m225.19,68.03c-1.65.79-4.61,2.38-6,3.5l-2.5-2c3.15-2.14,7.13-5.65,8.5-1.5Z"/>
        <path class="cls-24" d="m216.69,69.53l2.5,2c-3.09,2.5-2.38,2.84-2.5,3-.13.17-.91.87-1,1-4.06,2.19-1-2.05-2-4.5,1.64-1.42,2.86-1.41,3-1.5Z"/>
        <path class="cls-25" d="m255.68,62.53c2.97,1.69,9.21,7.4,11.5,10l.5,6c-3.58-5.99-13-11.98-19.99-13,.29-.88.45-1.71,1-2.5,2.74-.05,6.85.38,7-.5Z"/>
        <path class="cls-48" d="m273.18,81.03c-1.4-3.23-3.69-5.87-6-8.5-2.29-2.6-8.52-8.31-11.5-10-1.48-.84-4.14-2.63-5.75-3-1.84-.42-4.6.88-4.25-1,13.53.45,24.02,9.63,27.49,22.49Z"/>
        <path class="cls-22" d="m275.18,101.52h.5c0,.45.77,2.09.5,5.5-3.32,1.58-2.98,11.68-5,18.24-1.47,4.79-4.73,8.88-6,13.75-4.5,5.46-4.26,3.79-4.5,4-1.17.18-.95-.48-1-.5,9.82-11.86,14.26-30.9,13-45.99l2.5,5Z"/>
        <path class="cls-53" d="m276.18,107.02c-.81,10.14-4.44,24.04-11,31.99,1.27-4.87,4.53-8.96,6-13.75,2.02-6.56,1.68-16.66,5-18.24Z"/>
        <path class="cls-44" d="m275.68,91.02c-2.54.68-1.38,6.57-.5,10.5l-2.5-5c-.31-3.73-1.38-7.43-2.5-11,1.02-.08,1.86-1.4,2-1.5.09-.06.79.09,2-1,.62,1.88,1.23,5.87,1.5,8Z"/>
        <path class="cls-22" d="m273.18,81.03c.24.57.79,1.35,1,2-1.21,1.09-1.91.94-2,1,.23-1.54-1.44-1.16-2.5-.5-.44-1.19-1.62-4.37-2-5l-.5-6c2.31,2.63,4.6,5.27,6,8.5Z"/>
        <path class="cls-48" d="m275.68,91.02c.47,3.75.04,6.82,0,10.5h-.5c-.88-3.93-2.04-9.81.5-10.5Z"/>
        <path class="cls-44" d="m272.18,84.03c-.14.1-.98,1.42-2,1.5-.17-.56-.3-1.47-.5-2,1.06-.66,2.73-1.04,2.5.5Z"/>
      </g>
      <g>
        <path class="cls-6" d="m231.69,60.53c.78.81-.02.96,0,1-2.83,1.59-11.5,3.44-4.5,5.5-.33.14-1.35.69-2,1-1.36-4.15-5.34-.64-8.5,1.5-.14.09-1.36.08-3,1.5l-1,.75c1.45,6.37-3.59,10.04-6,15.25-.21-.05-.97-.45-1-.5.55-8.6-2.38-3.63-5-2.5-.62.27-.87.78-1.5,1-3.93,1.39-11.73,1.53-12,3-4.46-.41-5.14.47-6.25-7l-1.25.25c2.27,15.86-2.13,1.5-5.25.25-.37-.15-7.62-.13-8,0-1.4.46-10.54,17.25-12,19.99-13.14,2.74-26.97,10.75-31.49,23.49,4.78-6.48,10.69-12.21,17.5-16.5,2.77-.81,19.7-.25,21.99.5,9.47,3.12-11.79.49-12.5,1-.72.52.12.93.25,1.5-.16-.03-.34.03-.5,0-3.51-.59-5.21-.82-6,1.5-.3.89-.3,1.29-.5,2-7.1-3.14-5.21-.08-5.5,1-.03.11-.26-1.08-.5,1.5l-10,8.75c.45.23.69,1.04.5,1.25-.17.18-1.33-1.7-1,1.75-.89.88-2.15,1.29-3,2.25-1.87,2.11-5.6,5.71-7,8-4.57-.16-13.17,16.23-14,19.74-1.42,6.03-.22,52.26-1.5,64.98,2.01,10.22,7.07,23.14,18.99,24.24.06,0,.43,1.33,1,.75l-.5-4.25c.39.5.53.6,1,1,.08.07.49-.19,1,.25.1.09-1.8,1.63,1,.75,1.91,6.21,3.84,9.72,9,13.5-24.21,16.82-14.02,33.54-15.5,36.24-2.33,4.27-19.41-7.06-17.5,6,2.17,14.73,25.2,15.08,35.24,20.24l28.49-18.99c14.07.67.81.86,3.5,7,6.22-1.9,4.55,1.41,6,2,1.02.41,4-.51,4.75-.5.61,0,2.8.87,6,.5.37.35,1.09.67,1.5,1,1.86,1.51,2.99,5.12,3.5-.5,2.83.43,5.79,1.11,8.5,2l2.5,3.25-6.5.75c-3.76-.1-10.31.36-14,1-7.88,1.37-20.95,6.94-28.49,10.5-1.97.93-11.71,5.09-12.25,5.5-3.56,2.7.01,5.42.75,5.5.68.07,5.49-3.26,12.75-5,5.27-1.26,14.9-2.02,16.5-2.5,2.12-.64,8.4-5.54,13.75-6.5,2.07,2.4-7.75,2.56-11.5,6.5-2.18.74-4.27,1.76-6.5,2.5-3.28,1.08-17.38,4.42-18.74,5.5-.24.19-.95,4.52-3.75,3.75-.17.35.75,1.43,1,1.75h-1.5c-.83-2.45-10.68-7.77-10.75-12.5-6.88-1.01-6.24,6.05-3.75,9.5-3.16,5.16-19.25,14.88-2.25,6.5,2.01,2.17-4.35,2.1-3,7.5,3.81-2.72,4.71-7.41,7.25-8,6.11,4.11,10.64,11.72,18.49,12.5,1.03,4.24.68,9.24-1,13.25,3.64-1.1,2.35,1.15,1,3.25-.24-.84.55-1.2.5-1.25-1.42-1.51-17.39,7.89-27.74,2.75-.99,4.03-9.7-4.07-12.5-6.5-3.38-2.93-16.86-17.02-7.75-5.75,12.12,15.01,24.53,15.75,25.74,16.75.4.33.23.59.25,1-9.76-1.4-16.66-7.46-21.49-10q-6.62-6.75-13.25-13.5c-3.01,6.41-11.43-6.19-2.75,6.5,1.11,1.63,2.21,2.8,3.5,4.25-1.91,1.13-2.42-2.44-4.75-1.75-.89.26-1.65,2.21.75,4v6.75c-6.46-3.41-3.59-1.79-2,0,5.24,5.91,10.11,12.44,16,17.75-1.6,1.06-3.37-.97-5-1.5-.67-4.69-5.34-4.33-9-7.75-2.1-1.96-5.85-8.18-10-11.5,3.83-3.48,7.33,1.39,9-1.5-.29-.33-1.94-.44-2.25-.75-7.51-7.53-18.16-20.8-25.24-29.49-3.54-4.34-5.71-8.89-6.25-9-.65-.13-.73,3.13-5.25-2.75-.05-1.83,3.08.67,4-.5.47-.61-8.25-12.12-6-13l-2-1c-.14-5.26-5.61-12.15-4.5-17.99.12-.65,3.93-1.02,0-10.5,2.1-2.65,7.07-.08,8-8,.93-7.96-4.54-57.89-3-79.48.89-12.53,6.86-35.21,12.5-46.49.24-.48,1.58-.88,3-3.5.16-.29-.77-3.02,3.5-5-1.97-2.89-.32-10.62,4-11.5.41-2.8,1.52-3.65,3.5-5.5,1.7-20.16,12.3-23.29,21.74-31.74,16.79-15.03,32.97-31.03,53.98-39.99,6.28-4.51,7.36-9.47,8-10,7.91-4.28,18.01-4.19,20.99-10.5,2.43-.57,2.99-2.26,5.5-3,9.15-2.69,35.12-2.11,46.24-4.5-.31,3.77-2.99,26.44-2.5,27.74,2.26,6.03,2.03-11.37,2.5-17,.7-8.31,2.14-16.05,1.75-24.24,4.43-2.71-2.05,37.88-1.25,39.74,1.11,1.68,2.73-.06,4-.25Z"/>
        <path class="cls-6" d="m352.65,402.44c-11.02,15.8-26.64,12.63-28.24,13-.8.18-.68,1.45-.75,1.5-1.16.85-2.98,3.49-2.5-4.25.04-.71.63-4.48,1.25-4.75,5.06.08,10.12-.29,15-1.5l-.75-.5,2-1.5c12.16-.35,20.8-11.76,14-2Z"/>
        <path class="cls-6" d="m61.24,374.94c-4.94-2.77-15.75-10.92-16.75-11-.4-.03-.2.98-.25,1-.81.24-3.93,1.76-4,2.25-.07.5,6.48,8.53,6.5,3.25.54,2.49-1.02,3.08-1,3.25.07.49,5.89,6.25,6.5,7.5l-.25.75c-.45-.65-1.17-1.01-1.75-1.5-2.05-1.74-16.18-18.73-18.49-21.99-2.68-3.78-5.18-7.98-7.5-12,.53-.76,1.94.66,2,.75,1,1.66,11.57,21.16,14,16-2.11-6.67,5.21-2.71,6.75.25l7-1.5c8.24,4.32,6.39,5.91,6.75,6.25,3.96,3.7,13.92,10.41.5,6.75Z"/>
        <path class="cls-37" d="m309.67,404.94c-4.94.67-3.7.59-.5,3.5-1.31,1.59,1.72,1.24,1.75,3l-11.5-1c-.93-.42-6.35-17.43-9.25-17.5-.09-.98.06-2.01,0-3,.81.93,18.43,14.39,19.49,15Z"/>
        <path class="cls-6" d="m319.16,398.44c5.12,1.86,10.4,2.58,15.5,4.5,1.33.5,2.6,1.16,4,1.5l-2,1.5c-5.98.59-12.09.81-17.99-.5,2.43-3.62-7.39-3.52-7.5-7.5,1.98.05,3.35.32,3-1,1.58.57,3.45.94,5,1.5Z"/>
        <path class="cls-6" d="m109.22,393.44c4.65,2.68,9.69,5.44,15,6.5-.59,1.76,1.76,3.54,3.25,4.5,4.22,2.72,12.5,3.08,13.75,5-13-1.03-30.35-7.36-36.99-18.99,1.69,1.2,3.23,1.98,5,3Z"/>
        <path class="cls-6" d="m227.69,28.04c-.11,1.06-.4,1.94-.5,3-7.58-.29-15.14-1.19-22.74-1-4.48.11-14.28,2.78-15.25,0,12.89-1.26,25.53-1.61,38.49-2Z"/>
        <path class="cls-16" d="m338.16,51.54c-.65-.09-1.39-.3-2-.5-13.14-9.96-31.64-17.31-47.49-21.49,5.84-.43,29.83,8.78,35.24,11.5,1.87.94,15.08,9.3,15.25,10.25.07.39-1,.2-1,.25Z"/>
        <g>
          <path class="cls-37" d="m96.73,399.44c-1.3-.42-17.56-3.96-14.75-2,.4.28,7.56,1.69,9.5,2.5,6.29,2.61,11.93,7.01,18.99,8l-.25-1.5c1.74-.09,1.43,1.42,1.5,1.5.07.09-.04.37,1,2-8,0-14.94-4.84-21.99-8-6.62-2.96-11.68-3.69-12.25-4-.25-.14-3.66-3.98-3.75-4.25-1.33-3.83,4.23-.56,3.5-2-1.19.1-5.91-4.61-6-5-1.55-6.58,6.9,4.16,8.75,1.75,3.94,5.2,4.21,1.82-4.75-4.75-.78-1.26-.21-1.65,0-2.75.04-.23,2.11-3.49,2.5-4,.27-.36,2.2.72.5-2.25-.8-1.4-13.87-14.12-21.99-23.74l2-2.5c7.08,8.69,17.73,21.96,25.24,29.49.31.31,1.96.42,2.25.75-1.67,2.89-5.16-1.98-9,1.5,4.15,3.32,7.9,9.53,10,11.5,3.66,3.42,8.33,3.06,9,7.75Z"/>
          <path class="cls-6" d="m71.73,380.94c1.49.1,3.01-.07,4.5,0-.21,1.09-.78,1.49,0,2.75,8.96,6.57,8.68,9.95,4.75,4.75-1.84,2.41-10.3-8.33-8.75-1.75.09.39,4.8,5.09,6,5,.73,1.44-4.83-1.83-3.5,2,.09.27,3.5,4.11,3.75,4.25.57.31,5.63,1.04,12.25,4-15.42,1.7-18.61-12.73-21.24-12.5-1.06.09.6,6.58-8.75-4.75-7.26-8.8-5.7-7.21,1.75-5.75,2.96,4.18,5.11,5.95,3,.5,1.49,1.15,4.37,1.37,6.25,1.5Z"/>
          <path class="cls-6" d="m96.73,399.44c1.63.53,3.4,2.56,5,1.5,2.34,2.1,5.99,3.55,8.5,5.5l.25,1.5c-7.07-.99-12.71-5.38-18.99-8-1.94-.81-9.09-2.22-9.5-2.5-2.82-1.96,13.45,1.58,14.75,2Z"/>
          <path class="cls-6" d="m112.72,409.93c-1.04-1.63-.93-1.91-1-2,4.19-.1,12.64,3.32,17.99,4.75q-7.37.87-14.75,1.75c-.79-1.53-1.31-3.03-2.25-4.5Z"/>
        </g>
        <path class="cls-6" d="m98.73,379.94c-4.86.64-2.09.54-2,4-2.22-1.97-4.65-5.85-6.75-7.5-.25-.2-1.99.19-2.25,0-2.4-1.79-1.64-3.73-.75-4,2.33-.69,2.84,2.88,4.75,1.75-1.29-1.44-2.39-2.62-3.5-4.25,4.27,2.42,6.97,6.82,10.5,10Z"/>
        <path class="cls-6" d="m309.67,404.94c7.81,4.45,9.91,1.98,10.5,2.75-3.86,4.34-3.89,7.22-11,.75-3.2-2.91-4.44-2.83.5-3.5Z"/>
        <path class="cls-16" d="m50.24,380.44c-5.84-2.03-16.43-15.65-18.49-21.99,2.31,3.26,16.45,20.25,18.49,21.99Z"/>
        <path class="cls-6" d="m311.17,397.94c.11,3.98,9.93,3.88,7.5,7.5-5.16-1.15-10.74-4.68-15-7.75,2.53-.77,4.99.18,7.5.25Z"/>
        <path class="cls-6" d="m44.24,364.95c-.14,2.28,2.06,3.46,2.5,5.5-.01,5.28-6.57-2.75-6.5-3.25.07-.49,3.19-2.01,4-2.25Z"/>
        <path class="cls-6" d="m353.15,406.94c.46-.85.34-2.59.5-3,.6-1.5,2.67-1.94,3.25-5,3.07,9.97-2.07,7.06-3.75,8Z"/>
        <path class="cls-16" d="m436.13,168.5c-1.33-2.74-3.47-5.3-3.75-8.5,2.02,2.53,2.79,5.5,3.75,8.5Z"/>
        <path class="cls-16" d="m436.13,168.5c.34.69,1.8,2.27,1.25,3.5-1.47-1.03-1.01-2.75-1.25-3.5Z"/>
        <path class="cls-6" d="m300.17,52.54c2.41,2.4,4.82,4.22,8,5.5-16.93-.23,7.18,5.58,9.25,6.5,5.8,2.57,15.66,9.24,20.99,13,3.17,2.23,8.67,3.07,7.75,7.25.45.8,7.7,2.47,10.75,10.75-4.59-1.9-3.77,6.12,5.25,6.25-5.75,2.47,8.24,16.23,12.25,22.74,5.67-.86,8.31,7.32,6.75,11.75,3.38,1.18,2.34,4.98,4,8.5,1.77,3.76,5.75,8.52,6,9,.52,1.03,1.09,4.18,1.5,5,5,9.97,12.62,19.69,14.5,30.99,2.81,16.9-4.47,12.22-3,19.99-4.16,3.93-1.62,22.48-.5,29.99-2.06,7.84.04,16.39-.5,24.49-.4,5.97-6.68,23.84,2,16.5.98-3.29,2.51-14.11,7-13.5-2.2,1.86,4.01,7.4-1,14.5-4.23,5.99-12.94,3.31-15.5,5.5-1.96,6.25-11.48,26.31-12,28.49-1.58,6.76,4.12,0,4.75-.25,9.31-3.78,6.76,2.7,6.75,3.25-.14,6.82-1.05,5.68-1,6,.2,1.24,2.84,1.24,3,1.5,2.64,4.24-11.63,3.5-2,11.5-12.47,8.58-6.9,12.63-7,13.5-.2,1.83-1.86,10.3-4.25,9.75-1.61-.37-6.95-12.77-21.99-24.49-2.17-1.69-12.59-8.61-14.5-9.5-3.75-1.74-10.01-1.16-8.75-4,8.42-2.01,17.21-3.86,25.74-2.5,11.36-4.89.9-1.31-4.75-7.25,7.87-9.48,9.23-21.79,13-32.99,2.43-7.22,6.03-8.6,7.5-19.99,1.57-12.15-.68-21.56-.5-32.99-3.81-6.06-.35-15.79-4.5-18.99v-21.49c-2.73-3.11-3.35-12.49-5.5-16.5-7.53-8.33-12.61-22.83-18.49-32.99-11.41-19.71-16.09-25.58-35.49-37.99-.02-8.41-13.53-14.92-13.5-16,16.09-11.27-24.19-12.4-24.99-16,3.36-5.66,7.96-10.27,13-14.25,3.39-.56,6.56-1.38,10-.5Z"/>
        <path class="cls-6" d="m291.17,50.04c1.08.72,1.55.35,1.5,1.25-.02.28-1.73,1.14-2.5,1.75-5.04,3.98-9.63,8.59-13,14.25.8,3.59,41.08,4.72,24.99,16-.03,1.08,13.48,7.59,13.5,16,19.4,12.41,24.08,18.28,35.49,37.99,5.88,10.16,10.96,24.66,18.49,32.99,2.15,4,2.76,13.39,5.5,16.5v21.49c4.15,3.2.69,12.94,4.5,18.99-.18,11.43,2.07,20.84.5,32.99-1.47,11.39-5.07,12.77-7.5,19.99-3.77,11.2-5.12,23.51-13,32.99,5.65,5.94,16.11,2.36,4.75,7.25-8.54-1.36-17.32.48-25.74,2.5-4.12.99.12.35-2,2-1.22-.69-3.46-1.71-5-2.5,4.55-2.18,11.36-6.39,14.75-10,3.87-4.12,5.36-9.39,8.75-13.25,1.34-8.52,5-28.35,1.5-35.49-.91-1.85-5.87-6.5-7.5-9-5.91-9.06-6.75-9.96-5-20.49-2.94-5.61-.82-9.97-1-10.5-.34-1.01-2.58-.07-2.75-.25-.93-1,1.05-3.33-2.25-2,1.31-3.51,2.38-21.28,2-25.99l11.75,5.5c2.96-2.14,7.07-9.22,5.75-12.75-.33-.88-11.46-9.83-13.5-13,1.62-2.55-1.91-19.37-3-21.99-2.21-5.31-7.03-8.96-11-13l4.5-13c-8.02-4.25-14.63-13.59-21.74-18.74-7.81-5.66-17.28-8.31-24.99-14-3.16-2.78-16.1-25.07-16.25-26.74-.03-.35,1.3-4.41,2.5-6.5.55-.96,4.19-5.28,5.25-6.25,1.22-1.12,4.92-2.08,3.75-3.5,2.07-.03,5.4-1.82,8-1.5Z"/>
        <path class="cls-45" d="m270.68,48.04c2.3-.08,4.7-.09,7,0-1.3,1.78,1.62.4,1.25,1.5-3.58.2-6.72-.68-6.25,1-3.3.11-6.51.26-9.75,1-5.94,1.36-11.07,5.95-15.25,6.5.39-.9.91-2.03,1-3,1.22-.38,2.37-1.43,2.5-1.5,2.43-1.23,5.41-2.66,8-3.5,5.02-1.62,6.26-1.81,11.5-2Z"/>
        <path class="cls-45" d="m292.67,46.04c4.26.92,8.73,2.82,12.75,4.5,5.6,2.34,11.18,7.32,11.25,3.5.35.29,1.38.82,1.5,1.25.02.09-.76.35-.5,1.75-1.51-.45-4.9-.72-6.75-1l-9.75-4c-5.17-5.02-16.19-7.67-8.5-6Z"/>
        <path class="cls-6" d="m282.17,49.04c-1.36-.15-2.91-.94-4.5-1-2.3-.09-4.7-.08-7,0,2.44-4.04,11.98-.71,17.25-2.5v1l-5.75,2.5Z"/>
        <path class="cls-44" d="m282.17,49.04c3.31.35,6.36-.75,9,1-2.6-.33-5.93,1.47-8,1.5-.53,0-2.88-1.25-10.5-1-.47-1.68,2.67-.8,6.25-1,.37-1.1-2.55.28-1.25-1.5,1.59.06,3.14.85,4.5,1Z"/>
        <g>
          <path class="cls-37" d="m252.18,24.54c.1.16-.21.83.25,1,11.05-.02,26.87,2.12,37.49,5,19.96,5.4,43.59,19.62,46.24,20.49.61.2,1.35.41,2,.5.02,1.08-.68,1.22-.5,1.75.99,2.99,7.08,2.65,7.5,2.75,9.1,9.91,20.35,17.67,30.49,26.49,4.39,3.82,6.22,6.99,12.25,9.5,16.77,17.34,27.7,34.42,37.74,56.23.36.78-.86,1.72-.5,2.5,2.31,5.08,5.69,9.89,8,15,1.85,4.1,4,11.97,5,14,1.81,3.69.54-4.21,2-1.5.63,1.16.43,5.23.5,5.5,1.87,7.51,4.68,14.81,6,22.49,7.27,42.45-1.63,104.41-20.49,143.46-7.48,15.5-17.86,29.44-29.24,42.24-4.29-18.22-23.42-50.96-6.75-9.75.21.51,1.3-.01,1.5.5-.55,3.45,3.35,5.57-2.5,8.75-1.59-6.85-12.44-29.91-17-35.24-5.7-6.67,2.69,11.26,7,16.5.98,4.23,5.41,13.48,6,16.5,2.01,10.3-2.9,8.78-2,11,1.17-.9,2.28-.52,3.5-.75-7.43,7.03-5.1-1.67-8-7.25-.72-1.39-2.46-4.59-3.5-2.25-.13-3.51-2.8-3.52,1.5-5.5,5.06,6.78.18-4.36-3.5-12.75-2.21-5.03-7.94-18.17-11.5-20.74.28-2.05-2.82-4-4.5-4h-1c.15-.7-.1-1.71,0-2.5,6.87.59,9.12,2.46,5.5-1,.23-1.42-.82-.87-1-1-.67-.48-.68-.53-1.5-1-.27-.23.78-.6.25-1-2.03-1.52-4.06-1.87-4.25-2-5.81-4.56-11.93-9.77-18.49-13.5,2.12-1.65-2.12-1.01,2-2-1.26,2.84,4.99,2.26,8.75,4,1.91.88,12.33,7.81,14.5,9.5,15.04,11.72,20.38,24.12,21.99,24.49,2.39.56,4.05-7.91,4.25-9.75.09-.86-5.47-4.92,7-13.5-9.63-7.99,4.64-7.25,2-11.5-.16-.26-2.8-.26-3-1.5-.05-.32.86.82,1-6,.01-.54,2.56-7.03-6.75-3.25-.62.25-6.33,7.01-4.75.25.51-2.19,10.03-22.24,12-28.49,2.56-2.18,11.27.49,15.5-5.5,5.01-7.09-1.2-12.64,1-14.5-4.49-.62-6.02,10.2-7,13.5-8.68,7.35-2.4-10.53-2-16.5.54-8.11-1.56-16.65.5-24.49-1.12-7.52-3.66-26.06.5-29.99-1.47-7.77,5.81-3.1,3-19.99-1.88-11.3-9.49-21.02-14.5-30.99-.41-.82-.98-3.97-1.5-5-.24-.48-4.23-5.24-6-9-1.66-3.52-.62-7.32-4-8.5,1.57-4.43-1.08-12.6-6.75-11.75-4.01-6.51-18-20.28-12.25-22.74-9.02-.13-9.84-8.15-5.25-6.25-3.04-8.28-10.3-9.95-10.75-10.75.92-4.18-4.58-5.02-7.75-7.25-5.34-3.76-15.19-10.43-20.99-13-2.07-.92-26.18-6.73-9.25-6.5,2.72.04,9.69,1.01,12.75,1.5,2.45.39,15.14,4.06,11.5,2-1.34-.76-12.13-3.73-14.75-4.5-.26-1.4.52-1.66.5-1.75-.12-.43-1.15-.96-1.5-1.25-3.22-2.64-19.36-9.15-23.99-8-7.69-1.67,3.33.98,8.5,6l-1,.5c-3.43-.88-6.6-.06-10,.5.77-.61,2.48-1.47,2.5-1.75.05-.9-.42-.53-1.5-1.25-2.64-1.75-5.69-.65-9-1l5.75-2.5v-1c-5.27,1.79-14.8-1.54-17.25,2.5-5.23.19-6.48.38-11.5,2,.61-1.21-3.1-.34-7.25-1.5-.23,4.13-2.43,1.99-.75,5-.13.07-1.28,1.12-2.5,1.5,1.12-11.95,1.27-24.02,2-35.99,2.08.35.26,3.52,1.5,5.5Z"/>
          <g>
            <g>
              <path class="cls-6" d="m288.67,29.54c15.84,4.18,34.35,11.53,47.49,21.49-2.65-.87-26.27-15.09-46.24-20.49-10.62-2.87-26.44-5.02-37.49-5-.46-.17-.15-.84-.25-1l30.24,2.5c.59,1.45,3.94,1.89,6.25,2.5Z"/>
              <path class="cls-45" d="m375.65,82.53c-10.14-8.82-21.39-16.58-30.49-26.49.41.1.59-.69,1.25-.5,2.76.8,28.56,23.53,29.74,26.24.03.07-.61.38-.5.75Z"/>
              <path class="cls-6" d="m317.66,57.03c2.62.77,13.4,3.74,14.75,4.5,3.64,2.06-9.05-1.61-11.5-2-3.05-.49-10.03-1.46-12.75-1.5-3.18-1.28-5.59-3.1-8-5.5l1-.5,9.75,4c1.85.28,5.23.55,6.75,1Z"/>
              <path class="cls-6" d="m432.38,203.49c1.27-.28,3.51,2.52,4.25,3.75,1.09,19.12-2.89,7.16-5.5-2,.53-.35.66-1.62,1.25-1.75Z"/>
              <path class="cls-6" d="m316.66,54.04c-.07,3.82-5.64-1.16-11.25-3.5-4.02-1.68-8.49-3.57-12.75-4.5,4.63-1.15,20.77,5.36,23.99,8Z"/>
              <path class="cls-6" d="m414.39,134.51l2.75,3.75c-1.2,5.88-2.58.79-3.25.75-3.64-.22.08,8.85,2.5,3.5,1.69,4.08,4.9,2.18-2.5,4-6.08-5.89-.91-7.75-.75-8.25.52-1.68-3.47-.36,1.25-3.75Z"/>
              <path class="cls-6" d="m432.88,287.47c3.69-.56,2.53,4.21,1,5.5-3.53,2.96-4.73-4.93-1-5.5Z"/>
              <path class="cls-6" d="m259.18,50.04c-2.58.84-5.57,2.27-8,3.5-1.68-3.01.52-.87.75-5,4.15,1.16,7.86.29,7.25,1.5Z"/>
              <path class="cls-6" d="m439.38,248.48c2.08-.48,5.77,4.45-1.5,4-.87-.95.5-3.77,1.5-4Z"/>
              <path class="cls-6" d="m417.89,314.46c3.69-.03-1.23,3.63-1.5,3.5-.27-.13-2.28-3.74,1.5-3.5Z"/>
            </g>
            <g>
              <g>
                <path class="cls-37" d="m389.14,391.44c.57,2.46.81,4.73.5,7.25-.21.24-2.41.64-3,.75-1.22.23-2.33-.15-3.5.75-.9-2.21,4.01-.69,2-11-.59-3.01-5.01-12.27-6-16.5-4.31-5.23-12.7-23.16-7-16.5,4.56,5.33,15.4,28.39,17,35.24Z"/>
                <path class="cls-11" d="m361.65,350.95c-1.21-.88-3.21-1.3-4.5-2.5-.04-.12-2.25.22,0-1.5,1.68,0,4.78,1.95,4.5,4Z"/>
              </g>
              <path class="cls-51" d="m359.15,341.45c-1.98-1.13-2.41-1.76-4-3,.19.13,2.22.48,4.25,2,.53.4-.52.77-.25,1Z"/>
              <path class="cls-51" d="m360.65,342.45c-.06-.07-.08.22-1.5-1,.82.47.83.52,1.5,1Z"/>
              <path class="cls-51" d="m361.65,343.45c-.38-.37-.63-.59-1-1,.18.13,1.23-.42,1,1Z"/>
            </g>
          </g>
        </g>
        <g>
          <path class="cls-37" d="m189.2,30.04c.96,2.78,10.76.11,15.25,0,7.6-.19,15.17.71,22.74,1-.11,1.15.09,2.35,0,3.5-11.11,2.38-37.09,1.81-46.24,4.5-2.51.74-3.07,2.42-5.5,3-2.99,6.31-13.08,6.21-20.99,10.5-.63.53-1.72,5.48-8,10-21.02,8.96-37.19,24.96-53.98,39.99-9.45,8.45-20.04,11.58-21.74,31.74-1.98,1.85-3.09,2.7-3.5,5.5-4.32.88-5.97,8.61-4,11.5-4.27,1.98-3.34,4.71-3.5,5-1.42,2.62-2.76,3.02-3,3.5-5.63,11.28-11.6,33.96-12.5,46.49-1.54,21.59,3.93,71.52,3,79.48-.92,7.91-5.9,5.34-8,8,3.93,9.48.12,9.84,0,10.5-1.11,5.85,4.36,12.73,4.5,17.99l2,1c-2.25.87,6.47,12.39,6,13-.91,1.17-4.05-1.33-4,.5,4.52,5.88,4.6,2.62,5.25,2.75.54.11,2.71,4.65,6.25,9l-2,2.5c-1.78-2.11-10.66-14.33-11.5-14.75-.61-.3-.65.24-1,.5,5.86,9.52,11.3,19.38,18.49,27.99,2.89,3.45,13.45,15.89,15.5,12.25-.38.51-2.46,3.77-2.5,4-1.49-.07-3.01.1-4.5,0-4.02-4.7-7.33-3.29-7.75-3.5-.45-.23-2.54-2.38-2.75-2.5,13.42,3.66,3.46-3.05-.5-6.75-.36-.34,1.49-1.93-6.75-6.25l-7,1.5c-1.54-2.96-8.86-6.92-6.75-.25-2.43,5.17-13-14.33-14-16-.06-.09-1.47-1.51-2-.75C-18.22,272.73-2.19,171.93,51.24,107.77c6.77-8.12,31.42-32.8,39.24-39.24,3.86-3.18,8.78-5.08,11.5-7,.57-.4-.27-1.63,1-2.5,1.47-1.01,11.76-8.03,12.5-8,.87.04-.89,1.51.5,1.5.57,0,8.31-5.17,9.75-6,5.8-2.63,12.03-5.51,17-8.5.1-.06.79-1.18,1.75-1.5,5.43,1.44,18.05-3.11,26.99-4.5,5.9-.92,11.8-1.42,17.75-2Z"/>
          <g>
            <path class="cls-41" d="m125.72,46.54c5.53-3.21,10.51-7.15,17-8.5-4.96,2.99-11.19,5.87-17,8.5Z"/>
            <path class="cls-6" d="m57.24,350.95c8.13,9.62,21.19,22.34,21.99,23.74,1.7,2.97-.23,1.89-.5,2.25-2.05,3.64-12.61-8.79-15.5-12.25-7.2-8.61-12.63-18.47-18.49-27.99.35-.26.39-.8,1-.5.84.41,9.71,12.63,11.5,14.75Z"/>
            <path class="cls-6" d="m82.48,101.02l-18.24,26.74c-.35.61-2.16-.15-2.25-.25-1.08-1.29,16.53-25.2,20.49-26.49Z"/>
            <path class="cls-6" d="m146.96,47.54c5.45-2.45,4.81,9.09-1,7.5-4.22-1.16.58-7.31,1-7.5Z"/>
            <path class="cls-6" d="m98.48,70.53c-2.95,5.83-19.55,21.69-7.75,6.25l7.75-6.25Z"/>
            <path class="cls-6" d="m113.47,54.04c0,2.91.48,2.79,1.5,6-4.21,2.47-1.67-.18-8.25-1.75,2.9-.42,5.68-1.42,6.75-4.25Z"/>
            <path class="cls-6" d="m88.48,84.53c5.74-.95-2.65,2.98-5.75,4.25.69-1.31,4.85-4.1,5.75-4.25Z"/>
          </g>
        </g>
        <g>
          <path class="cls-37" d="m206.2,345.95c.63,1.6,15.65,15.94,18.24,17.99,17.46,13.82,38.54,18.86,60.23,20.49.12,0,1.43,2.45,1.25,0,1.05-.26,1.78.43,2.75.5v.5c-.64,2.13.1,2.88,1.5,4.5.06.99-.09,2.01,0,3,1.73,18.46,2.44,18.06-2.75-1.5q-7.62,5.37-15.25,10.75,5.87.87,11.75,1.75c-.06,3.62-10.56-.33-16,0-.17.01-.28,1.3-3,1.5-6.98.51-14.05,1.62-20.99,2-14.08.77-34.05-.35-49.49,0-15.43.35-40.95,2.97-53.24,2-1.25-1.92-9.53-2.28-13.75-5-1.49-.96-3.84-2.74-3.25-4.5,4.06.81,7.87,1.16,12,.5,8.01-1.28,16.37-8.51,21.99-14.25-.37-2.09-2.27,3-3.5,1,4.03-4.91,4.66-22.4,1.75-21.74-.38.09-4.45,5.24-5.5,5.5-.45-.37.41-5.39-1.25-11.5-1.77-6.54-5.08-9.08-7-11.5-.25-.32-1.17-1.4-1-1.75,2.8.77,3.51-3.56,3.75-3.75,1.36-1.07,15.46-4.42,18.74-5.5-3.39,2.7-15.4,5.29-17.75,7.5-4.75,4.46,12.65-3.95,15.5-5,8.86-3.27,18.68-5.06,26.49-10.5,1.91,1.8,13.92,9.6,14.25,10.75,1.08,3.77-4.62,8.27,3.5,6.25Z"/>
          <path class="cls-21" d="m142.71,347.95c1.92,2.41,5.22,4.96,7,11.5-3.03,6.14-1.6-8.83-9.5-7.75-.36-.74,1.86-1.19,1-3.75h1.5Z"/>
          <path class="cls-6" d="m195.45,382.44c2.45-.02,1.96,2.43,5.75,2.25l-4.25,2.25c-15.98-3.55-9.91-1.64-6-2.5.61-.13.78-1.47,1-1.5,3.23,1.65,3.29-.5,3.5-.5Z"/>
          <path class="cls-6" d="m243.94,387.94c9.15,6.99-.05,8.04-3.75,1.75,1.2-1.69,2.75,1.25,3.75-1.75Z"/>
          <path class="cls-53" d="m150.96,352.45c1.9,6.82,7.99,9.46,2,15.5,1.22-6.65-2.84-15.25-2-15.5Z"/>
        </g>
        <path class="cls-6" d="m245.18,58.03c.6.1,1.87.08,2.5,0,4.17-.54,9.31-5.14,15.25-6.5,3.23-.74,6.44-.89,9.75-1,7.61-.25,9.97,1.01,10.5,1,1.17,1.41-2.53,2.38-3.75,3.5-1.06.97-4.7,5.29-5.25,6.25-1.2,2.09-2.53,6.15-2.5,6.5.14,1.67,13.09,23.96,16.25,26.74,7.72,5.69,17.18,8.34,24.99,14,7.11,5.15,13.72,14.5,21.74,18.74l-4.5,13c3.97,4.03,8.79,7.69,11,13,1.09,2.63,4.62,19.44,3,21.99,2.04,3.17,13.17,12.12,13.5,13,1.32,3.53-2.79,10.6-5.75,12.75l-11.75-5.5c-.04-.49-.98-2.13-1-2.25-.41-2.5,2.97-1.74-1-4.25.12-1.05.15-1.97,1-2.75-1.62-13.2-.26-3.43-2,4-.38.92-2.31-1.88-3.5-3.75l-1-11.5c.15-.11-.46-1.71.75-1.5,2.16,5.44,2.39-.2,2.25-3.5,2.96,1.11.6,8.48,3.25,8.5,3.09.02-.94-10.94-1.25-18.24h-1c.93,6.36-.91-1.49-2,2.25-1.85-8.5-1.86-.48-3,3.5-.77-3-2.08-5.91-2.5-9-.31-2.27-.23-5.55,1.5-7.75-1.98-1.08-2.72,2.93-4,.25,4.27-3.78-1.61-10.05-2.25-2.5-.83-4.34-1.45-5.26-5.25-2.5.05-.62-.49-.47-.5-.5-.7-2.43-2.35-5.65-4-7.5,3.87-.33,7.67,4.56,12.75,6-23.21-27.63-31.45-.26-39.74,4-1.32.68-2.61.63-4,.5,1.46-4.64-6.08-2.54-13.25-4.5-1.07,1.3-3.6,4.05-4.75,5-.59.49-11.46,9.32-7.75,9,1.47-1.41,3.07-2.84,4.75-4-4.99,7.77-8.13,8.72-12,17.99-.34.8-3.19,6.56-2.25,7,6.99-7.77,14.02-15.43,21.74-22.49-.69,4.15-8.37,11.56-12,16.75-2.9,4.14-7.24,10.85-9.5,15.25-3.19,6.21-6.58,13.43-7,20.49h-.5c.02-4.89-.25-9.15,1-14,1.19-4.64,4.34-8.35,7-12.25l-.25-.75c-.44.4-1.2.82-1.75,1-2.91.96-8.85,5.39-3-8.5,2.31-5.49,7.54-9.21,10.5-14.25-4.54,3.41-8.31,8.08-11.5,12.75-.08.11.08.38,0,.5-2.55-7.46-6.02-11.98-2-14.5,2.59-.89,4.74-3.49,5.5-4,4.24-2.86,8.09-5.7,12-9,.29-.24.88-.5,2-1.5.24-.21,0,1.46,4.5-4,6.55-7.95,10.19-21.85,11-31.99.27-3.41-.5-5.04-.5-5.5.04-3.67.47-6.75,0-10.5-.27-2.13-.88-6.12-1.5-8-.21-.65-.75-1.43-1-2-3.47-12.86-13.96-22.05-27.49-22.49-1.37-.05-2.62-.11-4,0-2.67.22-5.36,1.01-8,1.5,1.35-5.25,1.85-36.54,7-36.99,3.31,9.3,2.59,23.68,1.5,33.74,1.21,1.02,1.55,1.02,3,1.25Z"/>
        <path class="cls-6" d="m267.68,78.53c.38.63,1.56,3.81,2,5,.2.53.33,1.44.5,2,1.12,3.57,2.19,7.26,2.5,11,1.27,15.09-3.18,34.13-13,45.99-1.81-.86-13.5-2.88-17-3.5-1.4-.25-.94-.49-1-.5,1.58-6.9,4.11-45.51,5-47.74.93-2.33,4.34,2.81,9,6.75,17.03,14.42,19,12.67,1-1.5q-6-6.75-12-13.5c.92-6.25.85-10.35,3-17,7,1.01,16.41,7.01,19.99,13Z"/>
        <g>
          <g>
            <path class="cls-6" d="m143.21,115.02c-.04.15.04.35,0,.5l-.5,1c-6.72-5.45.33,5.75,9.5,4.5-2.53.74-5.75,3.04-8,4.5-15.94,10.35-22.19,31.74-25.49,49.49-2.69,14.48-3.62,26.31-1.5,40.99.56,3.88,1.26,7.27,2.5,11,3.32,16.42,10.82,29.75,26.74,36.49,1.01-3.26,3.44-1.17,11.25-3,.85-.2,2.18-.27,3-.5,5.49-1.54,9.72-5.05,12.5-10,.44-.01.5.41,1,.5,1.41.24,1.95-2.79,3-3.25-.09-2.44-.9-.71-1-.75-.62-.27-.68-.4-1.5-.5-.33-.04-.68.04-1,0,.76-2.6-.44-2.36-.5-2.5-.15-.36.58-.57.5-1,1.83.44,3.66.63,5.5,1,6.67,1.33,5.67,1.95,6,2-4.32.52-5.27,5.42-8.25,8-7.44-.93-4,3.69-9.5,9l47.49,4,1.75-21.74c-.34-.47-5.48-.25-6.5-.25.13-.84-2.44-1.69-2-2.25.38-.48,2.33-.24,3-.25.32,0,2.65,1.5,6-.75.7-10.24.89-20.5,1.5-30.74.03-.5-.02-1,0-1.5.79.57.57,4.24.5,7-.43,16.14-2.52,37.58-2.5,50.99,0,1.1,1.11,11.11,1.25,16.5.22-1.14.55-1.61,1.25-2.5.16,10.33.17,20.67-.5,30.99-.24,3.79-.27,10.81-2,13,0-5.86,1.68-22.93.5-26.99-.14-.47.09-1.21,0-1.75-5.05-.41-43.36-8.58-45.24-7.25-.53.37-.14,1.84-.25,2.5-.15,0-1.76,1.57-2.5,1.5-.06,1.53,10.2,14.95,12,17-6.94-4.78-11.62-12.64-15.5-19.99,3.24,2.54,2.61-3.15-.5,0-.54.54-1,.68-1,.75-.07,1.28,11.81,19.02,13.5,21.74-.74,0-3.73.91-4.75.5-1.45-.59.22-3.9-6-2-2.69-6.14,10.57-6.33-3.5-7l-28.49,18.99c-10.04-5.17-33.08-5.52-35.24-20.24-1.92-13.06,15.16-1.73,17.5-6,1.48-2.7-8.71-19.42,15.5-36.24,6.83,4.99,14.86,7.18,22.99,3.75-6.61.6-13.78-.02-19.74-3.25-9.47-5.13-14.59-21.63-12.25-14-2.8.88-.9-.66-1-.75-.51-.44-.92-.18-1-.25-3.02-15.11-8.33-29.71-9-45.24-4.32-2.91-3.33-4.01-3.5-4.25.59-1.56,1.71,1,2.5,1,2.33,0,2.25-11.67,2-14-.25-2.34-.58-3.91-1.75-6-.9-.35-2.85,2.82-3.25,3.5-1.04-1.98.98-4.4,3-4.75-9.14-17.6-4.41.47-4.5,7.25-.03,2.2-1,4.89-1,9,0,2.5-.06,5,0,7.5.07,2.73.35,5.31.5,8,.25,4.32.94,19.16,3,22.24,3.14,4.69,7.28-5.86,2.5,6.25l8,12c-11.92-1.1-16.98-14.03-18.99-24.24,1.28-12.72.08-58.95,1.5-64.98.83-3.51,9.43-19.91,14-19.74-2.92,4.78-6.19,13.41-5.5,18.99.12.95,2.62,7.57,4,8.25,6.33-13.24,10.25-28.2,20.99-38.74,1.33-.72,1.42-.96,1.5-1,1.28-.69,2.58-1.36,4-1.75-5.03-2.04-7.03,1.11-7.5,1.25-1.98.6-4.37,1.61-6.5,1,.19-.21-.05-1.02-.5-1.25l10-8.75c-.4,4.24-1.21,7.86,1.25,3,2.2,2.67,1.1-.26-.75-4.5.29-1.08-1.6-4.14,5.5-1Z"/>
            <g>
              <g>
                <path class="cls-19" d="m181.2,309.96c.81.93,1.62,2.17,2.5,3-3.2.37-5.38-.49-6-.5-1.69-2.72-13.57-20.47-13.5-21.74,0-.07.46-.21,1-.75h.5c3.88,7.36,8.55,15.21,15.5,19.99Z"/>
                <path class="cls-40" d="m165.71,289.97h-.5c3.11-3.15,3.74,2.54.5,0Z"/>
              </g>
              <g>
                <g>
                  <path class="cls-1" d="m132.72,260.48c-5.16-3.77-7.09-7.28-9-13.5-2.34-7.63,2.78,8.86,12.25,14,5.97,3.23,13.13,3.85,19.74,3.25-8.13,3.43-16.16,1.24-22.99-3.75Z"/>
                  <path class="cls-29" d="m120.72,244.98l.5,4.25c-.57.58-.94-.74-1-.75l-8-12c5.29-6.91,1.93-2.12,7.5,6.75-.88,1.93.14.66,1,1.75Z"/>
                </g>
                <path class="cls-35" d="m137.72,116.02c1.85,4.24,2.95,7.17.75,4.5-2.46,4.86-1.65,1.24-1.25-3,.24-2.58.47-1.38.5-1.5Z"/>
                <path class="cls-6" d="m108.72,181c-.48.82-.81,2.14-1.5,2.5.09-6.78-4.64-24.84,4.5-7.25-2.02.35-4.04,2.77-3,4.75Z"/>
                <path class="cls-28" d="m137.72,127.01c-2.08-.91-2.41,1.29-3.5-.5.46-.14,2.47-3.28,7.5-1.25-1.42.39-2.72,1.06-4,1.75Z"/>
                <path class="cls-37" d="m114.22,171c1,7.19-2.99-.53-3.5-3.5l3.5,3.5Z"/>
                <path class="cls-11" d="m114.22,171l-3.5-3.5c-.19-1.11-.9-1.85-.25-2.5,1.13-.63,3.91,4.78,3.75,6Z"/>
                <path class="cls-1" d="m174.2,250.48l2-4c.1.04.91-1.69,1,.75-1.05.45-1.59,3.49-3,3.25Z"/>
                <path class="cls-44" d="m142.71,116.52l.5-1c-.11.36.14,2.23-.5,1Z"/>
              </g>
            </g>
          </g>
          <path class="cls-6" d="m331.66,322.46c-7.63-3.93-16.18-6.29-23.24-10.5-2.03,2.18-.73-.39-1-.5-.65-.27-1.39,1.06-1.5,1-.32-.16-2.23-3.45-4.25-2.25,3.84,2.56-1.55-.56-2.75-.75-1.03-.16-2.57.86-3.75,1-22.84-6.84-46.41-11.12-69.98-14.5.52-6.33.99-12.66,1.5-18.99,4.77,1.45,13-.3,18.74-.5,4.75-.16,24.17,2.33,16.25-5.5,3.91.17,7.84.13,11.75.5.2-.11-1.05-3.9-1.25-4.5,3.04,5.11,5.13,5.91,9.5,9,1.6,1.14,11.97,7.75,12.75,7.5,3.05-.98-1.22-6.39-5.25-8,4.6-.69,7.27-2.54,8.75-3,1.03-.32,1.42.52,1.5.5,1.04-.26,1.18-4.08,1.75,1.5.31,3.1-.69,6.23.75,6,15.38-6.98,22.93-17.85,28.24-33.49,2.58-7.6,4.52-15.56,5.5-23.49.39-.92,2.43-1.82,2.5-2,3.3-1.34,1.32.99,2.25,2,.17.18,2.41-.76,2.75.25.18.53-1.94,4.89,1,10.5-1.75,10.54-.91,11.44,5,20.49,1.63,2.5,6.59,7.15,7.5,9,3.5,7.14-.16,26.97-1.5,35.49-3.39,3.85-4.88,9.12-8.75,13.25-3.38,3.61-10.2,7.82-14.75,10Z"/>
          <path class="cls-6" d="m261.68,270.97c7.93,7.83-11.49,5.33-16.25,5.5-5.74.2-13.97,1.95-18.74.5.12-1.48-.12-3.02,0-4.5,8.6-1.91,21.09,1.84,19.99-2.5,4.8.45,10.19.79,15,1Z"/>
          <path class="cls-6" d="m229.19,262.48c-.15,3.11-1.09,5.16.25,6,5.81-.46,11.55.97,17.25,1.5,1.09,4.34-11.39.59-19.99,2.5.26-3.31.23-6.71.5-10h2Z"/>
        </g>
        <g>
          <path class="cls-6" d="m221.19,137.51c-.76-.57-1.43-.46-1.5-.5-6.88-3.78-14.68,3.18-19.99,7.5-1.13.92-1.9,1.46-3,2.5-12.24,11.57-13.14,18.52-18.99,28.49-2.19,3.73-5.25,9.57-9,11,.24-4.45,1.69-8.66,2.5-13,.16-.33.34-.69.5-1,2.63-5.03,5.58-9.98,9-14.5,1.43-1.89,7.92-9.46,9.5-11,2.27-2.22,4.97-4.59,7.5-6.5,6.63-5.01,17.48-8.64.75-4-1.47,1.28-3.45,1.9-5,3-5.13,3.66-15.16,17.67-9.75,13.5-1.07,1.44-1.34,1.72-2.5,3-.47-1.73-3.54,1.65-7,5.5l-4-1c1.43-2.39,3.17-4.55,4.5-7,.99-.32.85-1.4,2-.5-1.54,9.41.81-.96,2.5-3.75,3.9-6.43,11.7-11.59,18.49-14.5-3.93-1.96-2.71-.11-3.75-.25-.48-.06-.08-2.98-6,.5-1.21.71-4.91,4.68-6.25,6-4.18,4.11-6.44,9.34-11.75,11-5.86,6.07-11.38,15.61-19.74,17.5.87-2.9,1.39-5.88,2.5-8.75,2.09-5.42,8.83-15.89,5-12.5-.37.33-3.47,5.26-4,6.25-2.22.94,6.74-11.55,2-6.25-2.41,2.69-7.8,13.36-9.5,17.25-2.34,5.37-3.8,9.19-5,15-.24,1.18-.83,2.18-1,3.5-.9,6.83-.89,13.4,1,19.99-6.15-10.05-2.79.27-.5,12.5-.38-.93-1.46-1.4-1.5-1.5-2.4-6.25-4.05-12.74-4-19.49.07-8.94,3.26-17.81,5-26.49,4.61-11.12,7.11-20.38,16-29.99,4.28-1.72,8.81-2.79,13.25-4,.32,1.11-2.2,1.88-3.75,3.75-7.94,9.58,4.36-4.81,14.5-4.25-11,6.05-15.05,11.22-19.99,22.74.35,2.06,2.8-2.53,4.5-4.25,4.89-4.95,9.98-9.73,15.5-14,1.47-1.14,3.01-2.43,4.5-3.5.18-.13,2.85-.9,4-1.75.3-.83-2.97-3.59-3.5-4.25-7.52-9.36-10.35-3.86-10.25-13-.56,8.08-3.59,2.57-6.75,2.5,1.73-10.5-9.1,8.31-3.75-6-12.07,1.22-11.82-1.11-14.25-1.5-.13-.57-.97-.98-.25-1.5.7-.51,21.96,2.12,12.5-1-2.29-.75-19.22-1.31-21.99-.5-6.81,4.29-12.71,10.01-17.5,16.5,4.53-12.75,18.35-20.75,31.49-23.49,1.46-2.74,10.59-19.53,12-19.99.38-.13,7.63-.15,8,0,3.12,1.25,7.52,15.61,5.25-.25l1.25-.25c1.11,7.47,1.78,6.58,6.25,7,3.67.34,8.06-.75,8,.75l-13.25,13.75,17.25-17.5c.62-.22.88-.73,1.5-1,4.75-2.14,3.27-.3,5,2.5.03.05.79.45,1,.5-1.29,2.79-2.27,5.7-3.5,8.5-.97,2.19-2.1,4.25-3,6.5-3.58,8.91-5.26,10.91,2,4.25.11-.71-.16-1.93,0-2.25.96-1.94,1.33-3.52,2-5,2.55-5.64,8.51-19.2,11.5-23.49.09-.13.87-.83,1-1l7.5-2.75c-1.49,21.89-2.05,43.82-3,65.73Z"/>
          <g>
            <g>
              <path class="cls-3" d="m199.2,85.03l-17.25,17.5,13.25-13.75c.07-1.5-4.33-.41-8-.75.27-1.47,8.06-1.61,12-3Z"/>
              <path class="cls-5" d="m205.7,86.53c-1.73-2.8-.25-4.64-5-2.5,2.62-1.13,5.54-6.1,5,2.5Z"/>
            </g>
            <g>
              <path class="cls-48" d="m202.2,104.02c-.16.32.11,1.54,0,2.25-7.26,6.66-5.58,4.66-2-4.25l2,2Z"/>
              <path class="cls-44" d="m204.2,99.02c-.67,1.48-1.04,3.06-2,5l-2-2c.9-2.24,2.03-4.3,3-6.5l1,3.5Z"/>
            </g>
            <g>
              <path class="cls-21" d="m176.7,153.01c.22-1.35-1.09-.96-1-1.25.83-2.82,12.89-14.46,7.25-10.25-.19.14-1.32.14-1.25-.5,1.34-1.31,5.04-5.29,6.25-6,5.92-3.48,5.51-.56,6-.5,1.04.14-.18-1.71,3.75.25-6.79,2.91-14.6,8.07-18.49,14.5-1.69,2.79-4.04,13.16-2.5,3.75Z"/>
              <path class="cls-44" d="m197.7,140.51c-.85-3.4-10.43,6.95-7.5,6.5-1.57,1.54-8.07,9.11-9.5,11-.61.05-.45-.42-.5-.5.69-.15,1.19-.8,1-1.5,1.16-1.28,1.43-1.56,2.5-3,.98-1.32.94-1.91,1-2,.38-.44,1.68-.29,1.5-1.25-1.91-.01-1.42,1.13-1.5,1.25-1.49,1.76-.91,1.93-1,2-5.41,4.18,4.62-9.84,9.75-13.5,1.55-1.1,3.53-1.72,5-3,16.73-4.64,5.88-1.01-.75,4Z"/>
              <path class="cls-4" d="m150.21,169.5c-.14.47-.35.95-.5,1.5-1.84-.46.03-2.1,0-2.25-.92-4.2-8.99,11.54-8,12.5l-.5-.75c1.2-5.8,2.66-9.63,5-15,1.02,7.31,5.73-7.66,7.5-11,.53-.99,3.63-5.92,4-6.25,3.83-3.4-2.91,7.07-5,12.5-1.11,2.87-1.63,5.85-2.5,8.75Z"/>
              <path class="cls-18" d="m177.45,120.02c5.34-.03,5.6,1.42,0,1v-1Z"/>
              <path class="cls-30" d="m170.96,116.02c.68.3-.67,2.87-1.5,2.5-.57-.26,1.32-2.58,1.5-2.5Z"/>
              <path class="cls-6" d="m180.2,157.51c-.62-1,.62-1.08,1-1.5.19.7-.31,1.35-1,1.5Z"/>
            </g>
          </g>
        </g>
        <path class="cls-37" d="m284.17,275.47c.8.13,1.69,0,2.5,0,.5,0,1.01.04,1.5,0,.33-.03.68.05,1,0,4.02,1.61,8.3,7.02,5.25,8-.78.25-11.14-6.36-12.75-7.5,1.14-3.89.63-.82,2.5-.5Z"/>
        <path class="cls-3" d="m256.68,96.02c18,14.17,16.03,15.92-1,1.5l1-1.5Z"/>
        <g>
          <path class="cls-1" d="m203.2,244.48c2.52.1,4.56,0,7,0,1.02,0,6.16-.22,6.5.25l-1.75,21.74-47.49-4c5.5-5.31,2.06-9.93,9.5-9,2.98-2.57,3.93-7.48,8.25-8,2.05.34,11.4,1.25,12.5-.25.32-.43-.44-.72-.5-1.25,3.7,1.41,4.96.46,6,.5Z"/>
          <g>
            <path class="cls-33" d="m270.68,255.48c-.42-.16-2.23-.81-2.5-.25.85,4.09,2.69,7.85,4,11.75.2.6,1.45,4.39,1.25,4.5-3.91-.37-7.83-.33-11.75-.5-4.81-.21-10.2-.55-15-1-5.7-.53-11.43-1.96-17.25-1.5-1.34-.84-.4-2.88-.25-6,.18-3.85.92-7.61,1-11.5q18.12.25,36.24.5c.65-.51-.19-.85-.25-2,.96.15,1.51.38,2.5.5,1.79.21,1.4.02,3-.75-1.18,3.26,3.03,4.72-1,6.25Z"/>
            <path class="cls-33" d="m235.19,247.98c6.59,1.74,5.22-.8,5.5-1,4.23.36,10.35-.21,14.25,0,.17,0,.5,1.48,1,1.5,2.92.09,8.86.14,9.25-3.5.92.92.93,3.25,1,4.5.06,1.15.9,1.49.25,2q-18.12-.25-36.24-.5c.13-6.09-.52-7.11-.5-7.5.91-.05,1.56,3.46,5.5,4.5Z"/>
          </g>
        </g>
      </g>
      <g>
        <path class="cls-48" d="m153.21,114.02c1.18,1.27,2.84,4.37,4,6-1.62.23-3.41.53-5,1-9.17,1.25-16.22-9.95-9.5-4.5.64,1.23.39-.64.5-1,.04-.15-.04-.35,0-.5.2-.71.2-1.11.5-2,3.46,1.62,5.67,1.98,9.5,1Z"/>
        <path class="cls-1" d="m168.21,119.02c-.16,0-2.49.92-3,1-1.11-.67-6.38-.23-8,0-1.15-1.63-2.81-4.73-4-6-1.02-1.09-2.44-1.51-3.5-2.5.16.03.34-.03.5,0,2.43.39,2.18,2.72,14.25,1.5-5.35,14.31,5.48-4.51,3.75,6Z"/>
        <path class="cls-6" d="m149.71,111.52c1.06.99,2.48,1.41,3.5,2.5-3.83.98-6.04.62-9.5-1,.79-2.32,2.49-2.09,6-1.5Z"/>
        <path class="cls-48" d="m180.2,215.49c4.38,5.64,3.72,14.85,19.99,21.99,1.06.46,3.92,2.66,3.5-.75-.11-.87-1.45-1.65-1.5-1.75-.51-1.08-3.92-6.36-4-6.75-.89-4.58,2.72,2.24,7.5,7.25,1.42,1.49,3.54,4.33,5.5,5v1.5c-.67,0-2.62-.23-3,.25-.45.56,2.13,1.41,2,2.25-2.44,0-4.48.1-7,0-1.55-2.03.77-1.57-.75-2.5-.57-.35-2.96-.35-3.25-.5-1.45-.76-3.61-2.08-5-3-5.11-3.37-5.65-7.17-11-8-3.86-5.76-3.81-6.42-6.5-12.5l3-3c-.49,1.05.47.46.5.5Z"/>
        <path class="cls-1" d="m211.19,199.49c.39,2.52,4.38,20.43,6.5,14.75.08-.21-.88-4.06,1-3.75-.61,10.24-.8,20.5-1.5,30.74-3.35,2.25-5.68.75-6,.75v-1.5c.23.08,3.11-.95,3.75-.5l1.25-1.25c.29-1.44-.55-2-.5-2.25.01-.05.95.17,1-.25,1.01-7.94-5.09-14.15-6.5-21.99,3.29-2.03,1.18-7.7-3-5.75.01-1.82-.27-2.11,0-4.5.57-5.16,1.48-6.55,3-11,1.27,1.82.71,4.65,1,6.5Z"/>
        <g>
          <path class="cls-44" d="m119.22,153.51c-1.37,2.96-2.89,5.82-3.75,9-2.13,1.07-2.64-5.5-4.25-4-.69-5.59,2.58-14.21,5.5-18.99,1.39-2.29,5.13-5.89,7-8,1.21,2.29-1.31,4.16-2,6.25-1.72,5.2-1.79,12.56-4,12.5l1.5,3.25Z"/>
          <path class="cls-21" d="m134.22,126.51c1.09,1.79,1.42-.41,3.5.5-.08.04-.17.28-1.5,1-1.25.67-2.81,1.34-4.25,1.5-6.58,6.39-8.94,15.76-12.75,23.99l-1.5-3.25c2.21.07,2.28-7.29,4-12.5.69-2.09,3.21-3.95,2-6.25.85-.95,2.11-1.37,3-2.25-.33-3.45.83-1.57,1-1.75,2.12.61,4.52-.4,6.5-1Z"/>
          <path class="cls-48" d="m136.22,128.01c-10.74,10.54-14.66,25.5-20.99,38.74-1.38-.68-3.88-7.3-4-8.25,1.61-1.5,2.12,5.07,4.25,4,.86-3.17,2.38-6.04,3.75-9,3.8-8.23,6.17-17.61,12.75-23.99,1.44-.16,3-.83,4.25-1.5Z"/>
        </g>
        <path class="cls-28" d="m216.19,198.99c.76,2.2,1.73,4.31,2.5,6.5-.05,1.31-.55,2.88,0,3.5-.02.5.03,1,0,1.5-1.88-.31-.92,3.54-1,3.75-2.12,5.69-6.11-12.23-6.5-14.75l5-.5Z"/>
        <path class="cls-53" d="m199.2,241.48c-1.6,1.57-2.91,1.6-3,1.75-.16.28.92.01,1,.75.06.53.82.82.5,1.25-1.1,1.5-10.44.59-12.5.25-.32-.05.67-.67-6-2,.2-.62.9-1.3,1.5-1.5,1.71.71,8.18,1.16,8-.5,4.45-.13,2.68-.85,3-1,.99-.46,2.06-.87,2.5-2,1.39.92,3.55,2.24,5,3Z"/>
        <path class="cls-7" d="m168.21,232.48c3.74,2.5,9.34,9.83,10.5,7,.73.69,1.83,1.23,2.5,2-.68.36-.47.49-.5.5-.6.2-1.3.88-1.5,1.5-1.84-.37-3.67-.56-5.5-1-1.72-.42-3.37-1.06-5-1.5,5.1.09-2.96-4.18-6-10-.06-.46.14-.43.5-.5.92,1.32,3.55,3.01,5,2Z"/>
        <path class="cls-53" d="m165.71,240.48c-4.72.32,2.68,4.11,7.5,3,.06.14,1.26-.1.5,2.5-3.99-.51-5.75-.55-10-1.5-3.81-1.77-5.99-4.36-9-7-2.13-3.01,3.17.75,11,3Z"/>
        <path class="cls-53" d="m168.71,240.98c1.63.44,3.28,1.08,5,1.5.08.43-.65.64-.5,1-4.82,1.12-12.22-2.68-7.5-3,1.69.48,2.75.43,3,.5Z"/>
        <path class="cls-33" d="m141.21,203.99c.91,1.48,1.38,2.47,2.5,4,1.28,1.75,6.41,9.55,7,2.5l2.5-1c.73,1.56,1.99,4.62,3.5,5.25l-.5-14.25c.13.07,1.19-.28,2.5,1,.4,14.53,9.66,28.15,19.99,37.99-1.15,2.83-6.76-4.5-10.5-7-.42-.28-1.73-2.62-5-2-.36.07-.56.04-.5.5-2.48,3.1-7.43-.46-14.5.5-.88-1.14-1.77-2.26-2.5-3.5-2.12-3.64-3.41-7.63-5-11.5-2.29-12.22-5.65-22.55.5-12.5Z"/>
        <path class="cls-6" d="m176.7,153.01c-1.15-.9-1.01.18-2,.5-2.41.77-4.34,2.74-6.5,5.25-4.9,5.71-10.68,16.4-12,23.74l-7.5,1c-.03-3.7.05-7.32.5-11,.02-.08.14-.2.5-1.5.15-.55.36-1.03.5-1.5,8.36-1.88,13.89-11.43,19.74-17.5,5.31-1.66,7.57-6.89,11.75-11-.07.64,1.06.64,1.25.5,5.64-4.21-6.41,7.42-7.25,10.25-.09.29,1.22-.1,1,1.25Z"/>
        <path class="cls-7" d="m174.7,153.51c-1.33,2.45-3.07,4.61-4.5,7-2.95,4.94-7.65,14.15-9,19.49-.56,2.24-.97,4.67-1,7-.92,1.4-.34,3-.5,4.5-.21,1.95-.44,4.55-.5,6.5-.04,1.33-.5.94-.5,1-4.69-3.68-3.49-10.97-2.5-16.5,1.32-7.34,7.09-18.03,12-23.74,2.15-2.51,4.09-4.47,6.5-5.25Z"/>
        <path class="cls-7" d="m146.71,181.5c-.58,5.71.06,13.33,1,18.99-2.66,1.76,1.32,8.45-4,7.5-1.11-1.53-1.59-2.52-2.5-4-1.89-6.59-1.9-13.16-1-19.99,3.02,2.09,3.54-2.63,6.5-2.5Z"/>
        <path class="cls-31" d="m178.2,175.5c-3.19,7.25-4.19,14.69-3,22.49.22,1.43,1.45,4.94,2,7l-3.5,6c-2.84-8.01-5.01-13.14-5-21.99,0-.83-.05-1.67,0-2.5,3.74-1.43,6.81-7.27,9-11h.5Z"/>
        <path class="cls-45" d="m184.7,135.51c-1.49,1.07-3.03,2.36-4.5,3.5-4.5.45-13.93,9.59-15.5,14-1.7,1.72-4.15,6.31-4.5,4.25,4.94-11.52,9-16.69,19.99-22.74,1.56.09,3.07.34,4.5,1Z"/>
        <path class="cls-44" d="m139.21,214.99c.04.1,1.12.57,1.5,1.5,1.59,3.86,2.88,7.86,5,11.5-2.21,1.03.43,4.77-3,3.5-3.15-4.69-4.83-9.69-6.5-15,1.35-1.06,1.32-2.75,3-1.5Z"/>
        <path class="cls-4" d="m221.19,137.51c-.03.58.03,1.26,0,2l-1.25,3.5c-6.16,0-11.95,2.06-17.25,5,1.15-7.29,11.55-7.07,17-11,.07.04.74-.07,1.5.5Z"/>
        <path class="cls-21" d="m135.22,195.5c-.06,6.76,1.6,13.24,4,19.49-1.68-1.25-1.65.44-3,1.5-2.43-7.75-4.18-14.16-4-22.49.82.09,1.95-.15,2.25,0,.54.27-.16,1.45.75,1.5Z"/>
        <path class="cls-54" d="m219.69,137.01c-5.45,3.92-15.85,3.71-17,11,.07.35-.19.6-.5.5-.66-1.01-.32-1.93-1-3-.33-.52-.76-1.2-1.5-1,5.32-4.32,13.11-11.28,19.99-7.5Z"/>
        <path class="cls-49" d="m149.71,171c-.36,1.3-.48,1.42-.5,1.5-.76,3.04-2.17,5.77-2.5,9-2.96-.14-3.48,4.59-6.5,2.5.17-1.32.76-2.32,1-3.5l.5.75c-.99-.96,7.08-16.7,8-12.5.03.15-1.84,1.79,0,2.25Z"/>
        <path class="cls-49" d="m196.2,150.51c-.23.71-1.08,2.18-1.5,3-5.96-.24-10.78,17.04-16.5,21.99h-.5c5.86-9.97,6.76-16.92,18.99-28.49-.03.96-.22,2.66-.5,3.5Z"/>
        <path class="cls-6" d="m181.2,156.01c-.38.42-1.62.5-1,1.5.05.08-.11.55.5.5-3.42,4.52-6.37,9.47-9,14.5-.25-1.41-2.65-2.3-4-3.5,3.28-3.95,4.55-2.55,5.5-4.25.49-.89-1.41-.56,1-3.25,3.46-3.85,6.53-7.23,7-5.5Z"/>
        <path class="cls-6" d="m174.2,161.5c-2.41,2.69-.51,2.36-1,3.25-.94,1.7-2.22.3-5.5,4.25-2.57,3.09-3.56,6.87-5,10.5-.1.06.42,1.8-1.5.5,1.35-5.35,6.05-14.56,9-19.49l4,1Z"/>
        <path class="cls-39" d="m171.71,172.5c-.16.31-.34.67-.5,1-.12.23-1.19,1.29-2.5,4.5-.91-.9-4.75.82-6,1.5,1.44-3.63,2.43-7.4,5-10.5,1.35,1.2,3.75,2.09,4,3.5Z"/>
        <path class="cls-1" d="m168.71,186.5c-.05.83,0,1.67,0,2.5-1.53,3.51,1.53,5.68-4,5,.07-1.3.34-2.28.5-3.5.27-2.02.48-4.02,1-6,.49-1.89,1.73-4.61,2.5-6.5,1.31-3.21,2.38-4.27,2.5-4.5-.81,4.34-2.26,8.55-2.5,13Z"/>
        <path class="cls-53" d="m153.71,154.51c-1.77,3.34-6.48,18.3-7.5,11,1.7-3.89,7.09-14.56,9.5-17.25,4.74-5.3-4.22,7.18-2,6.25Z"/>
        <path class="cls-53" d="m180.2,139.01c-5.52,4.27-10.61,9.05-15.5,14,1.57-4.41,11-13.54,15.5-14Z"/>
        <path class="cls-3" d="m199.7,144.51c.74-.2,1.17.48,1.5,1-1.3.63-2.88,1.97-1.5,3-1.14,1.78-.94,3.04-3.5,2,.28-.84.47-2.54.5-3.5,1.1-1.04,1.87-1.58,3-2.5Z"/>
        <path class="cls-21" d="m197.7,140.51c-2.53,1.91-5.23,4.28-7.5,6.5-2.94.45,6.65-9.9,7.5-6.5Z"/>
        <path class="cls-6" d="m219.19,174.5c-1.09,2.18-2.74,3.92-3,6.5-1.43.18-2.77,3.97-3.5,5.5-3.38,1.22-4.26-1.31-6-3.5.15-.72.35-2.03.5-2.5,2.29-7.21,11.52-14.76,11.5-15.75-.03-1.09-.53-.39-1.5-1.25,5.6-5.63,3.55-.37,2,11Z"/>
        <path class="cls-45" d="m217.19,163.5c.97.86,1.47.16,1.5,1.25.02.98-9.2,8.53-11.5,15.75-2.19,1.42-1.73-.26-3-1.5.77-1.57,1.95-3.21,2-5,3.15-4.05,7.91-8.32,10.5-11.5.05.23.46.96.5,1Z"/>
        <path class="cls-6" d="m218.69,205.49c-.77-2.19-1.74-4.3-2.5-6.5-.52-1.5-.95-2.98-1.5-4.5l3-3.5c.13.33.64,1.82,1,1.25l1.5-6.75c.57,6.39-1.24,13.64-1.5,19.99Z"/>
        <path class="cls-1" d="m220.19,185.5l-1.5,6.75c-.36.57-.87-.92-1-1.25-.6-1.55-1.67-8.31-1.5-10,.26-2.58,1.91-4.32,3-6.5-1.03,8.08.47,6.35.5,6.75.12,1.4.37,2.81.5,4.25Z"/>
        <path class="cls-6" d="m314.67,136.51c-.19-.22-.3-.31-.5-.5-7.04-6.62-7.15,2.25-11.5-1-.78.07-4.16,3.66-5,4.5-2.86,2.85-5.16,7.23-8.5,9-.25-.7-.73-1.84-1.5-2,8.28-4.26,16.52-31.62,39.74-4-5.08-1.44-8.88-6.33-12.75-6Z"/>
        <path class="cls-6" d="m335.66,170c-.02-.54-.92-7.13-1-7.5,1.09-3.74,2.93,4.11,2-2.25h1c.31,7.31,4.34,18.27,1.25,18.24-2.65-.02-.29-7.38-3.25-8.5Z"/>
        <path class="cls-14" d="m265.18,244.98c-.39,3.64-6.32,3.59-9.25,3.5-.5-.01-.83-1.49-1-1.5-3.89-.21-10.01.36-14.25,0,.28-.2.54-1.07,2.5-1.5.71-.16,2,.06,3,0,10.71-.66,13.42,4.78,13.5-2,.17-.01.34.02.5,0,1.29,1.02,3.77.27,5,1.5Z"/>
        <path class="cls-6" d="m148.21,231.49c2.16,2.79,3.98,3.8,6.5,6,3.01,2.63,5.18,5.23,9,7-10.13-2.25-14.99-4.06-20.99-13,3.43,1.27.79-2.47,3-3.5.73,1.24,1.62,2.36,2.5,3.5Z"/>
        <path class="cls-6" d="m203.2,244.48c-1.03-.04-2.3.91-6-.5-.08-.74-1.16-.47-1-.75.09-.15,1.4-.18,3-1.75.29.15,2.68.15,3.25.5,1.52.93-.8.47.75,2.5Z"/>
        <g>
          <path class="cls-33" d="m109.22,196.49c.17.24-.82,1.34,3.5,4.25.66,15.53,5.98,30.13,9,45.24-.47-.4-.61-.5-1-1-.86-1.09-1.88.18-1-1.75-5.57-8.87-2.21-13.66-7.5-6.75,4.78-12.1.64-1.56-2.5-6.25-2.06-3.08-2.75-17.93-3-22.24,1.2.52,3.51,3.59,3.75,3.5,2.14-.86,2.64-14.93-4.25-11.5-.06-2.49,0-5,0-7.5,1.17,1.17,2.07,2.65,3,4Z"/>
          <path class="cls-33" d="m185.2,129.51c.53.65,3.79,3.41,3.5,4.25-1.15.85-3.82,1.62-4,1.75-1.43-.66-2.94-.91-4.5-1-10.14-.56-22.44,13.83-14.5,4.25,1.55-1.87,4.07-2.64,3.75-3.75-4.44,1.21-8.97,2.28-13.25,4-.13.05.11-1.2-2.75.5-11.79,7-17.26,28.46-19.24,40.99-.67,4.25-1.91,9.25-2,13.5-.18,8.33,1.57,14.74,4,22.49,1.67,5.31,3.35,10.31,6.5,15,6,8.94,10.86,10.74,20.99,13,4.25.95,6.01.99,10,1.5.32.04.67-.04,1,0-.37,1.03-1.1,3.29-1.5,4-2.78,4.95-7,8.46-12.5,10,3.33-4.3-2.54-1.23-11-2-12.38-3.21-17.72-3.36-7,.5,5.53,1.99,9.39,1.1,15,2-7.81,1.83-10.23-.26-11.25,3-15.92-6.74-23.42-20.07-26.74-36.49,1.34,4.02,13.19,28.52,16.75,27.99.28-.04,3.75-3.97,3.75-4.25,0-2.3-16.7-13.88-17.99-41.24-.83-17.54,4.31-38.48,11.5-54.48,11.27-25.08,22.63-35.3,51.49-25.49Z"/>
          <path class="cls-49" d="m133.72,155.01c-7.19,16-12.33,36.95-11.5,54.48-4.16-1.03-1.04,8.1-5,6.5-2.12-14.68-1.2-26.51,1.5-40.99h.5c-1.36,7.06-3.14,16.43,3,4.75,5.34-10.16,4.3-14.7,4.5-15.5.1-.39,1.43-2.16,1.5-2.5.1-.46-1.76-2.3,2-8.75v-.5c.65.04,1-.18,1.5-.5l2,3Z"/>
          <path class="cls-48" d="m122.22,209.49c1.3,27.35,18,38.94,17.99,41.24,0,.28-3.47,4.21-3.75,4.25-3.56.53-15.41-23.97-16.75-27.99-1.24-3.73-1.94-7.12-2.5-11,3.95,1.6.84-7.52,5-6.5Z"/>
          <path class="cls-49" d="m165.21,120.02c-4.89.72-8.82,3.64-13.75,3-.17.05,1,2.71-1.5,1-5.73,8.07-11.58,16.03-16.75,24.49-2.98-.56-4.13,2.51-5-.5,3.16-8.54,9.74-16.13,16-22.49,2.24-1.46,5.47-3.76,8-4.5,1.59-.47,3.38-.77,5-1,1.62-.23,6.89-.67,8,0Z"/>
          <path class="cls-1" d="m144.21,125.51c-6.26,6.36-12.83,13.95-16,22.49-.11.29-2.71,4.21,2,4.5v.5c-2,.45-2.61-1.02-2.75-1-1.35.23-7.89,20.08-8.25,22.99h-.5c3.3-17.75,9.56-39.13,25.49-49.49Z"/>
          <path class="cls-53" d="m106.72,207.99c-.15-2.69-.43-5.27-.5-8,6.89-3.43,6.39,10.63,4.25,11.5-.24.1-2.55-2.98-3.75-3.5Z"/>
          <path class="cls-28" d="m149.71,257.98c8.45.77,14.33-2.3,11,2-.82.23-2.15.3-3,.5-5.61-.9-9.47,0-15-2-1.86-3.4,3.21,1.52,7-.5Z"/>
          <g>
            <path class="cls-44" d="m113.72,183.5c-1.91,3.86-2.53,9.84-2,14-.79,0-1.91-2.56-2.5-1-.93-1.35-1.83-2.83-3-4,0-4.11.97-6.8,1-9,.69-.36,1.02-1.68,1.5-2.5.4-.68,2.35-3.85,3.25-3.5,1.17,2.09,1.49,3.66,1.75,6Z"/>
            <path class="cls-1" d="m111.72,197.49c-.53-4.16.09-10.14,2-14,.25,2.33.34,14-2,14Z"/>
          </g>
          <path class="cls-39" d="m176.2,246.48l-2,4c-.5-.09-.56-.51-1-.5.4-.71,1.13-2.97,1.5-4,.82.1.88.23,1.5.5Z"/>
          <path class="cls-48" d="m185.2,129.51c-28.85-9.81-40.22.41-51.49,25.49l-2-3c2.51-1.62,1.12-2.87,1.5-3.5,5.17-8.46,11.01-16.42,16.75-24.49,2.5,1.71,1.33-.95,1.5-1,4.92.64,8.86-2.28,13.75-3,.51-.08,2.84-1,3-1,3.15.07,6.19,5.59,6.75-2.5-.1,9.14,2.73,3.63,10.25,13Z"/>
          <path class="cls-49" d="m156.21,139.01c-8.89,9.61-11.39,18.87-16,29.99-.86,2.08-2.42,3.06-2.5,3.25-.62,1.43-1.12,9.5-3.5,8.25,1.98-12.53,7.46-33.98,19.24-40.99,2.86-1.7,2.62-.45,2.75-.5Z"/>
          <path class="cls-49" d="m135.22,195.5c-.91-.05-.21-1.23-.75-1.5-.3-.15-1.43.09-2.25,0,.09-4.24,1.33-9.25,2-13.5,2.38,1.26,2.88-6.81,3.5-8.25.08-.19,1.64-1.17,2.5-3.25-1.74,8.69-4.92,17.56-5,26.49Z"/>
          <path class="cls-22" d="m149.71,257.98c-3.79,2.02-8.86-2.9-7,.5-10.72-3.86-5.38-3.71,7-.5Z"/>
          <path class="cls-21" d="m130.22,153.01c-3.76,6.45-1.9,8.29-2,8.75-.07.34-1.4,2.11-1.5,2.5-.2.8.84,5.34-4.5,15.5-6.14,11.68-4.36,2.32-3-4.75.35-2.91,6.9-22.77,8.25-22.99.14-.02.75,1.45,2.75,1Z"/>
          <path class="cls-6" d="m133.22,148.51c-.38.62,1.01,1.88-1.5,3.5-.5.32-.85.54-1.5.5-4.71-.29-2.11-4.21-2-4.5.87,3.01,2.01-.06,5,.5Z"/>
        </g>
        <path class="cls-33" d="m181.7,191.5c.15,2.59.54,5.44,1,8,.4,2.26.73,4.58,1.5,6.75,4.73,13.42,5.05,6.47,4.5-3.25l2.5-3c.03.33-.04.67,0,1,.29,2.55.9,5,1.5,7.5,1.2,5.05,2.61,9.95,6.75,13.5,1.39-.11-1.19-8.29-1.75-13.5-.2-1.89-.92-4.25-1-6-.02-.54.49-2.36.5-3l5,1.5c1.39,4.89,1.67,7.14,4.5,12.25.75.8.48-1.76.5-4.75,4.18-1.95,6.29,3.72,3,5.75,1.41,7.84,7.51,14.05,6.5,21.99-.05.42-.99.2-1,.25-1.93-.38-9.13-7.46-9.75-7.5-3.5-.2,3.01,5.97-.25,6.5-4.78-5.01-8.39-11.83-7.5-7.25.08.38,3.48,5.67,4,6.75l-2,2.5c-16.27-7.15-15.61-16.36-19.99-21.99-.35-2.42-1.35-4.66-2-7-.32-1.16-.69-2.34-1-3.5-.55-2.06-1.78-5.56-2-7,4.43.23,2.61-11.06,6.5-6.5Z"/>
        <path class="cls-33" d="m173.7,210.99c.85,2.41,1.97,4.67,3,7,2.69,6.08,2.64,6.74,6.5,12.5,2.48,3.69,4.88,7.28,8.5,10-.32.15,1.45.87-3,1-2.72.08-3.81-.4-6-2-8.87-6.48-17.28-27.57-17.99-38.49-.14-2.07-.12-4.92,0-7,5.53.69,2.47-1.49,4-5-.01,8.85,2.16,13.98,5,21.99Z"/>
        <path class="cls-1" d="m215.69,236.48c-.05.25.79.81.5,2.25l-1.25,1.25c-.64-.45-3.52.58-3.75.5-1.95-.67-4.08-3.51-5.5-5,3.26-.53-3.25-6.7.25-6.5.61.04,7.81,7.12,9.75,7.5Z"/>
        <path class="cls-47" d="m194.2,238.48c-.44,1.13-1.51,1.54-2.5,2-3.61-2.72-6.02-6.3-8.5-10,5.34.83,5.88,4.62,11,8Z"/>
        <path class="cls-53" d="m178.2,208.49c-1.18.57-1.77,6.53-1.5,6.75,1.76,1.42,2.1-2.65,3-.25l-3,3c-1.03-2.33-2.15-4.59-3-7l3.5-6c.31,1.15.68,2.34,1,3.5Z"/>
        <path class="cls-47" d="m180.2,215.49s-.99.55-.5-.5c-.89-2.4-1.23,1.67-3,.25-.27-.22.32-6.18,1.5-6.75.65,2.34,1.65,4.58,2,7Z"/>
        <path class="cls-1" d="m200.2,237.48l2-2.5c.05.1,1.39.88,1.5,1.75.43,3.41-2.44,1.21-3.5.75Z"/>
        <path class="cls-47" d="m212.69,186.5c-.29.6-.73.9-1,1.5-.71,1.61-.96,3.41-1.5,5-1.52,4.45-2.43,5.84-3,11-2.14.51-1.52-4.17-1.5-9,.02-4.49.03-7.5,1-12,1.74,2.19,2.62,4.72,6,3.5Z"/>
        <path class="cls-7" d="m205.7,195c-.02,4.83-.64,9.51,1.5,9-.27,2.39.01,2.68,0,4.5-.02,2.99.25,5.55-.5,4.75-2.83-5.11-3.11-7.36-4.5-12.25-.69-2.42-1.55-2.35-2-6.5,2.37.21,3.14,2.17,5.5.5Z"/>
        <path class="cls-53" d="m214.69,194.5c.55,1.52.98,3,1.5,4.5l-5,.5c-.29-1.85.27-4.68-1-6.5.54-1.59.79-3.39,1.5-5,1.12-.36,1.92,3.5,3,6.5Z"/>
        <path class="cls-23" d="m188.7,241.48c.18,1.66-6.29,1.21-8,.5.03-.01-.18-.14.5-.5.57-.3,2.79,2.12,1.5-2,2.18,1.6,3.28,2.08,6,2Z"/>
        <path class="cls-12" d="m164.71,200.99c.71,10.92,9.12,32.01,17.99,38.49,1.29,4.12-.93,1.7-1.5,2-.67-.77-1.77-1.31-2.5-2-10.34-9.84-19.6-23.46-19.99-37.99.98-1.23-.02-1.37,0-2.5,0-.06.46.33.5-1,.87,4.77,2.12.41,5.5,3Z"/>
        <path class="cls-1" d="m168.71,240.98c-.25-.07-1.31-.02-3-.5-7.83-2.25-13.12-6.01-11-3-2.52-2.2-4.34-3.21-6.5-6,7.07-.96,12.01,2.6,14.5-.5,3.04,5.81,11.09,10.09,6,10Z"/>
        <path class="cls-1" d="m168.21,232.48c-1.44,1.01-4.08-.68-5-2,3.27-.62,4.58,1.72,5,2Z"/>
        <path class="cls-31" d="m156.21,182.5c-.99,5.52-2.19,12.81,2.5,16.5-.02,1.13.98,1.27,0,2.5-1.31-1.27-2.37-.93-2.5-1-2.98-1.63-4.19-5.69-7-7.5-.34-3.15-.48-6.32-.5-9.5l7.5-1Z"/>
        <path class="cls-1" d="m148.71,183.5c.02,3.18.16,6.34.5,9.5.6,5.58,1.6,11.36,4,16.5l-2.5,1c.08-.97-2.1-4.6-3-10-.94-5.67-1.58-13.29-1-18.99.33-3.23,1.74-5.96,2.5-9-.45,3.67-.53,7.3-.5,11Z"/>
        <path class="cls-53" d="m156.21,200.49l.5,14.25c-1.51-.63-2.77-3.69-3.5-5.25-2.4-5.13-3.4-10.92-4-16.5,2.81,1.8,4.02,5.87,7,7.5Z"/>
        <path class="cls-1" d="m150.71,210.49c-.59,7.05-5.72-.75-7-2.5,5.32.95,1.34-5.74,4-7.5.9,5.39,3.08,9.03,3,10Z"/>
        <path class="cls-53" d="m165.21,190.5c-.16,1.21-.43,2.2-.5,3.5-.12,2.08-.14,4.93,0,7-3.38-2.59-4.62,1.77-5.5-3,.06-1.95.29-4.55.5-6.5l5.5-1Z"/>
        <path class="cls-44" d="m168.71,178c-.77,1.89-2.01,4.61-2.5,6.5-2.78.86-5.06-.52-6,2.5.03-2.32.43-4.76,1-7,1.92,1.3,1.4-.44,1.5-.5,1.25-.68,5.09-2.4,6-1.5Z"/>
        <path class="cls-22" d="m166.21,184.5c-.52,1.98-.73,3.98-1,6l-5.5,1c.16-1.5-.42-3.1.5-4.5.94-3.02,3.22-1.64,6-2.5Z"/>
        <path class="cls-1" d="m194.7,153.51c-4.36,8.47-11.64,16.56-13,26.49-.13.94.07,2.02,0,3-.06.82.02,1.67,0,2.5-.05,1.96-.11,4.04,0,6-3.89-4.56-2.07,6.73-6.5,6.5-1.19-7.81-.19-15.24,3-22.49,5.72-4.96,10.53-22.23,16.5-21.99Z"/>
        <path class="cls-6" d="m184.7,151.01c.08-.12-.41-1.26,1.5-1.25.18.96-1.12.81-1.5,1.25Z"/>
        <path class="cls-6" d="m183.7,153.01c.09-.07-.49-.24,1-2-.06.09-.02.68-1,2Z"/>
        <path class="cls-24" d="m191.2,181c-.02.66.01,1.33,0,2-4.96.71-3.19.76-3.5,5-6.27-.16-6.02,1.44,0,2-.05,2.92.37,5.62.5,8.5l-5.5,1c-.46-2.56-.85-5.41-1-8-.11-1.96-.05-4.03,0-6,7.83,1.74,4.19-4.91,9.75-16-.23,3.83-.11,7.67-.25,11.5Z"/>
        <path class="cls-1" d="m204.2,179c-2.79,5.72-4.73,8.75-4,15.5.45,4.15,1.31,4.08,2,6.5l-5-1.5c.3-13.31,1.15-15.39,9-25.49-.05,1.79-1.23,3.43-2,5Z"/>
        <path class="cls-48" d="m195.7,200.99c.2.45.51,1.43,1,1.5.08,1.75.8,4.11,1,6h-5c-.6-2.5-1.21-4.94-1.5-7.5h4.5Z"/>
        <path class="cls-53" d="m192.7,189c.62,4.06,1.36,8.2,3,12h-4.5c-.04-.33.03-.67,0-1-.32-3.31-.47-8.56-.5-12l2,1Z"/>
        <g>
          <path class="cls-6" d="m221.19,139.51c-.27,6.24.28,12.51-.5,18.74-1.42,1.36-2.76,2.72-4,4.25-2.58,3.18-7.35,7.45-10.5,11.5-7.85,10.1-8.7,12.18-9,25.49-.01.64-.52,2.46-.5,3-.49-.06-.8-1.04-1-1.5-1.64-3.8-2.38-7.94-3-12-.43-2.81-.08-6.29-1.5-8,.14-3.82.02-7.67.25-11.5-5.56,11.08-1.91,17.73-9.75,16,.02-.83-.06-1.68,0-2.5,3.28.41,2.17-1.72,0-3,1.36-9.93,8.64-18.03,13-26.49.42-.82,1.26-2.29,1.5-3,2.56,1.04,2.36-.22,3.5-2,.19-.29.19-2.2,1.25-2,.74.41-.67,1.4,1.25,2,.31.1.57-.15.5-.5,5.3-2.94,11.08-5,17.25-5l1.25-3.5Z"/>
          <g>
            <path class="cls-49" d="m202.2,148.51c-1.91-.6-.51-1.59-1.25-2-1.06-.2-1.06,1.71-1.25,2-1.38-1.03.2-2.37,1.5-3,.68,1.07.34,1.98,1,3Z"/>
            <path class="cls-4" d="m208.2,162c-4.7,12.89-13.6,26.71-9.5,10,2.32,1.98,5.58-11.54,9.5-10Z"/>
            <path class="cls-44" d="m210.69,158.01c-1.33,1.87-.19,2.9-2.5,4-3.92-1.55-7.17,11.98-9.5,10,1.59-6.49,4.21-9.47,8-14.5,1.13-.47,3.06-3.12,3.25-3,.91.57-.9,2.92.75,3.5Z"/>
            <path class="cls-20" d="m214.19,154.01l-.5-4c1.18-1.11,10.61-11.8,6.5-1.75-.45,1.09-5.02,4.51-6,5.75Z"/>
            <path class="cls-21" d="m213.69,150.01l.5,4c-1.06,1.34-2.56,2.67-3.5,4-1.65-.58.16-2.93-.75-3.5-.19-.12-2.12,2.52-3.25,3,2.25-2.99,4.31-4.95,7-7.5Z"/>
            <path class="cls-48" d="m190.95,161c.22,5.23-2.81,9.98-4,15-1.66-.27,2.64-13.84,4-15Z"/>
            <path class="cls-39" d="m192.7,189l-2-1c-.03-3.39.49-4.66.5-5,.01-.67-.02-1.33,0-2,1.42,1.71,1.07,5.19,1.5,8Z"/>
            <path class="cls-8" d="m181.7,183c.07-.97-.13-2.06,0-3,2.17,1.28,3.28,3.41,0,3Z"/>
          </g>
        </g>
        <path class="cls-48" d="m207.2,180.5c-.15.47-.34,1.78-.5,2.5-.97,4.5-.98,7.5-1,12-2.36,1.67-3.13-.29-5.5-.5-.73-6.74,1.2-9.77,4-15.5,1.27,1.24.81,2.92,3,1.5Z"/>
        <path class="cls-45" d="m216.19,181c-.17,1.69.9,8.45,1.5,10l-3,3.5c-1.08-3-1.88-6.86-3-6.5.27-.6.71-.9,1-1.5.73-1.53,2.06-5.32,3.5-5.5Z"/>
        <path class="cls-6" d="m330.16,246.98c-5.31,15.64-12.86,26.51-28.24,33.49-1.44.23-.44-2.9-.75-6,8.91-3.19,15.23-9.49,19.99-17.5,1.96-3.29,3.37-7.03,5-10.5,2.18-.52-.19,2.78.75,3,.97.23-.46-2.83,3.25-2.5Z"/>
        <g>
          <path class="cls-49" d="m281.67,146.51c-.29,1.5,2.03.99,2,2.25-.01.55-5.28,8.32-6,9.25-5.93,7.62-16.87,12.29-22.49,30.24-1.48,4.71-1.87,9.93-3,14.75-.4,1.73-.86,3.47-1,5.25h-1c-.58-2.74-.53-5.47-.5-8.25.15-12.43,6.24-13.57,2.5-14,4.69-3.65,8.19-11.91,12-16.75.82-1.04,5.67-4.56,7.5-7.25.53-.78,2.04-1.69,2-5.5,5.2-5.04,1.48-2.22,2.5-5.75.39-1.36,6.63-7.3-6,4.25-7.72,7.07-14.75,14.72-21.74,22.49-.94-.44,1.91-6.19,2.25-7,1.68.64,6.23-6.42,11.25-11,2.36-2.15,7.94-5.35,8.25-5.75,1.9-2.44-2.61-.48-.75-2.25.57-.54,5.45-2.59,7.25-4.25-5.79-2.17-9.13,1.88-14,5.25-1.68,1.16-3.27,2.59-4.75,4-3.72.33,7.16-8.51,7.75-9,1.73,1.18,3.28-2.22,4.75-2.5.56-.11,5.26,1.01,11.25,1.5Z"/>
          <path class="cls-21" d="m273.68,156.51c-.56.54-2.96,2.01-3,2.25-.13.86,1.5.36,1,3.25-1.83,2.69-6.68,6.21-7.5,7.25-3.8,4.84-7.31,13.09-12,16.75-.17.13-.77.36-1,.5-.45.28-1.94,1.07-2.5.5,2.26-4.4,6.6-11.1,9.5-15.25,3.62-5.18,11.31-12.6,12-16.75,12.63-11.55,6.39-5.61,6-4.25-1.02,3.53,2.7.71-2.5,5.75Z"/>
          <path class="cls-17" d="m250.68,170.5c3.87-9.28,7-10.22,12-17.99,4.86-3.37,8.2-7.42,14-5.25-1.8,1.66-6.68,3.7-7.25,4.25-1.86,1.77,2.65-.19.75,2.25-.31.4-5.89,3.59-8.25,5.75-5.01,4.57-9.57,11.64-11.25,11Z"/>
          <path class="cls-24" d="m239.19,152.01c-.23,1.73.41,3.56-.5,5.25l1,.75c.55-.45,1.07-.35,1.5-.5-4.02,2.51-.55,7.03,2,14.5-2.17,3.26-4.64,6.24-6,10-.5-10.06.36-19.97,1-29.99h1Z"/>
          <path class="cls-48" d="m241.69,138.51c.05.01-.4.25,1,.5-5.98,4.89,12.06,3.31,16,5.5-3.91,3.29-7.76,6.14-12,9-.93.21.46-1.54,1-2,2.57-2.18,5.53-4.13,8.5-5.75.3-1.33-2.64-.54-6-.75-2.42-.15-3.7-.91-6.25,0-4.78,1.7-4.56,5.56-4.75,7h-1c.29-4.5,1.21-8.97,1.5-13.5.64.08,1.39-.13,2,0Z"/>
          <path class="cls-48" d="m251.18,186.5c-2.14,4.39-3.74,9.02-5,13.5-2.1,7.49-2.43,15.31-4,14.5-.14-1.68-.51-3.32-.5-5,0-.66-.04-1.34,0-2,.42-7.06,3.81-14.28,7-20.49.56.57,2.04-.22,2.5-.5Z"/>
          <path class="cls-7" d="m244.19,173c-5.85,13.89.09,9.46,3,8.5.19,1.29-1.37,1.84-1.5,2-5.26,0-3.44,1.52-3.5,5.5-2.09,2.64.58-2.53-3-3-.08-4.3-1.17-2.43-1.5,2h-2c.49-2.03.79-4.02,1.5-6,1.36-3.76,3.82-6.73,6-10,.08-.11-.08-.39,0-.5l1,1.5Z"/>
          <path class="cls-1" d="m242.19,193.5c-1.89-1.57-1.15,5.45-1.5,6.25-.46,1.04-2.93.71-4,1.25.1-1.18.37-2.3.5-3.5.13-1.14.76-2.71,1-4.5.29-2.19,1.03-5.37,1-7,3.58.47.91,5.64,3,3,1.06-.51,1.45-3,3.5-5.5.13-.16,1.69-.71,1.5-2,.55-.18,1.31-.6,1.75-1l.25.75c-2.66,3.9-5.81,7.61-7,12.25Z"/>
          <path class="cls-21" d="m259.68,142.51c.05.02-.17.68,1,.5-1.12,1-1.71,1.26-2,1.5-3.94-2.18-21.97-.6-16-5.5,3.49.62,15.18,2.64,17,3.5Z"/>
          <path class="cls-32" d="m283.67,147.01c-1.42-.14-.69-.61-1.75-1.5-.4-.02-.2,1-.25,1-5.98-.48-10.69-1.61-11.25-1.5-1.47.28-3.02,3.68-4.75,2.5,1.15-.95,3.68-3.7,4.75-5,7.17,1.95,14.7-.14,13.25,4.5Z"/>
          <path class="cls-4" d="m283.67,147.01c1.39.13,2.68.18,4-.5.77.16,1.25,1.3,1.5,2,.25.71.49,1.33,0,2-1.54-1.56-.97-2.77-2.75-2.5-2.68,3.58-5.26,7.29-7.75,11l-1-1c.72-.93,5.98-8.7,6-9.25.03-1.26-2.29-.75-2-2.25.05,0-.15-1.02.25-1,1.06.89.33,1.36,1.75,1.5Z"/>
          <path class="cls-44" d="m247.68,151.51c-.54.46-1.93,2.21-1,2-.76.51-2.91,3.11-5.5,4-.42.15-.95.05-1.5.5-.12-3.54,3.27-5.73,5.5-8l2.5,1.5Z"/>
          <path class="cls-44" d="m244.19,173l-1-1.5c3.19-4.67,6.96-9.33,11.5-12.75-2.96,5.03-8.18,8.75-10.5,14.25Z"/>
          <path class="cls-9" d="m241.69,209.49h-.5c-.02-.66,0-1.33,0-2h.5c-.04.66,0,1.34,0,2Z"/>
          <path class="cls-1" d="m278.68,159.01c-1.07,1.59-7.72,12.29-8,13-3.54-.35-6.93,7.53-8,10.5-1.03,2.85-1.34,5.94-2.5,8.75l.75.75c.45-3.71,3.18-.71,4-1,1.35-.49,2.92-12.39,4.75-14-1.15,3.96-3.68,15.19-4.5,19.49-1.59.33,1.13-6.9-.75-2-1.47.17-4.55-.24-5,0-.52.28-4.1,10.37-4.25,11-.9-1.15-1.22-2.93-3-2.5,1.13-4.82,1.52-10.03,3-14.75,5.62-17.95,16.56-22.63,22.49-30.24l1,1Z"/>
          <path class="cls-7" d="m265.18,196.49c-.09.47.09,1.03,0,1.5-.48,2.62-1.69,5.28-2,8-.37,3.2-.58,6.27-.5,9.5-3.3,1.2-6.62,5.81-9,5.25-.5-.83,1.06-13.4,1.5-15.25.15-.62,3.73-10.72,4.25-11,.45-.24,3.53.17,5,0,1.88-4.9-.84,2.33.75,2Z"/>
          <path class="cls-48" d="m237.19,197.49c-.13,1.2-.4,2.32-.5,3.5-.74,8.77.03,17.29-.75,25.99-3.51-7.9-3.23-14.61-3.25-22.99,1.29-.06,1.25-4.5,1.5-6.5h3Z"/>
          <path class="cls-1" d="m233.69,230.49c-1.73-1.12-1.15,9-1,9.5.2.67,3.18,3.71,4,4.5,1.76,1.71,1.11,2.45,1.25,2.5.91.05,1.84-.08,2.75,0-.28.2,1.09,2.74-5.5,1l-6-6c.08-2.26.98-1.34,1-1.75.23-4.53.23-9,1-13.5h1c.52,1.24.95,2.52,1.5,3.75Z"/>
          <path class="cls-1" d="m252.18,243.48c-.33-.01-.67.02-1,0-2.99.03-4.63-9.49-2.75-9,.38.1,1.69,1.96,2,2,.79.1,1.82-5.04,8.75,6.25l-7,.75Z"/>
          <path class="cls-7" d="m233.69,230.49c1.17,2.61,3.46,9.35,5.5,11-.93,1.37-1.44.94-1.5,1-2.14-.64-2.64-3.04-5-2.5-.15-.5-.73-10.62,1-9.5Z"/>
          <path class="cls-1" d="m249.68,199.99h-3.5c1.26-4.47,2.85-9.11,5-13.5.23-.14.83-.37,1-.5,3.74.43-2.35,1.57-2.5,14Z"/>
          <path class="cls-9" d="m251.18,243.48c.33.02.67-.01,1,0,2.75.08,4.68.19,7.5,0-.08,6.77-2.79,1.34-13.5,2l2.5-2c.84.09,1.75-.04,2.5,0Z"/>
          <path class="cls-24" d="m242.19,242.98l1,2.5c-1.96.43-2.22,1.3-2.5,1.5-.9-.08-1.84.05-2.75,0-.14-.05.51-.79-1.25-2.5-1.06-3.83.51-.54,1.25-1,.57-.35-.51-.74-.25-1,.06-.06.57.37,1.5-1,.33.27,2.53,1.36,3,1.5Z"/>
          <path class="cls-12" d="m242.19,214.49c.31,3.82,1.42,7.48,2,11.25l-3-7.5c.34-2.85.08-5.88,0-8.75h.5c-.01,1.68.36,3.32.5,5Z"/>
          <path class="cls-47" d="m248.68,243.48l-2.5,2c-1,.06-2.29-.16-3,0l-1-2.5c1,.29,4.76.31,6.5.5Z"/>
          <path class="cls-45" d="m235.19,247.98c-3.93-1.04-4.59-4.55-5.5-4.5.02-.53-.56.25-.5-1.5l6,6Z"/>
          <path class="cls-41" d="m234.19,194.5c-.15.92.12,2.05,0,3-.25,2-.21,6.44-1.5,6.5,0-3.02.41-6.4.5-9.5h1Z"/>
          <path class="cls-42" d="m271.68,162c.5-2.88-1.13-2.39-1-3.25.03-.24,2.44-1.71,3-2.25.04,3.81-1.47,4.72-2,5.5Z"/>
          <path class="cls-6" d="m250.18,145.01c-1.78,1.58-3.34,3.31-5,5-2.23,2.27-5.62,4.46-5.5,8l-1-.75c.91-1.69.27-3.52.5-5.25.19-1.43-.04-5.3,4.75-7,2.55-.91,3.82-.15,6.25,0Z"/>
          <path class="cls-17" d="m247.68,151.51l-2.5-1.5c1.66-1.69,3.22-3.42,5-5,3.36.21,6.29-.58,6,.75-2.97,1.62-5.93,3.56-8.5,5.75Z"/>
          <path class="cls-28" d="m237.69,188c-.16,2.09-.17,5.02.5,5-.24,1.78-.87,3.36-1,4.5h-3c.12-.95-.15-2.08,0-3,.29-1.82,1.04-4.59,1.5-6.5h2Z"/>
          <path class="cls-47" d="m245.68,183.5c-2.05,2.5-2.44,4.99-3.5,5.5.06-3.98-1.76-5.49,3.5-5.5Z"/>
          <path class="cls-8" d="m239.19,186c.03,1.63-.71,4.81-1,7-.67.02-.66-2.91-.5-5,.33-4.43,1.42-6.3,1.5-2Z"/>
          <path class="cls-44" d="m270.18,175c.25,2.27-.47,1.9-.5,2-1.82,1.6-3.4,13.51-4.75,14-.82.29-3.55-2.71-4,1l-.75-.75c1.16-2.81,1.47-5.9,2.5-8.75l7.5-7.5Z"/>
          <path class="cls-47" d="m270.68,172c-.24.61,1.29,1.66-.5,3l-7.5,7.5c1.07-2.96,4.46-10.84,8-10.5Z"/>
          <path class="cls-8" d="m237.69,242.48c-.26.26.82.65.25,1-.74.46-2.31-2.83-1.25,1-.82-.79-3.8-3.83-4-4.5,2.36-.54,2.86,1.86,5,2.5Z"/>
        </g>
        <path class="cls-48" d="m188.2,198.49c.05,1.15.39,2.52.5,4.5.55,9.72.23,16.67-4.5,3.25-.77-2.17-1.1-4.49-1.5-6.75l5.5-1Z"/>
        <path class="cls-1" d="m191.2,183c0,.34-.53,1.6-.5,5,.03,3.44.18,8.68.5,12l-2.5,3c-.11-1.98-.45-3.35-.5-4.5-.13-2.87-.55-5.58-.5-8.5.01-.66-.05-1.34,0-2,.31-4.24-1.46-4.28,3.5-5Z"/>
        <path class="cls-7" d="m197.7,208.49c.56,5.2,3.14,13.38,1.75,13.5-4.14-3.54-5.54-8.45-6.75-13.5h5Z"/>
        <path class="cls-3" d="m187.7,188c-.05.66.01,1.34,0,2-6.02-.56-6.27-2.16,0-2Z"/>
        <g>
          <path class="cls-49" d="m309.67,145.01c-1.89,1.93-3.58,4.05-3,7-2.67,2.09-4.62,4.01,0,5-2.69,1.76-5.5,4.73-8,6.75l.75.75c3.84-3.07,9.85-3.99,13-6,2.2.82,4.94-1.58,11.75-2.5.77-.1,1.22.11,2-.5.12.14-.34,1.66,3,1.5.42,3.09,1.73,5.99,2.5,9-3.67,12.79-1.67-5.58-10.25-7-11.64-1.92-21.12,7.74-26.74,16.75-11.03,17.67-14.36,39.77-9,59.73-2.71-.42-2.49,2.87-5,.5-.78-2.73-1.45-1.88-1.5-2-.73-1.74-2.26-10.94-2.5-13.25-.34-3.31.27-6.97,0-10.25-.22-2.64-.74-4.97-1-7.5l2-14c2.63-5.97,8.81-15.17,6.75-15.5-5.65,4.45,5.78-6.38,5.75-8.75-.05-3.23-2.92,1.32-1-2.75,3.88.06,6.76-6.78,8.5-6-1.51,2.51-.46,2.38-.5,2.5-.26.83-1.5,1.53-1.5,1.75-.04,2.81,7.37-1.43,2-1.75,1.4-3.57,6.19-4.76,6-9,2.31-2.44,2.05-4.95,6-4.5Z"/>
          <path class="cls-48" d="m319.16,144.51c-.2.14-3.34,3.61-2.75,4,1.73-2.02,7.99-.81,10.25,1,1.28,2.68,2.02-1.33,4-.25-1.73,2.2-1.81,5.47-1.5,7.75-3.34.16-2.88-1.36-3-1.5-1.65-2-.05-2.2-1.5-3.5-3.93-3.51-14.13,2.47-17.99,5-4.62-.99-2.67-2.9,0-5,3.3-2.59,8.12-2.94,8-5.5.31-.02,3.76-1.66,4-2.5,0,.03.55-.12.5.5Z"/>
          <path class="cls-7" d="m326.66,149.51c-2.26-1.81-8.52-3.02-10.25-1-.59-.39,2.55-3.86,2.75-4,3.8-2.76,4.42-1.84,5.25,2.5.64-7.55,6.52-1.29,2.25,2.5Z"/>
          <path class="cls-33" d="m270.68,255.48c4.03-1.53-.18-2.99,1-6.25-1.59.77-1.21.96-3,.75l-1.5-13c.91-5.38-.08-7.5,2.5-3.5.26.4-.33,2.72,1,.5,1.01-1.7,1.48-6.81,1.5-9,.04.12.95.38,1,2.25-4.06,6.85,3.94,34.31,3.5,36.49-2.37,2.57-1.54-6.51-6-8.25Z"/>
          <path class="cls-6" d="m268.68,249.98c-.99-.12-1.54-.35-2.5-.5-.07-1.25-.08-3.58-1-4.5-1.23-1.23-3.71-.48-5-1.5,2.07-.22,4.23.45,6.25-.5.24-2.02.41-3.99.75-6l1.5,13Z"/>
          <path class="cls-16" d="m270.68,233.98c-1.33,2.22-.74-.1-1-.5.72-1.5,1.16-1.17,1,.5Z"/>
          <path class="cls-33" d="m321.16,256.98c-4.77,8-11.08,14.31-19.99,17.5-.57-5.58-.71-1.76-1.75-1.5-.08.02-.47-.82-1.5-.5-1.48.46-4.15,2.31-8.75,3-.32.05-.67-.03-1,0-2.83-2.83-7.8-6.44-9-10,1.48-2.24,2.06.95,3.25,1.5,8.11,3.73,16.62.5,23.99-3.5.15,1.29-4.24,6.58-2.5,6.5,9.31-5.45,14.45-13.1,19.99-21.99l.75.25-3.5,8.75Z"/>
          <path class="cls-16" d="m330.16,246.98c-3.71-.34-2.27,2.73-3.25,2.5-.94-.22,1.43-3.52-.75-3,1.93-4.1,2.38-7.4,2-.25,2.41-5.82.9-5.46,1-5.75.97-2.72,3.28-3.83,3-6.25-1.66.33-3.01,3.09-4.25,3.75-3.82,2.02,4.16-4.65,5.25-6.75,1.24-2.4,1.35-5.03,2.5-7.75-.98,7.93-2.92,15.9-5.5,23.49Z"/>
          <g>
            <path class="cls-6" d="m340.16,195.5c.38,4.71-.69,22.48-2,25.99-.07.18-2.11,1.08-2.5,2-1.15,2.72-1.26,5.35-2.5,7.75-1.09,2.1-9.06,8.77-5.25,6.75,1.24-.66,2.59-3.42,4.25-3.75.29,2.42-2.03,3.53-3,6.25-2.03.9-2.84,2.77-3.25,2.5-.13-.08-1.25-2.6-1.25-2.75-.02-.71,4.32-11.33,5-13.25,1.34-3.77,1.03.54,2-2.25,3.93-11.36,5.09-23.85,6.5-35.74,3.97,2.51.59,1.75,1,4.25.02.12.96,1.76,1,2.25Z"/>
            <path class="cls-52" d="m334.41,218.49c2.47,7.42-9.34,20.24-.25,4.25l.25-4.25Z"/>
          </g>
          <path class="cls-48" d="m285.67,235.48c1.74,6.48,3.1,11.49,8.5,16-1.32-.23-2.14,1.74-2.5,2-1.63,1.18-1.91.93-2,1,2.54-8.36-4.28,2.3-5.5.25l-3.5-18.74c2.51,2.37,2.29-.92,5-.5Z"/>
          <path class="cls-23" d="m294.17,251.48c.56.47.71,1.03,1.5,1.5-.94,1.31-2.67,1.17-4,.5.36-.26,1.18-2.23,2.5-2Z"/>
          <path class="cls-33" d="m324.66,152.01l-.5,4c-6.81.92-9.55,3.32-11.75,2.5-3.15,2.01-9.16,2.93-13,6l-.75-.75c2.5-2.02,5.3-4.98,8-6.75,3.86-2.53,14.07-8.5,17.99-5Z"/>
          <path class="cls-1" d="m276.68,210.49c.27,3.28-.34,6.94,0,10.25.24,2.31,1.76,11.51,2.5,13.25-10.07,14.61-1.52-18.49-4.5-25.24l2,1.75Z"/>
          <path class="cls-37" d="m314.67,146.51c.12,2.55-4.69,2.91-8,5.5-.59-2.95,1.11-5.07,3-7,2.16.25,3.91,1.56,5,1.5Z"/>
          <path class="cls-8" d="m297.67,158.51h-.5c.04-.12-1.01,0,.5-2.5.87-1.45,4.55-4.97,6-6.5.19,4.24-4.6,5.42-6,9Z"/>
          <path class="cls-48" d="m297.17,158.51h.5c5.37.32-2.04,4.56-2,1.75,0-.22,1.24-.92,1.5-1.75Z"/>
          <path class="cls-22" d="m326.16,155.51c-.78.61-1.23.4-2,.5l.5-4c1.45,1.3-.15,1.5,1.5,3.5Z"/>
          <g>
            <path class="cls-34" d="m314.67,136.51c1.65,1.84,3.3,5.07,4,7.5-.23.84-3.69,2.48-4,2.5-1.09.06-2.84-1.25-5-1.5-3.95-.45-3.68,2.06-6,4.5-1.45,1.53-5.12,5.05-6,6.5-1.74-.79-4.62,6.05-8.5,6,2.83-6,17.76-18.43,17.99-19.74.02-.12-.83-1.92-1-2.25,2.15-1.99,6.26-1.31,8-4,.2.19.31.28.5.5Z"/>
            <path class="cls-49" d="m314.17,136.01c-1.74,2.69-5.85,2.01-8,4-.14-.27-3.55-3.07-3.5-5,4.35,3.25,4.46-5.62,11.5,1Z"/>
          </g>
          <path class="cls-21" d="m298.17,140.01c-.21,1.93,1,1.56,0,3.75-.23.51-6.23,7.5-7.5,8.25-.52-.45-1.01-1.01-1.5-1.5.49-.67.25-1.29,0-2,3.34-1.77,5.64-6.15,8.5-9,.38-.05.54.12.5.5Z"/>
          <path class="cls-6" d="m263.18,205.99c.31-2.72,1.52-5.38,2-8,2.55,1.99,4.39-1.86,6,.75.54.87,3.56,13.26.75,13.25-2.59-.01-5.95-6.19-8.75-6Z"/>
          <path class="cls-4" d="m290.67,152.01c1.27-.75,7.27-7.74,7.5-8.25,1-2.19-.21-1.82,0-3.75,10.61-1.6.33,5.69-6.75,13.5-1.02-.69-.69-1.44-.75-1.5Z"/>
          <g>
            <path class="cls-6" d="m302.67,135.01c-.05,1.93,3.36,4.73,3.5,5,.17.33,1.02,2.13,1,2.25-.23,1.32-15.16,13.74-17.99,19.74-1.92,4.07.95-.48,1,2.75.03,2.37-11.4,13.2-5.75,8.75,2.07.32-4.11,9.52-6.75,15.5-.99,2.25-2.8,4.31-3.5,6.75-.08.87,1.37,5.99,1.5,7.25.26,2.53.78,4.86,1,7.5l-2-1.75c2.97,6.75-5.57,39.85,4.5,25.24.05.12.72-.73,1.5,2l3.5,18.74c1.22,2.05,8.03-8.61,5.5-.25-.04.03-.22-.03-1,.5-1.31.89-1.94,3.04-3.25,3-12.85-10.78-9.11-15.65-6.25,7.5,1.2,3.56,6.17,7.17,9,10-.49.04-1,0-1.5,0h-2.5c-1.87-.32-1.36-3.39-2.5.5-4.37-3.09-6.46-3.88-9.5-9-1.31-3.9-3.15-7.66-4-11.75.27-.56,2.08.09,2.5.25,4.45,1.73,3.63,10.82,6,8.25.44-2.18-7.56-29.64-3.5-36.49-.05-1.87-.96-2.13-1-2.25-.96-2.56-4.82-6.88-6.25-10-1.69.08.52,14.22.25,15.75-1.07,6.15-3.45-13.1-3.5-15.25-.08-3.23.13-6.3.5-9.5,2.8-.19,6.16,5.99,8.75,6,2.81.01-.21-12.38-.75-13.25-1.6-2.61-3.45,1.24-6-.75.09-.47-.09-1.03,0-1.5.81-4.3,3.35-15.53,4.5-19.49.03-.1.75.27.5-2,1.79-1.34.26-2.39.5-3,.28-.71,6.93-11.41,8-13,2.49-3.71,5.07-7.42,7.75-11,1.77-.27,1.21.94,2.75,2.5.49.49.98,1.05,1.5,1.5.06.05-.27.81.75,1.5,7.08-7.8,17.35-15.09,6.75-13.5.04-.38-.11-.55-.5-.5.84-.83,4.22-4.43,5-4.5Z"/>
            <g>
              <path class="cls-13" d="m275.68,202.99c-.13-1.26-1.58-6.38-1.5-7.25.7-2.44,2.51-4.5,3.5-6.75l-2,14Z"/>
              <path class="cls-2" d="m274.18,241.98l3.5-1.5c1.26,1.36,3.32,10.86,2.75,11-1.45-3.7-5.8-5.45-6.25-9.5Z"/>
              <path class="cls-40" d="m273.93,171c6.58,5.72,9.48,4.92,4.5,9l-.75-.75c5.69-4.02-2.34-3.06-3.75-8.25Z"/>
              <path class="cls-33" d="m277.68,240.48l-3.5,1.5c-.38-3.4,1.13-4.06,3.5-1.5Z"/>
              <path class="cls-43" d="m286.67,275.47c-.81,0-1.7.13-2.5,0h2.5Z"/>
            </g>
          </g>
          <g>
            <path class="cls-1" d="m329.66,226.99c-.68,1.91-5.02,12.54-5,13.25,0,.15,1.12,2.66,1.25,2.75.41.27,1.22-1.59,3.25-2.5-.1.29,1.41-.07-1,5.75.38-7.15-.07-3.85-2,.25-1.63,3.47-3.04,7.21-5,10.5l3.5-8.75-.75-.25c-5.55,8.9-10.68,16.55-19.99,21.99-1.74.08,2.65-5.21,2.5-6.5-7.37,4-15.88,7.23-23.99,3.5-1.19-.55-1.77-3.74-3.25-1.5-2.86-23.15-6.6-18.28,6.25-7.5,1.31.04,1.94-2.11,3.25-3,.06.92.79.2,1-.5.09-.07.37.18,2-1,1.33.67,3.06.81,4-.5,22.88,13.47,30.38-23.58,32.49-25.74.43-.44.98-.21,1.5-.25Z"/>
            <path class="cls-48" d="m289.67,254.48c-.21.7-.94,1.42-1,.5.78-.53.96-.47,1-.5Z"/>
            <path class="cls-15" d="m278.93,253.48c.62-.41,4.8,2.72,2.5,8-2.18-.69-1.18-5.43-1.25-5.75-.09-.4-2.64-1.33-1.25-2.25Z"/>
          </g>
          <g>
            <path class="cls-33" d="m334.66,162.5c.08.37.98,6.96,1,7.5.14,3.3-.09,8.94-2.25,3.5-1.21-.21-.6,1.39-.75,1.5-.27.19-1.62-.32-2,.25.57,5.31.17,6.81,3,11.25,1.19,1.87,3.12,4.67,3.5,3.75,1.74-7.43.38-17.2,2-4-.85.78-.88,1.7-1,2.75-1.41,11.89-2.56,24.38-6.5,35.74-.96,2.79-.66-1.52-2,2.25-.52.03-1.07-.19-1.5.25-2.11,2.16-9.61,39.21-32.49,25.74-.79-.46-.94-1.03-1.5-1.5-5.4-4.5-6.76-9.51-8.5-16-5.36-19.96-2.03-42.06,9-59.73,5.62-9,15.11-18.67,26.74-16.75,8.58,1.42,6.58,19.79,10.25,7,1.14-3.98,1.15-12,3-3.5Z"/>
            <path class="cls-38" d="m332.66,175l1,11.5c-2.83-4.43-2.43-5.93-3-11.25.38-.57,1.73-.06,2-.25Z"/>
            <path class="cls-6" d="m333.41,187.5c3.68,5.75,1.94,4.49,1.5,10,1.76-4.95,1.87,1.68,0,9l-1.5-18.99Z"/>
            <g>
              <path class="cls-6" d="m311.42,175c5.7-.3,10.97,5.9,12.75,10.75,9.51,25.89-13.94,77.69-31.49,42.99-1.52-13.29-.44-29.75,6.5-42.49,2.22-4.07,7.22-10.98,12.25-11.25Z"/>
              <g>
                <path class="cls-33" d="m309.42,186c12.23-1.24,15.54,25.24,7.25,38.24-2.88,4.52-4.12,5.72-9.75,4.25-17.88-4.67-7.22-41.5,2.5-42.49Z"/>
                <path class="cls-48" d="m317.41,207.49c.44-.23,3.08.26,3.25,1.25.1.59-2.51,10.71-3,11.5-.57.92-4.08,3.17-4-1,.01-.62,3.21-11.46,3.75-11.75Z"/>
              </g>
            </g>
          </g>
        </g>
      </g>
    </g>
  </g>
</svg>