<?xml version="1.0" encoding="UTF-8"?>
<svg id="_Шар_2" data-name="Шар 2" xmlns="http://www.w3.org/2000/svg" viewBox="0 0 328.12 434.33">
  <defs>
    <style>
      .cls-1 {
        fill: #959b9e;
      }

      .cls-1, .cls-2, .cls-3, .cls-4, .cls-5, .cls-6, .cls-7, .cls-8, .cls-9, .cls-10, .cls-11, .cls-12, .cls-13, .cls-14, .cls-15, .cls-16, .cls-17, .cls-18, .cls-19, .cls-20, .cls-21, .cls-22, .cls-23, .cls-24, .cls-25, .cls-26, .cls-27, .cls-28, .cls-29, .cls-30, .cls-31, .cls-32, .cls-33, .cls-34, .cls-35, .cls-36, .cls-37, .cls-38, .cls-39, .cls-40, .cls-41, .cls-42, .cls-43, .cls-44, .cls-45, .cls-46, .cls-47, .cls-48, .cls-49, .cls-50, .cls-51, .cls-52, .cls-53, .cls-54, .cls-55, .cls-56, .cls-57, .cls-58, .cls-59 {
        stroke-width: 0px;
      }

      .cls-2 {
        fill: #dbd9d3;
      }

      .cls-3 {
        fill: #3b2621;
      }

      .cls-4 {
        fill: #b8aea8;
      }

      .cls-5 {
        fill: #665944;
      }

      .cls-6 {
        fill: #a3745f;
      }

      .cls-7 {
        fill: #dbb4a1;
      }

      .cls-8 {
        fill: #5d5c60;
      }

      .cls-9 {
        fill: #773d29;
      }

      .cls-10 {
        fill: #f3e1d3;
      }

      .cls-11 {
        fill: #8f8784;
      }

      .cls-12 {
        fill: #442518;
      }

      .cls-13 {
        fill: #aa907a;
      }

      .cls-14 {
        fill: #735e57;
      }

      .cls-15 {
        fill: #fcf6ed;
      }

      .cls-16 {
        fill: #d4a685;
      }

      .cls-17 {
        fill: #eacab7;
      }

      .cls-18 {
        fill: #645042;
      }

      .cls-19 {
        fill: #4b433c;
      }

      .cls-20 {
        fill: #d8ccbf;
      }

      .cls-21 {
        fill: #ccb7a8;
      }

      .cls-22 {
        fill: #595c58;
      }

      .cls-23 {
        fill: #563d2a;
      }

      .cls-24 {
        fill: #e8edef;
      }

      .cls-25 {
        fill: #96948f;
      }

      .cls-26 {
        fill: #885f4e;
      }

      .cls-27 {
        fill: #8a5136;
      }

      .cls-28 {
        fill: #817159;
      }

      .cls-29 {
        fill: #83898a;
      }

      .cls-30 {
        fill: #a4978d;
      }

      .cls-31 {
        fill: #997e72;
      }

      .cls-32 {
        fill: #a1a59f;
      }

      .cls-33 {
        fill: #4b535a;
      }

      .cls-34 {
        fill: #c5cacb;
      }

      .cls-35 {
        fill: #171512;
      }

      .cls-36 {
        fill: #b7a593;
      }

      .cls-37 {
        fill: #735343;
      }

      .cls-38 {
        fill: #29140a;
      }

      .cls-39 {
        fill: #b4b5b5;
      }

      .cls-40 {
        fill: #684537;
      }

      .cls-41 {
        fill: #d5c8c4;
      }

      .cls-42 {
        fill: #776b5e;
      }

      .cls-43 {
        fill: #656768;
      }

      .cls-44 {
        fill: #737474;
      }

      .cls-45 {
        fill: #b08572;
      }

      .cls-46 {
        fill: #464b48;
      }

      .cls-47 {
        fill: #3e1608;
      }

      .cls-48 {
        fill: #1d120e;
      }

      .cls-49 {
        fill: #bc9782;
      }

      .cls-50 {
        fill: #675f54;
      }

      .cls-51 {
        fill: #3b2710;
      }

      .cls-52 {
        fill: #967c61;
      }

      .cls-53 {
        fill: #d5b597;
      }

      .cls-54 {
        fill: #2b302f;
      }

      .cls-55 {
        fill: #7b7f79;
      }

      .cls-56 {
        fill: #938273;
      }

      .cls-57 {
        fill: #81644f;
      }

      .cls-58 {
        fill: #563529;
      }

      .cls-59 {
        fill: #582313;
      }
    </style>
  </defs>
  <g id="_Шар_1-2" data-name="Шар 1">
    <g>
      <path class="cls-24" d="m54.69,62.73c.94-.49,10.43,1.7,12.74,1.75l-10.74.75c-6.37,12.63-3.44-1.76-2-2.5Z"/>
      <g>
        <path class="cls-18" d="m318.16,146.14c-1.27.56-16.25,17.35-18.98,20.23-3.05,3.21-.24,6.34-5.99-1.25.45.06.54-.55,1-.5.09,0,.6,1.08,1.75.5.99-.5,9.56-12.44,14.23-16.98,7.16-6.96,7.48-7.19,7.99-2Z"/>
        <path class="cls-24" d="m310.16,148.14c-4.67,4.55-13.25,16.48-14.23,16.98-1.15.58-1.66-.49-1.75-.5,2.67-4.94,11.01-12.49,15.98-16.48Z"/>
        <g>
          <path class="cls-24" d="m323.15,143.15c-.86.78-2.5.89-3.5,1.5-.4-.14-.6,1.06-1.5-.25l6.74-6.24c-.28,2.42-.18,3.57-1.75,4.99Z"/>
          <path class="cls-41" d="m234.75,79.21c-1.36-1.34-1.99-2.33-3-2,1.6-3.7,6.29,1.2,3,2Z"/>
          <path class="cls-18" d="m319.65,144.64c1-.61,2.64-.72,3.5-1.5-.23,3.12-2.05,2-3.5,1.5Z"/>
          <path class="cls-1" d="m212.77,401.87c-1.67-.25-2.8.52-1.5-2,.17.01.89-1.71,1.5,2Z"/>
        </g>
      </g>
      <g>
        <path class="cls-24" d="m43.95,341.43c1.9,4.27,5.49,7.68,7.99,11.49.04.07-.2.43.5,1.5,2.06,3.16,4.18,6.17,5.99,9.49-5.41-6.35-9.84-13.26-14.73-19.98-2.38.43-10.35-4.56-11.24-5.99,3.88-.09,8.63,7.2,11.49,3.5Z"/>
        <path class="cls-39" d="m52.94,344.43c4.62,7.59,8.31,11.25,3.25,10.49-1.36-.2-1.27-2.44-3.75-.5-.7-1.07-.46-1.43-.5-1.5,6.6-1.11-5.15-7.16,1-8.49Z"/>
        <path class="cls-24" d="m58.44,363.91c.41.48,1.56.92,1.25,2-1.07.16-1.02-1.58-1.25-2Z"/>
      </g>
      <g>
        <path class="cls-11" d="m234.75,43.25c-.29.85-.33,1.18-.5,2-2.23-1.36-2.27.15-3,2-.08-.12-.98-.93-1-1-1.19-4.45.86-4.31,4.5-3Z"/>
        <path class="cls-44" d="m237.24,39.26c-.83.89-1.44,1.91-2,3-4.22-1.04-1.66-2.69,2-3Z"/>
        <path class="cls-34" d="m237.24,52.74l3,1c2.13,5.82,7.98,7.55,13.74,8.49l3.25,5.99c-9.65,6.23-16.75-4.24-17.73-4-.57.14-.54,6.09-5.74-2.25-1.9-3.05-2.94-7.22-3.5-10.74,2.85.45-.22,7.5,6.99,1.5Z"/>
        <g>
          <path class="cls-24" d="m262.72,63.23c-5.22.18-.47,1.75-5.49,4.99l-3.25-5.99c-5.75-.94-11.6-2.67-13.74-8.49-1.41-3.84.4-8.37-3-1-7.21,6-4.14-1.05-6.99-1.5-.25-1.6-.38-3.37-.5-4.99h.5c.02.07.92.87,1,1,.1.16,2.13,1.6,2.75,2.5.54-.35-.31-1.86.25-4.5.17-.82.21-1.15.5-2,.12-.37.32-.66.5-1,.56-1.08,1.17-2.11,2-3,5.09-5.46,12.59-6.35,19.73-4.99,2.02,6.23,8.16,5.94,9.24,13.24.88,5.96-.8,10.67-3.5,15.73Z"/>
          <g>
            <g>
              <path class="cls-55" d="m250.73,55.74c-8.17-2-5.53-8.9-2-10.49,5.9,2,.6,5.7,2,10.49Z"/>
              <path class="cls-34" d="m252.73,56.24c1.04-3.9,3.2-7.68.5-10.99.37.05.7-.77,1.75-.5,5.06,3.95,5.83,11.29-2.25,11.49Z"/>
              <path class="cls-32" d="m253.23,45.25c2.7,3.31.54,7.09-.5,10.99-2.47.06-1.9-.47-2-.5-1.4-4.79,3.9-8.48-2-10.49,1.34-.6,3.09-.19,4.5,0Z"/>
            </g>
            <path class="cls-24" d="m240.24,53.74l-3-1c3.4-7.37,1.59-2.84,3,1Z"/>
            <path class="cls-14" d="m234.25,45.25c-.56,2.63.29,4.14-.25,4.5-.62-.9-2.65-2.34-2.75-2.5.73-1.85.76-3.36,3-2Z"/>
          </g>
        </g>
      </g>
      <g>
        <path class="cls-34" d="m106.88,73.72c.16-.04.34.04.5,0,.59,1.74-10.24,4.48-13.98,5.99,1.2-2.21-1.94.37-1.5-1.5,5.05-1.5,9.8-3.28,14.98-4.5Z"/>
        <path class="cls-34" d="m10.49,163.12c1.06-2.3,2.78-4.27,4-6.49,1.88,2.39-.1,14.05-4,6.49Z"/>
        <path class="cls-24" d="m231.75,77.72c-.41,1.3.52,2.28.5,2.5-.44,4.26-.48,8.22-.5,12.49-2.3-1.63-4.95-2.08-7.49-3-3.84-2.17-7.7-4.13-11.99-5.24-.64,1.23,10.73,4.79,11.99,5.24,1.98,1.12,5.46,2.3,4.99,3.25-4.22-1.39-6.98-1.37-11.24-1.75-1.95-1.98-5.18-3.56-7.74-4.5-1.63-.59-4.9-1.34-6.74-1.5l-13.49-6.49c-2.02.64-5.13,1.17-6.24-.5-.52-3.92.34-11.84,0-16.98,6.32,1.52,12.69,3.63,18.73,5.99,9.5,3.71,23.13,11.32,24.47,11.49,1.28.16,3.08-1.36,4.74-1Z"/>
        <path class="cls-24" d="m310.66,319.46c-7.87,15.49-18.21,27.53-31.22,38.96-11.28,9.91-34.44,26.52-48.7,29.97-.22.05-4.45.66-4.5,0,5.35-1.79,18.73-6.63,17.48-10.49,12.73-7.55,18.93-14.61,29.22-23.97.19-.18,1.3.18,1.5,0,.83-.76,1.5-2.8,5.49-6.49.19-.18,1.31.18,1.5,0,12.05-11.2,9.04-13.49,18.48-22.48.5,5.99-10.97,16-4.5,11.99,6.38-3.96,9.18-13.74,15.23-17.48Z"/>
        <path class="cls-39" d="m230.25,388.88c-1.94,4.16-2.69,2.21-3,2.75,2.48,4.27-11.71,7.07-14.48,6.74-.05,0,.92-.42-.25-1-7.04.69-14.17.57-21.23,1-4.24.26-5.87-.18-10.99.5-3.11-.98-6.75-.41-9.99-.5.42-.98.33-2.03.5-3,8.57.62,17.39.25,25.97,0,.52,1.38,1.52,1.32,2,0,4.09-.1,8.3-.2,12.24-1.5.4,6.24.19.99,3-.5.74-.4,13.41-3.17,16.23-4.5Z"/>
        <path class="cls-34" d="m13.49,207.58c2.59,3.06,7.01,3.43,10.49,4.99-1.55,21.22-4.76,28.55-3,51.94.74,9.87,2.74,19.74,4.5,29.47-.09.06-.27.64-1.5,1.5-7.92-32.78-9.17-48.79-2-82.16-5.42-1.36-8.05-4.7-9.49-.5-.53,1.54-5.75,29.51-5.99,31.97-.65,6.61-.54,13.16.5,19.73.46,8.28,3.64,15.56,4.99,23.72l-1,.5c-15.93-40.63-2.9-41.84-1-80.41,1.13-2.48,2.94-.77,3.5-.75Z"/>
        <path class="cls-34" d="m120.37,95.7c-1.67-1.41-5.77,1.24-6.74,1.5-4.02,1.06-8.49,1.3-12.49,2.5-22.85,6.84-33.02,13.71-50.7,28.97-3.39-1.34,10.72-12.73,13.74-14.98,16.42-12.28,36.16-20.21,56.94-19.48.94,1.85-.64,1.4-.75,1.5Z"/>
        <path class="cls-34" d="m88.4,110.18c-3.46,1.39-13.51,5.79-15.73,7.49-4.74,3.64,6.05-2.09,12.24-4.5l-.5,4.99c-7.83,2.09-14.35,7.01-21.23,10.99-2.11,1.22-5.74,2.29-7.74,3l-1-.5c.39-.38,1.37-2.88,6.99-8.49,4.5-1.49,22.64-14.4,25.72-14.48.1,0,.48,1.02,1.25,1.5Z"/>
        <path class="cls-39" d="m146.84,76.72c.07,1.99,1.3,3.46,1,5.49-3.39-.37-6.86-2.44-7.24-2.5-8.03-1.25-34.63,3.86-42.95,6.99-3.73,1.4-8.23,3.98-11.74,5.99-6.27,3.59-14.31,9.58-19.73,14.48q3.87-4.25,7.74-8.49c10.73-10.9,37.11-20.34,51.69-21.98,7.19-.81,14.09.43,21.23,0Z"/>
        <path class="cls-41" d="m147.34,93.7c.19,3.09.75,6.34,1,9.49-4.33,0-8.76-.18-12.99,1-.93-1.35-3.26-1.06-4.99-1l4.74-2c-12.36-1.75-26.42,2.21-38.21,5.99,4.04-5.57,5.85-2.89,6.24-3,3.97-1.09,7.95-2.58,11.99-3.5,6.13-1.4,18.63-2.31,18.48-4.99-9.58.39-11.94-1.54-1-2.5,4.92-.43,9.83.59,14.73.5Z"/>
        <path class="cls-14" d="m147.84,82.21c.08,1.73-1.01,2.36-1,2.5-18.32-2.7-43.34,1.35-59.94,9.49l-1-1.5c3.51-2.01,8.01-4.59,11.74-5.99,8.33-3.13,34.92-8.24,42.95-6.99.38.06,3.85,2.13,7.24,2.5Z"/>
        <path class="cls-31" d="m130.36,103.19c-12.22.46-33.78,5.46-45.45,9.99-6.19,2.4-16.98,8.13-12.24,4.5,2.22-1.71,12.28-6.11,15.73-7.49,2.87-1.15,5.56-2.05,8.49-3,11.79-3.78,25.85-7.74,38.21-5.99l-4.74,2Z"/>
        <path class="cls-11" d="m86.91,94.2c-.36.18-1.59,1.28-2,1.5-5.71,3.06-7.58,5.24-7.99,5.49-4.46,2.76-8.9,6.02-13.49,8.49.1-1.17-.51-1.7-.5-3,0-.17,1.31,1.15.25-2.5l10.74-5.49q-3.87,4.25-7.74,8.49c5.41-4.9,13.46-10.89,19.73-14.48l1,1.5Z"/>
        <g>
          <path class="cls-24" d="m146.34,69.23c0,.2.38.66.5,4,.04,1.16-.04,2.33,0,3.5-7.14.43-14.04-.81-21.23,0-14.58,1.64-40.97,11.08-51.69,21.98l-10.74,5.49c1.06,3.65-.25,2.33-.25,2.5-1.74.25-1.38-6.32-7.99-4.74,7.17,7.33,2.99,10.71,8.49,7.74,4.59-2.47,9.03-5.73,13.49-8.49l.25,1c7.47-3.97,21.49-9.35,29.47-11.49,2.99-.8,17.15-2.63,17.98-3,4.04-1.78-11.21-.41-13.49,0-.92.16-16.77,4.56-17.98,4.99-.52.18-6.72,4.47-8.24,3,.4-.22,1.64-1.32,2-1.5,16.59-8.14,41.61-12.19,59.94-9.49.02.38.44.42.5,1.5.18,3.4-.02,7.12,0,7.49-4.91.09-9.82-.93-14.73-.5-10.95.96-8.59,2.89,1,2.5.15,2.68-12.35,3.6-18.48,4.99-4.04.92-8.01,2.4-11.99,3.5-.4.11-2.2-2.57-6.24,3-2.93.94-5.62,1.85-8.49,3-.77-.47-1.15-1.5-1.25-1.5-3.08.09-21.22,13-25.72,14.48,2.28-2.28,3.54-5.03,7.74-7.99,15.32-10.79,46.73-15.69,51.19-19.48.11-.09,1.68.36.75-1.5-20.78-.73-40.52,7.2-56.94,19.48-3.02,2.26-17.13,13.65-13.74,14.98-6.91,5.97-13.35,12.46-19.98,18.73,5.4-9.38,10.61-19.15,18.48-26.72,2.99-2.88,7.06-4.74,9.74-7.99-3.7,1.93-16,4.4-17.48.5-7.36,11.14-3.21,5.81-2,5.49,1.52-.4,2.54.51,2.75.5.08.73-.56,1.52-1,2-14.67,16.03-15.81,15.91-26.47,35.46-1.21,2.22-2.93,4.19-4,6.49-3.67-.61.53-3.7.5-5.24-.03-1.59-8.31-11.49,1.5-1.5,11.09-26.38,14.76-36.51,38.21-55.19,17.33-6.08,24.72-14.18,42.7-21.48,3.74-1.52,14.58-4.26,13.98-5.99,12.84-2.94,25.7-5.32,38.96-4.5Z"/>
          <g>
            <path class="cls-39" d="m76.92,101.19c.41-.26,2.28-2.44,7.99-5.49,1.53,1.47,7.72-2.81,8.24-3,1.21-.43,17.06-4.83,17.98-4.99,2.28-.41,17.52-1.78,13.49,0-.83.37-14.99,2.2-17.98,3-7.98,2.14-22,7.52-29.47,11.49l-.25-1Z"/>
            <g>
              <path class="cls-4" d="m48.95,120.67c-.64-.66-5.91-2.48-6.24-2.5-.38-.01.02.97-.75,1-.21,0-1.22-.9-2.75-.5-1.21.32-5.36,5.65,2-5.49,1.48,3.9,13.79,1.43,17.48-.5-2.68,3.25-6.75,5.11-9.74,7.99Z"/>
              <path class="cls-41" d="m62.93,106.69c-.01,1.3.6,1.83.5,3-5.5,2.96-1.32-.41-8.49-7.74,6.61-1.58,6.25,5,7.99,4.74Z"/>
              <path class="cls-17" d="m52.94,105.69c-5.63.19-2.41,2.47-2.5,2.75-.07.24-4.93.16,0,1.25-.1,0-1.04,1.22-1.75,1-3.66-1.13,1.45-8.59,4.25-4.99Z"/>
              <path class="cls-49" d="m52.94,105.69c.34.44.12,1.77,0,2-.04.08-1.35-.51-1,1.5-2.02.19-1.42.5-1.5.5-4.93-1.09-.07-1.01,0-1.25.09-.28-3.13-2.55,2.5-2.75Z"/>
              <path class="cls-18" d="m52.94,107.68c5.89,3.91-.48,1.45-1,1.5-.36-2.01.96-1.42,1-1.5Z"/>
            </g>
          </g>
        </g>
        <g>
          <path class="cls-24" d="m146.84,60.73c.05,1.5-.03,3,0,4.5-27-2.22-38.25,2.46-61.93,9.49-3.34.99-6.67,1.95-9.99,3-1.17.19-.95-.48-1-.5,9.21-5.9,22.31-10.14,32.96-12.49,12.86-2.83,26.78-4.7,39.96-4Z"/>
          <path class="cls-37" d="m106.88,73.72c-5.18,1.21-9.93,3-14.98,4.5-2.52.74-14.4,5-15.73,4.5-.28-.1-3.32-4.47-1.25-4.99,3.32-1.05,6.65-2.01,9.99-3,.89,0,.23,1.36.75,1.5.91.25,8.2-2.98,18.23-4.99l3,2.5Z"/>
          <path class="cls-14" d="m146.84,68.23c.04,1.29-.5.94-.5,1-13.25-.83-26.12,1.55-38.96,4.5-.16.04-.34-.04-.5,0l-3-2.5c12.37-2.48,31.55-5.77,42.95-3Z"/>
          <g>
            <path class="cls-24" d="m145.84,51.25l1,.25c.08,2.41-.11,4.84,0,7.24-13.44,1.32-26.66,2.3-39.96,4.5-12.5,2.06-24.84,4.39-35.96,10.99-.68-1.08-1.81-1.87-2-3.25,9.23-18.05,28.76-23.82,47.2-27.22,7.27-1.34,8.39,1.54,18.48-5.49l.25,11.24,10.99,1.75Z"/>
            <path class="cls-37" d="m106.88,63.23v1.5c-10.65,2.35-23.76,6.59-32.96,12.49-1.94-.79-1.95-1.35-3-3,11.12-6.6,23.46-8.92,35.96-10.99Z"/>
            <path class="cls-1" d="m146.84,60.73c-13.17-.7-27.1,1.16-39.96,4v-1.5c13.3-2.2,26.52-3.17,39.96-4.5.03.66-.02,1.33,0,2Z"/>
          </g>
          <path class="cls-39" d="m146.84,65.23c.02,1-.03,2,0,3-11.4-2.78-30.59.51-42.95,3-10.03,2.01-17.32,5.24-18.23,4.99-.52-.14.14-1.49-.75-1.5,23.68-7.03,34.94-11.7,61.93-9.49Z"/>
        </g>
        <path class="cls-41" d="m283.69,210.57c.85,1.18.94,1.38,2,2.5,2.01,2.12,3.84,4.28,6.24,5.99,1.44.28,1.98-.54,2.25-.5l3.5,24.22-2-3.5,1,9.49-2.75-3.25c-.03,1.63-.61,3.43-.75,4.99.39-5.13-2.92-8.16-4.5-12.74-2.5-7.29-7.18-21.68-7.49-28.22.39-.1,1.03.25,1-.5.05.09.59.23,1.5,1.5Z"/>
        <path class="cls-13" d="m214.77,271.01c-1.79-1.66-2.37-1.42-2.5-1.5-1.55-.94-9.03-5.54-10.49-3.75-1.01,1.25,2.21,2.64,1.75,3.25.88.33,2.81-1.72,6.74,3,.31.37.59.97.5,1.5-3.89-4.02-11.01-6.13-15.98-3-1.97-.1-4.02-.03-5.99,0-.66.01-1.33-.03-2,0l-1-7.49c11.03,1.1,21.43-1.46,28.97,7.99Z"/>
        <path class="cls-36" d="m293.68,274c.4-4.1.45-7.89.5-11.99,8.02-4.48,2.27,24.03,1,26.22-.83,1.43-3.28,2.05-4.74,3.25-.77-.44,2.44-9.21,3.25-17.48Z"/>
        <path class="cls-36" d="m214.77,271.01c6.02,7.55,8,17.38,8.99,26.72-2.83,2.94-1.27,3.92-1,6.24-3.07.04-.76,7.88-3,7.99.48-16.41,1.62-26.26-8.49-40.46,3.34.47,2.36.23,1-2,.12.08.71-.16,2.5,1.5Z"/>
        <path class="cls-24" d="m226.75,327.95c-2.71,8.81-3.82,6.84-4,7.24-2.41,5.4,2.23,4.15-10.49,16.23l-3.5-1c6.29-4.54,9.98-10.8,12.49-17.98.3-.85.74-1.55,1-2.5,2.13,1.36,1.17-2.1,2-4.74,4-12.81,4.99-5.37,2.5,2.75Z"/>
        <path class="cls-37" d="m222.76,303.97c1.29,11.14,2.82,13.58-.5,25.97-.26.95-.7,1.64-1,2.5l-2.5-1.5c.34-1.86.28-4.59.5-6.49.37-3.22.4-8.93.5-12.49,2.24-.11-.07-7.96,3-7.99Z"/>
        <path class="cls-34" d="m215.27,256.02c1.27,2.39,2.39,4.51,3.5,6.99-1.47.19-2.41-.77-3.5-1.5-9.42-6.33-21.08-6.24-32.46-4.99q6.37-2,12.74-4l19.73,3.5Z"/>
        <path class="cls-41" d="m211.27,271.51c10.11,14.2,8.97,24.05,8.49,40.46-.1,3.55-.12,9.27-.5,12.49l-.75-9.49c-.76,0,.94,4.12-4.25,12.99l-1.5-2c1.18-2.3,2.02-5.92,2.5-8.49,7.16-7.33,3.89-35.29-4.5-43.95.09-.53-.19-1.13-.5-1.5.18-2.07.9-.51,1-.5Z"/>
        <path class="cls-36" d="m313.16,216.07c4.68,11.21.44,3.21-1,6.24.14,19.39-4.2,4.98-6.99-2.75.43-.08,7.04-3.01,7.99-3.5Z"/>
        <path class="cls-41" d="m247.23,191.09c-2.78-6.08-3.61-4.21-9.49-6.99-.07-3.83.09-7.66,0-11.49,1.92,1.94,10.34,17.19,10.49,18.23.2,1.38-.7.16-1,.25Z"/>
        <path class="cls-34" d="m203.78,334.44c.72.26,2.02,1.26,3,1.5-2.98,2.22-5.93,3.85-9.24,5.49l-1.75-.5.75-1.5c-2.13.07-4.19-.56-6.24-1,3.7-1.45,13.69,1.13,11.24-4l-22.23-5.99c0-.17,0-.33,0-.5,6.86,1.96,18.46,4.33,24.47,6.49Z"/>
        <path class="cls-56" d="m221.26,332.44c-2.5,7.18-6.19,13.44-12.49,17.98-.64.46-1.25.87-1.75,1.5l-.25-.75c5.38-3.91,10.83-13.93,11.99-20.23l2.5,1.5Z"/>
        <path class="cls-24" d="m247.23,191.09c-1.97.58-3.45.22-4.5,1-1.18-1.75-2.79-3.68-4.5-4.99l-.5-3c5.88,2.78,6.71.92,9.49,6.99Z"/>
        <path class="cls-46" d="m190.29,338.43c2.05.43,4.12,1.07,6.24,1l-.75,1.5q-8.24-1-16.48-2c.08-.65-.06-1.34,0-2,3.67-.3,7.44.75,10.99,1.5Z"/>
        <path class="cls-34" d="m214.27,327.95c-2.78,4.76-3.54,5.04-7.49,7.99-.98-.24-2.28-1.24-3-1.5,2.59.1,7.7-5.98,8.99-8.49l1.5,2Z"/>
        <path class="cls-49" d="m177.81,249.03c-1.28,2.23-.24,4.76,0,6.99.05.49-.83.44,0,1.5-1.32.36-2.61.95-4,1-.16-3.81,1.25-6.9,2-10.49,1.78-.3,1.91.93,2,1Z"/>
        <path class="cls-37" d="m185.8,263.02l1,7.49c-1.5.07-2.59.36-4,.5v-7.99c.98.11,2.02-.1,3,0Z"/>
        <g>
          <path class="cls-11" d="m244.74,269.51c-2.13,3.1,1.49,2.19,4,1.5-.13.6.08,1.36,0,2-2.47.23-6.8.09-9.49,0,.46-.72,1.28-2.86,1.5-3,1.07-.66,2.86-.36,4-.5Z"/>
          <path class="cls-22" d="m249.73,269.51c-.71.81-.72.23-1,1.5-2.5.69-6.13,1.6-4-1.5,1.57-.19,3.66-.75,4.99,0Z"/>
        </g>
        <path class="cls-1" d="m224.26,89.7c2.54.91,5.19,1.37,7.49,3-.01,2.71.39,6-.5,8.49-1.62-2.15-15.42-7.88-18.98-9.99-8.84-5.24.03-.97-2-4.5,2.57.93,5.79,2.51,7.74,4.5,4.26.38,7.02.36,11.24,1.75.47-.94-3.01-2.12-4.99-3.25Z"/>
        <path class="cls-39" d="m210.27,86.71c2.02,3.53-6.84-.75,2,4.5q-13.74-4.74-27.47-9.49c-1.12-1.6-.79-1.89-1-3.5,1.11,1.67,4.22,1.14,6.24.5l13.49,6.49c1.84.16,5.11.91,6.74,1.5Z"/>
        <path class="cls-1" d="m224.26,89.7c-1.26-.45-12.63-4.01-11.99-5.24,4.29,1.11,8.15,3.07,11.99,5.24Z"/>
        <path class="cls-24" d="m184.8,81.71q13.74,4.74,27.47,9.49c3.56,2.11,17.36,7.84,18.98,9.99.35.46.75.97,1,1.5.38,3.64-.5,5.22-.5,5.49.1,4.99-.03,9.99,0,14.98.01,2.33,0,4.66,0,6.99-9.71-6.39-18.96-14.78-29.97-18.23l29.97,20.23c-.05,8.71.44,19.68,0,27.97-5.43-7.97-15.58-19.06-22.98-24.97-5.31-4.24-11.2-6.56-2.5-.25-7.59.38-16.97-8.77-24.47-12.24.02-1.58.5-1.71.5-2,7.91.47,5.01-3.67-.5-6.49.05-1.48-.13-3.02,0-4.5.12-1.32.14-8.13,1.25-8.49,4.16,2.19,26.5,15.54,11.74,4.99,1.27.6,7.57,2.6,10.24,4,1.04.54,3.11,3.02,4,3.5.12.07,1.34-.14,2.5.5,7.42,4.11,18.6,12.72,19.48,11.99,6.75-5.63-33.12-25.04-37.46-26.97-3.64-.13-10.56-1.71-9.74,1.5-2.21-2.63-.41-12.3.25-12.49,20.43,14.42,19.63,10.65-.75-1.25l.5-5.49,1,.25Z"/>
        <g>
          <path class="cls-1" d="m212.77,398.37c-1.42.94-2.97.79-4,1-1.67.34-3.31.7-4.99,1-4.23-.18-8.77-.24-12.99,0-.07-.73.91-.34,1-.75.02-.07-.73-.41-.5-1.25,7.06-.43,14.19-.31,21.23-1,1.17.57.2.99.25,1Z"/>
          <path class="cls-39" d="m203.78,400.37c-6.09,1.07-30.19,4.07-34.71,3-.37-.09-.25-.66-.25-1,2.29.26,1.9-.49,2-.5,6.59-.57,13.37-1.12,19.98-1.5,4.21-.24,8.75-.18,12.99,0Z"/>
          <g>
            <path class="cls-34" d="m292.18,412.85c.31,5.35-15.42,11.22-3.5,9.49-6.22,3.63-24.9,6.45-32.46,6.99.6-1.75-2.57.04-6.74-.5-.21-.03-1.44-1.35-4-1.5-9.98-.58-31.34,1.01-42.7,1.5.07-.65-.05-1.34,0-2,16.35-.11,32.81-1.5,49.2-1,8.07-1.56,16.56-.76,24.22-4,6.36-2.69,10.69-7.72,14.98-12.99.47,1.52.8,2.37,1,4Z"/>
            <path class="cls-18" d="m195.29,425.84c2,.8,5.11,1.02,7.49,1-.05.66.07,1.35,0,2-.29,2.62.69,1.49,1,2,.07.11.19,1.32,1,2.5-4.65.05-35.33.87-36.96,0,.57-.7.37-2.15,1.25-2.5,2.81-1.12,24.45.76,25.47,0,4.09-3.02-5.6-3.09-5.24-4.5,1.98-.19,4-.31,5.99-.5Z"/>
            <path class="cls-33" d="m291.19,422.34c-1.81.71-3.19,2.32-4.99,3-13.32,5.03-23.88,5.51-37.96,6.49-6.29-2.16-16.49,2.57-15.48-2,7.83-.26,15.63-.84,23.47-.5,7.57-.54,26.24-3.36,32.46-6.99.6-.35,1.7-.71,2-1l.5,1Z"/>
            <path class="cls-42" d="m189.3,426.34c-.36,1.41,9.34,1.48,5.24,4.5-1.03.76-22.66-1.12-25.47,0-.88.35-.68,1.8-1.25,2.5-1-.53-.12-2.16-1-3,4.38-1.43-.4-.64-.5-1.25,1.92-.39,1.28-.3,1.5-1.75,7.2.27,14.32-.32,21.48-1Z"/>
            <path class="cls-19" d="m232.75,429.84c-1.01,4.57,9.19-.16,15.48,2-14.37,1-29.05,1.33-43.45,1.5-.81-1.18-.93-2.38-1-2.5,9.66-.39,19.31-.68,28.97-1Z"/>
            <path class="cls-24" d="m290.69,421.34c-.3.29-1.4.65-2,1-11.92,1.73,3.81-4.14,3.5-9.49.47,3.84,1.57,5.5-1.5,8.49Z"/>
            <path class="cls-1" d="m211.27,399.87c-1.31,2.52-.17,1.75,1.5,2,4.36.65,17.12-3.41,16.98,0-14.46,3.53-29.5,5.24-44.2,7.49v-1c7.67-1.48,16.83-6.2,23.72-7.99.49-.13.61-.6,2-.5Z"/>
            <path class="cls-24" d="m268.21,399.37c-.08,0-.84.92-1.25,1-.34.07-3.23-2.71-4.74,3-.8-.16-1.72-.36-2.5-.5-.45-1.73,2.13-.11,2-1.25-.18-1.53-7.1-3.4-8.99-3.75.4-1.09,2.2-2.44,3.25-2.5,1.13-.06,12.68,2.25,12.24,4Z"/>
            <path class="cls-34" d="m276.2,421.84c-7.66,3.24-16.15,2.43-24.22,4-16.39-.5-32.85.89-49.2,1-2.38.02-5.5-.2-7.49-1,4.86-.47,10.55-2.02,17.23-2.5,21.18-1.52,42.63,1.05,63.68-1.5Z"/>
            <g>
              <path class="cls-24" d="m289.19,403.86c1.07,1.66,1.43,3.16,2,4.99-4.29,5.26-8.62,10.3-14.98,12.99-21.05,2.54-42.5-.02-63.68,1.5-6.68.48-12.37,2.03-17.23,2.5-2,.19-4.01.31-5.99.5-7.16.68-14.27,1.27-21.48,1,.05-.32-.03-.67,0-1,.38-4.4.21-18.63,0-23.97h1c0,.34-.12.91.25,1,4.52,1.07,28.62-1.93,34.71-3,1.68-.3,3.32-.66,4.99-1l.5,1c-6.9,1.79-16.05,6.51-23.72,7.99v1c14.7-2.25,29.74-3.97,44.2-7.49,2.33-.57,4.53-.4,4.74-.5,2.8-1.24-2.37-5.76,8.49-2.5,1,.3,3.76,2.52,4,2.5.5-.05,1.16-7,6.99,1,1.08.58,4.55.29,5.74.5.78.14,1.7.34,2.5.5,12.44,2.51,14.63,6.08,14.98,2.25.2-2.19-5.19-6.23-8.99-6.24.45-1.75-11.11-4.06-12.24-4-1.04.06-2.85,1.41-3.25,2.5-.05,0,.14,1.06-.25,1-5.58-.88-6.38-.34-10.49-5.49,14.07-4.83,38.38-3.26,47.2,10.49Z"/>
              <path class="cls-24" d="m262.22,403.36c1.52-5.71,4.4-2.93,4.74-3,.41-.08,1.17-1,1.25-1,3.8.02,9.19,4.05,8.99,6.24-.35,3.83-2.54.26-14.98-2.25Z"/>
              <path class="cls-42" d="m176.06,404.36c1.72.11,5.26,3.48,6.74,4.74-9.9,6.02-14.93-5.26-6.74-4.74Z"/>
            </g>
            <g>
              <path class="cls-19" d="m163.82,425.84c.14.31,0,2.24,3,1.5.82-.2.23-.97,1-1-.03.33.05.68,0,1-.22,1.44.42,1.36-1.5,1.75.1.61,4.88-.18.5,1.25-5.33,1.74-2.94,2.58-3.75,3-2.47,1.29-48.48.41-55.69.5-3.65.05-7.4.5-10.99.5-15.7.01-6.48-.8-5.74-1.5.44-.42.17-.71.25-1,.26-.91-.41-4.03.25-4.5,2.61-1.85,22.35,5.45,31.97,0,.98,2.53,11.93-.54,18.48-1,7.32-.51,14.88-.45,22.23-.5Z"/>
              <path class="cls-24" d="m151.09,427.34c1.51-.01,6.41-.49,7.24.75.06.09-.17,2.17-.25,2.25-1.81,1.82-13.8,1.14-17.48,2-2.88-2.56-6.94-2.8-10.74-3.25,6.86-1.01,14.32-1.7,21.23-1.75Z"/>
            </g>
            <path class="cls-32" d="m256.22,429.34c-7.85-.34-15.65.24-23.47.5-9.66.31-19.31.61-28.97,1-.31-.51-1.29.62-1-2,11.37-.49,32.72-2.07,42.7-1.5,2.55.15,3.78,1.47,4,1.5,4.17.54,7.35-1.25,6.74.5Z"/>
          </g>
          <path class="cls-43" d="m191.29,398.37c-.23.84.51,1.18.5,1.25-.09.41-1.07.02-1,.75-6.6.38-13.38.93-19.98,1.5-5.12-.58,7.92-2.79,9.49-3,5.12-.68,6.74-.24,10.99-.5Z"/>
        </g>
        <g>
          <path class="cls-34" d="m290.69,208.08c-.08.71.57,1.55,1,2,4.48,4.64,6.3,6.2,12.99,5.49,1.7-.18,2.87-.56,4.5-1,5.54-1.48,7.09-3.67,10.49-3.5-.74,1.04-.72,2.12-2,3-.28.19-.76-.82-1.25-.5-.74.5-3.06,2.4-3.25,2.5-.96.49-7.56,3.42-7.99,3.5-.77.14-4.58-.5-4.99-.5-.82,0-1.68.06-2.5,0,1.26-1.41-1.44-1-3.25-2-3.53-1.96-6.92-6.43-8.74-4-.38-.4,1.64-2.65,2-3,.53-.52,2.18-1.09,3-2Z"/>
          <path class="cls-44" d="m297.68,219.06c-.31-.02-.43-.35-1.5-.5-.64-.09-1.36.11-2,0-.27-.04-.81.78-2.25.5-2.4-1.72-4.23-3.87-6.24-5.99,1.82-2.43,5.21,2.04,8.74,4,1.8,1,4.51.59,3.25,2Z"/>
          <path class="cls-44" d="m287.69,210.07c-.35.34-2.38,2.6-2,3-1.06-1.12-1.15-1.32-2-2.5l4-.5Z"/>
          <path class="cls-24" d="m304.67,215.57c-6.69.7-8.5-.85-12.99-5.49,3.87,2.81,8.23,4.84,12.99,5.49Z"/>
        </g>
        <path class="cls-39" d="m63.93,170.62c.08-1.61-1.17-1.62-2.5-1.5,5.21-8.73-6.42,2.76-8.49,5.24-8.69,10.41-22.48,40.71-25.47,53.94-.52,2.32-3.16,13.05.5,10.24-.15,1.09.09,2.36,0,3.5l-2.5-1.75c-.74,2.66-.4,11.87-.5,12.49-.08.48-1.39.01-1.5.5-.4,1.8,1.03,2.37,1,2.5-.04.16-2.16.63-2.5,2-.29,1.19,2.48,6.97-1,6.74-1.76-23.39,1.45-30.72,3-51.94,3.58-4.3,13.23-37.83,14.98-38.96,5.08-3.27.1,2.94,2.5,3,.72.02,2.1-2.22,2.75-2.5.6-.25.92.76,1.5.5,3.18-1.45,21.22-14.08,22.23-13.24,3.57,3.01-2.41,7.09-4,9.24Z"/>
        <path class="cls-39" d="m27.97,242.04c-.37,4.76-1.82,13.94,3,12.99-.01.17,0,.33,0,.5-.33,11.2,3.49,22.69,3,33.96-3.03,1.33-5.71,2.7-8.49,4.5-1.76-9.73-3.75-19.59-4.5-29.47,3.47.22.71-5.55,1-6.74.33-1.37,2.46-1.84,2.5-2,.03-.13-1.4-.7-1-2.5.11-.49,1.42-.02,1.5-.5.1-.62-.25-9.83.5-12.49l2.5,1.75Z"/>
        <path class="cls-41" d="m48.95,268.01c-.03-.43-.49-1.42-.5-1.5-.02-.2,1.03-1.36,0-4h.5c.44,3.88,1.49.18,2-1.75,1.04-3.96,1.64-15.58,3-22.23.43-2.1,1.22-3.88,1.5-4.99l.5,1.5c-.77,2.96-2.18,8.41-2.5,11.24-1.36,12.17,3.72-8.62,4.99-10.99.53-.97,4.54-5.96,5.49-6.99,9.14-9.9.28,2.12-2,7.99-5.68,14.64-6.78,34.32-6.49,49.95-9.96.96-5.58-4.69-6.49-18.23Z"/>
        <path class="cls-36" d="m104.89,114.18c-6.64,1.12-12.92,3.68-18.98,6.49-7.8,3.62-23.43,13.25-30.47,18.48-9.35,6.96-16.92,15.48-25.47,22.98,7.99-12.08,13.67-20.68,25.47-29.97,2.01-.71,5.63-1.78,7.74-3,6.88-3.97,13.4-8.9,21.23-10.99,5.87-2.07,11.94-3.54,17.98-4.99l2.5,1Z"/>
        <path class="cls-2" d="m130.36,103.19c1.73-.06,4.06-.35,4.99,1-6.29,1.76,1.75.78,5.24,2.5h-19.48q5.87,3.12,11.74,6.24c-.13.27-5.32-.2-5.99-.25-.75-1.89-11.12-2.7-14.23-2.5-4.58.3-6.75,2.16-10.24,3-6.04,1.45-12.11,2.92-17.98,4.99l.5-4.99c11.67-4.53,33.23-9.53,45.45-9.99Z"/>
        <path class="cls-4" d="m63.93,170.62c-6.73,9.12-13.52,18-18.98,27.97-5.35,9.76-9.75,19.94-12.49,30.72-.45,4.29,1.02,3.05,1,3.25-.41,4.5-1.89,13.52-2,16.23-.15,3.74,2.28,9.18-.25,3.75-.45.1-.19,1.61-.25,2.5-4.81.95-3.36-8.23-3-12.99.09-1.13-.15-2.4,0-3.5,1.56-11.26,13.4-39.58,19.48-49.7,4.13-6.87,9.85-12.8,13.98-19.73,1.33-.12,2.57-.11,2.5,1.5Z"/>
        <path class="cls-41" d="m64.43,179.11c-17.44,23.27-17.11,22.03-28.97,50.45-.52,1.24-.23,3.17-2,3,.02-.2-1.45,1.04-1-3.25,2.74-10.77,7.14-20.95,12.49-30.72,2.32,3.35,7.02-7.89,11.49-13.74,3.02-3.95,6.61-7.59,9.99-11.24,2.3,1.31,1.15,1.3-2,5.49Z"/>
        <path class="cls-39" d="m39.46,257.52c.64.57.97.75,1.5,1.5.42.59.62,1.37,1,2-.07.07-.26,1.19-1.5,1-5.27-4.57-2.53-1.51-2.5-.75.37,8.6,1.56,17.13,2,25.72-2.1.73-3.97,1.61-5.99,2.5.5-11.28-3.33-22.76-3-33.96,4.01.4,4.67,5.43,8.49,2Z"/>
        <path class="cls-36" d="m53.44,223.06c-2.11,7.11-5.24,32.89-4.5,39.46h-.5c-.07-.17-1.88-2.86-2-3,.89-6.16.34-12.28,1-18.48,1.67-15.64,7.88-32.54,17.98-44.7,4.36-5.25,11.87-10.72,13.49-12.74h.5c-9.93,12.15-21.39,24-25.97,39.46Z"/>
        <path class="cls-14" d="m38.46,172.61l.5,1c-1.75,1.13-11.41,34.66-14.98,38.96-3.48-1.57-7.9-1.93-10.49-4.99,2.11.06,4.22.43,6.24,1,1.99-3.79,3.82-7.66,5.74-11.49,2.14.9,1.56,5.6,4,.25.62-1.36,3.9-15.49,1-10.24,1-2.27,3.87-13.1,4.5-13.74.81-1.25,1.12.37,3.5-.75Z"/>
        <path class="cls-41" d="m40.46,262.02v2c1.2,2.61,2.58,6.24,5.74,8.99-.23-2.23.7-1.91.75-2l.5,14.23c-.32.6-4.12.57-7.49,1.75-.44-8.59-1.63-17.13-2-25.72-.03-.76-2.77-3.83,2.5.75Z"/>
        <path class="cls-31" d="m79.91,127.66c-12.13,11.15-35.69,26.1-44.45,37.96-.82.17-1.33-.12-2-.5-.16-.09.77-.96-1.5-1,5.44-5.71,18.58-17.17,24.97-21.98,6.98-5.25,15.04-10.79,22.98-14.48Z"/>
        <path class="cls-34" d="m67.43,156.63c-.09-1.03.31-2.03-.5-2-1.59.62-1.79-.06-2,0,3.11-4.49-5.7,1.18-7.49,2.5,4.27-9.87,35.19-24.55,38.71-24.47,1.11.03.74.45,0,1-2.18,1.62-16.99,7.38-26.72,18.23l-.25,8.24c-1.77-.19.37-3.79-1.75-3.5Z"/>
        <path class="cls-41" d="m116.37,112.68c-11.07,5.46-22.86,9.77-34.21,14.98-.44.2-1.81-.21-2.25,0,.9-.83,6.15-6.27,5.99-6.99,6.06-2.81,12.34-5.37,18.98-6.49l11.49-1.5Z"/>
        <path class="cls-15" d="m56.94,142.15c-6.39,4.81-19.53,16.26-24.97,21.98-2.62,2.75-5.72,4.95-7.49,8.49-2.81-1.3,3.98-8.21,5.49-10.49,8.55-7.49,16.12-16.02,25.47-22.98l1.5,3Z"/>
        <path class="cls-47" d="m156.33,262.52v.5c-.94.11-2.94-.32-2.25,1.5,3.14-.35,4.51.47,4.74.5-.12.54-.59.58-.5,1.5h-.5c-2.24-.25-1.91.45-2,.5-.18.09-1.17-.99-1.5.25-.57,2.12.33,5.12.5,7.24l-1.5-.5c-.11-.65.27-2.13-.25-2.5-2.75.62-6.13-.65-8.74-.5-.2-1.19.38-6.54-.25-6.99-.42-.3-8.96-.48-10.24-.5-.67-.01-1.33,0-2,0l.5-1c6.55-.14,13.67,1.29,20.23.5.39-.05.69-.98.75-1,.74-.17,3.04-.17,3,.5Z"/>
        <path class="cls-21" d="m129.36,241.54h13.24c2.73,1.52.28.93-1.25,3-9.14.01-18.35.96-27.47,1.5,3.26-2.18,1.77-1.64,2.5-5.99,4.74-.06,9.49.04,14.23,0l-1.25,1.5Z"/>
        <path class="cls-41" d="m33.46,165.12c-5.85,6.47-9.56,14.78-12.99,22.73-.34.79-.3,2.78-.5,3.25-1.98,4.64-7.27,16.42-5.49,8.24.33-1.53,9.16-25.22,9.99-26.72,1.77-3.54,4.87-5.74,7.49-8.49,2.27.03,1.34.91,1.5,1Z"/>
        <path class="cls-15" d="m53.94,238.54c-1.36,6.64-1.95,18.26-3,22.23-.51,1.93-1.56,5.63-2,1.75-.75-6.56,2.39-32.35,4.5-39.46,2.94-1.18-2.4,10.81.5,15.48Z"/>
        <path class="cls-37" d="m132.36,262.52l-.5,1c-8.93.01-25.44.2-28.97,9.49-.96.05-3.36.77-3.75.5,1.85-12.1,23.41-10.77,33.21-10.99Z"/>
        <path class="cls-31" d="m35.46,165.62c-4.57,6.19-10.15,18.59-15.48,25.47.2-.47.16-2.45.5-3.25,3.43-7.94,7.13-16.26,12.99-22.73.67.38,1.18.66,2,.5Z"/>
        <path class="cls-57" d="m100.89,260.52c-.9.56-1.32,1.07-2.5,1.25-.17.96-.79,3.41-1,3.75-1.93,3.07-3.71,6.09-5.49,9.24-.5-8.53,3.17-17.26,10.74-21.73-.73,2.56-4.1,5.17-1.75,7.49Z"/>
        <path class="cls-9" d="m125.36,258.52c-9.61.97-19.34,2.35-27.97,6.99.21-.33.83-2.79,1-3.75,1.18-.18,1.6-.69,2.5-1.25,3.5-2.19,10.86-3.17,14.98-3.5-1.63,2.24,3.73,1.56,9.49,1.5Z"/>
        <path class="cls-30" d="m84.91,172.61c-3.18.3-5.84-.83-8.99-2-.82-1.68-8.7,7.76-10.49,9.99l-1-1.5c3.14-4.2,4.29-4.18,2-5.49.85-.92,4.16-5.86,4.74-5.99q6.87,2.5,13.74,4.99Z"/>
        <path class="cls-45" d="m178.31,228.55q9.61,1,19.23,2l.25,1c-12.49.83-18.34-5.72-16.23,4.5l18.73-3c1.68.75,1.42.96,1.5,1v1c-3.01-.92-20.84,2.63-21.73,2-1.69-1.2,2.44-5.56-2.75-8.49h1Z"/>
        <path class="cls-53" d="m116.37,240.04c-.73,4.35.76,3.82-2.5,5.99-3.57.21-5.95,1.1-6.24,1-1.05-.37-1.23-4.84-1.75-5.99,3.42-.15,7.05-.96,10.49-1Z"/>
        <path class="cls-4" d="m126.86,112.68c-3.58-.24-6.87-1-10.49,0l-11.49,1.5-2.5-1c3.49-.84,5.66-2.7,10.24-3,3.12-.2,13.49.61,14.23,2.5Z"/>
        <path class="cls-34" d="m77.42,252.53c-2.49,4.89-4.65,12.54-4.99,17.98-3.21,1.95-1.58-.6-2-4.99,1.35-2.23,1.01-5.43,1.5-7.49.12-.51-.08-1.2,0-1.75,4.43-1.11.43-3.85,5.49-3.75Z"/>
        <path class="cls-47" d="m154.83,150.64c-.16.22.11,2.86-2.5,4-.29.13-5.99,1.18-6.24,1-.17-.12-.37-4.07-.25-4.25.28-.43,6.63-1.77,6.99-1.75.73.05,1.02,1.34,2,1Z"/>
        <path class="cls-36" d="m152.34,133.16c-2.46-.02-7.34,2.43-7.74,2.5-.11.02-.35-.81-2.25-.5l-.5-2c2.09-.87,5.62-3.58,8.49-4.5l2,4.5Z"/>
        <path class="cls-36" d="m25.47,197.09c1.51-2.99,3.77-7.19,4.99-9.99,2.9-5.26-.38,8.88-1,10.24-2.44,5.35-1.85.65-4-.25Z"/>
        <path class="cls-41" d="m83.91,178.61c-1.09,1.93-3.17,3.38-4.5,4.99h-.5c6.23-7.76-.7-5.13-6.99-1.5-1.37.79-2.7,1.57-4,2.5-1.1-1.04,1.82-2.98,4-4.99.09,1.19,3.19-1.21,5.49-2.5.3.14,5.54,1.29,6.49,1.5Z"/>
        <g>
          <g>
            <path class="cls-34" d="m50.94,340.43c.17,1.55,1.23,2.73,2,4-6.15,1.33,5.6,7.38-1,8.49-2.5-3.8-6.09-7.22-7.99-11.49.56-.72,1.1-2.04,1-3,2.59-.32,2.02-3.11,1.25-3.5-.68-.34-13.98-3.54-14.73-3.5-2.01.12-1.93,2.47-3.75,3-1.02.3-.69-.99-.75-1,3.03-2.48,3.83-2.66,1.5-4.99.09-.79.96-.94,1-1,2.18,1.22,4.12,2.13,6.49,3,1.6.58,12.09,4.16,12.74,4,7.08-6.86,10.08-11.01,11.49-20.98,5.53,8.67-18.57,29.73-9.24,26.97Z"/>
            <path class="cls-1" d="m44.95,338.43c.1.95-.44,2.28-1,3-2.86,3.7-7.6-3.59-11.49-3.5-1.01-1.61-1.71-3.53-.5-5.49,1.47,1.5,11.21,6.21,12.99,5.99Z"/>
            <path class="cls-34" d="m44.95,338.43c-1.77.22-11.52-4.49-12.99-5.99-.04-.04-.42-.74-.5-1,.76-.05,14.06,3.16,14.73,3.5.77.39,1.35,3.18-1.25,3.5Z"/>
            <path class="cls-29" d="m28.47,328.45c2.33,2.33,1.53,2.52-1.5,4.99-.19-.02-1.2.43-3.75-.5-1.39-1.07-.44-1.24-.25-2,.59-2.36,2.99-5,5.49-2.5Z"/>
          </g>
          <path class="cls-11" d="m69.92,322.45c-.29-.64-.8-1.38-1-2,2.23-3.48,1.83-3.59,4.5-6.49.47,1.87-1.47,8.15-3.5,8.49Z"/>
        </g>
        <g>
          <path class="cls-39" d="m74.42,312.46c6.01,16.39,17.67,38.73,31.97,49.2l-6.99-.25c.94-1.66,1.36-.83,1.5-1.25.23-.72-9.33-9.71-10.49-10.99-2.56-2.82-3.43-7.86-8.49-6.74-3.42-6.14-8.53-12.88-11.49-18.98-.17-.34-.34-.65-.5-1,2.02-.34,3.97-6.62,3.5-8.49.22-.24-.55-1.85,1-1.5Z"/>
          <g>
            <path class="cls-39" d="m68.93,324.45c.17.26-.18,1.48,0,1.75,3.21,4.95,7.62,11.08,10.49,15.98,1.6,2.73,10.92,23.83,9.99,14.48-.15-1.49-6.19-11.9-7.49-14.23,5.06-1.12,5.93,3.92,8.49,6.74,1.16,1.28,10.72,10.26,10.49,10.99-.13.42-.56-.41-1.5,1.25-.11.19-1.84.14-1,3.25-8.71-.07,6.5,11.45-3.25,4.74-1.36,4.01-2.41.48-3,.5-.55.02-2.01,1.93-10.74,0-1.63-1.18-1.96-2.38-2.5-3-.2-.23.53-.71.5-.75-8.21-9.76-17.78-18.73-24.47-29.72,1.41-1.33,11.31-11.42,11.49-12.24.15-.72-3.39-8.58,2.5.25Z"/>
            <path class="cls-39" d="m78.91,366.9c-9.32-8.7-18.84-17.2-26.47-27.47.15-.12.68-1.28,2.5-3,6.69,10.98,16.26,19.96,24.47,29.72.03.03-.7.52-.5.75Z"/>
            <path class="cls-39" d="m81.91,342.43c1.3,2.34,7.34,12.75,7.49,14.23.93,9.34-8.39-11.75-9.99-14.48-2.87-4.9-7.28-11.03-10.49-15.98-.18-.27.17-1.49,0-1.75l1.5-1c2.96,6.1,8.07,12.84,11.49,18.98Z"/>
            <path class="cls-39" d="m65.18,327.95c6,8.07,10.39,17.24,15.73,25.72,1.39,2.2,10.99,14.53,10.99,15.48,0,.09-1.16,1.25-1.25,1.25-2.34.05-26.08-34.15-27.72-37.71-1.8-3.92-.53-1.43,2.25-4.74Z"/>
          </g>
        </g>
        <path class="cls-36" d="m231.75,160.13c-.05.99.37,2.07-1,2.5-1.93-1.81-4.84-4.56-6.49-6.49-2.45-2.87-3.79-4.34-6.49-6.99-3.66-3.59-6.66-7.56-10.99-10.49-2.58-3.4.95-.15,2-3.5,7.4,5.91,17.54,17,22.98,24.97Z"/>
        <path class="cls-41" d="m226.26,171.61c1.46,1.97,3.7,6.88,4,4,2.15-10.42-2.12-11.77-5.99-19.48,1.65,1.94,4.56,4.68,6.49,6.49l1,1.75c.1,5.41-.13,10.83,0,16.23-12.24-16.37-28.5-28.6-45.45-39.71l.25-.75c21.06,11.4,25.73,18.01,39.71,31.47Z"/>
        <path class="cls-36" d="m231.75,188.6c.06,2.66.02,5.33,0,7.99-4.62-4.88-7.44-12.19-11.49-17.98,2.6-.82-2.25-4.89-2.5-5.74-.11-.38,1.42-2.34,0-4.25,5.62,5.98,10.49,12.53,13.98,19.98Z"/>
        <g>
          <path class="cls-24" d="m194.79,106.19c-2.58-1.22-9.29-3.48-10.99-5.49-.82-3.21,6.1-1.63,9.74-1.5,4.34,1.93,44.21,21.34,37.46,26.97-.88.73-12.06-7.88-19.48-11.99-1.16-.64-2.37-.43-2.5-.5-.88-.48-2.96-2.95-4-3.5-2.67-1.39-8.97-3.4-10.24-4Z"/>
          <path class="cls-1" d="m231.75,130.16c0,.67,0,1.33,0,2l-29.97-20.23c11.01,3.45,20.26,11.84,29.97,18.23Z"/>
        </g>
        <g>
          <path class="cls-36" d="m234.75,79.21c2.35,2.32,1.66,2.22,3,4.5-1.23,10.3-.12,20.66,0,30.97-2.88-.97,1.53-8.19-3.5-6.99-.02-3.22.07-6.24,0-9.49-.13-5.8-.02-17.31-2-17.98.02-.22-.91-1.2-.5-2.5.05-.16-.06-.37,0-.5,1.01-.33,1.63.65,3,2Z"/>
          <path class="cls-57" d="m234.25,107.68c.13,24.54-.74,49.12-.5,73.67,3.44,3.64-2.67,21.29,3,21.98.54-6.86-.8-46.16,0-48.45.13-.38.65-.25,1-.25-.17,5.92-.15,12.06,0,17.98.09,3.82-.07,7.66,0,11.49l.5,3-1,1.5c.51,7.34.57,14.62.5,21.98-3.54-2.66-1.51,2.35-2.5,7.74-.02.12-1.09.15-1.5,2-.02.09,1.02,1.41,1,1.5-1.64,6.62-5.63,11.95-11.49,15.48,7.89-.9,9.61-9.79,14.48-14.73-1.46,9.61-6.38,18.03-16.48,19.98-.81.16-.34.94-.75,1-.46.06-3.46-.69-9.24-.5-11.59.38-23.38.81-34.96,1-.06,0-.4-1-.75-1-4.52.07-9.26-.17-13.74.5-1.02.15-3.34-.34-4,.25-1.91,7.44,1.8,16.72-1.5,18.73.04-.67-2.26-.67-3-.5-.47-.6-.49-2.27-.5-3,0-.33,0-.67,0-1-.05-4.24.03-8.49,0-12.74-.55-1.25-9.69-.75-11.49-.75,1.53-2.07,3.98-1.47,1.25-3h-13.24c3.83-.77,8.12-1.67,11.99-2,11-.93,22.42-1.16,33.46-1.5-11.03,3.37-28.01.54-21.73,4.5,7.81-1.46,15.85.65,22.48-3.5q15.23-.25,30.47-.5c.17-.89-3.87-3.38-4.25-3.5v-1c2.27,1.08,4.6,2.18,6.99,3,.1.03-.65,1.33,1.75,1,0-1.94,3.72-1.9,5.74-2.5.63-.18,3.49.12,7.24-2,11.78-6.65,8.17-26.02,8.24-36.96.02-2.66.06-5.33,0-7.99-.06-2.66.06-5.33,0-7.99-.13-5.4.1-10.83,0-16.23l-1-1.75c1.37-.43.95-1.51,1-2.5.44-8.29-.05-19.26,0-27.97,0-.67,0-1.33,0-2,0-2.33.01-4.66,0-6.99,2.19-1.2.55-10.85,1.5-15.23l-1.5.25c0-.28.88-1.86.5-5.49,1.97.63,1.58-2.03,2-4.5.07,3.25-.02,6.27,0,9.49Z"/>
          <path class="cls-36" d="m237.74,114.68c.09,7.6-.41,15.4,0,22.98,0,.14-.85.35-.5,2.75.9.24.74,1.29,1,1.75-1.28-.54-1.25,2.4-1,3.25.44,1.48,12.05,12.24,20.48,23.22l-1,.5c-5.08-6.43-13.3-13.89-18.73-20.48-.5.38-.22,4.94-.25,5.99-.35,0-.87-.13-1,.25-.8,2.29.54,41.59,0,48.45-5.67-.69.44-18.34-3-21.98-.25-24.55.63-49.13.5-73.67,5.03-1.2.62,6.02,3.5,6.99Z"/>
          <path class="cls-36" d="m237.74,210.57c-.04,4.19.66,7.66,0,11.99-4.87,4.95-6.6,13.83-14.48,14.73,5.86-3.54,9.84-8.86,11.49-15.48.02-.09-1.02-1.41-1-1.5.41-1.84,1.48-1.88,1.5-2,.99-5.39-1.05-10.4,2.5-7.74Z"/>
          <path class="cls-37" d="m234.25,98.19c-.42,2.47-.03,5.13-2,4.5-.25-.52-.65-1.04-1-1.5.89-2.49.49-5.78.5-8.49.02-4.26.06-8.23.5-12.49,1.98.67,1.87,12.18,2,17.98Z"/>
          <path class="cls-7" d="m216.27,235.55c-2.02.59-5.75.56-5.74,2.5-2.4.33-1.65-.97-1.75-1-8.91-6.55-2.92-9.85,7.49-1.5Z"/>
          <path class="cls-18" d="m231.75,123.17c-.03-4.99.1-9.99,0-14.98l1.5-.25c-.95,4.39.69,14.03-1.5,15.23Z"/>
        </g>
        <path class="cls-2" d="m186.8,270.51c.66-.03,1.33.01,2,0l.25,1q-6.12.25-12.24.5c.84-1.84,1.46-.71,3.5-1,.79-.11,1.69.08,2.5,0,1.4-.14,2.5-.43,4-.5Z"/>
        <path class="cls-24" d="m190.29,338.43c-3.55-.75-7.32-1.8-10.99-1.5.04-.42-.15-5.77,0-8.49l22.23,5.99c2.46,5.13-7.54,2.55-11.24,4Z"/>
        <path class="cls-37" d="m210.77,273.5c8.39,8.66,11.66,36.63,4.5,43.95,1.22-6.61,1.43-18.25,0-24.72-.66-2.98-7.42-19.66-9.49-20.73-2.25-1.17-8.24-1.36-10.99-1.5,4.98-3.13,12.09-1.02,15.98,3Z"/>
        <path class="cls-25" d="m194.79,270.51c2.75.14,8.74.33,10.99,1.5-6.37,2.93-19.61.81-28.97,2.5-.07-.36-.07-1.16,0-1.5.07-.33-.08-.82,0-1q6.12-.25,12.24-.5l-.25-1c1.98-.03,4.02-.1,5.99,0Z"/>
        <path class="cls-36" d="m212.27,269.51c1.36,2.23,2.34,2.47-1,2-.1-.01-.81-1.57-1,.5-3.93-4.72-5.86-2.66-6.74-3,.46-.61-2.76-2-1.75-3.25,1.46-1.79,8.94,2.81,10.49,3.75Z"/>
        <g>
          <path class="cls-24" d="m293.18,165.12c5.76,7.58,2.95,4.46,5.99,1.25,2.73-2.88,17.71-19.67,18.98-20.23.82-.37,1.57-.92,2.5-.25-2.77,3.04-22.27,21.45-21.48,23.47,11.34-2.71,31.24,14.34,26.97,26.47,3.48,2.54,2.18,8.16-2.5,3,.33,4.12-1.63,8.9-4,12.24-3.4-.18-4.95,2.02-10.49,3.5-9.69.52-21.29-8.26-20.23-17.98,4.46,12.14,14.14,15.62,13.24,13.74-5.52-4.07-9.66-9.47-13.24-15.23-.96,1.42-6.21-1.32-6.74,4.74-.6,6.87,5.75,4.46,8.49,8.24-.81.9-2.47,1.48-3,2l-4,.5c-.91-1.26-1.44-1.41-1.5-1.5-.39-.67-1.09-.58-1.5-1.25.24-2.95-4.22-14.62-7.74-12.74-.8.43,5.15,15.3,8.24,14.48.31,6.54,4.99,20.93,7.49,28.22,1.57,4.58,4.88,7.61,4.5,12.74l-4.5-2.25c2.08,11.91,1.58,24.12-.5,35.96,4.9-4.32,2.15-18.9,5.49-10.24-.8,8.27-4.02,17.04-3.25,17.48,1.46-1.2,3.91-1.81,4.74-3.25,1.27-2.19,7.02-30.7-1-26.22.04-3.36-1.32-7.92-1-11.49.14-1.56.72-3.37.75-4.99l2.75,3.25-1-9.49,2,3.5-3.5-24.22c.64.11,1.35-.09,2,0l3.25,17.48c1.53-2.01,3.85-1.25,4.25-1.75.6-.76-3.75-13.02-3.5-15.23.41,0,4.22.64,4.99.5,2.79,7.73,7.14,22.14,6.99,2.75,1.44-3.03,5.68,4.97,1-6.24.18-.09,2.51-2,3.25-2.5.48-.32.97.69,1.25.5,2.66,12.79,1.69,6.77,3.25,6.99,2.76.39,4.66,26.34,4.74,29.72.62,24.19-3.99,47.04-14.98,68.68-6.05,3.74-8.85,13.53-15.23,17.48-6.48,4.01,5-6,4.5-11.99-9.44,8.98-6.43,11.27-18.48,22.48-.19.18-1.31-.18-1.5,0-3.99,3.7-4.66,5.73-5.49,6.49-.19.18-1.3-.18-1.5,0-10.29,9.36-16.49,16.43-29.22,23.97-22.25,13.19-37.41,13.34-62.68,14.48v1c17.58.02,28.35.63,45.2-4.99.05.66,4.28.05,4.5,0,.05.62-.48.47-.5.5-2.82,1.33-15.49,4.1-16.23,4.5-2.81,1.49-2.6,6.74-3,.5-3.93,1.3-8.15,1.4-12.24,1.5-.67.02-1.33-.02-2,0-8.58.25-17.4.62-25.97,0,2.31-12.9,4.29-25.8,6.49-38.71-.03-.97-3.86-5.95-1.5-9.74,1.14-1.83.93,4.3,2.5-7.24.05-.4.99-.69,1-.75q8.24,1,16.48,2l1.75.5c3.31-1.64,6.26-3.27,9.24-5.49,3.96-2.95,4.71-3.23,7.49-7.99,5.18-8.87,3.49-12.99,4.25-12.99l.75,9.49c-.22,1.9-.16,4.63-.5,6.49-1.16,6.3-6.61,16.31-11.99,20.23l.25.75c.5-.63,1.11-1.03,1.75-1.5l3.5,1c-4.03,3.83-8.09,7.51-12.99,10.24-.53,1.83,7.36-2.68,8.24-3.25,9.38-6.02,17.82-19.38,19.23-30.47,2.5-8.11,1.51-15.55-2.5-2.75-.83,2.65.13,6.11-2,4.74,3.32-12.39,1.79-14.84.5-25.97-.27-2.32-1.83-3.3,1-6.24-.99-9.35-2.97-19.17-8.99-26.72-7.54-9.45-17.94-6.89-28.97-7.99-.98-.1-2.02.11-3,0-2.46-.29-8.37-.43-8.99-3.5,16.15-3.14,25.58-3.67,41.46,2,1.09.73,2.02,1.69,3.5,1.5.61,1.37,1.39,2.57,2,4,2.65,6.28,5.22,12.8,6.74,19.48,1.21-.07-1.35-15.09-1.75-16.48-.89-3.12-7.18-16.04-10.24-16.48-3.07-.44-.75,1.55-.25,2.5l-19.73-3.5q-6.37,2-12.74,4c-2.2.24-2.92.43-4.99,1-.83-1.06.05-1,0-1.5,11.46-1.97,6.61-1.73,0-6.99-.09-.07-.21-1.3-2-1,.25-1.22.11-2.74.5-4,11.58-.19,23.37-.62,34.96-1l-.75,1.5c3.94-.68,9.04,1.48,10.49-.5,1.91,2.16,4.21,3.97,6.24,5.99.57.56,6.63,7.47,6.99,7.99.66.93,2.45,2.8,2.5,3,.66,2.49-1.08,8.38-.5,11.74,1.66,1.75,2.85.24,3,.25,2.69.09,7.02.23,9.49,0,3.23-.3,6.69.93,6.24-7.49-1.51,2.03-4.71,3.39-5.24,4-1.34-.75-3.42-.19-4.99,0-1.13.14-2.93-.16-4,.5-1.53-.29-.95-3.38-1-6.49-.04-2.52-.36-6.12.5-8.24-.56-.91-4.21,1.19-4.99,1.75-1.97-2.68-4.7-4.66-6.99-6.99-2.36-2.4-4.32-5.28-6.99-7.49,10.1-1.95,15.02-10.37,16.48-19.98.66-4.33-.04-7.8,0-11.99.07-7.36,0-14.64-.5-21.98,9.21,9.81,17.96,22.06,5.49,3.5,1.05-.78,2.52-.42,4.5-1,.3-.09,1.2,1.13,1-.25-.15-1.04-8.56-16.29-10.49-18.23-.15-5.93-.17-12.06,0-17.98.03-1.06-.25-5.61.25-5.99,5.43,6.59,13.65,14.04,18.73,20.48,11.2,14.19,12.84,22.49,13.98,23.22,4.21,2.73,2.15-1.96,1-4-2.71-4.8-10.36-15.01-13.98-19.73-8.42-10.98-20.04-21.74-20.48-23.22-.25-.85-.28-3.79,1-3.25.9,1.62,18.08,19.97,19.48,19.98,2.12-.3,3.42-1.44,5.74-.5.83.34,7.62,9.38,2.25-.75-1.06-1.99-3.31-3.37-4-4.25-1.6-2.03-3.54-3.36-4.5-4.5-2.15-2.57-8.47-13.06-12.24-13.49-6.43-.72,6.91,10.01,11.24,15.48.7.89,1.4,1.78,2,2.75l-.75.25q-9.86-9.74-19.73-19.48c-.41-7.58.09-15.37,0-22.98-.12-10.31-1.23-20.67,0-30.97.09.15.15,1.81,1,3.25,10.38,17.54,23.72,32.88,35.46,49.45,6.47,9.13,12.25,19.85,18.98,28.72Z"/>
          <g>
            <path class="cls-15" d="m272.21,303.47c-1.42-3.4,1.57-4.04-1.5-7.24,1.67-1.33.85-3.72,1-5.74.75-10.11,4.32-20.44,1-30.47l-.5-10.74,1,.75,1,.25c.67-1.91-2.14-29.63,1-14.98.3,1.4,2.41,25.58,2.5,28.47.48,15.88-.85,24.72-5.49,39.71Z"/>
            <path class="cls-24" d="m271.71,290.49c-.15,2.02.67,4.41-1,5.74,3.07,3.2.08,3.84,1.5,7.24-.66,2.12-4.52,14.12-4.99,14.73-.82,1.07-.76.02-2.5.75-.22-.8-1.45-.79-2-1-1.26-.47-1.28-.4-2-1.75,3.34-4.61,4-10.4,6.49-15.48.71-2.04,1.98-13.95,2.75-13.74.3,1.78.18,2.34,1.75,3.5Z"/>
            <path class="cls-20" d="m264.71,227.55c3.13,7.3,6.05,14.9,8.49,22.48l-1-.75.5,10.74c-1.25-2.04-1.17-6.23-2-10.49-.22-1.14-.96-6.91-2.25-6.99-.15,2.14-.35,6.24-2.25,6.99-1.17-5.17-5.26-19.67-6.99-25.47,1.71.45.52-3.02,1.75-3,1.24.02,1.72,8.26,3.75,6.49Z"/>
            <path class="cls-34" d="m226.26,388.38c-16.85,5.63-27.62,5.02-45.2,4.99v-1c25.27-1.15,40.43-1.29,62.68-14.48,1.25,3.85-12.14,8.7-17.48,10.49Z"/>
            <path class="cls-21" d="m256.22,154.13l1-2c.95,1.14,2.89,2.46,4.5,4.5l-4,5.49c-1.4,0-18.58-18.36-19.48-19.98-.26-.46-.1-1.51-1-1.75-.35-2.4.51-2.61.5-2.75q9.86,9.74,19.73,19.48l.75-.25c-.6-.97-1.29-1.86-2-2.75Z"/>
            <path class="cls-24" d="m256.22,333.94c-5.57,7.99-15.23,19.06-22.48,25.47-1.03-.61-.41-1.76-2-2,.24-.22.89-2.65,1-2.75,8.08-7.77,14.34-12.63,20.98-22.73.82.62,1.95,1.61,2.5,2Z"/>
            <path class="cls-24" d="m293.18,250.53c-.32,3.57,1.04,8.13,1,11.49-.05,4.1-.1,7.89-.5,11.99-3.34-8.67-.59,5.92-5.49,10.24,2.08-11.84,2.58-24.05.5-35.96l4.5,2.25Z"/>
            <path class="cls-20" d="m258.72,335.94c-1.75,3.22-3.97,5.42-6.49,7.99-4.01,4.08-9.18,8.01-12.99,12.24-.23.26.04.82.5.75-5.71,4.8-18.82,13.78-17.73,10.99.26-.67,6.64-3.98,11.74-8.49,7.25-6.41,16.91-17.48,22.48-25.47,1.78,1.25,2.36,1.92,2.5,2Z"/>
            <path class="cls-36" d="m258.47,163.12c.96.16,1.36,2.44,1.5,2.5.89.39,3.25-.16,4.5.5,1.47.78,16.81,27.06,16.73,28.72-.02.47-.36,1.16-.75,1.25-2.28.53-16.27-27.79-19.98-29.47-1.08-.49-2.35.98-2.75.25-.18-.33.19-3.84.75-3.75Z"/>
            <path class="cls-15" d="m306.17,265.51c-1.55.36-.88-1.5-1-3.75h-1c-.46,2.22-.28,4.53-.5,6.74-.34,0-.91.12-1-.25-.41-1.7-.09-27.64.5-28.97,3.37-7.66,2.63,17.91,3,26.22Z"/>
            <path class="cls-10" d="m297.68,219.06c.82.06,1.67,0,2.5,0-.25,2.21,4.1,14.47,3.5,15.23-.39.5-2.72-.26-4.25,1.75l-3.25-17.48c1.07.15,1.19.48,1.5.5Z"/>
            <path class="cls-15" d="m270.71,249.53c-2.08,6.31.93,15.23.5,25.22-.89,20.36-1.49.29-1.5-7.99-.96-5.79-2.21-11.51-3.5-17.23,1.89-.75,2.09-4.86,2.25-6.99,1.28.08,2.03,5.86,2.25,6.99Z"/>
            <path class="cls-20" d="m306.17,265.51c.11,2.59.94,3.71,1,5.49-3.31,3.77-1.98,14.22-2.5,17.48-.06.38-2.11,6.81-2.5,6.24.15-8.74.65-17.52,1.5-26.22.22-2.22.04-4.52.5-6.74h1c.12,2.25-.55,4.1,1,3.75Z"/>
            <path class="cls-52" d="m212.27,351.42c12.71-12.08,8.08-10.83,10.49-16.23.18-.4,1.29,1.57,4-7.24-1.41,11.08-9.85,24.45-19.23,30.47-.88.57-8.77,5.07-8.24,3.25,4.89-2.73,8.95-6.4,12.99-10.24Z"/>
            <path class="cls-49" d="m257.22,152.14l-1,2c-4.33-5.47-17.67-16.2-11.24-15.48,3.77.42,10.09,10.92,12.24,13.49Z"/>
            <path class="cls-11" d="m215.27,261.52c-15.87-5.67-25.31-5.14-41.46-2-.06-.3.01-.67,0-1,1.39-.05,2.68-.64,4-1,2.07-.57,2.8-.76,4.99-1,11.39-1.25,23.04-1.33,32.46,4.99Z"/>
            <path class="cls-36" d="m282.19,209.07c.03.75-.61.4-1,.5-3.09.81-9.04-14.06-8.24-14.48,3.52-1.89,7.98,9.79,7.74,12.74.41.67,1.11.58,1.5,1.25Z"/>
            <path class="cls-10" d="m225.76,270.01c.4,1.39,2.96,16.41,1.75,16.48-1.53-6.68-4.09-13.2-6.74-19.48l.75-3,4.25,5.99Z"/>
            <path class="cls-36" d="m304.67,288.49c.52-3.26-.81-13.71,2.5-17.48.39,10.96.4,28.38-2.5,17.48Z"/>
            <path class="cls-18" d="m225.76,270.01l-4.25-5.99-.75,3c-.6-1.43-1.39-2.63-2-4-1.11-2.48-2.23-4.6-3.5-6.99-.5-.95-2.82-2.94.25-2.5,3.06.44,9.35,13.36,10.24,16.48Z"/>
            <path class="cls-41" d="m256.72,169.12l1-.5c3.62,4.72,11.28,14.93,13.98,19.73,1.15,2.03,3.21,6.72-1,4-1.14-.74-2.79-9.03-13.98-23.22Z"/>
            <path class="cls-36" d="m264.71,227.55c-2.03,1.77-2.51-6.47-3.75-6.49-1.23-.02-.03,3.45-1.75,3-.94-3.16-4.64-7.68-3-9.74,2.71-3.41,6.76,9.21,8.49,13.24Z"/>
            <path class="cls-36" d="m231.75,357.41c-7.43,6.99-17.15,13.53-27.47,13.74,9.63-1.64,25.95-13.97,27.47-13.74Z"/>
            <path class="cls-24" d="m310.91,237.54c1.39-.27,5.49,3.76,1,6.99-6.88,4.95-3.85-6.44-1-6.99Z"/>
            <path class="cls-42" d="m177.81,256.02c-.24-2.24-1.28-4.76,0-6.99,6.61,5.26,11.46,5.03,0,6.99Z"/>
            <path class="cls-39" d="m228.25,250.03h-1c-2.04-2.02-4.33-3.83-6.24-5.99-1.45,1.98-6.55-.18-10.49.5l.75-1.5c5.78-.19,8.78.56,9.24.5.41-.05-.06-.84.75-1,2.68,2.21,4.63,5.09,6.99,7.49Z"/>
            <path class="cls-13" d="m257.72,162.13l4-5.49c.69.87,2.94,2.25,4,4.25,5.37,10.13-1.42,1.09-2.25.75-2.32-.94-3.63.2-5.74.5Z"/>
            <path class="cls-36" d="m238.24,187.1c1.7,1.31,3.32,3.24,4.5,4.99,12.47,18.56,3.72,6.31-5.49-3.5l1-1.5Z"/>
            <path class="cls-24" d="m248.98,299.48c3.33-2.57-.2,12.26-.5,13.49-.59-1.82-.15-12.98.5-13.49Z"/>
            <path class="cls-4" d="m239.74,356.91c-.46.07-.73-.49-.5-.75,3.81-4.23,8.98-8.16,12.99-12.24-3.14,5.24-7.87,9.1-12.49,12.99Z"/>
            <path class="cls-4" d="m257.97,205.08c1.26,1.01,2,2.37,2.75,3.75,6.32,11.66.9,10.2-2.75-3.75Z"/>
            <path class="cls-44" d="m238.99,291.98c3.33-.7,12.65,6.7,0,2.5-.78-.2-.12-2.47,0-2.5Z"/>
            <g>
              <path class="cls-34" d="m239.74,263.52c.05,3.11-.53,6.2,1,6.49-.22.14-1.04,2.27-1.5,3-.15,0-1.33,1.5-3-.25-.58-3.36,1.16-9.25.5-11.74,4.25-1.46,1.11.77,3,2.5Z"/>
              <path class="cls-39" d="m248.73,273.01c.08-.63-.13-1.4,0-2,.28-1.27.29-.69,1-1.5.53-.61,3.74-1.96,5.24-4,.45,8.43-3.02,7.19-6.24,7.49Z"/>
              <path class="cls-39" d="m239.74,263.52c-1.89-1.73,1.25-3.96-3-2.5-.05-.2-1.84-2.07-2.5-3,.78-.09.94-.96,1-1,.79-.56,4.43-2.66,4.99-1.75-.86,2.12-.54,5.72-.5,8.24Z"/>
              <path class="cls-29" d="m228.25,250.03c2.29,2.33,5.03,4.31,6.99,6.99-.06.04-.22.91-1,1-.37-.52-6.43-7.43-6.99-7.99h1Z"/>
            </g>
            <g>
              <path class="cls-39" d="m281.95,323.95c6.24,12.94,9.88,4.9,10.74,6.74-11.41,12.21-11.52,6.96-10.74-6.74Z"/>
              <path class="cls-22" d="m256.72,330.94c.95.96,2.13,2.04,3,3,2.56,2.81,3.98,4.68-1,2-.14-.08-.71-.75-2.5-2-.55-.39-1.68-1.38-2.5-2-3.59-2.7-7.43-6.38-10.74-9.49,4.31-2.18,7.34,2,13.74,8.49Z"/>
              <path class="cls-2" d="m259.72,333.94c-.87-.96-2.05-2.03-3-3,3.1-3.37,3.86-9.15,8.74-10.49q-2.87,6.74-5.74,13.49Z"/>
              <path class="cls-19" d="m273.45,331.44c.45-.18,9.02,2.4,7.24,4.74-2.23,2.95-12.15-2.76-7.24-4.74Z"/>
              <path class="cls-2" d="m280.95,312.96c4.24,5.57,6.53,3.7-5.74,3.75l5.74-3.75Z"/>
              <path class="cls-39" d="m267.21,334.94l.5-4c3.26-1.66,4.47-1.15,4.5,2.75-3.87-1.52-2.79.12-4.99,1.25Z"/>
              <path class="cls-44" d="m267.21,334.94c-7.68,3.91-2.88-2.27.5-4l-.5,4Z"/>
              <path class="cls-41" d="m264.71,318.96c-1.79.75-4.36,3.14-2-1,.55.21,1.78.19,2,1Z"/>
            </g>
            <path class="cls-34" d="m198.78,395.37c-.48,1.32-1.48,1.38-2,0,.67-.02,1.33.02,2,0Z"/>
            <g>
              <path class="cls-34" d="m309.17,214.57c-1.62.43-2.79.82-4.5,1-4.76-.66-9.12-2.68-12.99-5.49-.43-.45-1.08-1.29-1-2-2.74-3.78-9.09-1.37-8.49-8.24.53-6.06,5.78-3.32,6.74-4.74,3.58,5.76,7.71,11.16,13.24,15.23.91,1.88-8.78-1.59-13.24-13.74-1.06,9.72,10.54,18.5,20.23,17.98Z"/>
              <path class="cls-39" d="m309.17,188.6c-.58-.04-1.17.03-1.75,0-1.86-4.52-1,9.95,2.75,0,.22.01,1.69-1.36,4.5,0,.4.79,1.34,2.19,1.5,3-2.95-.86-4.08,1.24-4.99,4-7.1-3.27-5.4-5.54-6.24-5.49-1.81.09-2.1,9.99-3,9.99-2.96-10.07-2.97-1.17-4.25-4.25-1.04-2.52-.33-3.77.5-5.74,3.2.1,6.84-.6,7.99-4l3-1.5c2.58,3.3.13.43,0,4Z"/>
              <path class="cls-34" d="m316.16,191.59c1.95,10.05-5.93,14.26-6.49,13.24,8.89-8.74,5.47-7.41,1.5-9.24.91-2.76,2.04-4.86,4.99-4Z"/>
              <path class="cls-39" d="m306.17,186.1c-1.15,3.4-4.79,4.1-7.99,4,1.46-3.46,4.15-5.36,7.99-4Z"/>
              <path class="cls-8" d="m314.66,188.6c-2.8-1.36-4.27.01-4.5,0-.33-.02-.67.02-1,0,.13-3.57,2.58-.7,0-4,3.65-.47,4.05,1.15,5.49,4Z"/>
              <path class="cls-24" d="m309.17,188.6c.33.02.67-.02,1,0-3.74,9.95-4.61-4.52-2.75,0,.58.03,1.17-.04,1.75,0Z"/>
            </g>
          </g>
        </g>
        <path class="cls-39" d="m208.77,135.15c-1.05,3.35-4.58.1-2,3.5-.25-.17-1.48.18-1.75,0-7.6-5.04-15.37-9.87-23.22-14.48,0-.5,0-1,0-1.5,7.51,3.47,16.88,12.61,24.47,12.24-8.7-6.31-2.81-3.99,2.5.25Z"/>
        <path class="cls-40" d="m182.3,120.67c0-.36-.77.79-.5-6.49,5.51,2.82,8.41,6.96.5,6.49Z"/>
        <path class="cls-34" d="m61.43,169.12c-4.14,6.93-9.85,12.86-13.98,19.73-6.08,10.12-17.92,38.44-19.48,49.7-3.66,2.81-1.02-7.92-.5-10.24,2.99-13.23,16.78-43.53,25.47-53.94,2.07-2.48,13.7-13.97,8.49-5.24Z"/>
        <path class="cls-15" d="m85.91,120.67c.16.72-5.09,6.16-5.99,6.99-7.93,3.7-15.99,9.24-22.98,14.48l-1.5-3c7.03-5.23,22.67-14.86,30.47-18.48Z"/>
        <g>
          <path class="cls-24" d="m148.34,103.19c.68,8.49,1.71,16.96,2,25.47-2.87.91-6.4,3.62-8.49,4.5-4.88,2.03-9.82,2.69-14.73,4.5.57-2.96.14-5.14-.25-7.99-.02-.16.84-3.11-.5,0-.83.24-1.05-.53-1.5-.5-1.63.1-3.18,2.22-4.99,2.25-.12.87,1.96,1.17,3.5,2.75,4.91,5.04-2.33-.58-7.49-.5-5.91.09-15.26,3.94-20.98,5.99-6.94,2.49-16.93,5.15-8.49,4.74-5.69,5.13.23.85,4.25.75-.43-1.94,1.19-1.07,2.75-2.5,2.12,2.56,3.47-1.6,5.49.25-3.58,1.96-11.47,2.25-5.24,5.24,4.96-3.23,21.92-8.33,23.72-9.49l1,1c-14.38,5.76,2.1.53,7.49-1,6.49-1.84,9.92-2.43,16.48-3.5,1.89-.31,2.13.52,2.25.5.4-.06,5.28-2.52,7.74-2.5l.5,16.48c-.36-.03-6.71,1.32-6.99,1.75-.12.18.08,4.12.25,4.25.26.19,5.95-.87,6.24-1l.75,10.49q4.62-9.49,9.24-18.98c0,.06,1.2-.33,1,.75-2.24,3.41-2.56,7.32-3,11.24-3.08.54-4.99,7.79-6.49,9.49-.6,2.21-.96,33.51-.5,35.21.4,1.5,1.84,2.05,3,2.75-.05.08-1.81.03-1.5,1.25.23.9,1.89.64,2,1,.57,2-.42,14.53,0,18.98.66,1.49,5.11.39,7.49.75.48.07,1.02-.08,1.5,0,1.08.18,2.28.78,3.5,1,6.67,1.18,11.32,4.01,4-.5.71-.42,1.12-.61,2-.5,1.15.15,1.15.52,2,1,5.19,2.93,1.06,7.29,2.75,8.49.89.63,18.72-2.92,21.73-2,.38.12,4.41,2.6,4.25,3.5q-15.23.25-30.47.5c-6.62,4.14-14.67,2.03-22.48,3.5-6.29-3.96,10.7-1.12,21.73-4.5.44-.13,1.14.26,1.5-.25-1.4-.82-1.42.25-1.5.25-11.05.34-22.47.57-33.46,1.5-7.11-1.59-17.4.94-22.23-1.5-6.32,3.29-14.74-1.36-21.98-.5-8.3.99-16.01,7.67-19.73,14.98-5.06-.11-1.06,2.64-5.49,3.75-.08.55.12,1.24,0,1.75-3.21-1.26-1.28,2.02-2.5,6.24.64,1.22.99,1.17,1,1.25.41,4.39-1.21,6.95,2,4.99-.68,10.82,1.14,7.23,1-1.25,2.42-11.08,7.3-26.42,20.23-28.72,5.88-1.04,9.66.61,12.24.5.52,1.15.7,5.62,1.75,5.99.3.11,2.67-.79,6.24-1,9.12-.54,18.33-1.49,27.47-1.5,1.8,0,10.93-.5,11.49.75.03,4.24-.05,8.49,0,12.74-4.63-.47-9.34-.37-13.98-.5-6.16-.18-17.22-.96-22.98-.5-4.12.33-11.49,1.3-14.98,3.5-2.35-2.32,1.02-4.93,1.75-7.49-7.57,4.46-11.24,13.19-10.74,21.73,1.78-3.15,3.56-6.17,5.49-9.24,8.62-4.64,18.36-6.02,27.97-6.99,4.6-.05,8.87-.13,13.49,0,4.67.13,9.32.32,13.98.5.01.73.03,2.4.5,3-.06.01-.36.95-.75,1-6.55.79-13.67-.64-20.23-.5-9.81.21-31.37-1.11-33.21,10.99.39.28,2.78-.45,3.75-.5,10.41-.52,20.49-1.47,30.97-1.5,3.33,0,6.66-.17,9.99,0-5.47,1.04-12.23,2.08-17.73,2.5-5.29.4-28.77-.41-26.72,2.25,15.82.21,31.62-.8,47.45-.75-3.35,4.18.02,4.53,1.5.5.25,0,1.6-.86,4.99-.5.52,6.97-.38,14.67,0,21.73.67,1.47.97.98,1.5,1.25.14.07,2.5.43,3,.5.16.02.33-.02.5,0,.16.02.33-.01.5,0v1c-.17,0-.33,0-.5,0-2.74.09-5.5-.06-8.24,0-.15,12.46,2.06,2.3,2.5,2,.29-.21,2.43.16,3.25,0v4.5c-1.57.14-3.02-.38-3,.5.3,7.42-.28,33.75.5,37.21.46,2.03,1.9,2.76,3.5,3.75-.1,3.49.07,7,0,10.49-.29-.13-.59,1.18-2-.75-.81-1.11-.91-3.1-1-3.25-.77-1.33-.14-2.01-1.25-3-.85-.76-15.16-6.94-19.98-10.99,1.89,7.99,18.79,11.34,20.73,14.48,3.16,13.68,4.38,27.8,6.49,41.7.23,1.55.97,3.26,2,4.5.15,1.49-.21,3.33,0,4.74.95,6.3,1.6,19.06,2,19.98-7.35.05-14.9-.01-22.23.5-6.55.46-17.5,3.53-18.48,1-9.62,5.45-29.35-1.85-31.97,0-.66.47.01,3.59-.25,4.5-3.62-.66-7.2-1.87-10.49-3.5-.74-.37-3.81-1.87-4-2-.35-.24-2.64-2.14-3-2.5-11.18-11.16,4.98-30.04,4.74-11.99,4.8.3,9.51,1.16,14.23,2,4.92.87,9.92,1.12,14.73,2.5v1l-31.97-3.5c1.93-2.21,1.09-4.36.5-6.99-.26,1.52-5.84,7.75-5.74,8.24.36,1.93,11.9,8.39,14.48,7.99.15-.66-6.87-4.42-7.74-5.24-3.38-3.2.77-1,1-1,6.58.08,33.35,2.67,34.96,2,6.13-2.57-16.31-4.17-14.73-6.24,7.48-.08,3.94-1.85-1-.25-5.8-7.27-12.05-5.76-4.5-1.5-.06-.02-.04.93-1.25.5-.45-.16-4.3-2.66-7.24-4-5.02-5.23-11.54-2.62-16.48-11.24-5.31-9.26-2.59-20.99,9.74-19.23l4.25-6.99c8.73,1.93,10.19.02,10.74,0,.59-.02,1.63,3.52,3-.5,9.74,6.71-5.46-4.82,3.25-4.74-.84-3.1.89-3.05,1-3.25l6.99.25c-14.3-10.46-25.96-32.81-31.97-49.2-.79-2.16-2.79-7.29-3-7.99-6.68-22.93-9.97-63.47,16.73-74.42,24.32,5.3,3.91-2.54-2.5-1.5-6.04.98-14.51,13.27-16.73,18.73-5.13,12.63-3.44,24.36-2.5,37.46.02.25-1.02,4.74-1,4.99.11,1.69,3.86,12.91,5.49,15.23,1.06,6.31-3.79,9.81-2,15.48.19.62.71,1.35,1,2,.16.35.33.66.5,1l-1.5,1c-5.89-8.83-2.34-.97-2.5-.25-.17.82-10.08,10.91-11.49,12.24-1.82,1.72-2.34,2.88-2.5,3-.07.06-1.41.97-1.5,1-9.33,2.76,14.77-18.3,9.24-26.97-1.41,9.97-4.41,14.11-11.49,20.98-.65.16-11.14-3.41-12.74-4l-6.24-7.49c-.35-.02.21,3.76-.25,4.5-.04.06-.91.21-1,1-2.5-2.5-4.91.13-5.49,2.5-8.34-2.58-5.25-24.16-4.99-32.22,1.76-1.56,4.1-1.91,5.99-3.25,1.23-.86,1.41-1.44,1.5-1.5,2.78-1.8,5.46-3.16,8.49-4.5,2.02-.89,3.89-1.76,5.99-2.5,3.37-1.18,7.17-1.15,7.49-1.75l-.5-14.23c.41-.71.84-2.66,2-3,.91,13.54-3.47,19.19,6.49,18.23-.29-15.63.81-35.3,6.49-49.95,2.28-5.87,11.13-17.89,2-7.99-.95,1.03-4.97,6.02-5.49,6.99-1.28,2.37-6.35,23.16-4.99,10.99.32-2.83,1.72-8.27,2.5-11.24,12.07-46.3,56.78-58.29,60.68-62.93.42-.5,1.07-2.21.75-2.75-.8-1.34-25.49,14.04-27.22,15.23-19.03,13.12-29.15,26.41-34.71,48.95-.28,1.12-1.07,2.9-1.5,4.99-2.9-4.67,2.45-16.66-.5-15.48,4.58-15.45,16.04-27.31,25.97-39.46,1.32-1.62,3.4-3.06,4.5-4.99,2.8.61,5.67,1,8.49,1.5,1.54-.09,7.34-11.52,7.49-12.24.25-1.18-.63-.4-1-.25,5.32-11.33-4.05,4.04-13.98,4.99q-6.87-2.5-13.74-4.99c-.58.13-3.9,5.08-4.74,5.99-3.38,3.64-6.97,7.29-9.99,11.24-4.46,5.85-9.16,17.09-11.49,13.74,5.46-9.97,12.25-18.85,18.98-27.97,1.58-2.15,7.56-6.23,4-9.24-1-.85-19.05,11.78-22.23,13.24-.58.27-.9-.75-1.5-.5-.65.27-2.03,2.51-2.75,2.5.21-1.46,5.56-9,6.24-8.99.81.01-.87,1.72.5,1.5,1.1-.17,13.13-13.48,16.73-14.48.21-.06.41.62,2,0-.94,7.53.94,6.95.5,2,2.11-.29-.02,3.3,1.75,3.5l.25-8.24c9.73-10.85,24.54-16.61,26.72-18.23.74-.55,1.11-.97,0-1-3.52-.08-34.44,14.61-38.71,24.47-7.24,5.33-9.4,10.97-18.98,15.48-2.38,1.12-2.69-.5-3.5.75-.63.64-3.5,11.46-4.5,13.74-1.22,2.8-3.49,7-4.99,9.99-1.93,3.82-3.75,7.7-5.74,11.49-2.03-.57-4.14-.94-6.24-1-.55-.02-2.36-1.73-3.5.75-1.9,38.57-14.93,39.78,1,80.41l1-.5c-1.36-8.16-4.54-15.45-4.99-23.72,1.17,7.4,7.84,23.8,4.99,28.22,2.11,5.99,3.97,12.14,4.5,18.48q-7.74-24.22-15.48-48.45c.14-6.98.64-13.61-1-20.48,6.69,6.74,6.61-25.53,9.99-39.46,11.01-30.11,13.09-41.35,35.71-64.68,1.84-1.89,8.35-6.11,8.74-6.49l1,.5c-11.8,9.29-17.48,17.89-25.47,29.97-1.51,2.28-8.3,9.19-5.49,10.49-.83,1.5-9.66,25.19-9.99,26.72-1.77,8.18,3.51-3.6,5.49-8.24,5.33-6.89,10.91-19.28,15.48-25.47,8.76-11.86,32.32-26.81,44.45-37.96.44-.21,1.8.2,2.25,0,11.35-5.22,23.14-9.52,34.21-14.98,3.62-1,6.91-.24,10.49,0,.67.05,5.86.52,5.99.25q-5.87-3.12-11.74-6.24h19.48c-3.49-1.72-11.53-.74-5.24-2.5,4.23-1.18,8.66-1.01,12.99-1Z"/>
          <g>
            <path class="cls-36" d="m55.94,235.05l-.5-1.5c5.56-22.54,15.68-35.83,34.71-48.95,1.73-1.19,26.42-16.57,27.22-15.23.32.54-.33,2.25-.75,2.75-3.9,4.64-48.61,16.63-60.68,62.93Z"/>
            <path class="cls-1" d="m71.42,304.47l-.5.5c-1.63-2.32-5.39-13.54-5.49-15.23-.02-.25,1.02-4.74,1-4.99-.95-13.1-2.63-24.83,2.5-37.46,2.22-5.46,10.69-17.75,16.73-18.73,6.41-1.04,26.82,6.8,2.5,1.5-26.7,10.95-23.41,51.49-16.73,74.42Z"/>
            <path class="cls-25" d="m141.35,239.54c-3.87.33-8.16,1.23-11.99,2l1.25-1.5c-4.74.04-9.49-.06-14.23,0-3.44.04-7.07.85-10.49,1-2.58.11-6.36-1.54-12.24-.5-12.93,2.3-17.81,17.64-20.23,28.72.14,8.48-1.68,12.07-1,1.25.34-5.44,2.51-13.09,4.99-17.98,3.71-7.31,11.43-14,19.73-14.98,7.24-.86,15.66,3.79,21.98.5,4.83,2.44,15.12-.09,22.23,1.5Z"/>
            <path class="cls-44" d="m153.33,274c.08.48-.04,1.01,0,1.5-3.39-.37-4.74.5-4.99.5-.08,0,.45-.49-1.5-.5-15.82-.05-31.62.96-47.45.75-2.05-2.66,21.43-1.85,26.72-2.25,5.51-.42,12.26-1.46,17.73-2.5-.05-.42.12-.48.5-.5,2.61-.15,5.99,1.12,8.74.5.52.37.14,1.84.25,2.5Z"/>
            <path class="cls-39" d="m64.93,154.63c-3.6,1.01-15.64,14.31-16.73,14.48-1.37.22.31-1.49-.5-1.5-.68,0-6.03,7.53-6.24,8.99-2.4-.06,2.58-6.27-2.5-3l-.5-1c9.58-4.51,11.74-10.16,18.98-15.48,1.79-1.32,10.6-6.98,7.49-2.5Z"/>
            <path class="cls-28" d="m153.83,354.42l-.5.5c-1.94-3.15-18.84-6.5-20.73-14.48,4.82,4.05,19.12,10.23,19.98,10.99,1.11.99.48,1.66,1.25,3Z"/>
            <path class="cls-41" d="m100.14,246.03c5.46-.86-5.76,3.07-11.49,8.49-2.32,2.2-7.76,11.79-4.74,2.25,1.73-5.47,11.02-9.91,16.23-10.74Z"/>
            <path class="cls-1" d="m126.11,231.55c7.19-.26,14.57-.2,21.73.75q-17.11.37-34.21.75c-.54-1.04,7.84-1.33,12.49-1.5Z"/>
            <path class="cls-37" d="m138.85,257.52v1c-4.62-.13-8.89-.05-13.49,0-5.76.06-11.12.74-9.49-1.5,5.75-.46,16.81.32,22.98.5Z"/>
            <g>
              <path class="cls-40" d="m153.08,208.08c2.21-1.5,1.09,17.19,1,19.48-1.63,1.25-1.83-18.91-1-19.48Z"/>
              <path class="cls-37" d="m158.33,299.98l-1,1.5c-1,0-1.03.41-1.5.5-.82.16-2.95-.21-3.25,0-.43.31-2.65,10.46-2.5-2,2.74-.06,5.5.09,8.24,0Z"/>
            </g>
            <path class="cls-20" d="m106.14,315.96c3.03,4.07,7.06,7.96,9.74,12.24,5.81,9.28-5.47-2.86-9.74-12.24Z"/>
            <g>
              <path class="cls-34" d="m74.42,312.46c-1.55-.35-.78,1.26-1,1.5-2.66,2.91-2.27,3.01-4.5,6.49-1.79-5.67,3.06-9.18,2-15.48l.5-.5c.2.7,2.2,5.83,3,7.99Z"/>
              <g>
                <path class="cls-11" d="m48.95,305.47c-1.55,2.62,5.2,5.39-.5,5.49-1.78.03-5.85-1.82-6.49,1.75-.64,3.57,3.27,3.03,2.75,6.24-9.04-4.89-2.01-13.35-10.49-5.49-1.12-3.24,1.92-8.87,4.99-9.99,6.95-2.54,4.64,1.87,4.99,2,.22.08,1.56-.89,4.74,0Z"/>
                <path class="cls-44" d="m48.45,310.96c5.7-.11-1.05-2.87.5-5.49,8.56,2.39,5.93,15.36-3.25,13.49,6.19-1.42,9.23-3.6,2.75-7.99Z"/>
                <path class="cls-24" d="m35.96,330.44c-2.37-.86-4.31-1.77-6.49-3,.46-.74-.1-4.51.25-4.5l6.24,7.49Z"/>
              </g>
            </g>
            <path class="cls-11" d="m152.83,258.02c0,.33,0,.67,0,1-4.67-.18-9.31-.37-13.98-.5v-1c4.65.13,9.36.03,13.98.5Z"/>
            <path class="cls-34" d="m115.13,123.17l30.22.75q-15.11.12-30.22.25v-1Z"/>
            <path class="cls-24" d="m71.92,258.02c-.49,2.06-.15,5.26-1.5,7.49,0-.08-.36-.03-1-1.25,1.22-4.22-.71-7.5,2.5-6.24Z"/>
            <path class="cls-19" d="m150.09,203.58c2.16-.8,1.25,3.56,2.25,4.74-5.01,1.91-2.93-4.49-2.25-4.74Z"/>
            <path class="cls-34" d="m125.61,217.57c1.1-.03.81.25,0,1-5.57,5.12-22.15,11.63,0-1Z"/>
            <path class="cls-22" d="m148.34,276c-1.48,4.03-4.85,3.68-1.5-.5,1.94,0,1.42.5,1.5.5Z"/>
            <path class="cls-39" d="m115.13,364.41c6.02,1.73,7.18,3.76,0,1v-1Z"/>
            <path class="cls-43" d="m67.43,156.63c.44,4.95-1.44,5.53-.5-2,.81-.03.41.97.5,2Z"/>
            <g>
              <path class="cls-43" d="m71.17,383.89c4.93,8.4,27.53,11.45,37.21,10.74-10.9,5.11-38.17.87-37.46-3,.61-3.33,7.62,1.08,9.99,0-3.48-1.91-9.93-2.47-9.74-7.74Z"/>
              <path class="cls-1" d="m132.86,390.38h-4.5c-11.14-.99-21.32-5.89-20.98-.5.26,4.16,6.66.74,5.99,4-5.95-1.13-11.7-3-17.48-4.74l13.74-3.25c.68-1.04-2.01-3.67-1-4,.3-.1,3.78,4.37,3,4.99,1.48-1.3,9.53.84,13.98,1.5,2.88.43,7.69-1.13,7.24,2Z"/>
              <path class="cls-24" d="m113.38,393.87c.66-3.25-5.73.16-5.99-4,6.98-.68,13.47,1.84,20.23,3-1.6,3.18,1.44,1.14,3,1.5.16.04.17,1.06,3,1.5,2.82.44,19.56.06,10.99,1.5-1.97.33-27.1-2.72-31.22-3.5Z"/>
              <path class="cls-22" d="m132.86,390.38c-.2,1.39-3.83.06-4.5,0h4.5Z"/>
              <g>
                <path class="cls-34" d="m83.91,407.36c2.95,1.34,6.79,3.84,7.24,4,1.21.43,1.18-.52,1.25-.5,2.17.64,3.06,1.37,4.5,1.5,4.94-1.6,8.48.17,1,.25-1.57,2.07,20.86,3.68,14.73,6.24-1.61.68-28.38-1.92-34.96-2-.23,0-4.38-2.2-1,1,.87.83,7.89,4.59,7.74,5.24-2.58.4-14.12-6.06-14.48-7.99-.09-.49,5.49-6.72,5.74-8.24.59,2.63,1.43,4.79-.5,6.99l31.97,3.5v-1c-4.82-1.37-9.81-1.62-14.73-2.5-3.3-4.2-15.14-1.47-14.73-9.49,1.9,1.38,4.14,2.04,6.24,3Z"/>
                <path class="cls-39" d="m145.34,413.85c3.2.75,10.76-.29,11.24,0,2.89,1.72-4.76,1.53-6.49,2-.49.13,0,1.4-.5,1.5-6.8,1.42-22.73-.04-30.97.5,9.39-.68,16.56-2.05,25.22-4.5,0,.84.87.35,1.5.5Z"/>
                <path class="cls-39" d="m96.9,412.35c-1.44-.13-2.32-.86-4.5-1.5-7.56-4.26-1.3-5.77,4.5,1.5Z"/>
                <path class="cls-22" d="m145.34,413.85c-.63-.15-1.51.34-1.5-.5.74-.21,1.43-.95,2.25-1l-.75,1.5Z"/>
              </g>
            </g>
            <g>
              <path class="cls-34" d="m134.85,295.48c-.04.38.11.55.5.5-1.26,3.49.53,1.85.5,2.75-.02.58-4.8,2.35-5.49,2.75-1.51-2.41-4.27-.38-6.24.5.62,1.29,4.13-.96,3.75,1-3.26,1.89-13.66,9.69-16.48,5.74-2.78-3.9,11.11-10.12.5-12.74.49-.18,1.98.12,3,0,1.94,1.53,1.88,2.57,3,4.5-.03.99-.82,2.9-1.5,3.75.66,1.11,15.96-8.98,18.48-8.74Z"/>
              <path class="cls-34" d="m111.38,296.48c-1.8,1.64,1.46,7.9-10.24,7.49l-.75-8.49,10.99,1Z"/>
              <path class="cls-39" d="m114.88,295.98c-1.01.12-2.51-.18-3,0-.69.26-.47.48-.5.5l-10.99-1,.75-1c2.6,1.51,2.82-1.09,4.25-1.5,1.99,1.61,5.1-2.1,5.74,2,2.36-.69,2.03-.35,3.75,1Z"/>
              <path class="cls-44" d="m117.87,300.48c-1.11-1.92-1.05-2.97-3-4.5-1.72-1.35-1.39-1.69-3.75-1-.65-4.1-3.75-.39-5.74-2,6.51-1.88,12.75-.48,12.49,7.49Z"/>
              <path class="cls-24" d="m135.85,294.98c.08-.48.12-1.02-.5-1,.48-3.12.93-3.14-1.5-4.5,10.01.85,5.59-3.58,5.99,3.25l-4,2.25Z"/>
              <path class="cls-34" d="m109.63,283.99q6.12,1.37,12.24,2.75l-4.74-.25c8.21,5.16-3.66,1.27-7.49-2.5Z"/>
              <path class="cls-39" d="m130.36,301.47c-.83.48-1.66,1.01-2.5,1.5.39-1.95-3.13.29-3.75-1,1.97-.88,4.74-2.91,6.24-.5Z"/>
              <path class="cls-24" d="m133.86,289.49c-1.86-.16-2.31-.38-4-1,1.84.3,2.1-.06,4,1Z"/>
              <path class="cls-44" d="m135.85,294.98c-.06.41-.34.55-.5,1-.39.05-.54-.12-.5-.5.11-1.05.44-1.12.5-1.5.62-.02.58.51.5,1Z"/>
              <path class="cls-24" d="m129.86,288.49c-.48-.18-1.9.28-2-.25,2.82-1.31,1.85.23,2,.25Z"/>
            </g>
            <path class="cls-39" d="m11.74,289.49c.48-.29.99.11.5,1-.69,1.24-1.17-.59-.5-1Z"/>
            <path class="cls-57" d="m174.81,238.04c.08,0,.1-1.07,1.5-.25-.36.51-1.06.12-1.5.25Z"/>
            <g>
              <path class="cls-31" d="m94.9,139.65c1.89-.32.06,1.56-1.5,3-1.55,1.43-3.18.56-2.75,2.5-4.02.1-9.93,4.38-4.25-.75-8.44.41,1.55-2.25,8.49-4.74Z"/>
              <path class="cls-42" d="m123.62,149.14c1.26.17,7.74,2.08,7.74,3.25,0,2.01-8.02,5.07-7.74-3.25Z"/>
              <path class="cls-44" d="m85.16,155.63c7.46-2.07,1.92,10.13-.75,4.25-.13-.28.06-4.05.75-4.25Z"/>
              <path class="cls-11" d="m125.86,138.65c-5.39,1.52-21.87,6.75-7.49,1,2.97-1.19,5.14-3.04,7.49-1Z"/>
              <path class="cls-1" d="m92.4,180.11c1.64-4.43,4.5-8.25,6.49-12.49.37-.15,1.25-.93,1,.25-.15.72-5.95,12.15-7.49,12.24Z"/>
              <path class="cls-18" d="m124.86,129.16c-.5,1.81.68,3.93-1.5,4.99-1.54-1.58-3.61-1.88-3.5-2.75,1.81-.03,3.37-2.15,4.99-2.25Z"/>
              <path class="cls-39" d="m74.17,161.13c.48-.04,1.47-.15,1.75.25-8.68,5.59-6.66.19-1.75-.25Z"/>
              <path class="cls-39" d="m74.17,158.13c3.2-.52,1.23,2.06-2.25,1.75-.22-.54,2.11-1.73,2.25-1.75Z"/>
              <path class="cls-42" d="m126.86,129.66h-.5c1.34-3.11.48-.16.5,0Z"/>
              <g>
                <path class="cls-11" d="m140.6,136.15c.21-.08,4.18,1.53,4.25,1.75,1.02,3.29.34,14.16-4.99,13.49.51-8.14-2.69-4.35-17.23-4.25-.44,0-.06-1.52-.5-1.5-.23.01-2.97,2.16-3.25,3.25-.34,1.33.88,26.24,1.5,27.47.77,1.54,3.77,1.59,4,2,2.35,4.25-4.8,5.41-5.24,5.24-1.58-.6-1.26-29.93-2.75-33.71,5.3-7.93,11.62-9.09,20.73-7.74.64-.24,3.17-5.87,3.5-5.99Z"/>
                <path class="cls-34" d="m143.59,138.15c1,12.81-4.53,11.3-3.75,6.24.08-.53,3.17-4.53,3.75-6.24Z"/>
              </g>
            </g>
          </g>
        </g>
        <path class="cls-31" d="m65.43,180.61c-4.96,6.2-8.86,13.23-12.99,19.98-5.82,9.52-10.52,18.49-15.48,28.47l-1.5.5c11.86-28.41,11.53-27.17,28.97-50.45l1,1.5Z"/>
        <path class="cls-41" d="m64.93,189.6c-.25.52-.65,1.05-1,1.5-7.33,9.47-13.78,20.34-16.98,31.97-.01.03-.27-.21-.5.5-1.21,3.72-3.41,14.8-.5,17.48.08.07.91-.04,1.5,0-.66,6.2-.11,12.32-1,18.48-.44-.51-.76-1.04-1.25-1.5-1.38,2.54-3.03,2.77-3.25,3-.38-.63-.58-1.41-1-2,3.44-4.83-.09-17.3,2.5-23.22-.54-.61-1.84-3.6-2-3.75-1.64-1.51-2.98-1.65-4.99-.5-.57-.69.14-1.77.5-2.5,4.96-9.98,9.66-18.95,15.48-28.47-1.84,6.09-6.2,11.65-7.99,17.73-4.8,16.3,3.44-5.53,7.49-12.99,2.33-4.29,6.75-9.29,8.99-13.98l4-1.75Z"/>
        <path class="cls-2" d="m78.91,183.6c-1.62,2.02-9.13,7.49-13.49,12.74-10.1,12.17-16.31,29.06-17.98,44.7-.59-.04-1.42.07-1.5,0-1.45-5.98.43-11.55.5-17.48.23-.71.49-.47.5-.5,1.69-4.83,4.5-10.24,6.99-14.73,5.84-10.54,11.73-15.98,11.49-16.98-.1-.43-1.1-.21-1.5-.25.35-.45.75-.98,1-1.5l6.99-7.49c6.3-3.63,13.22-6.26,6.99,1.5Z"/>
        <path class="cls-24" d="m75.92,170.62c.22,2.34-1.33.5-2,1.25-.17.19.17,1.53,0,1.75-1.01,1.33-12.01,15.05-10.74,15.48,1.48-1.62,2.94-3.2,4.74-4.5,1.29-.92,2.62-1.71,4-2.5l-6.99,7.49-4,1.75c-2.24,4.69-6.66,9.69-8.99,13.98-4.05,7.46-12.3,29.28-7.49,12.99,1.79-6.08,6.15-11.64,7.99-17.73,4.13-6.75,8.02-13.78,12.99-19.98,1.79-2.23,9.67-11.67,10.49-9.99Z"/>
        <path class="cls-4" d="m75.92,176.11c-1.49.98-2.7,2.3-4,3.5-2.17,2.01-5.09,3.95-4,4.99-1.8,1.29-3.26,2.87-4.74,4.5-1.28-.43,9.73-14.15,10.74-15.48,3.46,1.13,1.84,2.38,2,2.5Z"/>
        <path class="cls-24" d="m77.42,177.11c-2.31,1.29-5.4,3.69-5.49,2.5,1.3-1.2,2.5-2.52,4-3.5.12.09,1.42.96,1.5,1Z"/>
        <g>
          <path class="cls-24" d="m115.87,133.66c1.14,2.83,6.02,2.09,1.5,4.99-1.81,1.16-18.77,6.26-23.72,9.49-6.22-2.99,1.66-3.29,5.24-5.24-2.02-1.85-3.37,2.31-5.49-.25,1.56-1.43,3.39-3.31,1.5-3,5.72-2.05,15.06-5.9,20.98-5.99Z"/>
          <path class="cls-34" d="m98.89,167.62c-1.99,4.24-4.86,8.06-6.49,12.49-2.82-.5-5.69-.89-8.49-1.5-.96-.21-6.19-1.35-6.49-1.5-.08-.04-1.38-.91-1.5-1-.16-.12,1.46-1.37-2-2.5.17-.22-.17-1.56,0-1.75.67-.75,2.22,1.09,2-1.25,3.15,1.17,5.81,2.3,8.99,2,9.93-.95,19.31-16.32,13.98-4.99Z"/>
          <g>
            <path class="cls-41" d="m126.36,129.66h.5c.39,2.85.82,5.03.25,7.99,4.92-1.8,9.85-2.46,14.73-4.5l.5,2c-6.57,1.06-9.99,1.66-16.48,3.5-2.35-2.04-4.53-.19-7.49,1l-1-1c4.52-2.91-.36-2.17-1.5-4.99,5.16-.08,12.4,5.54,7.49.5,2.18-1.06,1-3.19,1.5-4.99.45-.03.67.74,1.5.5Z"/>
            <path class="cls-11" d="m120.12,136.15l.25.25.25.25.25.25-.25.25h-.5l-.25-.25v-.5l.25-.25Z"/>
          </g>
        </g>
        <path class="cls-16" d="m197.79,231.55c.88.77,1.45,1.03,2.5,1.5l-18.73,3c-2.11-10.21,3.74-3.67,16.23-4.5Z"/>
        <path class="cls-34" d="m217.76,149.14c2.7,2.66,4.04,4.12,6.49,6.99,3.88,7.71,8.14,9.06,5.99,19.48-.88-1.71-2.71-2.75-4-4-1.03-1.39-1.91-3.42-3-4.74-3.4-4.16-11.07-10.13-12.99-14.23,4.95.22,11.08-.97,6.49-3,.06,0-.18-.69,1-.5Z"/>
        <path class="cls-36" d="m217.76,168.62c1.42,1.91-.11,3.86,0,4.25.24.86,5.1,4.93,2.5,5.74-6.38-9.13-16.64-20.18-24.97-27.72,7.06,3.34,17.05,11.97,22.48,17.73Z"/>
        <path class="cls-52" d="m216.77,149.64c4.58,2.03-1.54,3.22-6.49,3-.07-.15-1.75.59-.75-2.5,2.5-.94,5.2-.17,7.24-.5Z"/>
        <path class="cls-24" d="m230.25,175.61c-.29,2.89-2.54-2.03-4-4,1.29,1.24,3.11,2.29,4,4Z"/>
        <path class="cls-36" d="m176.81,279l.5-2.5c1.7,1.04,19.99.07,24.72,2.5,5.91,3.03,6.35,19.58,4.25,16.23-.61-.98-1.63-9.4-7.74-14.23-6.18-.54-16.11-2.49-21.73-2Z"/>
        <g>
          <path class="cls-38" d="m164.82,265.51q.25,16.73.5,33.46c-.67.17-5.22.1-6.49,0-.17-.01-.34.02-.5,0l2-13.74c-2.14-3.67-1.2-10.91-2-18.73-.09-.92.38-.96.5-1.5,1.92.24,4.02.31,5.99.5Z"/>
          <path class="cls-7" d="m157.33,189.1c-.04,2.44.34,15.5,0,16.23-.21.46-.95.17-1,.25-1.16-.69-2.59-1.24-3-2.75-.46-1.7-.1-33,.5-35.21,2.59,1.72,2.21-1.67,3.5-.75-.09,7.41.12,14.82,0,22.23Z"/>
          <path class="cls-15" d="m170.82,270.51c.62,2.57-.63,13.06-.5,13.74.07.37.69.25,1,.25h.5c-1.03,2.45-1.68,11.95-1,14.48.07.26-.04.68,0,1-2.32-.05-4.67-.04-6.99,0-1.66.03-3.33-.05-4.99,0v-1c1.27.1,5.82.17,6.49,0,.44-.11,1.24.24,1.5-.25v-28.97c.44-.78,3.12.64,4,.75Z"/>
          <path class="cls-24" d="m167.32,209.57c.15.06.37-.06.5,0,.56.26,2.17-.57,3,.75-.2,5.56.58,13.1-1.5,18.23-1.22-.22-2.42-.82-3.5-1,1.67-5.56-.98-16.08,1.5-17.98Z"/>
          <path class="cls-3" d="m160.33,158.13c-.96,8.61-1.45,12.79-1.5,21.73,0,.19,1,.81,1,1,0,.18-.99.35-1,2,0,.18,1.01.82,1,1,0,.2-.98.78-1,1-.34,3.26,2.01,4.61-1.5,4.25.12-7.4-.09-14.82,0-22.23-1.28-.92-.91,2.46-3.5.75,1.5-1.7,3.41-8.95,6.49-9.49Z"/>
          <path class="cls-3" d="m158.33,298.98c-.16-.02-.34.02-.5,0-.58-2.45.51-12.64,0-13.74-.57-1.22-2.06-.5-2.5-.75-2.81-1.6-.78-1.17.5-2,.1-.07,1.15.95,1.5-.25.23-.79.39-6.47-1-5.74l-.5-1c2.66-.23-.44-4.95,2-8.99h.5c.8,7.82-.14,15.06,2,18.73l-2,13.74Z"/>
          <path class="cls-50" d="m172.81,208.57c.77.78-.1-.07,0,1,.59,6.21.98,6.87,1,7.24,0,.11-1.01,1.89-1,2,.25,3.02,1.58,6.15.5,9.24,7.32,4.51,2.67,1.68-4,.5,2.08-5.13,1.3-12.67,1.5-18.23-.83-1.32-2.44-.48-3-.75-.42-1.62,2.06-.83,4.99-1Z"/>
          <path class="cls-3" d="m175.81,209.57l-.5,17.98c-.88-.12-1.29.07-2,.5,1.08-3.09-.25-6.22-.5-9.24,0-.11,1.01-1.89,1-2-.02-.38-.41-1.03-1-7.24.93.12,2.16-.18,3,0Z"/>
          <path class="cls-40" d="m154.83,274.5c.12,1.53.4,2.2.5,3,.2,1.65-.46,3.44.5,4.99-1.27.83-3.31.4-.5,2l-.5,13.98c-.53-.27-.83.22-1.5-1.25-.38-7.06.52-14.76,0-21.73-.04-.49.08-1.02,0-1.5l1.5.5Z"/>
          <path class="cls-31" d="m157.83,298.98c-.5-.07-2.86-.43-3-.5l.5-13.98c.44.25,1.93-.47,2.5.75.51,1.09-.58,11.28,0,13.74Z"/>
          <path class="cls-49" d="m178.31,228.55h-1c-.85-.48-.85-.85-2-1l.5-17.98c4.29.9.53,15.24,2.5,18.98Z"/>
          <g>
            <path class="cls-35" d="m171.31,346.43c.83-.11,3.21-.13,4,0,.03,0-.12.55.5.5-2.36,3.79,1.46,8.77,1.5,9.74-2.21,12.91-4.19,25.81-6.49,38.71-.17.97-.08,2.02-.5,3-.15,0-.7,1.13-3,.25-.04-1.58.06-3.17,0-4.74-.2-5.02,2.66-29.07,2-30.72-.22-.55-1.19-.98-1.75-.75-1.46.6-1.39,28.35-1.25,31.47.57,12.69,1.48,8,1.5,8.49.21,5.34.38,19.57,0,23.97-.77.03-.18.8-1,1v-18.73c-2.98,9.18,1.15-7.15-2.75-5.74-.99.36.41,3.13-2.25,3-.21-1.41.15-3.25,0-4.74-1.03-1.24-1.76-2.95-2-4.5-2.11-13.91-3.34-28.03-6.49-41.7l.5-.5c.08.15.19,2.14,1,3.25,1.41,1.93,1.7.62,2,.75.14.06.82,1.31,3,1,.04.08,1.51-.19,1.5.25-.38.51-1.38,0-1.5.5-1.36,5.44,1.04,28.91,2,36.46.42.4,1.73.42,2,0,1.88-2.94.15-41.35,1-48.7,1.66,3.06-.94,10.6,1.5,11.49,4.46,1.63,2.06-9.53,2-12.24.78-1.2,1.94-.6,3-.75Z"/>
            <path class="cls-44" d="m167.32,393.87c.06,1.58-.04,3.17,0,4.74,2.3.88,2.85-.25,3-.25,3.24.09,6.88-.48,9.99.5-1.57.21-14.61,2.42-9.49,3-.1,0,.29.76-2,.5h-1c-.02-.49-.93,4.2-1.5-8.49h1Z"/>
            <path class="cls-35" d="m166.82,427.34c-3,.74-2.86-1.18-3-1.5-.4-.92-1.05-13.68-2-19.98,2.65.13,1.25-2.64,2.25-3,3.89-1.4-.23,14.92,2.75,5.74v18.73Z"/>
            <path class="cls-54" d="m159.33,346.93c-.15.49-.63,9.74-.5,10.24.12.43.98.2,1,.25.18.47-.18,1.65,0,2-2.18.31-2.85-.93-3-1,.07-3.49-.1-7,0-10.49.01-.48.49-.52.5-1h2Z"/>
            <path class="cls-35" d="m164.82,347.92c-.85,7.35.88,45.75-1,48.7-.27.42-1.57.4-2,0-.96-7.55-3.36-31.02-2-36.46.12-.49,1.12,0,1.5-.5.01-.44-1.46-.17-1.5-.25-.18-.34.18-1.53,0-2,3.6-2.05-1.53-11.19,3.25-10.99.12,0,1.69,1.4,1.75,1.5Z"/>
            <path class="cls-24" d="m167.32,393.87h-1c-.14-3.11-.21-30.87,1.25-31.47.56-.23,1.53.2,1.75.75.66,1.65-2.2,25.7-2,30.72Z"/>
          </g>
          <path class="cls-48" d="m161.82,243.54c.59.5.98.92,1.5,1.5.28.31.97.93,1,1,1.07,2.83.46,14.38-.5,17.98-2.83-.13-4.6-1.33-7.49-1v-.5c3.3-2.01-.42-11.29,1.5-18.73.66-.59,2.97-.1,4-.25Z"/>
          <path class="cls-27" d="m178.31,266.01c1.06,2.48-.52,4.08,2,4.99-2.04.29-2.65-.85-3.5,1-.08.18.07.67,0,1-.43-2.61-3.21-2.14-5.99-2.5-.87-.11-3.56-1.53-4-.75v28.97c-.26.49-1.06.14-1.5.25q-.25-16.73-.5-33.46c.16.02.33-.01.5,0,4.28.38,8.68.74,12.99.5Z"/>
          <path class="cls-1" d="m156.33,263.02c2.89-.34,4.66.86,7.49,1,.5.02,1-.02,1.5,0v1.5c-.17-.01-.33.02-.5,0-1.98-.19-4.07-.26-5.99-.5-.24-.03-1.6-.85-4.74-.5-.69-1.82,1.31-1.39,2.25-1.5Z"/>
          <g>
            <path class="cls-12" d="m176.31,244.04c-.39,1.25-.25,2.77-.5,4-.75,3.59-2.16,6.68-2,10.49.01.32-.06.7,0,1,.62,3.06,6.53,3.21,8.99,3.5v7.99c-.81.08-1.7-.11-2.5,0-2.52-.91-.93-2.52-2-4.99-.69-1.61-3.63-3.44-5.24-3-1.04.28,3.11,1.49-7.74,1-.5-.02-1,.02-1.5,0,.96-3.6,1.57-15.15.5-17.98,4.55.12,2.35-3.91-1-1-.52-.57-.91-1-1.5-1.5,4.48-.67,9.22-.42,13.74-.5.35,0,.69,1,.75,1Z"/>
            <path class="cls-41" d="m170.07,243.54c.86,2.72,2.28,23.12-3.5,18.98-.58-.41-.5-13.57-.25-14.23.71-1.92,2.64,2.23,3.75-4.74Z"/>
            <path class="cls-34" d="m178.31,266.01c-4.3.24-8.71-.12-12.99-.5v-1.5c10.86.49,6.7-.71,7.74-1,1.61-.44,4.55,1.38,5.24,3Z"/>
            <path class="cls-15" d="m164.32,246.03c-.02-.07-.72-.69-1-1,3.35-2.91,5.55,1.11,1,1Z"/>
          </g>
          <path class="cls-10" d="m170.82,164.12c.37,3.6-.51,10.43,0,12.99.07.34-.19.76.25,1,.31-.48.81-.68,1.25-1l.5.5c-3.68,4.9-3.19,14.47,2,3.25.25-.54-.52-.95-.5-1,.3-.76,3.5-4.73,2-5.74l.75-.5c.93,1.32.34,5.28.25,9.49-4.19-.05-4.43,6.65-.5,4-.1,3.59,1.09,13.91-1.5,15.48-.28-2.65.38-13.01,0-13.74-.27-.52-1.12-.09-1.5-.25-5.18-2.13-2.29,4.65-3,14.23.33.55,1.49.07,2,.25.33.12,1.02-.08,1.5,0,1.26.22,1.35-.03,1.5,0l1.75,2q-6.12-.37-12.24-.75c-.86-1.93.99-32.24,0-42.2,5.65-1.03,3.39.31,5.49,2Z"/>
          <g>
            <path class="cls-35" d="m163.32,158.63c2.53,1.05,1.73.82,2,3.5.99,9.96-.86,40.28,0,42.2q6.12.37,12.24.75l-1.75-2c5.03,1,4.3,1.55,3.75,6.99-1.74.57-1.21-2.11-2-2.5-.43-.21-4.8.07-6.24,0-1.54-.08-4.1-.17-5.49,0-.51.06-.58-1.04-1.5.25v19.73c-2.38-.36-6.83.74-7.49-.75-.42-4.45.57-16.98,0-18.98-.1-.36-1.77-.1-2-1-.31-1.22,1.45-1.16,1.5-1.25.04-.08.78.21,1-.25.34-.74-.04-13.8,0-16.23,3.5.37,1.16-.98,1.5-4.25.02-.22.99-.8,1-1,0-.18-1-.81-1-1,.01-1.65,1-1.82,1-2,0-.19-1-.81-1-1,.05-8.94.53-13.12,1.5-21.73.32-.06,2.74.39,3,.5Z"/>
            <path class="cls-9" d="m165.82,207.58c.02.35,1.38,1.95,1.5,2-2.47,1.9.17,12.42-1.5,17.98-.48-.08-1.02.07-1.5,0v-19.73c.92-1.29.99-.19,1.5-.25Z"/>
            <path class="cls-35" d="m161.58,188.6c.11-.08,1.98-.13,2.25.25.59.84,1.94,20.36-3,17.98,1.56-2.63-.34-17.41.75-18.23Z"/>
            <path class="cls-45" d="m171.31,207.58c.05.76.68.16,1.5,1-2.93.16-5.42-.63-4.99,1-.13-.06-.35.06-.5,0-.12-.04-1.48-1.65-1.5-2,1.39-.17,3.95-.08,5.49,0Z"/>
          </g>
          <path class="cls-47" d="m170.82,298.98c-.69-2.53-.03-12.03,1-14.48,3.92-9.37,2.04,2.61,2.5,4.74.34,1.59,4.21,5.13,2.5,8.99-.62,1.39-4.71.51-5.99.75Z"/>
          <path class="cls-51" d="m176.81,273.01c-.07.33-.07,1.14,0,1.5.1.51-.11,1.29,0,1.5-2.53.38-2.82,3.19-3,3.5-.94,1.6-2.16,3.1-2.5,4.99-.31,0-.93.12-1-.25-.13-.67,1.12-11.16.5-13.74,2.79.35,5.57-.11,5.99,2.5Z"/>
          <g>
            <path class="cls-18" d="m157.33,301.47c.68,0,3.17-.22,3.5.25.49,6.1-1,4.47-1,4.74-1.32.08-2.68-.11-4,0v-4.5c.47-.09.5-.5,1.5-.5Z"/>
            <g>
              <path class="cls-45" d="m179.81,307.97c-.26,6.63-.13,13.39-.5,19.98,0,.17,0,.33,0,.5-.15,2.72.04,8.07,0,8.49-.06.66.08,1.35,0,2,0,.06-.94.34-1,.75-1.56,11.55-1.36,5.41-2.5,7.24-.62.05-.46-.49-.5-.5.44-3.75.22-7.58,0-11.24-3.6-1.87-.97-1.57-1-1.75,4.88-5.34,2.61-5.04-.5-9.99.13-5.3.94-10.65.5-15.98l5.49.5Z"/>
              <path class="cls-17" d="m168.32,307.47c3.3,4.76,1.23,12.3,2,18.73-1.14,4.75-.69,11.23-1,15.48-.19,2.55-4.06,4.52,2,4.25v.5c-1.06.15-2.21-.45-3,.75.06,2.7,2.46,13.87-2,12.24l.5-12.24c-.33-.45-1.49-1.32-1.5-1.5-.19-3.88-.31-33.24,0-34.96.4-2.25.25-3.87,3-3.25Z"/>
              <path class="cls-31" d="m173.81,329.44c.03,1.51.28,2.56.5,4,.03.17-2.6-.12,1,1.75.22,3.66.44,7.49,0,11.24-.78-.13-3.17-.11-4,0v-.5c-.45-5.66.38-11.35.5-16.98l2,.5Z"/>
              <path class="cls-57" d="m174.31,307.47c.44,5.33-.37,10.69-.5,15.98-.05,2.1-.04,3.9,0,5.99l-2-.5c.15-7.1.3-14.4-.5-21.48h3Z"/>
              <path class="cls-12" d="m174.31,333.44c-.22-1.44-.47-2.48-.5-4-.04-2.09-.05-3.89,0-5.99,3.11,4.95,5.38,4.65.5,9.99Z"/>
              <path class="cls-40" d="m180.3,306.47c-.03,1.07-.48,1.11-.5,1.5l-5.49-.5h-3l.75-1h8.24Z"/>
              <path class="cls-7" d="m180.3,305.97c0,.17,0,.33,0,.5h-8.24l-.75,1c.8,7.08.65,14.37.5,21.48-.12,5.63-.95,11.32-.5,16.98-6.06.28-2.18-1.7-2-4.25.31-4.26-.14-10.73,1-15.48-.77-6.43,1.3-13.97-2-18.73-.21-1.84-4.1.32-2-5.99,8,1.39,14.29-3.5,13.98,4.5Z"/>
            </g>
            <path class="cls-3" d="m170.82,299.98c3.24.07,6.49-.05,9.74,0-.42,1.99-.2,3.99-.25,5.99.3-7.99-5.98-3.1-13.98-4.5-.14-.02.12-.73-2.5-1.5,2.32-.04,4.67-.05,6.99,0Z"/>
            <g>
              <path class="cls-48" d="m163.82,299.98c2.62.76,2.35,1.47,2.5,1.5-2.1,6.31,1.79,4.16,2,5.99-2.75-.62-2.6.99-3,3.25-.31,1.72-.19,31.09,0,34.96,0,.17,1.16,1.05,1.5,1.5l-.5,12.24c-2.44-.89.17-8.43-1.5-11.49-.06-.1-1.63-1.49-1.75-1.5-4.78-.2.36,8.93-3.25,10.99-.02-.05-.88.18-1-.25-.13-.49.35-9.75.5-10.24.03-.09,1.28.24,1.5-.25-2.32-4.53-.03-2.81,0-3.5.09-1.81-1.03-1.13-1-1.5.14-1.93.98-1.08,1-1.5.66-13.3-1.03-25.45-1-33.71,0-.28,1.49,1.36,1-4.74-.33-.47-2.81-.25-3.5-.25l1-1.5c.17,0,.33,0,.5,0,1.66-.05,3.33.03,4.99,0Z"/>
              <path class="cls-6" d="m157.33,346.93c-.01.48-.49.52-.5,1-1.6-.99-3.04-1.71-3.5-3.75-.78-3.46-.2-29.79-.5-37.21,2.95.46,4.61-.6,4.99,1.75-.86,12.75-.14,25.45-.5,38.21Z"/>
              <g>
                <path class="cls-3" d="m155.83,306.47c1.31-.11,2.68.08,4,0-.03,8.26,1.66,20.42,1,33.71-.02.42-.86-.43-1,1.5-.03.37,1.09-.31,1,1.5-.03.68-2.32-1.03,0,3.5-.22.49-1.47.16-1.5.25h-2c.36-12.76-.37-25.46.5-38.21-.38-2.34-2.05-1.29-4.99-1.75-.02-.87,1.43-.36,3-.5Z"/>
                <path class="cls-58" d="m158.58,319.95c1.27,0,.82,3.28.5,3.5-1.7,1.16-1.6-3.5-.5-3.5Z"/>
              </g>
            </g>
          </g>
          <path class="cls-45" d="m155.83,267.01v8.49l.5,1-1,1c-.09-.8-.38-1.47-.5-3-.17-2.12-1.07-5.12-.5-7.24.33-1.24,1.32-.16,1.5-.25Z"/>
          <path class="cls-3" d="m157.83,266.51c-2.44,4.04.66,8.76-2,8.99v-8.49c.09-.05-.24-.75,2-.5Z"/>
          <path class="cls-10" d="m155.83,282.5c-.96-1.56-.3-3.35-.5-4.99l1-1c1.39-.73,1.23,4.96,1,5.74-.35,1.2-1.4.18-1.5.25Z"/>
          <path class="cls-12" d="m175.31,202.58c-.3.18-.65.42-1,.5-.48-.08-1.17.12-1.5,0,.02-4.57-.35-10.43,1-14.48.38.16,1.22-.27,1.5.25.38.72-.28,11.09,0,13.74Z"/>
          <path class="cls-51" d="m172.81,177.61c.77-1.03,3.12-1.88,3.5-3.5,1.51,1.02-1.69,4.99-2,5.74-.02.05.75.46.5,1-5.19,11.22-5.67,1.66-2-3.25Z"/>
          <path class="cls-51" d="m176.31,171.61c-.85,1.39-2.8,4.63-4,5.49-.43.31-.94.52-1.25,1-.44-.24-.18-.66-.25-1l4-6.49c.34.34,1.05.75,1.5,1Z"/>
          <path class="cls-3" d="m177.31,183.1c-.06,2.61-.49,3.58-.5,4-3.93,2.66-3.69-4.05.5-4Z"/>
          <path class="cls-45" d="m176.81,276c.24.44.19.31.5.5l-.5,2.5c-1.02.09-1.77.77-3,.5.18-.3.47-3.12,3-3.5Z"/>
          <g>
            <path class="cls-15" d="m152.83,1.3c.75.12,1.41,1.42,1.75,1.5,1.16.26,20.47-.06,23.72-.5.08.07,1.53-.31,2,.75.47,1.06,1.31,19.93,1.5,23.22.22,3.82-1.01,3.05-1,3.25.56,9.71,1.82,19.5,2.5,29.22-2.61-1.72-.94,4.04-2,11.24-1.18,8.01-3.82,16.04-5.49,23.97-.2.94.56,7.1-2,5.24.57-2.9,2.13-5.44-1.5-5.99.71-3.78,2.32-8.15,3-11.99,2.95-16.8,2.02-27.6.5-44.45-.59-6.53.26-12.95-3-18.98-4.37-8.08-14.54-7.43-16.98,5.49h-2.5c1.03-6.23,1.35-9.82,8.49-11.99,13.87-.46,14.05,6.77,13.49,1.75-.03-.27-1.93-4.64-2.25-4.74-6.04-.04-23.37,3.45-22.73-4,.89-1.49.79-2.01,2.5-3Z"/>
            <path class="cls-7" d="m161.82,11.29c-7.14,2.17-7.46,5.75-8.49,11.99-1.1,6.65-2.3,33.78-2,40.96-2.95,5.09.47,7.73-4.5,8.99-.12-3.34-.49-3.79-.5-4,0-.06.54.29.5-1-.03-1,.02-2,0-3-.03-1.5.05-3,0-4.5-.02-.66.03-1.33,0-2-.11-2.4.08-4.84,0-7.24l-1-.25c1.04-.75,1.39-3.12,1.5-4.25.86-8.82,0-23,1-34.21,3.4,1.96,9.01-1.89,9.74-2,3.06-.46,3.56.51,3.75.5Z"/>
            <path class="cls-17" d="m150.34,4.3c-.64,7.44,16.68,3.96,22.73,4,.32.1,2.22,4.47,2.25,4.74.56,5.02.38-2.21-13.49-1.75-.19,0-.69-.96-3.75-.5-.73.11-6.34,3.95-9.74,2,.18-2.05-.13-4.18,0-6.24.94-2.92,1.92-2.12,2-2.25Z"/>
            <path class="cls-15" d="m178.31,2.3c-3.25.44-22.57.76-23.72.5-.33-.07-1-1.37-1.75-1.5,1.81-1.05,21.61-1.72,24.22-1,1.02.28,1.16,1.92,1.25,2Z"/>
            <path class="cls-17" d="m183.3,58.74c.22,3.15.49,2.37.5,2.5.34,5.14-.52,13.06,0,16.98.21,1.6-.12,1.9,1,3.5l-1-.25-.5,5.49c20.38,11.9,21.18,15.67.75,1.25-.66.18-2.46,9.86-.25,12.49,1.69,2.02,8.41,4.28,10.99,5.49,14.76,10.54-7.57-2.8-11.74-4.99-1.1.36-1.13,7.17-1.25,8.49-.88.15-2.96-.33-3.5.25-.84.9-3.2,21.44-4,24.22-1.89,1.52-5.12,6.28-5.49,6.49-1.56-3.62,4.23-20.3,3.5-22.23-1.18-3.11-2.56,4.69-5.99,4.74,1.01-5.83,2.36-11.67,3.5-17.48.09-.47-.09-1.03,0-1.5,5.29-1.57,3.47-2.33,4-4.99,2.56,1.85,1.8-4.31,2-5.24,1.67-7.93,4.31-15.96,5.49-23.97,1.06-7.19-.61-12.95,2-11.24Z"/>
            <path class="cls-45" d="m154.83,150.64c-.98.35-1.27-.95-2-1l-.5-16.48-2-4.5c-.29-8.52-1.32-16.99-2-25.47-.25-3.15-.81-6.4-1-9.49-.02-.37.18-4.09,0-7.49,3.74.56,4.29,3.84,4.5-3,.71,2.62,2.29,6.69,2.5,9.24.48,6-1.21-1.8-1.5,2.5-.04.61,1.78,9.69,2,11.99.86,9.14.89,18.34,1.5,27.47.18,2.65,1.49,3.78,1.5,4,.09,1.48.62,9.03.5,9.49-.08.3-2.98,2.04-3.5,2.75Z"/>
            <path class="cls-49" d="m151.34,64.73c.09,1.9.3,4.09.5,5.99-2.21,4.03.13,8.24,0,12.49-.21,6.84-.75,3.56-4.5,3-.06-1.08-.48-1.12-.5-1.5,0-.13,1.08-.77,1-2.5.3-2.04-.93-3.5-1-5.49-.04-1.16.04-2.33,0-3.5,4.97-1.26,1.55-3.9,4.5-8.99,0,.17,0,.33,0,.5Z"/>
            <path class="cls-47" d="m156.33,66.23c-.55,2.13,1.81,3.18,2.5,4.99.3.8-.07,2.63,0,2.75,1.68,3.02,6.71,9.38,10.49,7.49-1.98-.78-3.54-2.26-4.99-3.75l5.99-2,4.99,5.49c-.67,3.83-2.28,8.21-3,11.99-.13.69-.49.46-.5.5-3.74-.53-7.51-2.28-10.49-4.5-9.23-6.85,1.45-2.02,1.5-4.74.02-1.02-7.81-3-8.99-14.73l1-4c.38.86.64,1.98.75,2,.46.07-.1-1.54.75-1.5Z"/>
            <path class="cls-19" d="m175.81,36.76c1.52,16.85,2.45,27.65-.5,44.45l-4.99-5.49v-.5c4.38-2.41,3.57-10.55,3.5-15.48-.06-4.22-2.12-24.07-3-26.97l4.99,4Z"/>
            <path class="cls-10" d="m155.83,23.28c-.12.63.09,1.36,0,2-.31,2.26-.3,4.27-.5,6.49-.36,3.96-1.87,30.65-1.5,32.22.02.1.15-.18,1,1.75l-1,4-.25-1-.75,1.75c-.24-2.03-.1-6.14-1.5-5.74,0-.17,0-.33,0-.5-.3-7.17.9-34.3,2-40.96h2.5Z"/>
            <path class="cls-38" d="m172.81,17.78c3.26,6.03,2.41,12.45,3,18.98l-4.99-4c-.19-.64-.78-1.34-1-2,.79-5.16.22-10.27-3.5-13.98,4.43-.2,5.02,2.61,6.49,1Z"/>
            <path class="cls-47" d="m172.81,17.78c-1.47,1.61-2.06-1.2-6.49-1-5.16.23-7.14,5.49-10.49,8.49.09-.64-.12-1.37,0-2,2.44-12.93,12.62-13.57,16.98-5.49Z"/>
            <path class="cls-17" d="m173.81,99.19c-.53,2.67,1.3,3.42-4,4.99.68-3.51,1.34-6.98,2-10.49,0-.03.37.19.5-.5,3.63.55,2.07,3.09,1.5,5.99Z"/>
            <path class="cls-47" d="m162.82,94.7c1.03,2.12,1.9,3.21,3,4.99,1.26,2.06,2.63,4.01,4,5.99-1.14,5.81-2.48,11.65-3.5,17.48-.11.63.11,1.36,0,2-.33,0-.86.14-1-.25-1.26-3.57-4.06-27.12-4.5-32.71,1.71-.17,1.6,1.68,2,2.5Z"/>
            <path class="cls-26" d="m177.81,132.66c-.64,2.2-5.53,6.62-6.99,8.99-.66,1.08-1.48,2.37-2,3.5-2.66,4.51-5.72,7.55-5.49,13.49-.26-.11-2.67-.56-3-.5.44-3.91.76-7.83,3-11.24.21-1.08-1.01-.69-1-.75.22-2.1.34-4.37.5-6.49.67.24,1.34.78,2,1,1.49.49,2.43.88,4,0,.37-.21,3.61-4.98,5.49-6.49.32-.25,2.84-1.7,3.5-1.5Z"/>
            <path class="cls-7" d="m168.82,140.65c-1.56.88-2.5.49-4,0-3.32-3.32,1.54-10.6,2-13.24.32-1.88-.52-2.13-.5-2.25.11-.63-.11-1.36,0-2,3.43-.05,4.81-7.85,5.99-4.74.73,1.93-5.05,18.61-3.5,22.23Z"/>
            <path class="cls-7" d="m181.8,109.68c-.13,1.47.05,3.01,0,4.5-.27,7.29.5,6.13.5,6.49,0,.29-.48.42-.5,2,0,.5,0,1,0,1.5-.02,1.16.03,2.33,0,3.5l-1,.25c.01-12.94-3.33-1.59-3,4.74-.66-.2-3.18,1.24-3.5,1.5.8-2.78,3.16-23.32,4-24.22.54-.58,2.62-.1,3.5-.25Z"/>
            <path class="cls-9" d="m171.81,93.7c-.65,3.51-1.31,6.98-2,10.49-.09.47.09,1.03,0,1.5-1.37-1.99-2.73-3.93-4-5.99,1.56-.99-.43-7-3-4.99-.4-.82-.29-2.66-2-2.5-.08-1.05-.14-2.07.5-3,2.98,2.21,6.75,3.97,10.49,4.5Z"/>
            <path class="cls-47" d="m162.82,139.65c-.16,2.13-.28,4.39-.5,6.49q-4.62,9.49-9.24,18.98l-.75-10.49c2.6-1.13,2.34-3.78,2.5-4,.52-.7,3.42-2.45,3.5-2.75.12-.46-.41-8.01-.5-9.49-.01-.21-1.32-1.35-1.5-4-.61-9.13-.64-18.33-1.5-27.47-.22-2.3-2.04-11.38-2-11.99.29-4.3,1.98,3.5,1.5-2.5-.2-2.55-1.78-6.62-2.5-9.24.13-4.25-2.21-8.46,0-12.49,1.62,15.56,11.39,44.61,11.99,55.19.26,4.58-.66,9.18-1,13.74Z"/>
            <path class="cls-15" d="m153.83,69.73c1.19,11.73,9.01,13.72,8.99,14.73-.05,2.73-10.73-2.1-1.5,4.74-.64.93-.58,1.94-.5,3,.43,5.59,3.24,29.15,4.5,32.71.14.39.67.25,1,.25-.02.11.82.37.5,2.25-.45,2.64-5.32,9.91-2,13.24-.66-.22-1.33-.76-2-1,.34-4.55,1.26-9.16,1-13.74-.6-10.58-10.37-39.63-11.99-55.19-.2-1.9-.41-4.09-.5-5.99,1.4-.4,1.26,3.71,1.5,5.74l.75-1.75.25,1Z"/>
            <path class="cls-58" d="m160.33,30.27c-2.1,3.29-3.01,13.68-3.5,18.98-.35,3.84-1.17,9.6-1,13.24.01.21.94.62,1,1.25.01.13-.86.46-.5,2.5-.85-.04-.29,1.56-.75,1.5-.11-.02-.37-1.14-.75-2-.85-1.93-.98-1.65-1-1.75-.37-1.57,1.14-28.25,1.5-32.22,1,.47,4.24-2.62,4.5-3l.5,1.5Z"/>
            <path class="cls-39" d="m170.32,75.22v.5l-5.99,2c-2.03-2.07-3.52-4.4-5.49-6.49-.69-1.81-3.04-2.86-2.5-4.99-.36-2.04.51-2.37.5-2.5l13.49,11.49Z"/>
            <path class="cls-59" d="m164.32,77.72c1.46,1.49,3.02,2.97,4.99,3.75-3.78,1.89-8.81-4.47-10.49-7.49-.07-.12.3-1.95,0-2.75,1.98,2.09,3.47,4.42,5.49,6.49Z"/>
            <path class="cls-9" d="m166.32,16.78c3.72,3.71,4.29,8.82,3.5,13.98.05-.62-.49-.47-.5-.5-.47-1.12-2.64-5-3.5-6.49.87-2.62-.47-4.99-1.75-4.5-.79.3-3.95,9.06-4.25,9.49-.26.38-3.49,3.47-4.5,3,.2-2.22.19-4.23.5-6.49,3.35-3,5.33-8.26,10.49-8.49Z"/>
            <path class="cls-9" d="m165.82,99.69c-1.1-1.79-1.97-2.88-3-4.99,2.57-2.01,4.56,4,3,4.99Z"/>
            <path class="cls-7" d="m181.8,127.66c-.2,9.17-.25,33.72-3,41.21-.55,1.51-2.27,2.38-2.5,2.75-.45-.25-1.16-.66-1.5-1-1.68-1.67-2.35-2.76-1.5-4.99.12-.32,3.3-1.18,1.5-5.49-.47-1.12-3.74-1.32-4-1.75-.3-.49-.09-10.34,0-11.49.02-.31,2.71-3.51,0-5.24,1.46-2.37,6.35-6.79,6.99-8.99-.34-6.33,3.01-17.68,3-4.74l1-.25Z"/>
            <path class="cls-10" d="m174.81,160.13c-10.11-.95-11.32-3.4-5.99-14.98.52-1.13,1.33-2.42,2-3.5,2.71,1.74.02,4.93,0,5.24-.09,1.14-.3,11,0,11.49.26.43,3.53.63,4,1.75Z"/>
            <path class="cls-47" d="m168.82,145.14c-5.32,11.58-4.12,14.03,5.99,14.98,1.8,4.31-1.38,5.18-1.5,5.49-1.94-3.26-2.19-1.25-2.5-1.5-2.11-1.69.16-3.03-5.49-2-.27-2.68.53-2.44-2-3.5-.22-5.93,2.84-8.97,5.49-13.49Z"/>
            <path class="cls-47" d="m165.82,23.77c-.1.29-2.27,2.91-3,4-.65.98-1.45,1.92-2.5,2.5l-.5-1.5c.29-.43,3.45-9.19,4.25-9.49,1.28-.49,2.62,1.88,1.75,4.5Z"/>
            <path class="cls-34" d="m169.32,30.27l-6.49-2.5c.72-1.09,2.9-3.7,3-4,.85,1.49,3.02,5.38,3.5,6.49Z"/>
            <path class="cls-23" d="m173.31,165.62c-.85,2.24-.18,3.33,1.5,4.99l-4,6.49c-.51-2.56.37-9.39,0-12.99.31.25.56-1.76,2.5,1.5Z"/>
          </g>
          <path class="cls-5" d="m173.81,188.6c-1.35,4.05-.98,9.92-1,14.48-.5-.18-1.67.3-2-.25.71-9.58-2.18-16.37,3-14.23Z"/>
        </g>
        <g>
          <path class="cls-34" d="m48.45,266.51c0,.08.47,1.07.5,1.5-1.16.34-1.59,2.29-2,3-.05.09-.98-.23-.75,2-3.17-2.75-4.55-6.38-5.74-8.99,3.35-1.36,5.19,1.35,7.99,2.5Z"/>
          <path class="cls-24" d="m46.45,259.52c.12.14,1.93,2.83,2,3,1.03,2.64-.02,3.8,0,4-2.8-1.14-4.64-3.86-7.99-2.5v-2c1.24.19,1.43-.93,1.5-1,.22-.23,1.87-.46,3.25-3,.49.46.81.99,1.25,1.5Z"/>
          <g>
            <path class="cls-44" d="m36.46,231.55c-3.8,2.16-2.16,7.24-2.5,10.74l5.99-.75c.06.61-.47.47-.5.5-1.33,1.1-6.08,1.77-6.49,2.75-.45,9.3-.13,7.19,4.99,11.74.39.34,1.11.66,1.5,1-3.82,3.43-4.48-1.6-8.49-2,0-.17-.01-.33,0-.5.06-.89-.2-2.4.25-2.5,2.53,5.43.1,0,.25-3.75.11-2.71,1.58-11.73,2-16.23,1.76.18,1.48-1.76,2-3l1.5-.5c-.36.73-1.07,1.81-.5,2.5Z"/>
            <path class="cls-24" d="m41.46,232.05c.16.14,1.45,3.14,2,3.75-2.59,5.92.94,18.39-2.5,23.22-.53-.74-.86-.93-1.5-1.5-.39-.34-1.11-.66-1.5-1-1.71-4.69.68-9.68,1.5-14.48.03-.03.56.11.5-.5.76-2.38-1.28-10.1,1.5-9.49Z"/>
            <path class="cls-24" d="m41.46,232.05c-2.78-.61-.74,7.11-1.5,9.49l-5.99.75c.34-3.5-1.31-8.58,2.5-10.74,2.02-1.15,3.36-1.01,4.99.5Z"/>
            <path class="cls-24" d="m37.96,256.52c-5.12-4.55-5.45-2.43-4.99-11.74.41-.98,5.17-1.64,6.49-2.75-.81,4.8-3.21,9.8-1.5,14.48Z"/>
          </g>
        </g>
        <path class="cls-30" d="m46.95,223.06c3.2-11.62,9.65-22.5,16.98-31.97.4.04,1.4-.18,1.5.25.24,1-5.65,6.44-11.49,16.98-2.49,4.5-5.3,9.9-6.99,14.73Z"/>
        <path class="cls-4" d="m45.95,241.04c-2.91-2.68-.71-13.77.5-17.48-.07,5.93-1.95,11.5-.5,17.48Z"/>
      </g>
    </g>
  </g>
</svg>