<?xml version="1.0" encoding="UTF-8"?>
<svg id="_Шар_2" data-name="Шар 2" xmlns="http://www.w3.org/2000/svg" viewBox="0 0 356.18 366.06">
  <defs>
    <style>
      .cls-1 {
        fill: #b7b2a5;
      }

      .cls-1, .cls-2, .cls-3, .cls-4, .cls-5, .cls-6, .cls-7, .cls-8, .cls-9, .cls-10, .cls-11, .cls-12, .cls-13, .cls-14, .cls-15, .cls-16, .cls-17, .cls-18, .cls-19, .cls-20, .cls-21, .cls-22, .cls-23, .cls-24, .cls-25, .cls-26, .cls-27, .cls-28, .cls-29, .cls-30, .cls-31, .cls-32, .cls-33, .cls-34, .cls-35, .cls-36, .cls-37, .cls-38, .cls-39, .cls-40, .cls-41, .cls-42, .cls-43, .cls-44, .cls-45, .cls-46, .cls-47, .cls-48, .cls-49, .cls-50, .cls-51 {
        stroke-width: 0px;
      }

      .cls-2 {
        fill: #5a5d64;
      }

      .cls-3 {
        fill: #5e5557;
      }

      .cls-4 {
        fill: #707271;
      }

      .cls-5 {
        fill: #051016;
      }

      .cls-6 {
        fill: #513427;
      }

      .cls-7 {
        fill: #b04c64;
      }

      .cls-8 {
        fill: #555656;
      }

      .cls-9 {
        fill: #684030;
      }

      .cls-10 {
        fill: #401419;
      }

      .cls-11 {
        fill: #b98d8a;
      }

      .cls-12 {
        fill: #47545d;
      }

      .cls-13 {
        fill: #26333c;
      }

      .cls-14 {
        fill: #160c07;
      }

      .cls-15 {
        fill: #dde0e0;
      }

      .cls-16 {
        fill: #722e32;
      }

      .cls-17 {
        fill: #25130c;
      }

      .cls-18 {
        fill: #afafb0;
      }

      .cls-19 {
        fill: #372018;
      }

      .cls-20 {
        fill: #c7c7c7;
      }

      .cls-21 {
        fill: #423b3d;
      }

      .cls-22 {
        fill: #4693b5;
      }

      .cls-23 {
        fill: #957c65;
      }

      .cls-24 {
        fill: #93968a;
      }

      .cls-25 {
        fill: #72513d;
      }

      .cls-26 {
        fill: #0e100c;
      }

      .cls-27 {
        fill: #838585;
      }

      .cls-28 {
        fill: #dbd0cf;
      }

      .cls-29 {
        fill: #a2adb6;
      }

      .cls-30 {
        fill: #89887e;
      }

      .cls-31 {
        fill: #0f272c;
      }

      .cls-32 {
        fill: #34434f;
      }

      .cls-33 {
        fill: #793f3c;
      }

      .cls-34 {
        fill: #1e2327;
      }

      .cls-35 {
        fill: #111c1c;
      }

      .cls-36 {
        fill: #383b3e;
      }

      .cls-37 {
        fill: #88c1e7;
      }

      .cls-38 {
        fill: #f7f7f5;
      }

      .cls-39 {
        fill: #1c5573;
      }

      .cls-40 {
        fill: #a5896d;
      }

      .cls-41 {
        fill: #63727e;
      }

      .cls-42 {
        fill: #444441;
      }

      .cls-43 {
        fill: #9b9286;
      }

      .cls-44 {
        fill: #30302d;
      }

      .cls-45 {
        fill: #806450;
      }

      .cls-46 {
        fill: #995a5d;
      }

      .cls-47 {
        fill: #e7cdce;
      }

      .cls-48 {
        fill: #bea68f;
      }

      .cls-49 {
        fill: #e3dfd5;
      }

      .cls-50 {
        fill: #5e655f;
      }

      .cls-51 {
        fill: #454953;
      }
    </style>
  </defs>
  <g id="_Шар_1-2" data-name="Шар 1">
    <g>
      <path class="cls-47" d="m41.23,68.41c1.12-.08,20.54,5.92,21.5,6.5.14.08.67,1.3,2,2.5.08.08-.08.42,0,.5l-3.5,1c-1.79-1.15-2.38-.94-2.5-1-1-.53-1.35-.43-1.5-.5-2.22-1.04-4.2-1.7-6.5-2.5-1.88-.65-3.67-.95-5.5-1.5-2.5-.75-5.53-2.81-8-2,1.2-1.33,1.92-2.86,4-3Z"/>
      <path class="cls-47" d="m317.73,68.91c4.5.65,2.64,3.35,3,4h-2c-3.76-.61-6.98.75-10.5,1.5-.46.1-1.05-.1-1.5,0-1.58.36-1.89.97-2,1-2.31.63-3.79,1.45-4,1.5-.16.04-.34-.03-.5,0-1.13.18-3.55.16-3.5-.5.6-.39.47-.48.5-.5,4-2.5,8.43-4.14,12.5-6.5.67-.02,1.33.02,2,0,1.37-.04,3.4-.88,6-.5Z"/>
      <g>
        <path class="cls-33" d="m322.23,277.41c1.35,1.52,3.17,2.91,4.5,4.5-.64.95-1.03,2.26-2,3,.02-1.58-1.7-2.1-2.5-3-4.36-4.86-3.67-3.39-9-.5,1.32-1.44,4.92-4.68,4-5v-.5c1.58,1.15,3.12,2.43,5,1.5Z"/>
        <path class="cls-14" d="m306.73,259.41c2.62,2.6,3.33,2.85,3.5,3,2.33,2.06,4.44,4.66,7,6.5.21,1.21.81,2.29,1,3.5-3.84-3.18-8.34-4.68-12.5-7-.55-.31-3.04-2.26-4-3,.94-1.48,2.13-3.03,3-4.5.63.43,1.48.98,2,1.5Z"/>
        <path class="cls-47" d="m318.23,272.41c.2.17,1.26,1.3,2,2,.15.15.34.34.5.5.1.1-.27.5,1.5,2.5-1.88.93-3.42-.35-5-1.5-.11-.08-.4-.77-2-2-3.27-2.51-6.98-5.15-9.5-8.5,4.16,2.32,8.66,3.82,12.5,7Z"/>
      </g>
      <path class="cls-26" d="m52.73,258.91c1.01,1.71,1.88,3.81,2,4-1.68-1.73-2.41-.5-4,.5-.05.03-.45.97-.5,1-1.44,1.01-3.1,1.89-4.5,3-.39-.43-1.84-1.31-2.5-1.5.04-.07.42-1.22.5-1.5,1.66-.6,3.62-3.38,4.5-4,.15-.1,2.37-1.44,2.5-1.5,1.18-.55.77-.1,2,0Z"/>
      <g>
        <path class="cls-16" d="m41.23,277.41c-3.73,2.82-6.35,7.66-8.5,3.5,2.06-2.66,4.65-4.65,7-7l1.5,3.5Z"/>
        <path class="cls-11" d="m48.73,270.91c-.88.75-1.69,1.67-2.5,2.5-.05.05-.92.24-1,1h-.5l-2.5-3c1.15-1.15,1.99-2.71,3.5-3.5.95,1.04,1.68,2.33,3,3Z"/>
        <path class="cls-46" d="m44.73,274.41c-1.21.97-2.26,2.06-3.5,3l-1.5-3.5c.83-.83,1.67-1.67,2.5-2.5l2.5,3Z"/>
        <path class="cls-28" d="m50.23,264.41c3.19,3.93,1.87,3.78,2,4-1.36.54-2.41,1.58-3.5,2.5-1.32-.67-2.05-1.96-3-3-.08-.09.08-.41,0-.5,1.4-1.11,3.06-1.99,4.5-3Z"/>
      </g>
      <path class="cls-46" d="m64.73,77.91c1.42,1.45,2.88,2.79,4,4.5-.67.43-1.32,1.04-2,1.5-1.5-.94-5.11-4.75-5.5-5l3.5-1Z"/>
      <path class="cls-16" d="m300.23,76.91c-.96,1.08-1.94,2.55-3,3.5-.25.22-3.97,2.14-5,4.5-1-.74-2.51-1.85-3.5-2.5,2.57-2.17,5.17-4.16,8-6-.05.66,2.37.68,3.5.5Z"/>
      <g>
        <path class="cls-36" d="m317.73,68.91c-2.6-.38-4.63.46-6,.5-.91-.65-1.17-1.14-1.5-1.5l4-.25c-19.21-20.51-36.94-36.07-62.5-48.25C225.66,7,200.81.55,171.73,1.91c-.5.02-1-.03-1.5,0,.11-2.15-3.32-.09-4.5-1.5,59.34-4.12,114.84,22.72,152,68.5Z"/>
        <path class="cls-34" d="m165.73.41c1.18,1.41,4.61-.65,4.5,1.5-11.47.68-23.36,2.61-34.5,5.5-15.8,4.1-30.44,10.78-44.5,19-18.3,10.7-31.83,22.85-46,38.5-.98-.11-2.01.07-3,0C70.88,27.73,119.28,3.64,165.73.41Z"/>
        <path class="cls-26" d="m45.23,64.91c1.96.21,12.74,4.42,14.5,5.5,1.66,1.02,4.38,2.63,3,4.5-.96-.58-20.38-6.58-21.5-6.5-2.92-1.73-.15-2,1-3.5.99.07,2.02-.11,3,0Z"/>
        <path class="cls-36" d="m193.23,7.41c21.11,1.74,41.37,7.51,60.5,16.5.7.33.47.48.5.5-.99,4.34,5.47,4.33,7.75,7.5,1.46-1.06,3.09,2.64,5.5,4,.45.25,3.34.44,3.5.5.31.12,2.62,2.43,3,2.5.25.04,3.2-3.65.75,1.25,4.35,1.75,4.44,4.37,4.75,4.25.73-.28.74-1.45,1-1.5,1.6-.29,10.03,13.12,11.75,6.5,6.42,5.84,12.11,12.15,18,18.5.33.36.59.85,1.5,1.5-.67.02-1.33-.02-2,0-1.52.05-4.06-.04-4.25,1-23.82-16.3-25.42-25.15-53-41-1.09-.63-.55-1.75-1-2l-2,.5c-2.44-4.43-5.06-.79-6.5-4.5-.73,1.9-10.98-3.36-16.5-5-2.4-.71-10.85-2.79-11.75-1.5-27.63-6.57-52.32-6.1-79.5,2.5l.5-.75c-10.22,2.25-24.74,7.45-34.25,13.75-15.53,10.3-27.21,31.32-41.75,38-1.76-1.08-12.54-5.29-14.5-5.5,14.17-15.65,27.7-27.8,46-38.5-.02.38-.09.99.25,1,1.8.06,22.11-9.79,33.5-13,11.75-3.31,24.04-4.12,35.75-7.5,10.87-.31,21.65-.39,32.5.5Z"/>
        <path class="cls-4" d="m251.73,19.41c-1.24,1.59,1.7.75,2,4.5-19.13-8.99-39.39-14.76-60.5-16.5-5.49-4.51-16.08-1.04-21.5-5.5,29.08-1.36,53.93,5.08,80,17.5Z"/>
        <path class="cls-27" d="m310.23,67.91c-5.89-6.35-11.58-12.66-18-18.5-13.2-12-21.88-17.3-38-25-.03-.02.2-.17-.5-.5-.3-3.75-3.24-2.91-2-4.5,25.56,12.18,43.29,27.74,62.5,48.25l-4,.25Z"/>
        <path class="cls-2" d="m170.23,1.91c.5-.03,1,.02,1.5,0,5.42,4.46,16.01.99,21.5,5.5-10.85-.89-21.63-.81-32.5-.5-3.68.11-23.58,1.91-24.75,1.5-.38-.13-.25-.65-.25-1,11.14-2.89,23.03-4.82,34.5-5.5Z"/>
        <path class="cls-51" d="m160.73,6.91c-11.71,3.38-24,4.19-35.75,7.5-11.39,3.21-31.7,13.06-33.5,13-.34-.01-.27-.62-.25-1,14.06-8.22,28.7-14.9,44.5-19,0,.35-.13.87.25,1,1.17.41,21.07-1.39,24.75-1.5Z"/>
        <path class="cls-26" d="m214.73,16.91c18.11,4.31,37.19,11.22,50,25.25,4.47,4.9,10.37,15,15,19.5,2.57,2.49,16.24,10.86,17.5,14.25-.03.02.1.11-.5.5-2.83,1.84-5.43,3.83-8,6-5.49-3.6-12.33-5.66-17.75-9.5-10.82-8.81-4.29-21.36-35.5-34.5-33.51-14.11-72.26-14.96-106.5-3-39.81,13.91-33.83,30-41.5,37-5.66,3.66-13.24,6.48-18.75,10-1.12-1.71-2.58-3.05-4-4.5-.08-.08.08-.42,0-.5,2.04-1.52,5.94-.43,8.25-1.5,4.42-2.04,14.26-15.42,18.25-19.75,8.07-13.81,15.92-24.91,30.75-31.75,2.14-.99,10.79-4.22,13.25-5,27.18-8.6,51.87-9.07,79.5-2.5Z"/>
        <path class="cls-34" d="m135.23,19.41c-2.46.78-11.11,4.01-13.25,5-14.83,6.84-22.68,17.94-30.75,31.75-3.99,4.33-13.83,17.71-18.25,19.75-2.31,1.07-6.21-.02-8.25,1.5-1.33-1.2-1.86-2.42-2-2.5,1.38-1.87-1.34-3.48-3-4.5,14.54-6.68,26.22-27.7,41.75-38,9.51-6.3,24.03-11.5,34.25-13.75l-.5.75Z"/>
        <path class="cls-34" d="m309.73,69.41c-4.07,2.36-8.5,4-12.5,6.5-1.26-3.39-14.93-11.76-17.5-14.25-4.63-4.5-10.53-14.6-15-19.5-12.81-14.03-31.89-20.94-50-25.25.9-1.29,9.35.79,11.75,1.5,5.52,1.64,15.77,6.9,16.5,5,1.44,3.71,4.06.07,6.5,4.5l2-.5c.45.25-.09,1.37,1,2,27.58,15.85,29.18,24.7,53,41,.19-1.04,2.73-.95,4.25-1Z"/>
        <path class="cls-36" d="m292.23,49.41c-1.72,6.62-10.15-6.79-11.75-6.5-.26.05-.27,1.22-1,1.5-.31.12-.4-2.5-4.75-4.25,2.45-4.9-.5-1.21-.75-1.25-.38-.07-2.69-2.38-3-2.5-.16-.06-3.05-.25-3.5-.5-2.41-1.36-4.04-5.06-5.5-4-2.28-3.17-8.74-3.16-7.75-7.5,16.12,7.7,24.8,13,38,25Z"/>
      </g>
      <g>
        <path class="cls-14" d="m324.73,284.91v.5c-7.58,10.4-15.2,21.03-24.5,30-26.13,25.2-64,44.33-100,49-5.6.73-11.36,1.31-17,1.5-4.81.16-10.72.22-15.5,0-6.04-.27-12.52-1.04-18.5-2-24.62-3.96-51.22-16.05-71.5-30.5-21.08-15.01-26.46-25.27-36.5-34.5-2.95-4.66-6.39-8.95-9.5-13.5,4.1-4.51,4.79,1.44,10.5,8.25,58.05,69.22,143.43,90.22,223.25,42.75,22.18-13.19,43.04-32.57,56.75-54.5.8.9,2.52,1.42,2.5,3Z"/>
        <path class="cls-6" d="m50.73,74.91c-7.73,8.38-11.59,15.33-17,25-4.37,7.81-7.72,14.1-11,22.5-1.6,4.09-3.3,8.2-5,12.25,2.17,14.14-.59,28.74-1,38.75-.38,9.24-1.56,18.48-1,27.75,1.24,20.69,11.42,50.87,24,67.75-1.25,1.47-2.13,2.59-3.5,4-18.56-23.75-29.03-63.14-34-92.75-.16-.98-1.48-1.4-1.5-1.5-.68-3.81,1.9-8.72,0-12.75.84-8.89,2.65-20.78,6-29,.25,1.82.77,3.66,2.5,1.75,6.09-14.76,14.71-28.5,20-43.5,4.54-8.01,11.48-13.94,16-21.75,1.83.55,3.62.85,5.5,1.5Z"/>
        <path class="cls-19" d="m36.23,272.91c-5.58,5.74-3.77,9.32-14.5-9.75-2.87-5.1-4.91-10.77-7.5-16-.16-.31-3.77-3.35-2.5-6l-2-.75C2,216.31-1.67,191.17.73,165.91c1.9,4.03-.68,8.94,0,12.75.02.1,1.34.52,1.5,1.5,4.97,29.61,15.44,69,34,92.75Z"/>
        <path class="cls-6" d="m45.23,73.41c-4.52,7.81-11.46,13.74-16,21.75-5.29,15-13.91,28.74-20,43.5-1.73,1.91-2.25.07-2.5-1.75-1.24-9.15,19.42-53.24,30.5-65.5,2.47-.81,5.5,1.25,8,2Z"/>
        <path class="cls-19" d="m326.73,281.91c-1.33-1.59-3.15-2.98-4.5-4.5-1.77-2-1.4-2.4-1.5-2.5,4.15,2.86,1.8.25,2.5-.25,3.19-2.26,5.25-2.98,8-6.75,1.53-2.1,7.55-12.82,6-14.5.27-.53,1.18.13,3-3.75,13.14-34.52,17.5-65.6,11-102.25-2.01-11.34-5.77-24.77-10-35.5l1-1c22.61,54.92,17.95,121.26-15.5,171Z"/>
        <path class="cls-14" d="m36.23,272.91c1.37-1.41,2.25-2.53,3.5-4,.56-.66,3.21-2.56,3.5-3,.66.19,2.11,1.07,2.5,1.5.08.09-.08.41,0,.5-1.51.79-2.35,2.35-3.5,3.5-.83.83-1.67,1.67-2.5,2.5-2.35,2.35-4.94,4.34-7,7-1.01,1.31-1.56,1.04-2,3.5-8.56-12.87-16.29-29.32-21-44l2,.75c-1.27,2.65,2.34,5.69,2.5,6,2.59,5.23,4.63,10.9,7.5,16,10.73,19.07,8.92,15.49,14.5,9.75Z"/>
        <path class="cls-45" d="m320.73,72.91c5.96,10.82,12.53,16.21,21.5,38l-1,1c-3.96-10.05-13.76-29.07-21-36.5-.81-1.36-1.84-.76-1.5-2.5h2Z"/>
        <path class="cls-23" d="m123.23,326.91c7.14,2.28,13.09,3.36,20.5,4,.63,2.71-12.32,2.21-17.25,1.5-25.69-3.71-59.1-28.94-73.75-50-.32-.46-1.45-4.88-6.5-9,.81-.83,1.62-1.75,2.5-2.5,1.09-.92,2.14-1.96,3.5-2.5,12.29,21.2,47.46,50.98,71,58.5Z"/>
        <path class="cls-19" d="m239.73,320.91c-11.23,3.98-30.89,6.47-36-8-.74-2.1-2.26-5.69.5-6.5,1.58,24.6,32.09,15.51,51.25,3.5,17.43-10.93,32.87-27.51,44.25-44.5,7.3-2.13-4.98,13.19-9.5,18.25-10.98,12.29-35.15,31.81-50.5,37.25Z"/>
        <path class="cls-45" d="m186.73,331.91c1.36-.21,5.6-1.06,6.5-1.5,3.04,2.91,20.01,4.35,24.25,4,2.43-.2,18.82-4.17,19.25-5.75.26-.94-1.83-.73-1.5-2.25.32-.05.68.06,1,0,4.92-.89,15.25-4.99,19.75-3,.38.17-2.29,5.73,4.75-2.25-18.76,3.63,5.48-5.78,3.5-.5-1.2,3.19-13.84,8.59-17.25,9.75-.89.3-1.6-.8-2.5-.5-3.76,1.25-9.93,3.99-12,4.5-12,2.98-37.53,5.88-45.75-2.5Z"/>
        <path class="cls-6" d="m164.23,329.91c-6.59,2.18-13.66,1.59-20.5,1-7.41-.64-13.36-1.72-20.5-4l-1.5-3.5c5.78,1.54,10.66,2.35,16.5,1,0,.34-.12.91.25,1,1.86.44,18.18-1.55,22.25-2.5.74,2.4,1.23,5.43,3.5,7Z"/>
        <path class="cls-25" d="m239.73,320.91c3.91,2.7-17.31,4.1-3.5,5.5-.32.06-.68-.05-1,0-7.39,1.22-14.33,1.9-21.75-1-5.14-2.01-12.55-9.7-9.75-12.5,5.11,14.47,24.77,11.98,36,8Z"/>
        <g>
          <path class="cls-6" d="m305.73,265.41c2.52,3.35,6.23,5.99,9.5,8.5-2.76,5.53-2.79,4.83,2,2.5.92.32-2.68,3.56-4,5-.44.24-3.27,2.14-3.5,1.75,7.99-18.68-1.62-1.35-4.5,5,.58,1.86,4.96-3.45,8-6.75,5.33-2.89,4.64-4.36,9,.5-13.71,21.93-34.57,41.31-56.75,54.5-79.82,47.47-165.2,26.47-223.25-42.75-5.71-6.81-6.4-12.76-10.5-8.25-.04-.06-.44-.16-1-1,.44-2.46.99-2.19,2-3.5,2.15,4.16,4.77-.68,8.5-3.5,1.24-.94,2.29-2.03,3.5-3h.5l7.5,8c14.65,21.06,48.06,46.29,73.75,50,4.93.71,17.88,1.21,17.25-1.5,6.84.59,13.91,1.18,20.5-1,3.94,2.73,17.52,2.76,22.5,2,8.22,8.38,33.75,5.48,45.75,2.5,2.07-.51,8.24-3.25,12-4.5.9-.3,1.61.8,2.5.5,3.41-1.16,16.05-6.56,17.25-9.75,1.98-5.28-22.26,4.13-3.5.5-7.04,7.98-4.37,2.42-4.75,2.25-4.5-1.99-14.83,2.11-19.75,3-13.81-1.4,7.41-2.8,3.5-5.5,15.35-5.44,39.52-24.96,50.5-37.25,4.52-5.06,16.8-20.38,9.5-18.25.67-1,1.36-1.99,2-3,.96.74,3.45,2.69,4,3Z"/>
          <path class="cls-45" d="m313.23,281.41c-3.04,3.3-7.42,8.61-8,6.75,2.88-6.35,12.49-23.68,4.5-5,.23.39,3.06-1.51,3.5-1.75Z"/>
          <path class="cls-45" d="m52.73,282.41l-7.5-8c.08-.76.95-.95,1-1,5.05,4.12,6.18,8.54,6.5,9Z"/>
          <path class="cls-45" d="m317.23,275.91v.5c-4.79,2.33-4.76,3.03-2-2.5,1.6,1.23,1.89,1.92,2,2Z"/>
          <path class="cls-45" d="m252.48,321.41c.33.21.37,1.05.25,1.25-1.29,2.09-1.78-2.23-.25-1.25Z"/>
        </g>
        <path class="cls-23" d="m37.73,121.41c-3.19,1.67-7.06-3.25-8.5,4.75-2.24,12.46,3.69,21.99,13.5,29-1.02.48-1.05,1.44-1.5,2.25-1.79,3.26-7.64,8.56-11.5,17.5-13.66,1.82-9.87,20.93-8.5,31-1.56-.42-.23-1.88-3.5-3.75.88-3.89-.66-12.56-.5-15,.18-2.74,1.45-4.98,1.5-5.25l.25,1c1.05-.78.94-1.43.25-2.5,1.9-7.59,5.06-14.54,10.5-20.25-.31-6.56-4.06-11.63-5-15.5-1.2-4.97.76-10.15-2-10,1.5-2.66,2.24-7.76,1.5-10.75-.22-.91-.16-1.62-1.5-1.5,3.28-8.4,6.63-14.69,11-22.5.72,5.19,1.17,18.48,4.5,19.25.31.94-.72,1.47-.5,2.25Z"/>
        <path class="cls-25" d="m19.23,180.41c-.02.08-.11-.42-.5,1.5-.05.27-1.32,2.51-1.5,5.25-.16,2.44,1.38,11.11.5,15,3.27,1.87,1.94,3.33,3.5,3.75,2.16,15.91,4.07,17.77,9.5,31.5-1.01,3.22-1.29,12.77,4,11,.02.41.85.97.5,1.75-.62,1.38-4.74-.3,2.5,3,.16,3.9,3.14,5.34,3.5,6,.58,1.07-.71,5.71,2.5,4.25-.04.32.07.74,0,1-.08.28-.46,1.43-.5,1.5-.29.44-2.94,2.34-3.5,3-12.58-16.88-22.76-47.06-24-67.75-.56-9.27.62-18.51,1-27.75,2.17,1.32,4.3-6.47,4.5-8.25,1.26-11.17-6.16-27.08,3-41.25.74,2.99,0,8.09-1.5,10.75,2.76-.15.8,5.03,2,10,.94,3.87,4.69,8.94,5,15.5-5.44,5.71-8.6,12.66-10.5,20.25Z"/>
        <path class="cls-25" d="m57.23,77.41c-2.67,2.54-10.8,12.11-12,14.25-2.76,4.91-9.65,27.51-3.5,30.25.09,8.37,3.3,11.53,10,16-.09-.03.29.76-1.75.5-1.87-2.1-9.46-7.55-10.25-8.75-1.13-1.71-1.46-6.33-2-8.25-.22-.78.81-1.31.5-2.25-3.33-.77-3.78-14.06-4.5-19.25,5.41-9.67,9.27-16.62,17-25,2.3.8,4.28,1.46,6.5,2.5Z"/>
        <path class="cls-6" d="m24.23,123.91c-9.16,14.17-1.74,30.08-3,41.25-.2,1.78-2.33,9.57-4.5,8.25.41-10.01,3.17-24.61,1-38.75,1.7-4.05,3.4-8.16,5-12.25,1.34-.12,1.28.59,1.5,1.5Z"/>
        <path class="cls-25" d="m351.23,147.41c6.5,36.65,2.14,67.73-11,102.25-1.82,3.88-2.73,3.22-3,3.75-.9,1.78-1.63,3.88-2.5,5.5-.86.2-2.47-1.55-2.75-1.5-.68.13-6.81,10.6-6.25,11.75-2.14,2.15-5.01,2.59-5.5,5.25-.74-.7-1.8-1.83-2-2-.19-1.21-.79-2.29-1-3.5-1.3-7.31,5.68-15.85,8.5-22.75,6.1-14.91,11.21-29.89,13-46,.7-6.28-.47-14.38,2-16.25,1.83,8.8,1.23,17.7,1.5,26.25-2.96,15.37-8.39,29.95-12.5,45,5.66-1.3,12.55-23.93,14.5-30.75,4.91-17.21,7.08-31.04,6.5-49-.03-1,.05-2,0-3,4.31-2.4-1.39-21.61-1-24.25.06-.37,1.01-.93,1.5-.75Z"/>
        <path class="cls-23" d="m341.23,111.91c4.23,10.73,7.99,24.16,10,35.5-.49-.18-1.44.38-1.5.75-.39,2.64,5.31,21.85,1,24.25-1.94-37.31-11.72-65.24-30.5-97,7.24,7.43,17.04,26.45,21,36.5Z"/>
        <path class="cls-6" d="m334.73,258.91c-1.33,2.47-4.14,4.1-3.5,9-2.75,3.77-4.81,4.49-8,6.75-.7.5,1.65,3.11-2.5.25-.16-.16-.35-.35-.5-.5.49-2.66,3.36-3.1,5.5-5.25-.56-1.15,5.57-11.62,6.25-11.75.28-.05,1.89,1.7,2.75,1.5Z"/>
        <path class="cls-6" d="m331.23,267.91c-.64-4.9,2.17-6.53,3.5-9,.87-1.62,1.6-3.72,2.5-5.5,1.55,1.68-4.47,12.4-6,14.5Z"/>
        <path class="cls-6" d="m57.23,77.41c.15.07.5-.03,1.5.5-1.57,3.94,2.82,1.32,1.5,3.75-8.09,9.8-21.79,25.38-18.5,38.25-.05.66,0,1.34,0,2-6.15-2.74.74-25.34,3.5-30.25,1.2-2.14,9.33-11.71,12-14.25Z"/>
        <path class="cls-19" d="m61.23,78.91c.39.25,4,4.06,5.5,5-11.14,7.54-24,21.98-25,36-3.29-12.87,10.41-28.45,18.5-38.25,1.32-2.43-3.07.19-1.5-3.75.12.06.71-.15,2.5,1Z"/>
        <path class="cls-6" d="m304.73,75.41c.93,5.02,5.67,8.39,8.5,12.25,7.36,10.05,17.52,26.45,18,39,.6,15.85-9.23,6.23-21.5,7.75,1.6-1.48,4.48-5.88,5-8,18.18-10.59-10.98-37.08-14-49.5.21-.05,1.69-.87,4-1.5Z"/>
        <path class="cls-48" d="m318.73,72.91c-.34,1.74.69,1.14,1.5,2.5,18.78,31.76,28.56,59.69,30.5,97,.05,1-.03,2,0,3l-3-1.5c0-4.66-2.09-22.37-3-27.5-2.76-15.51-8.3-29.82-15-44-2.11-4.48-11.25-23.02-14-25.25-.91-.74-4.11-1.09-5-.25-1.12-1.28-1.96-2.63-2.5-2.5,3.52-.75,6.74-2.11,10.5-1.5Z"/>
        <path class="cls-19" d="m314.73,126.41c1.4-5.73.04-10.69-2-16,2.03-.38-1.15-7.03-2-8.75-4.63-9.4-12.05-15.2-13.5-21.25,1.06-.95,2.04-2.42,3-3.5.16-.03.34.04.5,0,3.02,12.42,32.18,38.91,14,49.5Z"/>
        <path class="cls-23" d="m203.73,304.91c0,.35.43.41.5,1.5-2.76.81-1.24,4.4-.5,6.5-2.8,2.8,4.61,10.49,9.75,12.5,7.42,2.9,14.36,2.22,21.75,1-.33,1.52,1.76,1.31,1.5,2.25-.43,1.58-16.82,5.55-19.25,5.75-4.24.35-21.21-1.09-24.25-4,1.57-.77,2.69-2.47,3.5-4,2.9-5.44,3-14.83,3.5-21,1.98-.09,1.42-.49,1.5-.5.62-.11,1.36.07,2,0Z"/>
        <path class="cls-17" d="m319.23,193.91c12.25,20.67-.57,47.32-12.5,65.5-.52-.52-1.37-1.07-2-1.5,8.52-14.38,24.17-46.85,11.5-62,1.55-2.52,2.54-1.82,3-2Z"/>
        <path class="cls-25" d="m121.73,323.41l1.5,3.5c-23.54-7.52-58.71-37.3-71-58.5-.13-.22,1.19-.07-2-4,.05-.03.45-.97.5-1,7.76,3.7,3.41,2.33,3.5,3.75.05.84,8.71,11.92,10,13.5,12.61,15.52,38.11,37.6,57.5,42.75Z"/>
        <path class="cls-19" d="m54.73,262.91c13.34,21.36,57.8,69.12,85.75,58.5,5.03-1.91,10.6-8.79,11.75-14,2.7-1.71.35.21,2.5.5-1.66,8.54-8.26,14.6-16.5,16.5-5.84,1.35-10.72.54-16.5-1-19.39-5.15-44.89-27.23-57.5-42.75-1.29-1.58-9.95-12.66-10-13.5-.09-1.42,4.26-.05-3.5-3.75,1.59-1,2.32-2.23,4-.5Z"/>
        <path class="cls-6" d="m157.23,305.41c.17,0,.33,0,.5,0,.98,5.86,1.23,11.77,3,17.5-4.07.95-20.39,2.94-22.25,2.5-.37-.09-.25-.66-.25-1,8.24-1.9,14.84-7.96,16.5-16.5.18-.93-1.39-1.82.25-3,.36-.14.72.52,2.25.5Z"/>
        <path class="cls-6" d="m314.73,150.41c7.13,2.38,23.04,19.26,26,33.5-2.47,1.87-1.3,9.97-2,16.25-1.79,16.11-6.9,31.09-13,46-2.82,6.9-9.8,15.44-8.5,22.75-2.56-1.84-4.67-4.44-7-6.5,11.81-13.62,23.06-44.32,24.5-61.75.37-4.51.88-16.32-2-17.25,0-7.86-9.19-19.87-14.5-25.5-.86-.91-1.46-2.45-3-2.5-.64-2.09-2.97-3.6-4.5-5,1.02-.78,2.92-.36,4,0Z"/>
        <path class="cls-6" d="m310.23,262.41c-.17-.15-.88-.4-3.5-3,11.93-18.18,24.75-44.83,12.5-65.5,4.82-1.92,11.32-1.84,13-8,.13-.48.5-2.16.5-2.5,2.88.93,2.37,12.74,2,17.25-1.44,17.43-12.69,48.13-24.5,61.75Z"/>
        <path class="cls-23" d="m29.73,174.91c-1.24,2.87-2.81,5.79-3,9-.31,5.27.31,6.16,5,8.5-5.11,18.63.3,38.77,9,55.5-1.4,4.41-3.11.13-3,2.25.04.73,3.71,2.88,4.5,3.5,1.82,3.03,1.3,5.73,1.5,7,.19,1.22,2.84,1.46,0,2.75-3.21,1.46-1.92-3.18-2.5-4.25-.36-.66-3.34-2.1-3.5-6-7.24-3.3-3.12-1.62-2.5-3,.35-.78-.48-1.34-.5-1.75-.19-4.02-2.53-7.29-4-11-5.43-13.73-7.34-15.59-9.5-31.5-1.37-10.07-5.16-29.18,8.5-31Z"/>
        <path class="cls-40" d="m37.73,121.41c.54,1.92.87,6.54,2,8.25.79,1.2,8.38,6.65,10.25,8.75,2.04.26,1.66-.53,1.75-.5,3.1,1.09,6.23,1.98,9.5,2.5.09,1.55-2.43,2.24-3.5,3-19.88-5.53-19.83-15.5-21-16.75-2.89-3.09-5.9,5.32-1,15,1.69,3.34,9.1,12.39,12.5,8.75-2.27,1.97-4.33,5.27-7,7,.45-.81.48-1.77,1.5-2.25-9.81-7.01-15.74-16.54-13.5-29,1.44-8,5.31-3.08,8.5-4.75Z"/>
        <path class="cls-45" d="m18.73,181.91c.39-1.92.48-1.42.5-1.5.69,1.07.8,1.72-.25,2.5l-.25-1Z"/>
        <path class="cls-40" d="m48.23,260.41c-.88.62-2.84,3.4-4.5,4,.07-.26-.04-.68,0-1,2.84-1.29.19-1.53,0-2.75-.2-1.27.32-3.97-1.5-7-.79-.62-4.46-2.77-4.5-3.5-.11-2.12,1.6,2.16,3-2.25,2.22,4.26,5.05,8.36,7.5,12.5Z"/>
        <path class="cls-45" d="m34.73,248.41c-5.29,1.77-5.01-7.78-4-11,1.47,3.71,3.81,6.98,4,11Z"/>
        <path class="cls-23" d="m329.73,102.41c6.7,14.18,12.24,28.49,15,44-2.67-1.11-3.04,5.26-3,7.25.14,6.5,5.16,16.57,6,22.75l.5,12.25c-1.69,6-1.53,12.32-2.5,18.5-.88,5.65-5.49,17.62-1.5,17.25-1.95,6.82-8.84,29.45-14.5,30.75,4.11-15.05,9.54-29.63,12.5-45-.27-8.55.33-17.45-1.5-26.25-2.96-14.24-18.87-31.12-26-33.5-3.24-5.45,10.81,3.13,18.25-1.5,9.78-9.44,3.99-23.37-.25-34-1.1-2.76-1.99-5.93-3-8.75-1.69-2.49-5.9-2.8-3.5-5.75,1.08,1.58,1.27,2.45,3.5,2Z"/>
        <path class="cls-40" d="m350.73,175.41c.58,17.96-1.59,31.79-6.5,49-3.99.37.62-11.6,1.5-17.25.97-6.18.81-12.5,2.5-18.5l-.5-12.25v-2.5l3,1.5Z"/>
        <path class="cls-45" d="m35.23,193.41c-1.97,3.73-1.83,7.74-3,11.75.45,8.65.42,3.13,1,1.5.14-.39.67-.25,1-.25-2.58,18.04,6.55,37.87,16.5,52.5-.13.06-2.35,1.4-2.5,1.5-2.45-4.14-5.28-8.24-7.5-12.5-8.7-16.73-14.11-36.87-9-55.5.16.08,2.83.82,3.5,1Z"/>
        <path class="cls-19" d="m45.73,193.41c-8.96,1.71-10.04,16.58-9.5,24.25,1,14.07,9.47,29.29,16.5,41.25-1.23-.1-.82-.55-2,0-9.95-14.63-19.08-34.46-16.5-52.5.62-4.35,2.16-8.08,4-12,3.6,1.49,3.6-3.23,7.5-1Z"/>
        <path class="cls-40" d="m329.73,102.41c-2.23.45-2.42-.42-3.5-2-.87-1.26-11.16-24-10-15-1.1-1.84-.92-2.12-1-2.25-.56-.91-2.36-1.17-2.5-1.5-.52-1.22,1.73-.48-2-4.75.89-.84,4.09-.49,5,.25,2.75,2.23,11.89,20.77,14,25.25Z"/>
        <path class="cls-23" d="m344.73,146.41c.91,5.13,3,22.84,3,27.5v2.5c-.84-6.18-5.86-16.25-6-22.75-.04-1.99.33-8.36,3-7.25Z"/>
        <path class="cls-25" d="m314.73,150.41c-1.08-.36-2.98-.78-4,0-4.88-4.46-12.99-8.45-13-9.25,0-.35,2.42-.49,2-1.75,1.59-.56,5.39-1.83,6.5-2.5,5.42.73,21.57,6.72,25.75,3.5.66-.51,3.21-7.33,3.25-7.75.36-4.21-5.02-16.78-4.25-17.25.43-.26,1.86,1.54,1.75-.5,4.24,10.63,10.03,24.56.25,34-7.44,4.63-21.49-3.95-18.25,1.5Z"/>
        <g>
          <path class="cls-6" d="m316.23,85.41c-1.16-9,9.13,13.74,10,15-2.4,2.95,1.81,3.26,3.5,5.75,1.01,2.82,1.9,5.99,3,8.75.11,2.04-1.32.24-1.75.5-.77.47,4.61,13.04,4.25,17.25-.04.42-2.59,7.24-3.25,7.75-4.18,3.22-20.33-2.77-25.75-3.5.24-.14,3.34-2.35,3.5-2.5,12.27-1.52,22.1,8.1,21.5-7.75-.48-12.55-10.64-28.95-18-39-2.83-3.86-7.57-7.23-8.5-12.25.11-.03.42-.64,2-1-.66,2.33,11.27,17.02,12.25,17.5.75.37,1.36.74,1.25-.25-1.88-1.72-2.74-4.13-4-6.25Z"/>
          <path class="cls-25" d="m308.23,74.41c.54-.13,1.38,1.22,2.5,2.5,3.73,4.27,1.48,3.53,2,4.75.14.33,1.94.59,2.5,1.5.08.13-.1.41,1,2.25,1.26,2.12,2.12,4.53,4,6.25.11.99-.5.62-1.25.25-.98-.48-12.91-15.17-12.25-17.5.45-.1,1.04.1,1.5,0Z"/>
          <path class="cls-25" d="m328.98,109.41c.93-.42,1.04,1.69.5,2-.25.15-1.33-1.63-.5-2Z"/>
          <path class="cls-25" d="m323.98,98.91c.17-.05,1.1,1.05.75,1.75-.41.83-1.65-1.49-.75-1.75Z"/>
        </g>
        <path class="cls-14" d="m297.23,80.41c1.45,6.05,8.87,11.85,13.5,21.25.85,1.72,4.03,8.37,2,8.75-3.21-8.34-13.3-20.2-20.5-25.5,1.03-2.36,4.75-4.28,5-4.5Z"/>
        <path class="cls-48" d="m57.73,143.41c-2.77,1.97-7.1,4.92-9.5,7-3.4,3.64-10.81-5.41-12.5-8.75-4.9-9.68-1.89-18.09,1-15,1.17,1.25,1.12,11.22,21,16.75Z"/>
        <path class="cls-9" d="m38.23,194.41c-1.84,3.92-3.38,7.65-4,12-.33,0-.86-.14-1,.25-.58,1.63-.55,7.15-1-1.5,1.17-4.01,1.03-8.02,3-11.75,1.02.28,2.06.47,3,1Z"/>
      </g>
      <g>
        <g>
          <path class="cls-36" d="m272.23,149.41c-2.09-4.96-5.6-3.19-9.5-5.5-4.62-4.1-3.96-1.48-6,.5-.32.31-1.01.59-1.5.5-2.05-2.07-2.83-2.69-5.5-3.5-2.55-.77-8.17-1.1-11.5-1.5-4.08-.49-8.77-.33-12.5-2-.71-1.17-1.59-2.48-2.5-3.5,13.22.3,25.19,5.11,38.75,5.5,3.38.89.57,2.6,1.5,3,.35.15,4.61-.23,7.5.5.41.1.09.89.5,1,5.23,1.34,10.69-.3,11,6.5-1.27.67-8.27-1.3-10.25-1.5Z"/>
          <path class="cls-34" d="m291.73,159.41c1.55,1.66,3.73,6.63,6.5,4.5.68.89,8.54,5.92,4.75,6.5-1.37.21-23.02-6.24-27-6-7.38-12.04-1.11-7.54,15.75-5Z"/>
          <path class="cls-34" d="m332.73,183.41c0,.34-.37,2.02-.5,2.5-1.36-2.11-2.41-.23-3.5-.75-1.3-.62-8.57-20.97-14-25,.39-.85,5.09,1.64,5,0,0-.18-2.66-.81-1.5-2.25,5.31,5.63,14.5,17.64,14.5,25.5Z"/>
          <path class="cls-27" d="m296.23,152.91c4.75,3.36,9.59,6.09,14,10,.09.71-.98.37-1,.75-.01.34,1.45.15.75.75h-2.25c-.43-3.38-4.91-5.13-8-6.5-.32-.14-3.66-3.71-5.25-.5-7.45-6.28.65,5.15,2.5,6.5.29.21.81-.03.75-.5.02.03.13.01.5.5-2.77,2.13-4.95-2.84-6.5-4.5-1.33-1.42-.42-2.32-2.75-3l-26.25-2c-.13-.23-2.33-.85-1-2.5,4.54,1.05,22.95,1.22,30.75,3.5l3.75-2.5Z"/>
          <path class="cls-36" d="m310.73,150.41c1.53,1.4,3.86,2.91,4.5,5,1.32,4.33-1.47-.03-3.5,1-3.33-4.24-15.43-11.15-20.5-14.5,2.83-.91,5.68-1.51,8.5-2.5.42,1.26-2,1.4-2,1.75.01.8,8.12,4.79,13,9.25Z"/>
          <path class="cls-1" d="m299.73,157.91c-2.62,1.67-3.61,2.88-2,5.5.06.47-.46.71-.75.5-1.85-1.35-9.95-12.78-2.5-6.5,1.59-3.21,4.93.36,5.25.5Z"/>
          <path class="cls-42" d="m312.73,164.41c-.56,1.89-1.41,3.74-3,5-4.03.83-1.72-2.81-2-5h2.25c.7-.6-.76-.41-.75-.75.02-.38,1.09-.04,1-.75.85.75,2.26,1.26,2.5,1.5Z"/>
          <g>
            <path class="cls-26" d="m249.73,141.41c9.23,14.58,17.91,29.52,27.25,44,1.53.45-2.26-8.43-2.75-9.5,10.37-.8,20.62,1.32,31,1,1-.03,5.05,2.58,4-2.75-1.09-5.56-4.66-.37-5-.25-2.05.69-26.62-2.51-32-1.5-2.7-5.5-6.5-12.59-9.5-18l26.25,2c2.33.68,1.42,1.58,2.75,3-16.86-2.54-23.13-7.04-15.75,5,3.98-.24,25.63,6.21,27,6,3.79-.58-4.07-5.61-4.75-6.5-.37-.49-.48-.47-.5-.5-1.61-2.62-.62-3.83,2-5.5,3.09,1.37,7.57,3.12,8,6.5.28,2.19-2.03,5.83,2,5-.1.72-.02,1.66.75,2,10.9,4.79,7.34-1.93,2.25-7,.69-2.32-.06-1.86,0-3,.07-1.43,1.38-.67,1-2.75-.79-.66-1.37-1.45-2-2.25,2.03-1.03,4.82,3.33,3.5-1,1.54.05,2.14,1.59,3,2.5-1.16,1.44,1.49,2.07,1.5,2.25.09,1.64-4.61-.85-5,0,5.43,4.03,12.7,24.38,14,25,1.09.52,2.14-1.36,3.5.75-1.68,6.16-8.18,6.08-13,8-.46.18-1.45-.52-3,2-.57-.68-1.07-1.42-1.75-2-23.56-2.62-47.31-4.16-71-5.5-10.61,15.17-22.84,29.4-30.75,46.25-.55,2.89-.92,5.87-1.5,8.75-2.19.69.05,6.2-3.5,1.5.58-3.71.8-7.56,1.5-11.25,2.96-15.57,9.33-25.01,1.5-17.75-1.08,1-2.62,1.16-3.5,3.25-.75,9.61-1.91,19.18-3,28.75-1.28-.55,0-5.01-.25-5-1.49.07-.25,1.99-1,2.5-3.27-1.12-7.83,4.59-9.5,5-1.29.31-24.01.25-26.5,0-9-.91-9.38-4.47-13.25-3.5-.43-3.62-2.03-23.12-2.5-24.25-.52-1.24-3.25-2.71-4.5-3.25-.78-2.73-2.92-5.36-4-8,.27.2,1.97-.2,2.25,0,2.32,1.64,4.89,4.58,7.5,6,13.3,7.23,40.16,8.23,53.5,1,.41-.22,5.83-4.87,7.25-6,5.94-4.7,11.1-9.38,15-16,4.9-8.31,6.54-14.35,6.5-24-.04-9.48-3.24-23-7.5-31.5,5.16-2.03,10.88,9.22,12.75,9.5,3.08.47.97-1.86-.25-4,7.66,6.63-.8-6.02-2.5-3.5-.08-.11-1.89-1.7-1.5-2.25.47-.67,2.39.29,2.5-.75,3.33.4,8.95.73,11.5,1.5Z"/>
            <g>
              <g>
                <path class="cls-34" d="m167.23,233.41c-.41.82,1.46,1.45,1.75,1.5,7.57,1.22,19.87.51,27.75-.5.34.54.9,1.42.25,2-.64.57-17.6,2.61.5.5,6.59-7.38-6.32-5.18,8-14.5,1.93,5.81-5.34,10.68-4.25,18.75-.62,1.03-1.05,1.78-2.25,2.25-4.01,1.57-37.64,1.96-42.25-3.75-3.65-4.52,1.72-8.74,4.25-5.75.34-2.23,2.72-.76,6.25-.5Z"/>
                <path class="cls-34" d="m152.98,223.91c.6-.5,6.18,4.36,6.25,4.75.29,1.7-8.33,14.29-6.25-4.75Z"/>
                <path class="cls-8" d="m196.73,234.41c-7.88,1.01-20.18,1.72-27.75.5-.29-.05-2.16-.68-1.75-1.5,8.35.6,16.23,1.32,24.75,1,2.18-.08,3.4-2.17,4.75,0Z"/>
              </g>
              <g>
                <path class="cls-18" d="m255.23,144.91c2.27,2.29,2.76,6.14,6.5,7-1.33,1.65.87,2.27,1,2.5,3,5.41,6.8,12.5,9.5,18,.58,1.17,1.49,2.37,2,3.5.49,1.07,4.28,9.95,2.75,9.5-9.34-14.48-18.02-29.42-27.25-44,2.67.81,3.45,1.43,5.5,3.5Z"/>
                <path class="cls-36" d="m304.23,173.91l1,3c-10.38.32-20.63-1.8-31-1-.51-1.13-1.42-2.33-2-3.5,5.38-1.01,29.95,2.19,32,1.5Z"/>
                <path class="cls-34" d="m238.23,139.91c-.11,1.04-2.03.08-2.5.75-.39.55,1.42,2.14,1.5,2.25.93,1.35,1.61,1.94,2.5,3.5,1.22,2.14,3.33,4.47.25,4-1.87-.28-7.59-11.53-12.75-9.5-.4-.8-1.34-2.73-1.5-3,3.73,1.67,8.42,1.51,12.5,2Z"/>
                <path class="cls-10" d="m320.23,177.91c.12.19,2.06,1.12,1.5,3.75-1.36,6.44-10.22.46-5.5-5.25l4,1.5Z"/>
                <path class="cls-34" d="m309.73,169.41c1.59-1.26,2.44-3.11,3-5,5.09,5.07,8.65,11.79-2.25,7-.77-.34-.85-1.28-.75-2Z"/>
                <path class="cls-42" d="m244.23,152.91c4.07,5.86,8.31,2.32,2.5-1.5,4.36-1.53,2.49.18,6,4.25-8.94,3.45-6.53,2.52-10.5-1.5.48-.73,1.35-.8,2-1.25Z"/>
                <path class="cls-4" d="m255.48,167.41c3.34,1.02,1.09,6.22-5,4-5.03-1.83,3.84-4.35,5-4Z"/>
                <path class="cls-30" d="m305.23,176.91l-1-3c.34-.12,3.91-5.31,5,.25,1.05,5.33-3,2.72-4,2.75Z"/>
                <path class="cls-43" d="m244.23,152.91c.43-.3,2.23-1.4,2.5-1.5,5.81,3.82,1.57,7.36-2.5,1.5Z"/>
                <path class="cls-27" d="m239.73,146.41c-.89-1.56-1.57-2.15-2.5-3.5,1.7-2.52,10.16,10.13,2.5,3.5Z"/>
                <path class="cls-46" d="m320.23,177.91l-4-1.5c1.52-1.84.93-3.31,4,1.5Z"/>
              </g>
            </g>
          </g>
          <path class="cls-26" d="m262.73,143.91c.9.8,2.75,3.22,3,4.5-.54-.08-4.56,2.92-9-4,2.04-1.98,1.38-4.6,6-.5Z"/>
          <path class="cls-24" d="m272.23,149.41c-2.7-.27-4.14-.64-6.5-1-.25-1.28-2.1-3.7-3-4.5,3.9,2.31,7.41.54,9.5,5.5Z"/>
          <g>
            <path class="cls-26" d="m291.23,141.91c5.07,3.35,17.17,10.26,20.5,14.5.63.8,1.21,1.59,2,2.25.38,2.08-.93,1.32-1,2.75-2.07-1.04-13.83-10.97-14.75-11-.19,0-1.39,1.26-2.75,1.5-.08.01-.53-1.63-1.5-.75.68,1.01,1.44.7,1.5.75.2.16.85.89,1,1l-3.75,2.5c-7.8-2.28-26.21-2.45-30.75-3.5-3.74-.86-4.23-4.71-6.5-7,.49.09,1.18-.19,1.5-.5,4.44,6.92,8.46,3.92,9,4,2.36.36,3.8.73,6.5,1,1.98.2,8.98,2.17,10.25,1.5-.31-6.8-5.77-5.16-11-6.5-.41-.11-.09-.9-.5-1-2.89-.73-7.15-.35-7.5-.5-.93-.4,1.88-2.11-1.5-3-13.56-.39-25.53-5.2-38.75-5.5-.55-.61-3.38-3.16-4-3.5-1.34-.69-1.33-1,.25-1,5.61,0,58.46,10.72,71.75,12Z"/>
            <path class="cls-34" d="m312.73,161.41c-.06,1.14.69.68,0,3-.24-.24-1.65-.75-2.5-1.5-4.41-3.91-9.25-6.64-14-10-.15-.11-.8-.84-1-1,1.36-.24,2.56-1.51,2.75-1.5.92.03,12.68,9.96,14.75,11Z"/>
            <path class="cls-20" d="m282.98,147.41c1.01.32,2.7,3.41,2.75,3.75.54,3.99-3.7-1.3-2.75-3.75Z"/>
            <path class="cls-34" d="m295.23,151.91c-.06-.05-.82.26-1.5-.75.97-.88,1.42.76,1.5.75Z"/>
          </g>
        </g>
        <g>
          <path class="cls-36" d="m67.73,141.91c-17.15,10.27-33.92,24.63-39,44.75-1.42,1.04-.92-2.11-2-2.75.19-3.21,1.76-6.13,3-9,3.86-8.94,9.71-14.24,11.5-17.5,2.67-1.73,4.73-5.03,7-7,2.4-2.08,6.73-5.03,9.5-7,1.07-.76,3.59-1.45,3.5-3,1.79.28,6.17,1.5,6.5,1.5Z"/>
          <path class="cls-27" d="m107.73,140.41c.42,1.47-1.3,4.09-2,5.5-2.4,4.85-13.37,23.57-16.5,28.25-7.28,10.88-11.88,14.41-3.5,1l-.75-.75c-9.2.38-23.9,2.81-32.25,2.5l3.5-2.5c2.23.35,29.42-2.22,30.75-3,.88-2.19,10.35-17.41,9.5-18-2.42.38-4.81.74-7.25,1-4.64.49-9.39,1.26-14,2l-4-1.5c9.12-.62,18.17-2.99,27.25-4,3.74-3.4,6.13-10.65,9.25-10.5Z"/>
          <path class="cls-26" d="m107.73,140.41c-3.12-.15-5.51,7.1-9.25,10.5-9.08,1.01-18.13,3.38-27.25,4-4.47.31-7.75,1.71-8.5-1.5,1.55-1.29.61,1.27,1.75,1.5.45.09,1.63-1.28,8.75-2.5.39-.07,1.72,1.25,2,.75.59-1.04-1.45-2.18-1.5-2.5-.71-4.21,3.57.87,4-.25.17,0,.33,0,.5,0,3.37-.13,6.84-1.31,9.5-3,4.58-1.86,6.51,2.48,6-3v-1.5c4.37-.98,8.68-2.5,13-3.5.52.05.87.52,1,1Z"/>
          <path class="cls-36" d="m135.73,132.91c-.76,3.5-5.45,2.82-5.5,3.75-.01.18,1.33.51,1.5.75-3.83,2.14-8.07,3.06-12,5-.24.12-.4-.5-2.5,1-.51.37-1.93,1.88-2,2,.64-1.94-1.76.75-3.75,1-.29.04-4.23-.73-5.75-.5.7-1.41,2.42-4.03,2-5.5-.13-.48-.48-.95-1-1,9.65-2.23,19.43-3.91,29-6.5Z"/>
          <path class="cls-36" d="m90.23,155.91c.07.77-3.62,9.12-4.75,9.5-4.99-.29-13.73,1.91-13.75,0,3.75-3.47-2.51-6.59,18.5-9.5Z"/>
          <path class="cls-34" d="m63.23,164.41c1.17.07,1.37-.17,2-1,.26,2.3,3.38-.22,5,1,.15.46.05.94.5,1.5-.05.03,0,.45-.75,1-7.22-.52-18.45,3.91-21.25-2,1.16-1.11,1.98-2.45,3.75-3.5,13.74-8.17,6.5,2.73,10.75,3Z"/>
          <path class="cls-26" d="m89.23,154.41c-.35,1.26.93.74,1,1.5-21.01,2.91-14.75,6.03-18.5,9.5-.04.04-.69.33-1,.5-.45-.56-.35-1.04-.5-1.5-.52-1.63-.81-4.75-1.25-5-2.94-1.64-3.56,3.75-3.75,4-.63.83-.83,1.07-2,1,.87-9.28,4.86-6.86,12-8,4.61-.74,9.36-1.51,14-2Z"/>
          <path class="cls-28" d="m62.73,153.41c.75,3.21,4.03,1.81,8.5,1.5l4,1.5c-7.14,1.14-11.13-1.28-12,8-4.25-.27,2.99-11.17-10.75-3-1.77,1.05-2.59,2.39-3.75,3.5-.94.9-1.66,2.2-2.75,3-2.5-1.36,14.96-13.91,16.75-15v.5Z"/>
          <path class="cls-44" d="m93.73,142.91v1.5c-6.71-.3-5.69,2.8-6,3-2.66,1.69-6.13,2.87-9.5,3,.52-3.56-2.22-2.24-3.75-4,7.29-.47,14.51-3.73,18-4.5,1.7-.37,1.17,1.02,1.25,1Z"/>
          <path class="cls-44" d="m72.73,148.91l.5,3.5c-7.12,1.22-8.3,2.59-8.75,2.5-1.14-.23-.2-2.79-1.75-1.5v-.5c4.36-2.67,4.67-3.17,10-4Z"/>
          <path class="cls-15" d="m77.73,150.41c-.43,1.12-4.71-3.96-4,.25.05.32,2.09,1.46,1.5,2.5-.28.5-1.61-.82-2-.75l-.5-3.5c1.04-.16,4.52-3.08,5,1.5Z"/>
          <path class="cls-30" d="m114.73,146.41c.09-.36.32-.68.5-1,.07-.12,1.49-1.63,2-2,3.97-.39-1.58,5.59-2.5,3Z"/>
          <g>
            <path class="cls-26" d="m139.73,130.41c-1.61.51-2.57,1.73-4,2.5-9.57,2.59-19.35,4.27-29,6.5-4.32,1-8.63,2.52-13,3.5-.08.02.45-1.37-1.25-1-3.49.77-10.71,4.03-18,4.5,1.53,1.76,4.27.44,3.75,4-.17,0-.33,0-.5,0-.48-4.58-3.96-1.66-5-1.5-5.33.83-5.64,1.33-10,4-1.79,1.09-19.25,13.64-16.75,15,1.09-.8,1.81-2.1,2.75-3,2.8,5.91,14.03,1.48,21.25,2,.75-.55.7-.97.75-1,.31-.17.96-.46,1-.5.02,1.91,8.76-.29,13.75,0,1.13-.38,4.82-8.73,4.75-9.5-.07-.76-1.35-.24-1-1.5,2.44-.26,4.83-.62,7.25-1,.85.59-8.62,15.81-9.5,18-1.33.78-28.52,3.35-30.75,3-3.87-.61-1.87-4.76-6.5,2.25.38.49,2.32.22,3,.25,8.35.31,23.05-2.12,32.25-2.5l.75.75c-8.38,13.41-3.78,9.88,3.5-1,3.13-4.68,14.1-23.4,16.5-28.25,1.52-.23,5.46.54,5.75.5,1.99-.25,4.39-2.94,3.75-1-.18.32-.41.64-.5,1-.96,3.86,5.68,2.22,5-4,3.93-1.94,8.17-2.86,12-5,.1.14.94-.46,1,.75.08,1.71-7.84,11.14-9,32.75-.28,5.15-.46,6.38.5,11.5,1.94,10.35,9.92,22.72,18.5,29,1.08,2.64,3.22,5.27,4,8,4.73,16.61,8.01,65.68,10.5,86-1.53.02-1.89-.64-2.25-.5-1.64,1.18-.07,2.07-.25,3-2.15-.29.2-2.21-2.5-.5,2.01-9.12-4.23-59.71-7.5-70.25-4.33-13.97-21.88-35.92-30.75-48.75-16.02,1.98-57.28,2.91-68.25,5-3.9-2.23-3.9,2.49-7.5,1-.94-.53-1.98-.72-3-1-.67-.18-3.34-.92-3.5-1-4.69-2.34-5.31-3.23-5-8.5,1.08.64.58,3.79,2,2.75,5.08-20.12,21.85-34.48,39-44.75,5.47.05,66.58-12.56,71.75-12.5.33,0,.27.62.25,1Z"/>
            <g>
              <path class="cls-10" d="m38.23,178.91l5-1.5c-1.14,1.79,1.84,1.74,1,3.75-.88,2.1-9.86,4.24-6-2.25Z"/>
              <path class="cls-3" d="m106.23,155.41c5.99,1.98,7.42-5.61.5-2,2.21-4.55,7.5-.62,7.5.75,0,1.8-6.7,5.33-8,1.25Z"/>
              <path class="cls-15" d="m108.48,167.91c4.08,2.71-10.72,4.82-7.5,1.5.27-.27,7.18-1.71,7.5-1.5Z"/>
              <path class="cls-49" d="m56.23,174.41l-3.5,2.5c-.68-.03-2.62.24-3-.25,4.63-7.01,2.63-2.86,6.5-2.25Z"/>
              <path class="cls-28" d="m106.23,155.41c-.51-1.6.46-1.91.5-2,6.92-3.61,5.49,3.98-.5,2Z"/>
              <path class="cls-8" d="m119.73,142.41c.68,6.22-5.96,7.86-5,4,.92,2.59,6.47-3.39,2.5-3,2.1-1.5,2.26-.88,2.5-1Z"/>
              <path class="cls-7" d="m43.23,177.41l-5,1.5c.64-1.07,4.13-2.7,5-1.5Z"/>
            </g>
          </g>
          <path class="cls-15" d="m93.73,144.41c.51,5.48-1.42,1.14-6,3,.31-.2-.71-3.3,6-3Z"/>
          <path class="cls-44" d="m70.23,164.41c-1.62-1.22-4.74,1.3-5-1,.19-.25.81-5.64,3.75-4,.44.25.73,3.37,1.25,5Z"/>
        </g>
        <g>
          <g>
            <path class="cls-14" d="m211.23,243.41c-1.22,6.07-7.54,58.22-7.5,61.5-.64.07-1.38-.11-2,0-.67-.02-.69-2.96-.5-4.25,1.99-13.59,2.79-27.15,4.5-40.75.63-5,1.22-10.02,2-15,3.55,4.7,1.31-.81,3.5-1.5Z"/>
            <path class="cls-14" d="m204.23,248.41c-2.12,18.8-3.65,37.67-5.5,56.5-14.11.62-22.93.67-37,.5-.92-.01-1.07.51-2,.5-.17,0-.33,0-.5,0,.43-4.07-.63-8-1-12l40.25.5c1.82-1.68,3.26-39.53,4.75-45.75.09-.37.66-.25,1-.25Z"/>
            <path class="cls-22" d="m153.73,246.91c1.86,15.65,3.05,31.31,4.5,47,.37,4,1.43,7.93,1,12-.4,0-.45-.53-1.5-.5-.17,0-.33,0-.5,0-2.49-20.32-5.77-69.39-10.5-86,1.25.54,3.98,2.01,4.5,3.25.47,1.13,2.07,20.63,2.5,24.25Z"/>
            <g>
              <path class="cls-18" d="m159.23,305.91c.17,0,.33,0,.5,0,.67,4.61,1.48,14.73,3,18.5,3.23,7.99,31.08,5.44,33,1.5l1,.5c-.81,1.53-1.93,3.23-3.5,4-.9.44-5.14,1.29-6.5,1.5-4.98.76-18.56.73-22.5-2-2.27-1.57-2.76-4.6-3.5-7-1.77-5.73-2.02-11.64-3-17.5,1.05-.03,1.1.5,1.5.5Z"/>
              <path class="cls-32" d="m161.73,305.41c6.55,3.37,33.36.44,35.5,1-3.43,17.11,2.38,23.02-22.75,21-3.95-.32-8.03-1.65-11.75-3-1.52-3.77-2.33-13.89-3-18.5.93,0,1.08-.51,2-.5Z"/>
              <path class="cls-34" d="m195.73,325.91c-1.92,3.94-29.77,6.49-33-1.5,3.72,1.35,7.8,2.68,11.75,3,25.13,2.02,19.32-3.89,22.75-21,1.33-.17.88.4,1,1.25.12.91-2.1,17.42-2.5,18.25Z"/>
              <path class="cls-15" d="m198.73,304.91c1.89-.08,1.42.5,1.5.5-.5,6.17-.6,15.56-3.5,21l-1-.5c.4-.83,2.62-17.34,2.5-18.25-.12-.85.33-1.42-1-1.25-2.14-.56-28.95,2.37-35.5-1,14.07.17,22.89.12,37-.5Z"/>
            </g>
            <path class="cls-37" d="m205.73,259.91c-1.71,13.6-2.51,27.16-4.5,40.75-.19,1.29-.17,4.23.5,4.25-.08.01.48.41-1.5.5-.08,0,.39-.58-1.5-.5,1.85-18.83,3.38-37.7,5.5-56.5.02-.16-.02-.34,0-.5,1.09-9.57,2.25-19.14,3-28.75.88-2.09,2.42-2.25,3.5-3.25-1.46,11.06-5.95,30.87-6,40.75,0,.21.59,3.02,1,3.25Z"/>
            <path class="cls-39" d="m207.73,244.91c-.78,4.98-1.37,10-2,15-.41-.23-1-3.04-1-3.25.05-9.88,4.54-29.69,6-40.75,7.83-7.26,1.46,2.18-1.5,17.75-.7,3.69-.92,7.54-1.5,11.25Z"/>
            <g>
              <path class="cls-14" d="m204.23,247.91c-.02.16.02.34,0,.5-.34,0-.91-.12-1,.25-1.49,6.22-2.93,44.07-4.75,45.75l-40.25-.5c-1.45-15.69-2.64-31.35-4.5-47,3.87-.97,4.25,2.59,13.25,3.5,2.49.25,25.21.31,26.5,0,1.67-.41,6.23-6.12,9.5-5,.75-.51-.49-2.43,1-2.5.25-.01-1.03,4.45.25,5Z"/>
              <g>
                <path class="cls-49" d="m185.98,252.91c6.94-3.08,7.61,5.56,5.5,6.5-6.94,3.08-7.61-5.56-5.5-6.5Z"/>
                <path class="cls-49" d="m168.48,252.91c.5-.18,4.93.03,5.25.75,3.08,6.92-7.1,5.56-7.5,5-.2-.28.12-4.98,2.25-5.75Z"/>
                <path class="cls-38" d="m167.48,263.41c1.02-.73,9.64-.28,6.75,3.75-.22.3-6.47.45-6.75.25-.41-.29-.41-3.71,0-4Z"/>
                <path class="cls-49" d="m169.48,280.91c5-2.22,6.04,4.09,4,5-4.67,2.08-6.2-4.02-4-5Z"/>
                <path class="cls-38" d="m185.48,280.91c3.56-2.54,6.86,3.74,4,5-5.15,2.28-4.85-4.4-4-5Z"/>
                <path class="cls-38" d="m184.98,263.91c.34-.24,8.02-.91,6.25,2.75-1.24,2.56-9.89-.19-6.25-2.75Z"/>
              </g>
            </g>
          </g>
          <g>
            <path class="cls-34" d="m139.73,179.41c1,3.59,3.88,7.9,6,11,7.18,10.52,18.17,17.73,31,18.5-2.01,3.96,12.53,5.89,15.25,6,7.04.29,14.3-1.85,21.25-2.5-1.42,1.13-6.84,5.78-7.25,6-13.34,7.23-40.2,6.23-53.5-1-2.61-1.42-5.18-4.36-7.5-6-.28-.2-1.98.2-2.25,0-8.58-6.28-16.56-18.65-18.5-29l15.5-3Z"/>
            <path class="cls-29" d="m219.23,130.91c.62.34,3.45,2.89,4,3.5.91,1.02,1.79,2.33,2.5,3.5.16.27,1.1,2.2,1.5,3,4.26,8.5,7.46,22.02,7.5,31.5-.79,1.72-3.74-.14-6.75.5-2.6.55-4.89,3.66-7.75,2.5,2.68-20.75-8.29-39.93-28.5-46-4.53-1.36-6.79-1.21-10.5-2-5.13-1.1-4.01-1.43-4.25-1.5-.31-.09-4.03,1.74-3.75-3,15.51-.62,30.82,1.51,44.75,8.5.3.15,1.31.13,1.25-.5Z"/>
            <path class="cls-41" d="m228.23,196.41c-5.58,1.21-10.36,5.49-15.75,7-3.19.89-12.85,2.44-12.25.5,10.86-5.79,18.42-16.25,20-28.5,2.86,1.16,5.15-1.95,7.75-2.5,3.01-.64,5.96,1.22,6.75-.5.04,9.65-1.6,15.69-6.5,24Z"/>
            <path class="cls-32" d="m228.23,196.41c-3.9,6.62-9.06,11.3-15,16-6.95.65-14.21,2.79-21.25,2.5-2.72-.11-17.26-2.04-15.25-6,8.78.52,15.73-.86,23.5-5-.6,1.94,9.06.39,12.25-.5,5.39-1.51,10.17-5.79,15.75-7Z"/>
            <path class="cls-41" d="m173.23,122.91c-.28,4.74,3.44,2.91,3.75,3,.24.07-.88.4,4.25,1.5-20.79-1.01-39.47,12.47-42.5,33.5l-15,10c1.16-21.61,9.08-31.04,9-32.75-.06-1.21-.9-.61-1-.75-.17-.24-1.51-.57-1.5-.75.05-.93,4.74-.25,5.5-3.75,1.43-.77,2.39-1.99,4-2.5,13.21-4.19,18.01-6.88,33.5-7.5Z"/>
            <path class="cls-32" d="m139.73,179.41l-15.5,3c-.96-5.12-.78-6.35-.5-11.5l15-10c-.85,5.89-.61,12.75,1,18.5Z"/>
            <path class="cls-8" d="m181.23,127.41c3.71.79,5.97.64,10.5,2l1.75,1.5-10.25-1.25c14.84.97,29.24,12.15,33.5,26.5.02.06-.67.36-.5,1,.04.16,1.47,1.83,1.5,2,.49,2.87.94,15.24.5,17.5-.02.1-1.18.35-1.5,1.5-1.17,4.24-3.26,9.65-6,10-.39,3.15,1.62.53,1.5,2-4.41,2.29-3.96,4.17-5,5.25l-6,1c1.17-1.03,2.01-2.69,3.5-3.5,1.9.29,2.85-4.73,3-5,.07-.13.95.32,2-2.25.54-1.33,1.63-5.18,2-6.75.49-2.1.84-3.82,1-6,2.12-.95,1.07-9.29,2-13.25-3.22-5.28-3.42-8.49-7.5-14.25-8.97-12.65-21.74-14.24-36.25-11-3.16,2.55,13.62-3.03,14.75,1-.06,5.49-5.34-1.41-15,3.5-.2-.68-.26-3.21-.5-3.75-3.05-6.74-17.4,7.33-20.5,10.5-.95,1.71.12,2,0,2.25-.16.33-.33.62-.5,1-.58,1.3-1.56,2.66-2,4-1.01,3.11-2.18,6.76-2.5,10-.02.16.01.33,0,.5-.14,1.82.44,2.69.5,4,.16,3.18-.44,6.39.75,9.5l8.75-2.5c.12.89.26,1.64.5,2.5l-8.25,3c-.39.46.09,2.4.25,3-3.5-2.04-1.52,2.16.5,6l-2,1.5c-2.12-3.1-5-7.41-6-11-1.61-5.75-1.85-12.61-1-18.5,3.03-21.03,21.71-34.51,42.5-33.5Z"/>
            <path class="cls-34" d="m191.73,129.41c20.21,6.07,31.18,25.25,28.5,46-1.58,12.25-9.14,22.71-20,28.5-7.77,4.14-14.72,5.52-23.5,5-12.83-.77-23.82-7.98-31-18.5l2-1.5c6.98,13.23,24.42,20.29,38.75,18,8.31-1.33,15.04-5.56,20.75-11.5,1.04-1.08.59-2.96,5-5.25.12-1.47-1.89,1.15-1.5-2,2.74-.35,4.83-5.76,6-10,.32-1.15,1.48-1.4,1.5-1.5.44-2.26-.01-14.63-.5-17.5-.03-.17-1.46-1.84-1.5-2-.17-.64.52-.94.5-1-4.26-14.35-18.66-25.53-33.5-26.5l10.25,1.25-1.75-1.5Z"/>
            <path class="cls-14" d="m155.23,176.91c1.9,6.7,9.89,14.13,16.5,16v.5l-3.5,9c-6.36-2.41-9.12-4.28-14-10,12.97-13.08-.79-4.31-3-4.5-1.45-.12-3.6-3.53-4-5-.16-.6-.64-2.54-.25-3l8.25-3Z"/>
            <path class="cls-36" d="m147.23,182.91c.4,1.47,2.55,4.88,4,5-1.01.86.89,2.03,3,4.5,4.88,5.72,7.64,7.59,14,10,.18.07-.59.64,3.5,1.5,4.16.87,5.74,1.18,10.5,1,2.17-.08,3.47-.6,5.5-1,4.92-.97,2.87-.62,5.5-2,.91-.48,1.64-.93,2.5-1.5,1.86-1.24,3.82-2.52,5.5-4l6-1c-5.71,5.94-12.44,10.17-20.75,11.5-14.33,2.29-31.77-4.77-38.75-18-2.02-3.84-4-8.04-.5-6Z"/>
            <path class="cls-18" d="m212.73,172.91c.47-6.61.96-7.17-8.5-4.75-.49,10.05-.17,6.23,7,10.75-1.7.19-6.71-2.56-7.75-2-.36.19-2.74,6.52-3.25,7.5-.33-.03-.67.01-1,0,.15-.56.74-.78.5-1.25-.19-.38-1.16-.09-2-.75,4.7-6.61,4.83-16.99,1-24,1.44-2.11.79.42,2.5.5.34.85,3.36,6.94,3.75,7,1.46-.88,7.87-3.48,8.25-4.75.49-1.66-.98-3.78-1.5-5.25-.62-1.76-1.51-3.41-2.5-5-1.25-2.01-1.84-4.4-3.5-3,.1-.11,1.05-2.05,1.5-2.5,4.08,5.76,4.28,8.97,7.5,14.25-.93,3.96.12,12.3-2,13.25Z"/>
            <path class="cls-34" d="m198.23,186.91l6.5,6c-1.49.81-2.33,2.47-3.5,3.5-1.68,1.48-3.64,2.76-5.5,4-2.19-2.24-3.24-7.74-7-6.5-.03-.05-.68.16-.5-1,.71-.22,9.63-5.55,10-6Z"/>
            <path class="cls-34" d="m212.73,172.91c-.16,2.18-.51,3.9-1,6h-.5c-7.17-4.52-7.49-.7-7-10.75,9.46-2.42,8.97-1.86,8.5,4.75Z"/>
            <path class="cls-32" d="m211.23,178.91h.5c-.37,1.57-1.46,5.42-2,6.75-1.05,2.57-1.93,2.12-2,2.25-2.08-.77-5.74-3.35-7.5-3.5.51-.98,2.89-7.31,3.25-7.5,1.04-.56,6.05,2.19,7.75,2Z"/>
            <path class="cls-15" d="m200.23,184.41c1.76.15,5.42,2.73,7.5,3.5-.15.27-1.1,5.29-3,5l-6.5-6c.09-.1.97-2.37,1-2.5.33.01.67-.03,1,0Z"/>
            <path class="cls-32" d="m185.23,139.91c-.77-.03-.39.67-.5,1-1.62-2.07-8.65.9-13.5-1-.01-.05-.1.34-.5-1,9.66-4.91,14.94,1.99,15-3.5.42,1.51-.33,3.13-.5,4.5Z"/>
            <g>
              <path class="cls-44" d="m156.23,151.91c-1.64,6.92-.68,8.58-6.75,12.5-.56-1.75-3.15-1.36-4.75-1.5.32-3.24,1.49-6.89,2.5-10,6.93,3.34,11.28-1.35,2-4,.17-.38.34-.67.5-1,2.14.62,4.79,2.55,6.5,4Z"/>
              <path class="cls-21" d="m147.23,152.91c.44-1.34,1.42-2.7,2-4,9.28,2.65,4.93,7.34-2,4Z"/>
            </g>
            <path class="cls-14" d="m198.73,158.41c3.83,7.01,3.7,17.39-1,24-13.48,18.94-48.26,5.97-38-21.25,7.05-18.69,31.09-17.22,39-2.75Z"/>
            <path class="cls-34" d="m185.23,193.41c1.54-.07,1.69,6.32,2.5,10.5-2.03.4-3.33.92-5.5,1-10.88-1.21-6.1-11.19-10-5,.41-2.75,1.77-5.83-.5-6.5v-.5c4.18,1.18,9.22,1.26,13.5.5Z"/>
            <path class="cls-1" d="m188.23,192.91c-.18,1.16.47.95.5,1,1.54,2.61,2.71,5.53,4.5,8-2.63,1.38-.58,1.03-5.5,2-.81-4.18-.96-10.57-2.5-10.5.87-.15,2.28-.28,3-.5Z"/>
            <path class="cls-31" d="m171.23,141.91c3.09,1.05,12.66,1.46,13.5-1,.11-.33-.27-1.03.5-1-.22,1.84.53,3.8-.75,5.5h-12c-.77-.34-.78-1.95-1.25-3.5Z"/>
            <g>
              <path class="cls-34" d="m202.23,151.91c-.76,2.05,3.98,5.89,6,6.25-2.76,2.44,2.77,5.47,3.5-2.25.52,1.47,1.99,3.59,1.5,5.25-.38,1.27-6.79,3.87-8.25,4.75-.39-.06-3.41-6.15-3.75-7-.61-1.51-1.35-2.78-2-4.25.4-.83,2.88-2.59,3-2.75Z"/>
              <path class="cls-36" d="m209.23,150.91c.99,1.59,1.88,3.24,2.5,5-.73,7.72-6.26,4.69-3.5,2.25-2.02-.36-6.76-4.2-6-6.25.13-.17.37-.84.5-1,2.46,5.48,4.43,3.84,6.5,0Z"/>
              <path class="cls-12" d="m209.23,150.91c-2.07,3.84-4.04,5.48-6.5,0,.93-1.2,2.08-1.94,3-3,1.66-1.4,2.25.99,3.5,3Z"/>
            </g>
            <path class="cls-32" d="m184.73,140.91c-.84,2.46-10.41,2.05-13.5,1-.16-.52.15-1.44,0-2,4.85,1.9,11.88-1.07,13.5,1Z"/>
            <path class="cls-15" d="m154.23,192.41c-2.11-2.47-4.01-3.64-3-4.5,2.21.19,15.97-8.58,3,4.5Z"/>
            <path class="cls-49" d="m172.23,199.91c-.2,1.31-.42,2.67-.5,4-4.09-.86-3.32-1.43-3.5-1.5l3.5-9c2.27.67.91,3.75.5,6.5Z"/>
            <path class="cls-5" d="m182.23,204.91c-4.76.18-6.34-.13-10.5-1,.08-1.33.3-2.69.5-4,3.9-6.19-.88,3.79,10,5Z"/>
            <path class="cls-26" d="m195.73,200.41c-.86.57-1.59,1.02-2.5,1.5-1.79-2.47-2.96-5.39-4.5-8,3.76-1.24,4.81,4.26,7,6.5Z"/>
            <g>
              <path class="cls-26" d="m154.73,174.41l-8.75,2.5c-1.19-3.11-.59-6.32-.75-9.5l7.5-1.25-8-2.75c.01-.17-.02-.34,0-.5,1.6.14,4.19-.25,4.75,1.5,6.07-3.92,5.11-5.58,6.75-12.5.92.78,3.47,1.81,3.5,3.25-3.9,5.82-5.98,12.26-5,19.25Z"/>
              <path class="cls-20" d="m145.23,167.41c-.06-1.31-.64-2.18-.5-4l8,2.75-7.5,1.25Z"/>
              <path class="cls-17" d="m149.98,167.41c3.8-.18,1.99,5.92,1.75,6.25-4.12,5.63-6.43-6.03-1.75-6.25Z"/>
            </g>
            <g>
              <path class="cls-18" d="m170.73,138.91c.4,1.34.49.95.5,1,.15.56-.16,1.48,0,2,.47,1.55.48,3.16,1.25,3.5h12c1.28-1.7.53-3.66.75-5.5.17-1.37.92-2.99.5-4.5-1.13-4.03-17.91,1.55-14.75-1,14.51-3.24,27.28-1.65,36.25,11-.45.45-1.4,2.39-1.5,2.5-.92,1.06-2.07,1.8-3,3-.13.16-.37.83-.5,1-.12.16-2.6,1.92-3,2.75.65,1.47,1.39,2.74,2,4.25-1.71-.08-1.06-2.61-2.5-.5-7.91-14.47-31.95-15.94-39,2.75-10.26,27.22,24.52,40.19,38,21.25.84.66,1.81.37,2,.75.24.47-.35.69-.5,1.25-.03.13-.91,2.4-1,2.5-.37.45-9.29,5.78-10,6-.72.22-2.13.35-3,.5-4.28.76-9.32.68-13.5-.5-6.61-1.87-14.6-9.3-16.5-16-.24-.86-.38-1.61-.5-2.5-.98-6.99,1.1-13.43,5-19.25-.03-1.44-2.58-2.47-3.5-3.25-1.71-1.45-4.36-3.38-6.5-4,.12-.25-.95-.54,0-2.25,3.1-3.17,17.45-17.24,20.5-10.5.24.54.3,3.07.5,3.75Z"/>
              <g>
                <path class="cls-50" d="m198.73,138.91c1.08,5.89-3.53,5.2-7.5,3.5-1.43-.61-1.55-.62-2.5-2,.27-1.2.45-5.11,1.25-5.5,3.27.36,6.13,2.13,8.75,4Z"/>
                <path class="cls-35" d="m191.23,142.41c-3.25,2.78,4.63,2.04,9.5,4.5-5.72,8.45-3.94,3.94-13-.25-.3-2.21.54-4.17,1-6.25.95,1.38,1.07,1.39,2.5,2Z"/>
                <path class="cls-8" d="m200.73,146.91c-4.87-2.46-12.75-1.72-9.5-4.5,3.97,1.7,8.58,2.39,7.5-3.5,1.76,1.26,3.47,2.71,5,4.25.01.24-2.65,3.23-3,3.75Z"/>
                <g>
                  <path class="cls-51" d="m168.73,141.41c-.56-.05-.43.27-.5.5-1.84-.03-5.75,1.31-6,3-2.24.62-5.56,1.05-8,1.5-.27-.32-2-1.38-2-1.75l14.25-10.75c.95.27,2.05,6.33,2.25,7.5Z"/>
                  <path class="cls-34" d="m154.23,146.41c2.44-.45,5.76-.88,8-1.5,2.02-.56,5.24-.4,6-3,.07-.23-.06-.55.5-.5,1.18,6.86.74,6.05-8.25,11-1.96-2.2-4.32-3.74-6.25-6Z"/>
                  <path class="cls-13" d="m168.23,141.91c-.76,2.6-3.98,2.44-6,3,.25-1.69,4.16-3.03,6-3Z"/>
                </g>
              </g>
            </g>
          </g>
        </g>
      </g>
    </g>
  </g>
</svg>