<?xml version="1.0" encoding="UTF-8"?>
<svg id="_Шар_2" data-name="Шар 2" xmlns="http://www.w3.org/2000/svg" xmlns:xlink="http://www.w3.org/1999/xlink" viewBox="0 0 411.91 400.05">
  <defs>
    <style>
      .cls-1 {
        fill: #6f361e;
      }

      .cls-1, .cls-2, .cls-3, .cls-4, .cls-5, .cls-6, .cls-7, .cls-8, .cls-9, .cls-10, .cls-11, .cls-12, .cls-13, .cls-14, .cls-15, .cls-16, .cls-17, .cls-18, .cls-19, .cls-20, .cls-21, .cls-22, .cls-23, .cls-24, .cls-25, .cls-26, .cls-27, .cls-28, .cls-29, .cls-30, .cls-31, .cls-32, .cls-33, .cls-34, .cls-35, .cls-36, .cls-37, .cls-38, .cls-39, .cls-40, .cls-41, .cls-42, .cls-43, .cls-44, .cls-45, .cls-46, .cls-47, .cls-48, .cls-49, .cls-50, .cls-51, .cls-52, .cls-53, .cls-54, .cls-55, .cls-56 {
        stroke-width: 0px;
      }

      .cls-2 {
        fill: #b1b2b5;
      }

      .cls-3 {
        fill: #918a89;
      }

      .cls-4 {
        fill: #cbaf96;
      }

      .cls-5 {
        fill: #232324;
      }

      .cls-6 {
        fill: #5a2a10;
      }

      .cls-7 {
        fill: #9ea0a0;
      }

      .cls-8 {
        fill: #f6f6f7;
      }

      .cls-9 {
        fill: #dbac86;
      }

      .cls-10 {
        fill: #a15d40;
      }

      .cls-11 {
        fill: #90634a;
      }

      .cls-12 {
        fill: #494c45;
      }

      .cls-13 {
        fill: #41535c;
      }

      .cls-14 {
        fill: #707062;
      }

      .cls-15 {
        fill: #4d2e1b;
      }

      .cls-16 {
        fill: #905733;
      }

      .cls-17 {
        fill: #cdd0d4;
      }

      .cls-18 {
        fill: #51585b;
      }

      .cls-19 {
        fill: #a49480;
      }

      .cls-20 {
        fill: #5b6257;
      }

      .cls-21 {
        fill: #421807;
      }

      .cls-22 {
        fill: #110b09;
      }

      .cls-23 {
        fill: #171b17;
      }

      .cls-24 {
        fill: url(#_Градієнт_без_назви_116);
      }

      .cls-25 {
        fill: #aa6c3a;
      }

      .cls-26 {
        fill: #2a5972;
      }

      .cls-27 {
        fill: #794f39;
      }

      .cls-28 {
        fill: #302b26;
      }

      .cls-29 {
        fill: #b27a52;
      }

      .cls-30 {
        fill: #5a7185;
      }

      .cls-31 {
        fill: #1d1006;
      }

      .cls-32 {
        fill: #c2c3b9;
      }

      .cls-33 {
        fill: #303d3e;
      }

      .cls-34 {
        fill: #a7856f;
      }

      .cls-35 {
        fill: #b65948;
      }

      .cls-36 {
        fill: #261007;
      }

      .cls-37 {
        fill: #ebcbb2;
      }

      .cls-38 {
        fill: #d4c3b3;
      }

      .cls-39 {
        fill: #60615e;
      }

      .cls-40 {
        fill: #c1916b;
      }

      .cls-41 {
        fill: #5b6c72;
      }

      .cls-42 {
        fill: #424244;
      }

      .cls-43 {
        fill: #9e725b;
      }

      .cls-44 {
        fill: #b89982;
      }

      .cls-45 {
        fill: #6f7777;
      }

      .cls-46 {
        fill: #a29b92;
      }

      .cls-47 {
        fill: #272c2d;
      }

      .cls-48 {
        fill: #6f8782;
      }

      .cls-49 {
        fill: #44382f;
      }

      .cls-50 {
        fill: #382315;
      }

      .cls-51 {
        fill: #a64530;
      }

      .cls-52 {
        fill: #6b655a;
      }

      .cls-53 {
        fill: #814222;
      }

      .cls-54 {
        fill: #ece6dd;
      }

      .cls-55 {
        fill: #54504d;
      }

      .cls-56 {
        fill: #808787;
      }
    </style>
    <linearGradient id="_Градієнт_без_назви_116" data-name="Градієнт без назви 116" x1="107.34" y1="337.73" x2="99.57" y2="349.37" gradientUnits="userSpaceOnUse">
      <stop offset="0" stop-color="#504f49"/>
      <stop offset="1" stop-color="#282018"/>
    </linearGradient>
  </defs>
  <g id="_Шар_1-2" data-name="Шар 1">
    <g>
      <path class="cls-7" d="m160.85,400.05c-.33,0-.67,0-1,0-3.73-2.66,1.38-3.35,4.5-1.75-.19,1.77-3.79-.37-3.5,1.75Z"/>
      <g>
        <path class="cls-22" d="m375.85,127.05c2.5,7.65,2.28,23.26,9,26.5,1.05,5.88,3.33,12.93,5.5,19,.07.2-.15,1.86,1,4,.11.21-.44.8.75,2,1.73,1.75,9.13,2.23.25,2.75.43,1.76.75,3.45,1,5.25.08.58.94,2.48,1,3,.31,2.88.3,6.05.5,9,.23,3.36.21,6.6.5,10,.31,3.71-.51,7.28.5,11-.86,5.65-1.19,11.34-2,17-.31,2.14-.64,4.37-1,6.5-2.57,15.11-7.03,29.39-13,43.5-4.59,6.84-2.28,4.11,2,4-1.35.74-5.1,1.9-5.5,2.25-.73.64-6.73,12.98-9.5,17-6.42,9.33-15.28,17.79-15.5,19-.24,1.33,1.53,2.61,2.5,3.25-.08.1.08.39,0,.5-7.64-5.93-2.49,4.44-8.5-4-1.39-1.95-2.52-4.04-4-6-1.72-2.27-1.87-3.34-2-3.5.33.04.75-.07,1,0,1.95.58,2.33,3.36,4.25,3,2.96-.55,16.63-21.88,18.75-25.75,18.45-33.56,25-66.65,23-104.75-.5-9.51-1.63-13.07-4-22-4.55-17.11-13.61-44.18-34.5-46-.62-.05-.67-.89-4,0-5.47,1.47-4.26,2.85-4.5,3-.21.13-.57-1.56-3.5,2.5-2.13-4.39-3.37-9.42-5-14,5.64,5.33,3.11,8.12,3.75,8.5,2.94-5.19,7.34-7.33,13.25-7,8.47.47,21.21,10.64,22.5,8.75-.49-1.75-1.75-3.18-2.5-4.75-.45-.94-1.13-2.83-1.5-3.5l2-3c2.73,4.18,5.84,8.21,7.5,13Z"/>
        <path class="cls-8" d="m300.85,26.05c3.27,3.64,8.5,5.64,12.75,8.5,19.81,13.31,37.07,27.41,50.75,47.25l-6,.5,18.25,25.75.75-.75-1-2-15.5-21c7.78-3.95,13.44,6.25,17,12.25.87,1.47,7.89,14.49,7.5,15.25-.69,1.34-3.52-1.93-4-1l3.5,36.5,14.5,11.5c-2.31,8.76,2.34,9.06,4,13.5,1.86,4.97,4.29,15.96,6,21.75-1.41-.89-3.44-4.99-3.75-5-2.56-.1,2.15,7.63,3.25,10.75,1.01,2.87.41,6.48,2.5,5.75-.27,2.49-.93,6.6-1.5,9-3.85-5.7-8.2-13.94-3.25-10.5.34.24,2.13,4.89,1.75.75-.14-1.52-4.22-9.32-5.25-11.75l-6.25,9.75,10.5,18.75c-.21.44-.48,1.68-.5,2.25h-1l-10.5-15.25c-.29-3.4-.27-6.64-.5-10,1.19.34,1.96-.94,2.5-1.75,3.92-5.95,6.94-11.9-3-7.25-.06-.52-.92-2.42-1-3l7.25-1.5c1.04-9.4-.91-8.87-9.25-8.5-1.15-2.14-.93-3.8-1-4,5.96-15.63,3.26-11-5.5-19-6.72-3.24-6.5-18.85-9-26.5,5.47-.31,4.02-4.24,0-12.75-1.4-2.97-4.15-6.48-6-9.25-1.98-2.97-15.53-20.57-17.5-21-.83-2.66,3.61-4.8,3.5-6.25-.06-.8-8.74-11.13-10-12.5-14.63-15.97-47.28-39.79-69.5-33,31.75,14.07,46.62,23.86,70,49.25.63,2.5-5.32-4.12-9.5-8-14.51-13.45-30.08-26.41-49-33-11.82-4.38-19.33-16.2-32.5-17,1.43-2.31,15.65,2.83,17.75,4.5,2.12.13,11.07-7.5,27.75-2Z"/>
        <path class="cls-17" d="m315.85,32.05c16.87,10.47,32.42,22.42,45,38,.16.19.91,2.64,1,2.75,6.73,8.5,10.46,12.76,16.5,22.25l-.5,1.5c-3.56-6-9.22-16.2-17-12.25l15.5,21,1,2-.75.75-18.25-25.75,6-.5c-13.68-19.84-30.94-33.94-50.75-47.25-4.25-2.86-9.48-4.86-12.75-8.5v-.5c4.82,2.29,10.04,4.47,15,6.5Z"/>
        <path class="cls-17" d="m87.85,40.55c-13.94,9.61-53.57,48.92-59.5,63.5v-.5c.48-3.09,1.69-6.69,3-9.5,8.39-18.03,33.3-40.31,49.5-52,.84,3.77,4.15-2.66,7-1.5Z"/>
        <path class="cls-8" d="m411.35,204.55c-.52-3.21-.81-6.76-1-10-2.17-37.54-11.83-67.81-32-99.5-6.04-9.49-9.77-13.75-16.5-22.25-.09-.11-.84-2.56-1-2.75,32.29,35.26,54.96,86.13,50.5,134.5Z"/>
        <path class="cls-3" d="m384.85,289.55c-1.02.21-2.09.49-3,1-4.28.11-6.59,2.84-2-4,6.39-9.52,13.03-18.59,18.5-28.75.18-.34-.03-.8-.5-.75.72-1.1,3.59-3.48,4.5-7,.13-.5.5-.62.5-3,2.11.65,3.24-.7,3.5.75.41,2.34-14.12,37.43-21.5,41.75Z"/>
        <path class="cls-8" d="m118.85,379.55c-5.14,7.9-16.91-6.36-19.25-6-1.56.24.04,1.9-1.5,2-2.44.15-24.17-25.4-26.75-29.5,14.54,13.46,29.91,24.37,47.5,33.5Z"/>
        <path class="cls-8" d="m384.85,289.55c-6.6,5.65-8.77,18.81-14.5,17.75-2.78,6.3,1.79-.06,1,3-.33,1.27-15.53,16.82-17.5,19.5-.07.83.11,2.11,0,2.25-.97-.64-2.74-1.92-2.5-3.25.22-1.21,9.08-9.67,15.5-19,2.77-4.02,8.77-16.36,9.5-17,.4-.35,4.15-1.51,5.5-2.25.91-.51,1.98-.79,3-1Z"/>
        <path class="cls-17" d="m409.85,214.55c-.58,2.43-1.41,4.73-2.5,7l-10.5-18.75,6.25-9.75c1.03,2.43,5.11,10.23,5.25,11.75.38,4.14-1.41-.51-1.75-.75-4.95-3.44-.6,4.8,3.25,10.5Z"/>
        <path class="cls-8" d="m122.85,20.05c-.2.1-.78-.21-1,.25l.5.75c-11.27,6.73-23.67,12.04-34.5,19.5-2.85-1.16-6.16,5.27-7,1.5,12.78-9.22,26.11-17.47,40.5-24l1.5,2Z"/>
        <path class="cls-8" d="m334.35,350.55c-16.2,16.16-14.53,24.55-38,26,13.4-7.48,25.61-17.04,38-26Z"/>
        <path class="cls-8" d="m397.85,257.05c.47-.05.68.41.5.75-5.47,10.16-12.11,19.23-18.5,28.75,5.97-14.11,10.43-28.39,13-43.5,2.58,4.88,4.65,17.77.5,9.25.48,6.83-5.57,11.56-5.5,18.5,3.36-4.56,6.9-9.01,10-13.75Z"/>
        <path class="cls-8" d="m153.85,360.55c-3.84,2.72-7.16,5.94-9.5,10-1.07,1.86-1.34,3.17-2,5-3.33,9.22-4.45,12.59,6.5,16.5-1.23-.37-.93.99-1.25,1-.87.03-11.88-5.74-15.75-7.5v-7.75c1.7,6.86.43,10,7.5,4-.54-7.91,3.64-15.27,10-19.75.19-.14,4.19-2.33,4.5-1.5Z"/>
        <path class="cls-17" d="m223.35.55c-5,2,2.35-.2,1.75,2l-36.5.5c1.36-1.28,5.55.09,4.25-2.5,10.2-.63,20.3-.83,30.5,0Z"/>
        <path class="cls-8" d="m393.85,236.55c.81-5.66,1.14-11.35,2-17,2.18,8.04,11.43,9.37-2,17Z"/>
        <path class="cls-17" d="m409.35,194.05c.29.18.66.42,1,.5.19,3.24.48,6.79,1,10-.03.33.04.67,0,1-2.09.73-1.49-2.88-2.5-5.75-1.1-3.12-5.81-10.85-3.25-10.75.31.01,2.34,4.11,3.75,5Z"/>
        <path class="cls-8" d="m402.85,247.05c0,2.38-.37,2.5-.5,3l-2-10.25c.75-1.54,2.5,4.21,2.5,7.25Z"/>
        <path class="cls-56" d="m407.1,243.05c1.24-.6-.07,2.62-.5,2.5-.68-.19.2-2.35.5-2.5Z"/>
        <path class="cls-2" d="m60.85,92.05c-.52-.03-.99-1.46-3.5-1,.08-1-.48-1.05-.5-1.5-.13-2.85.65-4.11-2.5-9.25,10.89-18.25,33.62-38.16,53.25-46.25,15.87-6.54,13.27-3.89,28.5-1-26.78,9.19-53.01,25.17-68.75,49.25-1.98,3.03-3.39,8.01-6.5,9.75Z"/>
        <path class="cls-7" d="m28.35,104.05c-5.89,14.47,2.04,21.11-2,40.75-2.92,14.21-12.79,26.52-15.5,40.75-7.4.56-5.08-4.2-8-4,.8-24.93,12.3-56.69,25.5-78v.5Z"/>
        <path class="cls-7" d="m300.85,25.55v.5c-16.68-5.5-25.63,2.13-27.75,2-2.1-1.67-16.32-6.81-17.75-4.5-1.07,3.44,2.81,6.65,3,7,5.24,9.55,2.85,4.89-7.75,2.5-4.7-1.06-9.59-1.48-14.25-2.75,12.21-15.41,15.45-13.59,3.75-24.75,25.68,3.75,38.37,9.36,60.75,20Z"/>
        <path class="cls-7" d="m148.35,31.05c-.53.13-1.45-.44-1.5-.5-.22-.31.85-.69.25-1-12.78,2.79-15.29-2.87-24.75-8.5l-.5-.75c.22-.46.8-.15,1-.25,13.85-7.06,34.96-11.99,50.25-15.5-8.98,6.27-13.09,6.78-2.75,15.75l-16.75,4.75c-2.81,1.4-3.55,3.81-5.25,6Z"/>
        <path class="cls-2" d="m10.85,185.55c-1.56,8.18-.91,10.99,2.5,18.75.35,5.86-1.38,11.7-1.5,17.5-.18,8.48,4.89,12.91-3.25,17.75-3.4-15.83-6.26-42.22-5.75-58,2.92-.2.6,4.56,8,4Z"/>
        <path class="cls-1" d="m23.35,166.05c-1.4,4.4-5.48,19.6-6,23.25-.28,1.97.22,4.66,0,6.75-.16,1.53-.39,2.93-.5,4.5-.17,2.42-1.42,17.23-.5,18.25.59.66,2.59-.83,5,2.75,1.13,13.4,1.96,19.5,6,32.5,1.62,5.22,3.9,9.99,6,15,1.04,2.49,1.82,5.04,3,7.5l-4.5-.5c-10.44-24.44-11.44-26.77-15.5-55.75l-1.5.75c-1-19.32,1.31-36.95,7.5-55.25,1.93-5.7,5.02-11.11,7-16.75-.97,5.95-4.19,11.31-6,17Z"/>
        <path class="cls-21" d="m31.85,276.05c7.53,17.62,7.27,19.59,19.5,35.5l-11-7.5c-1.94-3.1-3.78-6.27-5.5-9.5-6.52-12.24-11.91-25.5-15-39-.15-.67-.35-1.29-.5-2-.74-3.47-1.46-7-2-10.5-.87-5.67-2.22-16.52-2.5-22l1.5-.75c4.06,28.98,5.06,31.31,15.5,55.75Z"/>
        <path class="cls-17" d="m183.85,28.05l-.5,2c-4.81.81-20.01,4.21-24.25,5.5-10,3.04-15.73,9.16-21.25,5.75l9-10.75c.05.06.97.63,1.5.5-1.94,2.49-3.21,5.5-5.5,7.75,10.46-4.71,10.26-9.76,23.25-13.75,16.14-4.95,10.22-.99,10.25-.25.08,1.87,5.88,3.19,7.5,3.25Z"/>
        <path class="cls-17" d="m336.85,73.55c-2.64,1.73-4.31-1.58-3.5,2.5-1.42-1.04-2.99-2.09-4.5-3-6.53-7.07,3.55-.12,2.25-3-14.15-8.88-27.96-18.18-42.75-26l-.5-3.5c18.92,6.59,34.49,19.55,49,33Z"/>
        <path class="cls-17" d="m56.85,89.55c.02.45.58.5.5,1.5-.05.62-.53,1.79-.5,2.5-.87.53-.95.95-1,1-3.34,2.81-6.97,7.63-9,11.5-1.63,2.13-3.56,4.23-5,6.5l-7.25,2-.25-.75c9.41-9.05,12.97-21.66,14-22.5.76-.62,3.3,5.12,2-5.5l6.5,3.75Z"/>
        <path class="cls-2" d="m34.85,294.55c-.82,4.31-6.64-5.24-9.5-10.25-4.18-7.31-7.04-15.39-10-23.25.43.01.5-.41,1-.5,2.34-.44,1.15-3.38,3.5-5,3.09,13.5,8.48,26.76,15,39Z"/>
        <path class="cls-2" d="m287.85,40.55l.5,3.5c-.58-.31-7.23-2.46-12.25-5-5.64-2.85-10.92-8.66-17.75-8.5-.19-.35-4.07-3.56-3-7,13.17.8,20.68,12.62,32.5,17Z"/>
        <path class="cls-4" d="m150.35,44.05c-1.27.35-2.65,1.1-4,1.5-19.45,5.84-37.46,15.38-56,23.5-.02-.03-.31.2-.5-.5-.16-.6-.94-.91-.25-1.5,3.16-3.86,52.5-23.3,60.25-25.5l.5,2.5Z"/>
        <path class="cls-7" d="m17.35,243.05c.54,3.5,1.26,7.03,2,10.5-1.27.11-3.59,5.65-3,7-.5.09-.57.51-1,.5-2.28-6.05-5.06-11.9-6.5-18.25l6.75-6.75,1.75,7Z"/>
        <path class="cls-40" d="m192.85,34.55c.4,5.06-3.9,1.62-4,4-13.46.62-25.42,1.91-38.5,5.5l-.5-2.5c12.82-3.64,29.74-6.39,43-7Z"/>
        <path class="cls-36" d="m51.35,311.55c3.77,4.9,7.81,9.55,11.5,14.5-1.07.87-1.53,1.9-3.5,2.5-3.7-5.13-10.95-11.63-19-24.5l11,7.5Z"/>
        <path class="cls-29" d="m216.85,34.55c1.37,1.85,8.68.37,2.5,4.5-8.96-.88-18-1.25-27-1-2.97.08-3.32.49-3.5.5.1-2.38,4.4,1.06,4-4,5.91-.27,18.27-.33,24,0Z"/>
        <path class="cls-40" d="m43.35,131.55c-2.12,4.33-5.5,7.94-8,12-1.39,2.26-3.27,4.36-4.5,6.75-1.6,3.12-5.01,17.37-7.5,15.75,1.81-5.69,5.03-11.05,6-17,1.03-2.94,1.66-4.21,2.5-7.5,3.86-3.62,7.09-6.93,11.5-10Z"/>
        <path class="cls-10" d="m46.35,111.55c-3.02,4.78-8.65,13.55-3.5,10l.5,1.5c-3.65,2.45-6.21,6.27-10,8.5.04-.16-.04-.34,0-.5.7-2.73,4.59-11.92,6-14.5.36-.66,1.88-3.02,2.5-4,1.44-2.27,3.37-4.37,5-6.5-1.28,2.43-3.85,5.08-.5,5.5Z"/>
        <path class="cls-11" d="m226.85,35.55c-1.49,1.03,5.58,1.9,8.5,2.5.46,2.23-1.73,1.96-3,3-4.34-.79-8.6-1.57-13-2,6.18-4.13-1.13-2.65-2.5-4.5,3.27.19,6.73.65,10,1Z"/>
        <path class="cls-28" d="m88.35,74.05l-1.5,1.5c-3.75-2.98-3.99.25-1.5,1.5-.04.13.01.33,0,.5-.01.18-2.26-.29.5,2.25l-.75.75c-6.95-2.56-9.45,1.61-11.75.5,3.89-3.03,7.58-6.34,11.75-9,1.51-.14,2.17,1.36,3.25,2Z"/>
        <path class="cls-17" d="m39.35,116.55c-1.41,2.58-5.3,11.77-6,14.5-2.09,1.88-.67-13.31,3.25-14.5.62-.19,1.91.13,2.75,0Z"/>
        <g>
          <path class="cls-8" d="m192.85.55c1.3,2.59-2.89,1.22-4.25,2.5l36.5-.5c.6-2.2-6.75,0-1.75-2,34.69,2.83,63.2,13.32,92.5,31.5-4.96-2.03-10.18-4.21-15-6.5-22.38-10.64-35.07-16.25-60.75-20,11.7,11.16,8.46,9.34-3.75,24.75,4.66,1.27,9.55,1.69,14.25,2.75,10.6,2.39,12.99,7.05,7.75-2.5,6.83-.16,12.11,5.65,17.75,8.5,5.02,2.54,11.67,4.69,12.25,5,14.79,7.82,28.6,17.12,42.75,26,1.3,2.88-8.78-4.07-2.25,3-1.47-.88-2.94-1.89-4.25-3-4.48,8.06-8.93,16.71-12.25,25.5-1.05-.43-.91-.78-1.5-1l12-24.25c.41-1.51-.92-1.16-1.5-1.75-2.33-2.38-24.09-13.64-25.5-12.75-1,1.66-1.33,4.42-2,5.75-1.38,2.73-2.86,5.42-4.5,8-.11-.06-1.22.22-2-1.5,2.15-4.16,4.5-8.29,7-12.25.05-1.32-2.2-1.09-2.5-1.25-15.11-7.95-47.82-17.19-65-19-3.27-.35-6.73-.81-10-1-5.73-.33-18.09-.27-24,0-13.26.61-30.18,3.36-43,7-7.75,2.2-57.09,21.64-60.25,25.5-.69.59.09.9.25,1.5l-2.5.25c6.97,6.47,25.44,29.03,4.5,8.25-.76-1.39-2.2-2.23-3.5-3-1.08-.64-1.74-2.14-3.25-2-4.17,2.66-7.86,5.97-11.75,9-11.64,9.05,1.98-.83,6.75-1,2.18-.08,9.21,1.94,12.75,6.25,4.62,5.62,1.36,2.19-.75,1.25-9.56-4.25-3.33-1.17-3.5,9-5.79-21.4-21.59-4.12-27.75-4.5,3.11-1.74,4.52-6.72,6.5-9.75,15.74-24.08,41.97-40.06,68.75-49.25-15.23-2.89-12.63-5.54-28.5,1-19.63,8.09-42.36,28-53.25,46.25,3.15,5.14,2.37,6.4,2.5,9.25l-6.5-3.75c1.3,10.62-1.24,4.88-2,5.5-1.03.84-4.59,13.45-14,22.5l.25.75,7.25-2c-.62.98-2.14,3.34-2.5,4-.84.13-2.13-.19-2.75,0-3.92,1.19-5.34,16.38-3.25,14.5-.04.16.04.34,0,.5-.84,3.26-.67,6.72-1.5,10-.84,3.29-1.47,4.56-2.5,7.5-1.98,5.64-5.07,11.05-7,16.75-6.19,18.3-8.5,35.93-7.5,55.25.28,5.48,1.63,16.33,2.5,22l-1.75-7-6.75,6.75c1.44,6.35,4.22,12.2,6.5,18.25,2.96,7.86,5.82,15.94,10,23.25,2.86,5.01,8.68,14.56,9.5,10.25,1.72,3.23,3.56,6.4,5.5,9.5,8.05,12.87,15.3,19.37,19,24.5,2.72,3.77,1.57,3.87-2.5,2.5-16-16.94-26.26-29.05-36.5-50.75C-9.03,218.06-7.63,151.63,31.35,94.05c-1.31,2.81-2.52,6.41-3,9.5C15.15,124.86,3.65,156.62,2.85,181.55c-.51,15.78,2.35,42.17,5.75,58,8.14-4.84,3.07-9.27,3.25-17.75.12-5.8,1.85-11.64,1.5-17.5-3.41-7.76-4.06-10.57-2.5-18.75,2.71-14.23,12.58-26.54,15.5-40.75,4.04-19.64-3.89-26.28,2-40.75,5.93-14.58,45.56-53.89,59.5-63.5,10.83-7.46,23.23-12.77,34.5-19.5,9.46,5.63,11.97,11.29,24.75,8.5.6.31-.47.69-.25,1l-9,10.75c5.52,3.41,11.25-2.71,21.25-5.75,4.24-1.29,19.44-4.69,24.25-5.5,19.44-3.29,31.82-2.52,51.25,0l5.75-7.25c-.5-3-26.28-5.25-21.25-2.25.48.29,4.2-.24,5.5,0,2.7.5,18.28,4.03,8,5.5-6.01.86-15.8-7.7-11.5-1.5l-23.5,1.5-12.5-7-.5,1,8.75,5.75c-.14.91-8.2,2.3-9.5,2.25-1.62-.06-7.42-1.38-7.5-3.25-.03-.74,5.89-4.7-10.25.25-12.99,3.99-12.79,9.04-23.25,13.75,2.29-2.25,3.56-5.26,5.5-7.75,1.7-2.19,2.44-4.6,5.25-6l16.75-4.75c-10.34-8.97-6.23-9.48,2.75-15.75-15.29,3.51-36.4,8.44-50.25,15.5l-1.5-2C143.93,7.81,168.13,2.09,192.85.55Z"/>
          <g>
            <path class="cls-17" d="m242.35,12.55c-3.78.86-9.11-2.31-13.25-3-7.13-1.2-42.42-1.73-45,0-.46.31-.2,1.02-.25,1.5-1.13.14-6.67.1-7,1.25,11.45,14.49,4.91,10.96-6-2,4.66-4.18,10.2-6.51,16.25-7.75v1c-20.3,7.4.03,2.34,9,2,11.71-.45,23.35,1.49,35,1.5.33,0,.78-1.78,3-1.5,3,2.03,5.95,4.16,8.25,7Z"/>
            <path class="cls-2" d="m183.35,30.05l.5-2c1.3.05,9.36-1.34,9.5-2.25l-8.75-5.75.5-1,12.5,7,23.5-1.5c-4.3-6.2,5.49,2.36,11.5,1.5,10.28-1.47-5.3-5-8-5.5-1.3-.24-5.02.29-5.5,0-5.03-3,20.75-.75,21.25,2.25l-5.75,7.25c-19.43-2.52-31.81-3.29-51.25,0Z"/>
            <path class="cls-17" d="m139.6,36.05c5.78.86-20.41,9.53-22.5,10.5-9.67,4.51-18.48,11.79-28.25,16.25,8.22-8.39,29.63-21.85,40.25-24.75,1.14-.31,9.97-2.08,10.5-2Z"/>
            <path class="cls-7" d="m242.35,12.55c.2.25,2.27,1.36,1.75,2-4.73,2.73-8.95-1.16-13.5-2-15.34-2.83-31.26-3.4-46.75-1.5.05-.48-.21-1.19.25-1.5,2.58-1.73,37.87-1.2,45,0,4.14.69,9.47,3.86,13.25,3Z"/>
            <path class="cls-6" d="m291.85,54.55c-.58.92-1.44,1.41-1.5,1.5,0-.34.14-.85-.25-1-18-6.88-35.84-13.1-54.75-17-2.92-.6-9.99-1.47-8.5-2.5,17.18,1.81,49.89,11.05,65,19Z"/>
            <path class="cls-17" d="m45.1,90.05c-2.38,8.15-7.47,15.16-11.5,22.5-2.04-.47,10.78-20.41,11.5-22.5Z"/>
          </g>
        </g>
        <path class="cls-21" d="m386.35,191.55c2,38.1-4.55,71.19-23,104.75-2.12,3.87-15.79,25.2-18.75,25.75-1.92.36-2.3-2.42-4.25-3,2.37-2.66,16.4-21.83,16.5-23.25.06-.89-.6-.7-1.5-1.25,1.96-1.39,9.84-16.18,11.5-19.5,2.58-5.15,9.71-17.31,7-20.5.31-.8.67-2.06,1-3,3.61-10.29,4.28-13.52,5-24.5.1-1.56.95-3.32.5-5,.23-5.42-.51-8.55-.5-9,.15-6.76.62-13.49.5-20.25.8-.29,1.78-.98,2.5-1.25.16-.06.47.62,3.5,0Z"/>
        <path class="cls-21" d="m382.35,169.55c-2.86,6.5.7,14.29.5,22-.72.27-1.7.96-2.5,1.25.12,6.76-.35,13.49-.5,20.25-1.1.45-2.35.37-3.5.5-2.67.31-5.32.72-8,1,8.62-18.77-7.15-21.84,11.5-22.25.51-10.05-1.93-8.75-2-9.25-.09-.65.06-1.34,0-2,.24-6.85-.98-13.49-3-20-4.28-13.82-14.97-29.32-27-37.5,20.89,1.82,29.95,28.89,34.5,46Z"/>
        <path class="cls-1" d="m343.85,123.55c11.58,11.8,22.56,17.66,25.5,35.5-3.76.33-4.56,3.15-6.5,5.5-.44.53-1.01.81-1.5,1.5h-3c.05-.09-.15-.62.5-2,1.72-3.62,6.66-5.2-.5-17.25-2.83-4.76-14.16-15.72-19-20.25.24-.15-.97-1.53,4.5-3Z"/>
        <path class="cls-36" d="m339.35,126.55c4.84,4.53,16.17,15.49,19,20.25,7.16,12.05,2.22,13.63.5,17.25-1.96-12.02-16-20.6-23-35,2.93-4.06,3.29-2.37,3.5-2.5Z"/>
        <path class="cls-11" d="m347.85,123.55c12.03,8.18,22.72,23.68,27,37.5-2.25.67-3.39,3.23-4.5,5-.71-2.24-.61-4.65-1-7-2.94-17.84-13.92-23.7-25.5-35.5,3.33-.89,3.38-.05,4,0Z"/>
        <path class="cls-17" d="m369.85,105.05c1.85,2.77,4.6,6.28,6,9.25,4.02,8.51,5.47,12.44,0,12.75-1.66-4.79-4.77-8.82-7.5-13-1.28-1.95-2.65-4.13-4-6l5.5-3Z"/>
        <path class="cls-1" d="m355.35,294.55c.9.55,1.56.36,1.5,1.25-.1,1.42-14.13,20.59-16.5,23.25-.25-.07-.67.04-1,0-.86-1.05-3.04-3.51-4-4.5,1.97-.1,3.18.5,5-.75.95-.65,11.11-16.83,12.5-19.25.62.62,2.08.29,2.5,0Z"/>
        <path class="cls-7" d="m390.35,172.55c-2.17-6.07-4.45-13.12-5.5-19,8.76,8,11.46,3.37,5.5,19Z"/>
        <path class="cls-21" d="m386.35,191.55c-3.03.62-3.34-.06-3.5,0,.2-7.71-3.36-15.5-.5-22,2.37,8.93,3.5,12.49,4,22Z"/>
        <path class="cls-17" d="m393.35,186.55c-.25-1.8-.57-3.49-1-5.25,8.88-.52,1.48-1-.25-2.75-1.19-1.2-.64-1.79-.75-2,8.34-.37,10.29-.9,9.25,8.5l-7.25,1.5Z"/>
        <path class="cls-2" d="m394.85,198.55c-.2-2.95-.19-6.12-.5-9,9.94-4.65,6.92,1.3,3,7.25-.54.81-1.31,2.09-2.5,1.75Z"/>
        <path class="cls-2" d="m352.35,84.05c-.15-.03-2.87.43-3,.5-1.25-.79-2.03-1.94-3-3-23.38-25.39-38.25-35.18-70-49.25,22.22-6.79,54.87,17.03,69.5,33,1.26,1.37,9.94,11.7,10,12.5.11,1.45-4.33,3.59-3.5,6.25Z"/>
        <path class="cls-7" d="m410.35,194.55c-.34-.08-.71-.32-1-.5-1.71-5.79-4.14-16.78-6-21.75-1.66-4.44-6.31-4.74-4-13.5l-14.5-11.5-3.5-36.5c.48-.93,3.31,2.34,4,1,.39-.76-6.63-13.78-7.5-15.25l.5-1.5c20.17,31.69,29.83,61.96,32,99.5Z"/>
        <path class="cls-17" d="m352.35,84.05c1.97.43,15.52,18.03,17.5,21l-5.5,3c-1.86-2.57-11.2-14.26-13-15.5-.12-1.07-2.02-3-3-4-1.46-1.18.55-3.75,1-4,.13-.07,2.85-.53,3-.5Z"/>
        <path class="cls-17" d="m336.85,73.55c4.18,3.88,10.13,10.5,9.5,8,.97,1.06,1.75,2.21,3,3-.45.25-2.46,2.82-1,4-1.84-1.87-4.03-3.49-5.75-5.5-5.59,2.95-8.45,4.57-1.75-1.25-2.16-2.34-4.96-3.89-7.5-5.75-.81-4.08.86-.77,3.5-2.5Z"/>
        <path class="cls-7" d="m90.85,228.55c-.59.75-2.56.82-3.5,1-5.04.99-12.66,3.82-10.25,5.5-12.3,4.22-1.63.56-.75,2.75-1.23,2.71.02,4.75.5,7.25.61,3.16-.13,3.97.5,5.75,11.43,17.06,24.63,33.21,42,44.5.86,5.54,2.49,10.97,5,16l-9.5,12.25c-3.43.5-8.12,1.11-11.5,1-1.53-.05-1.87.65-2.25.5-2.78-7.81-10.78-9.89-17-14.5l-9.75,8h-1c1.61-1.87,3.31-3.71,5-5.5.86-.91,4.64-2.88,4.5-4.25-10.97-11.72-20.32-24.86-26.5-39.75-3.51-8.47-8.05-19.33-5-28.5,14.94-1.57,11.8-4.75,18.75-9.5,1.91-1.3,4.14-2.1,6.25-3,4.85.09,9.65.36,14.5.5Z"/>
        <path class="cls-36" d="m50.35,216.55c-.25.65.5,1.71-.75,2.5l-12.5,2c-3.63,3.24,9.41,38.02,10.25,44.25,6.62,10.62,4.04.54,9,3.75,6.18,14.89,15.53,28.03,26.5,39.75.14,1.37-3.64,3.34-4.5,4.25l-3-.5c.6-.96,1.31-1.38,1-2.75-.26-1.14-11.6-13.19-15-18-5.65-7.99-14.4-24.96-15.5-26-.41-.39-3.56-1.7-4.5-1.75-5.38-13.37-13.67-34.32-10.75-48l19.75.5Z"/>
        <path class="cls-21" d="m75.35,312.55c-.24.38-3.03,2.41-3.5,3-4.36-4.7-4.77-3.76-5-4-1.18-1.23-9.37-12.11-12-15.5,3.25-.49-4.71-11.77-7.5-17.75-2.17-4.66-4.08-9.48-6-14.25.94.05,4.09,1.36,4.5,1.75,1.1,1.04,9.85,18.01,15.5,26,3.4,4.81,14.74,16.86,15,18,.31,1.37-.4,1.79-1,2.75Z"/>
        <path class="cls-6" d="m36.35,276.55c2.35,4.92,23.51,40.58,26.25,41,1.42.22,5.08-3.37,4.25-6,.23.24.64-.7,5,4-2.98,3.73-5.33,7.51-9,10.5-3.69-4.95-7.73-9.6-11.5-14.5-12.23-15.91-11.97-17.88-19.5-35.5l4.5.5Z"/>
        <path class="cls-6" d="m65.35,174.05c-14.62,20.81-12.41,35.79-15,42.5l-19.75-.5c-2.92,13.68,5.37,34.63,10.75,48,1.92,4.77,3.83,9.59,6,14.25,2.79,5.98,10.75,17.26,7.5,17.75-12.24-15.79-14.18-22.26-18-27.5-2.02-5.35-4.14-10.59-6-16-2.76-8.02-14.38-38.05,0-40,.73-.1,11.26,1.08,14.75.5,1.43-.68,1.7-8.88,2.25-11,1.9-7.32,4.5-13.58,8.5-20,1.85-2.97,4.25-6.33,6.5-9,.04-.04.96-.45,1-.5l1.5,1.5Z"/>
        <path class="cls-38" d="m62.85,173.05c-2.25,2.67-4.65,6.03-6.5,9-5.26,3.54-11.73,5.67-17,9-.62.39-1.41.58-2,1-4.22-.83-8.72.95-13,1.5.58-2.21-.53-2.25,2.5-5,10.76-3.57,17.95-5.11,27.5-11.5,2.7-1.81,5.25-3.78,8-5.5.18.29-.39,1.49.5,1.5Z"/>
        <path class="cls-6" d="m56.35,172.05c.7,0,1.19-.54,3-.5-4.61,1.77-13.1,5.09-17.5,6-4.08.84-8.2,1.75-12.5.5.21-1.9.94-3.69,1.5-5.5,8.51-1.11,16.96-.61,25.5-.5Z"/>
        <path class="cls-1" d="m312.35,159.05l-2.25,7,7.25-6c1.03.2,1.41.98,1.5,1l-2.25,7,6.75-6.5c2.04.53,1.89.97,2,1,.34,2.19-.94,3.92-1,4.5-1.41-4.38-4.6,8.36-9.75.5-7.4,2.34-5.7-.87-10.75-2.5,2.03-2.58,4.32-4.96,7.5-6,.32.05.68-.05,1,0Z"/>
        <path class="cls-15" d="m112.85,156.05c.32-.06.68.05,1,0,1.45.21,2.88,2.08,4,3-14.55-.16-29.44,2.09-44,5v-1c8.39-4.45,24.87-4.87,34.75-5.5,1.09-1.47,2.74-1.24,4.25-1.5Z"/>
        <path class="cls-29" d="m296.35,157.05c-.05.23-.93.98-1,1-4.44,1.65-4.6,3.04-7.5,6.5-.49.58-2.64,1.01-2.5,3.5-1.43-.23-3.08-.77-4.5-1l10-10.5c1.85.12,3.64.38,5.5.5Z"/>
        <path class="cls-1" d="m304.85,158.55c-.1,1.78-.56,4.81-2,6-2.05,1.7-4.01.59-6.5,0,1.18-2.38,3.54-4.11,3-7,1.76.15,3.75.79,5.5,1Z"/>
        <path class="cls-11" d="m62.35,171.55c-2.75,1.72-5.3,3.69-8,5.5-5.07-.48-11.72,2.29-12.5.5,4.4-.91,12.89-4.23,17.5-6,.82.02,2.4-1,3,0Z"/>
        <path class="cls-6" d="m296.35,164.55c-1.24-.29-2.31-.3-3.5-1,2.92-2.44,4.37-7.99-2.5.5-.37.05-.89.78-2.5.5,2.9-3.46,3.06-4.85,7.5-6.5.53,1.13,2.79.95,3.5-.5.17.01.33-.01.5,0,.54,2.89-1.82,4.62-3,7Z"/>
        <path class="cls-11" d="m73.85,164.05c-2.09.96-6.83,7.62-8.5,10l-1.5-1.5c3.5-3.99,5.03-6.87,10-9.5v1Z"/>
        <path class="cls-40" d="m323.35,161.55l-6.75,6.5,2.25-7c.22.05-.16-.71,4.5.5Z"/>
        <path class="cls-40" d="m311.35,159.05c-3.18,1.04-5.47,3.42-7.5,6-.34-.11-1.03.27-1-.5,1.44-1.19,1.9-4.22,2-6,2,.24,4.16.14,6.5.5Z"/>
        <path class="cls-40" d="m317.35,160.05l-7.25,6,2.25-7c1.64.27,3.36.68,5,1Z"/>
        <path class="cls-44" d="m326.85,162.55c.18.06.76.04,2,.5l-4.5,5.5c-.89-1.15-.09-.69,0-1.5.06-.58,1.34-2.31,1-4.5.36.11,0-.5,1.5,0Z"/>
        <path class="cls-29" d="m298.85,157.55c-.71,1.45-2.97,1.63-3.5.5.07-.02.95-.77,1-1,.13,0,.5.33,2.5.5Z"/>
        <path class="cls-21" d="m196.85,42.05c7.33-.12,14.68-.08,22,.5-1.46,3.8,12.48,3.59,16.75,4.5,5.65,1.21,15,5.76,19.75,3.5.61.22,2.42.28,3,.5,9.26,3.51,18.08,8.91,26.5,14-.64,1.01-2.89,6.4-3.75,6.5-43.91-38.75-136.51-27.29-180,9-1.51-.09-1.17-1.44-1.25-1.5,1.03-1.01,1.8-3.11,2-4.5.8-.16,1.07-.98,1.5-1.5,1.16,2.18,10.75-4.91,5.5-5,4.44-3.07,11.68-4.75,8.5-7,9.5-4.15,19.08-7.95,29-11-.31,3.81,9.8-.99,17.25-2.5,8.49-1.72,25.76-3.18,21.75-5,3.91-.27,7.58-.44,11.5-.5Z"/>
        <path class="cls-54" d="m58.35,125.05c-16.15,10.9-27.68,32.72-31,51.5-.69,3.88-1.93,7.9-.5,12-3.03,2.75-1.92,2.79-2.5,5-1.57,6.01-1.29,11.94-2,18-.16,1.35-.34,4.44-1.5,4-1.72-31.33,1.49-43.46,14.5-72,2.5-4.06,5.88-7.67,8-12,6-4.17,7.42-5.29,15-6.5Z"/>
        <path class="cls-38" d="m155.85,47.05c-3.21.79-6.35,2.03-9.5,3-9.92,3.05-19.5,6.85-29,11-.84.37-4.44,1.15-6.25,2-12.33,5.83-8.55,6.56-9.25,11.5-.2,1.39-.97,3.49-2,4.5-2.27-1.69-8.36-7.63-9.5-10,18.54-8.12,36.55-17.66,56-23.5,1.15,2.78,6.96.42,9.5,1.5Z"/>
        <path class="cls-53" d="m290.35,56.05c-.84,1.28-1.66,2.69-2.5,4-9.61-5.01-19.67-9.17-30-12.5-6.23-2.01-12.6-3.59-19-5-2.21-.49-4.24-1.09-6.5-1.5,1.27-1.04,3.46-.77,3-3,18.91,3.9,36.75,10.12,54.75,17,.39.15.25.66.25,1Z"/>
        <path class="cls-1" d="m30.85,172.55c-.56,1.81-1.29,3.6-1.5,5.5-.64-.19-1.86-.77-2-1.5,3.32-18.78,14.85-40.6,31-51.5,13.7-2.19-1.98,3.24-13.5,19.25-5.39,7.49-11.29,19.47-14,28.25Z"/>
        <path class="cls-54" d="m70.35,95.55c-1.35.21-2.74.52-4,1-1.22.46-2.58.69-3.5,1.75,7.91,15.89-8.58-5.98-2,7-8.36.3-13.25,5.74-.75,3.75,2.96,1.16-4.24,4.08-8.25,6.5-4.28,2.58-5.31,3.46-9,6-5.15,3.55.48-5.22,3.5-10,2.95-4.66,9.05-12.7,13.25-16,.97-.76,3.34-.54,2.75-2.5,1.18.23,2.12,1.48,2.25,1.5,2.86.35,7.5-2.45,13.25.25-2.92,2.04-4.93.35-7.5.75Z"/>
        <path class="cls-11" d="m287.85,60.05c-1.04,1.63-1.97,3.36-3,5-8.42-5.09-17.24-10.49-26.5-14-2-1.23-1.35-1.7-.5-3.5,10.33,3.33,20.39,7.49,30,12.5Z"/>
        <path class="cls-6" d="m53.35,118.05l.5-1.5c8.27.56,15.91-5.19,15-14h.5c9.82,18.9-5.15,12.85-16,15.5Z"/>
        <path class="cls-9" d="m62.35,93.05c.59,1.96-1.78,1.74-2.75,2.5-4.2,3.3-10.3,11.34-13.25,16-3.35-.42-.78-3.07.5-5.5,2.94-3.84,6.76-7.12,9-11.5.05-.05.13-.47,1-1,.72-.44,1.64-1.49,1.75-1.5.77-.08,1.85.63,3.75,1Z"/>
        <g>
          <path class="cls-11" d="m318.85,74.05c-.92,1.88-2.07,3.67-3,5.5-5.13-3.45-5.17-3.19-9,1.5-5.63-3.57-12.06-8.77-17.5-11.5,1.64-2.58,3.12-5.27,4.5-8,4.32,2.08,8.69,4.46,12.75,7,6.68,4.18,9.94,9.45,12.25,5.5Z"/>
          <path class="cls-53" d="m321.35,68.55c-.51,1.95-1.62,3.71-2.5,5.5-2.31,3.95-5.57-1.32-12.25-5.5-4.06-2.54-8.43-4.92-12.75-7,.67-1.33,1-4.09,2-5.75,1.41-.89,23.17,10.37,25.5,12.75Z"/>
          <path class="cls-1" d="m289.35,69.55c5.44,2.73,11.87,7.93,17.5,11.5,2.14,1.36,4.46,2.46,6.5,4-.55.94-.94,2.22-1.5,3-4.18-.93-19.38-14.33-21.75-14.5-1.96-.14-2.4,3.72-5.75.5.93-2.07,1.96-3.99,3-6,.78,1.72,1.89,1.44,2,1.5Z"/>
          <path class="cls-21" d="m311.85,88.05c-.73,1.02-1.25,2.18-2.25,3-2.82.7-23.22-9.44-22.5-15-6.16,4.97-5.06,3.17-2.75-2,3.35,3.22,3.79-.64,5.75-.5,2.37.17,17.57,13.57,21.75,14.5Z"/>
          <path class="cls-4" d="m315.85,79.55c-.9,1.77-1.47,3.75-2.5,5.5-2.04-1.54-4.36-2.64-6.5-4,3.83-4.69,3.87-4.95,9-1.5Z"/>
        </g>
        <path class="cls-43" d="m51.85,115.55c.87.39.8.92,2,1l-.5,1.5c-1.89.46-8.18,3.78-10,5l-.5-1.5c3.69-2.54,4.72-3.42,9-6Z"/>
        <path class="cls-13" d="m70.35,95.55c3.11,3.67,4.02,4.9-1,7h-.5c-.25-2.47-1.98-3.8-2.5-6,1.26-.48,2.65-.79,4-1Z"/>
        <g>
          <path class="cls-22" d="m284.85,65.05c1.03-1.64,1.96-3.37,3-5,.84-1.31,1.66-2.72,2.5-4,.06-.09.92-.58,1.5-1.5.3.16,2.55-.07,2.5,1.25-2.5,3.96-4.85,8.09-7,12.25-1.04,2.01-2.07,3.93-3,6-2.31,5.17-3.41,6.97,2.75,2-.72,5.56,19.68,15.7,22.5,15,1-.82,1.52-1.98,2.25-3,.56-.78.95-2.06,1.5-3,1.03-1.75,1.6-3.73,2.5-5.5.93-1.83,2.08-3.62,3-5.5.88-1.79,1.99-3.55,2.5-5.5.58.59,1.91.24,1.5,1.75l-12,24.25c-.06-.02-.07.95-1.25.5-5.96-2.28-12.88-3.3-17.75-7-3.96-3.14-8.02-6.12-12.5-8.5-1.06-.56-1.43-.46-1.5-.5-12.83-6.53-30.35-12.08-44.5-14.5-2.5-.43-4.99-.69-7.5-1-11.95-1.47-23.02-1.59-35-.5-19.58,1.78-40.86,6.52-58.25,16-6.53,3.56-12.1,8.95-19,12-6.87,3.04-14.5,3.88-21.25,7.5-1.45.78-1.76,1.1-3,2-5.37,3.91-5.6,4.77-8.5,10.5-3.2,6.33-4.72,13.5-8,19.75-7.32,13.95-28.9,29.06-16.5,41.25-8.54-.11-16.99-.61-25.5.5,2.71-8.78,8.61-20.76,14-28.25,11.52-16.01,27.2-21.44,13.5-19.25-7.58,1.21-9,2.33-15,6.5-4.41,3.07-7.64,6.38-11.5,10,.83-3.28.66-6.74,1.5-10,3.79-2.23,6.35-6.05,10-8.5,1.82-1.22,8.11-4.54,10-5,10.85-2.65,25.82,3.4,16-15.5,5.02-2.1,4.11-3.33,1-7,2.57-.4,4.58,1.29,7.5-.75-5.75-2.7-10.39.1-13.25-.25-.13-.02-1.07-1.27-2.25-1.5-1.9-.37-2.98-1.08-3.75-1-.11.01-1.03,1.06-1.75,1.5-.03-.71.45-1.88.5-2.5,2.51-.46,2.98.97,3.5,1,6.16.38,21.96-16.9,27.75,4.5.17-10.17-6.06-13.25,3.5-9,2.11.94,5.37,4.37.75-1.25-3.54-4.31-10.57-6.33-12.75-6.25-4.77.17-18.39,10.05-6.75,1,2.3,1.11,4.8-3.06,11.75-.5l.75-.75c-2.76-2.54-.51-2.07-.5-2.25,2.95,6.81,5.39,4.68-.25-2-.82.61.38,1.11.25,1.5-2.49-1.25-2.25-4.48,1.5-1.5.45.36,3.89,5.57,5,1.5,20.94,20.78,2.47-1.78-4.5-8.25l2.5-.25c.19.7.48.47.5.5,1.14,2.37,7.23,8.31,9.5,10,.08.06-.26,1.41,1.25,1.5,43.49-36.29,136.09-47.75,180-9,.86-.1,3.11-5.49,3.75-6.5Z"/>
          <path class="cls-20" d="m91.85,77.05c-1.11,4.07-4.55-1.14-5-1.5l1.5-1.5c1.3.77,2.74,1.61,3.5,3Z"/>
          <path class="cls-17" d="m78.6,95.55c1.05.75,1.02,2.06,1.5,3,4.93,9.73,2.54,9.13-1.75-2.75l.25-.25Z"/>
          <path class="cls-8" d="m85.35,77.55c.01-.17-.04-.37,0-.5.13-.39-1.07-.89-.25-1.5,5.64,6.68,3.2,8.81.25,2Z"/>
        </g>
        <g>
          <path class="cls-22" d="m336.85,105.05c-.14.2-.84,2.27-1,2.5-1.58,2.35-3.63,4.48-5,7-.66-1.87-5.37-11.14-5-12.25l9.75-5.25,1.25,8Z"/>
          <g>
            <path class="cls-22" d="m328.85,73.05c1.51.91,3.08,1.96,4.5,3,2.54,1.86,5.34,3.41,7.5,5.75-6.7,5.82-3.84,4.2,1.75,1.25,1.72,2.01,3.91,3.63,5.75,5.5.98,1,2.88,2.93,3,4-.43-.29-1.11-.95-1.5-1-.31-1.24-1.73,1.3-2,1.5-3.45,2.6-6.36,6.11-9,9.5-4.24-9.25-.13-3.85,4-6.75-7.02-3.1-12.99,2.18-18.75,6.25-1.12-.41-2.17-.99-3.25-1.5-.16-.08-1.26-1.11-3-2-1.98-1.01-2.81-1.89-5.5-3,3.32-8.79,7.77-17.44,12.25-25.5,1.31,1.11,2.78,2.12,4.25,3Z"/>
            <path class="cls-8" d="m323.85,90.55c.42-.79,2.52-3.05,2.5-3.25-.1-.97-4.99-2.7-6-3.75.66-.5,10.58-1.29,11-.75-.43,1.81-11.98,18.28-12,15,1.98-2.14,3.14-4.73,4.5-7.25Z"/>
            <path class="cls-47" d="m323.85,90.55c-4.68.51-7.63-3.86-3.5-7,1.01,1.05,5.9,2.78,6,3.75.02.2-2.08,2.46-2.5,3.25Z"/>
          </g>
        </g>
        <path class="cls-27" d="m36.85,268.55c3.82,5.24,5.76,11.71,18,27.5,2.63,3.39,10.82,14.27,12,15.5.83,2.63-2.83,6.22-4.25,6-2.74-.42-23.9-36.08-26.25-41-1.18-2.46-1.96-5.01-3-7.5,1.86-.85,2.4-.12,1.75-2.5.51-.21,1.44,1.58,1.75,2Z"/>
        <path class="cls-44" d="m31.85,208.05c-.4,1.43-.49,3.06-1,4.5-14.38,1.95-2.76,31.98,0,40l-3.5,1.5c-4.04-13-4.87-19.1-6-32.5-.17-2.02-.39-3.97-.5-6,1.16.44,1.34-2.65,1.5-4,4.46-6.93,8.03-14.6,15-19.5.59-.42,1.38-.61,2-1-2.71,5.6-5.81,10.95-7.5,17Z"/>
        <path class="cls-10" d="m20.85,215.55c.11,2.03.33,3.98.5,6-2.41-3.58-4.41-2.09-5-2.75-.92-1.02.33-15.83.5-18.25,4.35,1.63,2.59-2.63.5-4.5.22-2.09-.28-4.78,0-6.75.52-3.65,4.6-18.85,6-23.25,2.49,1.62,5.9-12.63,7.5-15.75,1.23-2.39,3.11-4.49,4.5-6.75-13.01,28.54-16.22,40.67-14.5,72Z"/>
        <path class="cls-43" d="m36.85,268.55c-.31-.42-1.24-2.21-1.75-2,.65,2.38.11,1.65-1.75,2.5-2.1-5.01-4.38-9.78-6-15l3.5-1.5c1.86,5.41,3.98,10.65,6,16Z"/>
        <path class="cls-10" d="m16.85,200.55c.11-1.57.34-2.97.5-4.5,2.09,1.87,3.85,6.13-.5,4.5Z"/>
        <path class="cls-8" d="m19.35,253.55c.15.71.35,1.33.5,2-2.35,1.62-1.16,4.56-3.5,5-.59-1.35,1.73-6.89,3-7Z"/>
        <path class="cls-11" d="m46.85,106.05c2.03-3.87,5.66-8.69,9-11.5-2.24,4.38-6.06,7.66-9,11.5Z"/>
        <path class="cls-4" d="m192.35,38.05c-.64,2.22,3.96,1.65,4.5,4-3.92.06-7.59.23-11.5.5-10.04.69-19.71,2.1-29.5,4.5-2.54-1.08-8.35,1.28-9.5-1.5,1.35-.4,2.73-1.15,4-1.5,13.08-3.59,25.04-4.88,38.5-5.5.18,0,.53-.42,3.5-.5Z"/>
        <path class="cls-44" d="m219.35,39.05c4.4.43,8.66,1.21,13,2,2.26.41,4.29,1.01,6.5,1.5l1.5,3.5c-7.15-1.6-14.18-2.92-21.5-3.5-7.32-.58-14.67-.62-22-.5-.54-2.35-5.14-1.78-4.5-4,9-.25,18.04.12,27,1Z"/>
        <path class="cls-44" d="m374.85,251.55c-.33.94-.69,2.2-1,3-2.53,6.55-6.27,12.36-9.5,18.5-2.62,4.99-8.86,12.61-11.5,21.5-1.39,2.42-11.55,18.6-12.5,19.25-1.82,1.25-3.03.65-5,.75-.21-.22-1.86-1.5-3-2.5,15.17-18.44,30.58-39.75,34-64l8.5,3.5Z"/>
        <path class="cls-21" d="m379.85,213.05c-.01.45.73,3.58.5,9-14.33,4.53-9.38,4.81-13,11.5-2.7,4.98-3.87,3.94-5,8.5-1.88-4.12,1.13-17.75,4-20.5,2.36-2.26,8.85-4.72,10-8,1.15-.13,2.4-.05,3.5-.5Z"/>
        <path class="cls-4" d="m374.85,251.55l-8.5-3.5c.47-3.34.3-6.66.5-10,3.23-.56,11.71-5.53,11-9,.11-.09.91-1.62,2-2-.72,10.98-1.39,14.21-5,24.5Z"/>
        <path class="cls-27" d="m366.85,275.05c-1.66,3.32-9.54,18.11-11.5,19.5-.42.29-1.88.62-2.5,0,2.64-8.89,8.88-16.51,11.5-21.5,1.8,1.05,2.45-.38,2.5,2Z"/>
        <path class="cls-27" d="m380.35,222.05c.45,1.68-.4,3.44-.5,5-1.09.38-1.89,1.91-2,2-3.22,2.53-7.31,4.35-10.5,7,.1-.81-.07-1.68,0-2.5,3.62-6.69-1.33-6.97,13-11.5Z"/>
        <path class="cls-1" d="m366.85,275.05c-.05-2.38-.7-.95-2.5-2,3.23-6.14,6.97-11.95,9.5-18.5,2.71,3.19-4.42,15.35-7,20.5Z"/>
        <path class="cls-1" d="m361.35,166.05c-1.12,1.58-4.51,6.97-4.5,8.5.02,5.1,16.57,9.39,21,8.5.07.5,2.51-.8,2,9.25-18.65.41-2.88,3.48-11.5,22.25-3.17.33-10.1.53-12,1,.9-4.1.24-16.94-.5-20.5l13-2.25c-3.2-5.43-10.68-5.96-16.5-6.75-1.19-2.27-6.43-8.63-8.5-11,.45-2.49,3.42.77,5.25,1,5.94.75,4.07-2.25,4.25-2.5,1.21-1.69,2.42-3.19,3.5-5,.43-.72,1.19-1.86,1.5-2.5h3Z"/>
        <path class="cls-36" d="m354.85,216.55c1.48-.45,1.41-.98,1.5-1,1.9-.47,8.83-.67,12-1,2.68-.28,5.33-.69,8-1-1.15,3.28-7.64,5.74-10,8,.96-10.44-10.2-4.13-15.25,2.5l-3.75-6.5c-.86-8.4-2.61-16.55-5.5-24.5-3.55-9.76-4.42-9.19-7.5-14-.29-.46-.61-.9-.5-1.5.45.1,1.02.12,1-.5.37.14.69-.78,1.25-.5,10.68,11.2,12.32,27.5,13.25,42.25.69.71,4.71-2.01,5.5-2.25Z"/>
        <g>
          <path class="cls-38" d="m374.85,161.05c2.02,6.51,3.24,13.15,3,20-7.44-.69-14.11-3.88-21-6.5,0-1.53,3.38-6.92,4.5-8.5.49-.69,1.06-.97,1.5-1.5,7.84,9.25,5.04,5.44,7.5,1.5,1.11-1.77,2.25-4.33,4.5-5Z"/>
          <path class="cls-43" d="m377.85,181.05c.06.66-.09,1.35,0,2-4.43.89-20.98-3.4-21-8.5,6.89,2.62,13.56,5.81,21,6.5Z"/>
        </g>
        <path class="cls-11" d="m370.35,166.05c-2.46,3.94.34,7.75-7.5-1.5,1.94-2.35,2.74-5.17,6.5-5.5.39,2.35.29,4.76,1,7Z"/>
        <g>
          <path class="cls-1" d="m366.35,117.05c.37.67,1.05,2.56,1.5,3.5-1.02,1.09-4.08-1.58-5-2-2.24-5.51-10.82-8.4-16-11.5,1.12-6.92,1.25-7.08,3-13.5,4.97,8.09,11.9,15.19,16.5,23.5Z"/>
          <path class="cls-36" d="m351.35,92.55c1.8,1.24,11.14,12.93,13,15.5,1.35,1.87,2.72,4.05,4,6l-2,3c-4.6-8.31-11.53-15.41-16.5-23.5.15-.54-.09-1.38,0-2,.39.05,1.07.71,1.5,1Z"/>
          <path class="cls-1" d="m342.85,114.55c3.01-.12,3.77.36,5.5.5l-.5,1.5c-5.91-.33-10.31,1.81-13.25,7-.64-.38,1.89-3.17-3.75-8.5-.05-.15.05-.35,0-.5,1.37-2.52,3.42-4.65,5-7l1.75,8.5c1.38-.77,3.71-1.44,5.25-1.5Z"/>
          <path class="cls-21" d="m362.85,118.55c.92.42,3.98,3.09,5,2,.75,1.57,2.01,3,2.5,4.75-1.29,1.89-14.03-8.28-22.5-8.75l.5-1.5c6.13.51,8.55.79,14.5,3.5Z"/>
          <path class="cls-38" d="m343.35,113.55c-.16.41-.45.6-.5,1-1.54.06-3.87.73-5.25,1.5l-1.75-8.5c.16-.23.86-2.3,1-2.5.39-.55,1.42-1.75,2-2.5,2.64-3.39,5.55-6.9,9-9.5-4.99,7.94-3.2,17.11-4.5,20.5Z"/>
          <path class="cls-11" d="m349.85,91.55c-.09.62.15,1.46,0,2-1.75,6.42-1.88,6.58-3,13.5-.73,4.53.61,7.37-3.5,6.5,1.3-3.39-.49-12.56,4.5-20.5.27-.2,1.69-2.74,2-1.5Z"/>
          <path class="cls-53" d="m362.85,118.55c-5.95-2.71-8.37-2.99-14.5-3.5-1.73-.14-2.49-.62-5.5-.5.05-.4.34-.59.5-1,4.11.87,2.77-1.97,3.5-6.5,5.18,3.1,13.76,5.99,16,11.5Z"/>
        </g>
        <path class="cls-7" d="m351.35,231.05l-8,6.25,16,3.75c.03.08.36.06,1,1.25.33,11.83-3.87,22.74-9,33.25-4.71,9.66-15.49,25.69-23.5,32.5-.23.2-.72-.53-.75-.5-4.56,3.85-12.23,8.09-10.75,9.5-6.62,2.24-4.36,3.68-5,6l-12.75.5,2.25,2.5c-.59,0-5.51,1.1-8.25.5-.67-.6-2-1.71-2.75-2-1.32-.51-2.13-1.86-6-2.5-4.74-.78-4.42-.35-8.5,1.5-3.6,1.63-2.23,1.03-4.5,3.5-4.95,5.37-11.51,18.18-19.75,25.5-2.38,1.75-19.75,7.84-23.75,9,3.96-10.29,5.35-31.9,12-33.25-.27-.9-2.24.68-3.25.25-.59-.25.46-.5.25-1.5.74-2.28.97-4.68,1.5-7,2.14,3.01,5.86-3.17,9.5-2.5.17.83-.02,2,1,2.5-3.28,2-12.62,6.95-4.75,8.5,5.57-3.92,38.54-15.45,40.25-17.25,4.91-8.19-.21-2.09-13.25,2.25-.7-.49.26-1.51-.25-3-2.36-6.9-10.1-.26-15-3l13.25-1.5c1.63-1.07-.86-1.35,0-2.5.41-.56,11.81-5.96,12.5-6,.44-.02,6.95,2.13,8.5,2.5,2.45-2.08,1.15-2.87,1.25-3,1.88-2.49,4.73-4.41,3.5-5,.7-.47,11.29-9.62,12.75-11,21.09-19.87,23.34-31.93,38.25-54,.74.08,1.51-.05,2.25,0,1.44,1.1,2.45,2.8,3.75,4Z"/>
        <path class="cls-53" d="m367.35,236.05c-.11.87-.45,1.18-.5,2-.2,3.34-.03,6.66-.5,10-3.42,24.25-18.83,45.56-34,64-.74-.64-1-1.06-1.5-1.5.3-3.28,3.13-5.52,5-8,1.57,1.66,6.55-6.74,6-7.5,3.84-5.44,8.57-13.05,11.5-19,9.78-19.84,7.1-26.36,9-34,1.13-4.56,2.3-3.52,5-8.5-.07.82.1,1.69,0,2.5Z"/>
        <path class="cls-6" d="m353.35,276.05c-2.93,5.95-7.66,13.56-11.5,19-1.79,2.54-4.1,4.98-6,7.5-1.87,2.48-4.7,4.72-5,8-.45-.39-2.2-.75-3-2.5,8.01-6.81,18.79-22.84,23.5-32.5l2,.5Z"/>
        <path class="cls-7" d="m156.35,324.05c5.21,2.14,10.57,3.57,16,5,.01.05.13-.37.5,1,.59,2.16,1.41,4.33,2,6.5,2.22,8.14,3.71,16.51,6.5,24.5-4.33-1.1-8.8-1.93-13-3.5-1.89-.7-5.42-1.69-6-2-2.16-1.16-6.85-5.96-8.5-8-4.07-5.05-9.88-17.71-15-21.5-6.11-4.52-11.39-1.31-18.5-3l13.75-14c6.11,6.8,13.85,11.54,22.25,15Z"/>
        <g>
          <path class="cls-22" d="m266.85,372.55c4.87,11.54,4.15,16.16-8.5,19.5-21.78,5.61-44.28,7.39-66.75,6.5-10.13-.4-33.64-3.25-42.75-6.5-10.95-3.91-9.83-7.28-6.5-16.5,30.35,6.92,67.36,12.69,97.75,4,12.79-3.66,14.16-7.8,15-8,.68-.16,2.52,7.75,11.75,1Z"/>
          <path class="cls-21" d="m266.85,372.55c-9.23,6.75-11.07-1.16-11.75-1-.84.2-2.21,4.34-15,8-30.39,8.69-67.4,2.92-97.75-4,.66-1.83.93-3.14,2-5,.62.09,1.45-.14,2,0,.43.11,1.65.91,4,1.5,5.78,1.46,16.14,3.38,22,4-.89.83.15,1.28,1.25,1.5,10.86,2.19,26.97,3.1,38,2.5,3.47-.19,23.66-2.36,20.75-5,7.33-1.21,15.55-2.34,21.25-7.5,3.78-.73,14.87,10.78,7.25-2-1.15-1.94-2-4.18-4-5.5v-.5c4.58,3.51,7.73,7.61,10,13Z"/>
          <path class="cls-11" d="m264.85,338.05c-3.99,5.79-11.73,13.24-10.5,15-.91.91-2.35,1.23-2,3,.22,1.09,1.63.96,3.5,2,.16.33.93,1.45,1,1.5v.5c-4.65-1.39-21.09,5.07-21.75,6-.53.75,1.02.07.75,1.5-6.21.75-12.4,2.64-18.75,3-9.14.52-18.16-.28-27.25-1-.87-4.35-13.85-3.9-23-8,.48-1.35,1.34-2.53,1.5-4,4.2,1.57,8.67,2.4,13,3.5.12.03-.72.88,2,1.5,9.22,2.11,30.19,2.79,39.25,1,3.74-.74,4.5-1.93,4.75-2,4-1.16,21.37-7.25,23.75-9,8.24-7.32,14.8-20.13,19.75-25.5-.99,4.13-3.63,7.56-6,11Z"/>
          <path class="cls-31" d="m162.35,356.55c.02.07,1.29.06-.25,1.5-1.25,1.17-8.57,5.38-11.75,8-.77.64-3.54,1.43-4,4.5-.55-.14-1.38.09-2,0,2.34-4.06,5.66-7.28,9.5-10,2.65-1.87,5.16-3.54,8.5-4Z"/>
          <path class="cls-11" d="m260.85,365.55c7.62,12.78-3.47,1.27-7.25,2-5.7,5.16-13.92,6.29-21.25,7.5-13.2,2.19-29.57,2.49-43,2,1.32-4.24-4.13,1.62-7.5-7.5.38.11,6.72.91,7.75,1,.4.04.2-1,.25-1,9.09.72,18.11,1.52,27.25,1,6.35-.36,12.54-2.25,18.75-3,8.26-1,16.68-1.65,25-2Z"/>
          <path class="cls-27" d="m181.85,369.55c3.37,9.12,8.82,3.26,7.5,7.5-5.23-.19-11.89-.46-17-1-5.86-.62-16.22-2.54-22-4l4-5.5c6.22.92,12.41,2.15,18.75,2-1.32-1.73-3.19-3-4.75-4.5,2.4-1.39,11.56,4.94,13.5,5.5Z"/>
          <path class="cls-21" d="m232.35,375.05c2.91,2.64-17.28,4.81-20.75,5-11.03.6-27.14-.31-38-2.5-1.1-.22-2.14-.67-1.25-1.5,5.11.54,11.77.81,17,1,13.43.49,29.8.19,43-2Z"/>
          <path class="cls-1" d="m256.85,360.05c2,1.32,2.85,3.56,4,5.5-8.32.35-16.74,1-25,2,.27-1.43-1.28-.75-.75-1.5.66-.93,17.1-7.39,21.75-6Z"/>
          <path class="cls-19" d="m154.35,366.55l-4,5.5c-2.35-.59-3.57-1.39-4-1.5.46-3.07,3.23-3.86,4-4.5,1.38-.15,2.66.3,4,.5Z"/>
          <path class="cls-1" d="m168.35,357.55c-.16,1.47-1.02,2.65-1.5,4-.02.06-1.21-.32-1,.75.15.78,2.05,1.32,2.5,1.75,1.56,1.5,3.43,2.77,4.75,4.5-6.34.15-12.53-1.08-18.75-2-1.34-.2-2.62-.65-4-.5,3.18-2.62,10.5-6.83,11.75-8,1.54-1.44.27-1.43.25-1.5-.07-.28.03-.68,0-1,.58.31,4.11,1.3,6,2Z"/>
          <path class="cls-43" d="m166.85,361.55c9.15,4.1,22.13,3.65,23,8-.05,0,.15,1.04-.25,1-1.03-.09-7.37-.89-7.75-1-1.94-.56-11.1-6.89-13.5-5.5-.45-.43-2.35-.97-2.5-1.75-.21-1.07.98-.69,1-.75Z"/>
        </g>
        <path class="cls-8" d="m311.35,323.05c-.28,1.01-.6,1.93-.75,3-2.22.15-4.54-.21-6.75,0-1.02.1-2.01-.01-3,0l-2.25-2.5,12.75-.5Z"/>
        <g>
          <path class="cls-8" d="m327.85,308.05c.8,1.75,2.55,2.11,3,2.5.5.44.76.86,1.5,1.5,1.14,1,2.79,2.28,3,2.5.96.99,3.14,3.45,4,4.5.13.16.28,1.23,2,3.5l-.5.5c-2.64-3.23-5.88-6.24-9-9-1.15-1.02-2.89-4.2-4.75-4-5.13,4.53-7.43,2.89-5.25,9,1.33,3.74,1.06,2.02,3.5,4.75l-6.25,2.25.25-9.75c-.24-.46-2.47.57-3,.75-1.48-1.41,6.19-5.65,10.75-9.5.03-.03.52.7.75.5Z"/>
          <path class="cls-7" d="m345.35,328.55c-.33,1.14-2.35-2.12-3-3-.84-1.14-1.3-2.26-1.5-2.5l.5-.5c1.48,1.96,2.61,4.05,4,6Z"/>
          <path class="cls-28" d="m315.35,327.05c-5.26,1.43-10.61,5.51-15.75,7.5,6.38.78,24.43-4.96,25.75-5,1.17-.04,6.47,1.24,6.5,2.25-2.84,2.67-6.3,4.58-9.5,6.75-13.23,8.97-28.05,15.52-41.25,24.5-.38.33,3.31,1.89-6.75,5-.63-.94-3.97-4.29-5.5-6.75,3.63-.61,5.36-3.29,8-5.75,5.58-5.2,14.47-13.5,11.5-22,5.94-1.88,15.88-3.12,21.25-5,.39-.14.25-.67.25-1,3.11-.26,5.96-2.4,5.5-.5Z"/>
          <g>
            <path class="cls-22" d="m345.35,328.55c6.01,8.44.86-1.93,8.5,4-4.23,5.58-13.86,12.37-19.5,18-12.39,8.96-24.6,18.52-38,26-5.65,3.15-12.05,6.49-18,9-14.73-.94-4.09-3.72-9.5-14.75-4.5-9.17-9.17-10.62-13-12.75-1.87-1.04-3.28-.91-3.5-2,.65.07,1.37-.1,2,0,3.9.65,7.71,2.33,11,4.5,4.75,3.13,17.27,19.92,9,7.5,10.06-3.11,6.37-4.67,6.75-5,13.2-8.98,28.02-15.53,41.25-24.5,2.52,4.07,14.07-9.07,20-13,.65.88,2.67,4.14,3,3Z"/>
            <path class="cls-8" d="m278.35,385.55c-2.09.88-17.71,6.72-18.75,7-1.3.35-1.18-.52-1.25-.5,12.65-3.34,13.37-7.96,8.5-19.5-2.27-5.39-5.42-9.49-10-13-.07-.05-.84-1.17-1-1.5,3.83,2.13,8.5,3.58,13,12.75,5.41,11.03-5.23,13.81,9.5,14.75Z"/>
            <path class="cls-39" d="m328.35,349.05c-5.85,4.47-11.65,9.39-17.75,13.5-2.03,1.37-2.59.23-3,.5-3.14,2.06-8.75,7.53-13.75,9.75,1.73-1.55,13.79-12.3,14.75-12.25.14,0,.58,1.56,1,1.5,1.12-.17,15.83-11.75,18.25-13.5l.5.5Z"/>
            <path class="cls-7" d="m328.35,349.05l-.5-.5c13.15-9.51,13.88-9.73.5.5Z"/>
            <path class="cls-2" d="m278.6,378.55c5.02,6.63,1.37,5.16.25,2.75-.14-.3-.72-2.61-.25-2.75Z"/>
          </g>
          <path class="cls-22" d="m331.85,314.05c-3.41,2.47-8.67,2.3-10,5-2.18-6.11.12-4.47,5.25-9,1.86-.2,3.6,2.98,4.75,4Z"/>
          <path class="cls-50" d="m300.85,326.05c.99-.01,1.98.1,3,0l-2.25,1.5c2.72-.17,5.54.23,8.25,0,0,.33.14.86-.25,1-5.37,1.88-15.31,3.12-21.25,5-.17-.5-1.04-1.58-1.5-2v-.5c3.15-1.49,1.49-3.57,3-6.5.75.29,2.08,1.4,2.75,2,2.74.6,7.66-.49,8.25-.5Z"/>
          <path class="cls-52" d="m322.85,327.55c.08.03,1.29.84,1.5,1,.06.04.23.92,1,1-1.32.04-19.37,5.78-25.75,5,5.14-1.99,10.49-6.07,15.75-7.5.88-.24,1.68-1.22,2.75-1,4.06,2.84,4.5,1.4,4.75,1.5Z"/>
          <g>
            <path class="cls-22" d="m340.85,323.05c.2.24.66,1.36,1.5,2.5-5.93,3.93-17.48,17.07-20,13,3.2-2.17,6.66-4.08,9.5-6.75-.03-1.01-5.33-2.29-6.5-2.25-.77-.08-.94-.96-1-1l7.25-9.5,4.75,5.75c-2.97-15.58-7.74-3.56-13.5,2.75-.25-.1-.69,1.34-4.75-1.5-1.07-.22-1.87.76-2.75,1,.46-1.9-2.39.24-5.5.5-2.71.23-5.53-.17-8.25,0l2.25-1.5c2.21-.21,4.53.15,6.75,0,.15-1.07.47-1.99.75-3,.64-2.32-1.62-3.76,5-6,.53-.18,2.76-1.21,3-.75l-.25,9.75,6.25-2.25c-2.44-2.73-2.17-1.01-3.5-4.75,1.33-2.7,6.59-2.53,10-5,3.12,2.76,6.36,5.77,9,9Z"/>
            <path class="cls-8" d="m324.35,328.55c-.21-.16-1.42-.97-1.5-1,5.76-6.31,10.53-18.33,13.5-2.75l-4.75-5.75-7.25,9.5Z"/>
            <path class="cls-2" d="m331.1,322.55l-.5,6c-1.71-1.65-.29-4.28.5-6Z"/>
          </g>
        </g>
        <g>
          <path class="cls-38" d="m288.35,333.55c2.97,8.5-5.92,16.8-11.5,22-4.17.45-7.89,2.91-11.5,5-3.29-2.17-7.1-3.85-11-4.5,8.65-5.26,24.52-5.86,29.5-15.75,2.43-4.82,1.56-8.33,3-8.75.46.42,1.33,1.5,1.5,2Z"/>
          <path class="cls-44" d="m286.35,331.05h.5v.5c-1.44.42-.57,3.93-3,8.75-4.98,9.89-20.85,10.49-29.5,15.75-.63-.1-1.35.07-2,0-.35-1.77,1.09-2.09,2-3,.59-.59,3.67-2.43,5.5-4.5,1.38-.26,1.66.51,1.75.5,1.39-.16,22.68-13.87,23.5-15,.58-.79.03-1.95.25-2.75.12-.43,1-.2,1-.25Z"/>
          <path class="cls-54" d="m276.85,355.55c-2.64,2.46-4.37,5.14-8,5.75,1.53,2.46,4.87,5.81,5.5,6.75,8.27,12.42-4.25-4.37-9-7.5,3.61-2.09,7.33-4.55,11.5-5Z"/>
          <path class="cls-16" d="m275.35,323.55c2.38.97-5.04,10.86-8,15l-2.5-.5c2.37-3.44,5.01-6.87,6-11,2.27-2.47.9-1.87,4.5-3.5Z"/>
          <path class="cls-11" d="m267.35,338.55c-2.37,3.32-4.8,6.95-7.5,10-1.83,2.07-4.91,3.91-5.5,4.5-1.23-1.76,6.51-9.21,10.5-15l2.5.5Z"/>
          <path class="cls-29" d="m283.85,322.05c-3.89,5.52,2.45,6.67,2.5,9,0,.05-.88-.18-1,.25-.22.8.33,1.96-.25,2.75-.82,1.13-22.11,14.84-23.5,15-.09.01-.37-.76-1.75-.5,2.7-3.05,5.13-6.68,7.5-10,2.96-4.14,10.38-14.03,8-15,4.08-1.85,3.76-2.28,8.5-1.5Z"/>
          <path class="cls-43" d="m289.85,324.55c-1.51,2.93.15,5.01-3,6.5h-.5c-.05-2.33-6.39-3.48-2.5-9,3.87.64,4.68,1.99,6,2.5Z"/>
        </g>
        <path class="cls-8" d="m76.35,228.05c-2.11.9-4.34,1.7-6.25,3-6.95,4.75-3.81,7.93-18.75,9.5,1.45-4.34,8.8-9.69,12.25-13l-1,7.5,4-7.5c3.25-.45,6.7.44,9.75.5Z"/>
        <path class="cls-5" d="m87.35,229.55c-6.99,4.34-10.63,6.34-10.5,15.5-.48-2.5-1.73-4.54-.5-7.25-.88-2.19-11.55,1.47.75-2.75-2.41-1.68,5.21-4.51,10.25-5.5Z"/>
        <g>
          <path class="cls-24" d="m76.85,321.05c-4.36,4.08-1.43,3.29,0,5,.6.71.75,2.01,1.75,2.5.56.27.88-.64,1.25-.5-.22.98,4.39,4.96,4.75,5,.38.04,4.02-3.09,6.25-4.5,7.22,2.05,14.85,2.66,22,5,.9,3.96,5.95,9.52,9.5,11.5,1.11,1.36,1.73,2.86,3.5,2,1.48,2.96,1.91,3.32,2,3.5,1.13,2.17,2.95,3.94,4,6,.56,1.1,2.46,4.75,2.5,5.25.28,3.54-4.81,9.5-5.75,9.75-6.39,1.71-37.71-21.4-45.5-25l-14.75-16.25c-.57-2.61,6.69-7.94,7-11,.76-.61,1.19,1.48,1.5,1.75Z"/>
          <path class="cls-49" d="m114.85,323.55c1.51-.22,3.42.16,5,0,.32,2.35-.5,3.32-.5,3.5-.11,6.48,3.62,14.25,6.5,20-1.77.86-2.39-.64-3.5-2-1.89-2.31-4.06-6.71-4-9.75-1.09-.9-3.32-1.04-5.5-1.75-7.15-2.34-14.78-2.95-22-5,.72-.46,2.43-2.68,3.75-3,.46-.11,9.23.92,8.75-1,3.38.11,8.07-.5,11.5-1Z"/>
          <g>
            <path class="cls-22" d="m103.35,324.55c.48,1.92-8.29.89-8.75,1-1.32.32-3.03,2.54-3.75,3-2.23,1.41-5.87,4.54-6.25,4.5-.36-.04-4.97-4.02-4.75-5,5.42,2.05,5.42,2.97,5.75,3,4.03.36-2.57-5.5-3-5.5-.19,0-2.71,2.32-2.75,2.5-.37-.14-.69.77-1.25.5-1-.49-1.15-1.79-1.75-2.5,4.54-2.13,2.66-2.63,0-5-.31-.27-.74-2.36-1.5-1.75-.31,3.06-7.57,8.39-7,11l14.75,16.25c7.79,3.6,39.11,26.71,45.5,25,.94-.25,6.03-6.21,5.75-9.75-.04-.5-1.94-4.15-2.5-5.25,1.22-1.71,4.25,1.88,4.5,2-.88,3.32,3.46,1.8,5.5,2,6.26.62,8.99-.13,7.5,1.5-6.36,4.48-10.54,11.84-10,19.75-7.07,6-5.8,2.86-7.5-4v7.75c-4.38-1.99-8.71-3.77-13-6-17.59-9.13-32.96-20.04-47.5-33.5-5.2-4.82-9.66-9.87-14.5-15,4.07,1.37,5.22,1.27,2.5-2.5,1.97-.6,2.43-1.63,3.5-2.5,3.67-2.99,6.02-6.77,9-10.5.47-.59,3.26-2.62,3.5-3l3,.5c-1.69,1.79-3.39,3.63-5,5.5-15.33,17.75-12.5,20.32,1,0l9.75-8c6.22,4.61,14.22,6.69,17,14.5.38.15.72-.55,2.25-.5Z"/>
            <g>
              <path class="cls-2" d="m105.85,365.55c-11.62-6.57-15.69-9.07-26-18,9.08,5.26,16.94,12.65,26,18Z"/>
              <path class="cls-8" d="m74.35,318.55c-13.5,20.32-16.33,17.75-1,0h1Z"/>
              <path class="cls-8" d="m76.85,326.05c-1.43-1.71-4.36-.92,0-5,2.66,2.37,4.54,2.87,0,5Z"/>
              <path class="cls-8" d="m79.85,328.05c.04-.18,2.56-2.5,2.75-2.5.43,0,7.03,5.86,3,5.5-.33-.03-.33-.95-5.75-3Z"/>
              <path class="cls-7" d="m105.85,365.55c2.5,1.41,21.36,12.21,10.75,7-3.7-1.81-7.4-4.59-10.75-7Z"/>
              <path class="cls-17" d="m137.6,364.05c.81.28-1.45,4.73-1.75,5.25-4.68,8.25-5.31,5.05,1.75-5.25Z"/>
              <path class="cls-8" d="m141.85,360.55c-2.04-.2-6.38,1.32-5.5-2,1.69.79,4.08.59,5.5,2Z"/>
              <path class="cls-8" d="m72.1,338.05c3.18.18,3.85,4.41-2.25.75,1.3-.08,2.13-.76,2.25-.75Z"/>
              <path class="cls-8" d="m87.1,323.55l4.25,3.25c-.15,1.64-4.5-2.01-4.25-3.25Z"/>
              <path class="cls-2" d="m79.85,347.55c-.85-.49-2.51-.85-2.5-1.75,2.8.41,2.38,1.65,2.5,1.75Z"/>
            </g>
          </g>
          <path class="cls-54" d="m122.35,345.05c-3.55-1.98-8.6-7.54-9.5-11.5,2.18.71,4.41.85,5.5,1.75-.06,3.04,2.11,7.44,4,9.75Z"/>
          <g>
            <path class="cls-21" d="m153.85,347.55c1.65,2.04,6.34,6.84,8.5,8,.03.32-.07.72,0,1-3.34.46-5.85,2.13-8.5,4-.31-.83-4.31,1.36-4.5,1.5,1.49-1.63-1.24-.88-7.5-1.5-1.42-1.41-3.81-1.21-5.5-2-.25-.12-3.28-3.71-4.5-2-1.05-2.06-2.87-3.83-4-6l1.25-1.5,24.75-1.5Z"/>
            <path class="cls-36" d="m138.85,326.05c5.12,3.79,10.93,16.45,15,21.5l-24.75,1.5-1.25,1.5c-.09-.18-.52-.54-2-3.5-2.88-5.75-6.61-13.52-6.5-20,6.47.39,13.2.3,19.5-1Z"/>
            <path class="cls-15" d="m138.85,326.05c-6.3,1.3-13.03,1.39-19.5,1,0-.18.82-1.15.5-3.5l.5-.5c7.11,1.69,12.39-1.52,18.5,3Z"/>
          </g>
        </g>
        <g>
          <path class="cls-17" d="m225.85,63.55c-9.93,6.35-4.55,2.94,8.25,8.5,8.15,3.54,15.78,8.62,23.5,13l12-7.5c-9.73-5.22-30.54-9.37-36.5-12-.59-.26.29-.53.25-1,14.15,2.42,31.67,7.97,44.5,14.5-7.38-.55-24.99,12.33-7.5,6.5-.13,1.41,6.68-.53,6.75,0-12.97,8.73-4.46,4.11,6,14,.69-.31,1.56-.42,1.75-.5l13.25,13c2.08-1.19,16.02-10.29,16.25-11.25.75-3.18-11.01-4.82-17.25-7.75-2.61-1.23-3.87-3.84-5.25-2.5.27-.53.24-1.87,0-2.5,4.87,3.7,11.79,4.72,17.75,7,1.18.45,1.19-.52,1.25-.5.59.22.45.57,1.5,1,2.69,1.11,3.52,1.99,5.5,3-3.85,6.3-10.93,9.06-16.25,14,8.09-.57,13.41-7.27,19.25-12,1.08.51,2.13,1.09,3.25,1.5,5.76-4.07,11.73-9.35,18.75-6.25-4.13,2.9-8.24-2.5-4,6.75-.58.75-1.61,1.95-2,2.5l-1.25-8-9.75,5.25c-.37,1.11,4.34,10.38,5,12.25.05.15-.05.35,0,.5,1.63,4.58,2.87,9.61,5,14-2.38.39-9.53-29.33-12-25.25-1.18,1.95,9.14,27.89,11.5,32,4.71,8.18,18.33,20.51,20.5,26.75-6.59.79-16.51-5.48-26.25-6-6.5-.34-7.75,1.37-2.75,6-1.5-.5-1.14.11-1.5,0-.11-.03.04-.47-2-1-4.66-1.21-4.28-.45-4.5-.5-.09-.02-.47-.8-1.5-1-1.64-.32-3.36-.73-5-1-.32-.05-.68.05-1,0-2.34-.36-4.5-.26-6.5-.5-1.75-.21-3.74-.85-5.5-1-.17-.01-.33.01-.5,0-2-.17-2.37-.49-2.5-.5-1.86-.12-3.65-.38-5.5-.5-5.74-22.73-37.56-42.7-58.75-48.5-27.34-7.48-59.12-3.12-82.75,13-1.61-.44-1.63-1.51-1.75-1.5-3.01.18-31.29,27.98-31.75,35-1.19.19-3.33.23-3,1.5-1.51.26-3.16.03-4.25,1.5-9.88.63-26.36,1.05-34.75,5.5-4.97,2.63-6.5,5.51-10,9.5-.04.05-.96.46-1,.5-.89,0-.32-1.21-.5-1.5-.6-1-2.18.02-3,0-1.81-.04-2.3.51-3,.5-12.4-12.19,9.18-27.3,16.5-41.25,3.28-6.25,4.8-13.42,8-19.75.97,2.11,17.27,12.51,18.25,12,1.87-.97.81-6.75-.5-9,6.58.36,1.39,3.27,4,7l22.25-21.25c-13.16-17.54-1.43-5.81,4.75-8.25,1.77-.7,8.62-17.49,9.75-4.75l1.25.25c17.22-10.95,36.92-16.83,56.75-19.75.05-1.2-8.18-.6-6.5-4.25,11.98-1.09,23.05-.97,35,.5Z"/>
          <path class="cls-17" d="m190.85,63.05c-1.68,3.65,6.55,3.05,6.5,4.25-19.83,2.92-39.53,8.8-56.75,19.75l-1.25-.25c-1.13-12.74-7.98,4.05-9.75,4.75-6.18,2.44-17.91-9.29-4.75,8.25l-22.25,21.25c-2.61-3.73,2.58-6.64-4-7,1.31,2.25,2.37,8.03.5,9-.98.51-17.28-9.89-18.25-12,2.9-5.73,3.13-6.59,8.5-10.5l12.75,10,3.25-10.25-13-1.75c6.75-3.62,14.38-4.46,21.25-7.5,6.9-3.05,12.47-8.44,19-12,17.39-9.48,38.67-14.22,58.25-16Z"/>
          <path class="cls-17" d="m233.35,64.55c.04.47-.84.74-.25,1,5.96,2.63,26.77,6.78,36.5,12l-12,7.5c-7.72-4.38-15.35-9.46-23.5-13-12.8-5.56-18.18-2.15-8.25-8.5,2.51.31,5,.57,7.5,1Z"/>
          <path class="cls-17" d="m284.85,99.05c.77-.33,6.49-7.47,7-8.5,1.38-1.34,2.64,1.27,5.25,2.5,6.24,2.93,18,4.57,17.25,7.75-.23.96-14.17,10.06-16.25,11.25l-13.25-13Z"/>
          <path class="cls-17" d="m355.85,162.55c.69,1.98.54,4.01,1,6-1.08,1.81-2.29,3.31-3.5,5-6.69-.79-12.07-4.96-18-7.5-.13-.06-.68-.74-2.5-1.5l-2.5-1c-.69.18-.96-.3-1.5-.5-1.24-.46-1.82-.44-2-.5-5-4.63-3.75-6.34,2.75-6,9.74.52,19.66,6.79,26.25,6Z"/>
          <path class="cls-8" d="m291.85,88.05c.24.63.27,1.97,0,2.5-.51,1.03-6.23,8.17-7,8.5-.19.08-1.06.19-1.75.5-10.46-9.89-18.97-5.27-6-14-.07-.53-6.88,1.41-6.75,0,3.32-1.11,7.1-3.18,9-6,4.48,2.38,8.54,5.36,12.5,8.5Z"/>
          <path class="cls-8" d="m335.85,129.05c7,14.4,21.04,22.98,23,35-.65,1.38-.45,1.91-.5,2-.31.64-1.07,1.78-1.5,2.5-.46-1.99-.31-4.02-1-6-2.17-6.24-15.79-18.57-20.5-26.75-2.36-4.11-12.68-30.05-11.5-32,2.47-4.08,9.62,25.64,12,25.25Z"/>
          <path class="cls-17" d="m149.35,121.05c-20.09,13.71-27.72,31.42-29.5,32.75-1.76,1.31-2.36.48-4,.75.46-7.02,28.74-34.82,31.75-35,.12,0,.14,1.06,1.75,1.5Z"/>
          <path class="cls-8" d="m277.85,79.05c.07.04.44-.06,1.5.5-1.9,2.82-5.68,4.89-9,6-17.49,5.83.12-7.05,7.5-6.5Z"/>
          <path class="cls-17" d="m320.85,100.55c-5.84,4.73-11.16,11.43-19.25,12,5.32-4.94,12.4-7.7,16.25-14,1.74.89,2.84,1.92,3,2Z"/>
          <path class="cls-8" d="m92.35,98.55l13,1.75-3.25,10.25-12.75-10c1.24-.9,1.55-1.22,3-2Z"/>
          <g>
            <path class="cls-8" d="m290.85,156.55l-10,10.5c-.8-.13-8.53.13-13.25-.5-25.25-3.92-39.4-13.88-50.5-15.5-11.12-1.62-9.17-.64-2.75,3l-13.75-1,4-2.5c-4.38-.29-8.49.67-12.75,1.5-14.15,2.75-18.96,8.4-45,13-2.75.49-5.93,1.35-7,1.5-4.73.66-9.94,2.27-12,0v-.5l-9.75-11c-2.69-.38-4.03.97-4.25,1-.32.05-.68-.06-1,0-.33-1.27,1.81-1.31,3-1.5,1.64-.27,2.24.56,4-.75,1.78-1.33,9.41-19.04,29.5-32.75,23.63-16.12,55.41-20.48,82.75-13,21.19,5.8,53.01,25.77,58.75,48.5Z"/>
            <path class="cls-8" d="m202.1,128.05c22-.95,52.29,12.27,62.75,32.75-8.72,1.68-10.13-5.14-16.25-10.25-29.89-24.96-61.76-22.1-91,2-1.49,1.23-5.76,7.11-7,7.5-7.6,2.4-1.77-4.28.25-6.75,11.63-14.24,32.98-24.46,51.25-25.25Z"/>
            <path class="cls-53" d="m127.85,166.05c-1.45,1.82-4.24-2.25-10-7-1.12-.92-2.55-2.79-4-3,.22-.03,1.56-1.38,4.25-1l9.75,11Z"/>
          </g>
        </g>
        <path class="cls-11" d="m56.35,182.05c-4,6.42-6.6,12.68-8.5,20-1.73,4.11-10.51,3.96-16,6,1.69-6.05,4.79-11.4,7.5-17,5.27-3.33,11.74-5.46,17-9Z"/>
        <path class="cls-27" d="m30.85,212.55c.51-1.44.6-3.07,1-4.5,5.49-2.04,14.27-1.89,16-6-.55,2.12-.82,10.32-2.25,11-3.49.58-14.02-.6-14.75-.5Z"/>
        <path class="cls-27" d="m296.35,164.55c2.49.59,4.45,1.7,6.5,0-.03.77.66.39,1,.5,5.05,1.63,3.35,4.84,10.75,2.5,5.15,7.86,8.34-4.88,9.75-.5-.09.81-.89.35,0,1.5,1.85,2.38,5.39-.7,6-5l2.5,1c-1.6,7.05,3.15,6.99,7.5,13.25,4.6,6.62,10.15,18.25,12,26,1.07,4.49.99,11.39,2.5,12.75-.79.24-4.81,2.96-5.5,2.25-.93-14.75-2.57-31.05-13.25-42.25-.56-.28-.88.64-1.25.5-2.13-.8-3.84-1.02-6-1.5-14.33-3.16-29.02-5.15-43.5-7.5-.14-2.49,2.01-2.92,2.5-3.5,1.61.28,2.13-.45,2.5-.5.13-.02.37,1.27,2.5-.5,1.19.7,2.26.71,3.5,1Z"/>
        <path class="cls-4" d="m335.35,166.05c2.54,3.21,5.81,5.92,8.5,9,2.07,2.37,7.31,8.73,8.5,11,.44.84,3.4,8.53,3.5,9,.74,3.56,1.4,16.4.5,20.5-.09.02-.02.55-1.5,1-1.51-1.36-1.43-8.26-2.5-12.75-1.85-7.75-7.4-19.38-12-26-4.35-6.26-9.1-6.2-7.5-13.25,1.82.76,2.37,1.44,2.5,1.5Z"/>
        <path class="cls-21" d="m353.35,173.55c-.18.25,1.69,3.25-4.25,2.5-1.83-.23-4.8-3.49-5.25-1-2.69-3.08-5.96-5.79-8.5-9,5.93,2.54,11.31,6.71,18,7.5Z"/>
        <path class="cls-1" d="m330.35,163.55c-.61,4.3-4.15,7.38-6,5l4.5-5.5c.54.2.81.68,1.5.5Z"/>
        <path class="cls-44" d="m29.35,178.05c4.3,1.25,8.42.34,12.5-.5.78,1.79,7.43-.98,12.5-.5-9.55,6.39-16.74,7.93-27.5,11.5-1.43-4.1-.19-8.12.5-12,.14.73,1.36,1.31,2,1.5Z"/>
        <path class="cls-38" d="m37.35,192.05c-6.97,4.9-10.54,12.57-15,19.5.71-6.06.43-11.99,2-18,4.28-.55,8.78-2.33,13-1.5Z"/>
        <path class="cls-37" d="m292.85,163.55c-2.13,1.77-2.37.48-2.5.5,6.87-8.49,5.42-2.94,2.5-.5Z"/>
        <path class="cls-21" d="m240.35,46.05c6.68,1.5,8.82,2.32,15,4.5-4.75,2.26-14.1-2.29-19.75-3.5-4.27-.91-18.21-.7-16.75-4.5,7.32.58,14.35,1.9,21.5,3.5Z"/>
        <path class="cls-6" d="m185.35,42.55c4.01,1.82-13.26,3.28-21.75,5-7.45,1.51-17.56,6.31-17.25,2.5,3.15-.97,6.29-2.21,9.5-3,9.79-2.4,19.46-3.81,29.5-4.5Z"/>
        <path class="cls-4" d="m117.35,61.05c3.18,2.25-4.06,3.93-8.5,7-2.31,1.6-3.71,2.81-5.5,5-.43.52-.7,1.34-1.5,1.5.7-4.94-3.08-5.67,9.25-11.5,1.81-.85,5.41-1.63,6.25-2Z"/>
        <path class="cls-43" d="m257.85,47.55c-.85,1.8-1.5,2.27.5,3.5-.58-.22-2.39-.28-3-.5-6.18-2.18-8.32-3-15-4.5l-1.5-3.5c6.4,1.41,12.77,2.99,19,5Z"/>
        <path class="cls-6" d="m103.35,73.05c1.79-2.19,3.19-3.4,5.5-5,5.25.09-4.34,7.18-5.5,5Z"/>
        <path class="cls-34" d="m66.35,96.55c.52,2.2,2.25,3.53,2.5,6,.91,8.81-6.73,14.56-15,14-1.2-.08-1.13-.61-2-1,4.01-2.42,11.21-5.34,8.25-6.5-12.5,1.99-7.61-3.45.75-3.75-6.58-12.98,9.91,8.89,2-7,.92-1.06,2.28-1.29,3.5-1.75Z"/>
        <path class="cls-4" d="m377.85,229.05c.71,3.47-7.77,8.44-11,9,.05-.82.39-1.13.5-2,3.19-2.65,7.28-4.47,10.5-7Z"/>
        <path class="cls-27" d="m355.85,195.05c-.1-.47-3.06-8.16-3.5-9,5.82.79,13.3,1.32,16.5,6.75l-13,2.25Z"/>
        <path class="cls-8" d="m345.35,227.05c-14.91,22.07-17.16,34.13-38.25,54-1.46,1.38-12.05,10.53-12.75,11-.11.07-.87-.27-2.25,1.5-1.03.09-.62-.28-.25-1.25.26-.68,7.47-10.54,8.5-11.75.69-.82.3.31,1-.5,4.97-5.74,10.88-10.67,15.5-16.75l-8-8.75c1.95-2.66,4.14-4.98,6-7.5-4.65,3.47,3.73,6.06,4.25,6,.95-.11,5.39-7.69,6.25-9,1.65-2.51,3.73-4.82,5.5-7.25-.42-3.24-12.14,4.83-4-5.75.85-.91,2.09-1.41,2-3,4.68-.22,13.62-1.31,16.5-1Z"/>
        <path class="cls-2" d="m300.35,280.55c-1.03,1.21-8.24,11.07-8.5,11.75-.37.97-.78,1.34.25,1.25,1.38-1.77,2.14-1.43,2.25-1.5,1.23.59-1.62,2.51-3.5,5l-10.75-4.5c-3.36,1.73-6.92,3.78-10.5,5-10.55,3.61-17.56,6.01-10.5,0,.15-.12,1.93-.99,3.25-2,10.98-8.39,23.12-15.31,34.25-23.5,2.14,0,2.06,7.14,3.75,8.5Z"/>
        <path class="cls-8" d="m290.85,297.05c-.1.13,1.2.92-1.25,3-1.55-.37-8.06-2.52-8.5-2.5-.69.04-12.09,5.44-12.5,6-.86,1.15,1.63,1.43,0,2.5l-13.25,1.5c-3.9-2.18.55-3.49.5-3.75-.13-.73-3.97-.6-4.5-.75-1.14-.33-6.12-2.08-7-2.5,6.74-2.68,19.16-9.61,18-5-1.32,1.01-3.1,1.88-3.25,2-7.06,6.01-.05,3.61,10.5,0,3.58-1.22,7.14-3.27,10.5-5l10.75,4.5Z"/>
        <path class="cls-2" d="m248.35,320.05c4.07-2.48,17.33-8.82,22-9.5.51,1.49-.45,2.51.25,3,13.04-4.34,18.16-10.44,13.25-2.25-1.71,1.8-34.68,13.33-40.25,17.25-7.87-1.55,1.47-6.5,4.75-8.5Z"/>
        <path class="cls-56" d="m255.35,307.55c4.9,2.74,12.64-3.9,15,3-4.67.68-17.93,7.02-22,9.5-1.02-.5-.83-1.67-1-2.5-2.36-11.52-2.16-11.53,4-14.5.53.15,4.37.02,4.5.75.05.26-4.4,1.57-.5,3.75Z"/>
        <path class="cls-7" d="m244.35,300.55c.88.42,5.86,2.17,7,2.5-6.16,2.97-6.36,2.98-4,14.5-3.64-.67-7.36,5.51-9.5,2.5,1.58-6.91,3.74-13.65,5.5-20.5.05.58.55.78,1,1Z"/>
        <path class="cls-8" d="m359.35,241.05l-16-3.75,8-6.25c2.37,2.19,6.92,7.05,8,10Z"/>
        <path class="cls-53" d="m335.85,302.55c1.9-2.52,4.21-4.96,6-7.5.55.76-4.43,9.16-6,7.5Z"/>
        <path class="cls-17" d="m103.85,264.55c-.06,3.49,24.62,15.82,29,18,3.15,1.57,6.26,5.3,9.5,2,6.77,3.91,14.43,7.12,21.5,10.5.49,1.84,1.01,3.67,1.5,5.5,2.52,9.39,4.46,19.07,7,28.5-5.43-1.43-10.79-2.86-16-5l5-9.75-8.75,5.25c-.6-.06-1.65-1.45-1.75-1.5.08-.45.92-2.39,1-2.5,3.84-4.99,12.87-7.56,7.5-10.5,2.08-6.92-6.51-5.19-12.5-9,.16-.1,1.45-1.44,3-2.25-8.81-8.84-7.26-5.08-8.75-5.25-.27-.03,1.29-2.16,0-2.5-2-.52-5.48,3.17-6.75,4.5-4.85-1.27-10.03-2.06-15-1-4.36-3.51-7.75-8.13-12-11.75h9c-6.26-5.06-8.13-1.51-14-7.5-3.5-3.57-10.78-15.84-12.5-20.75,2.96,2.05,5.09-.66,5.5-3.5,1.4,1.75,10.4,13.37,10.5,14.25.15,1.33-1.98,3.28-2,4.25Z"/>
        <g>
          <path class="cls-31" d="m236.35,327.05c.21,1-.84,1.25-.25,1.5,1.01.43,2.98-1.15,3.25-.25-6.65,1.35-8.04,22.96-12,33.25-.25.07-1.01,1.26-4.75,2-9.06,1.79-30.03,1.11-39.25-1,1.88-3.13-3.01-17.51-5-22l.5-1c.61,1.31.59,3.15,2,4,1.91,1.42,9.42,2.79,12,3,6.85.55,15.15.28,22-.5,4.08-.47,5.68-.16,9.5-2.5,2-1.23,2.16-1.66,3.5-3.5,2.46-3.38,1.87-3.91,3-6.5,1.53-3.49,3.05-6.8,4-10.5.09.12,1.4-.24,1.5.25.24,1.14-.44,1.64,0,3.75Z"/>
          <path class="cls-21" d="m178.35,340.55c1.99,4.49,6.88,18.87,5,22-2.72-.62-1.88-1.47-2-1.5-2.79-7.99-4.28-16.36-6.5-24.5,1.23-2.49,2.12.87,3.5,4Z"/>
          <path class="cls-21" d="m178.85,339.55l-.5,1c-1.38-3.13-2.27-6.49-3.5-4-.59-2.17-1.41-4.34-2-6.5,3.76-1.19,3.56,4.32,6,9.5Z"/>
        </g>
        <path class="cls-8" d="m325.85,228.05c-27.56,33.2-38.18,51.14-81.5,67,.72-2.64.8-5.9,2-8.5,2.34-8.88,6.43-20.28,10.5-28.5,3.25-6.56,6.98-12.85,12.25-18,4.09-1.15,15.15-7.24,16-7.5,7.09-2.16,31.84-4.03,40.75-4.5Z"/>
        <path class="cls-8" d="m151.35,256.55l-12,1.75c9.16,7.28,11.09-3.3,15.5,4.25.82,1.94,1.31,4.02,2,6,1.62,4.65,2.72,9.27,4,14-1.89-2.72-4.76-2.95-7.25-4.5-6.96-4.35-21.76-15.38-27.5-21-2.89-2.82-19.55-23.04-20.25-24.75-.72-1.75.15-2.05,0-3.75,3.43.36,6.87-.17,6.75,2,23.11-1.1,27.03,13.74,28.5,13,.55-.28.07-1.57.25-1.75,1.26-1.21,9.07,13.02,10,14.75Z"/>
        <path class="cls-8" d="m105.85,228.55c.15,1.7-.72,2,0,3.75.7,1.71,17.36,21.93,20.25,24.75,5.74,5.62,20.54,16.65,27.5,21,2.49,1.55,5.36,1.78,7.25,4.5.23.86.27,2.13.5,3-1.33.33.56,2.81-.75,3-3.34.5-35.06-21.19-39-25-6.76-6.54-21.81-29.46-22.25-33.25-.01-.13,1.46.03,1-2.25,1.96.06,3.58.3,5.5.5Z"/>
        <path class="cls-17" d="m328.85,228.05c.09,1.59-1.15,2.09-2,3-4.54,4.83-6.33,9.04-10,14-1.2,1.62-1.92,1.89-2,2-1.86,2.52-4.05,4.84-6,7.5-1.38,1.88-.74,2.86-2,4.75-5.81,8.61-10.81,4.35-5.5,20.75-.7.81-.31-.32-1,.5-1.69-1.36-1.61-8.5-3.75-8.5-11.13,8.19-23.27,15.11-34.25,23.5,1.16-4.61-11.26,2.32-18,5-.45-.22-.95-.42-1-1,.38-1.49.58-2.97,1-4.5,43.32-15.86,53.94-33.8,81.5-67,1-.05,2,.05,3,0Z"/>
        <path class="cls-17" d="m151.35,256.55c1.09,2.03,2.56,3.78,3.5,6-4.41-7.55-6.34,3.03-15.5-4.25l12-1.75Z"/>
        <path class="cls-17" d="m142.35,284.55c-3.24,3.3-6.35-.43-9.5-2,.14-1.05,0-1.33-.75-2-1.22-1.08-24.65-15.87-28.25-16,.02-.97,2.15-2.92,2-4.25-.1-.88-9.1-12.5-10.5-14.25.08-.53.63-.61.5-1.25-.62-3.17-13.63-16.98-6,4.75-6.7-4.64-2.64-21.25,1.25-20,4.53,1.46,11.32,31.95,51.25,55Z"/>
        <path class="cls-7" d="m146.85,296.05c5.99,3.81,14.58,2.08,12.5,9-1.01-.56-14.66-4.1-18.25-5.5v-1c1.51-.86,5.04-2.05,5.75-2.5Z"/>
        <g>
          <path class="cls-8" d="m100.35,228.05c.46,2.28-1.01,2.12-1,2.25.44,3.79,15.49,26.71,22.25,33.25,3.94,3.81,35.66,25.5,39,25,1.31-.19-.58-2.67.75-3,.84,3.17,1.65,6.33,2.5,9.5-7.07-3.38-14.73-6.59-21.5-10.5-39.93-23.05-46.72-53.54-51.25-55-3.89-1.25-7.95,15.36-1.25,20,1.72,4.91,9,17.18,12.5,20.75,5.87,5.99,7.74,2.44,14,7.5h-9c4.25,3.62,7.64,8.24,12,11.75,5.03,4.05,9.42,5.19,9.5,5.75.18,1.21-1.49.34-2,1.5-.51,1.17,2.41,7.38-3.25,1.75l-.75.75,4.25,7.75,6.25-6.75c.52-1.45-4.66,2.6-5.5,0-.18-.56,5.63-8.84,6.5-9.75,1.27-1.33,4.75-5.02,6.75-4.5,1.29.34-.27,2.47,0,2.5,1.49.17-.06-3.59,8.75,5.25-1.55.81-2.84,2.15-3,2.25-.71.45-4.24,1.64-5.75,2.5v1c3.59,1.4,17.24,4.94,18.25,5.5,5.37,2.94-3.66,5.51-7.5,10.5-6.51-6.36-6.3-7.16-15.5-9.25,4.42,4.18,8.97,9.04,14.5,11.75.1.05,1.15,1.44,1.75,1.5l8.75-5.25-5,9.75c-8.4-3.46-16.14-8.2-22.25-15l-13.75,14-.5.5c-1.58.16-3.49-.22-5,0l9.5-12.25c-2.51-5.03-4.14-10.46-5-16-17.37-11.29-30.57-27.44-42-44.5-.63-1.78.11-2.59-.5-5.75-.13-9.16,3.51-11.16,10.5-15.5.94-.18,2.91-.25,3.5-1,.65.02,4.15-.66,9.5-.5Z"/>
          <path class="cls-7" d="m134.35,290.55c-.87.91-6.68,9.19-6.5,9.75.84,2.6,6.02-1.45,5.5,0l-6.25,6.75-4.25-7.75.75-.75c5.66,5.63,2.74-.58,3.25-1.75.51-1.16,2.18-.29,2-1.5-.08-.56-4.47-1.7-9.5-5.75,4.97-1.06,10.15-.27,15,1Z"/>
          <path class="cls-7" d="m151.85,315.55c-.08.11-.92,2.05-1,2.5-5.53-2.71-10.08-7.57-14.5-11.75,9.2,2.09,8.99,2.89,15.5,9.25Z"/>
          <path class="cls-7" d="m107.6,281.05c2.5,2.06,5.8,4.18,8,6.5,7.77,8.19-3.62,1.23-8-6.5Z"/>
        </g>
        <path class="cls-2" d="m301.35,280.05c-5.31-16.4-.31-12.14,5.5-20.75,1.26-1.89.62-2.87,2-4.75l8,8.75c-4.62,6.08-10.53,11.01-15.5,16.75Z"/>
        <path class="cls-17" d="m325.35,244.05c-2.61-1.85-5.42,1.54-8.5,1,3.67-4.96,5.46-9.17,10-14-8.14,10.58,3.58,2.51,4,5.75-1.77,2.43-3.85,4.74-5.5,7.25Z"/>
        <path class="cls-7" d="m325.35,244.05c-.86,1.31-5.3,8.89-6.25,9-.52.06-8.9-2.53-4.25-6,.08-.11.8-.38,2-2,3.08.54,5.89-2.85,8.5-1Z"/>
        <path class="cls-8" d="m132.85,282.55c-4.38-2.18-29.06-14.51-29-18,3.6.13,27.03,14.92,28.25,16,.75.67.89.95.75,2Z"/>
        <path class="cls-8" d="m95.35,246.05c-.41,2.84-2.54,5.55-5.5,3.5-7.63-21.73,5.38-7.92,6-4.75.13.64-.42.72-.5,1.25Z"/>
        <g>
          <path class="cls-47" d="m191.85,152.05l-5,5.5c-4.38,1.29-8.48,4.73-12,7.5-2.84,2.24-4.04,3.34-6.5,6-3.14,3.4-5.94,6.97-8.25,11-6.07.52-9.29,2.29-6.25-1,4.67-5.04,17.84-16.34,23.5-20.5,4.03-2.96,10.79-5.99,10.5-6.75-4.93.53-7.63,2.95-10.5,6.75,1.24-4.31-1.97-2.19-3.75,0-.32-2.02-2.89.55-6.25,1.5-6.56,1.86-13.62,3.22-20.5,3,26.04-4.6,30.85-10.25,45-13Z"/>
          <path class="cls-5" d="m214.35,154.05c1.4.8,2.15.9,3,2.5-4.48-.88-14.77-.96-19.5-.5-1.7.17-10.47,1.34-11,1.5l5-5.5c4.26-.83,8.37-1.79,12.75-1.5l-4,2.5,13.75,1Z"/>
          <path class="cls-56" d="m167.35,162.05v1c-11.38,4.04-17.86,5.14-25,7.5-8.24,2.72-12.19,5.37-15,14-.8-6.77,5.73-10.6,10.5-14,2.28-1.63,5.09-.38,2-4,1.07-.15,4.25-1.01,7-1.5,6.88.22,13.94-1.14,20.5-3Z"/>
          <path class="cls-45" d="m139.85,166.55c3.09,3.62.28,2.37-2,4-1.14-1.1-4.05-1.24-5.5-1,0-.34.12-.91-.25-1-2.33-.55-31.32,3.7-36.75,4.5,0-.33-.14-.86.25-1,4.78-1.69,24.83-3.03,32.25-5.5,2.06,2.27,7.27.66,12,0Z"/>
          <path class="cls-28" d="m166.85,301.05c2.31,13.97,10.62,29.71,14,41.5.07.26-.04.68,0,1-1.41-.85-1.39-2.69-2-4-2.44-5.18-2.24-10.69-6-9.5-.37-1.37-.49-.95-.5-1-2.54-9.43-4.48-19.11-7-28.5.9.05.21,1.13.75,1.5.22.15.16-1.16.75-1Z"/>
          <path class="cls-41" d="m228.85,327.05c-1.87,1.89-1.41,6.82-2.5,10.25-.11.34-3.46,2.98-2,6.25-3.82,2.34-5.42,2.03-9.5,2.5,2.37-3.84,5.19-7.59,7-11.75.94-2.16,3.41-8.57,2-9.25,8.98-7.39,12.15-18.46,14.5-29.5,1.64-.83-.92,10.83-1.5,12.75-3.01,9.88-8.67,13.43-8,18.75Z"/>
          <path class="cls-56" d="m223.85,325.05c1.41.68-1.06,7.09-2,9.25-1.81,4.16-4.63,7.91-7,11.75-6.85.78-15.15,1.05-22,.5-.36-1.48,1.22-.93,3.5-1,13.3-.44,20.04-7.47,23.5-20,1.39-.08,2.64-.24,4-.5Z"/>
          <path class="cls-17" d="m203.35,335.05c4.58,3.22-8.43,2.99-7,10.5-2.28.07-3.86-.48-3.5,1-2.58-.21-10.09-1.58-12-3-.04-.32.07-.74,0-1,2.29,3.4,14.73-3.92,22.5-7.5Z"/>
          <path class="cls-18" d="m231.35,329.05c-.31.77-.69,3.16-1,4-.68,1.86-2.64,4.71-2.5,7-1.34,1.84-1.5,2.27-3.5,3.5-1.46-3.27,1.89-5.91,2-6.25,1.09-3.43.63-8.36,2.5-10.25.51-.52,1.5-1.32,2.25-1.5l.25,3.5Z"/>
          <path class="cls-55" d="m234.85,323.05c-.95,3.7-2.47,7.01-4,10.5l-.5-.5c.31-.84.69-3.23,1-4,1.16-2.9,3.22-6.17,2.5-6.75,2.35-.86.91.63,1,.75Z"/>
          <path class="cls-54" d="m230.85,333.55c-1.13,2.59-.54,3.12-3,6.5-.14-2.29,1.82-5.14,2.5-7l.5.5Z"/>
          <path class="cls-8" d="m237.35,272.55c-6.91,4.2-24.07,3.87-32.75,5.5-1.39,1.14-.59,12.01-.75,14.5-.17,2.66.15,5.35-.5,8-.03.14-.77-.29-.5,2.75-.21.46-.91.16-1,.25l.5-23.75-1-.25c-.33-.02-.68.05-1,0-2.3-.38-11.75-.16-16.75-.5-3.63-.25-13.81-3.8-8.75,1.5-2.4.18-2.76-1.13-4.5,1.25,2.71,8.43,1.07,33.2,12,34.75.24,1.97-1.15,4.87-.5,6.75.43,1.24,16.8,7.52,19.25,8.25,7.04,2.09,10.54-.32,2.25,3.5-7.77,3.58-20.21,10.9-22.5,7.5-3.38-11.79-11.69-27.53-14-41.5-2.58-11.79-5.74-23.38-9-35-.78-2.8-1.5-5.69-2.25-8.5,15.88,18.29,55.13,20.34,76.5,15.5,1.52-.34,11.61-4.36,5.25-.5Z"/>
          <path class="cls-28" d="m140.35,183.05c-2.23,3.3-5,6.64-3.5,11-.21,1.06-1.27,2.97,0,4-1.88.53-10.64.44-7,4.25.94.98,9.27.95,11,.75-.04,10.14,5.43,17.82,7.5,24.5,2.35,7.6-1.76.3-10.5-3.5-2.14-3.33-5.58-7.59-7-11.25-2.21-5.68-7.67-27.55,2-27.75,9.09-1.47,4.14-1.92,3.5-3.5.21-.06.98-.45,1-.5l3,2Z"/>
          <path class="cls-47" d="m200.35,222.05c1.32.32,3.21.87,4.5,1,3.67.36,4.89.51,8.5-.5l.5,2c-1.5.69-9.23,4.38-9.75,4.5-2.21.49-25.17,1.34-28,1-7.35-.87-9.24-2.86-12.75-9,10.69,1.84,19.45,1.86,30-1,2.13,1.14,4.7,1.45,7,2Z"/>
          <path class="cls-39" d="m160.85,170.05c-2.43,3.1-5.1,5.88-7.5,9-1.3,1.68-2.83,3.22-4,5-.5.76-2.85,2.81-4,6.25-1.41,4.2-.97,10.19-2.5,9.75-.39-1.48.26-1.39-2-2.75l-1-7.25c-2.92-1.02-2.67,2.33-3,4-1.5-4.36,1.27-7.7,3.5-11,1.87-2.77,6.69-6.8,6.5-7.25-.21-.5-10.06,2.03,1.25-3.25.26-.12.24,1.12.5,1,2.43-1.14,10.01-6.8,15.75-7.25-1.25,1.2-2.43,2.38-3.5,3.75Z"/>
          <path class="cls-28" d="m181.85,164.55c-2.64,1.45-4.7,3.08-7,5-9.65,8.08-15.47,18.23-16,31-.19,4.46.25,6.8,1,11,.25,1.4.49.95.5,1,.2.91.19,2.55.5,3.5.4,1.2,1.38,3.31,2,4.5l-1.5.5c-1.18-3.15-3.27-6.12-4-9.5-1.5-2.89-1.26-7.71-1-11,.76-9.54,5.68-21.01,12.5-28,.55-.56,6.23-5.02,7-5.5,1.14-.7,4.99-3.25,6-2.5Z"/>
          <path class="cls-42" d="m162.35,216.05c1.42,3.69,11.42,1.67,16.5,1.5,3.16-.11,7.38.96,10-1,.27.28,4.25,3.37,4.5,3.5-10.55,2.86-19.31,2.84-30,1-.02-.03-.14.18-.5-.5-.62-1.19-1.6-3.3-2-4.5.48-.06,1.04.1,1.5,0Z"/>
          <path class="cls-12" d="m275.35,169.55c6.67,3.66,7.96,5.68,9,13.5.03.22.1,4.3,0,4.5-8.8.1-5.73-6.68-10-7,.2-.79-.36-3.06.25-3.5.92.62,6.55.62,5.25-.5-.61-2.22-2.19-3.74-4-5-.86-.6-.94-.97-1-1-.5-.89-.81-1.05.5-1Z"/>
          <path class="cls-42" d="m273.85,171.55c.86.5,2.34,2.41,3,3-2.1,2.97-5.49-1.14-8.25-2-2.58-.81-9.99-2.44-12-2-.44-1.5-2.22-1.51-3.25-2-1.51-.72-5-2.4-3.5-3.5.15.04.35-.04.5,0,6.18,1.73,18.52,3.6,23.5,6.5Z"/>
          <path class="cls-18" d="m256.85,258.05c-4.07,8.22-8.16,19.62-10.5,28.5-2.41-.8.21-12.28,2-17,1.23-3.25,6.95-13.43,8.5-11.5Z"/>
          <path class="cls-42" d="m142.35,170.55c-4.47,3.5-8.14,5.65-6,10.5.02.19-.04.39,0,.5.64,1.58,5.59,2.03-3.5,3.5.02-3.84-2.01-1.8-5.5-.5,2.81-8.63,6.76-11.28,15-14Z"/>
          <path class="cls-22" d="m142.85,200.05c.41,1.56.48,1.42.5,1.5-.28.97-1.59,1.4-2.5,1.5-1.73.2-10.06.23-11-.75-3.64-3.81,5.12-3.72,7-4.25,4.53-1.27,1.33-.85,3-8l1,7.25c2.26,1.36,1.61,1.27,2,2.75Z"/>
          <path class="cls-8" d="m260.35,217.05c-1.66-1.32-1.25.06-2.5,3.5-.39,1.89-2.07-.08-4-2,3.05-.92,4.71-5.59,5.5-8.5.11-.4.32-.57.5-1.5.15-.82.41-1.72.5-2.5.38-3.5.07-9.85-.5-13.5,0-2.82,2.36,4.25,2.5,5.25.86,6.2-.47,13.25-2,19.25Z"/>
          <path class="cls-14" d="m149.35,226.05l-1,1.5c-2.07-6.68-7.54-14.36-7.5-24.5.91-.1,2.22-.53,2.5-1.5,2.14,8.38,2.3,16.12,6,24.5Z"/>
          <path class="cls-39" d="m157.85,266.05c3.26,11.62,6.42,23.21,9,35-.59-.16-.53,1.15-.75,1-.54-.37.15-1.45-.75-1.5-.49-1.83-1.01-3.66-1.5-5.5-.85-3.17-1.66-6.33-2.5-9.5-.23-.87-.27-2.14-.5-3-1.28-4.73-2.38-9.35-4-14v-2.75l1,.25Z"/>
          <path class="cls-42" d="m284.35,187.55c-.45.94-1.99,1.75-3,2.5-3.96-.52-7.51-1.48-10-5,2.31-1.78,2.32-1.82,3-4.5,4.27.32,1.2,7.1,10,7Z"/>
          <path class="cls-50" d="m259.85,192.55c.57,3.65.88,10,.5,13.5-1.64-1.06-2.66-4.36-4.5-4,2.04-8.26-3.26-9.68,4-9.5Z"/>
          <path class="cls-47" d="m161.35,221.05c1.04,2.78,2.56,2.04-2,5.5-.65-1.3-2.33-4.78-2.5-5,1.09-.99-.5-4.49-.5-7,0-.17-.01-.34,0-.5,0-.13.66-2.29,1-2.5.73,3.38,2.82,6.35,4,9.5Z"/>
          <path class="cls-25" d="m259.35,210.05c-.79,2.91-2.45,7.58-5.5,8.5-.04-.04-.74-.43-1-.5,3.86-11.19,3.36-11.53,6.5-8Z"/>
          <path class="cls-23" d="m281.35,190.05c-.08.06.08.45,0,.5-6.02,1.68-8.64-.45-10.5-1l-2-3.5c.12-.06,1.45-.19,2.5-1,2.49,3.52,6.04,4.48,10,5Z"/>
          <path class="cls-42" d="m268.85,186.05l2,3.5c-.25-.07-.67.04-1,0-2.33-1.29-2.86-1.37-3-1.5.31-1.45.86-1.39,2-2Z"/>
          <g>
            <path class="cls-22" d="m117.85,159.05c5.76,4.75,8.55,8.82,10,7v.5c-7.42,2.47-27.47,3.81-32.25,5.5-.39.14-.25.67-.25,1-22.3,3.3-24.6-1.06-31.5,17.25-1.35,3.58-8.36,28.91-6.75,30.25.84.1,1.03-.84,1.75-1,2.61-.59,4.42-3.25,4.75-3,1.35,1.03-2.58,3.12,4.75,4,4.54.54,20.69.88,27,1,4.71.09,14.53.78,17.75.5.39-.03.11-.96.5-1,1.49-.16,3.66.25,4.75,0,5.73,1.62,20.35,5.46,8.5-2.5-1.73-9.65-5.23-27.6-3.5-36.5.73-3.77,4.78-11.81,9-12.5,1.45-.24,4.36-.1,5.5,1-4.77,3.4-11.3,7.23-10.5,14,3.49-1.3,5.52-3.34,5.5.5-9.67.2-4.21,22.07-2,27.75,1.42,3.66,4.86,7.92,7,11.25,8.05,12.51,21.6,29.22,36.5,33,2.19.55,8.39,3.9,4-1.5-.24-.29.81-.62.25-1-.23-.15-2.55-.22-3-.5-10.36-6.47-21.23-16.62-26.25-28-3.7-8.38-3.86-16.12-6-24.5-.02-.08-.09.06-.5-1.5,1.53.44,1.09-5.55,2.5-9.75,1.15-3.44,3.5-5.49,4-6.25-12.09,29.28,11.16,63.68,41,69.5,5.87,1.14,8.22,1.7,14.5,1.5,1.62,1.7,10.43.53,13.25,0,18.38-3.44,37.6-19.8,42.25-38,1.53-6,2.86-13.05,2-19.25-.14-1-2.5-8.07-2.5-5.25-7.26-.18-1.96,1.24-4,9.5-.32,2.88,2.4,4.51,4,6.5-.18.93-.39,1.1-.5,1.5-3.14-3.53-2.64-3.19-6.5,8-1.63,4.72.09.69,4,5.5-6.11,11.92-21.51,22.77-34,27-11.04,3.74-20.96,4.09-32.5,2-6.81-1.23-13.06-4.15-18.75-8l-.75-.75c7.36-9.8.03-.42-1.75-.75-5.08-4.99-10.49-10.32-13.75-16.75-4.33-8.55-4.9-10.76,1-11.75,0,2.51,1.59,6.01.5,7-.72-.98-1.64-2.63-3-1.75,1.13,3.14,3.3,5.52,5,8.25.19.3,1.05,3.6,3.5,6.25,5.27,5.69,11.96,6.17,11.5,3-.12-.83-9.94-9.14-10.75-12.75-2.62,1.03-1.28,3.31-3.25,3.5-.57-.76-.45-1.4-.5-1.5,4.56-3.46,3.04-2.72,2-5.5l1.5-.5c.36.68.48.47.5.5,3.51,6.14,5.4,8.13,12.75,9,2.83.34,25.79-.51,28-1,.52-.12,8.25-3.81,9.75-4.5,13.48-6.19,8.61-4.73,14.5-13.75.72-1.1,2.77-1.73,3.5-3,5.74-10.01,1.74-14.94,1.5-19.5-.49-9.23,1.04-7.57,1-8-1.1-12.09-7.53-21.38.25-15.75,3.41,2.46,9.41,9.59,12.5,13,2.85-2.7-5.27-7.3-1.25-8,9.84,10.08,16.35,24.71,14,16.75-2.62-8.89-13.55-18.53-21-23.75-.02-.15-2.49.1.25-2,3.48,1.71,7,3.44,10.75,4.5-1.5,1.1,1.99,2.78,3.5,3.5-.34,1.71.98,2.34,1.5,3,2.17,2.76,4.89,5.16,7,8,1.99,2.68,2.09,5.81,5,8.5.14.13.67.21,3,1.5.07.04-.21.78.25,1,4.44,1.43,7.27,2.72,11.25,0,.08-.05-.08-.44,0-.5,1.01-.75,2.55-1.56,3-2.5.1-.2.03-4.28,0-4.5,5.52,4.46,4.07-10.86,13.25-3.5,9.69,1.02,36.81-1.08,35.25,11.75-.45.96-11.76.27-13.5.25-6.66-.09-19.8.5-5.75-2,.97-.55.28-2.28-.25-3.25-1.38-2.51-14.37-5.8-16.75-4.75-2.04.9,2.54,5.33-7.25,9-5.64-12.19-2.61-4.16-6.5,13.75-1.62,7.48-4.01,14.98-7,22,7.16-.85,14.32-2.08,21.5-2.75,13.38-1.24,34.35-1.75,45.5-3.5,2.37-.37,4.93,1.2,4.5-2.5l3.75,6.5c5.05-6.63,16.21-12.94,15.25-2.5-2.87,2.75-5.88,16.38-4,20.5-1.9,7.64.78,14.16-9,34l-2-.5c5.13-10.51,9.33-21.42,9-33.25-.64-1.19-.97-1.17-1-1.25-1.08-2.95-5.63-7.81-8-10-1.3-1.2-2.31-2.9-3.75-4-.74-.05-1.51.08-2.25,0-2.88-.31-11.82.78-16.5,1-1,.05-2-.05-3,0-8.91.47-33.66,2.34-40.75,4.5-.85.26-11.91,6.35-16,7.5-5.27,5.15-9,11.44-12.25,18-1.55-1.93-7.27,8.25-8.5,11.5-3.85-1.46-7.78,6.52-11,3,6.36-3.86-3.73.16-5.25.5-21.37,4.84-60.62,2.79-76.5-15.5.75,2.81,1.47,5.7,2.25,8.5l-1-.25v2.75c-.69-1.98-1.18-4.06-2-6-.94-2.22-2.41-3.97-3.5-6-.93-1.73-8.74-15.96-10-14.75-.18.18.3,1.47-.25,1.75-1.47.74-5.39-14.1-28.5-13,.12-2.17-3.32-1.64-6.75-2-1.92-.2-3.54-.44-5.5-.5-5.35-.16-8.85.52-9.5.5-4.85-.14-9.65-.41-14.5-.5-3.05-.06-6.5-.95-9.75-.5l-4,7.5,1-7.5c-3.45,3.31-10.8,8.66-12.25,13-3.05,9.17,1.49,20.03,5,28.5-4.96-3.21-2.38,6.87-9-3.75-.84-6.23-13.88-41.01-10.25-44.25l12.5-2c1.25-.79.5-1.85.75-2.5,2.59-6.71.38-21.69,15-42.5,1.67-2.38,6.41-9.04,8.5-10,14.56-2.91,29.45-5.16,44-5Z"/>
            <g>
              <path class="cls-23" d="m148.35,227.55l1-1.5c5.02,11.38,15.89,21.53,26.25,28,.45.28,2.77.35,3,.5.56.38-.49.71-.25,1-1.44.56-5.18-.49-4,1.5-14.9-3.78-28.45-20.49-36.5-33,8.74,3.8,12.85,11.1,10.5,3.5Z"/>
              <path class="cls-47" d="m260.35,217.05c-4.65,18.2-23.87,34.56-42.25,38-2.82.53-11.63,1.7-13.25,0,6.77-.21,22.68-2.81,18-4.5,12.49-4.23,27.89-15.08,34-27,2.02-3.95.95-2.85,1-3,1.25-3.44.84-4.82,2.5-3.5Z"/>
              <path class="cls-47" d="m279.6,200.05c3.48-.26-.27,6.42-.25,9.25-16.12,21.4-6.29,7.57-7-7.5,2.51.07,6.88-1.72,7.25-1.75Z"/>
              <path class="cls-47" d="m158.85,228.05c.33-.01.67.03,1,0,1.97-.19.63-2.47,3.25-3.5.81,3.61,10.63,11.92,10.75,12.75.46,3.17-6.23,2.69-11.5-3-2.45-2.65-3.31-5.95-3.5-6.25Z"/>
              <path class="cls-47" d="m245.85,169.55c-2.43-2.49-6.69-4.55-7-7,7.45,5.22,18.38,14.86,21,23.75,2.35,7.96-4.16-6.67-14-16.75Z"/>
              <path class="cls-39" d="m204.85,255.05c-6.28.2-8.63-.36-14.5-1.5v-1c11.54,2.09,21.46,1.74,32.5-2,4.68,1.69-11.23,4.29-18,4.5Z"/>
              <path class="cls-18" d="m281.6,192.05c7.79-1.33-12.81,12.7-10.5,1,.41-.24,3.01.57,6,.5.36,0,.14,1.03.5,1,.23-.02,2.68-2.27,4-2.5Z"/>
              <path class="cls-33" d="m118.35,221.05c1.83-.42,1.42-.48,1.5-.5,2.06-.12,6.19-.6,7-2,11.85,7.96-2.77,4.12-8.5,2.5Z"/>
              <path class="cls-48" d="m95.35,220.55v1c-6.31-.12-22.46-.46-27-1l.5-1.5c2.89.65,22,1.53,26.5,1.5Z"/>
              <path class="cls-8" d="m293.6,180.55c1.45.31-.1,5.49-.25,5.75-3.05,5.47-3.46-6.54.25-5.75Z"/>
              <path class="cls-8" d="m156.85,221.55c.17.22,1.85,3.7,2.5,5,.05.1-.07.74.5,1.5-.33.03-.67-.01-1,0-1.7-2.73-3.87-5.11-5-8.25,1.36-.88,2.28.77,3,1.75Z"/>
              <path class="cls-50" d="m253.85,218.55c1.93,1.92,3.61,3.89,4,2-.05.15,1.02-.95-1,3-3.91-4.81-5.63-.78-4-5.5.26.07.96.46,1,.5Z"/>
              <path class="cls-26" d="m260.35,206.05c-.09.78-.35,1.68-.5,2.5-1.6-1.99-4.32-3.62-4-6.5,1.84-.36,2.86,2.94,4.5,4Z"/>
              <path class="cls-42" d="m178.35,255.55c4.39,5.4-1.81,2.05-4,1.5-1.18-1.99,2.56-.94,4-1.5Z"/>
              <path class="cls-2" d="m270.85,189.55c1.86.55,4.48,2.68,10.5,1-3.98,2.72-6.81,1.43-11.25,0-.46-.22-.18-.96-.25-1,.33.04.75-.07,1,0Z"/>
              <path class="cls-7" d="m181.6,246.55l4.75.75c-2.1,1.58-3.7,2.02-4.75-.75Z"/>
              <path class="cls-56" d="m239.6,239.05c.34-.07,1.11-.11,1.25.25-11.35,6.96-3.97.33-1.25-.25Z"/>
              <path class="cls-18" d="m249.1,230.05c1.96-.06-2.01,3.27-4.75,2.25l4.75-2.25Z"/>
            </g>
          </g>
          <path class="cls-47" d="m217.35,156.55c9.77,1.91,7.86,10.95,8,11.75.03.17,1.47,2.55,1.5,3,.32,4.73-.98,7.46-1,9.5,0,.61,3.55,6.72-1.5,10.75-1.35-2.08-1.43-1.42-1.5-1.5-1.83-1.93-2.88-2.07-4.5-3-4.09-2.34-3.73-2.77-9-3.5.25-12.27-1.55-19.74-11.5-27.5,4.73-.46,15.02-.38,19.5.5Z"/>
          <g>
            <path class="cls-23" d="m280.85,167.05c1.42.23,3.07.77,4.5,1,14.48,2.35,29.17,4.34,43.5,7.5,1.45.73,3.45,1.65,5,2-.11.6.21,1.04.5,1.5-17.26-3.83-34.72-8.14-52.25-10.5-12.02-1.62-11.43-1.57-6.75,1-1.31-.05-1,.11-.5,1-4.7-2.56-18.43-3.76-24.25-7l-.25,1.5c-.15-.04-.35.04-.5,0-3.75-1.06-7.27-2.79-10.75-4.5-2.74,2.1-.27,1.85-.25,2,.31,2.45,4.57,4.51,7,7-4.02.7,4.1,5.3,1.25,8-3.09-3.41-9.09-10.54-12.5-13-7.78-5.63-1.35,3.66-.25,15.75.04.43-1.49-1.23-1,8,.24,4.56,4.24,9.49-1.5,19.5-.73,1.27-2.78,1.9-3.5,3-5.89,9.02-1.02,7.56-14.5,13.75l-.5-2c1.99-.56,1.9-.96,2-1,11.67-4.9,16-19.2,9-30,5.05-4.03,1.49-10.14,1.5-10.75.02-2.04,1.32-4.77,1-9.5-.03-.45-1.47-2.83-1.5-3-.14-.8,1.77-9.84-8-11.75-.85-1.6-1.6-1.7-3-2.5-6.42-3.64-8.37-4.62,2.75-3,11.1,1.62,25.25,11.58,50.5,15.5,4.72.63,12.45.37,13.25.5Z"/>
            <path class="cls-46" d="m334.85,177.05c.02.62-.55.6-1,.5-1.55-.35-3.55-1.27-5-2,2.16.48,3.87.7,6,1.5Z"/>
            <path class="cls-32" d="m224.35,191.55c7,10.8,2.67,25.1-9,30l-.5-.5c11.71-5.06,13.66-20.71,8-31,.07.08.15-.58,1.5,1.5Z"/>
            <path class="cls-7" d="m274.85,170.55c.06.03.14.4,1,1h-2c-4.98-2.9-17.32-4.77-23.5-6.5l.25-1.5c5.82,3.24,19.55,4.44,24.25,7Z"/>
            <path class="cls-7" d="m222.1,154.55c6.16,2.06,6.34,4.79,0,.5l-.25-.25.25-.25Z"/>
          </g>
          <path class="cls-42" d="m197.85,156.05c9.95,7.76,11.75,15.23,11.5,27.5-3.05-.42-4.91-.62-8,0,2.1-11.86-1.61-15.16-8.25-23.5-.9-.41-6.51,2.47-7.75,3-1.19.51-2.34.86-3.5,1.5-1.01-.75-4.86,1.8-6,2.5l-1-2c3.52-2.77,7.62-6.21,12-7.5.53-.16,9.3-1.33,11-1.5Z"/>
          <path class="cls-7" d="m177.35,160.55c-5.66,4.16-18.83,15.46-23.5,20.5-.17-1.61,1.17-2.12-.5-2,2.4-3.12,5.07-5.9,7.5-9l9-7.25-.75-.75c-.45.42-1.18.8-1.75,1v-1c3.36-.95,5.93-3.52,6.25-1.5,1.78-2.19,4.99-4.31,3.75,0Z"/>
          <path class="cls-39" d="m175.85,167.05c-.77.48-6.45,4.94-7,5.5l-.5-1.5c2.46-2.66,3.66-3.76,6.5-6l1,2Z"/>
          <path class="cls-7" d="m177.35,160.55c2.87-3.8,5.57-6.22,10.5-6.75.29.76-6.47,3.79-10.5,6.75Z"/>
          <path class="cls-28" d="m160.85,170.05c1.07-1.37,2.25-2.55,3.5-3.75-5.74.45-13.32,6.11-15.75,7.25-.26.12-.24-1.12-.5-1-11.31,5.28-1.46,2.75-1.25,3.25.19.45-4.63,4.48-6.5,7.25l-3-2c.1-.22-.14-.85,1.5-3.5,4.77-4.57,9.59-5.47,15-8.75-4.41,1.25-9.92,1.81-13,5.25-2.8-.08-4.71,4.89-4.5,7-2.14-4.85,1.53-7,6-10.5,7.14-2.36,13.62-3.46,25-7.5.57-.2,1.3-.58,1.75-1l.75.75-9,7.25Z"/>
          <path class="cls-17" d="m186.35,316.55c2.08,10.28,3.89,7.06,16.5,7.75.13-2.4-.19-4.86,0-7.25.01-.17-.01-.33,0-.5.69.77.95,0,1,0,4.97.89,10.97.75,16,.5-.11.6-.66,1.07-1,1.5-.38-1.33-7.11,4.1-7.5,4.5-7.32-9.29-9.41.32-6.75,1.5.64.29,4.6-.19,6.25,0,2.77.32,6.26,1.15,9,1-3.46,12.53-10.2,19.56-23.5,20-1.43-7.51,11.58-7.28,7-10.5,8.29-3.82,4.79-1.41-2.25-3.5-2.45-.73-18.82-7.01-19.25-8.25-.65-1.88.74-4.78.5-6.75,1.17.17,2.71-.07,4,0Z"/>
          <path class="cls-8" d="m238.35,295.55c-2.35,11.04-5.52,22.11-14.5,29.5-1.36.26-2.61.42-4,.5-2.74.15-6.23-.68-9-1,.59-.78.44-1.44.5-1.5.39-.4,7.12-5.83,7.5-4.5-1.54,1.95-3.44,3.35-5,5.25,6.02.5,11.02,1.24,10.5-6.25,7.67-.26,12.87-36.04,12-38.75-1.09-3.41-9.49-1.09-.75-4.25,7.75,2.82,4.14,14.44,2.75,21Z"/>
          <path class="cls-56" d="m224.35,317.55c.52,7.49-4.48,6.75-10.5,6.25,1.56-1.9,3.46-3.3,5-5.25.34-.43.89-.9,1-1.5,2.13-.11,4.58-.19,4.5.5Z"/>
          <path class="cls-8" d="m139.85,190.05c-1.67,7.15,1.53,6.73-3,8-1.27-1.03-.21-2.94,0-4,.33-1.67.08-5.02,3-4Z"/>
          <path class="cls-8" d="m140.85,174.05c-.2.23.53.71.5.75-.57.72-1.15.56-2.5,2.75-1.64,2.65-1.4,3.28-1.5,3.5-.02.05-.79.44-1,.5-.04-.11.02-.31,0-.5-.21-2.11,1.7-7.08,4.5-7Z"/>
          <g>
            <path class="cls-39" d="m215.35,221.55c-.1.04,0,.44-2,1-3.61,1.01-4.83.86-8.5.5,3.46.29,6.82-.62,10-2l.5.5Z"/>
            <path class="cls-47" d="m222.85,190.05c5.66,10.29,3.71,25.94-8,31-3.18,1.38-6.54,2.29-10,2-1.29-.13-3.18-.68-4.5-1,1.38-3.71-7.27-1.96-9.5-10.25-2.28-8.49,3.17-20.44,11.75-23.25,9.06-2.96,17.02,1.4,15.75-1.5,1.62.93,2.67,1.07,4.5,3Z"/>
            <path class="cls-22" d="m209.35,183.55c5.27.73,4.91,1.16,9,3.5,1.27,2.9-6.69-1.46-15.75,1.5-8.58,2.81-14.03,14.76-11.75,23.25,2.23,8.29,10.88,6.54,9.5,10.25-2.3-.55-4.87-.86-7-2-.25-.13-4.23-3.22-4.5-3.5-.63-.66-3.22-4.71-3.5-5.5-.65-1.85-.89-3.03-1-5-.3-5.21,1.22-10.84,4.5-15,.37-.46,3.86-3.57,4.5-4,1.44-.96,6.4-3.18,8-3.5,3.09-.62,4.95-.42,8,0Z"/>
          </g>
          <path class="cls-35" d="m155.85,199.55c0,.21-1.04,3.25-1,4-9.34,1.59-7.32-9.5-4.25-10,3.67-.6,5.16,3.21,5.25,6Z"/>
          <path class="cls-51" d="m154.85,205.55c.04,2.55.87,5.33,1,8-6.61,4.84-10.93-12.56-1-8Z"/>
          <path class="cls-52" d="m156.35,200.55c-.26,3.29-.5,8.11,1,11-.34.21-.99,2.37-1,2.5.05-.62-.5-.46-.5-.5-.13-2.67-.96-5.45-1-8,0-.37.06-.67,0-2-.04-.75,1.01-3.79,1-4l.5,1Z"/>
          <path class="cls-39" d="m275.85,171.55c1.81,1.26,3.39,2.78,4,5-.84.08-2.02-1.12-3-2-.66-.59-2.14-2.5-3-3h2Z"/>
          <g>
            <path class="cls-22" d="m276.85,174.55c.98.88,2.16,2.08,3,2,1.3,1.12-4.33,1.12-5.25.5-.61.44-.05,2.71-.25,3.5-.68,2.68-.69,2.72-3,4.5-1.05.81-2.38.94-2.5,1-1.14.61-1.69.55-2,2-2.91-2.69-3.01-5.82-5-8.5,3.03.53-7.6-11.01-7-8-.52-.66-1.84-1.29-1.5-3,1.03.49,2.81.5,3.25,2,2.01-.44,9.42,1.19,12,2,2.76.86,6.15,4.97,8.25,2Z"/>
            <path class="cls-28" d="m261.85,179.55c-2.11-2.84-4.83-5.24-7-8-.6-3.01,10.03,8.53,7,8Z"/>
            <path class="cls-12" d="m272.35,178.55c.77,2.78-11.58-2.04-11-5,1.9,1.18,5.23,1.75,6.75,2.5,2.45,1.21,3.56,3.49,4.25,2.5Z"/>
            <path class="cls-2" d="m272.35,178.55c-.69.99-1.8-1.29-4.25-2.5-1.52-.75-4.85-1.32-6.75-2.5-.68-.42-1.22-.97-2-1.25.29-.88,12.49,3.6,13,6.25Z"/>
            <path class="cls-20" d="m266.6,182.05l4.75.25c-1.11,1.84-4.13,1.71-4.75-.25Z"/>
          </g>
          <path class="cls-7" d="m188.85,191.05c-3.28,4.16-4.8,9.79-4.5,15-3.35,2.02-7.35,2.04-9.25,2.5-.49.12-.01,1.4-.5,1.5-1.66.33-11.83-1.84-14.75,1.5-.75-4.2-1.19-6.54-1-11,18.92,2,29.67-17.16,16-31,2.3-1.92,4.36-3.55,7-5,11.78,11.49,8.21,13.48,7,26.5Z"/>
          <path class="cls-32" d="m158.85,200.55c.53-12.77,6.35-22.92,16-31,13.67,13.84,2.92,33-16,31Z"/>
          <path class="cls-56" d="m185.35,211.05c-1.47.1-3.04.38-4.5.5-6.83.55-14.15-.34-20.5,1-.01-.05-.25.4-.5-1,2.92-3.34,13.09-1.17,14.75-1.5.49-.1,0-1.38.5-1.5,1.9-.46,5.9-.48,9.25-2.5.11,1.97.35,3.15,1,5Z"/>
          <path class="cls-45" d="m180.85,211.55c-.16.61,1.14.51,1,.75-2.07,3.57-18.1-.44-17.5,3.25-1.49-.03-1.56.41-2,.5-.46.1-1.02-.06-1.5,0-.31-.95-.3-2.59-.5-3.5,6.35-1.34,13.67-.45,20.5-1Z"/>
          <path class="cls-20" d="m185.35,211.05c.28.79,2.87,4.84,3.5,5.5-2.62,1.96-6.84.89-10,1,1.51-2.29-7.96-1.85-14.5-2-.6-3.69,15.43.32,17.5-3.25.14-.24-1.16-.14-1-.75,1.46-.12,3.03-.4,4.5-.5Z"/>
          <path class="cls-20" d="m164.35,215.55c6.54.15,16.01-.29,14.5,2-5.08.17-15.08,2.19-16.5-1.5.44-.09.51-.53,2-.5Z"/>
          <path class="cls-39" d="m201.35,183.55c-1.6.32-6.56,2.54-8,3.5-.35-.88-1.04.02-1-1.75.11-4.62,5.49-7.89-7-22.25,1.24-.53,6.85-3.41,7.75-3,6.64,8.34,10.35,11.64,8.25,23.5Z"/>
          <path class="cls-56" d="m185.35,163.05c12.49,14.36,7.11,17.63,7,22.25-.04,1.77.65.87,1,1.75-.64.43-4.13,3.54-4.5,4,1.21-13.02,4.78-15.01-7-26.5,1.16-.64,2.31-.99,3.5-1.5Z"/>
          <path class="cls-39" d="m138.85,177.55c1.35-2.19,1.93-2.03,2.5-2.75.03-.04-.7-.52-.5-.75,3.08-3.44,8.59-4,13-5.25-5.41,3.28-10.23,4.18-15,8.75Z"/>
          <path class="cls-7" d="m202.85,317.05c-.19,2.39.13,4.85,0,7.25-12.61-.69-14.42,2.53-16.5-7.75,5.47.31,11.07-.64,16.5.5Z"/>
          <path class="cls-56" d="m211.35,323.05c-.06.06.09.72-.5,1.5-1.65-.19-5.61.29-6.25,0-2.66-1.18-.57-10.79,6.75-1.5Z"/>
          <g>
            <path class="cls-8" d="m132.35,169.55c-4.22.69-8.27,8.73-9,12.5l-4,.5c-.04-.59-1.73-4.95-2.25-5-.45.33-1.32,1.49-1.5,1.5-13.02.96-26.29,2.94-39.5,4l-2,6.5c5.39-.24,10.87.33,16.25,0l-2,5.5c-1.9-.14-16.01-.4-16.75,0-.34.18-2.34,6.91-1.5,7.5,10.76.29,21.51,2.08,32.25,2.5.61.99.69,2.43.5,3.5-.12.67-.97,1.02-1,1.25-1.88,12.2,1.39,10.71-6.5,10.75-4.5.03-23.61-.85-26.5-1.5-.68-.15-2.01.31-2.5-.25-.92-3.97.96-3.04,1-3.25,6.98.55,25.7,3.11,29.25,3,4.18-.13,4.22-.16,4-9.5l-31.25-1.5c.04-.75-.98-.36-1-.75-.66-10.73-2.54.88-9.5,12.75-.72.16-.91,1.1-1.75,1-1.61-1.34,5.4-26.67,6.75-30.25,6.9-18.31,9.2-13.95,31.5-17.25,5.43-.8,34.42-5.05,36.75-4.5.37.09.25.66.25,1Z"/>
            <path class="cls-8" d="m123.35,182.05c-1.73,8.9,1.77,26.85,3.5,36.5-.81,1.4-4.94,1.88-7,2,8.39-2.4,5.63-6.34.25-13.5-1.11-.22-1.91.91-3.25,1,1.31-3.23-3.61-.87-3.5-3,.49,0,7.61,1.98,8.5-2.75.64-3.39-3.84-8.03-5.5-11,1.78-1.81,3.17-6.35,3-8.75l4-.5Z"/>
            <path class="cls-2" d="m69.35,207.55c0,.05-.97-.16-1,.25-.18,2.26-.62,5.53-1,7.75-.04.21-1.92-.72-1,3.25.49.56,1.82.1,2.5.25l-.5,1.5c-7.33-.88-3.4-2.97-4.75-4-.33-.25-2.14,2.41-4.75,3,6.96-11.87,8.84-23.48,9.5-12.75.02.39,1.04,0,1,.75Z"/>
            <path class="cls-23" d="m119.35,182.55c.17,2.4-1.22,6.94-3,8.75,1.66,2.97,6.14,7.61,5.5,11-.89,4.73-8.01,2.76-8.5,2.75-3.21-.04-6.31-.4-9.5-.5-2.28-4.81.33-4.26.5-4.5-1.88,2.57,8.61,1.02,15,2.5,2.02-.72-6.17-9.32-6.75-9.5-.28-.09-.69,1-.75,1-1.07.07-1.87-1.48-6.5,4.5-.24-2.31,1.07-2.11-1-4.5,3.7-1.18,7.15-4.18,11.25-3.5,3.02-2.85-1.01-3.82-1.25-4,3.43-5.18-2.13-8.08-5.5-3.5-4.08-.42-13.5,2.27-19.25,1.5-.36.3-.58.54-.75,1-1.94,5.18,3.93.1,5,2.5-1.96-.34-3.44,1.04-1.5,1-.92.36,1.25.3-2,.5-5.38.33-10.86-.24-16.25,0l2-6.5c13.21-1.06,26.48-3.04,39.5-4,.18-.01,1.05-1.17,1.5-1.5.52.05,2.21,4.41,2.25,5Z"/>
            <path class="cls-22" d="m69.35,207.55l31.25,1.5c.22,9.34.18,9.37-4,9.5-3.55.11-22.27-2.45-29.25-3,.38-2.22.82-5.49,1-7.75.03-.41,1-.2,1-.25Z"/>
            <path class="cls-22" d="m104.35,194.05c2.07,2.39.76,2.19,1,4.5-.35.45-.67,1.02-1,1.5-.17.24-2.78-.31-.5,4.5-1.06-.03-1.1.52-1.5.5-10.74-.42-21.49-2.21-32.25-2.5-.84-.59,1.16-7.32,1.5-7.5.74-.4,14.85-.14,16.75,0,.97.07,1.47.7,2.5.5-.5.89-.81,1.05.5,1,2.66,1.43,9.18-1.28,13-2.5Z"/>
            <path class="cls-47" d="m114.35,186.55c.24.18,4.27,1.15,1.25,4-4.1-.68-7.55,2.32-11.25,3.5-3.82,1.22-10.34,3.93-13,2.5l5-6.75-5.5,5.75c-1.03.2-1.53-.43-2.5-.5l2-5.5c3.25-.2,1.08-.14,2-.5.39-.15,1.92-.05,1.5-1-1.07-2.4-6.94,2.68-5-2.5,3.28-.49,19.77-.66,20.75-1,.39-.14.25-.67.25-1,5.89,1.56,2.79,2.51,3,2.75,1.13,1.27,1.18.01,1.5.25Z"/>
            <path class="cls-18" d="m103.85,204.55c3.19.1,6.29.46,9.5.5-.11,2.13,4.81-.23,3.5,3-4.68.3-9.29.81-14,.5.19-1.07.11-2.51-.5-3.5.4.02.44-.53,1.5-.5Z"/>
            <g>
              <path class="cls-22" d="m119.85,220.55c-.08.02.33.08-1.5.5-1.09.25-3.26-.16-4.75,0-.39.04-.11.97-.5,1-3.22.28-13.04-.41-17.75-.5v-1c7.89-.04,4.62,1.45,6.5-10.75.03-.23.88-.58,1-1.25,4.71.31,9.32-.2,14-.5,1.34-.09,2.14-1.22,3.25-1,5.38,7.16,8.14,11.1-.25,13.5Z"/>
              <path class="cls-18" d="m115.35,209.55l.5,5.5c-.64.42-12.79.46-10.25-6,.41-.27,9.21.18,9.75.5Z"/>
              <path class="cls-7" d="m115.85,215.05l-.5-5.5c1.98,1.16,2.23,4.36.5,5.5Z"/>
            </g>
            <path class="cls-42" d="m111.85,194.05l7.5,8.5c-6.39-1.48-16.88.07-15-2.5.33-.48.65-1.05,1-1.5,4.63-5.98,5.43-4.43,6.5-4.5Z"/>
            <path class="cls-39" d="m108.85,183.05c.43.04.51.37,1,.5,0,.33.14.86-.25,1-.98.34-17.47.51-20.75,1,.17-.46.39-.7.75-1,5.75.77,15.17-1.92,19.25-1.5Z"/>
            <path class="cls-8" d="m114.35,186.55c-.32-.24-.37,1.02-1.5-.25-.21-.24,2.89-1.19-3-2.75-.49-.13-.57-.46-1-.5,3.37-4.58,8.93-1.68,5.5,3.5Z"/>
            <path class="cls-17" d="m119.35,202.55l-7.5-8.5c.06,0,.47-1.09.75-1,.58.18,8.77,8.78,6.75,9.5Z"/>
            <path class="cls-8" d="m93.85,188.05c.42.95-1.11.85-1.5,1-1.94.04-.46-1.34,1.5-1Z"/>
            <path class="cls-56" d="m91.35,196.55c-1.31.05-1-.11-.5-1l5.5-5.75-5,6.75Z"/>
          </g>
          <g>
            <path class="cls-8" d="m334.35,179.05c3.08,4.81,3.95,4.24,7.5,14,.4,7.76,2.67,15.9,2,24-3.05,5.15-3.72.9-9.5.5,6.1.09,5.72-2.42,4.5-8-.57-2.6-1.22-4.09-3.5-5,.75-.11,2.5-.06,2.5-1.25l-4.75-7.75c-3.45-.32-6.83.3-10.25.5l-3.5-4.5c1.74.02,13.05.71,13.5-.25,1.56-12.83-25.56-10.73-35.25-11.75-9.18-7.36-7.73,7.96-13.25,3.5-1.04-7.82-2.33-9.84-9-13.5-4.68-2.57-5.27-2.62,6.75-1,17.53,2.36,34.99,6.67,52.25,10.5Z"/>
            <path class="cls-30" d="m347.35,217.55c.43,3.7-2.13,2.13-4.5,2.5.66-1.08.89-1.72,1-3,.67-8.1-1.6-16.24-2-24,2.89,7.95,4.64,16.1,5.5,24.5Z"/>
            <path class="cls-8" d="m289.35,190.55c-.03.5.04,1.01,0,1.5-.26,2.98-8.12,12.07,0,15.5,3.46,1.46,8.05-1.13,11.25,0,.18.06,1.72,2.87,2.5,3,.97.16,1.17-1,1.25-1,2.76-.16,6.09-1.1,7.5,0-2.35.49-5.96-.17-7,1.5-.1.16-.29,2.46-.75,3.5-5.38-8.01-10.55-8.41-1.25-.25l-.75.75c-14.11-14.85-20.56,2.92-14.5,6,1.35.69,9.03-.26,11.25-.5,1.58,2.44-1.69,1.35-1.5,3-7.18.67-14.34,1.9-21.5,2.75,2.99-7.02,5.38-14.52,7-22,3.89-17.91.86-25.94,6.5-13.75Z"/>
            <path class="cls-17" d="m343.85,217.05c-.11,1.28-.34,1.92-1,3-11.15,1.75-32.12,2.26-45.5,3.5-.19-1.65,3.08-.56,1.5-3,11.22-1.21,5.25-1.46,7.25-3,.51-.4,2.35,1.48,2.5,1.5,5,.72,19.01-1.97,25.75-1.5,5.78.4,6.45,4.65,9.5-.5Z"/>
            <path class="cls-17" d="m335.35,204.55c2.28.91,2.93,2.4,3.5,5l-34,1.5c1.04-1.67,4.65-1.01,7-1.5,4.45-.94,4.09.33,7.5-4,4.76-.44,12.16-.41,16-1Z"/>
            <path class="cls-17" d="m319.35,205.55c-3.41,4.33-3.05,3.06-7.5,4-1.41-1.1-4.74-.16-7.5,0l-2.25-2.5c5.78-.12,11.51-.97,17.25-1.5Z"/>
            <g>
              <path class="cls-22" d="m304.85,211.05l34-1.5c1.22,5.58,1.6,8.09-4.5,8-6.74-.47-20.75,2.22-25.75,1.5-.15-.02-1.99-1.9-2.5-1.5-2,1.54,3.97,1.79-7.25,3-2.22.24-9.9,1.19-11.25.5-6.06-3.08.39-20.85,14.5-6l.75-.75c-9.3-8.16-4.13-7.76,1.25.25.46-1.04.65-3.34.75-3.5Z"/>
              <path class="cls-8" d="m290.1,210.55c2.99-1.82,6.03,6.42,5,6.5l-5-6.5Z"/>
            </g>
            <g>
              <path class="cls-28" d="m319.35,191.55l3.5,4.5c-4.99.29-14.41,2.09-18.5,2,2.81-8.34-2.23-3.28-15-6,.04-.49-.03-1,0-1.5,9.79-3.67,5.21-8.1,7.25-9,2.38-1.05,15.37,2.24,16.75,4.75.53.97,1.22,2.7.25,3.25-14.05,2.5-.91,1.91,5.75,2Z"/>
              <path class="cls-22" d="m300.35,195.05c-1.8.26-.43,1.79,1,2.5,1.3.65,1.68.47,3,.5,4.09.09,13.51-1.71,18.5-2,3.42-.2,6.8-.82,10.25-.5l4.75,7.75c0,1.19-1.75,1.14-2.5,1.25-3.84.59-11.24.56-16,1-5.74.53-11.47,1.38-17.25,1.5l2.25,2.5c-.08,0-.28,1.16-1.25,1-.78-.13-2.32-2.94-2.5-3-3.2-1.13-7.79,1.46-11.25,0,.48-.83,1.61-2.23,2-3,1.11,2.84,8.95-3.22,9-3.75.03-.28-2.79-4.56-3-4.75,1.81-4.22,2.79-1.05,3-1Z"/>
              <path class="cls-47" d="m304.35,198.05c-1.32-.03-1.7.15-3-.5,3.65-3.55,1.24-1.98-1-2.5-.21-.05-1.19-3.22-3,1-.12-.11-2.01-.9-3-1-2.66-.26-5.78,8.59-3.25,8.5.35-.01.61-1.71.75-2,1.59,1.69-.23,2.48-.5,3-.39.77-1.52,2.17-2,3-8.12-3.43-.26-12.52,0-15.5,12.77,2.72,17.81-2.34,15,6Z"/>
              <path class="cls-18" d="m297.35,196.05c.21.19,3.03,4.47,3,4.75-.05.53-7.89,6.59-9,3.75.27-.52,2.09-1.31.5-3,.98-2.08,1.72-4.33,2.5-6.5.99.1,2.88.89,3,1Z"/>
              <path class="cls-56" d="m300.35,195.05c2.24.52,4.65-1.05,1,2.5-1.43-.71-2.8-2.24-1-2.5Z"/>
              <path class="cls-8" d="m294.35,195.05c-.78,2.17-1.52,4.42-2.5,6.5-.14.29-.4,1.99-.75,2-2.53.09.59-8.76,3.25-8.5Z"/>
            </g>
          </g>
          <g>
            <path class="cls-8" d="m168.85,172.55c-6.82,6.99-11.74,18.46-12.5,28l-.5-1c-.09-2.79-1.58-6.6-5.25-6-3.07.5-5.09,11.59,4.25,10,.06,1.33,0,1.63,0,2-9.93-4.56-5.61,12.84,1,8,0,.04.55-.12.5.5-.01.16,0,.33,0,.5-5.9.99-5.33,3.2-1,11.75,3.26,6.43,8.67,11.76,13.75,16.75,1.78.33,9.11-9.05,1.75.75l.75.75c5.69,3.85,11.94,6.77,18.75,8v1c-29.84-5.82-53.09-40.22-41-69.5,1.17-1.78,2.7-3.32,4-5,1.67-.12.33.39.5,2-3.04,3.29.18,1.52,6.25,1,2.31-4.03,5.11-7.6,8.25-11l.5,1.5Z"/>
            <path class="cls-52" d="m156.85,189.55c-2.89-3.76-.51,1.22-3-.5-.6-1.69,3.42-3.89-.25-3.5-2.61.28-2.21,3.27-2.25,3.5,0,.06-.69-.18-.5,1-2.35-5.14,4.07-5.95,8.25-6.5.9.36-1.97,5.19-2.25,6Z"/>
            <path class="cls-22" d="m156.85,189.55c-.22.63-.13,3.61-.75,5-2.29-1.56-4.05-1.88-5.25-4.5-.19-1.18.49-.94.5-1,6.9,6.41,3.06,1.58,2.5,0,2.49,1.72.11-3.26,3,.5Z"/>
            <path class="cls-54" d="m153.85,189.05c.56,1.58,4.4,6.41-2.5,0,.04-.23-.36-3.22,2.25-3.5,3.67-.39-.35,1.81.25,3.5Z"/>
          </g>
          <g>
            <path class="cls-56" d="m203.85,309.05c.03,2.5-.02,5,0,7.5-.05,0-.31.77-1,0,.18-2.72.49-5.23.5-8,.21-.84.49-.59.5.5Z"/>
            <g>
              <path class="cls-22" d="m248.35,269.55c-1.79,4.72-4.41,16.2-2,17-1.2,2.6-1.28,5.86-2,8.5-.42,1.53-.62,3.01-1,4.5-1.76,6.85-3.92,13.59-5.5,20.5-.53,2.32-.76,4.72-1.5,7-.44-2.11.24-2.61,0-3.75-.1-.49-1.41-.13-1.5-.25-.09-.12,1.35-1.61-1-.75.72.58-1.34,3.85-2.5,6.75l-.25-3.5c-.75.18-1.74.98-2.25,1.5-.67-5.32,4.99-8.87,8-18.75.58-1.92,3.14-13.58,1.5-12.75,1.39-6.56,5-18.18-2.75-21-8.74,3.16-.34.84.75,4.25.87,2.71-4.33,38.49-12,38.75.08-.69-2.37-.61-4.5-.5-5.03.25-11.03.39-16-.5-.02-2.5.03-5,0-7.5l23.25-1c-.28-5.09-6.42-2.89-9.75-3-2.28-.07-12.31.18-13.5-1h2.5l25,.25c.88-4.55,3.24-9.12,2.75-13.75-.71-.95-20.78,2.45-23.25,3,1.38-3.3,3.18-7.5-2-7.5-4.12,0-3.77,4.45-2,6.5-1.83,1.22-1.64,1.52-1.75,1.5-.51-.1.27-1.85-1.25-1.5.16-2.49-.64-13.36.75-14.5,8.68-1.63,25.84-1.3,32.75-5.5,3.22,3.52,7.15-4.46,11-3Z"/>
              <path class="cls-22" d="m206.35,304.05v-9.75c.26-.36,3.74-.58,4.5-.75,2.47-.55,22.54-3.95,23.25-3,.49,4.63-1.87,9.2-2.75,13.75l-25-.25Z"/>
              <path class="cls-23" d="m203.85,309.05c-.01-1.09-.29-1.34-.5-.5,0-.7-2.25-.39,1-2.5,4.17-.15,9.48.67,13-1,3.33.11,9.47-2.09,9.75,3l-23.25,1Z"/>
              <path class="cls-47" d="m210.85,293.55c-.76.17-4.24.39-4.5.75v9.75h-2.5c-.97-.96-.34-2.33-.5-3.5.65-2.65.33-5.34.5-8,1.52-.35.74,1.4,1.25,1.5.11.02-.08-.28,1.75-1.5.65-.43,1.03-.88,1.5-1.5,1.02-1.34,2.39-2.72.5-4.5v-.5c5.18,0,3.38,4.2,2,7.5Z"/>
              <path class="cls-8" d="m208.85,286.05v.5l-.5,4.5c-.47.62-.85,1.07-1.5,1.5-1.77-2.05-2.12-6.5,2-6.5Z"/>
              <path class="cls-3" d="m208.35,291.05l.5-4.5c1.89,1.78.52,3.16-.5,4.5Z"/>
            </g>
            <g>
              <path class="cls-2" d="m203.85,304.05c1.19,1.18,11.22.93,13.5,1-3.52,1.67-8.83.85-13,1-.24,0-1.9-2.26-3.75,1-7.23-1.62-14.32,1.24-21.75-.5-1.89-.8-.46-1.57-.5-2h23.25c.46-.16.16-.91.25-1,.09-.09.79.21,1-.25-.27-3.04.47-2.61.5-2.75.16,1.17-.47,2.54.5,3.5Z"/>
              <path class="cls-22" d="m174.85,280.55c1.79-.13,6.42-.87,6.5,1-2.95.13-5.8.53-8.75.5l-.75.75c.57.78.99.69,1,.75.46,4.04,2.15,20.46,3.75,22.5,2.44,1.64,2.14.47,2.25.5,7.43,1.74,14.52-1.12,21.75.5,1.85-3.26,3.51-.99,3.75-1-3.25,2.11-1,1.8-1,2.5,0,2.77-.32,5.28-.5,8-.01.17.01.33,0,.5-5.43-1.14-11.03-.19-16.5-.5-1.29-.07-2.83.17-4,0-10.93-1.55-9.29-26.32-12-34.75,1.74-2.38,2.1-1.07,4.5-1.25Z"/>
              <path class="cls-22" d="m201.85,303.55c-.09.09.21.84-.25,1h-23.25c-.01-.17.01-.33,0-.5,3.4.31,4.15-.08,4.5-3.5,2.35-2.25,4.56-5.14,7.25-7,2.73-1.89,6.75-2.37,6.75-4,6.06-.1,5.61-.48,4.5-10l1,.25-.5,23.75Z"/>
              <path class="cls-28" d="m201.35,279.55c1.11,9.52,1.56,9.9-4.5,10-.7.01-4.73-.94-9-.5l-.5-7.5c5.96-.18,14.51.76,13-2,.32.05.67-.02,1,0Z"/>
              <path class="cls-22" d="m200.35,279.55c1.51,2.76-7.04,1.82-13,2-2,.06-4.01-.09-6,0-.08-1.87-4.71-1.13-6.5-1-5.06-5.3,5.12-1.75,8.75-1.5,5,.34,14.45.12,16.75.5Z"/>
              <path class="cls-20" d="m176.85,285.05c.66,6.32,1.03,12.66,1.5,19,.01.17-.01.33,0,.5.04.43-1.39,1.2.5,2-.11-.03.19,1.14-2.25-.5-1.6-2.04-3.29-18.46-3.75-22.5,1.95-1.09,3.79,1.42,4,1.5Z"/>
              <path class="cls-42" d="m181.35,281.55c1.99-.09,4,.06,6,0l.5,7.5h-4.5c.39-5.9-3.4-2.81-4-3-.76-.24-1.69-.71-2.5-1-.21-.08-2.05-2.59-4-1.5,0-.06-.43.03-1-.75l.75-.75c2.95.03,5.8-.37,8.75-.5Z"/>
              <path class="cls-22" d="m187.85,289.05c4.27-.44,8.3.51,9,.5,0,1.63-4.02,2.11-6.75,4-2.69,1.86-4.9,4.75-7.25,7,.28-2.81-1.01-7.5-1-8.5.01-.72,1.35-.65,1.5-3h4.5Z"/>
              <path class="cls-28" d="m179.35,286.05c-2.16,1.96-1.44,7.01,2.5,6-.01,1,1.28,5.69,1,8.5-.35,3.42-1.1,3.81-4.5,3.5-.47-6.34-.84-12.68-1.5-19,.81.29,1.74.76,2.5,1Z"/>
              <path class="cls-8" d="m183.35,289.05c-.15,2.35-1.49,2.28-1.5,3-3.94,1.01-4.66-4.04-2.5-6,.6.19,4.39-2.9,4,3Z"/>
            </g>
          </g>
        </g>
      </g>
    </g>
  </g>
</svg>