<?xml version="1.0" encoding="UTF-8"?>
<svg id="_Шар_2" data-name="Шар 2" xmlns="http://www.w3.org/2000/svg" xmlns:xlink="http://www.w3.org/1999/xlink" viewBox="0 0 511.94 438.91">
  <defs>
    <style>
      .cls-1 {
        fill: #874e36;
      }

      .cls-1, .cls-2, .cls-3, .cls-4, .cls-5, .cls-6, .cls-7, .cls-8, .cls-9, .cls-10, .cls-11, .cls-12, .cls-13, .cls-14, .cls-15, .cls-16, .cls-17, .cls-18, .cls-19, .cls-20, .cls-21, .cls-22, .cls-23, .cls-24, .cls-25, .cls-26, .cls-27, .cls-28, .cls-29, .cls-30, .cls-31, .cls-32, .cls-33, .cls-34, .cls-35, .cls-36, .cls-37, .cls-38, .cls-39, .cls-40, .cls-41, .cls-42, .cls-43, .cls-44, .cls-45, .cls-46, .cls-47, .cls-48, .cls-49, .cls-50, .cls-51, .cls-52 {
        stroke-width: 0px;
      }

      .cls-2 {
        fill: #a95d39;
      }

      .cls-3 {
        fill: #a0a6a9;
      }

      .cls-4 {
        fill: #cacfd3;
      }

      .cls-5 {
        fill: #efcbba;
      }

      .cls-6 {
        fill: #e3e7e9;
      }

      .cls-7 {
        fill: #d6b79d;
      }

      .cls-8 {
        fill: #fcfcfb;
      }

      .cls-9 {
        fill: #d98176;
      }

      .cls-10 {
        fill: #d4ccce;
      }

      .cls-11 {
        fill: url(#_Градієнт_без_назви_59);
      }

      .cls-12 {
        fill: #caa494;
      }

      .cls-13 {
        fill: #4a221d;
      }

      .cls-14 {
        fill: #272725;
      }

      .cls-15 {
        fill: url(#_Градієнт_без_назви_58);
      }

      .cls-16 {
        fill: #524943;
      }

      .cls-17 {
        fill: #613f2e;
      }

      .cls-18 {
        fill: #7a543b;
      }

      .cls-19 {
        fill: #58352e;
      }

      .cls-20 {
        fill: #9d5e4b;
      }

      .cls-21 {
        fill: #724941;
      }

      .cls-22 {
        fill: #626a65;
      }

      .cls-23 {
        fill: #311008;
      }

      .cls-24 {
        fill: #b1a4a1;
      }

      .cls-25 {
        fill: #3e413f;
      }

      .cls-26 {
        fill: url(#_Градієнт_без_назви_57);
      }

      .cls-27 {
        fill: #f7ece0;
      }

      .cls-28 {
        fill: #831922;
      }

      .cls-29 {
        fill: #83381d;
      }

      .cls-30 {
        fill: #b77559;
      }

      .cls-31 {
        fill: #481507;
      }

      .cls-32 {
        fill: #f3ddcb;
      }

      .cls-33 {
        fill: #1a0b06;
      }

      .cls-34 {
        fill: #8c674d;
      }

      .cls-35 {
        fill: #bf8e7d;
      }

      .cls-36 {
        fill: #582a1c;
      }

      .cls-37 {
        fill: #b37843;
      }

      .cls-38 {
        fill: #747a7d;
      }

      .cls-39 {
        fill: #3c2015;
      }

      .cls-40 {
        fill: #c08565;
      }

      .cls-41 {
        fill: #8d665e;
      }

      .cls-42 {
        fill: #818686;
      }

      .cls-43 {
        fill: #505552;
      }

      .cls-44 {
        fill: #2a3136;
      }

      .cls-45 {
        fill: #9e7064;
      }

      .cls-46 {
        fill: #c8c0b9;
      }

      .cls-47 {
        fill: #0b0b0a;
      }

      .cls-48 {
        fill: #947360;
      }

      .cls-49 {
        fill: #9e826c;
      }

      .cls-50 {
        fill: #6c3528;
      }

      .cls-51 {
        fill: #c5a388;
      }

      .cls-52 {
        fill: #af907d;
      }
    </style>
    <linearGradient id="_Градієнт_без_назви_57" data-name="Градієнт без назви 57" x1="123.68" y1="113.07" x2="134.29" y2="119.68" gradientUnits="userSpaceOnUse">
      <stop offset="0" stop-color="#ebceb9"/>
      <stop offset="1" stop-color="#cca78d"/>
    </linearGradient>
    <linearGradient id="_Градієнт_без_назви_58" data-name="Градієнт без назви 58" x1="96.39" y1="166.72" x2="126.78" y2="199.21" gradientUnits="userSpaceOnUse">
      <stop offset="0" stop-color="#dab9a2"/>
      <stop offset="1" stop-color="#faeee2"/>
    </linearGradient>
    <linearGradient id="_Градієнт_без_назви_59" data-name="Градієнт без назви 59" x1="267.76" y1="174.12" x2="238.14" y2="189.75" gradientUnits="userSpaceOnUse">
      <stop offset="0" stop-color="#2e3535"/>
      <stop offset="1" stop-color="#030303"/>
    </linearGradient>
  </defs>
  <g id="_Шар_1-2" data-name="Шар 1">
    <g>
      <g>
        <path class="cls-4" d="m340.46,438.85c-42.16.02-84.32.02-126.49,0l-1.5-3c10.76-.09,21.53.05,32.25-.5.46-.02.04-1.48.5-1.5,31.47-1.52,63.01.55,94.49,0l.75,5Z"/>
        <path class="cls-4" d="m212.48,435.85l1.5,3c-7.83,0-15.66,0-23.5,0h-5.5c-1.33,0-2.67,0-4,0h-3c-25.66-.01-51.33.03-76.99,0-.5,0-1,0-1.5,0-10.5-.01-21,.02-31.5,0l-.5-2.5c.99-.02,5.31-.99,6.25-1,46.24-.67,92.51.88,138.74.5Z"/>
        <path class="cls-4" d="m469.95,438.85c-1.83,0-3.67,0-5.5,0h-3.5c-12.33.04-24.66-.03-37,0l-.5-4c6.27.07,43.1-.73,45.25,0,1.11.38-.04,3.31,1.25,4Z"/>
        <path class="cls-6" d="m46,435.85l.5,3c-15.5-.05-31,.04-46.5,0v-3.5c5.24.22,28.01-.2,30.25.5.23.07,1.76,2.7,2.5,2.5,1.39-.39.25-2.37.5-2.5.56-.3,10.92,0,12.75,0Z"/>
        <path class="cls-4" d="m423.45,434.86l.5,4h-14.5c-.83,0-1.67,0-2.5,0,.95-2.41-7.95-2.41-7,0-1.17,0-2.33,0-3.5,0-.5,0-1,0-1.5,0-.17,0-.33,0-.5,0-1.41-5.25-9.07,2.93-4.5-4,11.27-.19,22.23-.13,33.5,0Z"/>
        <path class="cls-6" d="m511.94,432.86v6c-1.32.07-2.68-.1-4,0h-5.5c-.67.01-1.33-.01-2,0-.47,0-.97,0-1.5,0-.83.01-1.67-.01-2.5,0h-3c-2.17.02-4.33-.02-6.5,0h-4.5c-1.83.01-3.67,0-5.5,0-1.14-.03-6.57-1.51-3.25-3,1.22-.55,14.01,2.35,17.5-.5,3.8,4.78,9.27-1.55,10-1,.54.41-.18,1.94,1,2.5,5.04,2.37,6.55-3.45,9.75-4Z"/>
        <path class="cls-4" d="m389.96,434.86c-4.57,6.93,3.09-1.25,4.5,4-1,0-2,0-3,0-.5,0-1,0-1.5,0-1.17,0-2.33,0-3.5,0-.13-1.33-5.37-1.33-5.5,0-2.83,0-5.67,0-8.5,0-2.22-7.34,7.85-3.83,17.5-4Z"/>
        <path class="cls-4" d="m358.96,438.85c-1.33,0-2.67,0-4,0-.14-2.7-4.55-2.15-5.5,0-1.33,0-2.67,0-4,0-.67,0-1.33,0-2,0-.33,0-.67,0-1,0,.17-.93-.34-4.08.25-4.5.63-.45,14.84-.41,15.5,0,1.06.66-1.29,2.72.75,4.5Z"/>
        <path class="cls-4" d="m67.49,436.35l.5,2.5c-7.17-.02-14.33.02-21.5,0l-.5-3c7.1.04,14.38.62,21.5.5Z"/>
        <path class="cls-4" d="m371.46,438.85c-3.5,0-7,0-10.5,0-2.69-5.29,6.56-5.45,8.75-4.5,1.33.58.12,3.2,1.75,4.5Z"/>
        <path class="cls-3" d="m406.96,438.85c-2.33,0-4.67,0-7,0-.95-2.41,7.95-2.41,7,0Z"/>
        <path class="cls-3" d="m354.96,438.85c-1.83,0-3.67,0-5.5,0,.95-2.15,5.36-2.7,5.5,0Z"/>
        <path class="cls-42" d="m386.46,438.85c-1.83,0-3.67,0-5.5,0,.13-1.33,5.37-1.33,5.5,0Z"/>
        <path class="cls-42" d="m507.95,438.85c-1.8.14-3.68-.04-5.5,0h5.5Z"/>
        <path class="cls-42" d="m190.48,438.85c-1.83,0-3.67,0-5.5,0h5.5Z"/>
        <path class="cls-38" d="m486.95,438.85c-1.5.01-3,0-4.5,0h4.5Z"/>
        <path class="cls-42" d="m464.45,438.85c-1.17,0-2.33,0-3.5,0h3.5Z"/>
        <path class="cls-3" d="m180.98,438.85c-1,0-2,0-3,0h3Z"/>
        <path class="cls-42" d="m412.46,438.85c-1,0-2,0-3,0h3Z"/>
        <path class="cls-42" d="m496.45,438.85c-1,.01-2,0-3,0h3Z"/>
        <path class="cls-38" d="m345.46,438.85h-2c.67,0,1.33,0,2,0Z"/>
        <path class="cls-42" d="m391.46,438.85h-1.5c.5,0,1,0,1.5,0Z"/>
        <path class="cls-3" d="m396.46,438.85h-1.5c.5,0,1,0,1.5,0Z"/>
        <path class="cls-38" d="m500.45,438.85h-1.5c.53,0,1.03,0,1.5,0Z"/>
        <path class="cls-3" d="m100.99,438.85h-1.5c.5,0,1,0,1.5,0Z"/>
      </g>
      <g>
        <path class="cls-6" d="m401.71,73.89c.38-.04,3.17,5.23,4.25,5.75-9.67,1.6-4.86-5.68-4.25-5.75Z"/>
        <g>
          <path class="cls-6" d="m388.46,81.39c-1.31-1.58-4.79-5.35-6.5-5.25-23.34-31.92-73-53.58-111.74-56.74-44.62-3.65-97.69,11.42-130.49,43-3.2,3.08-22.6,25.81-23.25,28.25-.13.5,2.25,5.87-1.5,2.75-5.01-4.17,3.16-8.47-13-2.75.71-3.53,13.99-20.69,14-22,0-.26-2.98-2.71-3-3-.34-4.4,27.35-28.24,32.25-31.75,9.69-6.93,30.24-18.28,41.5-21,10.05-2.43,4.06,2.61,6.5,4.5,6.17-5.7,13.39-5.53,14-6,.56-.43.67-3.52,1.25-4.25,1.23-1.55,17.32-4.81,20.25-5.25,28.27-4.22,62.75-1.49,89.49,9,25.23,9.9,16.05,14.02,18.5,16,8.73-1.95,16.46-3.13,23.5,3.5,4.11,3.87-.98,1.85-7,3.5-20.49,5.63-1.44,5.01,7.5,5.5,9.13,1.3,32.61,9.61,31.25,21.25,6.46,6.53,9.86,20.62-3.5,20.75Z"/>
          <path class="cls-6" d="m417.96,139.39c-4.23-15.84-17.32-42.57-27.5-55.49,11.83,1.22,29.3,3.4,30.75,18-27.72-2.73-4.94.75,2.25,10.75,4.11,5.72,5.69,16.64,8,23.5l-13.5,3.25Z"/>
          <path class="cls-8" d="m380.96,297.37c14.65-16.49,31.17-45.79,37-66.99q4.75-4.12,9.5-8.25c-5.4,20.59-4.05,24.88-15,45-6.06,11.13-17.71,30.88-31.5,30.25Z"/>
          <path class="cls-6" d="m95.49,134.89c-3.85,13.26-6.19,27.72-7,41.5-5.1-.57-8.41-2.57-11.5-6.5-1.13-1.44-2.12-3.43-3.5-4.75-.43-1.98,2.24-18.39,3-21.5,2.11-8.57,6.34-23.32,9.75-5.25l9.25-3.5Z"/>
          <path class="cls-8" d="m93.49,228.88c4.18,15.79,15.17,38.5,24.5,51.99-4.2,2.34-11.02-3.93-14.25-7-10.74-10.21-16.56-26.44-19.25-40.75l9-4.25Z"/>
          <path class="cls-8" d="m79.99,179.88c2.54,1.25,5.19,2.12,8,2.5-.24,11.44,1.31,26.7,3.5,38-1.66,2.82-9.81,6.34-11.5,3.25-1.74-3.18-5.57-41.29-4.5-44,.65-1.63,3.16.56,4.5.25Z"/>
          <path class="cls-8" d="m423.95,190.88c.37-14.93-2.26-35.44-6-49.99,2.04-.24,10.56,1.8,11.25,2.5,2.06,2.1,3.1,37.73,1.75,41.25-.33.87-5.6,5.34-7,6.25Z"/>
          <path class="cls-8" d="m110.99,99.39c-5.36,9.18-10.67,20.42-14,30.5q-5-3.87-10-7.75c3.98-15.29,6.54-23.19,24-22.75Z"/>
          <path class="cls-8" d="m419.45,222.88c2.11-9.55,3.57-19.2,4-29,3.74-.21,6.74-4.58,8-2.75l2.5,16.5c-4.71,3.79-12.07,14.17-13.5,15.5-.5.46-.38-.21-1-.25Z"/>
          <path class="cls-3" d="m88.49,176.38c-.12,2-.46,4.17-.5,6-2.81-.38-5.46-1.25-8-2.5-3.66-1.8-6.34-2.28-3-10,3.09,3.92,6.4,5.93,11.5,6.5Z"/>
          <g>
            <path class="cls-47" d="m388.46,81.39c.63.76,1.38,1.71,2,2.5,10.17,12.93,23.27,39.65,27.5,55.49.11.43-.11,1.07,0,1.5,3.74,14.55,6.37,35.06,6,49.99,0,.15-.34-.7-.5,3-.43,9.8-1.89,19.44-4,29-.54,2.43-.84,5.1-1.5,7.5-5.83,21.2-22.35,50.5-37,66.99-6.75,7.6-20.02,19.46-28.5,25-.22.14-2.63,1.38-4.5,2.5-1.24.74-3.05,1.97-4,2.5-4.11,2.28-18.78,9.33-23,11-2.53,1-5.43,2.15-8,3-31.53,10.38-70.24,9.61-102.49,3-1.4-.83-3.4-1.08-5-1.5-1.62-.42-2.79-.44-3-.5-.37-.11-.98-.35-1.5-.5-1.09-.33-2.36-1.11-3.5-1.5-2-.68-4.61-1.24-6.5-2-4.61-1.85-20.7-10.18-25.5-13-.54-.32-.97-.68-1.5-1-1.67-1.01-3.37-1.92-5-3-14.52-9.61-31.09-26.17-41-40.5-9.33-13.5-20.31-36.2-24.5-51.99-.83-3.12-1.38-5.28-2-8.5-2.19-11.3-3.74-26.56-3.5-38,.04-1.83.38-4,.5-6,.81-13.78,3.15-28.24,7-41.5.47-1.61.98-3.43,1.5-5,3.32-10.08,8.64-21.32,14-30.5,1.19-2.03,3.1-3.75,4-6,3.75,3.12,1.37-2.25,1.5-2.75.65-2.44,20.05-25.17,23.25-28.25,32.8-31.58,85.86-46.64,130.49-43,38.74,3.17,88.4,24.82,111.74,56.74,1.71-.11,5.19,3.67,6.5,5.25Z"/>
            <g>
              <path class="cls-26" d="m156.48,88.89c.65,1.38,1.05,3.04,1.5,4.5-1.91.69-3.56,5.93-4.5,7.5-2.77,4.64-12.94,21.11-14,18.25-.32,1.7,1.03,2.84,1,3-.17.84-8.31,12.58-10,14,.23.52,2.19-.07,2.5-.25,4.11.62-2.13,5.3-3.5,7.5-5.99-1.42-13.08,1.42-19,2-1.92.19-3.76.81-5.75.5-3-2.02,18.18-41.65,20.75-46,1.85.68,1.86.07,3-1,4.13-1.11,7.92,2.74,11.75,4,5.11-4.93,9.87-10.59,16.25-14Z"/>
              <path class="cls-8" d="m409.96,145.89c.02.09-.89-.11-.5,1.75,1,4.82,2.64,9.62,3.5,14.5,1.07,11.75,2.25,23.67,1.5,35.5-.58,9.18-3.57,18.36-4,27.25-2.57,9.08-7.55,21.65-12,30-2.55.63-5.65,2.75-8,3.5-1.05-1.15,1.58-2.71,3-5.25,12.48-22.29,15.97-57.85,15-82.99-.37-9.57-3.49-21.48-1.5-25.5-2.2-2.2-5.61-2.91-8-4.25,1.27-3.7-.01-7.86-1-11.75-3.98-15.72-20.63-41.61-34-51.74.59-.58,3.86-4.5,4.25-4.5,12.03,10.42,19.26,25.06,28.75,37.25-.27.25-.73.58-.5,1,6.61,12.22,10.48,21.6,13.5,35.25Z"/>
              <path class="cls-8" d="m354.96,277.87c-.05.22-1.74,2.22-.75,4.5,9.38.66,26.89-4.72,34.75-9.5-19.63,27.25-47.24,49.99-79.99,58.99,9.77-4.06,19.15-9.77,28-15.5,12.66-8.19,21.13-14.95,31-26.5,7.73-9.05,4.65-3.99-15.75-1.5-13,8.43-33.31,22.1-48.24,25-6.26,1.22-16.36,1.45-22.25-1-2.9-1.21-7.19-5.67-7.25-6.25-.08-.74,1.99-2.55,2-2.75,2.56,5.33,14.76,5.59,19.75,5,2.72-.32,20.57-4.95,22.5-6,4.17-2.27,4.04-4.55,4.5-4.5.15.02.57,1.55,1,1.5,3.25-.4,29.37-24.46,33.25-28.5-1.24,2.8-1.82,3.92-2.5,7Z"/>
              <path class="cls-6" d="m204.48,80.89c2.47.6,5.27.56,7.5,2-21.87,8.68-46.31,23.9-54.49,47.24-4.17,11.91-6.9,37.52,5.5,30.25v1c-4.76.95-24.25,3.81-25.5,4.5-1.1-.39-1.89-1.91-2-2,1.5-1.47,4.73-1.31,5-1.75,1.01-1.67-1.93-14.74,10-37.5,3.28-6.25,15.44-24.48,21-27.75,3.65-2.14,1.43,1.28,3.75,1,1.24-.15,3.11-4.91,19.75-15,1.03-.62,1.87-.33,2.5-1.25-1.63-1.54-2.74-3.42-4-5.25,3.72,2.75,6.62,3.43,11,4.5Z"/>
              <path class="cls-6" d="m313.47,80.39c4.38,5.42,22.4,18.31,29,17.5,3.95,4.58,7.2,9.45,10.5,14.5l-3.5,8c-8.4-14.05-23.14-24.3-37.5-31.5,3.91-.35-3.51-5.68-5.25-6.5-6.37-3-17.19-3.29-18.25-3.5-1.14-.22-2.37-.3-3.5-.5-4.83-.85-12.3-3.47-21.25-4-9.81-.58-23.02.61-32.75,2.5-5.27,1.03-10.44,2.69-15.5,4.5-2.63-1.41-8.37-.92-10.5-1.5-.49-.13-.99-.56-1.5-.75l.75-.75c36.52-13.91,72.75-13.53,107.99,4,.65-.51.92-1.28,1.25-2Z"/>
              <path class="cls-27" d="m398.96,140.39c-1.52-.85-3.97-1.74-5-2.5-.64-.48-1.41-.97-2-1.5-.31-.28-1.8-3.56-3-4.5,2.66-.64-1.25-6.35-2.5-9-4.72-10-8.84-17.35-16.5-25.5-2.87-3.05-3.03-3.35-6.5-6-2.5-1.91-4.84-4.16-8-5,2.28-2.51,5.13-5.69,7-8.5.45-.25,1.16-.66,1.5-1,13.37,10.14,30.02,36.03,34,51.74.99,3.89,2.26,8.05,1,11.75Z"/>
              <path class="cls-51" d="m142.98,75.39c-7.25,7.14-12.38,15.82-17.5,24.5-2.56,4.35-23.75,43.97-20.75,46,1.99.31,3.83-.31,5.75-.5-3.6,11.93-2.92,20.04-3,32q-3.5-1.5-7-3c.21-4.03.12-8.23.5-12.25.95-9.97,4.99-16.58-.5-16.25,7.4-27.34,20.96-50.57,39-72.24,1.33-.58,2.58,1.23,3.5,1.75Z"/>
              <path class="cls-51" d="m336.96,316.37c-8.85,5.72-18.23,11.44-28,15.5-.27.11-.79.96-5.25,2.5-4.33.61-8.48,2.11-12.75,3-1.61-2.07,6.34-3.5,8-8,1.09-2.97-3.9.55-1.5-2,12.59-3.4,25.47-7.86,37-14l2.5,3Z"/>
              <path class="cls-18" d="m253.47,334.87c1.43.21,3.46-.25,4.75,0,1.76.34,7.33,3.08,10.25,4,1.3.41,2.68.63,4,1-20.54,1.82-34.79,1.27-54.99-3l1-1.5c3.11,2.57,10.19,2.71,6.5-4.5,3.68.4,7.55,2.08,11.25,2.5,5.72.64,11.54.67,17.25,1.5Z"/>
              <path class="cls-50" d="m100.49,174.38c-.66,12.86-.77,24.78,1.5,37.5-1.36,1.5,1.41,3.38-2.5,2.5-5.21-23.8-5.38-44.94,1-68.49,5.49-.34,1.45,6.28.5,16.25-.38,4.02-.29,8.22-.5,12.25Z"/>
              <path class="cls-18" d="m221.48,330.37c-2.8-.09-4.05.94-4.5,1-2.71.36-11.67.93-8,3.5-9.76-2.53-18.53-5.41-27.5-10,3.43-1.45,2.63-2.54,3.5-5.5,16.04,7,35.75,8.78,37,10.25.03.03-.59.38-.5.75Z"/>
              <path class="cls-49" d="m136.99,279.37c-1.18.36,2.38,2.88,4,4.5,4.45,4.46,10.1,11.05,14.5,15l-4,4.5c-11.13-9.82-20.32-19.95-29-32,3.21,3.32,10.05,6.48,14.5,8Z"/>
              <path class="cls-51" d="m291.97,328.87c1.64,1.33,5.01,1.38,7,.5-1.66,4.5-9.61,5.93-8,8-5.26,1.1-10.65,1.94-16,2.5-.54-6.55-6.26-8.07-6.5-1-2.92-.92-8.49-3.66-10.25-4-1.29-.25-3.32.21-4.75,0-.96-2.68,5.4-1.07,11.75-1.5,5.06-.34,10.24-1.17,15.25-2,3.89-.64,7.67-1.58,11.5-2.5Z"/>
              <path class="cls-34" d="m178.48,315.87c.06.03.94.97,1,1,1.83,2.3-2.32.87-6,3-10.2-6.26-13.17-8.71-22-16.5l4-4.5c7.04,6.33,14.74,12.37,23,17Z"/>
              <path class="cls-18" d="m120.49,253.87c-1.79-.39-4.74.27-6.5,1-6.04-13.12-11.4-26.35-14.5-40.5,3.91.88,1.14-1,2.5-2.5,3.04,17.08,8.08,28.28,18.5,42Z"/>
              <path class="cls-1" d="m156.98,101.89c-3.97,6.39-16.31,26.37-20,30-.61.6-3.76,3.86-4,4-.31.18-2.27.77-2.5.25,1.69-1.42,9.83-13.15,10-14,.03-.16-1.32-1.3-1-3,1.06,2.86,11.23-13.61,14-18.25l3.5,1Z"/>
              <path class="cls-30" d="m410.46,224.88c.43-8.89,3.42-18.07,4-27.25.75-11.82-.43-23.74-1.5-35.5-.86-4.87-2.5-9.68-3.5-14.5-.39-1.86.52-1.66.5-1.75,2.19,2.25,3.27,7.74,4,11.25,4.47,21.43,2.45,46.75-3.5,67.74Z"/>
              <g>
                <path class="cls-32" d="m155.98,85.89c-.13,1.24-.02,1.89.5,3-6.37,3.41-11.14,9.07-16.25,14-3.83-1.26-7.62-5.11-11.75-4,2.14-2,10.79-15.28,16.25-20,2.9,3.49,6.68,6.78,11.25,7Z"/>
                <path class="cls-27" d="m155.98,85.89c-4.57-.22-8.35-3.51-11.25-7-5.46,4.71-14.11,17.99-16.25,20-1.13,1.07-1.15,1.68-3,1,5.12-8.67,10.25-17.36,17.5-24.5,4.87,2.73,8.99,6.68,13,10.5Z"/>
              </g>
              <path class="cls-18" d="m184.98,319.37c-.87,2.96-.07,4.05-3.5,5.5-2.96-1.51-5.25-3.31-8-5,3.68-2.13,7.83-.69,6-3,1.66.88,3.75,1.74,5.5,2.5Z"/>
              <path class="cls-17" d="m216.98,331.37c-.63,2.22,0,2.77,1.5,4l-1,1.5c-2.86-.6-5.67-1.27-8.5-2-3.67-2.57,5.29-3.14,8-3.5Z"/>
              <path class="cls-2" d="m157.98,93.39c.08.27,2.16,3.08,2,5.25-.76.86-2.63,2.66-3,3.25l-3.5-1c.94-1.57,2.59-6.81,4.5-7.5Z"/>
              <path class="cls-7" d="m274.97,339.87c-.82.09-1.68-.07-2.5,0-1.32-.37-2.69-.59-4-1,.24-7.07,5.96-5.55,6.5,1Z"/>
              <path class="cls-38" d="m215.48,81.39c-1.25.45-2.3,1.02-3.5,1.5-2.23-1.44-5.03-1.4-7.5-2l.5-1c2.13.58,7.87.09,10.5,1.5Z"/>
              <path class="cls-25" d="m391.46,271.87c-2.84,1.73,2.3-5.72,5.5-11,.26-.43,2.66-5.42,2-2.25-.43,2.09-6.26,10.14-7.5,13.25Z"/>
              <g>
                <path class="cls-40" d="m130.49,152.39c-2.41,3.81-.22,5.96,0,6.5,1.39,3.38,2.54,3.06,5,5,.11.09.9,1.61,2,2-.17.09-2.41,2.82-2.5,3-1.03-.38-6.24-4.2-6.5-4.5-1.12-1.28-2.61-3.65-3-5.25-1.65-6.82.45-10.03,4-15.75,1.37-2.2,7.61-6.88,3.5-7.5.24-.14,3.39-3.4,4-4,7.29-4.16-5.24,10.1-6.5,20.5Z"/>
                <path class="cls-27" d="m130.49,158.88c-.22-.54-2.41-2.69,0-6.5-.24,2.01.18,4.42,0,6.5Z"/>
              </g>
              <path class="cls-15" d="m129.49,143.39c-3.55,5.72-5.65,8.93-4,15.75.39,1.6,1.88,3.97,3,5.25-24.72,7.83-3.34,70.65,3.5,89.24,1.98,4.45,10.95,4.1,13,8.25-4.82-2.9-16.74-7.47-22-8,.68-.81.84-5.3.5-6.75-.69-2.91-6.12-11.46-7.5-15-8.41-21.65-8.64-31.91-8.5-54.74.08-11.95-.6-20.07,3-32,5.92-.58,13.01-3.42,19-2Z"/>
              <path class="cls-32" d="m390.46,258.37c-1.17.37-2.24,1.03-3.5,1-4.99.58-10.11,1.85-15,3,13.41-18.63,24.41-39.5,25-62.99,4.15,1.68,4.16-10.12,4.5-13.5.62-6.21,3.46-22.02-4-23-.54-2.28-2.96-7.41-3.5-12.25l5.75-2.25.25-1c.8,1.84.64-4.46.5-4.75-.6-1.26-2.68,1.19-1.5-2.25,2.39,1.34,5.8,2.05,8,4.25-1.99,4.02,1.13,15.92,1.5,25.5.97,25.15-2.52,60.7-15,82.99-1.42,2.54-4.05,4.1-3,5.25Z"/>
              <path class="cls-27" d="m244.97,307.87c4.39,4.8,9.69,6.64,16.25,4.5,6.86-2.24,8.56-8.99,10.25-15,3.46.03,2.83,4.73,5,5.5-.01.17,0,.33,0,.5,0,.2-2.08,2.01-2,2.75.06.58,4.35,5.04,7.25,6.25,5.89,2.45,15.99,2.22,22.25,1-6.18,7.72-28.73,14.12-23.5,18-5.01.83-10.19,1.66-15.25,2-6.34.43-12.7-1.18-11.75,1.5-5.71-.83-11.52-.86-17.25-1.5-3.7-.42-7.57-2.1-11.25-2.5-1.29-.14-2.46-.47-3.5-.5-.09-.37.53-.72.5-.75-1.25-1.47-20.96-3.25-37-10.25-1.75-.76-3.84-1.62-5.5-2.5-.06-.03-.94-.97-1-1,.11-2.32,5.13-2.14,2.75-4.5-.54-.53-6.34-2.11-13.5-7-7.35-5.01-15.93-14.41-20.25-18,24.69-1.63,32.6,21.65,55.99,23.5.76,6.51,13.96,3.31,7-2,5.54.69,23.48,1.28,26-4.75,2.4-5.75-3.61-21.41-3.5-25.75,0-.09.71-1.41,1-1.5,2.23,9.21,4.95,25.38,11,32Z"/>
              <path class="cls-27" d="m367.96,289.87c-.37-3.79-7.67,6.03-14.75,11.5-4.03,3.12-14.13,9.54-18.75,12-11.52,6.14-24.41,10.59-37,14-1.81.49-3.69,1.06-5.5,1.5-3.83.92-7.61,1.86-11.5,2.5-5.24-3.88,17.32-10.28,23.5-18,14.94-2.9,35.24-16.57,48.24-25,20.4-2.49,23.48-7.55,15.75,1.5Z"/>
              <path class="cls-7" d="m367.96,289.87c-9.87,11.55-18.33,18.31-31,26.5l-2.5-3c4.61-2.46,14.71-8.88,18.75-12,7.08-5.47,14.38-15.29,14.75-11.5Z"/>
              <path class="cls-47" d="m240.47,77.89c-42.97,5.25-76.94,36.46-77.49,80.99v1.5c-12.39,7.27-9.67-18.34-5.5-30.25,8.18-23.34,32.62-38.57,54.49-47.24,1.2-.48,2.25-1.05,3.5-1.5,5.06-1.81,10.22-3.47,15.5-4.5.96,3.61,6.65-.92,9.5,1Z"/>
              <path class="cls-6" d="m346.96,141.89c.81,4.82,1.37,6.86.5,12-.04.27-2.07,1.56-.5,5-6.88-.03-31.75-4.36-40.5-6-1.98-.37-3.89-1.32-6-1-17.27-21.68-55.69-25.8-78.24-10.5-4.98,3.38-6.67,6.54-9.25,9-.65.62-1.01,1.46-1.75,2-.6-.65-.99-1.23-2-1-15.43,3.43-30.73,6.9-46.25,10v-2.5c2.95-.14,7.46-2.08,11.25-3,12.07-2.92,24.47-4.79,36.5-8,26.32-25.91,62.55-23.57,90.49-1,3.38,1.42,36.34,7.45,40,7.5,8.8.12.97-9.07,5.75-12.5Z"/>
              <path class="cls-44" d="m284.97,78.39l-1.5,2c-14.18-3.47-28.53-4.27-43-2.5-2.85-1.92-8.54,2.61-9.5-1,9.73-1.89,22.93-3.08,32.75-2.5,8.95.53,16.42,3.15,21.25,4Z"/>
              <path class="cls-3" d="m358.46,121.89l-5,6c-.68-1.76-2.89-5.65-4-7.5l3.5-8c2,3.06,3.64,6.36,5.5,9.5Z"/>
              <path class="cls-3" d="m311.97,88.89c-7.59-3.81-15.69-6.69-23.5-10,1.06.21,11.87.5,18.25,3.5,1.74.82,9.15,6.15,5.25,6.5Z"/>
              <path class="cls-17" d="m353.96,90.39c6.84,7.6,7.74,4.31,18.5,22,2.99,4.91,5.2,10.36,9,14.75-.58.74-3.78-.6-3.5,1.75-1.78-1.41-4.33-2.46-6-4-.21-.19-.31-.3-.5-.5-.1-1.81-1.17-3.45-2-5-3.35-6.25-6-6.2-6.5-6.75-2.22-2.48-4.35-5.19-6.5-7.75l-.5-3.5c2.58-3.71-1.23-5.38-5.5-9,.16-.14-.17-.8,2.5-3.5-.21,1.22.94,1.43,1,1.5Z"/>
              <path class="cls-7" d="m363.46,91.39l-2.5,1.5c-2.61-1.6-4.35-1.73-7-2.5-.06-.07-1.21-.28-1-1.5.77-.78,1.81-1.74,2.5-2.5,3.16.84,5.5,3.09,8,5Z"/>
              <path class="cls-51" d="m360.96,92.89c.94.58,4.95,6.47,9,4.5,7.66,8.15,11.78,15.5,16.5,25.5-1.96,3.15-5.34-8.91-14-10.5-10.76-17.68-11.65-14.4-18.5-22,2.65.76,4.39.9,7,2.5Z"/>
              <path class="cls-49" d="m386.46,122.89c1.25,2.65,5.16,8.36,2.5,9-.39-.31-.96-.51-1.25-1l-.75.75,3,4.75c-.07.01.41,1.26-1,1-.48-.51-9.05-6.97-11-8.5-.28-2.35,2.92-1.01,3.5-1.75-3.8-4.39-6.01-9.84-9-14.75,8.66,1.58,12.03,13.65,14,10.5Z"/>
              <path class="cls-34" d="m391.96,136.39c.59.53,1.35,1.02,2,1.5l4,10c-4.42.8-2.56-3.65-9-10.5,1.41.26.93-.99,1-1,.33-.07,1.59,1.32,2,0Z"/>
              <path class="cls-51" d="m398.96,140.39c-1.18,3.44.9.99,1.5,2.25.14.28.3,6.59-.5,4.75-1.2-.25-1.54.42-2,.5l-4-10c1.03.76,3.48,1.65,5,2.5Z"/>
              <path class="cls-7" d="m369.96,97.39c-4.05,1.97-8.06-3.92-9-4.5l2.5-1.5c3.47,2.65,3.63,2.95,6.5,6Z"/>
              <path class="cls-39" d="m388.96,131.89c1.2.94,2.69,4.22,3,4.5-.41,1.32-1.67-.07-2,0l-3-4.75.75-.75c.29.49.86.69,1.25,1Z"/>
              <path class="cls-7" d="m107.49,177.38c-.14,22.84.09,33.1,8.5,54.74,1.38,3.54,6.81,12.09,7.5,15,.34,1.45.18,5.94-.5,6.75-.92-.09-.96.38-1.5.5-.05-.03.38-.19-1-.5-10.42-13.71-15.45-24.92-18.5-42-2.27-12.71-2.16-24.64-1.5-37.5q3.5,1.5,7,3Z"/>
              <path class="cls-18" d="m297.47,327.37c-2.4,2.55,2.59-.97,1.5,2-1.99.88-5.36.83-7-.5,1.81-.44,3.69-1.01,5.5-1.5Z"/>
              <g>
                <path class="cls-50" d="m185.48,46.4l-6.5,9.75q6.25,2.87,12.5,5.75c3.17,8.33,7.3,10.22,0,11-1.53-1.59-3.57-1.21-5-3-1.92-10.61-27.42-4.04-34,1-.03-.05-.45,0-1-.75,10.88-7.82,6.68-8.28-3.5-6.75,7.31-7.01,18.89-13.97,28-18.5,2.82.45,5.81,1.23,5-2.5.12-.04.84-1.19,2.25-1,2.02,2.27,2.13,4.75,2.25,5Z"/>
                <path class="cls-33" d="m172.98,74.89c-.88,2,10.98,4.8,16,6,1.88.45,5.58,1.03,6,2-16.63,10.09-18.51,14.85-19.75,15-2.32.28-.1-3.14-3.75-1-2.89.45-2.78-2.03-4-3.5,6.68-4.79,2.24-5.6,2-6-1.21-1.99-2.58-4.18-4-6,23.47,7.59,17.82,3.61,1.5-7,1.29,0,3.06.46,6,.5Z"/>
                <path class="cls-50" d="m152.48,70.89c.78,1.35,3.63,4.28,4.5,5.5,2.7,3.79,5.33,7.68,8,11.5-.41.16-.6.45-1,.5-5.18-6.03-15.17-13.43-21.5-18.75-.44-1.46,4.48-5.27,5.5-6.25,10.18-1.53,14.38-1.07,3.5,6.75.55.75.97.7,1,.75Z"/>
                <path class="cls-23" d="m186.48,69.89c1.43,1.79,3.47,1.41,5,3,.16.17-.93-.77,2,3.5,1.25,1.83,2.37,3.71,4,5.25-.63.92-1.47.63-2.5,1.25-.42-.97-4.12-1.55-6-2-3.06-4.22-8.75-8.45-11-12.5,2.39.79,5.94,1.23,8.5,1.5Z"/>
                <path class="cls-30" d="m186.48,48.4c-2.53,2.27-2.22,9.65,2,5.5,1.12,2.68,1.98,5.31,3,8q-6.25-2.87-12.5-5.75l6.5-9.75c.35.71.67,1.24,1,2Z"/>
                <path class="cls-23" d="m169.48,87.39c.24.4,4.68,1.21-2,6-2.81-3.37-3.29-4.76-3.5-5,.4-.05.59-.34,1-.5,1.65-.65,2.79-.55,4.5-.5Z"/>
                <path class="cls-40" d="m188.48,53.9c-4.22,4.15-4.53-3.23-2-5.5.89,2.01,1.29,3.81,2,5.5Z"/>
                <path class="cls-5" d="m175.98,44.9c1.53-.76,3.56-1.98,5-2.5.81,3.73-2.18,2.95-5,2.5Z"/>
                <path class="cls-45" d="m186.48,69.89c-2.56-.27-6.11-.71-8.5-1.5-7.19-2.38-9.1-7.53,1,5.75l-.25,1.25c-.91-.86-3.44-.47-5.75-.5-2.94-.04-4.71-.5-6-.5-2.03,0-5.53-.43-7,0-1.15.34-1.56,2.12-3,2-.87-1.22-3.72-4.15-4.5-5.5,6.58-5.04,32.08-11.61,34-1Z"/>
                <path class="cls-50" d="m166.98,74.39c16.32,10.61,21.97,14.59-1.5,7-1.79-2.31-4.09-4.36-5.5-7,1.47-.43,4.97,0,7,0Z"/>
                <path class="cls-23" d="m177.98,68.39c2.25,4.05,7.93,8.28,11,12.5-5.02-1.19-16.88-4-16-6,2.31.03,4.84-.36,5.75.5l.25-1.25c-10.1-13.28-8.19-8.13-1-5.75Z"/>
                <path class="cls-35" d="m165.48,81.39c1.42,1.82,2.79,4.01,4,6-1.71-.05-2.85-.15-4.5.5-2.67-3.82-5.3-7.71-8-11.5,1.44.12,1.85-1.66,3-2,1.41,2.64,3.71,4.69,5.5,7Z"/>
              </g>
              <path class="cls-39" d="m221.48,330.37c1.04.03,2.21.36,3.5.5,3.69,7.21-3.38,7.07-6.5,4.5-1.49-1.23-2.13-1.78-1.5-4,.45-.06,1.7-1.09,4.5-1Z"/>
              <path class="cls-8" d="m134.99,168.88c-.73,1.48-2.49,11.54-3,14.5-.99-3.93-7.07,2.2-10,3.75-.2.68,2.75,9.95,3,11.75.47,3.43.11,8.64,1,13.25,2.9,14.99,17.6,42.1,27,54.49,11.74,15.49,35.54,37.27,54.99,40.75-1.36,1.04-4.43-.03-4.5,2.5-23.39-1.85-31.3-25.13-55.99-23.5-1.55-1.29-7.68-6.45-6.5-2.5-1.62-1.62-5.18-4.14-4-4.5,6.14,2.09,12.84,3.11,19.25,4,1.88-.73-.28-4.05-.25-4.5.01-.17,0-.33,0-.5.2-4.35,3.35-7.86-11-16.5-2.05-4.15-11.02-3.8-13-8.25-6.84-18.59-28.22-81.41-3.5-89.24.26.3,5.47,4.12,6.5,4.5Z"/>
              <path class="cls-32" d="m147.48,286.37c4.32,3.59,12.9,12.98,20.25,18,7.16,4.89,12.96,6.46,13.5,7,2.38,2.36-2.64,2.18-2.75,4.5-8.26-4.62-15.96-10.67-23-17-4.4-3.95-10.04-10.54-14.5-15-1.18-3.95,4.95,1.21,6.5,2.5Z"/>
              <g>
                <path class="cls-47" d="m132.49,268.87c3.51,2.94,19.06,11.21,23.5,10-.03.45,2.13,3.77.25,4.5-6.41-.89-13.1-1.91-19.25-4-4.45-1.52-11.28-4.68-14.5-8-.06-.06.03-.19-1-1.5-2.98-3.81-1.39-2.83-1.5-3,4.12,1.47,8.13,2.24,12.5,2Z"/>
                <path class="cls-23" d="m120.49,253.87c1.38.31.95.47,1,.5.25.13,2.58,3.07,4,4-.47,2.75,4.96,8.79,7,10.5-4.37.24-8.38-.53-12.5-2-2.47-4.01-4.05-7.77-6-12,1.76-.73,4.71-1.39,6.5-1Z"/>
                <path class="cls-49" d="m122.49,271.37c-.05-.07-1.21-.27-1-1.5,1.03,1.31.94,1.44,1,1.5Z"/>
                <path class="cls-29" d="m155.98,278.37c0,.17.01.33,0,.5-4.44,1.21-19.99-7.06-23.5-10-2.04-1.71-7.47-7.75-7-10.5,7.09,4.65,13.88,7.6,15.25,8.5,5.23,3.46,9.31,8.93,15.25,11.5Z"/>
                <path class="cls-30" d="m122.99,253.87c5.26.53,17.18,5.1,22,8,14.35,8.64,11.2,12.15,11,16.5-5.94-2.57-10.02-8.04-15.25-11.5-1.36-.9-8.16-3.85-15.25-8.5-1.42-.93-3.75-3.87-4-4,.54-.12.58-.59,1.5-.5Z"/>
              </g>
              <g>
                <path class="cls-47" d="m396.96,260.87c-3.2,5.28-8.34,12.73-5.5,11-.16.74-2.04.72-2.5,1-7.85,4.78-25.37,10.16-34.75,9.5-.99-2.28.7-4.28.75-4.5,1-.02,2,.03,3,0,1.69-.06,2.54-.3,4-.5,7.35-1,15.27-2.74,22-6,6.26-3.03,8.75-5.99,12.5-12l.5,1.5Z"/>
                <path class="cls-2" d="m398.46,254.87c-.7,1.31-1.18,3.19-2,4.5-3.75,6.01-6.24,8.97-12.5,12l.5-8c2.28-1.59,3.42-2.31,2.5-4,1.26.03,2.32-.63,3.5-1,2.35-.75,5.45-2.87,8-3.5Z"/>
                <path class="cls-1" d="m368.46,263.37q-5.25,7.25-10.5,14.5c-1,.03-2-.02-3,0,.68-3.07,1.26-4.2,2.5-7,1.84-1.92,5.2-5.05,6-6,1.63-.92,3.25-1.07,5-1.5Z"/>
                <path class="cls-29" d="m383.96,271.37c-6.73,3.26-14.65,5-22,6,.8-2.83,3.06-5.06,4.5-7.5,3.44.73,15.43-4.71,18-6.5l-.5,8Z"/>
                <path class="cls-31" d="m366.46,269.87c-1.44,2.44-3.7,4.67-4.5,7.5-1.46.2-2.31.44-4,.5q5.25-7.25,10.5-14.5c.45-.11.55-.39,1-.5.62.72-1.83,5.02-3,7Z"/>
                <path class="cls-40" d="m386.96,259.37c.92,1.69-.22,2.41-2.5,4-2.56,1.79-14.56,7.23-18,6.5,1.17-1.98,3.62-6.28,3-7,.81-.19,1.62-.29,2.5-.5,4.89-1.15,10-2.42,15-3Z"/>
              </g>
              <path class="cls-17" d="m377.96,128.89c1.94,1.53,10.52,7.99,11,8.5,6.44,6.84,4.58,11.3,9,10.5.46-.08.8-.75,2-.5l-.25,1-5.75,2.25c.54,4.84,2.96,9.97,3.5,12.25.33,1.39.74,2.55,1.5,3.75.43,2.26-.37,4.64-.5,6.75-2.19-8.25-1.43,6.16-4.5,6l-16.5-16.5c.82-.01,2.72-.23,3.25-.5,2.97-1.53,5.11-17.03,1.25-17,1.06-1.38-5.47-11.42-6.5-8.5-1.77-5.55-4.25-10.69-3.5-12,1.67,1.54,4.22,2.59,6,4Z"/>
              <path class="cls-51" d="m397.96,193.88c-.36,1.8-1.21,3.59-1,5.5-.59,23.49-11.59,44.36-25,62.99-.88.21-1.69.31-2.5.5-.45.11-.55.39-1,.5-1.75.43-3.37.58-5,1.5,7.13-8.42,14.17-23.1,19-33.25.59-1.24,1.57-6.29,2-7,.72-1.18,4.35-3.16,4.5-4,.13-.73-1.17-7.71-3.5,1.5.33-3.79,2.46-10.46,2.5-13.75,3.29-2.88,6.95-11.61,8-16l2,1.5Z"/>
              <path class="cls-51" d="m401.46,185.88c-1.68-3.28-3.01,5.53-3.5,8l-2-1.5c.68-2.85,2.28-15.5,2.5-19,.13-2.11.93-4.49.5-6.75-.76-1.2-1.17-2.36-1.5-3.75,7.46.98,4.62,16.79,4,23Z"/>
              <path class="cls-7" d="m401.46,185.88c-.34,3.38-.35,15.17-4.5,13.5-.21-1.91.64-3.7,1-5.5.49-2.47,1.82-11.28,3.5-8Z"/>
              <path class="cls-6" d="m371.46,160.88c0,.1-1.1.39.5,2-2.18-.81-16.01-1.47-16.5-2.75,3.7-9.39,1.6-22.96-2-32.25l5-6c10.26,17.34,12.83,17.16,13,39Z"/>
              <path class="cls-6" d="m219.98,218.88c3.05,6.36,4.28,13.24,6,20,3.11,12.24,5.03,24.73,8,37-.29.09-1,1.41-1,1.5-1.5-1.84-5.93-1.11-8.25-1.5-23.24-3.9-43.8-18.84-51.24-41.5,14.96,20.88,31.21,34.61,57.24,39-1.65-8.38-11.56-52.6-13.75-55.74-1.25-1.81-4.93-2.01-5.25-2.25-.54-.41.49-.7.25-1,1.28.27,4.04-1.7,4.75-1.5.56.16,2.8,5.06,3.25,6Z"/>
              <path class="cls-8" d="m367.96,187.38h-3c-5.48-12.2-14.27-6.87-26-8,.04-.61-1.18-1.67,1-3.5,9.98-.95,17.84.24,18.75,0,2.71-.72,1.21-4.24,1.25-4.5,1.29-8.62,7.04-2.73,9.75,2-.34-4.57-4.33-3.04-.25-7.5,1.01.38,1.8.94,2.5,1.75,3.82,4.41,5.91,26.88-.5,20-.46-.49-1.91-8.8-3.25-9.25-.16-.06-3.05.76-3.25,1.25-.31.77,2.69,6.2,3,7.75Z"/>
              <path class="cls-6" d="m369.46,165.88c-4.08,4.46-.09,2.93.25,7.5-2.71-4.73-8.45-10.62-9.75-2-3.5-.86-15.49-1.16-16.25-1.5-.65-.29-1.91-11.81-5,1.5-2.17-.43-14.69.72-15.25-.75-1.64-4.3,11.16.73,8.5-4.5-.52-1.03-8.88-.94-10.5-1.25.31-1.11,1.2-.21,2-5.5,15.26,2.54,30.66,4.46,46,6.5Z"/>
              <path class="cls-6" d="m203.98,200.38c0,.31.11.96-.25,1-1.5.18-14.32-3.51-29.75-5.5-4.43-.57-7.04-5.4-10,3.5q-7.25,2.75-14.5,5.5c-.91-3.5-1.19-7.22-2-10.75-.66-.77-15.93-1.14-8.75-2.25,5.72-.89,56.58,2.85,61.99,5,2.39,1.1,2.62,2.7,3.25,3.5Z"/>
              <path class="cls-24" d="m323.47,159.38c-.8,5.29-1.69,4.38-2,5.5-.92,3.34-1.84,8.27-1.5,11.5.07.69,1.85,2.56,1,3.75-.25.35-1.89.11-3.5.75-3.56,1.41-2.68,1.27-4.5,9.5-7.48.82.69-1.71-.5-18.25-.42-5.78-3.03-10.42-5-15.75,5.32.99,10.66,2.11,16,3Z"/>
              <path class="cls-5" d="m377.46,162.88l16.5,16.5c-3.03-.16-6.45-2.73-7-1.75,2.69,7.76,6.57,22.12-6,13.25.17-7.2-.99-25.03-9-28-1.6-1.61-.5-1.9-.5-2,.45,1.13,5,2.01,6,2Z"/>
              <path class="cls-18" d="m398.46,173.38c-.22,3.5-1.82,16.15-2.5,19-1.05,4.39-4.71,13.12-8,16,.09-6.36-2.39-13.09-7-17.5,12.57,8.88,8.69-5.49,6-13.25.55-.98,3.97,1.59,7,1.75,3.07.16,2.31-14.25,4.5-6Z"/>
              <path class="cls-6" d="m152.48,214.88l9.5-4.5c-.42,9.96,1.56,20.11,4.75,29.5-7.35-8.91-10.6-14.11-14.25-25Z"/>
              <path class="cls-34" d="m306.47,152.89c-.35,1.53.56,2.32,1,3.5,1.97,5.33,4.58,9.97,5,15.75,1.19,16.54-6.98,19.07.5,18.25.98-.11,2.01.07,3,0v.5c-2.33.45-7.36,2.75-10.25,3.5-.76-.4,2.02-6.48,2.25-7.5,2.94-12.95.9-24.46-7.5-35,2.11-.32,4.02.63,6,1Z"/>
              <path class="cls-3" d="m163.98,199.38c-.94,2.83-1.88,8.09-2,11l-9.5,4.5c-1.14-3.4-2.1-6.53-3-10q7.25-2.75,14.5-5.5Z"/>
              <path class="cls-7" d="m131.99,183.38c-.33,1.88.24,5.07,0,7.25l-7,8.25c-.25-1.8-3.2-11.07-3-11.75,2.93-1.55,9-7.68,10-3.75Z"/>
              <path class="cls-52" d="m315.97,190.88v-.5c2.15-7.33,9.12-2.32,18-4.5,1.11,4.91,4.21,1.62,4.5,1.5,4.97-2.05,3.48-4.16,8.75,2-8.08-.99-23.36,0-31.25,1.5Z"/>
              <path class="cls-32" d="m339.96,175.88c-2.18,1.82-.96,2.89-1,3.5-.16,2.67-.31,5.33-.5,8-.29.12-3.39,3.41-4.5-1.5-.87-3.85,2.14-4.36-3-5,.2-1.09,2.5-.04,3-.75.08-.12-1.01-1.51-1-2.75,2.74-.11,1.54-1.59,3.25-2,1.45-.35,2.49.62,3.75.5Z"/>
              <path class="cls-4" d="m348.46,267.37c-2.73,3.36-4.04,4.57-7,7.5l-4.5-1.5c.57-1.9.68-2.57,0-4.5l11.5-1.5Z"/>
              <path class="cls-6" d="m295.97,288.87c-1.55.57-2.6,1.37-4,2-1.65.75-2.9,1.72-4.5,1,.4-2.03,1.38-5.38,2-7.5,2.53,1.93,6.18.47,9.25,1.5l-2.75,3Z"/>
              <path class="cls-32" d="m210.48,307.87c6.96,5.31-6.24,8.51-7,2,.07-2.53,3.14-1.46,4.5-2.5.93.17,2.37.48,2.5.5Z"/>
              <path class="cls-3" d="m346.96,158.88c-1.57-3.44.46-4.73.5-5,4.45-3.82,3.03,4.74,1.75,5.5-.77.46-2-.5-2.25-.5Z"/>
              <path class="cls-13" d="m381.96,145.39c-1.99.02-3.76,1.54-4.5.75-.32-3.17-1.03-6.21-2-9.25,1.03-2.92,7.56,7.12,6.5,8.5Z"/>
              <g>
                <path class="cls-47" d="m350.46,92.39c4.27,3.61,8.08,5.29,5.5,9-.16.22-1.95.72-2,1.25-.03.34,2.19,1.88,2.5,2.25,2.15,2.56,4.28,5.27,6.5,7.75.5.55,3.15.5,6.5,6.75-.62,5.1,1.09,4.02,2,5,.19.2.29.31.5.5-.75,1.31,1.73,6.45,3.5,12,.97,3.04,1.68,6.08,2,9.25.74.79,2.51-.73,4.5-.75,3.86-.03,1.72,15.46-1.25,17-.53.27-2.43.49-3.25.5-1,.01-5.55-.87-6-2-.16-21.84-2.74-21.66-13-39-1.86-3.14-3.5-6.44-5.5-9.5-3.3-5.05-6.55-9.92-10.5-14.5,1.21-1.09,7.64-5.17,8-5.5Z"/>
                <path class="cls-27" d="m371.46,124.39c-.91-.98-2.62.1-2-5,.83,1.55,1.9,3.18,2,5Z"/>
                <path class="cls-27" d="m356.46,104.89c-.31-.37-2.53-1.91-2.5-2.25.05-.53,1.84-1.03,2-1.25l.5,3.5Z"/>
              </g>
              <g>
                <path class="cls-33" d="m323.47,53.4c-.27,2.34-.68,4.66-1,7-.51,3.7-4.49,13.27,3,5.5l8,3.5c-8.24,9.93,2.13,2.91,4.25,3,.37.02,5.63,3.13,6.25,4-.78,1.93-3.97,6.93.25,7.5,2.88.39,5.2-5.37,6.75-7,.93-.98,1.61-2.07,2.5-3,.5-.53,1.46-1,2-1.5-.63,2.42-1.81,4.83-3,7-6.44,11.78-4.02,8.84,4.5.5,2.26-2.21,4.65-4.37,7-6.5-.1.22.26,1.86-1.5,4.5-1.87,2.81-4.72,5.99-7,8.5-.69.76-1.73,1.72-2.5,2.5-2.67,2.69-2.34,3.35-2.5,3.5-.36.33-6.79,4.41-8,5.5-6.59.81-24.62-12.08-29-17.5.18-.38.97-4.6,2-7.25-.27-.37-.84-.01-2-.75,1.7-.16,2.99-6.4,4-10,.38-1.37,1.29-3.48,1.5-4.5.22-1.06.34-2.4.5-3.5,4.35.95,2.03-.55,4-1Z"/>
                <path class="cls-12" d="m338.46,49.9c5.98,2.96,10.53,5.7,16,9.5-4.63,3.55,9.26,3.87,2.5,10.5-.51.5-1.34.84-1.75,1.5-.53-3.85-3.83-8.8-6.25-5.5-2.72,1.95-1.74-2.24-3.25-2-.22.03-1.54,2.53-2.75,3.5-.15.12-.83.37-1,.5l-4-2.5c.88-1.04,6.01-6.98,6-7.5,0-.4-5.35-5.47-5.75-5.5-.33-.02-1.16,1.45-1.25,1.5-2.01,1.06-7.03,3.28-8.5,1.5,3.45-6.62,2.03-7.31,10-5.5Z"/>
                <path class="cls-45" d="m338.46,49.9c-7.97-1.81-6.55-1.12-10,5.5-.93,1.79-2.32,3.33-2.5,5.5-.59-.18-.93,1-3.5-.5.32-2.34.73-4.66,1-7,.04-.33-.03-.67,0-1,8.55-3.09,10.44-5.09,0-6.5.11-.56-.26-1.67.25-2,5.39.22,10.02,3.66,14.75,6Z"/>
                <path class="cls-12" d="m364.96,71.39c-.32.69-.67,1.26-1,2-2.35,2.12-4.74,4.29-7,6.5l-4.5-.5c1.19-2.17,2.37-4.58,3-7,.09-.08,1.05-.73,2-1.5.63-.51,2.83-3.5,3.25-3.5.33,0,3.01,3.44,4.25,4Z"/>
                <path class="cls-45" d="m354.46,59.4c1.84,1.28,12.35,8.25,12.5,9.75.11,1.06-1.94,2.11-2,2.25-1.24-.56-3.92-4-4.25-4-.42,0-2.62,2.99-3.25,3.5l-.5-1c6.76-6.63-7.13-6.95-2.5-10.5Z"/>
                <path class="cls-12" d="m323.47,52.4c.21-2.01-.3-4.9,0-6.5,10.44,1.41,8.55,3.41,0,6.5Z"/>
                <path class="cls-23" d="m347.46,68.89c-.25.42-.73,2.5-1,3-.21.38-.32.62-.5,1-.56,1.17-1.49,2.24-2,3.5-.62-.87-5.88-3.98-6.25-4-2.12-.09-12.49,6.93-4.25-3,.27-.32,1.69-1.16,2-1.5,6.12,2.92,4.77,1.3,6.5,0,.17-.13.85-.38,1-.5,1.1,1.06,3.25,2.41,4.5,1.5Z"/>
                <path class="cls-52" d="m356.96,69.89l.5,1c-.95.77-1.91,1.41-2,1.5-.54.5-1.5.97-2,1.5-2.04-1.87-4.35-1.53-7-2,.27-.5.75-2.57,1-3,1.28-2.17,1.4-2.86,1.5-3,2.42-3.3,5.72,1.65,6.25,5.5.41-.66,1.24-1,1.75-1.5Z"/>
                <path class="cls-23" d="m350.96,76.89c-1.55,1.63-3.87,7.39-6.75,7-4.22-.57-1.03-5.57-.25-7.5.51-1.26,1.44-2.33,2-3.5,1.37,1.39.82,2.65,1.25,3,.89.73,2.72.19,3.75,1Z"/>
                <path class="cls-23" d="m343.96,57.9c.01.52-5.12,6.46-6,7.5-.37.43-1.5,1.38-2.5,2.5-.3.34-1.73,1.18-2,1.5l-8-3.5c1.04-1.08,2.05-2.33,3-3.5h.5c4.68,7.31,6.6,2.67,8,1.5,1.01-.84,1.62-1.58,2.5-2.5.81-.85,2.18-2.25,3-3,.06-.05-.17-.73,1.5-.5Z"/>
                <path class="cls-13" d="m325.96,60.9c.71.22,1.57,1.34,2.5,1.5-.95,1.17-1.96,2.42-3,3.5-7.49,7.77-3.51-1.8-3-5.5,2.57,1.5,2.91.32,3.5.5Z"/>
                <path class="cls-50" d="m356.96,79.89c-8.52,8.34-10.94,11.28-4.5-.5l4.5.5Z"/>
                <path class="cls-48" d="m353.46,73.89c-.89.93-1.57,2.02-2.5,3-1.03-.81-2.86-.27-3.75-1-.43-.35.12-1.61-1.25-3,.18-.38.29-.62.5-1,2.65.47,4.96.12,7,2Z"/>
                <path class="cls-35" d="m342.46,58.4c-.82.75-2.19,2.15-3,3-2.01-2.05-1.72-2.83-4.5-4.5-.21-.13,1.17-1.1-.25-1l-5.75,6.5h-.5c-.93-.16-1.79-1.28-2.5-1.5.18-2.17,1.57-3.71,2.5-5.5,1.47,1.78,6.49-.44,8.5-1.5,1.57,2.27,2.98,3.26,5.5,4.5Z"/>
                <path class="cls-13" d="m348.96,65.89c-.1.14-.22.83-1.5,3-1.25.91-3.4-.44-4.5-1.5,1.21-.97,2.53-3.47,2.75-3.5,1.51-.24.53,3.95,3.25,2Z"/>
                <path class="cls-50" d="m341.96,67.89c-1.73,1.3-.37,2.92-6.5,0,1-1.12,2.13-2.07,2.5-2.5l4,2.5Z"/>
                <path class="cls-12" d="m343.96,57.9c-1.67-.23-1.44.45-1.5.5-2.52-1.24-3.93-2.23-5.5-4.5.09-.05.92-1.52,1.25-1.5.4.03,5.74,5.1,5.75,5.5Z"/>
                <path class="cls-13" d="m334.96,56.9c-2.42,4.37.58,2.45,1,3.25.11.21-2.76.04,1,3.75-1.4,1.17-3.32,5.81-8-1.5l5.75-6.5c1.42-.1.04.87.25,1Z"/>
                <path class="cls-45" d="m339.46,61.4c-.88.92-1.49,1.66-2.5,2.5-3.76-3.71-.89-3.54-1-3.75-.42-.8-3.42,1.12-1-3.25,2.78,1.66,2.49,2.45,4.5,4.5Z"/>
              </g>
              <g>
                <path class="cls-8" d="m259.97,26.4l-1.75,2.5,6.75-1.5c5.53.66,13.22,2.93,11.75,0,1.17.26,7.17.31,7.5.5,2.09,1.21-7.31,1.82,13,6l1-1.5c11.1,5.54,22.53,3.24,21.75,18.5-.72-.86-1.58-1.39-2.5-2-9.76-6.51-38.75-13.67-50.74-15-14.76-1.64-29.95-1.14-44.25,3-.36-.68-.48-.47-.5-.5-3.44-5.41-7.35-4.32-6.5,1.5-.48.6-11.26,3.76-14.5,5-4.08,1.56-7.88,3.56-12,5-.29-1.08-1.32-2.59-1-3.75,15.93-14.57,51.26-19.35,71.99-17.75Z"/>
                <path class="cls-51" d="m296.97,47.9h-.5c-4.86-.22-4.48,1-4.75,1-.88,0-1.89-1-2-1-10.81,0-21.66.52-32.5.5-10.21-.02-25.53-2.2-35.75,0-2.91.29-7.66-.26-9.25,2-1.18-2.48-1.85-.02-2,0-1.87.22-11.3-2.11-10.25,2-2.84.38-5.67,1.22-8,3-.88-2.18-2.49-5.61-3-7.5,4.12-1.44,7.92-3.44,12-5,4.09,4.22,4.14-.13,5.25-.5,1.6-.53,11.18.98,11.5-2,4.76.73,9.5-.32,14.25-.5,2.93-.11,14.35.8,15.75.5.62-.13,1.15-3.91,4-.5,2.23-1.42,16.99-.16,17,2,.35.04.15-1.04.5-1,9.7,1.13,19.74,3.38,29.5,2.5l-1.75,4.5Z"/>
                <path class="cls-18" d="m297.47,51.4c.18.26-.53.71-.5.75,2,2.47,5.3,4.1,8,5.75,4.97,3.04,6.85,5.16,12.5,4.5-1,3.6-2.3,9.84-4,10-13.62-8.68-29.74-11-45.5-12,.73-1.6-.68-2.24,1-6,.09-.19,3.12.82,0-2.5,6.99.42,11.36,2.35,18.25,4-2.58-6.2.68-8.17,5-4.5,3.53-1.7,3.25-2.91,5.25,0Z"/>
                <path class="cls-18" d="m268.97,54.4c-1.68,3.76-.27,4.4-1,6-16.35-1.03-23.94-.94-40,2-2.4-4.37-2.53-3.72-3.5,1-8.37,1.81-16.93,3.08-24.25,8-.9-.13-3.6-6.28-4.25-7.5,17.45-5.83,28.65-8.98,47.24-9.5,3.15-.09,19.57,1.45,20.5,1,.52-.25.09-1.14.25-1.5,1.67.2,3.3.61,5,.5Z"/>
                <path class="cls-18" d="m263.97,53.9c-.16.36.27,1.25-.25,1.5-.92.45-17.35-1.09-20.5-1-18.6.52-29.79,3.67-47.24,9.5-.52-.98-1.01-2-1.5-3,5.78-5.61,15.6-5.07,21.5-9,.83-.03,1.67.02,2.5,0,15.14-.35,30.45.17,45.5,2Z"/>
                <path class="cls-7" d="m317.47,48.9c.92.61,1.78,1.14,2.5,2-.08,1.58-.32,2.27-.5,3.5-.16,1.1-.28,2.44-.5,3.5-4.35-1.86-9.86-2.5-14,0-2.7-1.65-6-3.28-8-5.75-.03-.04.68-.49.5-.75l5-2.75c-7.88.23-5.66-.73-6-.75h.5c9.58-2.69,8.08,2.01,13.75,2,.11,0,.38-1.09,1.5-1.5,1.56,1.8,4.61,3.63,5.25.5Z"/>
                <path class="cls-49" d="m215.98,51.9c-5.89,3.92-15.72,3.39-21.5,9-.89-1.84-1.73-3.6-2.5-5.5,2.33-1.78,5.16-2.62,8-3,3.15-.42,11.79-.36,16-.5Z"/>
                <path class="cls-9" d="m264.97,27.4l-6.75,1.5,1.75-2.5c1.68.13,3.36.8,5,1Z"/>
                <path class="cls-8" d="m227.98,62.4c-1.18.22-2.38.76-3.5,1,.97-4.72,1.1-5.37,3.5-1Z"/>
                <path class="cls-32" d="m317.47,48.9c-.64,3.13-3.69,1.3-5.25-.5-1.11.41-1.39,1.5-1.5,1.5-5.67,0-4.17-4.69-13.75-2l1.75-4.5c-9.75.88-19.8-1.37-29.5-2.5-.35-.04-.15,1.04-.5,1-.01-2.16-14.77-3.42-17-2-2.85-3.41-3.38.37-4,.5-1.39.3-12.82-.61-15.75-.5-.35-2.83-6.69-1.68-9.25-1-.57-.42-.05-1.62-.25-2,14.3-4.14,29.49-4.64,44.25-3,11.99,1.33,40.98,8.49,50.74,15Z"/>
                <path class="cls-32" d="m221.98,36.4s.14-.18.5.5c.2.38-.32,1.58.25,2,2.56-.68,8.9-1.83,9.25,1-4.75.18-9.49,1.23-14.25.5-.32,2.98-9.9,1.47-11.5,2-1.11.37-1.16,4.72-5.25.5,3.24-1.24,14.02-4.4,14.5-5,1.01-1.27-1.14-4.26,6.5-1.5Z"/>
                <path class="cls-37" d="m221.98,36.4c-7.64-2.76-5.49.23-6.5,1.5-.85-5.82,3.06-6.91,6.5-1.5Z"/>
                <path class="cls-49" d="m296.47,47.9c.34.02-1.88.98,6,.75l-5,2.75c-2-2.91-1.72-1.7-5.25,0-4.32-3.67-7.58-1.7-5,4.5-6.89-1.65-11.26-3.58-18.25-4-1.28-.08-2.9-1.23-3.75-1-1.47.39-1.15,2.77-1.25,3-15.04-1.83-30.36-2.35-45.5-2,1.33-1.5-1.01-2.2-.5-2.75.12-.13,2.84-.61,3.5-.75,10.22-2.2,25.53-.02,35.75,0,10.83.02,21.69-.5,32.5-.5.11,0,1.12.99,2,1,.26,0-.11-1.22,4.75-1Z"/>
                <path class="cls-33" d="m268.97,51.9c3.12,3.32.09,2.31,0,2.5-1.7.11-3.33-.3-5-.5.1-.23-.22-2.61,1.25-3,.85-.23,2.46.92,3.75,1Z"/>
                <g>
                  <path class="cls-34" d="m318.97,57.9c-.21,1.02-1.12,3.13-1.5,4.5-5.65.66-7.53-1.46-12.5-4.5,4.14-2.5,9.65-1.86,14,0Z"/>
                  <path class="cls-49" d="m313.72,60.4c1.77-1.11,3,2.79,0,1-.42-.25-.42-.74,0-1Z"/>
                </g>
                <g>
                  <path class="cls-49" d="m221.48,48.4c-.66.14-3.38.62-3.5.75-.51.55,1.83,1.25.5,2.75-.83.02-1.67-.03-2.5,0-4.21.14-12.85.08-16,.5-1.05-4.11,8.38-1.78,10.25-2,.15-.02.82-2.48,2,0,1.59-2.26,6.34-1.71,9.25-2Z"/>
                  <path class="cls-49" d="m215.23,49.4c1.88-.27-.16,2.08-.75.75-.02-.05.7-.74.75-.75Z"/>
                </g>
              </g>
              <path class="cls-47" d="m353.46,257.87c-.37,1.39-.98,2.53-2,3.5-6.59,6.28-16.48.81-12.5-8.25,3.4-7.74,17.73-7.31,14.5,4.75Z"/>
              <path class="cls-47" d="m336.96,268.87c.68,1.93.57,2.6,0,4.5-3.51,11.76-21.33,4.72-11-1.75-3.68-5.38,8.21-10.72,11-2.75Z"/>
              <g>
                <path class="cls-8" d="m335.46,238.88c-6.14,13.68-11.56,19.14-23.75,28,21.41-8.83,35.91-27.99,56.49-38.5-.83,1.98-5.53,15.31-6.25,15.75-1.29.78-6.56-2.29-7.5-1.5-.22.19-2.06,5.21-2,5.5.94,4.76,4.22-.54,4.5-.75-.15,2.62-1.2,11.6-3.5,10.5,3.23-12.06-11.1-12.48-14.5-4.75-3.98,9.06,5.91,14.53,12.5,8.25l1,1c-2.04,2.93-2.6,3.28-4,5l-11.5,1.5c-2.79-7.97-14.68-2.63-11,2.75-10.33,6.47,7.49,13.51,11,1.75l4.5,1.5c-11.73,11.6-25.76,21.8-42.75,23.5-3.78.38-7.7.46-11.5.5-1.62-.71-.12-5.09.25-7,1.6.72,2.85-.25,4.5-1,8.2-1.3,20.11-7.88,4-2l2.75-3c-3.07-1.03-6.72.43-9.25-1.5,1.15-3.89,3.65-7.39,4.25-11.5-1.1-.71-10.37,3.92-13.25,2.75-1.79,8.1-4.19,16.25-5,24.5-.01.15,1.02,2.44,1,2.75-2.17-.77-1.54-5.47-5-5.5,1.39-4.97,3.01-13.78,4.5-20,2.63-11.01,4.44-22.24,7-33.25,2.05-8.83,5.44-18.12,6.5-26.75,4.28-4.2,1.03-5.99,2.75-6,.16,0,.51,1.49,1,1.5.61.02,4.97-6.48,7.75-9.5-1.18,5.06-5.51,9.2-7.5,13.75-2.68,6.14-13.96,51.86-13,54.49,1.37,3.72,24.25-5.79,27.75-7.75,4.68-2.62,9.64-6.79,13.5-10.5,5.71-5.5,10.02-13.42,13.75-14.5Z"/>
                <path class="cls-10" d="m315.47,287.37c-1.38.21-3.12-.22-4.5,0l-3.75-7c1.36-.03,12.96,5.77,11.5,6.5-3.54-.29-3.09.48-3.25.5Z"/>
                <path class="cls-47" d="m315.22,274.87c1.5,0,3,0,4.5,0,4.19,2.09-22.41,1.67-23.25,1.25,6.15-.51,12.59-1.22,18.75-1.25Z"/>
                <path class="cls-47" d="m291.97,290.87c1.4-.63,2.45-1.43,4-2,16.11-5.88,4.2.7-4,2Z"/>
                <path class="cls-14" d="m310.97,287.37c1.38-.22,3.11.21,4.5,0l-11.75,2c1.28-1.52,5.16-1.67,7.25-2Z"/>
              </g>
              <path class="cls-47" d="m359.96,171.38c-.04.26,1.46,3.78-1.25,4.5-.91.24-8.77-.95-18.75,0-1.26.12-2.3-.85-3.75-.5-1.71.41-.51,1.89-3.25,2-2.68.1-9.6-.94-13-1-.34-3.23.58-8.16,1.5-11.5,1.62.31,9.98.22,10.5,1.25,2.66,5.23-10.13.2-8.5,4.5.56,1.47,13.07.32,15.25.75,3.08-13.31,4.35-1.79,5-1.5.76.34,12.75.64,16.25,1.5Z"/>
              <path class="cls-47" d="m317.47,180.88c4.08.34,9.79-.46,13.5,0,5.14.64,2.12,1.15,3,5-8.88,2.18-15.85-2.83-18,4.5-.99.07-2.02-.11-3,0,1.82-8.23.94-8.09,4.5-9.5Z"/>
              <path class="cls-46" d="m332.96,177.38c0,1.24,1.08,2.63,1,2.75-.5.71-2.8-.34-3,.75-3.71-.46-9.42.34-13.5,0,1.61-.64,3.25-.4,3.5-.75.85-1.19-.93-3.06-1-3.75,3.39.06,10.32,1.1,13,1Z"/>
              <g>
                <path class="cls-47" d="m284.97,78.39c1.13.2,2.36.28,3.5.5,7.81,3.31,15.91,6.19,23.5,10,14.36,7.2,29.09,17.45,37.5,31.5,1.1,1.85,3.32,5.74,4,7.5,3.6,9.29,5.7,22.86,2,32.25.49,1.28,14.32,1.94,16.5,2.75,8.01,2.97,9.17,20.8,9,28,4.61,4.41,7.09,11.14,7,17.5-.04,3.29-2.17,9.96-2.5,13.75,2.33-9.21,3.63-2.23,3.5-1.5-.15.84-3.78,2.81-4.5,4-.43.71-1.41,5.76-2,7-4.83,10.14-11.87,24.83-19,33.25-.8.95-4.16,4.08-6,6-3.87,4.04-30,28.1-33.25,28.5-.43.05-.85-1.48-1-1.5-.46-.05-.33,2.23-4.5,4.5-1.93,1.05-19.78,5.68-22.5,6-4.99.59-17.18.33-19.75-5,0-.17-.01-.33,0-.5.02-.31-1.01-2.6-1-2.75.81-8.25,3.21-16.4,5-24.5,2.87,1.17,12.14-3.46,13.25-2.75-.6,4.11-3.1,7.61-4.25,11.5-.62,2.12-1.6,5.46-2,7.5-.37,1.91-1.87,6.29-.25,7,3.8-.04,7.72-.12,11.5-.5,16.98-1.7,31.02-11.9,42.75-23.5,2.96-2.92,4.27-4.14,7-7.5,1.4-1.72,1.96-2.07,4-5,1.42-2.04,14.34-22.46,4.5-15-.28.21-3.56,5.51-4.5.75-.06-.29,1.78-5.31,2-5.5.94-.79,6.21,2.28,7.5,1.5.72-.44,5.42-13.77,6.25-15.75-20.58,10.5-35.08,29.67-56.49,38.5,12.18-8.85,17.6-14.31,23.75-28,8.49-18.9,5.23-25.52,6-27.75.1-.28,2.04-.79,2-1-.08-.4-1.62,0-2-1-.26-.69-.46-7.66-1.5-10.75-.29-.85-1.15-3.73-1.75-4-11.4.82-22.7,2.67-34,4.5-1.04.91-1.83,3.08-2.25,3.5-.35.35-.65.61-1,1-2.78,3.02-7.14,9.52-7.75,9.5-.49-.01-.84-1.5-1-1.5-1.72.01,1.53,1.8-2.75,6-1.38,1.35-4.7,3.39-6.5,4.5-8.71,5.36-18.67,8.89-29,8.5-5.47-.44-8.74-1.03-14-2.5-3.42-.95-6.8-1.97-10-3.5-3.28-1.57-6.33-4.63-10-5.5-.45-.94-2.69-5.84-3.25-6-.71-.2-3.47,1.77-4.75,1.5-2.63-3.35-4.95-10.16-8-14-.63-.79-.86-2.4-3.25-3.5-5.42-2.15-56.27-5.89-61.99-5-7.18,1.11,8.09,1.48,8.75,2.25.81,3.53,1.09,7.25,2,10.75.9,3.47,1.86,6.6,3,10,3.65,10.88,6.89,16.08,14.25,25-3.19-9.39-5.16-19.53-4.75-29.5.12-2.91,1.06-8.17,2-11,2.96-8.9,5.57-4.07,10-3.5-5.58,13.11-4.83,25.32-.5,38.5,7.44,22.66,28.01,37.6,51.24,41.5,2.32.39,6.75-.34,8.25,1.5-.11,4.34,5.9,20,3.5,25.75-2.52,6.03-20.45,5.44-26,4.75-.13-.02-1.57-.33-2.5-.5-19.45-3.48-43.25-25.26-54.99-40.75-9.4-12.39-24.09-39.51-27-54.49-.89-4.61-.53-9.82-1-13.25l7-8.25c.24-2.18-.33-5.37,0-7.25.51-2.96,2.27-13.02,3-14.5.09-.18,2.33-2.9,2.5-3,1.24-.69,20.74-3.55,25.5-4.5,15.51-3.1,30.81-6.57,46.25-10,1.01-.23,1.4.35,2,1,.74-.54,1.1-1.38,1.75-2,.34,0,.91-.12,1,.25.57,2.26-.34,12.33,6.75,1.75,3.57.07,15.65-10.27,18.5-11,8.37-2.13-2.63,7.77-3.25,12.75-.86,6.92,2.28,2.72,4,3.75-30.56,18.23-1.47,65.8,31,45-.75,12.57,4.17,12.09,3.5,16.25-.19,1.2-5.26,5.93-.25,5.25,3.73-.51,23.29-18.48,28.25-29.5.3-.66.76-1.33,1-2,3.01,1.43,2.23-5.54,4.5-6-.23,1.02-3.01,7.1-2.25,7.5,2.89-.75,7.92-3.05,10.25-3.5,7.89-1.51,23.17-2.49,31.25-1.5-5.27-6.16-3.78-4.05-8.75-2,.19-2.67.34-5.33.5-8,11.73,1.13,20.52-4.2,26,8,.04.09-1.36,1.46.25,2,3.03,1.02,3.14-.05,2.75-2-.31-1.55-3.31-6.98-3-7.75.2-.49,3.08-1.31,3.25-1.25,1.34.45,2.79,8.76,3.25,9.25,6.41,6.88,4.32-15.59.5-20-.7-.81-1.49-1.37-2.5-1.75-15.34-2.04-30.73-3.96-46-6.5-5.34-.89-10.68-2-16-3-.44-1.18-1.35-1.97-1-3.5,8.75,1.64,33.62,5.97,40.5,6,.25,0,1.48.96,2.25.5,1.28-.76,2.7-9.32-1.75-5.5.87-5.14.31-7.18-.5-12-5.2-30.99-34.16-54.32-63.49-61.49l1.5-2Z"/>
                <g>
                  <path class="cls-4" d="m361.46,196.88c-.54,3.46.74,9.53-3,21-2.21-2.98-6.27-10.02-9-9-.47-5.48-1.33-7.66-2.5-12.5q7.25.25,14.5.5Z"/>
                  <path class="cls-8" d="m358.46,217.88c-2.27,6.97-8.48,18.27-14.5,22.75,5.44-9.81,6.44-20.8,5.5-31.75,2.73-1.03,6.79,6.02,9,9Z"/>
                  <path class="cls-4" d="m200.48,271.87c-2.1,4.22-8.5-5-10-2.25-.07.66.11,1.57,0,1.75-.09.14.12,1.28-2.25,2.5-6.47,3.33-1.56-3.44-3.75-7.5,1.45-.2,3.22-.87,3.5-2.5,3.96,2.91,8.3,5.45,12.5,8Z"/>
                  <path class="cls-8" d="m361.46,196.88q-7.25-.25-14.5-.5c-.04-.15-1.69-2.47-.75-3h27c-2.86,3.31-10.87-2.14-11.75,3.5Z"/>
                  <path class="cls-3" d="m177.98,260.37l.5,3.5c-2.53-.31-4.41-.75-6,1.5l-8-.5c-.14-.18-1.05-.65-3-3.5,4.67-.16,12.16-.23,16.5-1Z"/>
                  <path class="cls-5" d="m359.46,187.88c-4.06-2.54-4.85-.88-6.5-1-1.68-.12-4.77.59-5.5-1.25-1.25-3.13,2.96-6.26,5.25-.75,1.8-4.19,8.83-1.6,6.75,3Z"/>
                  <path class="cls-8" d="m172.48,265.37c-2.02,2.87-.69,7.9,2,10l-1,.5c-3.48-3.56-6.04-7.05-9-11l8,.5Z"/>
                  <path class="cls-6" d="m187.98,263.87c-.28,1.63-2.05,2.3-3.5,2.5-.81-1.5-4.4-2.3-6-2.5l-.5-3.5c1.18-.21,2.52-.74,3.5-1.5,1.97,1.69,4.39,3.45,6.5,5Z"/>
                  <path class="cls-10" d="m352.46,262.37l-1-1c1.02-.97,1.63-2.11,2-3.5,2.29,1.11,3.35-7.88,3.5-10.5,9.84-7.46-3.08,12.96-4.5,15Z"/>
                  <path class="cls-19" d="m359.46,187.88c-1.23,2.71-5.59,2.38-6.5-1,1.65.12,2.44-1.54,6.5,1Z"/>
                  <path class="cls-28" d="m367.96,187.38c.39,1.95.28,3.02-2.75,2-1.61-.54-.21-1.91-.25-2h3Z"/>
                  <path class="cls-47" d="m178.48,263.87c1.6.2,5.19,1,6,2.5,2.19,4.06-2.72,10.83,3.75,7.5,2.37-1.22,2.16-2.36,2.25-2.5,6.32,6.45-11.31,7.66-16,4-2.69-2.1-4.02-7.13-2-10,1.59-2.25,3.47-1.81,6-1.5Z"/>
                  <g>
                    <path class="cls-4" d="m200.48,271.87c2.37,1.44,5.1,2.36,7.5,3.75.14.35-2.37,3,.25,6.75,10.57,3.99,11.7,5.18,5.75-2.75l.75-.75c12.15,9.68,18.64,24.97-4.5,20.5-11.79-2.28-28.3-14.86-36.75-23.5l1-.5c4.69,3.66,22.32,2.45,16-4,.11-.18-.07-1.09,0-1.75,1.5-2.75,7.9,6.47,10,2.25Z"/>
                    <path class="cls-47" d="m200.73,278.87c7.15,8.78,10.31,6.92,5.5,14.5-13.83-.31-21.7-7.3-5.5-14.5Z"/>
                    <path class="cls-47" d="m219.73,288.37c6.48-.31,6.91,9.54,1.5,10.5-8.74,1.54-10.27-10.09-1.5-10.5Z"/>
                  </g>
                  <g>
                    <path class="cls-6" d="m181.48,258.87c-.98.76-2.32,1.29-3.5,1.5-4.34.77-11.83.84-16.5,1-4.23-6.16-10.48-16.88-13-23.75-1.49-4.08-3.24-6.58-.25-7.25,6.15-1.37,27.75,23.78,33.25,28.5Z"/>
                    <path class="cls-47" d="m153.73,236.38c2.66-.82,14.07,11.72,14.25,12.75,1.21,7.14-19.23-5.16-6-1.5-2.28-.39-14.18-9.43-8.25-11.25Z"/>
                  </g>
                  <g>
                    <path class="cls-35" d="m202.48,187.38c-1.66-.15-5.88-1.1-6.5-1-1.96-10.32-2.28-8.42-12.5-8.5-.09-.81-.22-.88-.5-1.5q4.5-.37,9-.75c.27-7.25.17-5.43-5.5-5.75v-.5c3.43-3.25.74-7.26-3.5-5.5.18-.19-.8-1.07,2.5-1.25l-2.5-1.75c9.24-1.92,18.41-4.68,27.5-7.25-7.62,10.1-10.38,21.36-8,33.75Z"/>
                    <path class="cls-13" d="m167.98,166.88c.08.05.92,1.45,1,1.5q-11.62,1.5-23.25,3c-1.14.73-6.02,16.68-6.75,17.25-6.21,4.83-3.14-18.41-.75-20.25,1.21-.93,3.51-.71,4.75-1,4.52,1.21,19.47-3.23,22.75-2.5.15.03,1.64,1.59,2.25,2Z"/>
                    <path class="cls-47" d="m186.48,169.38l-5.5.25c0,.48,3.8.15,5.5.25,5.67.32,5.77-1.5,5.5,5.75q-4.5.37-9,.75c-2.46-5.4-9.59-2.06-10.5-2-1.56.1-2.9.45-4.5.5-1.64-4.46,1.96-2.14,3-5.5,7.38,2.57,7.83-1.19,12-5.5,4.24-1.76,6.93,2.25,3.5,5.5Z"/>
                    <path class="cls-39" d="m156.23,181.88c17.89-1.96,13.14,5.83,25.25,7.75-3.62-.07-30.04.47-30.5-1l5.25-6.75Z"/>
                    <path class="cls-20" d="m182.98,160.88l2.5,1.75c-3.3.18-2.32,1.06-2.5,1.25-4.17,4.31-4.62,8.06-12,5.5-1.03-.36-1.12-.47-2-1-.08-.05-.92-1.45-1-1.5v-3.5c4.96-.93,10.06-1.47,15-2.5Z"/>
                    <path class="cls-23" d="m167.98,174.88c1.6-.05,2.94-.4,4.5-.5-2.01,2.37-1.38,4.24-1,7-1.74-1.8-.38-2.24-1.75-3.5-4.78.39-10.02-.53-14.75,0,1.53-3.09-5.95-4.68-7.5,1.5.09-.22-1.41-.16,1.75-4.5,6.26-.61,12.49.19,18.75,0Z"/>
                    <path class="cls-23" d="m146.98,181.88c.05.99,1.45-.38,2.5-1,1.59-.95,1.54-2.11,2.5-.75-1.15,1.37-4.48,8.42-5.25,8.75-6.47,2.74-.24-5.72.25-7Z"/>
                    <path class="cls-20" d="m202.48,187.38c.18.95.41,1.13.5,1.5l-4.5,1.5c-1.06-.51-5.59-1.11-7.5-2.25,4.52.01,4.72-1.71,5-1.75.61-.1,4.84.85,6.5,1Z"/>
                    <path class="cls-8" d="m154.98,177.88c-2.38.27-4.29-.68-5.5,3-1.05.62-2.45,1.99-2.5,1,.14-.35.19-1.74.5-2.5,1.55-6.18,9.03-4.59,7.5-1.5Z"/>
                    <path class="cls-21" d="m167.98,166.88c-.61-.41-2.1-1.97-2.25-2-3.27-.73-18.23,3.71-22.75,2.5,6.89-1.6,17.05-2.51,25-4v3.5Z"/>
                    <path class="cls-50" d="m202.98,188.88c.67,2.73,2.1,4.74,1.75,6-.47.23-5.28-4.03-6.25-4.5l4.5-1.5Z"/>
                    <path class="cls-16" d="m186.48,169.38v.5c-1.7-.1-5.5.23-5.5-.25l5.5-.25Z"/>
                    <g>
                      <path class="cls-6" d="m182.98,176.38c.28.62.41.69.5,1.5.67,5.98-4.47,11.28-12,3.5-.38-2.76-1.01-4.63,1-7,.91-.06,8.04-3.4,10.5,2Z"/>
                      <path class="cls-47" d="m175.23,175.38c7.86-2.5,7.4,11.09,0,7.5-3.35-1.63-2.32-6.76,0-7.5Z"/>
                    </g>
                  </g>
                </g>
              </g>
              <g>
                <path class="cls-40" d="m275.97,277.37c-1.25.3-1.13-.91-1-2.25.54-5.69,6.13-30.14,8-46.25.27-2.32,1.18-4.68,0-7,1.8-1.11,5.12-3.15,6.5-4.5-1.06,8.62-4.45,17.92-6.5,26.75-2.56,11-4.37,22.24-7,33.25Z"/>
                <path class="cls-41" d="m282.97,228.88c-5.79,1.05-11.13,3.61-17,4.5-.67-5.39-1.18-2.63-4.75-2.5-2.56.09-4.75-.3-7.25-.5,10.33.39,20.29-3.14,29-8.5,1.18,2.32.27,4.68,0,7Z"/>
                <g>
                  <path class="cls-36" d="m229.98,224.38c-1.14,1.66.26,3.68.5,5.5.22,1.64.26,3.33.5,5-2.44.11-4.19,1.99-5,4-1.72-6.76-2.95-13.64-6-20,3.67.86,6.72,3.92,10,5.5Z"/>
                  <path class="cls-17" d="m253.97,230.38c2.5.2,4.69.59,7.25.5,3.57-.13,4.08-2.89,4.75,2.5-8.49,1.29-16.07,1.01-24.5-.5,1.27-4.79-2.78-3.56-1.5-5,5.26,1.47,8.53,2.06,14,2.5Z"/>
                  <path class="cls-13" d="m239.97,227.88c-1.28,1.44,2.77.21,1.5,5-3.83-.69-7.42-1.45-11-3-.24-1.82-1.64-3.84-.5-5.5,3.2,1.53,6.58,2.55,10,3.5Z"/>
                  <path class="cls-50" d="m230.98,234.88c3.48,24.53,8.83,48.76,14,72.99-6.05-6.61-8.77-22.79-11-32-2.97-12.26-4.89-24.76-8-37,.81-2.01,2.56-3.89,5-4Z"/>
                  <g>
                    <path class="cls-47" d="m282.97,228.88c-1.87,16.11-7.46,40.56-8,46.25-.13,1.34-.25,2.55,1,2.25-1.49,6.22-3.11,15.03-4.5,20-1.68,6.01-3.39,12.76-10.25,15-6.56,2.14-11.86.3-16.25-4.5-5.17-24.23-10.51-48.46-14-72.99-.24-1.67-.28-3.36-.5-5,3.58,1.55,7.17,2.31,11,3,8.43,1.51,16,1.79,24.5.5,5.86-.89,11.2-3.45,17-4.5Z"/>
                    <path class="cls-8" d="m246.72,266.37c11.79.97,18.92-3.33,21.75,5.25-11.8.85-27.21,3.61-21.75-5.25Z"/>
                    <path class="cls-8" d="m249.22,276.37c2.1-.61,16.44.27,20.25.25-7.06,6.96-14.38,5.84-23.75,5.75-1.89-.7,2.96-5.84,3.5-6Z"/>
                    <path class="cls-6" d="m255.22,250.37c4.45-1.21,10.02,9.95-.5,7.5-4.5-1.05.05-7.38.5-7.5Z"/>
                    <path class="cls-6" d="m266.72,266.37c6.3-.88,4.84,2.68,1.5,2-.12-.02-2.38-1.59-1.5-2Z"/>
                  </g>
                </g>
                <g>
                  <path class="cls-47" d="m300.47,151.89c8.4,10.54,10.44,22.05,7.5,35-2.27.46-1.49,7.43-4.5,6,1.66-4.58,2.35-9.45,3-14.25-7.93-7.5-11.83-18.11-21.25-24.75-8.21-5.79-29.42-14.24-33.5-1l5.25,1v.5c-6.06-.7-11.72.35-17,3.5-1.72-1.03-4.86,3.17-4-3.75.62-4.97,11.62-14.88,3.25-12.75-2.85.73-14.92,11.06-18.5,11-7.09,10.58-6.18.51-6.75-1.75-.09-.37-.66-.25-1-.25,2.58-2.46,4.27-5.62,9.25-9,22.55-15.3,60.97-11.18,78.24,10.5Z"/>
                  <path class="cls-14" d="m303.47,192.88c-.24.67-.7,1.34-1,2-7.76-4.58-15.78,10.4-23,3.25.46-.7,1.35-2.08,1.5-2.75,1.75,1.56,2.99-2.73,4-3.75,6.13-6.2,11.36-9.25,8.5-19.5-3.87-13.85-18.35-21.89-32.25-20.25-2.05.24-2.12,2.58-4.25,2l-5.25-1c4.08-13.24,25.29-4.79,33.5,1,9.41,6.64,13.32,17.25,21.25,24.75-.65,4.8-1.34,9.67-3,14.25Z"/>
                  <path class="cls-47" d="m282.47,190.38c-.29,1.64-1.11,3.31-1.5,5-.15.67-1.04,2.05-1.5,2.75,7.22,7.15,15.24-7.83,23-3.25-4.96,11.02-24.52,28.99-28.25,29.5-5.01.68.06-4.05.25-5.25.67-4.16-4.25-3.68-3.5-16.25,4.75-3.05,9.5-8.51,11-14,.67-.03.6.95.5,1.5Z"/>
                  <g>
                    <path class="cls-6" d="m256.97,154.39c4.69.54,11.29,3.1,15,6,1.65,1.29,6.38,7.01,7.5,9,3.64,6.45,4.47,12.27,2.5,19.5-1.49,5.49-6.25,10.95-11,14-32.47,20.81-61.55-26.77-31-45,5.28-3.15,10.94-4.2,17-3.5Z"/>
                    <path class="cls-11" d="m250.72,157.88c25.22-2.3,36.82,30.58,17,43-21.98,13.77-47.94-11.91-33.25-33.25,3.37-4.89,10.33-9.21,16.25-9.75Z"/>
                  </g>
                  <path class="cls-43" d="m286.47,183.38c2.63-4.89-.31-4.97-.5-5.75-.28-1.14,1.45-8.71-6.5-8.25-1.12-1.99-5.85-7.71-7.5-9q3.37-.5,6.75-1c.82,4.06,6.25,5.75,8.25,9.75,1.66,3.32,3,10.77,1,14-.32.51-1.41.13-1.5.25Z"/>
                  <path class="cls-22" d="m286.47,183.38c-1.01,1.39-2.03,3.32-3.5,3.75,4.04,2.29,4.81,3.11-.5,3.25.1-.55.17-1.53-.5-1.5,1.97-7.23,1.14-13.04-2.5-19.5,7.95-.46,6.22,7.11,6.5,8.25.19.78,3.13.86.5,5.75Z"/>
                  <g>
                    <path class="cls-44" d="m280.97,195.38c.39-1.69,1.21-3.36,1.5-5,5.31-.14,4.54-.96.5-3.25,1.47-.43,2.48-2.36,3.5-3.75.09-.12,1.18.26,1.5-.25,2-3.23.66-10.68-1-14-2-4-7.43-5.69-8.25-9.75q-3.37.5-6.75,1c-3.71-2.9-10.31-5.46-15-6v-.5c2.13.58,2.2-1.76,4.25-2,13.9-1.64,28.38,6.4,32.25,20.25,2.86,10.25-2.37,13.3-8.5,19.5-1.01,1.02-2.25,5.31-4,3.75Z"/>
                    <path class="cls-25" d="m286.72,185.88c.68-.34,1.1.58.5,1.5-.9,1.37-1.06-1.22-.5-1.5Z"/>
                  </g>
                </g>
              </g>
            </g>
          </g>
        </g>
      </g>
    </g>
  </g>
</svg>