<?xml version="1.0" encoding="UTF-8"?>
<svg id="_Шар_2" data-name="Шар 2" xmlns="http://www.w3.org/2000/svg" xmlns:xlink="http://www.w3.org/1999/xlink" viewBox="0 0 453.7 465.51">
  <defs>
    <style>
      .cls-1 {
        fill: #b7906e;
      }

      .cls-1, .cls-2, .cls-3, .cls-4, .cls-5, .cls-6, .cls-7, .cls-8, .cls-9, .cls-10, .cls-11, .cls-12, .cls-13, .cls-14, .cls-15, .cls-16, .cls-17, .cls-18, .cls-19, .cls-20, .cls-21, .cls-22, .cls-23, .cls-24, .cls-25, .cls-26, .cls-27, .cls-28, .cls-29, .cls-30, .cls-31, .cls-32, .cls-33, .cls-34, .cls-35, .cls-36, .cls-37, .cls-38, .cls-39, .cls-40, .cls-41, .cls-42, .cls-43, .cls-44, .cls-45, .cls-46, .cls-47, .cls-48 {
        stroke-width: 0px;
      }

      .cls-2 {
        fill: #9a9b9d;
      }

      .cls-3 {
        fill: #996557;
      }

      .cls-4 {
        fill: #0d0a08;
      }

      .cls-5 {
        fill: #f3dfbd;
      }

      .cls-6 {
        fill: #afb3b6;
      }

      .cls-7 {
        fill: #f6f7fa;
      }

      .cls-8 {
        fill: #afb3a4;
      }

      .cls-9 {
        fill: #74787c;
      }

      .cls-10 {
        fill: #5f3727;
      }

      .cls-11 {
        fill: url(#_Градієнт_без_назви_68);
      }

      .cls-12 {
        fill: #606462;
      }

      .cls-13 {
        fill: #646972;
      }

      .cls-14 {
        fill: #c7cbce;
      }

      .cls-15 {
        fill: #7f4f33;
      }

      .cls-16 {
        fill: #878a8e;
      }

      .cls-17 {
        fill: #1c110c;
      }

      .cls-18 {
        fill: #dfd4c4;
      }

      .cls-19 {
        fill: #826963;
      }

      .cls-20 {
        fill: #484b44;
      }

      .cls-21 {
        fill: #1e1e1d;
      }

      .cls-22 {
        fill: #e2c694;
      }

      .cls-23 {
        fill: #814d45;
      }

      .cls-24 {
        fill: #474e55;
      }

      .cls-25 {
        fill: #c5a99b;
      }

      .cls-26 {
        fill: #624532;
      }

      .cls-27 {
        fill: #4b281c;
      }

      .cls-28 {
        fill: #2f3337;
      }

      .cls-29 {
        fill: #321811;
      }

      .cls-30 {
        fill: #d9bc9d;
      }

      .cls-31 {
        fill: #76726a;
      }

      .cls-32 {
        fill: #632a20;
      }

      .cls-33 {
        fill: #a67d5d;
      }

      .cls-34 {
        fill: #453324;
      }

      .cls-35 {
        fill: url(#_Градієнт_без_назви_62);
      }

      .cls-36 {
        fill: #281a0f;
      }

      .cls-37 {
        fill: #723d30;
      }

      .cls-38 {
        fill: #8c8a81;
      }

      .cls-39 {
        fill: #dee0de;
      }

      .cls-40 {
        fill: #c0a386;
      }

      .cls-41 {
        fill: #53473f;
      }

      .cls-42 {
        fill: #c7b9b6;
      }

      .cls-43 {
        fill: url(#_Градієнт_без_назви_60);
      }

      .cls-44 {
        fill: #2f271f;
      }

      .cls-45 {
        fill: #ecd1b6;
      }

      .cls-46 {
        fill: #895c39;
      }

      .cls-47 {
        fill: #5c564d;
      }

      .cls-48 {
        fill: url(#_Градієнт_без_назви_64);
      }
    </style>
    <linearGradient id="_Градієнт_без_назви_60" data-name="Градієнт без назви 60" x1="171.29" y1="172.51" x2="303.07" y2="180.15" gradientUnits="userSpaceOnUse">
      <stop offset="0" stop-color="#d4a092"/>
      <stop offset=".28" stop-color="#361a17"/>
      <stop offset="1" stop-color="#0b0a08"/>
    </linearGradient>
    <linearGradient id="_Градієнт_без_назви_62" data-name="Градієнт без назви 62" x1="168.71" y1="278.81" x2="214.08" y2="282.21" gradientUnits="userSpaceOnUse">
      <stop offset="0" stop-color="#c89382"/>
      <stop offset="1" stop-color="#21120e"/>
    </linearGradient>
    <linearGradient id="_Градієнт_без_назви_64" data-name="Градієнт без назви 64" x1="169.18" y1="262.71" x2="271.67" y2="264.43" gradientUnits="userSpaceOnUse">
      <stop offset="0" stop-color="#c7948a"/>
      <stop offset=".35" stop-color="#391c18"/>
      <stop offset="1" stop-color="#100b08"/>
    </linearGradient>
    <linearGradient id="_Градієнт_без_назви_68" data-name="Градієнт без назви 68" x1="238.4" y1="128.52" x2="232.38" y2="142.8" gradientUnits="userSpaceOnUse">
      <stop offset="0" stop-color="#5f5845"/>
      <stop offset="1" stop-color="#332414"/>
    </linearGradient>
  </defs>
  <g id="_Шар_1-2" data-name="Шар 1">
    <g>
      <g>
        <path class="cls-7" d="m47.5,385.53c9.76,10.63,25.94,22.02,35.5,31,2.71,2.55,4.95,4.01,1.75,5-12.74-11.79-26.81-22.09-38.75-34.75-.4-1.86,1.44-1.13,1.5-1.25Z"/>
        <path class="cls-2" d="m371.5,74.53c-2.4-1.74-5.05-3.3-7.5-5,.28-1.98,4.39-.72,4-4,.33.14.7-.53.75-.5,2.08,1.4,1.81,5.66,4.75,6.75l-2,2.75Z"/>
        <path class="cls-7" d="m230.5,452.03c2.18,2.77,9.07,2.75,1,3-3.16-3.8-1.28-2.71-1-3Z"/>
      </g>
      <g>
        <path class="cls-14" d="m14,237.03c4.3-1.49,1.91,8.45,2.5,17.25.37,5.46,1.75,11.03,2,16.5-2.94,1.02.06,12.05-1,17.5,1.98,5.34,2.4,11.64,4,17,.2.66,1.42.74,1.5,1,.11.35-1.1,2.13,1,7,.15.36,1.73.99,3.75,5.75,9.39-4.14-4.57-18.67,4.25-12.25,7.1,24.19,26.11,59.92,45.75,75.75,2.54,2.05,20.69,15.36,21,11,1.86,1.97,4.05,3.44,6.25,5,3.03,2.14,5.89,4.41,9,6.5,36.48,24.55,54.29,33.09,99.5,37,3.63.31,7.37.87,11,1,10.07.35,41.18-1.39,50.75-3,7.94-1.34,15.15-4.63,22.75-7,1.46-.02,4.17-.25,4-2,6.76.33,9.96-2.81,10.5-3,3.06.59,12.25-2.84,15-5,.15-.05.35.05.5,0,3.13-1.15,6.49-2.12,9-4.5,16.65-7.88,43.74-29.03,56.5-42.75,15.55-16.72,20.96-29.86,22.5-31,1.16-.86,1.43,1.63,2.5,0,.8-2.61,8.7-18.33,9.75-18.75.11-.04,2.23.63,2.25.75.18,1.23-9.58,19.66-11,22.25-9.34,13.67-18.82,27.18-30.5,39-11.22,9.98-30.49,24.38-43.75,31-3.87,1.93-35.46,15.12-39.5,16.5-49.28,16.79-108.99,15.01-157.75-2.5-.71-.33-1.32-.67-2-1-46.61-30.24-63.56-29.58-97.5-76.5,1.75-1.02,2.44-2.95,2-4.25-.2-.57-5.55-10.09-6-10.5-2.85-2.61-5.7.1-6,.25-.13.06-1.92-2.41-.5.75.19.42,4.14,6.42,5,7.75-.84.2-1.17,1.26-1.5,2-11.59-8.22-19.79-33.55-25.5-48.25-.8-2.05-1.69-.2-2-1-1.66-6.16-2.5-14.17-4-20-.13-.51-.63-2.08-1.5-1.75-.23-1.48-.31-3.03-.5-4.5l-1-40.5c1.7.18,2.64.59,2.75.5,1.75-1.36.21-28.24.25-32.5.03-2.89.61-6.58,1-9.5,1.16.91,2.86.98,3,1.25.36.69-.61,14.83-1,15.5-.33.58-1.67-.08-2,.5-.73,1.28.43,28.14,1,29.5,1.92,4.57,1.95-3.34,2-3.75Z"/>
        <path class="cls-6" d="m146,432.03c.68.33,1.29.67,2,1,1.01.47,1.98,1.06,3,1.5-.66,5.68,29.97,13.17,35.5,10,9.88,1.69,21.98,2.98,32,3.5l-1.75,1c17.74-2.55.9,12.64-1,.5-4.5,1.83-2.52,3.61-3.25,8.5-3.3-.1-4.72.52-5.25.5-.38-.02-.12-.98-.5-1-3.54-.17-7.22-.51-10.75-.5.08-2.18-3.05-.49-3.25-.5-.11,0-.7-1.88-2-1-.79.53,3.41,4.6-1.5,2.5-4.68-2,.12-1.66.75-4,.26-.95,1.02-.57-.75-1.5-9.42-4.97-35.73-4.92-57.5-19-4.65-3.01-23.17-17.28-29.25-22-4.04-3.14-12.63-8.94-11-11,8.24,5.45,45.98,27.34,54.5,31.5Z"/>
        <path class="cls-6" d="m440,313.03c-2.66,8.2-4.75,16.48-8,24.5-4.03.38-5.28,7.44-8,12.25-1.65,2.93-12.77,20.27-13,21.5-.15.77.75,1.42,1.5,1.25-.09.12.11.38-1.5,2.5-9.13,2.98-15.4,13.79-22,20-4.58,4.31-9.73,7.53-14.5,11.5-5.79-1.01-13.47,11.41-15,5.5,10.44-6.6,20.85-15.24,29.5-24,13.41-11.94,21.9-23.27,30.5-39,6.68-8.86,13.91-29.5,19-37.25,1.27-1.93.6.64,1.5,1.25Z"/>
        <path class="cls-7" d="m193,21.53c-4.38.56-10.33,1.21-14.5,2-19.02,3.63-42.55,12.84-60,21.5-2.77,1.37-5.31,3.03-8,4.5-10.47,5.71-38.27,23.34-45.5,31-2.84,3.02-2.65,3.32,3,8-4.62,7.74-9.26,9.12-7,11.25-8.65,9.51-15.9,20.15-23.75,30.25-.79-.26,1.36-2.88,1.75-3.5,5.48-8.69,13.01-16.12,18.25-25-8.62,9.33-18.04,18.23-25.25,28.75-3.25,4.74-11.55,18.35-11.5,23.25-.34,2.51-1.55-1.58-.5-5.75,3.63-14.42,35.42-45.91,46.5-58l-6-8.5c23.33-18,46.64-33.57,74-44.75,5.71-2.33,11.64-4.57,17.5-6.5,18.08-5.95,29.92-8.66,49-10.5,14.84-1.43,30-2.46,44.75.5-17.75-1.75-35.1-.76-52.75,1.5Z"/>
        <path class="cls-7" d="m434,335.03c-2.55,6.65-5.69,13.19-9,19.5-11.88,22.61-21.54,31.15-38.25,49.5,4.29-9.64,14.72-16.43,24.25-29,1.61-2.12,1.41-2.38,1.5-2.5,7.82-10.86,14.44-22.52,19.5-35,3.25-8.02,5.34-16.3,8-24.5,2.48-7.65,6.91-20.08,8.5-26.5,2.28-9.2,3.08-18.06,3.5-27.5.71-16.13-.45-28.56-2.5-44.5.1-.08-.21-1.5.25-1.5,3.75,18.08,5.18,42.93,2.75,61.25-.71,5.34-4,13.87-2.5,14.5-1.68.7-2.15,1.54,0,1-1.41,2.88-.16,12.7-2.75,14.25-4.53,2.71.65-11-1.25-7.25-2.44,4.79-7.9,27.57-12,38.25Z"/>
        <path class="cls-7" d="m389,388.03c-8.65,8.76-19.06,17.4-29.5,24-11.07,7-48.7,23.26-61.25,27-17.7,5.27-46.29,9.19-64.75,9.5-5.07.09-9.95-.24-15-.5-10.02-.52-22.12-1.81-32-3.5-12.16-2.08-24.18-5.1-35.5-10-1.02-.44-1.99-1.03-3-1.5,48.76,17.51,108.47,19.29,157.75,2.5,4.04-1.38,35.63-14.57,39.5-16.5,13.26-6.62,32.53-21.02,43.75-31Z"/>
        <path class="cls-6" d="m39,126.53c-5.24,3.41-11.65,19.52-14.5,23.5-.18.25-3.25,3.09-4,3.5-.05-4.9,8.25-18.51,11.5-23.25,7.21-10.52,16.63-19.42,25.25-28.75-5.24,8.88-12.77,16.31-18.25,25Z"/>
        <path class="cls-7" d="m190,454.03c-23.22-9.61-20.99,1.16-22.75.5-.16-2.6,2.32-4.41,4.25-5.75-22.25-7.75-18.04-1.26-21.25-.75-1.17.18-6.41-1.88-8.5-2l7-2.5c-17.74-6.43-31.36-20.36-46.25-31.5v-.5c6.08,4.72,24.6,18.99,29.25,22,21.77,14.08,48.08,14.03,57.5,19,1.77.93,1.01.55.75,1.5Z"/>
        <path class="cls-7" d="m371.5,74.53c23.6,17.1,45.64,37.36,62.5,61.25,6.56,9.29,17.79,28.96,10.5,18.75-14.72-20.62-14.86-26.01-38-49-18.9-18.78-31-24.9-39.5-32.5-.9-.81-3.16-2.35-3-3.5,2.45,1.7,5.1,3.26,7.5,5Z"/>
        <path class="cls-7" d="m11.75,347.53c1.43-.81,6.54,6.99,7.25,8.25,6.01,10.57,5.17,22.09,9.75,12.75,5.41,6.12-5.95,5.81-6.75,5.25-1.16-.8-6.17-19.44-10.25-26.25Z"/>
        <path class="cls-14" d="m41.5,351.53c-.05.11,1.24,1.63-.75,1.5-4.34-.29-15.37-24.15-17.25-28.5-2.41-5.57-8.49-23.88-8-15.75.14,2.33,5.13,16.12,5,17-.12.81-.45,1.27-1,.5-1.37-1.93-10.14-40.18-11-45.75.87-.33,1.37,1.24,1.5,1.75,1.5,5.83,2.34,13.84,4,20,.31.8,1.2-1.05,2,1,5.71,14.7,13.91,40.03,25.5,48.25Z"/>
        <path class="cls-2" d="m425,354.53c3.31-6.31,6.45-12.85,9-19.5,7.13,0-3.94,18.52-5.75,19.5-.93.51-2.28,0-3.25,0Z"/>
        <path class="cls-14" d="m91.5,400.53c-1.63,2.06,6.96,7.86,11,11v.5c-3.32-2.48-7.81-4.64-11-7-5.02-3.72-10.29-7.4-15-11.5l1.5-2.5c4.19,3.38,9,6.53,13.5,9.5Z"/>
        <path class="cls-7" d="m9.5,193.53l-.5.5c-.14-.22-1.81-.75-2-1-.5-.65-1.04-.97-1.5-1.5-4.96-5.72-.67-4.3,1.75,0l.75-.75c4.22-12.42,8.4-25.14,15.5-36.25-5.03,12.24-10.25,24.4-15,36.75-.17.83.49,1.73,1,2.25Z"/>
        <path class="cls-2" d="m152,30.03c-5.86,1.93-11.79,4.17-17.5,6.5-9.32-.09,5.52-4.62,7.75-5.5,3.7-1.47,6.84-5.98,9.75-1Z"/>
        <g>
          <path class="cls-2" d="m233.5,448.53c.26,2.37-1.45,1.86-3,3.5-.28.29-2.16-.8,1,3l-3,3c-3.91,0-7.84-.05-11.75,0-.38,0-.13,1-.5,1-2.86-.01-1.84-.94-3.75-1,.73-4.89-1.25-6.67,3.25-8.5,1.9,12.14,18.74-3.05,1-.5l1.75-1c5.05.26,9.93.59,15,.5Z"/>
          <path class="cls-16" d="m196,457.03c3.53,0,7.21.33,10.75.5.38.02.12.98.5,1,.53.02,1.95-.6,5.25-.5,1.91.06.89.99,3.75,1,.37,0,.12-1,.5-1,3.91-.05,7.84,0,11.75,0,3.08.46-6.45,2.37-7.75,2.5-2.6.25-8.59.14-11.5,0-4.78-.23-24.28-3.48-13.25-3.5Z"/>
          <path class="cls-7" d="m193.75,460.53c11.14,3.35,22.88,2.16,34.25,4.25.02,1.76-30.57.33-34.25-4.25Z"/>
        </g>
        <g>
          <path class="cls-6" d="m122,37.53c-8.78-4.32,19.49-8.42,26.5-14.5,1.79.46,1.99,1.46.25,3-1.09.96-25.3,11.33-26.75,11.5Z"/>
          <path class="cls-7" d="m148.5,23.03c-7.01,6.08-35.28,10.18-26.5,14.5-2.77.32-4.24-1.8-2.25-4,1.02-1.14,27.27-10.88,28.75-10.5Z"/>
        </g>
        <path class="cls-7" d="m7,235.53l1,40.5c-1.77-13.58-2.45-27.05-2-40.75,1.31-1.6.9.24,1,.25Z"/>
        <path class="cls-7" d="m374.5,406.53c4.77-3.97,9.92-7.19,14.5-11.5,1.91-.42.15,1.33-2.25,3.5-1.49,1.34-19.59,16.76-20.25,15.25,2.62-2.41,5.27-4.98,8-7.25Z"/>
        <path class="cls-7" d="m7,193.03c-8.31,4.03,4.39,1.17-5,3.75l7.25,6.25c1.28-.43,1.1-6.94-.25-9l.5-.5c.06.06.79-.05,1.5.5-.39,2.92-.97,6.61-1,9.5C8.66,204.12,0,197.4,0,196.78c0-.63,4.93-4.2,5.5-5.25.46.53,1,.85,1.5,1.5Z"/>
        <path class="cls-7" d="m389.25,81.53c11.46,7.95,8.72,11.45-.75.75l.75-.75Z"/>
        <path class="cls-7" d="m437,156.53c8.99,3.88-5.38,4.36-.5,0,.16-.03.34,0,.5,0Z"/>
        <g>
          <path class="cls-16" d="m362,67.53c-2.48.22-6.11-.17-5-3,.83.22,2.25.12,2.5-1,.19.12,3.97.82,4,2.25.02,1.09-1.19.52-1.5,1.75Z"/>
          <path class="cls-14" d="m368,65.53c.39,3.28-3.72,2.02-4,4-1.31-.91-1.98,1.2-2-1.5,8.18-.58,2.61-1.96,4.25-4,.58.53.99,1.18,1.75,1.5Z"/>
          <g>
            <path class="cls-7" d="m375,65.53c.49.78,1.35.43,2,1,.21.19,2.9-.09,2,3.25-1.12,4.17-9.15.17-4-4.25Z"/>
            <path class="cls-9" d="m378,61.03c1.03,2.27,2.7,1.24-1,5.5-.65-.57-1.51-.22-2-1-1.37-2.17.24-2.78.5-4l2.5-.5Z"/>
            <path class="cls-7" d="m378,61.03l-2.5.5c.03-.15.02-2.91.25-3,3.89,1.1,2.16,2.31,2.25,2.5Z"/>
          </g>
        </g>
        <path class="cls-14" d="m61,155.53c-3.07,5.62-4.44,4.89-4.5,5.25-.22,1.41,1.85,1.16,2,1.5.42,1-7.8,3.91-8.5,4.5-2.78,2.35-14.45,24.28-16,28.5-.09.25,1.32.1,1,1-.89,2.47-1.02,4.02-1.5,5.5-.16.49-2.43,4.25-2.5,4.5-.75,2.53-3.86,12.81-4,13.5-.07.36,2.64,5.59-2,3.25.57-4.17,1.92-8.47,2.25-12.5-1.47-.8-11.69,32.49-3.75,30-.3,11.92,2.68,36.06,5.5,47.75.33,1.37,2.46,1.84,2.5,2,.27,1.11-.52,1.42-.5,1.5.78,3.1,2.18,6.38,3,9.5.22.83-1.21,1.16-1,2,.23.9,4.03,11.88,4.5,13,.3.71,1.81,1.09,2.5,2.5.13.26-2.24-.14,1,5,.97,1.53,2.28,1.15,2.5,1.5.81,1.26,2.49,6.73,3.75,7.25.85.35,1.61-.79,2.25-.5,1.08,2.58,2.99,4.7,4.5,7,6.22,9.45,9.72,16.31,17.5,25.75,6.77,8.21,23.65,26.16,32.25,31.25,3.61,2.14,9.24,3.42,13,5.5,1.28.71,2.33,2.91,2.5,3,23.45,12.44,48.94,21.45,75,26.5,3.28-3.96,2.06.32,4,.5,1.91-2.03,2.14.15,5,.5,5.22.64,10.5.53,15.75.5l13.5.25c-3.14-1.86-10.27-.27-13.5-.25-.54-2.13,17.93-.5,20.5-.5-.69,1.1,6.49.48,10,0,1.09-.15,4.05-.41,4.25-.5,1.29-.57-3.53-1.63,2.25-1,.23.02.57,2.33,3-.5,1.34.04,1.57,1.01,1.75,1,2.97-.1,3.31-1.49,3.5-1.5.26-.02-.24,1.13,4.75.5.78-.1,3.41-.58,3.5-1.5.19,0,1.28.89,3.75.5.61-.1,2.22-1.13,3.75-1.5-.6,1.35,2.16.85,2-.5.33-.04.67.03,1,0,1.03,1.38,1.9.03,2,0,.05-.02-.39-.21,1-.5-.29,1.62.69.2,3,.5l29.5-7c4.29,2.25,8.56-1.81,12.25-3.5,2.04-.94,4.29-.9,4.5-1,.53-.25-.03-1.24.5-1.5,4.6-2.25,8.79-4.96,11-6,.27-.13,1.47,2.64,4-2.5.28,2.17,2.75-.28,3.5,0,.45.17-.78,1.39,0,1.5,2.4.35,36.71-28.39,37.25-30.75.23-1.02-3.58-2-4.5-2.25,6.2-6.4,26.02-32.31,30-39.75.1-.18-1.04-.87.5-4,4.52-3.31,9.37-23.19,10.5-24.5,1.25-1.44,1.85.33,3.25-.75.24-.19-.33-1.05.25-2.5,1.95-.99.95-2.85,1-3,.21-.58.47-1.43.5-1.5.05-.15,2.1-1.65,1-3,1.35-3.57,2.98-6.75,4-10.5l10.5,2c-1.59,6.42-6.02,18.85-8.5,26.5-.9-.61-.23-3.18-1.5-1.25-5.09,7.75-12.32,28.39-19,37.25,1.42-2.59,11.18-21.02,11-22.25-.02-.12-2.14-.79-2.25-.75-1.05.42-8.95,16.14-9.75,18.75-1.07,1.63-1.34-.86-2.5,0-1.54,1.14-6.95,14.28-22.5,31-12.76,13.72-39.85,34.87-56.5,42.75-2.57,1.22-6.86,2.07-9,4.5-.15.05-.35-.05-.5,0-4.95,1.8-10.02,3.28-15,5-.54.19-3.74,3.33-10.5,3-4.38,1.4-3.79,1.93-4,2-7.6,2.37-14.81,5.66-22.75,7-9.57,1.61-40.68,3.35-50.75,3-1.17-2.3-9.6-2.11-11-1-45.21-3.91-63.02-12.45-99.5-37,.32-.62,3.44-.72,2.75-2-.31-.57-11.06-5.77-11.75-4.5-2.2-1.56-4.39-3.03-6.25-5-.31,4.36-18.46-8.95-21-11-19.64-15.83-38.65-51.56-45.75-75.75-8.82-6.42,5.14,8.11-4.25,12.25-2.02-4.76-3.6-5.39-3.75-5.75-2.1-4.87-.89-6.65-1-7-.08-.26-1.3-.34-1.5-1-1.6-5.36-2.02-11.66-4-17,1.06-5.45-1.94-16.48,1-17.5-.25-5.47-1.63-11.04-2-16.5-.59-8.8,1.8-18.74-2.5-17.25,1.52-11.87-.12-27.86,2-40.75l1.25-.75c9.91,5.36,8.46-4.59,16-3,.39-6.24.59-6.27,2.25-11.5l11-21.25,1.25-1.25,9.25-1.5,3.25-7.5.75,6Z"/>
        <path class="cls-14" d="m353.5,75.53c1.88,3.64,8.31,6.41,11.75,9,.16.12,1.92,2.35,2.75,3-4.9,4.13,7.74,10.37,6.25,13-10.88-10.44-25.92-25.9-41-27.5l.75,1.5c-21.16-5.94-41.32-14.5-62.75-19.5-.79-1.79-6.45-1.27-7.5-1.5-.41-.09-.09-.91-.5-1-8.25-1.83-15.73-.29-1.25-4.5l14.75-1c.99-.51-2.14-3.29-1.75-3.75.98-1.16,24.28,3.9,27.25,4.75,20.29,5.8,34.42,15.62,51.25,27.5Z"/>
        <path class="cls-6" d="m368,87.53c.17.13,1.06-.15,1.25,0,7.62,5.99,14.32,13.25,21.75,19.5.06.07.21,1.15.5,1.75,2.45,2.72,2.88,2.11,3,2.25,4.59,5.36,8.45,10.21,12.5,16,1.91,2.73,3.66,6.14,5.5,9-1.37.05-1.11,3.85-1,4.25.38,1.39,11.12,20.27,12.5,26,3.59,1.16.34-4.26,4-3.75,3.39,7.42,6.01,14.75,8.5,22.5-.46.06-1.02,2.08-1,2.25.46,3.37,7.73,24.87,7,26-1.98,3.05-3.83-9.38-5.5-14-.42-1.17-2.57-7.25-3.5-5.75-.74-2.54-7.54-22-8.5-22.75-1.45-1.13-4.18,2.33-5,1.5-.55-.56-2.95-11.18-4.5-15-4.76-11.75-18.46-34.03-26.5-44-.94-1.17-12.98-16.35-13.5-11,11.86,15.55,27.38,36.47,35.5,54,.35.75.59,3.41.5,4.5,2.59,1.99,9.78,20.16,7.5,20.75-13.3-35.61-25-42.59-42-72.25-12.6-15.09-25.09-26.31-43-34.75l-.75-1.5c15.08,1.6,30.12,17.06,41,27.5,1.49-2.63-11.15-8.87-6.25-13Z"/>
        <path class="cls-14" d="m133.5,70.53c-2.44,1.64-7.8,5.36-9.75,7-6.1,5.16-10.9,11.84-16.75,17.25l1,.5c-2.48,1.29-11.58,12.87-10.5,15,.26.52,2.11-.88,2.25,1.25l-8.5,3.5c-1.16-.9,2.2-7.04,2.75-8,2.66-4.64-5.71,4.39-6.25,4.5-.75.16-7.24-1.72-6.25-3.5.26-.18.71.53.75.5,3.14-2.29,13.57-13.5,17.75-17.25l-19,16.25c-2.6-.35,8.38-12.16,9.75-13.5.19-.19,1.8.19,2,0,4.03-3.86,6.36-7.18,6.75-7.5.82-.67,1.67-1.34,2.5-2,2.01-1.58,9.22-6.59,10.25-4.5,5.75-5.84,14.3-8.85,21.25-9.5Z"/>
        <path class="cls-14" d="m452,259.03c-.42,9.44-1.22,18.3-3.5,27.5l-10.5-2c.32-1.17.73-2.31,1-3.5,1.77-7.72,2.98-15.57,3-23.5,1.27-.22,1.7-1.22,2.5-2,2.01-1.95,4.69-3.55,6.75-5.5l.75,9Z"/>
        <path class="cls-14" d="m318.5,420.03c10.29-3.54,29.28-13.63,38.25-20,4.23-3,26.68-22.32,30.25-26,.92.25,4.73,1.23,4.5,2.25-.54,2.36-34.85,31.1-37.25,30.75-.78-.11.45-1.33,0-1.5-.75-.28-3.22,2.17-3.5,0-2.53,5.14-3.73,2.37-4,2.5-2.21,1.04-6.4,3.75-11,6-.53.26.03,1.25-.5,1.5-.21.1-2.46.06-4.5,1-3.69,1.69-7.96,5.75-12.25,3.5Z"/>
        <path class="cls-2" d="m428,162.53c-3.66-.51-.41,4.91-4,3.75-1.38-5.73-12.12-24.61-12.5-26-.11-.4-.37-4.2,1-4.25,6.67,10.36,9.96,14.39,15.5,26.5Z"/>
        <path class="cls-6" d="m138,67.53c-1.43.87-3.08,2.05-4.5,3-6.95.65-15.5,3.66-21.25,9.5-1.03-2.09-8.24,2.92-10.25,4.5.09-1.5-2.13-1.78-1.5-4,12.18-5.01,24.28-12.51,37.5-13Z"/>
        <path class="cls-14" d="m25,223.03c-.8,5.79-1.35,11.65-1.5,17.5-7.94,2.49,2.28-30.8,3.75-30-.33,4.03-1.68,8.33-2.25,12.5Z"/>
        <path class="cls-7" d="m140.5,65.53c-.98.55-1.98,1.68-2.5,2-13.22.49-25.32,7.99-37.5,13,.44-1.57,11.88-6.63,14-7.5,7.46-3.07,15.18-5.12,23-7,1.01-.24,1.91-.68,3-.5Z"/>
        <g>
          <path class="cls-2" d="m449.5,214.53c2.05,15.94,3.21,28.37,2.5,44.5l-.75-9c-2.06,1.95-4.74,3.55-6.75,5.5-3.26-.16,3.77-4.65,4.5-6.25,1.07-2.34.88-14.04.5-17-.06-.47-1.44-.03-1.5-.5-.71-5.24-.94-10.54-2-15.75.71-.1,3.35-1.38,3.5-1.5Z"/>
          <path class="cls-14" d="m433.5,193.53c3.35,11.51,7,32.62,7.5,44.5.15,3.57.31,12.7,0,15.5-.34,3.13.09,5.04-3.5,3.25.62-7.08-8.45-45.66-10.5-49.25-1.07-1.87-1.33-3.21-3.5-1.5-6.83-10.86-1-10.22-.5-11.25.59-1.22-3-10.58-4-13.25,2.28-.59-4.91-18.76-7.5-20.75.09-1.09-.15-3.75-.5-4.5-8.12-17.53-23.64-38.45-35.5-54,.52-5.35,12.56,9.83,13.5,11,8.04,9.97,21.74,32.25,26.5,44,1.55,3.82,3.95,14.44,4.5,15,.82.83,3.55-2.63,5-1.5.96.75,7.76,20.21,8.5,22.75Z"/>
          <path class="cls-6" d="m447,234.03c-3.47-1.29-1.51,6.08-2,13-3.26-5.74-1.18-11.43-4-9-.5-11.88-4.15-32.99-7.5-44.5.93-1.5,3.08,4.58,3.5,5.75,1.67,4.62,3.52,17.05,5.5,14,.73-1.13-6.54-22.63-7-26-.02-.17.54-2.19,1-2.25,4.71,14.64,10.41,33.69,10.5,49Z"/>
          <path class="cls-2" d="m445,247.03v2.5c-.65,1.7-1.73,5.38-4,4,.31-2.8.15-11.93,0-15.5,2.82-2.43.74,3.26,4,9Z"/>
          <path class="cls-7" d="m447,234.03c.03,4.83-.28,10.98-2,15.5v-2.5c.49-6.92-1.47-14.29,2-13Z"/>
        </g>
        <path class="cls-6" d="m245,36.03c-29.97-5.16-76.18,3.71-105.5,12.5-4.56-3.19,18.57-6.38,26.25-10.5,31.97-7.96,50.28-10.09,83.5-7.5-.82,2.02-3.13,5.05-4.25,5.5Z"/>
        <path class="cls-6" d="m99.5,86.53c-.39.32-2.72,3.64-6.75,7.5-.2.19-1.81-.19-2,0-1.37,1.34-12.35,13.15-9.75,13.5v.5c-2.19,1.43-2.5,1.48-2,3.75-1.23-.31-2.03,1.1-3,2.25-6.31,4.87-14.36,17.08-21.5,16.25.56-1.16,6.02-6.54,6-7-.02-.41-.97-.19-1-.25-.04-.07-1.62.21-1-1.25.3-.69,9.48-8.69,11-10.25,10.6-7.57,18.67-18.77,29-27,.81.07.87,1.42,1,2Z"/>
        <path class="cls-7" d="m245,36.03c3.3-.28,2.85.48,3,.5-10.95.63-21.77-.92-32.75-.5-21.83.83-48.77,7.23-70.25,12.5-.4.1-1.49.11-3,.5-4.34,1.11-11.43,1.21-9.5,7.75.31,1.07,4.29,4.12,6,3.25,0,.33-.02.67,0,1-3.49-.28-6.47-1.6-7-5.5-.17-1.23.17-2.32,1-3.25-1.28-2.1-32.5,19.11-21.25,9.75,6.68-5.56,19.86-10.99,28.25-13.5,29.32-8.79,75.53-17.66,105.5-12.5Z"/>
        <path class="cls-6" d="m138.5,61.03c.07,1.33-5.71,2.26-1,5-7.82,1.88-15.54,3.93-23,7-4.5-10.18,7.86-6.43,15-15.25.78-.96-.86-1.59,2-2.25.53,3.9,3.51,5.22,7,5.5Z"/>
        <path class="cls-2" d="m367,73.03c8.5,7.6,20.6,13.72,39.5,32.5-1.1,1.89-4.56-1.82-7.75-2-8.52-5.83-18.79-20.62-24-19.5-1.47-3.82-7.33-2.97-5.75-7.25-3.49-1.5-5.41-4.42-2-3.75Z"/>
        <path class="cls-2" d="m51.5,156.53c-3.93,4.33-1.8-2.04-3.5-.25-1.56,1.64-6.05,10.4-7.5,13.25-9.68.21,3.42-7.76,2.5-13.25,1.07-1.72,1.63.99,2.75.75.99-.21,10.57-14.31,13-15.5-2.73,3.31-5.01,12.53-7.25,15Z"/>
        <path class="cls-14" d="m68,88.53c-5.65-4.68-5.84-4.98-3-8,6.36,4.48,7.94-.29,3,8Z"/>
        <path class="cls-6" d="m178.5,23.53c4.17-.79,10.12-1.44,14.5-2-.15.66,1.1,2.02.25,2.5-.6.33-12.83,2.14-13.5,2-1.1-.23-1.33-1.59-1.25-2.5Z"/>
        <path class="cls-7" d="m51.5,156.53c-.34,1.99,2.12.02,5.5.5l-9.25,1.5-1.25,1.25-11,21.25c1.32-4.15,3.04-7.65,5-11.5,1.45-2.85,5.94-11.61,7.5-13.25,1.7-1.79-.43,4.58,3.5.25Z"/>
        <path class="cls-7" d="m81.5,108.03c-.11.08-.38-.08-.5,0v-.5l19-16.25c-4.18,3.75-14.61,14.96-17.75,17.25-.04.03-.49-.68-.75-.5Z"/>
        <path class="cls-6" d="m110.5,49.53c2.69-1.47,5.23-3.13,8-4.5,2.8,2.76-4.75,6.99-8,4.5Z"/>
        <g>
          <path class="cls-2" d="m279.5,4.53c-.32,4.82-15.56-.59-21.25,1.5-6.78,2.49,10.75,2.49,18,3.5,2.74.38,6.24,1.01,9,1.5.41.07.09.92.5,1,.62.12,3.09-1.89,2.75,1-6.17-.33-22.9-2.22-26.75-1.5-.42.08-.2.98-.25,1-.98.32-2.78-.73-2.5,1-1.32-.09-2.4-.69-3.75-.5v1c5.12.36,10.19,1.14,15.25,2,.97,3.74-22.54.91-24.25-2-.52.23.27,5.36,2.5,6,13.4-1.64,39.27,8.48,44.25.5,5.12,1.15,11.75,3.81,11.25,2-.87-.4-1.88-.64-2.75-1l.5-2c1.7.64,2.45,2.15,3.5,1.25v-2l-3-4.75c.05,0-.19-.83.25-1,.84-.32,2.17,2.15,3.75-3.5,2.8.67,22.02,5.43,22,7.75,0,.61-4.66,3.75-5.25,3.75-.52,0-6.31-3.31-9.5-4-10.17-2.2-7.88-.22-7.75.5.77,4.4,6.28,4.43,2,10.75l.5,1.5c2.99,6.17,32.09,16.33,33,20,.3,1.22-1.76,2.06-2.5,2.75-12.82-5.96-26.33-10.66-39.75-15-2.07-.67-3.57.06-3.75,0-1.25-.39-2.75-1.13-4-1.5-16.48-4.92-25.71-9.74-46.5-11.5-10.34-.88-5.18-.29-7.75,1-9.36,4.69-2.23,1.17,8.5,3-.75-1.99,1.8-2.66,1.75-.5l-.75.5c7.49,2.48,11.99-.15,1.75-.5l2.5-2c19.65,3.51,31.58,8.44,39.5,10-.68,2.05,3.52,1.95,5.25,2.5.1.03.35,1.18,1.5,1.5,1.04.29,1.43-.59,1.75-.5,30.86,9.03,54.95,24.17,58,25-1.11,2.83,2.52,3.22,5,3-.04.14,0,.35,0,.5.02,2.7.69.59,2,1.5-.16,1.15,2.1,2.69,3,3.5-3.41-.67-1.49,2.25,2,3.75-1.58,4.28,4.28,3.43,5.75,7.25,5.21-1.12,15.48,13.67,24,19.5,3.19.18,6.65,3.89,7.75,2,23.14,22.99,23.28,28.38,38,49-4.51,3.81-5.36,1.08-7.25,1-.4-.02-.2,1-.25,1-.16,0-.34-.03-.5,0-.23.04.89-2.37-3,1.25.81,4.56,7.83,13.35,5.5,14.5.1.3,2.46,1.53,2.5,2,.04.53-5.04,3.74-6,4.25-6.61-18.59-16.04-36.1-28.5-51.5-4.05-5.79-7.91-10.64-12.5-16-.13-1.52-2.3-2.99-3.5-4-12.38-13.45-22.72-21.07-37.5-31.5-16.83-11.88-30.96-21.7-51.25-27.5-2.97-.85-26.27-5.91-27.25-4.75-.39.46,2.74,3.24,1.75,3.75l-14.75,1c16.08-4.68,16.72-4.62,2.5-8-5.18-1.23-10.39-2.38-15.75-2.5-.78-.57-.69-.99-.75-1-.15-.02.3-.78-3-.5,1.12-.45,3.43-3.48,4.25-5.5-33.22-2.59-51.53-.46-83.5,7.5-7.68,4.12-30.81,7.31-26.25,10.5-8.39,2.51-21.57,7.94-28.25,13.5-11.25,9.36,19.97-11.85,21.25-9.75-.83.93-1.17,2.02-1,3.25-2.86.66-1.22,1.29-2,2.25-7.14,8.82-19.5,5.07-15,15.25-2.12.87-13.56,5.93-14,7.5-.63,2.22,1.59,2.5,1.5,4-.83.66-1.68,1.33-2.5,2-.13-.58-.19-1.93-1-2-3.23-.26-25.36,23.25-29,27-1.52,1.56-10.7,9.56-11,10.25-.62,1.46.96,1.18,1,1.25-6.38,6.73-12.65,13.33,1.5,6.75-8.8,10.92-22.79,25.85-28,38.75-.03.08-1.63.58-.75,1.5,1.01-.68.7-1.44.75-1.5,3.9-4.58,11.97-17.85,19-26.75,7.56-9.56,16.15-18.39,24-27.75.97-1.15,1.77-2.56,3-2.25-.5-2.27-.19-2.32,2-3.75.12-.08.39.08.5,0-.99,1.78,5.5,3.66,6.25,3.5.54-.11,8.91-9.14,6.25-4.5l-17,15.75c-3.67,4.06-6.1,9.78-9,10.5-8.6,15.97-11.42,19.59,2.75,8.25-6.31,5.96-6.19,7.48-9.75,14l-.75-6-3.25,7.5c-3.38-.48-5.84,1.49-5.5-.5,2.24-2.47,4.52-11.69,7.25-15-2.43,1.19-12.01,15.29-13,15.5-1.12.24-1.68-2.47-2.75-.75.92,5.49-12.18,13.46-2.5,13.25-1.96,3.85-3.68,7.35-5,11.5-1.66,5.23-1.86,5.26-2.25,11.5-7.54-1.59-6.09,8.36-16,3l-1.25.75c-2.12,12.89-.48,28.88-2,40.75-.05.41-.08,8.32-2,3.75-.57-1.36-1.73-28.22-1-29.5.33-.58,1.67.08,2-.5.39-.67,1.36-14.81,1-15.5-.14-.27-1.84-.34-3-1.25-.71-.55-1.44-.44-1.5-.5-.51-.52-1.17-1.42-1-2.25,4.75-12.35,9.97-24.51,15-36.75,1.14-2.78,4.18-5.66,1-4.5,2.85-3.98,9.26-20.09,14.5-23.5-.39.62-2.54,3.24-1.75,3.5,7.85-10.1,15.1-20.74,23.75-30.25-2.26-2.13,2.38-3.51,7-11.25,4.94-8.29,3.36-3.52-3-8,7.23-7.66,35.03-25.29,45.5-31,3.25,2.49,10.8-1.74,8-4.5,17.45-8.66,40.98-17.87,60-21.5-.08.91.15,2.27,1.25,2.5.67.14,12.9-1.67,13.5-2,.85-.48-.4-1.84-.25-2.5,17.65-2.26,35-3.25,52.75-1.5-14.75-2.96-29.91-1.93-44.75-.5,2.45-1.78,2.78-4.31,4.25-5.5.44-.35,9.11-3.46,10.25-4.75,1.06-1.2,1.65-5.02,3-7.25,21.38-1.53,39.79-.5,61,2.5Z"/>
          <g>
            <path class="cls-6" d="m119,51.03c2.05-1.79,4.21-4.96,6.75-6.5,1.31-.8,25.99-10.74,28.5-11.5,11.43-3.45,23.37-4.39,35.25-5.5.14,2.22-1.91,3.3-2.75,3.5-3.22.77-11.17,1.31-19.5,3.5-12.08,3.18-23.96,8.1-35.5,12.5-.86.33-1.65-.83-2.5-.5-5.28,2.08-9.17,7.09-10.25,4.5Z"/>
            <path class="cls-7" d="m189.5,27.53c-11.88,1.11-23.82,2.05-35.25,5.5-2.51.76-27.19,10.7-28.5,11.5-2.54,1.54-4.7,4.71-6.75,6.5-5.04,4.39-1.61-3.48,12.75-10.5,27.05-13.22,71.93-17.53,102-16v1c-14.78-.09-29.54.63-44.25,2Z"/>
            <path class="cls-7" d="m33,168.53c5.21-12.9,19.2-27.83,28-38.75-14.15,6.58-7.88-.02-1.5-6.75.03.06.98-.16,1,.25.02.46-5.44,5.84-6,7,7.14.83,15.19-11.38,21.5-16.25-7.85,9.36-16.44,18.19-24,27.75-7.03,8.9-15.1,22.17-19,26.75Z"/>
            <path class="cls-2" d="m25,166.53c-1.75-1.34-6.25,5.72-2.5,4.5-1.08,1.9-8.35,14.04-9,14.75-.74.81-1.03,1.1-1,0,2.53-5.15,5.04-10.32,7.5-15.5.03-.07-.53-1.43-.5-1.5.17-.34,3.21-3.43,3.5-4,.41-.8,6.8-16.44,6.5-11-.18,3.21-7.51,11.84-3.5,12-.57.78-.99.69-1,.75Z"/>
            <path class="cls-6" d="m245,24.53c1.75.94,4.04,1.15,6,1.5l-2.5,2h-1c.05-2.16-2.5-1.49-1.75.5-10.73-1.83-17.86,1.69-8.5-3,2.57-1.29-2.59-1.88,7.75-1Z"/>
            <path class="cls-39" d="m391,107.03c-7.43-6.25-14.13-13.51-21.75-19.5-.19-.15-1.08.13-1.25,0-.83-.65-2.59-2.88-2.75-3-3.44-2.59-9.87-5.36-11.75-9,14.78,10.43,25.12,18.05,37.5,31.5Z"/>
            <path class="cls-7" d="m291.5,36.03c-.32-.03-.69.06-1,0-7.92-1.56-19.85-6.49-39.5-10-1.96-.35-4.25-.56-6-1.5,20.79,1.76,30.02,6.58,46.5,11.5Z"/>
            <path class="cls-14" d="m98.5,84.53c-10.33,8.23-18.4,19.43-29,27,3.64-3.75,25.77-27.26,29-27Z"/>
            <path class="cls-7" d="m34.25,138.03l-5.5,11.5c-1.47-.32,4.02-10.89,5.5-11.5Z"/>
            <path class="cls-7" d="m25,166.53c-.77,3.25-1.61,2.94-2.5,4.5-3.75,1.22.75-5.84,2.5-4.5Z"/>
            <g>
              <path class="cls-7" d="m339,52.53c5.53,2.57,15.35,7.77,20.5,11-.25,1.12-1.67,1.22-2.5,1-3.05-.83-27.14-15.97-58-25l-3.5-2c.18.06,1.68-.67,3.75,0,13.42,4.34,26.93,9.04,39.75,15Z"/>
              <path class="cls-2" d="m291.5,36.03c1.25.37,2.75,1.11,4,1.5l3.5,2c-.32-.09-.71.79-1.75.5-1.15-.32-1.4-1.47-1.5-1.5-1.73-.55-5.93-.45-5.25-2.5.31.06.68-.03,1,0Z"/>
            </g>
            <path class="cls-7" d="m247.5,28.03h1c10.24.35,5.74,2.98-1.75.5l.75-.5Z"/>
            <path class="cls-7" d="m82.25,88.03l5.25,1.25c-1.65.58-4.06.19-5.25-1.25Z"/>
            <path class="cls-39" d="m394.5,111.03c-.12-.14-.55.47-3-2.25-.29-.6-.44-1.68-.5-1.75,1.2,1.01,3.37,2.48,3.5,4Z"/>
            <path class="cls-7" d="m33,168.53c-.05.06.26.82-.75,1.5-.88-.92.72-1.42.75-1.5Z"/>
          </g>
        </g>
        <path class="cls-14" d="m38.5,341.03c3.22,4.93,6.55,9.73,10,14.5,33.94,46.92,50.89,46.26,97.5,76.5-8.52-4.16-46.26-26.05-54.5-31.5-4.5-2.97-9.31-6.12-13.5-9.5-1.37-1.11-3.96-3.06-5-4-8.55-7.74-23.48-27.44-30-37.5-.86-1.33-4.81-7.33-5-7.75-1.42-3.16.37-.69.5-.75Z"/>
        <path class="cls-14" d="m48.5,355.53c-3.45-4.77-6.78-9.57-10-14.5.3-.15,3.15-2.86,6-.25.45.41,5.8,9.93,6,10.5.44,1.3-.25,3.23-2,4.25Z"/>
        <path class="cls-7" d="m389,388.03c11.68-11.82,21.16-25.33,30.5-39-8.6,15.73-17.09,27.06-30.5,39Z"/>
        <path class="cls-14" d="m114,405.03c-3.11-2.09-5.97-4.36-9-6.5.69-1.27,11.44,3.93,11.75,4.5.69,1.28-2.43,1.38-2.75,2Z"/>
        <path class="cls-7" d="m327.5,423.03c-2.75,2.16-11.94,5.59-15,5,4.98-1.72,10.05-3.2,15-5Z"/>
        <path class="cls-14" d="m224.5,443.03c-3.63-.13-7.37-.69-11-1,1.4-1.11,9.83-1.3,11,1Z"/>
        <path class="cls-7" d="m337,418.53c-2.51,2.38-5.87,3.35-9,4.5,2.14-2.43,6.43-3.28,9-4.5Z"/>
        <path class="cls-14" d="m298,433.03c.21-.07-.38-.6,4-2,.17,1.75-2.54,1.98-4,2Z"/>
        <path class="cls-6" d="m73,387.03c1.04.94,3.63,2.89,5,4l-1.5,2.5c-2.51-2.18-8.08-4.92-3.5-6.5Z"/>
        <path class="cls-2" d="m186.5,444.53c-5.53,3.17-36.16-4.32-35.5-10,11.32,4.9,23.34,7.92,35.5,10Z"/>
        <path class="cls-6" d="m432,337.53c-5.06,12.48-11.68,24.14-19.5,35-.75.17-1.65-.48-1.5-1.25.23-1.23,11.35-18.57,13-21.5,2.72-4.81,3.97-11.87,8-12.25Z"/>
        <path class="cls-2" d="m9,194.03c1.35,2.06,1.53,8.57.25,9l-7.25-6.25c9.39-2.58-3.31.28,5-3.75.19.25,1.86.78,2,1Z"/>
        <g>
          <path class="cls-7" d="m331.5,18.53c.03-.14-1.11-2.49-1.25-2.5-.69-.07-.19,3.41-5.25,5.25,1.04,1.73,6.43-2.37,6.5-2.75-2.29,4.66-5.59,3.69-6,4.25-.12.17,2.39,3.48.25,3.75-.46.06-4.48-4.23-7.5-5.5-4.18-1.76-8.56-1.27-12.25-3.5-.13-.72-2.42-2.7,7.75-.5,3.19.69,8.98,4,9.5,4,.59,0,5.25-3.14,5.25-3.75.02-2.32-19.2-7.08-22-7.75-8.24-1.98-18.59-3.81-27-5-21.21-3-39.62-4.03-61-2.5-10.63.76,1.97-1.18,5.25-1.5,22.22-2.17,61.91,2.67,84,8,11.49,2.77,20.98,7.84,21.25,6.75.06-.26-3.85-3.57,2.25-1.25,1.79.68.85,3.28.25,4.5Z"/>
          <path class="cls-2" d="m306.5,9.53c-1.58,5.65-2.91,3.18-3.75,3.5-.44.17-.2.99-.25,1-1.04.17-10.9-.84-14-1,.34-2.89-2.13-.88-2.75-1-.41-.08-.09-.93-.5-1-2.76-.49-6.26-1.12-9-1.5-7.25-1.01-24.78-1.01-18-3.5,5.69-2.09,20.93,3.32,21.25-1.5,8.41,1.19,18.76,3.02,27,5Z"/>
          <path class="cls-2" d="m270.5,16.03c7.57,1.29,15.01,2.81,22.5,4.5-4.98,7.98-30.85-2.14-44.25-.5-2.23-.64-3.02-5.77-2.5-6,1.71,2.91,25.22,5.74,24.25,2Z"/>
          <path class="cls-6" d="m288.5,13.03c3.1.16,12.96,1.17,14,1l3,4.75v2c-1.05.9-1.8-.61-3.5-1.25-13.83-5.21-25.71-6.68-40.5-7,.05-.02-.17-.92.25-1,3.85-.72,20.58,1.17,26.75,1.5Z"/>
          <path class="cls-2" d="m261.5,12.53c14.79.32,26.67,1.79,40.5,7l-.5,2c-7.29-2.99-33.95-7.41-42.5-8-.28-1.73,1.52-.68,2.5-1Z"/>
          <path class="cls-7" d="m259,13.53c8.55.59,35.21,5.01,42.5,8,.87.36,1.88.6,2.75,1,.5,1.81-6.13-.85-11.25-2-7.49-1.69-14.93-3.21-22.5-4.5-5.06-.86-10.13-1.64-15.25-2v-1c1.35-.19,2.43.41,3.75.5Z"/>
          <path class="cls-14" d="m331.5,18.53c-.07.38-5.46,4.48-6.5,2.75,5.06-1.84,4.56-5.32,5.25-5.25.14.01,1.28,2.36,1.25,2.5Z"/>
          <g>
            <path class="cls-7" d="m312.25,23.53c1.89-.76,8.07,1.65,7.25,3.75-1.43,3.67-10.45-2.47-7.25-3.75Z"/>
            <path class="cls-16" d="m313.25,25.03c1.02-.09,3.55.21,4,.5,2.58,1.67-2.23,3.67-4-.5Z"/>
          </g>
        </g>
        <path class="cls-14" d="m219,432.53c3.23-.02,10.36-1.61,13.5.25l-13.5-.25Z"/>
        <path class="cls-6" d="m142,49.03c-.14.66,1.09.45,1,.75-.75,2.66-11.54,3.92-1,9.75-1.21.1-2.33.02-3.5.5-1.71.87-5.69-2.18-6-3.25-1.93-6.54,5.16-6.64,9.5-7.75Z"/>
        <path class="cls-2" d="m145,48.53c-2.7,3.95-4.4,7.14-1,11.25-.96.8-1.62-.28-2-.25-10.54-5.83.25-7.09,1-9.75.09-.3-1.14-.09-1-.75,1.51-.39,2.6-.4,3-.5Z"/>
        <g>
          <path class="cls-14" d="m248,36.53c.06,0-.03.43.75,1,5.36.12,10.57,1.27,15.75,2.5-2.11,6.81-21.3-.85-14,8.25-1.13.97-.86-1.15-1.75-.75-1.33.6-9.33,8.55-.75-1.25-11.58-3.24-24.57-1.14-36.75-1.25-2.99,1.91-9.3,1.39-10,1.5-.4.06-.1.93-.5,1-.52.09-5.22-.06-5.5,0-.41.08-.09.92-.5,1-.62.13-.89-.74-2-.5-.41.09-.09.91-.5,1-13.04,2.83-25.97,5.72-38,12-4.68,1.02-10.1-5.34-4.5,1-2.89,1.7-6.35,1.88-9.25,3.5-1.09-.18-1.99.26-3,.5-4.71-2.74,1.07-3.67,1-5-.02-.33,0-.67,0-1,1.17-.48,2.29-.4,3.5-.5.38-.03,1.04,1.05,2,.25-3.4-4.11-1.7-7.3,1-11.25,21.48-5.27,48.42-11.67,70.25-12.5,10.98-.42,21.8,1.13,32.75.5Z"/>
          <path class="cls-6" d="m181,49.03l-.5-2c1.36.05,15.39-6.25,26.25-7,2.53-.18,21.13.62,22.5,1,10.91,2.98-12.87,1.45-20,2-7.72.6-20.52,3.82-28.25,6Z"/>
          <path class="cls-2" d="m178.5,46.03c-1.26-.12-2.03,1.11-3,1.5-.25.1-.51-.75-1.75,0-3.99,2.4-4.45,5.82-20.5,7-.33,6.62,1.76-2.01-7,1.5-1.73-2.26,3.35-2.62,8-4.5.42-.17,1.12-1.37,1.5-1.5,5.91-2.06,16.08-2.11,20-5.5,3.17-.1,2.58,1.44,2.75,1.5Z"/>
          <path class="cls-14" d="m178.5,46.03c.8.26.74.95,2,1l.5,2s.18.88-.25,1c-3.16.88-9.33,2.47-5.25-2.5.97-.39,1.74-1.62,3-1.5Z"/>
        </g>
        <g>
          <path class="cls-14" d="m262,48.03c-14.48,4.21-7,2.67,1.25,4.5.41.09.09.91.5,1,1.05.23,6.71-.29,7.5,1.5,21.43,5,41.59,13.56,62.75,19.5,17.91,8.44,30.4,19.66,43,34.75,17,29.66,28.7,36.64,42,72.25,1,2.67,4.59,12.03,4,13.25-.5,1.03-6.33.39.5,11.25-3.65,2.88.74,8.66,3.5,1.5,2.05,3.59,11.12,42.17,10.5,49.25,3.59,1.79,3.16-.12,3.5-3.25,2.27,1.38,3.35-2.3,4-4,1.72-4.52,2.03-10.67,2-15.5-.09-15.31-5.79-34.36-10.5-49-2.49-7.75-5.11-15.08-8.5-22.5-5.54-12.11-8.83-16.14-15.5-26.5-1.84-2.86-3.59-6.27-5.5-9,12.46,15.4,21.89,32.91,28.5,51.5,3.58,10.07,8.38,27.06,10.5,37.5,1.06,5.21,1.29,10.51,2,15.75.06.47,1.44.03,1.5.5.38,2.96.57,14.66-.5,17-.73,1.6-7.76,6.09-4.5,6.25-.8.78-1.23,1.78-2.5,2l-1,1.25c.76,7.54-2.26,15.02-2,22.25-.27,1.19-.68,2.33-1,3.5-1.02,3.75-2.65,6.93-4,10.5-.53,1.4-.83,2.56-1,3-.17.51-.34.97-.5,1.5-.36,1.01-.76,2.4-1,3-.58,1.45,0,2.31-.25,2.5-1.4,1.08-2-.69-3.25.75-1.13,1.31-5.98,21.19-10.5,24.5-1.54,3.13-.4,3.82-.5,4-3.98,7.44-23.8,33.35-30,39.75-3.57,3.68-26.02,23-30.25,26-8.97,6.37-27.96,16.46-38.25,20l-29.5,7c.05-.67-2.18-.67-3-.5-1.39.29-.95.48-1,.5-.66.04-1.34-.06-2,0-.33.03-.67-.04-1,0-.15.02-1.34.34-2,.5-1.53.37-3.14,1.4-3.75,1.5-2.47.39-3.56-.51-3.75-.5-1.08.05-3.92.38-3.5,1.5-4.99.63-4.49-.52-4.75-.5-.19.01-.53,1.4-3.5,1.5-.18,0-.41-.96-1.75-1-.2,0-1.01.8-3,.5-5.78-.63-.96.43-2.25,1-.2.09-3.16.35-4.25.5.61-1.67-5.03,0-10,0-2.57,0-21.04-1.63-20.5.5-5.25.03-10.53.14-15.75-.5-2.86-.35-3.09-2.53-5-.5-1.94-.18-.72-4.46-4-.5-26.06-5.05-51.55-14.06-75-26.5-.17-.09-1.22-2.29-2.5-3-3.76-2.08-9.39-3.36-13-5.5-8.6-5.09-25.48-23.04-32.25-31.25-7.78-9.44-11.28-16.3-17.5-25.75-.82-2.27-2.54-6.1-4.5-7-.64-.29-1.4.85-2.25.5-1.26-.52-2.94-5.99-3.75-7.25-.22-.35-1.53.03-2.5-1.5-3.24-5.14-.87-4.74-1-5-.69-1.41-2.2-1.79-2.5-2.5-.47-1.12-4.27-12.1-4.5-13-.21-.84,1.22-1.17,1-2-.82-3.12-2.22-6.4-3-9.5-.02-.08.77-.39.5-1.5-.04-.16-2.17-.63-2.5-2-2.82-11.69-5.8-35.83-5.5-47.75.15-5.85.7-11.71,1.5-17.5,4.64,2.34,1.93-2.89,2-3.25.14-.69,3.25-10.97,4-13.5.07-.25,2.34-4.01,2.5-4.5.48-1.48.61-3.03,1.5-5.5.32-.9-1.09-.75-1-1,1.55-4.22,13.22-26.15,16-28.5.7-.59,8.92-3.5,8.5-4.5-.15-.34-2.22-.09-2-1.5.06-.36,1.43.37,4.5-5.25,3.56-6.52,3.44-8.04,9.75-14-14.17,11.34-11.35,7.72-2.75-8.25,2.9-.72,5.33-6.44,9-10.5l17-15.75c-.55.96-3.91,7.1-2.75,8l8.5-3.5c-.14-2.13-1.99-.73-2.25-1.25-1.08-2.13,8.02-13.71,10.5-15l-1-.5c5.85-5.41,10.65-12.09,16.75-17.25,1.95-1.64,7.31-5.36,9.75-7,1.42-.95,3.07-2.13,4.5-3,.52-.32,1.52-1.45,2.5-2,2.9-1.62,6.36-1.8,9.25-3.5-5.6-6.34-.18.02,4.5-1,12.03-6.28,24.96-9.17,38-12,.41-.09.09-.91.5-1,1.11-.24,1.38.63,2,.5.41-.08.09-.92.5-1,.28-.06,4.98.09,5.5,0,.4-.07.1-.94.5-1,.7-.11,7.01.41,10-1.5,12.18.11,25.17-1.99,36.75,1.25-8.58,9.8-.58,1.85.75,1.25.89-.4.62,1.72,1.75.75-7.3-9.1,11.89-1.44,14-8.25,14.22,3.38,13.58,3.32-2.5,8Z"/>
          <g>
            <g>
              <path class="cls-16" d="m355.5,307.03l-5.5,6.25c1.96,1.14.55,15.27-2,16l1.75,8.25c-14.98.97-25.45,3.77-39.5,8.5-3.91.42-7.85.19-11.75.5-9.16.72-18.31,1.21-27.5,1l8-.75c-1.37-3.29-5.02-2.16-8-2.25l2.25-2c-5.68-.47-15.36,1.08-16.25-1,6.38.11,12.83.45,19-1,3.76,1.67,8.11-.87,12-2,1.35.06,2.21,1.33,3.75,1-.55-.71,3.7-2.3,4.5-2.5,10.27-2.54,21.1-4.53,30-10.5l9,.5c8.15-9.18,9.95-.76,7.25-13.5-.13-.61-.71-2.14-1-3,1.8-.1,2.71,8.35,3.75,8.5,8.63-8.96.32-5.65-.75-7.25-.19-.29-1.22-5.68-1.5-6.75,6.49-1.04,7.78,2.76,12.75.5.79.63-.43,1.23-.25,1.5Z"/>
              <path class="cls-6" d="m296,351.53c.93-1.52,1.92-3.3,2.5-5,3.9-.31,7.84-.08,11.75-.5,14.05-4.73,24.52-7.53,39.5-8.5l-1.75-8.25c2.55-.73,3.96-14.86,2-16l5.5-6.25c6.43,9.56,2.59,22.88-5,30.75,2.14,5.96-12.62,8.03-20.75,5.25-4.61,2.05-13.17,6.23-18,7.5-3.2.84-13.43,2.6-15.75,1Z"/>
              <path class="cls-7" d="m287.5,366.03c2.45-.81-.43,1.01-1.5,1.5-2.06.94-33.78,10.02-38,11-12.03,2.8-23.31,4.87-35.75,4-4.96-.35-20.4-3.04-17.25-5,13.9,4.53,34.68,5.28,48.25-.5,6.42-2.74,11.74-6.6,10.25-14-.32-1.59-1.1-2.95-1.5-4.5,6.06,9.43,0,11.88,19.25,10.5,5.33-.38,10.9-2.41,16.25-3Z"/>
              <path class="cls-42" d="m286,367.53c2.21,2.44-4.84,4.93-7.5,6.5-6.7,1.66-13.54,3.59-20,6-4.49-1.48-9.33,1.62-10.5-1.5,4.22-.98,35.94-10.06,38-11Z"/>
              <path class="cls-7" d="m278.5,374.03c-5.09,3-6.94,4-12.75,6-9.86,3.39-29.94,8.47-7.25,0,6.46-2.41,13.3-4.34,20-6Z"/>
              <path class="cls-6" d="m433.5,238.53c-3.34-1.92-.61,6.78,1.5,5,1.26,14.98-3.75,23.87-1,2.25-4.54-2.34-4.59-17.44-.5-7.25Z"/>
              <path class="cls-7" d="m442,257.53c-.02,7.93-1.23,15.78-3,23.5-.26-7.23,2.76-14.71,2-22.25l1-1.25Z"/>
              <path class="cls-6" d="m427,207.53c-2.76,7.16-7.15,1.38-3.5-1.5,2.17-1.71,2.43-.37,3.5,1.5Z"/>
              <path class="cls-7" d="m433.5,238.53c.64,1.6.78,3.42,1.5,5-2.11,1.78-4.84-6.92-1.5-5Z"/>
              <path class="cls-7" d="m249.5,432.03c-3.51.48-10.69,1.1-10,0,4.97,0,10.61-1.67,10,0Z"/>
              <path class="cls-7" d="m54,339.03c-1.51-2.3-3.42-4.42-4.5-7,1.96.9,3.68,4.73,4.5,7Z"/>
              <path class="cls-7" d="m272.5,428.53c-.09.92-2.72,1.4-3.5,1.5-.42-1.12,2.42-1.45,3.5-1.5Z"/>
              <path class="cls-39" d="m431.5,302.53c.24-.6.64-1.99,1-3-.05.15.95,2.01-1,3Z"/>
              <path class="cls-39" d="m433,298.03c.17-.44.47-1.6,1-3,1.1,1.35-.95,2.85-1,3Z"/>
              <path class="cls-7" d="m256,430.53c1.99.3,2.8-.51,3-.5-2.43,2.83-2.77.52-3,.5Z"/>
              <path class="cls-7" d="m289,427.03c-2.31-.3-3.29,1.12-3-.5.82-.17,3.05-.17,3,.5Z"/>
              <path class="cls-7" d="m280,427.53c.66-.16,1.85-.48,2-.5.16,1.35-2.6,1.85-2,.5Z"/>
              <path class="cls-39" d="m432.5,299.53c.16-.53.33-.99.5-1.5-.03.07-.29.92-.5,1.5Z"/>
              <path class="cls-7" d="m285,427.03c-.1.03-.97,1.38-2,0,.66-.06,1.34.04,2,0Z"/>
              <path class="cls-24" d="m338.5,313.53c1.34.74,2.63.44,4,0,2.7,12.74.9,4.32-7.25,13.5l-9-.5c-8.9,5.97-19.73,7.96-30,10.5-.8.2-5.05,1.79-4.5,2.5-1.54.33-2.4-.94-3.75-1-4.06-.18-7.96,1.14-12,.5.06-.03-.19-.86.25-1,2.37-.77,14.55-1.24,26.5-7,7.72-3.72,16.41-12.2,20-14,3.84-1.93,9.13-.11,7.25-5,5.45,2.58,6.73,5,8.5,1.5Z"/>
              <path class="cls-28" d="m326.5,309.53c.19.09-.1.8,3.5,2.5,1.88,4.89-3.41,3.07-7.25,5-3.59,1.8-12.28,10.28-20,14-11.95,5.76-24.13,6.23-26.5,7-.44.14-.19.97-.25,1-.47.21-1.52-.32-2,.25-.1.17,1.68,1.11,2,1.25-6.17,1.45-12.62,1.11-19,1-2-.03-4.01.08-6,0-15.59-.63-1.16-1.21,5.25-2,19.09-2.34,39.85-5.66,53.25-20.75,6.67-7.52,8.47-9.32,1.5-13.25v-.5c.83-.19,1.19-1.26,1.5-2h.5c2.84,3.4,9.39,4.57,13.5,6.5Z"/>
              <g>
                <path class="cls-7" d="m385.5,261.53c-.36,3.4-4.99,25.39-7.25,26.5-9.07.33-30.82-1.1-37-.5-.1,0-1.26.93-1.75,1-1.33-6.17-2.68-12.34-4-18.5-2.12-9.95-3.92-20.03-6-30-.29-1.4-.49-.95-.5-1-4.04-19.29-7.53-38.7-11.5-58-1.55-7.52-2.52-19.19-7-23.5.06-.14-.06-.36,0-.5.95-2.21,2.1-4.24,3-6.5,1.5-3.76,2.45-5.21,3-9.5.16-1.23.57-2.11.5-3.5-.34-6.56-4.82-12.27-9.5-16.5-7.53-6.8-14.01-8.61-23-12-3.08-1.16-5.76-2.58-9-3.5-9.96-2.82-11.79-2.67-21.5-3.5-28.08-2.4-56.4.02-82.5,11.5-9.24,4.06-19.54,9.75-23.5,19.75-.3.76-2.01,6.16-2,6.5.02.41.99.2,1,.25.21,1.7.39,3.58,1.5,5-.34,1.71.99,2.34,1.5,3,1.6,4.59,5.12,7.97,8.5,11.25-4.05,4.67-7.26,22.68-3,27.5-2.14,5.15,2.71,16.85-1,21.5l1,6.75c-.04.11-1.41.89-1.5,1.75-.08.73,2.71,4.33-.5,11,1.05,1.78,1.26-1.11,2.25-1.25,1.84-.27.35,1.73.25,5.75,0,.35,1,.69,1,.75-.05.83-.2,1.74-.5,2.5-.14.34-3.32,2.22-3,6.25.09,1.1,2.95,6.6,3.5,8.75.18.72.97,1.45,1,2.25-.05.42-1.33-.25-2.5,7.75-1.18,8.08-2.52,8.08,2.5,15.25-1.54,3.61-2.33,7.52-3.5,11.25-.92,2.92-4.1,7.2-4,10.5.14,4.34,3.09,9.47,5.5,13,.92,1.35,1.85,2.83,3,4l-14.75,10c-11.89-1.11-26.43-1.27-36.25,6.25,7.71,14.2,23.59,22.75,39,25.75,3.16,5.5,5.8,8.89,11.5,12-.65,2.77-6.02-3.83-10.25-6.5-4.68-2.96-13.25-6.33-17.5-9-7.51-4.72-14.29-10.39-21.5-15.5-1.66-1.18-9.77-3.57-15.25-10.75-15.38-20.15-23.05-81.91-14-107-6.02-3.02,5.95-23.42,6-25,.05-1.42-1.98-2.47-2-3.5-.04-2.08,17.77-27.77,22-30.5-3.46-6.09,6.25-10.97,6.5-12.5.45-2.7-5.44-2.15,6.75-12.75,7.66-6.66,40.77-25.85,50.5-30,43.3-18.46,94.81-17.78,135.5,7,2.67,1.62,22.69,15.65,25,17.5,20.75,16.58,44.26,55.21,51.25,80.75,4.42,16.16,5.77,34.08,4,50.75Z"/>
                <path class="cls-7" d="m313,184.53c3.45,9.15,5.21,20.06,7.5,30,5.92,25.63,10.91,51.43,17,77l-27.5-6,4-36.25c-8.4-12.48-2.43-10.37-2.5-15.5-.02-1.12-2.97-7.91-2.5-11.5.16-1.26,3.92-7.63,4-8.5.16-1.81-1.59-5.08-1.5-6,.03-.33,2.22-3.58,2.5-4.75,1.3-5.45-4.62-11.28-3.5-17,1.79-1.68,2.38-1.42,2.5-1.5Z"/>
              </g>
              <path class="cls-14" d="m170,322.03c4.08,3.1,7.82,5.37,12.5,7.5,7.73,3.53,21.62,7.71,30,9.5,2.68.57,5.28,1.11,8,1.5-.58,3.33-2.24,3.31-5.25,3-5.35-.56-43.2-13.43-52-16.5-3.04-.41-2.1,1.03-2.25,1-1.97-.35-3.97-1.21-6-1.5.94-4.28,2.99-7.36,6-10.5,1.84,1.61,6.85,5.27,9,6Z"/>
              <g>
                <path class="cls-9" d="m329,239.03c.01.05.21-.4.5,1-4.04.52.73,5.59,1,6.75,1.2,5.19.16,10.51,2,15.5,2.06-2.59-.91,8.27,3,7.75,1.32,6.16,2.67,12.33,4,18.5.39,1.82.6,3.71,1,5.5.8,3.63,1.56,7.41,2.5,11,.28,1.07,1.31,6.46,1.5,6.75,1.07,1.6,9.38-1.71.75,7.25-1.04-.15-1.95-8.6-3.75-8.5-.09-.26.84-.8-1.5-5,1.21.39.74-.93.5-2-.9-3.99-2.05-8-3-12-6.09-25.57-11.08-51.37-17-77,.64-16.85,1.97,10.73,7,19.25-.72,2.24-.9,4.16,1.5,5.25Z"/>
                <path class="cls-24" d="m317.5,181.03c3.97,19.3,7.46,38.71,11.5,58-2.4-1.09-2.22-3.01-1.5-5.25-5.03-8.52-6.36-36.1-7-19.25-2.29-9.94-4.05-20.85-7.5-30,1.92-1.19,3.42.35,3.5-3,.06,0-.19-.69,1-.5Z"/>
                <path class="cls-13" d="m317.5,181.03c-1.19-.19-.94.5-1,.5-.23-.01-1.45-.91-4-1l-3-21.5c.58-1.57.96-1.42,1-1.5,4.48,4.31,5.45,15.98,7,23.5Z"/>
                <path class="cls-24" d="m329.5,240.03c2.08,9.97,3.88,20.05,6,30-3.91.52-.94-10.34-3-7.75-1.84-4.99-.8-10.31-2-15.5-.27-1.16-5.04-6.23-1-6.75Z"/>
                <path class="cls-7" d="m312.5,180.53c-1.98-.07-2.3.51-2.5.5-.78-.06-2.72.08-3-.75,7.29-10.77-2.25-13.75,2.5-21.25l3,21.5Z"/>
              </g>
              <g>
                <path class="cls-7" d="m340.5,294.03c-.4-1.79-.61-3.68-1-5.5.49-.07,1.65-.99,1.75-1,6.18-.6,27.93.83,37,.5,2.26-1.11,6.89-23.1,7.25-26.5,1.91,1.11,2.95-.4,3-.25,1.14,3.76-5.03,28.74-8.75,33.75-13.08,1.44-26.12-2.7-39.25-1Z"/>
                <path class="cls-16" d="m340,305.53c2.34,4.2,1.41,4.74,1.5,5,.29.86.87,2.39,1,3-1.37.44-2.66.74-4,0-1-.55-1.46-3.12-1.5-4.25-1.12-1.17-9.82-3.8-11-2-.31.48.16,1.71.5,2.25-4.11-1.93-10.66-3.1-13.5-6.5,2.1.9,5.42-.54,6.25,2,2.24-2.87,4.6-.52,5-.5,3.27.17,13.19-.98,15.75,1Z"/>
                <path class="cls-14" d="m337.5,291.53c.95,4,2.1,8.01,3,12-8.34-4.27-17.44-4.56-26.5-5.5.03-.33,0-.67,0-1,.18-7.43-4.91-8.03-4-11.5l27.5,6Z"/>
                <path class="cls-6" d="m340.5,303.53c.24,1.07.71,2.39-.5,2-2.56-1.98-12.48-.83-15.75-1-.4-.02-2.76-2.37-5,.5-.83-2.54-4.15-1.1-6.25-2h-.5c.54-1.28,1.37-3.65,1.5-5,9.06.94,18.16,1.23,26.5,5.5Z"/>
                <path class="cls-9" d="m338.5,313.53c-1.77,3.5-3.05,1.08-8.5-1.5-3.6-1.7-3.31-2.41-3.5-2.5-.34-.54-.81-1.77-.5-2.25,1.18-1.8,9.88.83,11,2,.04,1.13.5,3.7,1.5,4.25Z"/>
              </g>
              <g>
                <path class="cls-14" d="m252,346.03c6.31.68,12.65,1.36,19,1.5,9.19.21,18.34-.28,27.5-1-.58,1.7-1.57,3.48-2.5,5-2.92,4.78-7.14,8.92-8.5,14.5-5.35.59-10.92,2.62-16.25,3-19.24,1.38-13.19-1.07-19.25-10.5-3.41-5.31-8.57-9.15-12.5-14,4.08.93,8.36,1.05,12.5,1.5Z"/>
                <path class="cls-2" d="m271,344.53c2.98.09,6.63-1.04,8,2.25l-8,.75c-6.35-.14-12.69-.82-19-1.5l1.5-2.5c4.95.51,8.88.57,13.75,1v1c1.85.35,1.82-1.06,3.75-1Z"/>
                <path class="cls-9" d="m257,341.53c.89,2.08,10.57.53,16.25,1l-2.25,2c-1.93-.06-1.9,1.35-3.75,1v-1c-4.87-.43-8.8-.49-13.75-1-.15-.01-2.03-1.31-2.5-1.5v-.5c1.99.08,4-.03,6,0Z"/>
                <path class="cls-24" d="m288,338.53c-3.89,1.13-8.24,3.67-12,2-.32-.14-2.1-1.08-2-1.25.48-.57,1.53-.04,2-.25,4.04.64,7.94-.68,12-.5Z"/>
                <path class="cls-16" d="m251,342.03c.47.19,2.35,1.49,2.5,1.5l-1.5,2.5c-4.14-.45-8.42-.57-12.5-1.5-1.92-.44-3.17-.08-4.5-2.5,4.86.46,10.96-.34,16,0Z"/>
                <path class="cls-21" d="m251,341.53v.5c-5.04-.34-11.14.46-16,0-1.14-.11-2.32-.86-3.25-1.5-2.35-.39-1.65,1.01-1.75,1-3.25-.28-6.26-.53-9.5-1-2.72-.39-5.32-.93-8-1.5,2.1-1.45,11.94,2.66,12.5.75-2.3-2.42-.02-2.11,0-4.25,7.35.59,14.14.59,21.5,0,5.57-.45,12.01-1.41,17.5-2.5,11.37-2.27,25.28-6.62,34.75-13.5,1.76-1.28,6.89-5.57,5.75-6.5,1.26-.94,1.96-1.88,3-3,1.31-1.43,2.88-2.49,3.5-4.5,6.97,3.93,5.17,5.73-1.5,13.25-13.4,15.09-34.16,18.41-53.25,20.75-6.41.79-20.84,1.37-5.25,2Z"/>
              </g>
              <g>
                <path class="cls-19" d="m253.5,363.03c1.49,7.4-3.83,11.26-10.25,14-13.57,5.78-34.35,5.03-48.25.5-3.23-1.05-6.37-2.25-9-4.5,1.86-.15,3.65-.22,5.5-.5,12.28,7.7,50.6,7.6,58.5-4,.11-.16,1.52-.63,1.5-3.5,0-.48.08-1.04,0-1.5-.18-1.5.98-1.14,2-.5Z"/>
                <path class="cls-25" d="m235,342.03c1.33,2.42,2.58,2.06,4.5,2.5,3.93,4.85,9.09,8.69,12.5,14,.4,1.55,1.18,2.91,1.5,4.5-1.02-.64-2.18-1-2,.5-.76-4.48-7.36-10.14-10.5-13-3.56-3.24-7.33-5.93-11-9,.1,0-.6-1.39,1.75-1,.93.64,2.11,1.39,3.25,1.5Z"/>
                <path class="cls-7" d="m220.5,340.53c3.24.47,6.25.72,9.5,1,3.67,3.07,7.44,5.76,11,9-2.88,1.18,6.59,10.1,10.5,14.5.02,2.87-1.39,3.34-1.5,3.5-13.99-12.58-22.01-16.15-40-20.5-1.73-.42-3.76-3.52-15.75-2.5-1.81.15-3.88,1.21-5.75,1.5.9-1.52-1.08-3-2.75-4.5-3.94-3.54-20.6-14.6-24.75-14.5.15.03-.79-1.41,2.25-1,8.8,3.07,46.65,15.94,52,16.5,3.01.31,4.67.33,5.25-3Z"/>
                <path class="cls-7" d="m156,329.03c6.02,1.12,15.12,6.51,20.25,10,3.86,2.63,6.66,6.91,11.25,8-6.52,1.02-9.81,2.99-22,3.5l-16-20.5c-3.3-2.53,4.67-1.34,6.5-1Z"/>
                <path class="cls-7" d="m206,351.53c1.14,1.62,2.14,2.02,3,4-2.44-2.57-1.96,1.17-5.75,4-2.7,2.01-10.03,5.07-13.25,5-4.65-.1-14.19-6.61-15-11.5,7.97-.86,11.91-3.1,25.75-3,.85,0,4.4,1.54,5.25,1.5Z"/>
                <path class="cls-14" d="m175,353.03c.81,4.89,10.35,11.4,15,11.5-.48,3.07-.35,4.66-3.75,4-11.82-4.95-25.89-2.06-35.25-12-.4-.73-2.27-3.89-1.25-4.5,8.16,2.95,16.85,1.91,25.25,1Z"/>
                <path class="cls-7" d="m209,355.53c5.66,13.06-26.71,14.74-34,14-7.83-.8-20.06-5.8-24-13,9.36,9.94,23.43,7.05,35.25,12,3.4.66,3.27-.93,3.75-4,3.22.07,10.55-2.99,13.25-5,3.79-2.83,3.31-6.57,5.75-4Z"/>
                <path class="cls-7" d="m162,350.53c-3.2-.07-6.33.34-9.5-.5-.52-.14-1.67.27-3-.75,1.15-7.03,2.06-8.32.5-15.25-.07-.32-.37-1.14-.5-1.5,2.37-1.25,8.84,12.92,12.5,18Z"/>
                <path class="cls-14" d="m188.5,347.03c-.32.05-.68-.05-1,0-4.59-1.09-7.39-5.37-11.25-8-5.13-3.49-14.23-8.88-20.25-10,1.13-.32,4.75-.99,5-1,4.15-.1,20.81,10.96,24.75,14.5,1.67,1.5,3.65,2.98,2.75,4.5Z"/>
                <path class="cls-14" d="m149.5,330.03l16,20.5c-1.35.06-2.18.03-3.5,0-3.66-5.08-10.13-19.25-12.5-18-.54-1.43-1.84-2.1,0-2.5Z"/>
                <path class="cls-7" d="m251.5,363.53c.08.46,0,1.02,0,1.5-3.91-4.4-13.38-13.32-10.5-14.5,3.14,2.86,9.74,8.52,10.5,13Z"/>
                <path class="cls-7" d="m137.5,329.53c-.34.31-5.79,2.79-6.5,6.25-2.25,10.93,12.32,12.91,14.5,15.75-11.74.14-28.48-9.36-33.5-20,7-3.6,19.95-6.33,27-3.25-1.4.42-1.43,1.18-1.5,1.25Z"/>
                <path class="cls-7" d="m149,334.53c.39,1.9.44,3.92,0,5.75-1.81,7.6-5.38,8.5-11.25,3.75-4.93-3.99-4.68-9.16.25-13,1-.78,2.41-.89,3.5-1.5,3.56,3.82,5.96-2.45,7.5,5Z"/>
                <path class="cls-7" d="m161,316.03c-3.01,3.14-5.06,6.22-6,10.5-3.05-.43-8.55-.37-8.5-1.75l13.5-9.25s.21-.19,1,.5Z"/>
                <g>
                  <path class="cls-25" d="m160,315.53l-13.5,9.25c-.05,1.38,5.45,1.32,8.5,1.75,2.03.29,4.03,1.15,6,1.5-.25,0-3.87.68-5,1-1.83-.34-9.8-1.53-6.5,1-1.84.4-.54,1.07,0,2.5.13.36.43,1.18.5,1.5l-1,.5c-1.54-7.45-3.94-1.18-7.5-5-.89-.95-.21-2.65-2.25-3.5-4.01-1.68-27.76,2.09-28.25,4.75-.2,1.07.97.69,1,.75,5.02,10.64,21.76,20.14,33.5,20,.96,1.56,1.37,4.77,1.5,5-15.41-3-31.29-11.55-39-25.75,9.82-7.52,24.36-7.36,36.25-6.25l14.75-10c.3.31.7.72,1,1Z"/>
                  <path class="cls-10" d="m137.5,329.53l.5,1.5c-4.93,3.84-5.18,9.01-.25,13,5.87,4.75,9.44,3.85,11.25-3.75.44-1.83.39-3.85,0-5.75l1-.5c1.56,6.93.65,8.22-.5,15.25,1.33,1.02,2.48.61,3,.75-5.47.52-1.63,1.44-7,1.5-2.18-2.84-16.75-4.82-14.5-15.75.71-3.46,6.16-5.94,6.5-6.25Z"/>
                  <path class="cls-19" d="m141.5,329.53c-1.09.61-2.5.72-3.5,1.5l-.5-1.5c.07-.07.1-.83,1.5-1.25-7.05-3.08-20-.35-27,3.25-.03-.06-1.2.32-1-.75.49-2.66,24.24-6.43,28.25-4.75,2.04.85,1.36,2.55,2.25,3.5Z"/>
                </g>
                <g>
                  <path class="cls-7" d="m250,368.53c-7.9,11.6-46.22,11.7-58.5,4,18.35-2.77,30.21-12.17,19.5-23-.34-.34-.75-1.05-1-1.5,17.99,4.35,26.01,7.92,40,20.5Z"/>
                  <path class="cls-7" d="m197.75,373.03c3.65-.82,9.19,1.13,12.5,3,11.02-.44,7.66,2.12-3.5.5-1.41-.2-12.46-2.73-9-3.5Z"/>
                </g>
              </g>
            </g>
            <g>
              <g>
                <path class="cls-29" d="m170,160.53c1.15.49,2.35,1.06,3.5,1.5-2.24,3.14,2.04,2.08,3.75,3.5v1c-2.76-1.51-5.74-2.2-8.75-3-3.67-.98-5.55-5.12-5.5,10-1.64.65-2.11,1.5-2.25,1.5-3.01,0,4.41-18.17-1.25-14.75-.84.5-1.87,16.95-2,19.25-3.39,2.83-2.3,3.25,4,7.5,1.69,1.14,4.58,2.53,6.5,3.5.14.63-1.72.41-.75,1.5,3.22.58,5.92,2.71,8.75,4h-.5c-2.87-1.5-5.99-2.37-9-3.5-.21-.08-1.19-1.19-4-2-.71-.2-2.37-1.26-3-.75-.23,4.94-3.53,5.79-1,7.75-.25,10.73-2.21,14.22,7.5,18.25-4.91,1.68-6.29-6.07-7,4.25-.06-.27-1.38-3.37-1.5-4.5.29-1.66,1.03-2.13,1-2.25-.04-.14-2.12-1.81-2.25-1.75-.18.08.16.89-.75,3.5l-1-6.75c3.71-4.65-1.14-16.35,1-21.5-4.26-4.82-1.05-22.83,3-27.5-3.38-3.28-6.9-6.66-8.5-11.25,3.49,4.45,14.59,10.19,20,12.5Z"/>
                <path class="cls-29" d="m158,259.53c-.6,2.92-.74,5.86-1.5,8.75l5.5,10.5c-7.03,8.55-2.59,12.18,3,19.75,1.39,1.88,2.3,4.26,4.5,5.5.14.28.33.77.5,1,.26,1.4-.98.93-1,1h-.5c-3.09-4.05-8.36-7.69-11-12-.53-.86-2.12-5.42-3-7,1.17-3.73,1.96-7.64,3.5-11.25-5.02-7.17-3.68-7.17-2.5-15.25l2.5-1Z"/>
                <path class="cls-10" d="m159.5,233.53c.1.04,1.03.56,2,1-1.56,6.53.49,12.96.5,19.5-1.61-1.39-2.17-2.64-3-4.5-1.27-2.85-2.53-8.63-2.5-11.75,0-.35,2.12.16,0-2.25.3-.76.45-1.67.5-2.5.75-.03,1.82.22,2.5.5Z"/>
                <path class="cls-29" d="m157.5,215.53c-.01.06-.92.33-1,.75-.59,3.34,1.74,6.42,2.5,9.25,1.69,6.32,2.89,9.56.5,8-.68-.28-1.75-.53-2.5-.5,0-.06-1.01-.4-1-.75.1-4.02,1.59-6.02-.25-5.75-.99.14-1.2,3.03-2.25,1.25,3.21-6.67.42-10.27.5-11,.09-.86,1.46-1.64,1.5-1.75.91-2.61.57-3.42.75-3.5.13-.06,2.21,1.61,2.25,1.75.03.12-.71.59-1,2.25Z"/>
                <path class="cls-29" d="m159,249.53l-2,1c-.55-2.15-3.41-7.65-3.5-8.75-.32-4.03,2.86-5.91,3-6.25,2.12,2.41,0,1.9,0,2.25-.03,3.12,1.23,8.9,2.5,11.75Z"/>
                <path class="cls-27" d="m163,173.53c1.81-.72,2.36-1.45,2.5-1.5.38-.14,1.2-.44,1.5-.5,5.2-1.07,1.46,1.5-.5,3-.12.09-1.7.97-2.5,1.5-1.59,1.04-5.4,2.58-6.5,3.5.13-2.3,1.16-18.75,2-19.25,5.66-3.42-1.76,14.75,1.25,14.75.14,0,.61-.85,2.25-1.5Z"/>
                <path class="cls-3" d="m166.5,174.53c2.05,5.11-.47,7.36,1.5,16-1.92-.97-4.81-2.36-6.5-3.5l-.5-6.75c1.28-1.1,2.09,6.02,3-4.25.8-.53,2.38-1.41,2.5-1.5Z"/>
                <path class="cls-10" d="m168.5,163.53c1.26,2.57.38,3.72-.5,5.5-.37-6.73-1.93-4.37-2.5,3-.14.05-.69.78-2.5,1.5-.05-15.12,1.83-10.98,5.5-10Z"/>
                <path class="cls-23" d="m168,169.03c-.39.79-.98,1.57-1,2.5-.3.06-1.12.36-1.5.5.57-7.37,2.13-9.73,2.5-3Z"/>
                <g>
                  <path class="cls-43" d="m313.5,150.53c-.9,2.26-2.05,4.29-3,6.5-8.82,6.02,3.44,11.28-4,22.75-1.65,1.94-6.63-.32-14,2.75-8.7,3.84-14.47,11.51-20.5,18.5-27.2,11.93-78.47,2.36-104-10.5-1.97-8.64.55-10.89-1.5-16,1.96-1.5,5.7-4.07.5-3,.02-.93.61-1.71,1-2.5.88-1.78,1.76-2.93.5-5.5,3.01.8,5.99,1.49,8.75,3v-1c-1.71-1.42-5.99-.36-3.75-3.5,5.2,1.99,13.02,4.2,18.5,5.5,38.8,9.21,89.59,10.43,121.5-17Z"/>
                  <path class="cls-23" d="m183.25,188.03c7.11,4.47,1.68,2.63-3,1,.32-1.6,2.67,1.14,3-1Z"/>
                </g>
                <path class="cls-10" d="m168,293.53c-.99-1.01-1.51-2.46-2-3.75-3.2,1.5,2.03,7.9-1,8.75-5.59-7.57-10.03-11.2-3-19.75l-5.5-10.5c.76-2.89.9-5.83,1.5-8.75.1-.49.1-3.98.75-4l6.75,3.75c.08,13.81-1.38,22.89,4.25,35.75-1.08-1.86-1.67-1.42-1.75-1.5Z"/>
                <path class="cls-23" d="m166,237.03l-.5,18.5c-.27-.16-1.99-.2-3.5-1.5,0-6.54-2.06-12.97-.5-19.5,1.54.69,3.02,1.86,4.5,2.5Z"/>
                <path class="cls-15" d="m168,293.53c.48,2.46.87,9.25,1.5,10.5-2.2-1.24-3.11-3.62-4.5-5.5,3.03-.85-2.2-7.25,1-8.75.49,1.29,1.01,2.74,2,3.75Z"/>
                <g>
                  <path class="cls-35" d="m159,249.53c.83,1.86,1.39,3.11,3,4.5,1.51,1.3,3.23,1.34,3.5,1.5,14.68,8.53,38.12,12.29,55,11.5.16,8.26-.96,18.58-6,25.25l.5,1.25c-11.35,12.03-24.58,16.74-41,14-.08-.89-.33-.23-1,0-.76-1.72-2.89-2.34-3-2.5-.17-.23-.36-.72-.5-1-.63-1.25-1.02-8.04-1.5-10.5.08.08.67-.36,1.75,1.5-5.63-12.86-4.17-21.94-4.25-35.75l-6.75-3.75c-.65.02-.65,3.51-.75,4l-2.5,1c1.17-8,2.45-7.33,2.5-7.75-.03-.8-.82-1.53-1-2.25l2-1Z"/>
                  <path class="cls-10" d="m169.75,286.53c4.8-2.78,2.27,4.46.5,4.5-2.75.06,1.57-2.81,1.25-3.25-.21-.29-3.38-.31-1.75-1.25Z"/>
                </g>
                <path class="cls-10" d="m166.5,192.53c.94,8.43-2.2,23.88,2,24.75-3.37-2.25-2.43,17.52-1.75,18.25.45.49,4.45.54,5.25,3.75-1.96-.78-4.07-1.41-6-2.25-1.48-.64-2.96-1.81-4.5-2.5-.97-.44-1.9-.96-2-1,2.39,1.56,1.19-1.68-.5-8,1.24.68.61-2.83,0-5.5.71-10.32,2.09-2.57,7-4.25-9.71-4.03-7.75-7.52-7.5-18.25,5.37-2.18,2.11-5.72,4-7,2.81.81,3.79,1.92,4,2Z"/>
                <path class="cls-3" d="m189.5,201.03l-1,4.5c-3.93-1.1-8.03-2.04-12-3-2.85-2.66-.89-2.93-1-6.5h.5c4.42,2.01,9.02,3.22,13.5,5Z"/>
                <path class="cls-10" d="m161.5,187.03c-6.3-4.25-7.39-4.67-4-7.5,1.1-.92,4.91-2.46,6.5-3.5-.91,10.27-1.72,3.15-3,4.25l.5,6.75Z"/>
                <path class="cls-10" d="m162.5,190.53c-1.89,1.28,1.37,4.82-4,7-2.53-1.96.77-2.81,1-7.75.63-.51,2.29.55,3,.75Z"/>
                <path class="cls-27" d="m159,220.03c.61,2.67,1.24,6.18,0,5.5-.76-2.83-3.09-5.91-2.5-9.25.08-.42.99-.69,1-.75.12,1.13,1.44,4.23,1.5,4.5Z"/>
                <path class="cls-23" d="m192,206.53c-1.94.29-3.32-.95-3.5-1l1-4.5c.65.26,3.2.35,3.5.75.17.22.22,3.96-1,4.75Z"/>
                <g>
                  <path class="cls-48" d="m272,201.03c-5.44,6.31-22.97,28.42-25,35-6.32,20.49,10.18,23.92,11,25.25.12,4.99-1.46,10-1,15,.04.39.95.1,1,.5.09.66.1,4.05.5,5,6.47,15.38,20.33,6.37,17.5,27.5-1.5,1.22-1.6,4.24-3.5,5.25-4.15,2.21-19.05,3.93-24.5,4.5-6.93.73-13.78,1.3-20.75,1-.49.24,1.47,3.75,1.75,5,.15.7.35,1.34.5,2,.29,1.25.26,3.4.5,4.5.31,1.4.48.95.5,1,.12.41-1.06.89-.25,1.5l16.25,1.5c-7.36.59-14.15.59-21.5,0-6.5-.53-13.11-1.23-19.25-3.5-2.67,7.29-16.45-1.88-23.25-2.5-4.68-2.13-8.42-4.4-12.5-7.5,8.77,2.98-9.31-7.52-12.5-10.25,1.94-.19,1.9-.72,2-.75,2.1-.66,5.87.04,8-1v.5c-.22-.03-3.42,1.09-4.25,1-1.57,1.32.14.87.25,1,2.64,3.14,8.44,4.77,12.25,6,.56-.41.07-1.77.25-2,.11-.14.41-.9.5-1,1.5-1.67,6.19-1.95,8.5-3.75-5.8-.38-8.87-2.43-14.75-.75,1.46-.95,4.07-.95,3.75-3.5,16.42,2.74,29.65-1.97,41-14,4.09-4.33,7.47-9.74,8.5-15.75.63-3.67.2-29.14-.5-30.5-.2-.38-2.48-1.47-3.5,0-.59.84.94,16.85,1,19.75-16.88.79-40.32-2.97-55-11.5l.5-18.5c1.93.84,4.04,1.47,6,2.25-.8-3.21-4.8-3.26-5.25-3.75-.68-.73-1.62-20.5,1.75-18.25-4.2-.87-1.06-16.32-2-24.75,3.01,1.13,6.13,2,9,3.5.11,3.57-1.85,3.84,1,6.5,1.75,1.63,13.57,5.25,15.5,4,1.22-.79,1.17-4.53,1-4.75-.3-.4-2.85-.49-3.5-.75-4.48-1.78-9.08-2.99-13.5-5-2.83-1.29-5.53-3.42-8.75-4-.97-1.09.89-.87.75-1.5,25.53,12.86,76.8,22.43,104,10.5Z"/>
                  <g>
                    <path class="cls-37" d="m188.5,205.53c.18.05,1.56,1.29,3.5,1-1.93,1.25-13.75-2.37-15.5-4,3.97.96,8.07,1.9,12,3Z"/>
                    <g>
                      <path class="cls-26" d="m159.5,311.03c-.1.03-.06.56-2,.75,3.19,2.73,21.27,13.23,12.5,10.25-2.15-.73-7.16-4.39-9-6-.79-.69-.96-.46-1-.5-.3-.28-.7-.69-1-1-1.15-1.17-2.08-2.65-3-4l3.5.5Z"/>
                      <path class="cls-30" d="m204,321.53c6.5,1.79,14.43,2.01,21.5,2.5.41.91,2.51,6.04,1.75,6.5-14.03-.83-27.67-3.62-41.5-6,6.34-.29,12.14-1.59,18.25-3Z"/>
                      <path class="cls-46" d="m225.5,324.03c-7.07-.49-15-.71-21.5-2.5,3.5-.81,3.36-3.41,19.75-1.5.57.27,1.2,2.8,1.75,4Z"/>
                      <path class="cls-40" d="m176,316.53c-.18.23.31,1.59-.25,2-3.81-1.23-9.61-2.86-12.25-6,4.8-1.33,7.98,3.35,12.5,4Z"/>
                      <g>
                        <path class="cls-5" d="m180.75,314.53c1.19-.15,23.98,2.07,23.75,3.25-3.73,2.11-8.1.47-9.25,2.75-5.17-.65-14.06-.15-16.25-5.25.64-.03,1.66-.74,1.75-.75Z"/>
                        <path class="cls-29" d="m180.75,320.53c.15-.11,1.28.99,3.75.75l-.25,3.25c-1.43-2.15-5.24-2.7-3.5-4Z"/>
                      </g>
                    </g>
                  </g>
                </g>
                <g>
                  <path class="cls-27" d="m215,293.53l-.5-1.25c5.04-6.67,6.16-16.99,6-25.25-.06-2.9-1.59-18.91-1-19.75,1.02-1.47,3.3-.38,3.5,0,.7,1.36,1.13,26.83.5,30.5-1.03,6.01-4.41,11.42-8.5,15.75Z"/>
                  <g>
                    <path class="cls-27" d="m310.5,157.03c-.06.14.06.36,0,.5-.04.08-.42-.07-1,1.5-4.75,7.5,4.79,10.48-2.5,21.25.28.83,2.22.69,3,.75l.25,1c-7.92.33-14.27.49-21.25,4.5-1.28-1.3,1.78-2.17,4.5-3.25l-1-.75c7.37-3.07,12.35-.81,14-2.75,7.44-11.47-4.82-16.73,4-22.75Z"/>
                    <path class="cls-32" d="m289,186.53c-7.01,4.02-27.02,29.53-33,37.5-4.82,6.42-8.47,13.76-9,12,2.03-6.58,19.56-28.69,25-35,6.03-6.99,11.8-14.66,20.5-18.5l1,.75c-2.72,1.08-5.78,1.95-4.5,3.25Z"/>
                    <g>
                      <path class="cls-4" d="m312.5,180.53c2.55.09,3.77.99,4,1-.08,3.35-1.58,1.81-3.5,3-.12.08-.71-.18-2.5,1.5l-31,35.25c-6.56,14.78,1.79-.08,5-4,7.74-9.43,17.44-17.39,24.75-27.25,1.72-.05,4.18,10.94,4.75,13-.28,1.17-2.47,4.42-2.5,4.75-.09.92,1.66,4.19,1.5,6-.08.87-3.84,7.24-4,8.5-.47,3.59,2.48,10.38,2.5,11.5.07,5.13-5.9,3.02,2.5,15.5l-4,36.25c-.91,3.47,4.18,4.07,4,11.5l-2-3c-.11-.63-.1-.91-.5-1.5-3-4.39-1.73,4.08-16.25,13-5.41,3.32-13.05,6.2-19.25,8,1.21-6.64,3.61-14.39-2.75-20-5.84-5.15-15.09.69-13.25-32.25-1.49-3.47-13.05-2.33-12-18,.44-6.52,4.93-13.64,8-19.25,5.98-7.97,25.99-33.48,33-37.5,6.98-4.01,13.33-4.17,21.25-4.5l-.25-1c.2.01.52-.57,2.5-.5Z"/>
                      <path class="cls-29" d="m314,203.03c-.57-2.06-3.03-13.05-4.75-13-7.31,9.86-17.01,17.82-24.75,27.25-3.21,3.92-11.56,18.78-5,4l31-35.25c-1.12,5.72,4.8,11.55,3.5,17Z"/>
                      <path class="cls-27" d="m276,313.53c-1.52,1.65-2.21,3.71-3.5,5.5l-.5-1c.51-.73,2.6-3.79.5-3.5,1.9-1.01,2-4.03,3.5-5.25,2.83-21.13-11.03-12.12-17.5-27.5-.4-.95-.41-4.34-.5-5-.05-.4-.96-.11-1-.5-.46-5,1.12-10.01,1-15-.82-1.33-17.32-4.76-11-25.25.53,1.76,4.18-5.58,9-12-3.07,5.61-7.56,12.73-8,19.25-1.05,15.67,10.51,14.53,12,18-1.84,32.94,7.41,27.1,13.25,32.25,6.36,5.61,3.96,13.36,2.75,20Z"/>
                      <path class="cls-17" d="m256.75,232.53c8.06-1.05.42,7.62-3,6.5-2.88-.94.98-6.24,3-6.5Z"/>
                    </g>
                  </g>
                  <g>
                    <path class="cls-22" d="m153,296.53c-.32,7.01,9.68,18.1,15.5,9.5h.5c-.08.22.23,3.97-1.5,4-2.13,1.04-5.9.34-8,1l-3.5-.5c-2.41-3.53-5.36-8.66-5.5-13,.33-1.04,2.02-.82,2.5-1Z"/>
                    <path class="cls-46" d="m157.5,294.03c-1.39.91-2.96,1.91-4.5,2.5-.48.18-2.17-.04-2.5,1-.1-3.3,3.08-7.58,4-10.5.88,1.58,2.47,6.14,3,7Z"/>
                    <path class="cls-40" d="m174,307.53c.32,2.55-2.29,2.55-3.75,3.5,5.88-1.68,8.95.37,14.75.75-2.31,1.8-7,2.08-8.5,3.75l-8-4.5c.92-.38,4.23-3.41,4.5-3.5.67-.23.92-.89,1,0Z"/>
                    <path class="cls-26" d="m173,307.53c-.27.09-3.58,3.12-4.5,3.5-.44.02-.5-.44-1-.5v-.5c1.73-.03,1.42-3.78,1.5-4,.02-.07,1.26.4,1-1,.11.16,2.24.78,3,2.5Z"/>
                    <path class="cls-5" d="m168.5,306.03c-5.82,8.6-15.82-2.49-15.5-9.5,1.54-.59,3.11-1.59,4.5-2.5,2.64,4.31,7.91,7.95,11,12Z"/>
                    <path class="cls-34" d="m312,294.03c.72,4.04-3.23,7.22-1,11v.5c-.62,2.01-2.19,3.07-3.5,4.5,3.57-10.8-4.78.57-8.25,3.5-.47.4-3.76.66-4.75,4.5-.08.04.17.23-1.5,1-3.53-2.24-13.44,5.13-23,4.5.05-.1.31-.8,1-2,17.16-1.92,35.37-11.52,40.5-29,.4.59.39.87.5,1.5Z"/>
                    <path class="cls-26" d="m314,297.03c0,.33.03.67,0,1-.13,1.35-.96,3.72-1.5,5-.31.74-.67,1.81-1.5,2-2.23-3.78,1.72-6.96,1-11l2,3Z"/>
                    <path class="cls-10" d="m272.5,314.53c2.1-.29.01,2.77-.5,3.5-.78,1.12-4.66,4.66-6,7.5-3.8,2.8-14.64-.78-14,2.5-6.16-.71-16.61-1.37-22.5-1-.15-.66-.35-1.3-.5-2,2.55.27,2.11-3.12,8.25-1.5,4.16-4.19,9.57-2.4,10.75-4.5,5.45-.57,20.35-2.29,24.5-4.5Z"/>
                    <path class="cls-36" d="m225,335.53c-.02,2.14-2.3,1.83,0,4.25-.56,1.91-10.4-2.2-12.5-.75-8.38-1.79-22.27-5.97-30-9.5,6.8.62,20.58,9.79,23.25,2.5,6.14,2.27,12.75,2.97,19.25,3.5Z"/>
                    <path class="cls-10" d="m264.5,329.53c-.12.55,1.97-.11-.5,3.5-5.49,1.09-11.93,2.05-17.5,2.5l-16.25-1.5c-.81-.61.37-1.09.25-1.5,11.48.42,22.79-.32,34-3Z"/>
                    <path class="cls-1" d="m252,328.03c10.54,1.21-11.06,4.21-22,3.5-.24-1.1-.21-3.25-.5-4.5,5.89-.37,16.34.29,22.5,1Z"/>
                    <path class="cls-46" d="m264.5,329.53c-11.21,2.68-22.52,3.42-34,3-.02-.05-.19.4-.5-1,10.94.71,32.54-2.29,22-3.5-.64-3.28,10.2.3,14-2.5-.35.75-1.36,3.34-1.5,4Z"/>
                    <path class="cls-15" d="m248,319.03c-1.18,2.1-6.59.31-10.75,4.5-6.14-1.62-5.7,1.77-8.25,1.5-.28-1.25-2.24-4.76-1.75-5,6.97.3,13.82-.27,20.75-1Z"/>
                    <path class="cls-5" d="m168.5,311.03l8,4.5c-.09.1-.39.86-.5,1-4.52-.65-7.7-5.33-12.5-4-.11-.13-1.82.32-.25-1,.83.09,4.03-1.03,4.25-1,.5.06.56.52,1,.5Z"/>
                    <path class="cls-44" d="m311.5,292.53c-5.13,17.48-23.34,27.08-40.5,29,.52-.9.88-1.64,1.5-2.5,1.29-1.79,1.98-3.85,3.5-5.5,6.2-1.8,13.84-4.68,19.25-8,14.52-8.92,13.25-17.39,16.25-13Z"/>
                    <path class="cls-29" d="m264,333.03c2.47-3.61.38-2.95.5-3.5.14-.66,1.15-3.25,1.5-4,1.34-2.84,5.22-6.38,6-7.5l.5,1c-.62.86-.98,1.6-1.5,2.5-.69,1.2-.95,1.9-1,2-.37.66-3.52,3.79-2.25,4.5,8.79-2.27,17.03-5.19,25.25-9,1.67-.77,1.42-.96,1.5-1,2.67-1.32,7.77-3.33,10-5,1.14.93-3.99,5.22-5.75,6.5-9.47,6.88-23.38,11.23-34.75,13.5Z"/>
                    <path class="cls-34" d="m307.5,310.03c-1.04,1.12-1.74,2.06-3,3-2.23,1.67-7.33,3.68-10,5,.99-3.84,4.28-4.1,4.75-4.5,3.47-2.93,11.82-14.3,8.25-3.5Z"/>
                    <path class="cls-34" d="m293,319.03c-8.22,3.81-16.46,6.73-25.25,9-1.27-.71,1.88-3.84,2.25-4.5,9.56.63,19.47-6.74,23-4.5Z"/>
                  </g>
                </g>
              </g>
              <g>
                <path class="cls-40" d="m254,102.03l.5,1.5c-14.51-2.2-37.01-.51-51.5,2.5-6.26,1.3-16.23,4.03-21.5,7.5,3.39-4.18-7.8,3.41-10,0,26.1-11.48,54.42-13.9,82.5-11.5Z"/>
                <path class="cls-18" d="m275.5,105.53l-3,2.5c-.96-.34-4.96-1.55-5.5-.5-1.44-.4-7.48-1.84-8.5-2-.36-2.71-2.36-1.75-4-2l-.5-1.5c9.71.83,11.54.68,21.5,3.5Z"/>
                <g>
                  <path class="cls-10" d="m316.5,141.03c-.55,4.29-1.5,5.74-3,9.5-31.91,27.43-82.7,26.21-121.5,17-2.69-3.9-15.44-2.99-8.5-6,13.91,2.66,16.66,2.83,30.5,3.5-1.37,1.3,4.41,2.25,7.25,2.5,8.2.73,36.15-.23,43-3.5,4.42-2.11,0-2.04-.25-3,6.03-.79,11.85-2.65,17.75-4,.59-.13-1.67,2.53,11.25-2.5,13.18-5.13,15.85-9.15,19.75-11.5.58-.35,3.94.11,2.25-1.5.08-.01-.22-.74,1.5-.5Z"/>
                  <path class="cls-1" d="m287,142.53c-3.74,2.88-10.96,6.87-15.25,8,0,2.44-5.24,3.97-7.25,9-1.99.91-3.93.76-6,1-10.96,1.27-11.11,2.89,0,1.5.17.15,2.19-.44,1.25,1-5.97-.64-3.35,1.33-4,1.5-1.93.5-6.95.11-9.25.5.18-.05-.11-1.16,3.5-1.25-1.54-3.59-5.2.58-5.75.75-.99.31-1.84-1.69-4.75,1-8.44.48-17.06-.09-25.5-.5-13.84-.67-16.59-.84-30.5-3.5-4.72-.9-19.75-5.46-13.5-1-5.41-2.31-16.51-8.05-20-12.5-.51-.66-1.84-1.29-1.5-3,.75-1.2,4.13,3.45,9.5,6.5,7.16,4.06,22.72,8.22,31,9.5,18.13,2.81,36.53,1.35,54.75,0,2.78-1.31,5.91-1.92,8.75-3,2.72,1.45,7.42-1.84,12.25-2-1.54-3.72-.72-1.67-2.25-2-.05-.01-.43-.78-.5-1,1.26-.32,3.58-.09,3.5-2,8.25-1.78,14.07-4.79,21.5-8.5Z"/>
                  <path class="cls-1" d="m181.5,113.53c-4.69,3.09-13,11.81-11.5,18-8.5-.87-16.27,3.85-23,8.5,0-.05-.98.16-1-.25-.01-.34,1.7-5.74,2-6.5,3.96-10,14.26-15.69,23.5-19.75,2.2,3.41,13.39-4.18,10,0Z"/>
                  <path class="cls-30" d="m284.5,109.03c-.05.45.53.53.5,1-.12,1.86-.32,3.65-.5,5.5-1.73-1.44-4.88-3.97-7-4.5-1.23-1.36-3.34-2.41-5-3l3-2.5c3.24.92,5.92,2.34,9,3.5Z"/>
                  <path class="cls-15" d="m183.5,161.53c-6.94,3.01,5.81,2.1,8.5,6-5.48-1.3-13.3-3.51-18.5-5.5-1.15-.44-2.35-1.01-3.5-1.5-6.25-4.46,8.78.1,13.5,1Z"/>
                  <path class="cls-15" d="m264.5,159.53c-.21.54-.67.82-.5,1.5.24.96,4.67.89.25,3-6.85,3.27-34.8,4.23-43,3.5-2.84-.25-8.62-1.2-7.25-2.5,8.44.41,17.06.98,25.5.5,2.58-.15,4.26.23,7-.5,2.3-.39,7.32,0,9.25-.5.65-.17-1.97-2.14,4-1.5.94-1.44-1.08-.85-1.25-1-.07-.06.04-.92,0-1.5,2.07-.24,4.01-.09,6-1Z"/>
                  <g>
                    <path class="cls-15" d="m307.5,121.03c5.6,6.35,5.33,8.22,1,16.25l8.5.25c.07,1.39-.34,2.27-.5,3.5-1.72-.24-1.42.49-1.5.5-1.92.27-6.6-.16-8.25.5-1.24.49-8.55,8.21-11,10-.17.12-3.61.51-2.75,2.5-12.92,5.03-10.66,2.37-11.25,2.5-5.9,1.35-11.72,3.21-17.75,4-.17-.68.29-.96.5-1.5,2.01-5.03,7.24-6.56,7.25-9,4.29-1.13,11.51-5.12,15.25-8,1.23-.95,1.43-.94,1.5-1,1.96,3.02,12-8.92,11.5-13.75-.36-3.49-10.69-16.35-15-17.75.03-.47-.55-.55-.5-1,8.99,3.39,15.47,5.2,23,12Z"/>
                    <path class="cls-29" d="m317,137.53l-8.5-.25c4.33-8.03,4.6-9.9-1-16.25,4.68,4.23,9.16,9.94,9.5,16.5Z"/>
                    <path class="cls-10" d="m315,141.53c1.69,1.61-1.67,1.15-2.25,1.5-3.9,2.35-6.57,6.37-19.75,11.5-.86-1.99,2.58-2.38,2.75-2.5,2.45-1.79,9.76-9.51,11-10,1.65-.66,6.33-.23,8.25-.5Z"/>
                  </g>
                  <path class="cls-34" d="m288.5,141.53c-.07.06-.27.05-1.5,1-7.43,3.71-13.25,6.72-21.5,8.5-14.62,3.16-28.73,2.27-43.5,2-3.7-.07-7.2-.39-10.75-1.5-6.49,3.19-13.78,2.46-20.75,2.5-2.43.02-4.61-.48-7-.5,7.25-.59,14.34-1.07,21.5-2.5,2.21-.44,3.45-1.09,5-1.5,4.81-1.29,7.67-2.92,8-1.75,0,1.39-12.99,4.78,10.75,4.75,16.28-.02,60.25-3.01,65.25-22,.01.05.93-.17,1,.25.66,4.28-3.53,8.2-6.5,10.75Z"/>
                  <path class="cls-1" d="m288.5,141.53c2.97-2.55,7.16-6.47,6.5-10.75-.07-.42-.99-.2-1-.25-1.42-6.15-4.68-10.99-9.5-15,.18-1.85.38-3.64.5-5.5,4.31,1.4,14.64,14.26,15,17.75.5,4.83-9.54,16.77-11.5,13.75Z"/>
                  <path class="cls-5" d="m183.5,153.53c2.39.02,4.57.52,7,.5l-4.75,1c4.76.18,9.5.69,14.25,1-.19,5.86-7.34,2.73-11,5-8.28-1.28-23.84-5.44-31-9.5-1.03-4.9,1.77-1.15,2.25-1,6.25,2,12.66,2.98,19,4.5,1.52-.79-2.68-1.55,4.25-1.5Z"/>
                  <path class="cls-44" d="m203.5,108.03c-8.18,2.04-16.79,3.92-23,10-7.33,7.17-8.98,16.35-.5,23.5-3.17-2.04-9.07-6.16-10-10-1.5-6.19,6.81-14.91,11.5-18,5.27-3.47,15.24-6.2,21.5-7.5,1.21,1.56-.98.72-1,1.25-.01.38.73-.09,1.5.75Z"/>
                  <g>
                    <path class="cls-5" d="m170,131.53c.93,3.84,6.83,7.96,10,10,5.27,3.39,9,4.84,15,6.5,4.2,1.16,10.19,1.92,10,3-7.16,1.43-14.25,1.91-21.5,2.5-6.93-.05-2.73.71-4.25,1.5-6.34-1.52-12.75-2.5-19-4.5-.48-.15-3.28-3.9-2.25,1-5.37-3.05-8.75-7.7-9.5-6.5-1.11-1.42-1.29-3.3-1.5-5,6.73-4.65,14.5-9.37,23-8.5Z"/>
                    <path class="cls-30" d="m161.75,136.53c2.16-.41,8.1.51,7.75,2.25-.45,2.21-8.95-.1-11.75,1.75-1.73-1.36,3.13-3.84,4-4Z"/>
                  </g>
                  <path class="cls-45" d="m262.5,154.03c-5.08.3-7.92,3.21-10,4-2.84,1.08-5.97,1.69-8.75,3-18.22,1.35-36.62,2.81-54.75,0,3.66-2.27,10.81.86,11-5,7.36.47,41.96,2.5,46.25,1,.39-.14.25-.67.25-1,4.9-.44,10.7-1.76,15.5-3,.07.22.45.99.5,1Z"/>
                  <path class="cls-1" d="m265.5,151.03c.08,1.91-2.24,1.68-3.5,2-4.8,1.24-10.6,2.56-15.5,3-7.16.64-27.35,1.33-24.5-3,14.77.27,28.88,1.16,43.5-2Z"/>
                  <path class="cls-40" d="m252.5,158.03c2.08-.79,4.92-3.7,10-4,1.53.33.71-1.72,2.25,2-4.83.16-9.53,3.45-12.25,2Z"/>
                  <path class="cls-33" d="m246.5,165.03c-2.74.73-4.42.35-7,.5,2.91-2.69,3.76-.69,4.75-1,.55-.17,4.21-4.34,5.75-.75-3.61.09-3.32,1.2-3.5,1.25Z"/>
                  <path class="cls-1" d="m258.5,160.53c.04.58-.07,1.44,0,1.5-11.11,1.39-10.96-.23,0-1.5Z"/>
                  <path class="cls-30" d="m222,153.03c-2.85,4.33,17.34,3.64,24.5,3,0,.33.14.86-.25,1-4.29,1.5-38.89-.53-46.25-1-4.75-.31-9.49-.82-14.25-1l4.75-1c6.97-.04,14.26.69,20.75-2.5,3.55,1.11,7.05,1.43,10.75,1.5Z"/>
                </g>
                <g>
                  <path class="cls-14" d="m180.5,132.03c.08.62-.84,1.82-.5,3.75,4.87,8.4,6.45,8.67,15,12.25-6-1.66-9.73-3.11-15-6.5-8.48-7.15-6.83-16.33.5-23.5-1.35,7.01-.82,7.86,0,14Z"/>
                  <path class="cls-39" d="m210,149.53c-1.55.41-2.79,1.06-5,1.5.19-1.08-5.8-1.84-10-3-8.55-3.58-10.13-3.85-15-12.25-.34-1.93.58-3.13.5-3.75,7.38,10.74,17.63,13.82,29.5,17.5Z"/>
                  <g>
                    <path class="cls-7" d="m258.5,105.53c1.02.16,7.06,1.6,8.5,2,9.35,2.59-.99.86-5.75,8,4.59-2.85,10.9-5.84,16.25-4.5,2.12.53,5.27,3.06,7,4.5,4.82,4.01,8.08,8.85,9.5,15-5,18.99-48.97,21.98-65.25,22-23.74.03-10.76-3.36-10.75-4.75-.33-1.17-3.19.46-8,1.75-11.87-3.68-22.12-6.76-29.5-17.5-.82-6.14-1.35-6.99,0-14,6.21-6.08,14.82-7.96,23-10,1.61,1.76-2.47,5.14-2.5,5.75-.14,2.7,4.05-4.04,4.5-4.5,7.46-7.55-1.64,5.58-.25,5.75,1.53-1.98,3.54-6.79,5.5-8,7.38-4.57,38.43-3,47.75-1.5Z"/>
                    <g>
                      <path class="cls-41" d="m254.5,103.53c1.64.25,3.64-.71,4,2-9.32-1.5-40.37-3.07-47.75,1.5-1.96,1.21-3.97,6.02-5.5,8-1.39-.17,7.71-13.3.25-5.75-.45.46-4.64,7.2-4.5,4.5.03-.61,4.11-3.99,2.5-5.75-.77-.84-1.51-.37-1.5-.75.02-.53,2.21.31,1-1.25,14.49-3.01,36.99-4.7,51.5-2.5Z"/>
                      <path class="cls-31" d="m272.5,108.03c1.66.59,3.77,1.64,5,3-5.35-1.34-11.66,1.65-16.25,4.5,4.76-7.14,15.1-5.41,5.75-8,.54-1.05,4.54.16,5.5.5Z"/>
                      <path class="cls-12" d="m250.5,117.53c-6.24.15-12.25-.15-18.5.5-19.34,2.02-24.34,10.56-25.75,10.5-.83-.03-1.6-1.18-1.75-1.75-3.48-13.04,32.93-12.97,46-9.25Z"/>
                      <path class="cls-39" d="m250.5,117.53c4.92,1.4,5.73,3.14,9.25,5,.52.27,7.24.21,9.25,6.25,3.11,9.34-2.84-3.12-5.75-4.25-4.8-1.86-2.77.74-2.25,3.5-2.01-1.96-3.52-2.8-6-4-1.89-.91-3.5-1.44-5.5-2-1.25-.35-1.96-.74-3.5-1-2.92-3.24-10.6.36-14-3,6.25-.65,12.26-.35,18.5-.5Z"/>
                      <path class="cls-20" d="m257.25,143.53c15.38,3.75,14.19,3.71-1,2l1-2Z"/>
                      <g>
                        <path class="cls-11" d="m241.5,123.03c13.65,1.73,12.45,4.75,14.25,5.5.33.14,1.8.18,1.75-.5.68.71,3.59.88,3.5,5.75,0,.12-2.46.92,0,1.25-6.93,20.2-60.06,13.88-47.5-7.25,1.08-1.82,2.85-2.14,3-2.25,7.57,1.86,16.58.03,24.75,1,2.15-2.31-3.08-1.3-4.75-1.5l1-2.5c1.35.07,2.66.33,4,.5Z"/>
                        <path class="cls-47" d="m226.5,121.53c-.08,1.72,1.31,1.4,1.5,1.5.07.03-.2.85.25,1,.94.32,6.45.78,8.25,1,1.67.2,6.9-.81,4.75,1.5-8.17-.97-17.18.86-24.75-1,3.62-2.73,5.67-3.1,10-4Z"/>
                        <path class="cls-38" d="m246,121.03c1.54.26,2.25.65,3.5,1-2.49,2.3-4.79-1.09-8,1-1.34-.17-2.65-.43-4-.5-3.09-.16-6.43-.08-9.5.5-.19-.1-1.58.22-1.5-1.5,6.66-1.38,12.81-1.65,19.5-.5Z"/>
                        <path class="cls-8" d="m261,128.03c.31,1.65,2.02,1.11,0,7-2.46-.33,0-1.13,0-1.25.09-4.87-2.82-5.04-3.5-5.75-.19-.2-3.46-1.47-2.5-4,2.48,1.2,3.99,2.04,6,4Z"/>
                        <path class="cls-8" d="m249.5,122.03c2,.56,3.61,1.09,5.5,2-.96,2.53,2.31,3.8,2.5,4,.05.68-1.42.64-1.75.5-1.8-.75-.6-3.77-14.25-5.5,3.21-2.09,5.51,1.3,8-1Z"/>
                        <path class="cls-31" d="m237.5,122.53l-1,2.5c-1.8-.22-7.31-.68-8.25-1-.45-.15-.18-.97-.25-1,3.07-.58,6.41-.66,9.5-.5Z"/>
                      </g>
                    </g>
                  </g>
                </g>
              </g>
            </g>
          </g>
        </g>
      </g>
    </g>
  </g>
</svg>