<?xml version="1.0" encoding="UTF-8"?>
<svg id="_Шар_2" data-name="Шар 2" xmlns="http://www.w3.org/2000/svg" xmlns:xlink="http://www.w3.org/1999/xlink" viewBox="0 0 280.09 283.41">
  <defs>
    <style>
      .cls-1 {
        fill: #957f75;
      }

      .cls-1, .cls-2, .cls-3, .cls-4, .cls-5, .cls-6, .cls-7, .cls-8, .cls-9, .cls-10, .cls-11, .cls-12, .cls-13, .cls-14, .cls-15, .cls-16, .cls-17, .cls-18, .cls-19, .cls-20, .cls-21, .cls-22, .cls-23, .cls-24, .cls-25, .cls-26, .cls-27, .cls-28, .cls-29, .cls-30, .cls-31, .cls-32, .cls-33, .cls-34, .cls-35, .cls-36, .cls-37, .cls-38, .cls-39, .cls-40, .cls-41, .cls-42, .cls-43, .cls-44, .cls-45, .cls-46, .cls-47, .cls-48, .cls-49, .cls-50, .cls-51, .cls-52, .cls-53 {
        stroke-width: 0px;
      }

      .cls-2 {
        fill: #c9bdb3;
      }

      .cls-3 {
        fill: #c0a58f;
      }

      .cls-4 {
        fill: #cfb078;
      }

      .cls-5 {
        fill: #776e67;
      }

      .cls-6 {
        fill: #19150f;
      }

      .cls-7 {
        fill: #2e221e;
      }

      .cls-8 {
        fill: #99693a;
      }

      .cls-9 {
        fill: #584738;
      }

      .cls-10 {
        fill: #9b8978;
      }

      .cls-11 {
        fill: #2f2115;
      }

      .cls-12 {
        fill: #a16b4a;
      }

      .cls-13 {
        fill: url(#_Градієнт_без_назви_82);
      }

      .cls-14 {
        fill: #a17b65;
      }

      .cls-15 {
        fill: url(#_Градієнт_без_назви_87);
      }

      .cls-16 {
        fill: #9b928a;
      }

      .cls-17 {
        fill: #242627;
      }

      .cls-18 {
        fill: url(#_Градієнт_без_назви_89);
      }

      .cls-19 {
        fill: url(#_Градієнт_без_назви_90);
      }

      .cls-20 {
        fill: #d1ab99;
      }

      .cls-21 {
        fill: #8a6b5e;
      }

      .cls-22 {
        fill: #170c0b;
      }

      .cls-23 {
        fill: #463731;
      }

      .cls-24 {
        fill: #806e5e;
      }

      .cls-25 {
        fill: #b58a5f;
      }

      .cls-26 {
        fill: url(#_Градієнт_без_назви_85);
      }

      .cls-27 {
        fill: #a88a75;
      }

      .cls-28 {
        fill: #615750;
      }

      .cls-29 {
        fill: #dad8d1;
      }

      .cls-30 {
        fill: #4c443e;
      }

      .cls-31 {
        fill: url(#_Градієнт_без_назви_86);
      }

      .cls-32 {
        fill: #672c15;
      }

      .cls-33 {
        fill: #ede6e3;
      }

      .cls-34 {
        fill: #8c4e33;
      }

      .cls-35 {
        fill: #734c41;
      }

      .cls-36 {
        fill: #733e26;
      }

      .cls-37 {
        fill: #3e2823;
      }

      .cls-38 {
        fill: #d8bda9;
      }

      .cls-39 {
        fill: #755b4e;
      }

      .cls-40 {
        fill: #482314;
      }

      .cls-41 {
        fill: url(#_Градієнт_без_назви_84);
      }

      .cls-42 {
        fill: url(#_Градієнт_без_назви_78);
      }

      .cls-43 {
        fill: #d6dadd;
      }

      .cls-44 {
        fill: #6e757a;
      }

      .cls-45 {
        fill: #2e1710;
      }

      .cls-46 {
        fill: #8c634b;
      }

      .cls-47 {
        fill: #fafbfb;
      }

      .cls-48 {
        fill: #99a0a3;
      }

      .cls-49 {
        fill: #dcb695;
      }

      .cls-50 {
        fill: #7ea0bf;
      }

      .cls-51 {
        fill: #eadacf;
      }

      .cls-52 {
        fill: #605f5a;
      }

      .cls-53 {
        fill: url(#_Градієнт_без_назви_88);
      }
    </style>
    <linearGradient id="_Градієнт_без_назви_84" data-name="Градієнт без назви 84" x1="83.57" y1="257.92" x2="159.62" y2="275.22" gradientUnits="userSpaceOnUse">
      <stop offset=".22" stop-color="#fdfdfd"/>
      <stop offset="1" stop-color="#36312d"/>
    </linearGradient>
    <linearGradient id="_Градієнт_без_назви_88" data-name="Градієнт без назви 88" x1="154.47" y1="109.24" x2="122.51" y2="110.68" gradientUnits="userSpaceOnUse">
      <stop offset="0" stop-color="#190b0a"/>
      <stop offset="1" stop-color="#47271e"/>
    </linearGradient>
    <linearGradient id="_Градієнт_без_назви_78" data-name="Градієнт без назви 78" x1="174.9" y1="140.84" x2="76.41" y2="141.49" gradientUnits="userSpaceOnUse">
      <stop offset=".23" stop-color="#1f0c08"/>
      <stop offset=".8" stop-color="#b6a098"/>
      <stop offset="1" stop-color="#703826"/>
    </linearGradient>
    <linearGradient id="_Градієнт_без_назви_89" data-name="Градієнт без назви 89" x1="99.65" y1="61.16" x2="86.18" y2="62.17" gradientUnits="userSpaceOnUse">
      <stop offset="0" stop-color="#ac9a91"/>
      <stop offset="1" stop-color="#a37e6c"/>
    </linearGradient>
    <linearGradient id="_Градієнт_без_назви_82" data-name="Градієнт без назви 82" x1="112.39" y1="55.77" x2="171.54" y2="62.26" gradientUnits="userSpaceOnUse">
      <stop offset="0" stop-color="#7d4d3c"/>
      <stop offset=".81" stop-color="#27160f"/>
    </linearGradient>
    <linearGradient id="_Градієнт_без_назви_85" data-name="Градієнт без назви 85" x1="172.27" y1="214.36" x2="108.27" y2="214.85" gradientUnits="userSpaceOnUse">
      <stop offset=".3" stop-color="#1d0e09"/>
      <stop offset="1" stop-color="#794e3e"/>
    </linearGradient>
    <linearGradient id="_Градієнт_без_назви_86" data-name="Градієнт без назви 86" x1="171.54" y1="224.14" x2="97.1" y2="227.06" gradientUnits="userSpaceOnUse">
      <stop offset=".29" stop-color="#1e0c08"/>
      <stop offset="1" stop-color="#9c7d6b"/>
    </linearGradient>
    <linearGradient id="_Градієнт_без_назви_87" data-name="Градієнт без назви 87" x1="123.73" y1="231.26" x2="147.07" y2="236.85" gradientUnits="userSpaceOnUse">
      <stop offset="0" stop-color="#4d2b21"/>
      <stop offset="1" stop-color="#2d1611"/>
    </linearGradient>
    <linearGradient id="_Градієнт_без_назви_90" data-name="Градієнт без назви 90" x1="154.9" y1="201.7" x2="89.41" y2="202.65" gradientUnits="userSpaceOnUse">
      <stop offset="0" stop-color="#1d0e0b"/>
      <stop offset=".6" stop-color="#4c271d"/>
      <stop offset="1" stop-color="#dac1b4"/>
    </linearGradient>
  </defs>
  <g id="_Шар_1-2" data-name="Шар 1">
    <g>
      <g>
        <path class="cls-17" d="m69.64,177.13c1.44,2.08,13.81.26,7.5,2-4.42,1.22-69.19,5.13-73.5,4.5-1.2-1.89,6.78-2.41,12.5-3,14.73-1.51,38.01-2.7,53.5-3.5Z"/>
        <path class="cls-51" d="m98.14,171.63c-.02.17.38.79-.25,3.5,5.39.4,11.26-1.11,16.25,1.5-.82-.06-1.69.09-2.5,0-2.22-.26-9.85-.97-11.25-1-9.15-.19-13.61.93-15.5,1-.39.01.13-1.04-1-1-.54.02-5.17,1.22-10.75,1.5-.04-.32.07-.74,0-1,2.05.22,3.99-.3,6-.5,7.64-.75,8.38,1.08,8-7.5,3.47,1.43,7.36,2.52,11,3.5Z"/>
        <path class="cls-44" d="m111.64,176.63c-5.45,1.78-13.23.69-22,1.5-2.61.24-10.62,1.13-12.5,1.5v-.5c6.31-1.74-6.06.08-7.5-2,1.16-.06,2.34.06,3.5,0,5.58-.28,10.21-1.48,10.75-1.5,1.13-.04.61,1.01,1,1,1.89-.07,6.35-1.19,15.5-1,1.4.03,9.03.74,11.25,1Z"/>
        <path class="cls-43" d="m16.15,180.63c-5.72.59-13.7,1.11-12.5,3-1.2-.91-5.98-2.1-2.25-4,.74-.38,17.57-3.29,14.75,1Z"/>
        <path class="cls-30" d="m166.64,170.13c-.36,1.82,2.17.64,4.5,1,8.09,1.26,10.72.42,10.5,1.75-.07.42-.99.2-1,.25-7.17-.13-14.34-.68-21.5-1-.04-2.65,4.87-2.06,7.5-2Z"/>
        <path class="cls-6" d="m253.64,166.13c3.54,5.3-9.88,4.7-10.5,1,.08,0-.49-.4,1.5-.5,3-.14,6.02-.38,9-.5Z"/>
        <path class="cls-22" d="m124.14,182.63c.98,3.05-5.43-.45-15.5-1.5-7.52-4.5,4.27-2.64,8.25-3,1.99.49.51,1.88,7.25,4.5Z"/>
      </g>
      <g>
        <g>
          <path class="cls-41" d="m91.64,249.62c11.62,3.63,19.03,6.27,31.75,7,13.47.77,19.45-.8,31.75-2.5,3.46,5.19,11.65,9.71,17,14,1.07,1.64-11.73,7.76-15,9-5.69,2.16-12.24,2.33-17.5,5.5-12.97,1.2-26.61,1.15-39.5-1-7.33-1.22-13.36-3.17-20-6.5-10.55-8.23,1.24-13.45,10.5-25.5.32.04.76-.07,1,0Z"/>
          <path class="cls-5" d="m175.14,266.12c-.03,1.69-.86,1.7-3,2-5.35-4.29-13.54-8.81-17-14,2.1-.29,4.08-1.18,6.25-1q6.87,6.5,13.75,13Z"/>
          <path class="cls-52" d="m172.64,274.62c-.78.42-6.35,2.44-8,3-1.72.58-3.25,1.04-5,1.5l-2.5-2c3.27-1.24,16.07-7.36,15-9,2.14-.3,2.97-.31,3-2,0-.04.55.12.5-.5,2,5.89,2.49,6.05-3,9Z"/>
          <path class="cls-48" d="m157.14,277.12l2.5,2c-7.12,1.88-12.67,2.82-20,3.5,5.26-3.17,11.81-3.34,17.5-5.5Z"/>
        </g>
        <g>
          <g>
            <path class="cls-43" d="m190.14,51.13c.64,4.5-7.46,6.7-10,10.5-4.67,3.15-9.31,6.42-14,9.5-2.7,1.77-5.32,3.77-8,5.5-7.89,5.1-16.02,10.03-24,15-8.3,5.17-16.66,10.4-25,15.5-6.47,3.95-13.55,7.09-20,11,.18-1.15,1.79-3.32,2-4,2.59-.59,4.36-2.68,6.5-4,1.69-1.04,3.31-1.87,5-3,2.23-1.49,3.79-2.09,7-4.5,7.14-4.09,14.03-8.63,21-13,1.79-1.12,3.32-2.39,3.5-2.5,10.96-6.87,49.36-29.83,56-36Z"/>
            <path class="cls-50" d="m86.64,122.63l.5.5c-2.49,1.07-6.19,3.61-9,5-1,.49-1.98,1.05-3,1.5-1.82.81-4.15,2.64-6,1.5,2.46-1.78,4.97-3.33,7.5-5,.25-.17.75-.34,1-.5,2.8-1.14,6.32-1.88,9-3Z"/>
            <path class="cls-47" d="m115.14,108.13c-.16.11-.34.78-3,2.5-2.53,1.63-4.93,3.39-7.5,5-2.31,1.44-10.04,4.5-10.5,6.25-2,7.66,5.45-1.95,4,7.75-.11.04-.37.54-2,1-.62.18-3.05,1.54-3.5.75l-2.25-9.75c-1.04.67-2.13,1.02-3.25,1.5l-.5-.5c9.64-4.03,18.38-10.36,28-14.5h.5Z"/>
            <path class="cls-36" d="m76.64,133.13c-2.68.18-2.11-1.59-1.5-3.5,1.02-.45,2-1.01,3-1.5l-1.5,5Z"/>
            <path class="cls-22" d="m134.14,91.63c-.24.76,1.49,1.82,2,2-1.62,1.61-.45,1.91-.5,2-.9,1.45-17.11,10.33-20.5,12.5h-.5c-1.85-.99-2.41,1.19-5.5-1,8.34-5.1,16.7-10.33,25-15.5Z"/>
            <path class="cls-11" d="m158.14,76.63c2.68-1.73,5.3-3.73,8-5.5.17,2.2,1.88-1.6,4.25.5-5.46,4.62-18.09,13.08-12.25,5Z"/>
            <path class="cls-17" d="m114.64,108.13c-9.61,4.13-18.36,10.47-28,14.5-2.68,1.12-6.2,1.86-9,3,.26-.17,1.99-2.18,2.5-2.5.75-.47,4.73-2.41,9-5,6.45-3.91,13.53-7.05,20-11,3.09,2.19,3.65.01,5.5,1Z"/>
          </g>
          <g>
            <path class="cls-22" d="m246.64,11.13c-4.28,3.71-4.76,2.8-5,3,.14-1.11.2-1.87,0-3-.13-.74.3-2.59-.25-3-2.88-2.16-15.83,11.01-16.75,11.5-1.74.93-1.55.26-2.5,0-.26-.07-.68.04-1,0,5.64-4.28,15.83-18.36,23.75-14.5,2.46,1.2,2.12,3.96,1.75,6Z"/>
            <path class="cls-17" d="m229.14,29.13c1.59-4.43,11.23-5.07,12.5-15,.24-.2.72.71,5-3-1.31,7.29-11.71,14.05-17.5,18Z"/>
            <path class="cls-43" d="m241.64,11.13c.2,1.13.14,1.89,0,3-4.61,3.81-6.6,10.83-14,11.75,1.02,4.86-.76-.36-1.5-2.25,4.66-5.75,11.02-8.89,11.75-9.5.57-.47,1.53-4.59,3.75-3Z"/>
            <path class="cls-47" d="m241.64,11.13c-2.22-1.59-3.18,2.53-3.75,3-.73.61-7.09,3.75-11.75,9.5-.52-1.32-1.37-2.53-1.5-4,.91-.49,13.87-13.66,16.75-11.5.55.41.12,2.26.25,3Z"/>
          </g>
        </g>
        <g>
          <path class="cls-30" d="m170.14,33.13c-3.76,3.81-8.43,5.93-13.5,7.5q1-11,2-22c5.84-.89,22.3-2.7,19.5-10,4.27,6.49-4.38,18.83-8,24.5Z"/>
          <path class="cls-29" d="m141.14,20.13c-.76,7.87-2.01,15.57-1.5,23.5-4.22.52-7.77.77-12,1-.05-.91-1.29-.21-1.5-.75-.55-1.44-.44-23.25.5-24,4.86-.52,9.62.4,14.5.25Z"/>
          <path class="cls-16" d="m147.64,19.63l-1,23c-2.36.42-4.63.71-7,1-.51-7.93.74-15.63,1.5-23.5,2.23-.07,4.31-.36,6.5-.5Z"/>
          <path class="cls-5" d="m152.14,19.63c1.86,5.02-.7,15.38-.5,22-1.71.4-3.28.69-5,1l1-23c1.49-.1,3.02.13,4.5,0Z"/>
          <path class="cls-28" d="m158.64,18.63q-1,11-2,22c-1.58.49-3.4.63-5,1-.2-6.62,2.36-16.98.5-22,2.09-.19,4.4-.68,6.5-1Z"/>
          <g>
            <path class="cls-47" d="m178.14,8.63c2.8,7.3-13.66,9.11-19.5,10-2.1.32-4.41.81-6.5,1-1.48.13-3.01-.1-4.5,0-2.19.14-4.27.43-6.5.5-4.87.15-9.64-.77-14.5-.25-.94.75-1.05,22.56-.5,24,.21.54,1.45-.16,1.5.75-7.55.41-23.29,1.28-30-.5-.58-.15-5.32-2.74-6.5-3.5-.51-.33-3.35-2.35-3.5-2.5-5.58-5.46-12.97-23.35-6.25-29.5C89.34,1.36,131.53-.56,142.89.13c6.09.37,32.24,3.92,35.25,8.5Z"/>
            <g>
              <path class="cls-11" d="m136.14,3.13v11c-5.4.17-20.63.14-25-1-.19-.85.5-1.07,1-1.5,2.93-2.51.35-4.29,2.75-6,1.55-1.1,8.84-1.19,11.25-1.5-.21.95.85,1.08.25,2-1.75,2.67-26.43,6.38,3,7.5.24-4.6,1.29-10.3-1.75-9.5.08,0-.52-.33,1.5-.5,2.42-.21,4.54-.49,7-.5Z"/>
              <path class="cls-4" d="m136.14,14.13V3.13c10.52-.05,11.54-1.4,9.25,11-3.08.07-6.17-.1-9.25,0Z"/>
              <path class="cls-6" d="m149.39,4.63c.15-.12,3.64.59,3.75.75,1.5,2.13-1.13,11.55-4,7.5-.24-.34-.07-7.99.25-8.25Z"/>
              <path class="cls-8" d="m129.14,3.63c-2.02.17-1.42.49-1.5.5-.49.06-1.01-.06-1.5,0-2.41.31-9.7.4-11.25,1.5-2.4,1.71.18,3.49-2.75,6l-.5-6v-1.5c3.62-.72,13.8-1.44,17.5-.5Z"/>
              <path class="cls-17" d="m111.64,4.13v1.5l.5,6c-.5.43-1.19.65-1,1.5-.59-.15-2.9-.58-3-.75-.19-.32-.19-7.18,0-7.5.17-.29,2.84-.62,3.5-.75Z"/>
              <path class="cls-6" d="m127.64,4.13c3.04-.8,1.99,4.9,1.75,9.5-29.43-1.12-4.75-4.83-3-7.5.6-.92-.46-1.05-.25-2,.49-.06,1.01.06,1.5,0Z"/>
              <path class="cls-25" d="m112.14,11.63l-.5-6,.5,6Z"/>
            </g>
          </g>
        </g>
        <g>
          <path class="cls-45" d="m222.14,19.63c-1.14,2.56-.46,3.52,0,6-4.98.42-4.27-4.83-5.5,3.25.66.98,1.16.66,2,.75.97.1,4.86-1.5,5.75-1,.91.51.67,3.81.75,4q-17.62,11.75-35.25,23.5l-1.25,1.25c.53.45.21,3.46,0,5.25-7.1-.41-1.5,16.98-4,27.5-.26,1.1-1.67,2.4-1.5,3.75-.51.67-1.7.6-2.5.75-1.62.3-9.37-.48-10,.25.65,3.3,6.65,2.24,9,2.75,4.09.89,1.51,3.39,1.25,3.5-.9.37-17.08-1.62-19.25-2-.15-.03-.24-1.05-2.75-1.5-4.32-.78-20.29-3.13-22.75-4-.51-.18-2.24-1.24-2-2,7.98-4.97,16.11-9.9,24-15-5.84,8.08,6.79-.38,12.25-5-2.37-2.1-4.08,1.7-4.25-.5,4.69-3.08,9.33-6.35,14-9.5,1.08-.73,4.54-1.86,4.75-2,.75-.51-1.25-.49-.5-1,.66-.45,1.84-.05,2.5-.5,1.23-.84,6.08-5.76,10-8.5,7.28-5.09,15.02-9.58,22.25-14.75.4-1.76-3.72-3.83-4.5-6-2.69-7.48,2.09-5.91,6.5-9.25.32.04.74-.07,1,0Z"/>
          <path class="cls-40" d="m81.14,71.13c-.44-.15-3.08-1.02-3.25-1-.22.03-1.3,4.03-1.25,4.25.16.68,2.88,1.4,4.5,2.25,1.98,1.03,3.98,1.64,6,2.5,3.88,1.66,13.05,5.46,16.5,6.5l.5,2c-2.74-1.2-5.72-1.91-8.5-3-1.64-.64-2.7-.89-3-1-1.69-.65-13.16-6.47-13.75-6-1.26,6.92,2.5,6.75,2.75,7.25.03.07-.64.41-.5.75-5.07-3.38-.05,5.42-2.75,6.5-.81.33-1.92-2.33-4.25.25v34.25c-1.28.48-1.75,1.46-2.5.25l-.5-54.25c.51.36,2.17.07,2.75.5.44-1.67,1.71-2.91,2.25-4.5l5,2.5Z"/>
          <path class="cls-12" d="m81.14,85.63c4.23,10.19-1.45,21.17,1,31.25-2.96.08.93,2.93-2,6.25-.51.32-2.24,2.33-2.5,2.5-.25.16-.75.33-1,.5-1.42-.24-1.88.27-2.5.5v-34.25c2.33-2.58,3.44.08,4.25-.25,2.7-1.08-2.32-9.88,2.75-6.5Z"/>
          <path class="cls-40" d="m76.64,133.13c10.08-.29,8.34,1.49-2.75,1-1.42.78-1.75,16.16-.75,18.75,4.48,2.17,4.26,3.12,4.5,3.25-1.44.6,1.13,2.02,2,3.5,1.02,1.73,3.21,5.19.5,5-.43-.18-2.75-1.66-3-.75,3.01,1.24,1.37,8.15,2,11.75-2.01.2-3.95.72-6,.5-1.21-4.45-.1-9.25-.5-13.75-.19-2.21-1.48-4.26-1.5-4.5-.26-2.87.55-4.29.5-5-.08-1.03-3.75-7.45,0-20-6.86,2.5-12.36,5.37-2.5-1.75,1.85,1.14,4.18-.69,6-1.5-.61,1.91-1.18,3.68,1.5,3.5Z"/>
          <path class="cls-53" d="m161.14,100.63c3.31.45,6.68,1.19,10,1.5-.65,1.98-1.51,2.14-3,3-16.37,9.45-38.61,14.45-56.5,20.5.46-2.25-.81-1.09-4,0l-2.5-4c1.46-.91,1.89-1.43,2-1.5,11.88-7.3,3.54-.74,5-9.5,2.66-1.72,2.84-2.39,3-2.5,3.39-2.16,19.6-11.05,20.5-12.5,8.41,2.21,16.89,3.82,25.5,5Z"/>
          <path class="cls-29" d="m101.14,165.13q-5,.5-10,1c-3.96-2.01-7.76-4.11-11.5-6.5-.87-1.48-3.44-2.9-2-3.5,2.01,1.08,15.4,4.19,23.5,9Z"/>
          <path class="cls-39" d="m122.14,169.13c.64,3.33-2.26,1.84-3.5,4-5.13-.85-8.89-.81-14.5-2-1.27-1.8,2.54-.18,3-3.5,4.45,1.06,10.41,1.16,15,1.5Z"/>
          <path class="cls-10" d="m107.14,167.63c-.46,3.32-4.27,1.7-3,3.5-.77-.16-1.8.26-5.5-1-.4-.14-5.81-3.14-7.5-4q5-.5,10-1c1.86,1.2,3.87,1.99,6,2.5Z"/>
          <path class="cls-45" d="m182.14,102.13c2.21.22,6.15.89,2,1.5-5.15.76-7.96.57-12.25,4.5-7.27,3.73-12.16,4.08-2.75-2,2.07-1.34,4.74-1.57,6.5-3.5.33.02,2.23-.92,6.5-.5Z"/>
          <path class="cls-2" d="m175.64,102.63c-1.75,1.93-4.43,2.16-6.5,3.5l-1-1c1.49-.86,2.35-1.02,3-3,1.47.14,3.1.4,4.5.5Z"/>
          <g>
            <path class="cls-42" d="m184.14,103.63c-1.15,1.23,1.4,2.13,1.5,2.75.32,2.04-1.61,17.92-1,19.5.42,1.09,5.23-1.35,0,5,.08.56,1.49.82,1.5,1,.39,12.49-.56,25.02.5,37.5,18.18.74,36.33-1.64,54.5-2.25.67-.02,1.34.03,2,0,.62,3.7,14.04,4.3,10.5-1,.17,0,.33,0,.5,0,1.16-.04,2.34.04,3.5,0,27.84-.89,31.41-.26,1.5,3.5-1.78.22-3.67.3-5.5.5-23.13,2.49-46.51,2.73-69.75,3-1.33.59-.52,3.38-.75,4.5-5.68,1.27-2-1.49-2-1.75,0-2.1-.66-1.17-.5-2.75,0-.05.93.17,1-.25.22-1.33-2.41-.49-10.5-1.75l.75-1c-1.75-.03-3.5.04-5.25,0-2.63-.06-7.54-.65-7.5,2-4.83-.21-9.66-.48-14.5-.5-1.11-2.36-3.36-1.58-5-1.5-5.8-.71-11.69-.57-17.5-1-4.59-.34-10.55-.44-15-1.5-2.13-.51-4.14-1.3-6-2.5-8.1-4.81-21.49-7.92-23.5-9-.24-.13-.02-1.08-4.5-3.25-1-2.59-.67-17.97.75-18.75,11.09.49,12.83-1.29,2.75-1l1.5-5c2.81-1.39,6.51-3.93,9-5,1.12-.48,2.21-.83,3.25-1.5l2.25,9.75c.45.79,2.88-.57,3.5-.75,4.91.3,10.71-3.38,15.5-5,17.89-6.05,40.13-11.05,56.5-20.5l1,1c-9.41,6.08-4.52,5.73,2.75,2,4.29-3.93,7.1-3.74,12.25-4.5Z"/>
            <g>
              <path class="cls-51" d="m171.14,171.13c-2.33-.36-4.86.82-4.5-1,1.75.04,3.5-.03,5.25,0l-.75,1Z"/>
              <g>
                <path class="cls-37" d="m173.64,133.13l1,1c-1.16,2.73-25.89,11.42-30.5,11.25,3.15-1.39,10.44-5.21,11.75-5.75.13-.05,1.11.57,2.5,0,.18-.07.11-.93,1.5-1.5.14-.06,2.38.05,2.5,0,2.49-.99,9.62-5.2,11.25-5Z"/>
                <path class="cls-22" d="m184.89,164.63c.39.31.66,4.48-.5,5-1.36.61-6.91-.47-8.75-.75,1.13-.42,8.85-4.56,9.25-4.25Z"/>
                <path class="cls-35" d="m111.64,125.63c-4.79,1.62-10.59,5.3-15.5,5,1.63-.46,1.89-.96,2-1,2.71-.99,3.85-1.73,4.5-2,1.64-.67,3.33-1.43,5-2,3.19-1.09,4.46-2.25,4,0Z"/>
                <path class="cls-45" d="m180.89,130.63c2.29.21-1.87,3.57-3.25,2.25-.15-.24,3.05-2.27,3.25-2.25Z"/>
                <path class="cls-14" d="m174.64,134.13l-1-1c.71.09,1.48-.12,1,1Z"/>
              </g>
            </g>
          </g>
          <path class="cls-39" d="m182.14,102.13c-4.27-.42-6.17.52-6.5.5-1.4-.1-3.03-.36-4.5-.5-3.32-.31-6.69-1.05-10-1.5l.5-1.5c2.17.38,18.35,2.37,19.25,2,.26-.11,2.84-2.61-1.25-3.5l1-3c.8-.15,1.99-.08,2.5-.75-.17-1.35,1.24-2.65,1.5-3.75l2.5-2c-.06.76.51,1.68,1,2.25-7.07,6.92-2.15,8.45-2,9,.91,3.38-4.02.39-4,2.75Z"/>
          <path class="cls-24" d="m188.64,62.63c-.98,8.42-.86,17.04-1.5,25.5l-2.5,2c2.5-10.52-3.1-27.91,4-27.5Z"/>
          <path class="cls-45" d="m161.64,99.13l-.5,1.5c-8.61-1.18-17.09-2.79-25.5-5,.05-.09-1.12-.39.5-2,2.46.87,18.43,3.22,22.75,4,2.51.45,2.6,1.47,2.75,1.5Z"/>
          <path class="cls-9" d="m180.64,94.63l-1,3c-2.35-.51-8.35.55-9-2.75.63-.73,8.38.05,10-.25Z"/>
          <path class="cls-51" d="m92.64,83.63c-3.98,1.95-2.11,14.02-2,20,.02.83-.01,1.67,0,2.5,0,3.58,1.33,5.3.5,8-.21.68-1.82,2.85-2,4-4.27,2.59-8.25,4.53-9,5,2.93-3.32-.96-6.17,2-6.25-2.45-10.08,3.23-21.06-1-31.25-.14-.34.53-.68.5-.75-.25-.5-4.01-.33-2.75-7.25.59-.47,12.06,5.35,13.75,6Z"/>
          <path class="cls-46" d="m104.14,87.63c.94.41,1.43.47,1.5.5q-.25,7.37-.5,14.75c-2.7-.79-1.81,2.7-2.5,4.25-1.69,1.13-3.31,1.96-5,3-2.1-3.85-.49-2.13-.5-2.75-.13-5.71-.63-11.62-.5-18-2.67-.16-2.7-3.42-1-4.75,2.78,1.09,5.76,1.8,8.5,3Z"/>
          <path class="cls-3" d="m95.64,84.63c-1.7,1.33-1.67,4.59,1,4.75-.13,6.38.37,12.29.5,18,.01.62-1.6-1.1.5,2.75-2.14,1.32-3.91,3.41-6.5,4,.83-2.7-.51-4.42-.5-8,1.48-.53,1.33-2.09,0-2.5-.11-5.98-1.98-18.05,2-20,.3.11,1.36.36,3,1Z"/>
          <path class="cls-40" d="m109.64,102.63c-3.21,2.41-4.77,3.01-7,4.5.69-1.55-.2-5.04,2.5-4.25q.25-7.37.5-14.75c4.57,2.05,8.98,4.2,13,7.25-3.02,2.29-5.99,4.99-9,7.25Z"/>
          <path class="cls-22" d="m106.64,86.13c8.26,2.25,15.25,3.89,24,3.5-6.97,4.37-13.86,8.91-21,13,3.01-2.26,5.98-4.96,9-7.25-4.02-3.05-8.42-5.2-13-7.25-.07-.03-.56-.09-1.5-.5l-.5-2c.76.23,2.21.29,3,.5Z"/>
          <path class="cls-12" d="m80.14,164.63c2.21.91,5.02,2.69,7,3.5.38,8.58-.36,6.75-8,7.5-.63-3.59,1.01-10.51-2-11.75.25-.91,2.57.57,3,.75Z"/>
          <path class="cls-40" d="m91.14,166.13c1.69.86,7.1,3.86,7.5,4,.24.75-.43.96-.5,1.5-3.64-.98-7.53-2.07-11-3.5-1.98-.81-4.79-2.59-7-3.5,2.71.19.52-3.27-.5-5,3.74,2.39,7.54,4.49,11.5,6.5Z"/>
          <path class="cls-20" d="m107.14,120.13c-.11.07-.54.59-2,1.5-.87.54-6.28-.42-2.5,6-.65.27-1.79,1.01-4.5,2,1.45-9.7-6-.09-4-7.75.46-1.75,8.19-4.81,10.5-6.25,2.06,1.16-.83,3.25,2.5,4.5Z"/>
          <path class="cls-46" d="m107.14,120.13c-3.33-1.25-.44-3.34-2.5-4.5,2.57-1.61,4.97-3.37,7.5-5-1.46,8.76,6.88,2.2-5,9.5Z"/>
          <path class="cls-20" d="m105.14,121.63l2.5,4c-1.67.57-3.36,1.33-5,2-3.78-6.42,1.63-5.46,2.5-6Z"/>
          <g>
            <path class="cls-34" d="m78.64,43.13c.24.84-.53,1.19-.5,1.25.11.22.92.38,1.5.75-1.49,2.13-1.47,6.59-2.5,9.25-.99,2.55-4.92,7.08-4,9.25-1.8-.24-1.57.32-1.5,2-1.83-1.25-3.34-.77-2.5-3.5.13-.4.54-.78,1-2,.03-.07,1.1.94,1.5-.25.07-.2.03-2.11.5-4.25l5-10.75c-2.19-2.67-3.28-.03-4,2.25l-1.5-1c.92-1.12,2.01-4.66,7-3Z"/>
            <path class="cls-40" d="m69.14,62.13c-.84,2.73.67,2.24,2.5,3.5,1.34.92,2.94,2,4.5,2.5-.04.16.05.35,0,.5-.54,1.59-1.81,2.83-2.25,4.5-.58-.43-2.24-.14-2.75-.5-.76-.52-1.4-1.05-2-1.75-.34-5.06-6.38-8.95-4-10.75,1.64,1.23,2.71,4.58,4,2Z"/>
            <path class="cls-32" d="m73.14,47.13c-.46,1.45-.57,6.55-1,8.5-.47,2.14-.43,4.05-.5,4.25-.4,1.19-1.47.18-1.5.25-1.94-1.27-2.14-4.45-2-6.5.19-2.75,1.79-5.42,3.5-7.5l1.5,1Z"/>
            <path class="cls-36" d="m91.14,40.63c-.32,2.35.49,3.32.5,3.5-3.76-1.13-9.66-2.34-12,1-.58-.37-1.39-.53-1.5-.75-.03-.06.74-.41.5-1.25,2.05-3.12,6.18-2.94,9-5,.15.15,2.99,2.17,3.5,2.5Z"/>
            <path class="cls-12" d="m70.14,60.13c-.46,1.22-.87,1.6-1,2-1.29,2.58-2.36-.77-4-2,1.82-2.51.82-5.69,3-6.5-.14,2.05.06,5.23,2,6.5Z"/>
            <path class="cls-18" d="m91.64,44.13c.05.93-.02,1.12-1,1-1.18-.15-5.55-1.65-6-.25-.05.17.4,3.36.5,3.5.39.55,2.27.12,3,.25q-.37,5.5-.75,11c4.03-1.99,10.96-5.84,10.75-10.5,2.01,0,2.35.51,2.5.5,6.19-.25,3.58-1.34,4.25-1.5,7.79-1.82,1.18,6.44,1.25,8-3.13-3.31-.52,4.75-.5,5.25.21,5.07-1.31,8.39.5,8.75-2.06,2.82-1.35,6.52-1.5,10-1.56-.41-2.52-1.21-4.5-1.5-.93-.14-2.12-.47-3-.5l-5.5-1.5c-4.24-4.23-4.11-2.07-4.5,2.5-2.02-.86-4.02-1.47-6-2.5,3.65-.32.51-2.78,3.5-4.25-.78-1.12-2.6-.96-3.5-1.25l-5-2.5c.05-.15-.04-.34,0-.5.22-.81-.24-.89,1-1.25-.14-.6-3.36-1.73-4-3.25-.92-2.17,3.01-6.7,4-9.25,1.03-2.66,1.01-7.12,2.5-9.25,2.34-3.34,8.24-2.13,12-1Z"/>
            <path class="cls-39" d="m116.64,84.13c.53,1.68,9.45,2.89,12,2,1.76.2,4.57-.53,5.5,1-.18.11-1.71,1.38-3.5,2.5-8.75.39-15.74-1.25-24-3.5v-4.5c3.27.97,6.66,1.82,10,2.5Z"/>
            <path class="cls-27" d="m91.64,76.63c.15.15-.43,1.97.75,2.5.72.33,4.51-1.01,4.75-1,.88.03,2.07.36,3,.5,1.49,2.23,4.19,2.32,6.5,3v4.5c-.79-.21-2.24-.27-3-.5-3.45-1.04-12.62-4.84-16.5-6.5.39-4.57.26-6.73,4.5-2.5Z"/>
            <path class="cls-33" d="m90.64,45.13c1.87.24,4.15.63,6,1,3.76.76,4.39-.29,4,3.5-.15,0-.49-.5-2.5-.5-2.94,0-7.18.02-10-.5-.73-.13-2.61.3-3-.25-.1-.14-.55-3.33-.5-3.5.45-1.4,4.82.1,6,.25Z"/>
            <path class="cls-14" d="m106.14,56.13c1.61,3.15,6.01,13.61,1,14-.11,0-.96-2.12-1,0-1.81-.36-.29-3.68-.5-8.75-.02-.5-2.63-8.56.5-5.25Z"/>
            <path class="cls-10" d="m107.14,70.13c2.49,1.18.79,10.75.25,11-.76-.65-1.83-.76-2.75-1,.15-3.48-.56-7.18,1.5-10,.04-2.12.89,0,1,0Z"/>
            <path class="cls-51" d="m97.64,44.13l-1,2c-1.85-.37-4.13-.76-6-1,.98.12,1.05-.07,1-1,0-.18-.82-1.15-.5-3.5,1.18.76,5.92,3.35,6.5,3.5Z"/>
            <g>
              <path class="cls-13" d="m190.14,51.13c-6.64,6.17-45.04,29.13-56,36-.93-1.53-3.74-.8-5.5-1-4.03-.46-8.02-1.19-12-2-3.34-.68-6.73-1.53-10-2.5-2.31-.68-5.01-.77-6.5-3,1.98.29,2.94,1.09,4.5,1.5.92.24,1.99.35,2.75,1,.54-.25,2.24-9.82-.25-11,5.01-.39.61-10.85-1-14-.07-1.56,6.54-9.81-1.25-8-.67.16,1.94,1.25-4.25,1.5.39-3.79-.24-2.74-4-3.5l1-2c6.71,1.78,22.45.91,30,.5,4.23-.23,7.78-.48,12-1,2.37-.29,4.64-.58,7-1,1.72-.31,3.29-.6,5-1,1.6-.37,3.42-.51,5-1,5.06-1.57,9.74-3.69,13.5-7.5-.09.14.23.95-2,2.75-.07,1.39,22.01,9.71,24.5,12.5-1,.7-1.64,1.96-2.5,2.75Z"/>
              <path class="cls-3" d="m128.64,86.13c-2.54.89-11.47-.32-12-2,3.98.81,7.97,1.54,12,2Z"/>
              <path class="cls-1" d="m172.39,47.63c.45-.07,2.75-.1,2.75.25-1.67,1.25-6.84.41-2.75-.25Z"/>
            </g>
            <path class="cls-34" d="m81.14,71.13c.9.29,2.72.13,3.5,1.25-2.99,1.47.15,3.93-3.5,4.25-1.62-.85-4.34-1.56-4.5-2.25-.05-.22,1.03-4.22,1.25-4.25.17-.02,2.8.85,3.25,1Z"/>
            <path class="cls-3" d="m72.14,55.63c.43-1.95.54-7.05,1-8.5.72-2.28,1.81-4.92,4-2.25l-5,10.75Z"/>
            <path class="cls-49" d="m73.14,63.63c.64,1.52,3.86,2.65,4,3.25-1.24.36-.78.44-1,1.25-1.56-.5-3.16-1.58-4.5-2.5-.07-1.68-.3-2.24,1.5-2Z"/>
            <path class="cls-2" d="m98.14,49.13c.21,4.66-6.72,8.51-10.75,10.5q.37-5.5.75-11c2.82.52,7.06.5,10,.5Z"/>
            <path class="cls-47" d="m97.14,78.13c-.24,0-4.03,1.33-4.75,1-1.18-.53-.6-2.35-.75-2.5l5.5,1.5Z"/>
          </g>
          <g>
            <path class="cls-26" d="m187.14,205.12c-.16.61-.92,1.48-1,2-2.74,1.5-.9-4.52-1.5-6.25-1.49-4.31-2.56,4.87-2.5,10.75-.03.02,0,.13-.5.5-1.66-5.04-5.02,1.18-11.25,5-2.03,1.24-6.03,3.58-8,4.5-.05.02-.46-.74-1-.5-2.7,1.21-4.96,3.09-8,4-3.08.93-6.58,1.32-9.75,2-3.94.85-7.99,1.54-12,2-3.99.46-7.38,1.05-11.5,1-3.98-.05-8.08-.33-12-1-2.07-.35-4.46-.95-6.5-1.5-2.09-.56-4.45-1.69-6.5-2.5-1.6-.64-3.47-1.26-5-2,1.34-1.15,12.07,3.88,6.5.75-.12-7.15,6.69-5.07,17-7.25,9.52-2.01,19.03-4.28,28.5-6.5,9.23-2.16,18.32-4.7,27.5-7,4.35-1.09,11.19-3.15,13-3.5,1.19-.23,2.33-.21,3.5-.75,1.61,3.56.94,5.94,1,6.25Z"/>
            <path class="cls-31" d="m187.64,219.62l-6.75,11.5-.5-1c-12.55,13.26-35.9,13.76-53.25,14-14.46.2-22.41.41-36.5-3.5l2.5-9.5c5.68,1.59,19.98,4.33,22,2,1.82.06,3.67,0,5.5,0,4.09-.02,7.92-.09,12-.5,4.13-.41,7.95-1.27,12-2,5.32-.96,10.75-2.64,16-4,3.45-.89,7.91-1.28,11.5-2.5,3.02-1.02,7.11-2.41,9.5-4.5,7.36-2.62,4.51-5.72,4.5-11,0-.32-.01-1.43,0-1.5.08-.52.84-1.39,1-2,1.25,6.23,1.85,6.28.5,14.5Z"/>
            <path class="cls-15" d="m173.64,261.12c.88,1.35,1.48,2.97,2,4.5.05.62-.5.46-.5.5q-6.87-6.5-13.75-13c-2.17-.18-4.15.71-6.25,1-12.3,1.7-18.28,3.27-31.75,2.5-12.72-.73-20.13-3.37-31.75-7,.46-1.94,3.94-2.57,3.5-4.5,4.69,1.05,18.66,1.36,23.75,1,2.32-.16,8.87-1.07,8.25-2,17.35-.24,40.7-.74,53.25-14l.5,1,6.75-11.5c-2.55,15.57-10.25,23.71-24,30.75-.24.69,8.8,8.91,10,10.75Z"/>
            <path class="cls-22" d="m144.64,171.63c4.84.02,9.67.29,14.5.5,7.16.32,14.33.87,21.5,1-.16,1.58.49.65.5,2.75,0,.26-3.68,3.02,2,1.75-.25,1.22-.37,5.5-1.75,6-1.38.25-2.41-.49-3.75-.5-2-.02-3.55-.27-5.5-.5-2.09-.25-3.95-.61-6-1-3.02-.58-28.74-7.32-29.75-8.5-.35-.41-.45-1.23,0-1.5,2.75-.43,5.55-.01,8.25,0Z"/>
            <path class="cls-45" d="m144.64,171.63c-2.7-.01-5.5-.43-8.25,0-.45.27-.35,1.09,0,1.5,1.01,1.18,26.73,7.92,29.75,8.5.43,2.19-1.24,2.5-.75,3,.34.35,6.48.87,7.75,1,1.87.19,4.27-.26,6,0,.75.11,3.24.51,3.5,1-2.7.17-1.39,2.81-2.25,4.5.37-8.41-3.13-4.77-3.75,3.5-.8.07-1.7.04-2.5,0-.45-.02-5.22-1.73-6.5-2-2.21-2.32-3.28-5.44-3.75-8.5-12.98-3.16-23.9-7.73-37.25-10,1.99-3.91,8.47-3.79,13-4,1.64-.08,3.89-.86,5,1.5Z"/>
            <path class="cls-36" d="m69.64,219.62l1.5-1c.3.6,5.09,3.54,6,4l-1,5.5c-4.01-1.29-6.5-6.44-7.25-6-3.03,1.77,8.7,10.83,11.25,9,3.58,2.32,8.97,2.44,3,7-7.94-2.67,7.14,5.91,12,7,.44,1.93-3.04,2.56-3.5,4.5-.24-.07-.68.04-1,0v-.5c-7.63-7.74-20.56-12.16-23.5-24.25-.28-.57-.86.54-1,.25-1.33-2.74-3.01-4.5.5-7,.1.29-.07.86,0,1.25,1.48-.87,4.71,4.91,3,.25Z"/>
            <path class="cls-40" d="m89.64,178.13c1.36,3.03,10.51.01,11,2.5-7.43-.39-15.13-.78-22.5.5-.66.11-1.4.14-2,.5-4.02,2.4-2.04,3.49-2.5,8.5-.75-.14-.38-1.63-1.5-.75.93,7.41-1.59,22.47,5,27.25,1.61,1.17,5.03,2.58,5.25,1,.29.12-.79.58,4.75,3.5-5.77-2.15-4.48-.42-4.75-.5-.26-.08-3.1-3.61-4.25-1.75-1.3,2.1,4.87,4.45,6.5,5.25-.99,2.01-5.52-.51-7.5-1.5-.91-.46-5.7-3.4-6-4-1.03-15.96-2.05-17.94-3-.75.5.58,1.22.99,1.5,1.75,1.71,4.66-1.52-1.12-3-.25-.07-.39.1-.96,0-1.25-2.32-6.51,4.32-18.74,4.5-19.75.59-3.39-.43-12.33,0-17,.38-.81,4.96-1.55,6-1.75,1.88-.37,9.89-1.26,12.5-1.5Z"/>
            <path class="cls-30" d="m182.64,199.63c-1.8.35-8.65,2.41-13,3.5v-5.5c.68-.31,3.95-2.24,4.5-3,.8.04,1.7.07,2.5,0,1.14-.11,4.56-1.82,6-2.5.12,2.49-.09,5.01,0,7.5Z"/>
            <path class="cls-40" d="m90.64,249.12c-9.93-3.26-24-12.93-24.5-24,.14.29.72-.82,1-.25,2.94,12.09,15.87,16.51,23.5,24.25Z"/>
            <path class="cls-37" d="m182.64,186.63c.06,1.83-.09,3.67,0,5.5-1.44.68-4.86,2.39-6,2.5.62-8.27,4.12-11.91,3.75-3.5.86-1.69-.45-4.33,2.25-4.5Z"/>
            <path class="cls-24" d="m177.64,183.13l1.5,2.5c-1.73-.26-4.13.19-6,0l-1-3c1.95.23,3.5.48,5.5.5Z"/>
            <path class="cls-37" d="m139.64,170.13c-4.53.21-11.01.09-13,4-2.68-.45-5.4-.57-8-1,1.24-2.16,4.14-.67,3.5-4,5.81.43,11.7.29,17.5,1Z"/>
            <path class="cls-7" d="m169.64,197.63v5.5c-9.18,2.3-18.27,4.84-27.5,7l-2-2c9.21-2.61,20.8-6.56,29.5-10.5Z"/>
            <path class="cls-23" d="m181.64,212.12c-15.29,11.21-19.96,9.63-20.75,10.5-.88.96.44,2.93-.25,4-5.25,1.36-10.68,3.04-16,4,.97-2.1-.93-1.71-1-3.5,3.17-.68,6.67-1.07,9.75-2,3.04-.91,5.3-2.79,8-4,.54-.24.95.52,1,.5,1.97-.92,5.97-3.26,8-4.5,6.23-3.81,9.59-10.04,11.25-5Z"/>
            <path class="cls-23" d="m140.14,208.12l2,2c-9.47,2.22-18.98,4.49-28.5,6.5-.42-2.31-1.87-2.04.75-3,1.68-.62,18.63-3.48,25.75-5.5Z"/>
            <path class="cls-11" d="m182.64,213.12c-6.58,5.75-16.37,8.16-10.5,11-3.59,1.22-8.05,1.6-11.5,2.5.69-1.07-.63-3.04.25-4,.79-.87,5.46.71,20.75-10.5.51-.37.47-.48.5-.5,1.13-.86,2.23-1.28,2.5-1.5.06.78-1.49,2.55-2,3Z"/>
            <path class="cls-29" d="m87.14,221.12c1.03.54,1.86,1.45,3,2,1.53.74,3.4,1.36,5,2-1.16.93-1.4,1.07-.5,2.5-3.57-.97-6.66-1.86-10-3.5-1.63-.8-7.8-3.15-6.5-5.25,1.15-1.86,3.99,1.67,4.25,1.75.27.08-1.02-1.65,4.75.5Z"/>
            <path class="cls-7" d="m143.64,227.12c.07,1.79,1.97,1.4,1,3.5-4.05.73-7.87,1.59-12,2l-1-3.5c4.01-.46,8.06-1.15,12-2Z"/>
            <path class="cls-39" d="m120.14,230.12l.5,3c-1.83,0-3.68.06-5.5,0-2.89-.1-5.62-.21-8.5-.5,1.63-1.1,1.66-1.48,1.5-3.5,3.92.67,8.02.95,12,1Z"/>
            <path class="cls-14" d="m108.14,229.12c.16,2.02.13,2.4-1.5,3.5-2.91-.29-7.67-.95-10.5-1.5l.5-2c2.02.25,3.66.1,5-1.5,2.04.55,4.43,1.15,6.5,1.5Z"/>
            <path class="cls-23" d="m131.64,229.12l1,3.5c-4.08.41-7.91.48-12,.5l-.5-3c4.12.05,7.51-.54,11.5-1Z"/>
            <path class="cls-47" d="m186.14,207.12c-.01.07,0,1.18,0,1.5-.86.16-1.42,1.43-1.5,1.5-.27.22-1.37.64-2.5,1.5-.06-5.88,1.01-15.06,2.5-10.75.6,1.73-1.24,7.75,1.5,6.25Z"/>
            <path class="cls-2" d="m101.64,227.62c-1.34,1.6-2.98,1.75-5,1.5-1.27-.15-1.88-1.47-2-1.5-.9-1.43-.66-1.57.5-2.5,2.05.81,4.41,1.94,6.5,2.5Z"/>
            <path class="cls-34" d="m84.64,224.12c3.34,1.64,6.43,2.53,10,3.5.12.03.73,1.35,2,1.5l-.5,2c-3.2-.62-9.24-3.03-9.75-3-3.3.19,5.83,2.74,6.75,3l-2.5,9.5c-2.65-.73-4.93-1.64-7.5-2.5,5.97-4.56.58-4.68-3-7-1.35-.88-3.2-1.39-4-3l1-5.5c1.98.99,6.51,3.51,7.5,1.5Z"/>
            <path class="cls-2" d="m83.14,238.12c2.57.86,4.85,1.77,7.5,2.5,14.09,3.91,22.04,3.7,36.5,3.5.62.93-5.93,1.84-8.25,2-5.09.36-19.06.05-23.75-1-4.86-1.09-19.94-9.67-12-7Z"/>
            <path class="cls-37" d="m181.64,219.62c-2.39,2.09-6.48,3.48-9.5,4.5-5.87-2.84,3.92-5.24,10.5-11,1.33,3.58,2.97,3.04-1,6.5Z"/>
            <path class="cls-36" d="m96.14,231.12c2.83.55,7.59,1.21,10.5,1.5,2.88.29,5.61.4,8.5.5-2.01,2.33-16.32-.41-22-2-.92-.26-10.05-2.81-6.75-3,.51-.03,6.55,2.38,9.75,3Z"/>
            <path class="cls-37" d="m181.64,219.62c3.97-3.46,2.33-2.92,1-6.5.51-.45,2.06-2.22,2-3,.08-.07.64-1.34,1.5-1.5.01,5.28,2.86,8.38-4.5,11Z"/>
            <path class="cls-37" d="m172.14,182.63l1,3c-1.27-.13-7.41-.65-7.75-1-.49-.5,1.18-.81.75-3,2.05.39,3.91.75,6,1Z"/>
            <path class="cls-22" d="m104.14,171.13c5.61,1.19,9.37,1.15,14.5,2,2.6.43,5.32.55,8,1,13.35,2.27,24.27,6.84,37.25,10,.47,3.06,1.54,6.18,3.75,8.5-2.22-.47-4.3-.97-6.5-1.5-6.43-1.55-12.71-3.86-19.25-5-7.46-3.08-15.77-4.48-22-8.5l-5.75-1c-4.99-2.61-10.86-1.1-16.25-1.5.63-2.71.23-3.33.25-3.5.07-.54.74-.75.5-1.5,3.7,1.26,4.73.84,5.5,1Z"/>
            <path class="cls-1" d="m71.14,218.62l-1.5,1c-.28-.76-1-1.17-1.5-1.75.95-17.19,1.97-15.21,3,.75Z"/>
            <path class="cls-32" d="m76.14,228.12c.8,1.61,2.65,2.12,4,3-2.55,1.83-14.28-7.23-11.25-9,.75-.44,3.24,4.71,7.25,6Z"/>
            <path class="cls-45" d="m114.14,176.63l5.75,1c6.23,4.02,14.54,5.42,22,8.5,6.54,1.14,12.82,3.45,19.25,5,.05.67-2.11,1.5-2.25,1.5-3.75-.04-29.39-7.92-34.75-10-6.74-2.62-5.26-4.01-7.25-4.5-3.98.36-15.77-1.5-8.25,3-2.72-.28-5.28-.36-8-.5-.49-2.49-9.64.53-11-2.5,8.77-.81,16.55.28,22-1.5.81.09,1.68-.06,2.5,0Z"/>
            <path class="cls-36" d="m78.14,181.13c-.69,4.53.51,10.96-2,14.75l1,20.75c-6.59-4.78-4.07-19.84-5-27.25,1.12-.88.75.61,1.5.75.12.02.81,1.49,2.5-.25v-8.25c.6-.36,1.34-.39,2-.5Z"/>
            <path class="cls-36" d="m76.14,181.63v8.25c-1.69,1.74-2.38.27-2.5.25.46-5.01-1.52-6.1,2.5-8.5Z"/>
            <g>
              <path class="cls-19" d="m100.64,180.63c2.72.14,5.27.22,8,.5,10.07,1.05,16.48,4.55,15.5,1.5,5.36,2.08,31,9.96,34.75,10,.14,0,2.3-.83,2.25-1.5,2.2.53,4.28,1.03,6.5,1.5,1.28.27,6.05,1.98,6.5,2-.55.76-3.82,2.69-4.5,3-8.7,3.94-20.29,7.89-29.5,10.5-7.12,2.02-24.07,4.88-25.75,5.5-2.62.96-1.17.69-.75,3-10.31,2.18-17.12.1-17,7.25,5.57,3.13-5.15-1.9-6.5-.75-1.14-.55-1.97-1.46-3-2-5.54-2.92-4.46-3.38-4.75-3.5-.22,1.58-3.64.17-5.25-1l-1-20.75c2.51-3.79,1.31-10.22,2-14.75,7.37-1.28,15.07-.89,22.5-.5Z"/>
              <path class="cls-34" d="m78.89,195.13c1.06,2.12-1.25,6.86,1.75,4.25q-.12,6.12-.25,12.25c-2.73-.4-2.36-16.5-1.5-16.5Z"/>
              <path class="cls-21" d="m101.89,214.12c3.53.69-1.12,2.34-5.75,1.75.6-.49,5.45-1.81,5.75-1.75Z"/>
              <path class="cls-34" d="m78.89,211.62c.92-.66,2.05,3.53.5,3.5-.31,0-1.3-2.92-.5-3.5Z"/>
            </g>
          </g>
          <path class="cls-38" d="m90.64,106.13c-.01-.83.02-1.67,0-2.5,1.33.41,1.48,1.97,0,2.5Z"/>
        </g>
      </g>
    </g>
  </g>
</svg>