<?xml version="1.0" encoding="UTF-8"?>
<svg id="_Шар_2" data-name="Шар 2" xmlns="http://www.w3.org/2000/svg" xmlns:xlink="http://www.w3.org/1999/xlink" viewBox="0 0 408.51 316.95">
  <defs>
    <style>
      .cls-1 {
        fill: #703f22;
      }

      .cls-1, .cls-2, .cls-3, .cls-4, .cls-5, .cls-6, .cls-7, .cls-8, .cls-9, .cls-10, .cls-11, .cls-12, .cls-13, .cls-14, .cls-15, .cls-16, .cls-17, .cls-18, .cls-19, .cls-20, .cls-21, .cls-22, .cls-23, .cls-24, .cls-25, .cls-26, .cls-27, .cls-28, .cls-29, .cls-30, .cls-31, .cls-32, .cls-33, .cls-34, .cls-35, .cls-36, .cls-37, .cls-38, .cls-39, .cls-40, .cls-41, .cls-42, .cls-43, .cls-44, .cls-45, .cls-46, .cls-47, .cls-48, .cls-49, .cls-50, .cls-51, .cls-52, .cls-53, .cls-54, .cls-55, .cls-56 {
        stroke-width: 0px;
      }

      .cls-2 {
        fill: #150301;
      }

      .cls-3 {
        fill: #342416;
      }

      .cls-4 {
        fill: #fbfbfa;
      }

      .cls-5 {
        fill: #848484;
      }

      .cls-6 {
        fill: #8a725b;
      }

      .cls-7 {
        fill: #736758;
      }

      .cls-8 {
        fill: #68311c;
      }

      .cls-9 {
        fill: url(#_Градієнт_без_назви_76);
      }

      .cls-10 {
        fill: #594e43;
      }

      .cls-11 {
        fill: #ada196;
      }

      .cls-12 {
        fill: #a4a6a7;
      }

      .cls-13 {
        fill: #b18057;
      }

      .cls-14 {
        fill: #959398;
      }

      .cls-15 {
        fill: #886751;
      }

      .cls-16 {
        fill: #b6af9b;
      }

      .cls-17 {
        fill: #80563d;
      }

      .cls-18 {
        fill: #44281b;
      }

      .cls-19 {
        fill: #a07f6a;
      }

      .cls-20 {
        fill: #bd9e91;
      }

      .cls-21 {
        fill: #d0925f;
      }

      .cls-22 {
        fill: #d2b09d;
      }

      .cls-23 {
        fill: #8e8274;
      }

      .cls-24 {
        fill: #807165;
      }

      .cls-25 {
        fill: #61412b;
      }

      .cls-26 {
        fill: url(#_Градієнт_без_назви_75);
      }

      .cls-27 {
        fill: #e8e3e1;
      }

      .cls-28 {
        fill: #966845;
      }

      .cls-29 {
        fill: #f1d6b9;
      }

      .cls-30 {
        fill: #64645e;
      }

      .cls-31 {
        fill: #241205;
      }

      .cls-32 {
        fill: #504431;
      }

      .cls-33 {
        fill: #0d0a07;
      }

      .cls-34 {
        fill: #433028;
      }

      .cls-35 {
        fill: #ad7241;
      }

      .cls-36 {
        fill: #7d796c;
      }

      .cls-37 {
        fill: #48200c;
      }

      .cls-38 {
        fill: #9a948a;
      }

      .cls-39 {
        fill: #331302;
      }

      .cls-40 {
        fill: #585650;
      }

      .cls-41 {
        fill: #bcbcbc;
      }

      .cls-42 {
        fill: #d0c1b8;
      }

      .cls-43 {
        fill: #c4ae9a;
      }

      .cls-44 {
        fill: #29211e;
      }

      .cls-45 {
        fill: #1e1f22;
      }

      .cls-46 {
        fill: #d3d5d4;
      }

      .cls-47 {
        fill: #fff3e5;
      }

      .cls-48 {
        fill: #2d0701;
      }

      .cls-49 {
        fill: #5d5b45;
      }

      .cls-50 {
        fill: #874b25;
      }

      .cls-51 {
        fill: #5a5b5d;
      }

      .cls-52 {
        fill: #c59071;
      }

      .cls-53 {
        fill: #9e8a71;
      }

      .cls-54 {
        fill: #daaf8a;
      }

      .cls-55 {
        fill: #727473;
      }

      .cls-56 {
        fill: url(#_Градієнт_без_назви_77);
      }
    </style>
    <linearGradient id="_Градієнт_без_назви_75" data-name="Градієнт без назви 75" x1="209.61" y1="205.26" x2="213.53" y2="222.29" gradientUnits="userSpaceOnUse">
      <stop offset="0" stop-color="#80756a"/>
      <stop offset="1" stop-color="#61574f"/>
    </linearGradient>
    <linearGradient id="_Градієнт_без_назви_76" data-name="Градієнт без назви 76" x1="226.47" y1="164.88" x2="246.2" y2="190.02" gradientUnits="userSpaceOnUse">
      <stop offset="0" stop-color="#8d847b"/>
      <stop offset="1" stop-color="#554c43"/>
    </linearGradient>
    <linearGradient id="_Градієнт_без_назви_77" data-name="Градієнт без назви 77" x1="134" y1="198.13" x2="136.69" y2="235.99" gradientUnits="userSpaceOnUse">
      <stop offset="0" stop-color="#0e0604"/>
      <stop offset="1" stop-color="#341508"/>
    </linearGradient>
  </defs>
  <g id="_Шар_1-2" data-name="Шар 1">
    <g>
      <g>
        <g>
          <path class="cls-4" d="m333.76,7.55c-2.61,2.16-6.23,7.28-9.49,9.49.44-.62,5.76-12.84,9.49-9.49Z"/>
          <path class="cls-4" d="m349.24,12.04c1.28-3.57,2.73-7.1,2.5-10.99.66.15.31-1.32,1.25-1l.75,1.25c-.31,8.85-2.95,8.51-4.5,10.74Z"/>
          <g>
            <path class="cls-45" d="m264.33,83.47c4.51-4.65,8.98-9.34,13.49-13.99,12.7-13.11,25.59-26.03,37.96-39.46,2.75.31,4.71-1.57,4,1.25-.65,2.55-33.96,31.23-37.21,37.21-3.07,1.11-16.76,16.53-17.98,16.48-.4-.02-.23-1.12-.25-1.5Z"/>
            <path class="cls-33" d="m205.89,149.9c-3.92,2.88-7.04,7.09-10.49,10.49-.16-.09.43.97-3-1,3.15-4.58,7.34-8.34,10.99-12.49-.16,2.27,2.98.25,2.5,3Z"/>
            <g>
              <path class="cls-33" d="m351.74,1.06c.23,3.89-1.21,7.41-2.5,10.99-5.79,8.37-19.05,24.25-29.22,25.47-12.13,10.74-23.73,22.05-35.21,33.46-1.51,1.5-2.99,2.99-4.5,4.5-4.39,4.4-5.56,5.3-9.99,10.49-1.68,1.97-3.9,3.58-4.99,5.99-3.36,4.21.93,4.14-1.75,4.99-.48.15-1.69-2.68-7.24,5.49h-.5c.39-2.42,2.95-4.14,4.5-5.74l-.75-.75c-2.28,3.55-18.54,18.06-19.23,19.23-.06.1.37,1.26-.25,2.25,2,.14,3.92,1.56,5.74,2l-.5.5c-8.47-3.26-6.28-1.73-10.99,2.5-4.09,3.67-8.37,7.51-11.49,11.99-2.15,1.82-6.37,3.97-4.74,6.99-4.51-1.47-4.48.77-4.74,1-.63.55-4.54,4.78-4.5,5.24,3.37,4.15,6.2,8.7,8.99,13.24l-.5.5c-2.75-4.27-5.89-8.35-8.49-12.74l-.75-.75c-.68.78-1.41,1.39-2.25,2,.48-2.74-2.66-.73-2.5-3,1.75-1.99,1.4-2.39,1.5-2.5.02-.03.19-.15.5-.5.59-.67,1.35-1.28,2-2,1.19-1.31,2.31-2.69,3.5-4,.3-.32.66-.63,1-1,3.57-3.9,7.42-7.21,10.99-10.99l.25,1.5,38.71-38.71c-2.04-1.34.69-1.82-.5-2.25.99-1.02,2.02-1.99,3-3,.02.38-.15,1.48.25,1.5,1.22.05,14.91-15.37,17.98-16.48,3.25-5.98,36.56-34.66,37.21-37.21.71-2.82-1.24-.93-4-1.25,1.57-5.02,5.49-8.77,8.49-12.99,3.26-2.21,6.88-7.33,9.49-9.49,5.3-4.4,10.58-8.05,17.73-7.49.41.03.2.99.25,1Z"/>
              <path class="cls-4" d="m335.75,24.03c-1.16-1.47,4.81-5.77,4-7.24-2.85-.63-10.24,4.69-4.99,4.99-1.6,5.38-5.87.7-9.49,5.99-.37.54,2.1,1.56-3,5.24-7.13-6.43,19.14-27.36,22.73-26.47,7.06,1.75-7.18,15.38-9.24,17.48Z"/>
              <path class="cls-46" d="m335.75,24.03c-2.56,2.61-9.96,12.17-13.49,8.99,5.1-3.68,2.63-4.7,3-5.24,3.62-5.3,7.89-.61,9.49-5.99-5.25-.31,2.14-5.62,4.99-4.99.82,1.47-5.16,5.77-4,7.24Z"/>
              <path class="cls-14" d="m280.81,75.98c-.84,1.48-2.28,2.39-3.5,3.5-2,1.81-3.23,3.62-4.99,5.49-1.18-.03-1.14.68-2,1,4.43-5.19,5.6-6.09,9.99-10.49-.05.61.43.46.5.5Z"/>
              <path class="cls-18" d="m272.32,84.97c-2.13,2.27-6.56,6.45-6.99,6.99,1.09-2.41,3.32-4.03,4.99-5.99.86-.32.82-1.03,2-1Z"/>
            </g>
          </g>
        </g>
        <g>
          <path class="cls-4" d="m383.7,197.35c-6.94-4.91-14.59-8.4-22.48-11.49-2.18-.85-4.23-1.8-6.49-2.5-16.28-5.06-12.54-1.84-13.24-2-.57-.13-3.6-6.3-9.74-3-.3.16-.71.32-1,.5.14-4.05-5.88-2.49-8.74-3-2.24-.4-9.62-3.85-10.24,0-.41.05-.49-.11-.5-.5-.05-1.6.62-1.66.25-2-.4-.36-9.2-1.15-10.74-1-1.01-2.21.22-1.52-.25-2-.26-.27-6.38-1.5-7.24-1.5-8.29.02,4.98,1.28-5.99,4-.48-1.82,4.58-6.87,5.49-9.49,8.74.61,7.34-7.57,7.99-8.74.78-1.38,5.57-5.86,6.99-10.49.84-2.71,3.04-19.8-.5-20.48,2.68-2.25-3.77-19.32-4.74-19.73-1.11-.46-4.81,2.72-5.24,1.75,4.26-6.72,4.57-10.72-4-11.74-.38-1.48,1.8-.73,2-1.75.13-.65-6.32-9.96-9.49-6.99,1.98-1.25.2-2.43-.5-3.75-.9-1.7-2.92-4.44-4.5-5.49-.07-.04-.55.11-.5-.5,1.5-1.51,2.99-3,4.5-4.5-3.31,3.77,1.52,4.28,5.99,9.74,22.58,27.57,30.55,56.12,6.99,86.41,19.98,5.24,40.65,7.35,60.19,14.23,5.66,1.99,28.44,10.51,25.72,15.98Z"/>
          <path class="cls-17" d="m43.06,180.37c-6.15,24.07-13.96,19.41-5.49,41.46,3.94,10.26,9.66,19.77,16.98,27.97.11.12-.49.04,2,2.5.35.34.62.65,1,1,2.38,2.21,8.36,6.92,10.99,8.49l.75,1.5c-9.21-.9-11.96-8.39-13.24-5.49-4.24-4.15-3.19-1.46-4.74-1.5-1.29-2.4,4.3-2.73-5.49-3-1.3-1.43,1.85-3.18,1.75-3.75-.06-.31-2.12-.95-4.99-3.75,3.15-.05,1.89-.36,2-1.5.25-2.56-12.29-18.57-14.48-30.97-.24-1.38,1.36-.6,1-2.25-2.91-1.22,1.45-6.14,1.5-14.48.56-1.66,9.19-12.61,8.99-15.23.43-.29.17-.41,1.5-1Z"/>
          <path class="cls-15" d="m119.98,133.92c-1.28.78-2.73,1.21-4,2-1.61-1.79-7.97,4.62-11.74,5.99q-7.24,6.74-14.48,13.49c-2.61.41-34.12,12.72-29.22,14.98-.38-.16-1.12-.42-1.5-.5-.05-.01.14-1.05-.25-1-.15.02-1.46,1.51-2.25,2-6.77,4.19-5.46,2.33-5.74,2.5-1.24.75-1.86,2.41-2,2.5-3.33,2.16-8.04,3.62-9.74,7.49-1.88,1.39-2.3,2.07-1.5-1.75,1.66-7.95,16.48-11.07,20.73-17.23-9.05,5.47-20.12,8.11-23.72,18.98-.81-1.7-3.6,3.01-4,4,4.28-14.82,20.07-20.14,32.72-25.47.08-.04,1.22.81,1.5,1,6.02-5.23,20.9-8.65,26.47-11.99,4.5-2.7,14.62-14.91,25.22-18.98.09,2.66,4.22-.48,3.5,2Z"/>
          <path class="cls-4" d="m403.68,257.78c-.79,1.31-1.93,1.39-2,1.5,1.12-2.73,1.39-5.15,1.5-5.49.36-1.1,1.62-2.82,2-5.24.23-1.46-.08-3.91,0-5.74.1-2.45.21-2.83,0-5.49-.26-3.38-.77-6.44-1.5-9.74-1.11-3.28-1.91-3.55-2-3.75-1.72-5.35-2.18-5.48-4.99-9.99-1.98-3.16-3.33-4.26-3.5-4.5-1.18-1.64-2.27-3.65-3.5-5.24-2.27-2.96-5.19-3.51-5.49-6.74-.46-4.85,1.68-2.32,7.49,4.74,12.58,15.29,23.41,36.65,11.99,55.69Z"/>
          <path class="cls-15" d="m29.58,213.33c-1.14,9.05,8.94,23.86,14.98,30.97-.11,1.14,1.15,1.45-2,1.5-2.05-2-2.75-2.93-4.5-4.99l1-.25c-3.09-4.62-4.87-10.03-9.49-13.24-.04-.13-.42.74-1-2.5-.83-4.61-.04-8.48-2.5-8.99.03-4.04-.71-5.18,3.5-2.5Z"/>
          <path class="cls-17" d="m383.7,197.35h.5c.31,3.23,3.23,3.79,5.49,6.74,1.22,1.59,2.31,3.6,3.5,5.24l-1.5,2.5c-.56-.86-2.83-4.28-3-4.5,1.79-1.95-1.17-4.78-3-3.5-2.98-3.13-7.01-5.91-10.49-8.49-4.8-3.56-3.5-3.83-3.75-4-2.27-1.54-8.86-2.65-10.24-5.49,7.89,3.09,15.54,6.57,22.48,11.49Z"/>
          <path class="cls-18" d="m43.06,180.37c-1.33.59-1.07.7-1.5,1-.9.62-1.62,1.35-2.5,2,1.7-3.88,6.41-5.34,9.74-7.49.13-.09.76-1.74,2-2.5.28-.17-1.03,1.69,5.74-2.5-2.94,6-7.98,10.46-12.24,15.48l1.25-6.74c-1.17-.83-1.66.38-2.5.75Z"/>
          <path class="cls-4" d="m30.08,213.33c2.2,12.4,14.73,28.41,14.48,30.97-6.04-7.11-16.12-21.92-14.98-30.97h.5Z"/>
          <path class="cls-17" d="m34.57,184.86c-1.79,5.63-3.7,13.4-3.5,19.23h-3c.74,9.61-3.4,5.73,1.5-11.74,1.95.66,2.04-5.82,4.99-7.49Z"/>
          <path class="cls-43" d="m34.57,183.36c-.13.39.13,1.1,0,1.5-2.96,1.67-3.04,8.15-4.99,7.49.41-1.48.04-2.61,1-4.99.39-.99,3.18-5.7,4-4Z"/>
          <path class="cls-37" d="m28.58,224.82c-.57-.05-.8-.53-1-1-.92-2.16-1.52-5.63-1.5-7.99,2.45.51,1.67,4.38,2.5,8.99Z"/>
          <path class="cls-31" d="m403.18,253.79c-.11.34-.38,2.76-1.5,5.49-.3.48-.68,1-1,1.5-1.14,1.89-3.99-1.02-4-1.75,0-.49,6.03-8.4,6.49-5.24Z"/>
          <path class="cls-15" d="m71.53,169.38c-4.19-.96-5.91,1.88-6.24,2-.28.1-.22-1.11-.5-1-4.58,1.82-6.69,4.1-10.74,6.49,1.19-2.56,2.71-5.22,4.99-6.99.38.08,1.12.34,1.5.5.2.09-1.16,1.12.25,1,5.96-2.66,18.89-8.9,24.97-8.99,11.22-.17-10.81,5.63-14.23,6.99Z"/>
          <path class="cls-18" d="m71.53,169.38c-6.25,2.49-12.41,5.61-18.23,8.99-.87-.92.71-1.42.75-1.5,4.04-2.39,6.16-4.67,10.74-6.49.28-.11.22,1.1.5,1,.33-.12,2.05-2.95,6.24-2Z"/>
          <path class="cls-18" d="m330.76,178.87c.29-.18.7-.34,1-.5,3.1,3.61,9.45-1.56,6.24,4.99,7.76.78,2.32-2.15,5.99-2,2.26.1,8.92,3.92,10.74,2,2.26.7,4.31,1.64,6.49,2.5,1.38,2.84,7.97,3.95,10.24,5.49.24.17-1.05.43,3.75,4-6.96-3.11-25.34-12.43-31.97-9.49-.19.08-1.15-.24-1.5,1-11.06-5.14-29.37-8.53-29.97-9.99h8.74c-.99,4.06,5.93,1.47,8.49,4,1.22.15,1.42-1.79,1.75-2Z"/>
          <path class="cls-53" d="m330.76,178.87c-.33.2-.53,2.14-1.75,2-2.56-2.52-9.48.06-8.49-4h-8.74c-.06-.14-.04-.73,0-1,.62-3.85,8-.4,10.24,0,2.86.5,8.88-1.05,8.74,3Z"/>
          <path class="cls-11" d="m300.79,172.37c.43.94.15,1.56,1.5,1.75.07,1.43-4.62-.74-5.49.75-1.91-.22-4.11-.2-5.99-.5l2.5-5.49c.87,0,6.99,1.23,7.24,1.5.47.48-.76-.21.25,2Z"/>
          <path class="cls-16" d="m354.73,183.36c-1.82,1.93-8.48-1.9-10.74-2-3.67-.16,1.77,2.78-5.99,2,3.2-6.55-3.15-1.38-6.24-4.99,6.14-3.3,9.17,2.86,9.74,3,.69.16-3.04-3.06,13.24,2Z"/>
          <path class="cls-34" d="m311.28,175.37c-.34,2.19-7.85.27-14.48-.5.88-1.49,5.57.68,5.49-.75-1.34-.19-1.07-.81-1.5-1.75,1.53-.15,10.34.64,10.74,1,.37.33-.3.4-.25,2Z"/>
          <path class="cls-18" d="m293.3,168.88l-2.5,5.49c-1.1-.17-2.49-.29-3.5-.5-.03-.32.07-.73,0-1,10.97-2.71-2.3-3.98,5.99-4Z"/>
          <path class="cls-18" d="m68.54,261.78c6.37,3.79,13.67,6.15,20.48,8.99-1.8,3.25-15.21-7.51-15.98-1-11.67-4.94-7.11-7.5-21.98-7.99-.13,0-1.08-1.67-2.5-.5.07-.82-.89.09-2.5.5l-.5-1,.5-.5c8.86-2.87,15.76,3.15,9.99-2.5,1.28-2.89,4.03,4.6,13.24,5.49l-.75-1.5Z"/>
          <path class="cls-4" d="m38.07,240.8c1.75,2.06,2.44,2.99,4.5,4.99,2.87,2.8,4.94,3.44,4.99,3.75.1.57-3.04,2.31-1.75,3.75,9.8.27,4.21.6,5.49,3,1.55.04.5-2.66,4.74,1.5,5.77,5.65-1.13-.37-9.99,2.5-2.95-.38-.76-8.19-1.5-10.74-.18-.62-6.04-4.89-8.99-8.99-1.77-2.46-2.67-5.89-3.5-7.24,1.81,2.67,3.91,5.04,5.99,7.49Z"/>
          <path class="cls-6" d="m396.69,213.83l3.5,8.74c.64.18,1.46,1.16,1.5,1.25,1.44,4.47,1.88,9.1,3.5,13.49.21,2.67.1,3.05,0,5.49-2.35,2.2-5.61,14.34-8.99,11.49,1.51-8.05-4.71-13.97,2.5-8.49,2.02-5.82-.3-10.76-1.5-16.23-.79-1.53-2.39-2.6-2.5-2.75-.02-.03-.12.03-.5-.5l2-.5c2.57,3.55,5.19,7.91,4.5,4.74-.99-4.53-6.26-14.57-8.99-18.73l1.5-2.5c.17.23,1.52,1.33,3.5,4.5Z"/>
          <path class="cls-18" d="m405.18,237.31c-1.61-4.38-2.06-9.02-3.5-13.49.08.2.89.46,2,3.75.73,3.3,1.23,6.35,1.5,9.74Z"/>
          <path class="cls-18" d="m401.68,223.82c-.04-.09-.86-1.06-1.5-1.25l-3.5-8.74c2.82,4.51,3.27,4.64,4.99,9.99Z"/>
          <path class="cls-37" d="m38.07,240.8c-2.08-2.46-4.18-4.82-5.99-7.49-.76-1.24-.65-1.87-2-3-.48-.86-.23-2.2-.5-3,4.62,3.2,6.4,8.62,9.49,13.24l-1,.25Z"/>
          <path class="cls-4" d="m375.21,195.35c3.47,2.58,7.51,5.36,10.49,8.49.52.55,2.47,2.83,3,3.5.17.21,2.43,3.63,3,4.5,2.73,4.16,8,14.2,8.99,18.73.69,3.16-1.93-1.19-4.5-4.74-.18-.25.53-.71.5-.75-.71-.96-12.22-14.06-12.99-14.73-4.49-10.82-23.08-15.44-31.72-21.98l-.25,2.5c-2.89-1.56-6-2.77-8.49-4.99,6.62-2.94,25.01,6.38,31.97,9.49Z"/>
          <path class="cls-39" d="m388.7,207.34c-.53-.67-2.48-2.95-3-3.5,1.83-1.28,4.79,1.55,3,3.5Z"/>
          <path class="cls-17" d="m89.01,270.77c22.47,9.38,31.1,11.74,54.44,16.98.1.02.95,1.38,2,0,23.81,3.59,47.2,9.42,70.93,13.49,14.22,2.44,26.96,4.99,41.46,5.99,1.96.14,4.07.41,5.99.5l.5,1.5c-1.37.46-1.65.4-3,.5-8.14.58-9.86-2.31-11.99,1.5-.33,0-.67,0-1,0-.93,0-.1.13-1,.5.21-1.23-.95-1.43-1-1.5-.13-.18.14-1.15,0-1.25-1.56-1.07-11.35-1.75-14.23-1.75-1.35-2.29-8.41-2.86-12.49-3.5-.29-.05.14,1.28-1.5,1-.29-.05-1.21-1.45-1.5-1.5-.23-.04-.9,1.23-4,.5-.62-.15-.77-1.45-1-1.5-1.23-.28-4.98.39-8.49-2.5-7.21,1.39-14.22-2.73-21.48-1.5-3.05-.89-7.09-3.43-9.99-4-17.36-3.38-34.96-5.45-52.19-9.49-1.16-.18-.95.47-1,.5-.35.04-.81-.07-1,0-3.74-4.68-10.62-4.35-11.24-4.5-1.96-.46-3.45-3.61-4.99-.5.42-3.27-.4-1.22-.75-1.5-.03-.02.15-.13-.5-.5-1.66-.94-11.22-4.14-12.49-4-.5.06-.56.53-1,.5.85-1.62-7.15-4.05-8.49-3.5-1.55-.97-3.04-.91-4.5-1.5-.14-.06-.36.06-.5,0,.77-6.51,14.18,4.25,15.98,1Z"/>
          <path class="cls-31" d="m100,278.26c-2.72,4.06.02,4.88.5.5.35.28,1.17-1.78.75,1.5,1.54-3.11,3.04.04,4.99.5.62.14,7.5-.18,11.24,4.5-.77.3-2.41,1.97-3.25,2-2.16.07-16.28-5.31-19.73-6.49-2.69-.92-5.32-2.04-7.99-3l1-.5c2.44,2.16,2.01.21,0-3,1.27-.15,10.83,3.06,12.49,4Z"/>
          <path class="cls-31" d="m119.48,284.76c12.37,4.24,8.49,4.73,8.99,4.99-1.13.26-1.89.85-3,1-2.64-.81-5.57-1.22-8.24-2-1.36-.13.81-3.22,1.25-3.5.05-.03-.16-.68,1-.5Z"/>
          <path class="cls-1" d="m280.81,310.23l1-.25c-1.76-.35-1.6-.4-1.5-2.25,20.62-.41,41.81-2.65,60.94-10.49,6.15-1.74,15.58-5.56,16.23-4,3.18-2.91,6.75-5.47,10.24-7.99,12.62-4.72,23.63-21.44,24.97-22.48.25-.19.7.52.75.5.09-.05.78-1.5,1.5-1.5,3.69,0-8.82,13.49-10.49,14.98-4.55,4.08-10.13,6.56-14.98,9.99-.16.11-.32,1.5-2.5,3-.13.09-2.67.77-3,1-5.99,4.25-5.5,7.14-7.49,3.5-7.54,4.61-17.3,5.98-26.47,8.49l.75.75c-3.33,3.54-5.25,4.89-10.24,2.75-2.62,3.59-7.05,3.67-10.99,4.5,1.23-3.04-10.88.77-17.98-1.5-4.03.17-9.84,3.46-10.74,1Z"/>
          <path class="cls-4" d="m383.7,210.33c-2.4-2.09-5.24-4.49-8.49-4.74,7.01,6.1,13.56,13.17,18.98,20.73.38.53.48.47.5.5,2.15,6.18,4.66,12.27,4,18.98-7.21-5.48-.99.44-2.5,8.49-.45,2.38-1.02,5.68-3.5,4.99,2.28-7.21,1-13.75-1.5-20.48,4.65,3.57-2.96-12.72-5.49-17.23-2.81-5-6.5-10.1-10.49-14.23-4.04-4.19-8.66-7.3-13.49-10.49-3.51-2.32-6.29-3.99-9.99-5.99l.25-2.5c8.64,6.53,27.23,11.16,31.72,21.98Z"/>
          <path class="cls-25" d="m280.31,307.73c-.1,1.84-.26,1.9,1.5,2.25l-1,.25-7.49.5c-4.75-.69-11.62,1.36-11.99-1,1.35-.1,1.63-.03,3-.5,1.33-.45,1.11-.35,2-1.5,4.63.13,9.35.09,13.99,0Z"/>
          <g>
            <path class="cls-33" d="m405.18,242.8c-.08,1.83.23,4.29,0,5.74-.38,2.43-1.64,4.15-2,5.24-.46-3.15-6.5,4.75-6.49,5.24,0,.73,2.85,3.64,4,1.75-11.71,18.19-23.12,29.52-42.95,38.96-9.6,4.57-19.71,7.77-29.97,10.49-26.7,7.07-51.92,8.24-79.42,4.99,2.07.13,14.03.7,14.73.5,5.49-1.56-4.19-1.3-4.5-1.5-4.82-3.17,17.21-1.69,20.98-2-7.39-.53-5.89-1.45-6.24-1.5l7.49-.5c.9,2.46,6.71-.83,10.74-1,7.11,2.27,19.21-1.54,17.98,1.5,3.94-.82,8.37-.91,10.99-4.5,4.99,2.15,6.91.79,10.24-2.75l-.75-.75c9.17-2.51,18.93-3.88,26.47-8.49,1.99,3.64,1.5.76,7.49-3.5.32-.23,2.87-.91,3-1,2.17-1.5,2.34-2.88,2.5-3,4.85-3.43,10.44-5.91,14.98-9.99,1.66-1.49,14.18-14.98,10.49-14.98-.71,0-1.4,1.45-1.5,1.5-.05.02-.5-.69-.75-.5l-.5-2c.16-.39.36-1.06.5-1.5,2.47.69,3.05-2.62,3.5-4.99,3.38,2.85,6.64-9.29,8.99-11.49Z"/>
            <path class="cls-41" d="m292.55,313.73c.89.26-.34,2.58-.75,1.75-.35-.7.58-1.8.75-1.75Z"/>
          </g>
          <g>
            <path class="cls-33" d="m246.35,310.23c.59,4.14.78,1.59,1,1.5.89-.37.06-.49,1-.5.17,2.71.36,1.14,1,0,2.13-3.81,3.85-.92,11.99-1.5.36,2.36,7.24.3,11.99,1,.35.05-1.14.97,6.24,1.5-3.77.31-25.8-1.17-20.98,2,.3.2,9.98-.06,4.5,1.5-.71.2-12.66-.37-14.73-.5-15.73-.99-37.05-6.31-53.44-9.49-10.18-1.98-20.11-4.86-30.22-6.99-14.86-3.13-21.63-2.57-39.21-7.99,1.11-.15,1.86-.74,3-1,.1-.02.89,1.15,2,.25-.09-1.71-1.83-.16-2-.25-.5-.26,3.38-.75-8.99-4.99,17.24,4.04,34.84,6.11,52.19,9.49,2.9.56,6.94,3.1,9.99,4,7.26-1.23,14.26,2.89,21.48,1.5,3.52,2.88,7.27,2.21,8.49,2.5.23.05.38,1.35,1,1.5,3.09.73,3.76-.54,4-.5.29.05,1.21,1.45,1.5,1.5,1.64.28,1.21-1.04,1.5-1,4.08.64,11.14,1.2,12.49,3.5,2.89,0,12.67.68,14.23,1.75.14.1-.13,1.07,0,1.25Z"/>
            <g>
              <path class="cls-30" d="m155.94,294.75v.5c-4.44-.97-22.6-3.14-15.23-3.5,1.62-.08,12.51,2.34,15.23,3Z"/>
              <path class="cls-12" d="m155.94,295.24v-.5c3.32.8,7.17.71,9.99,3.25-.3.91-8.98-2.53-9.99-2.75Z"/>
              <path class="cls-11" d="m128.47,289.75c.17.09,1.91-1.46,2,.25-1.11.9-1.9-.27-2-.25Z"/>
              <path class="cls-38" d="m247.35,311.73c-.21.09-.41,2.64-1-1.5.05.07,1.21.27,1,1.5Z"/>
              <path class="cls-30" d="m135.22,291.25c.11-.05,2.25.63,2.25.75-.04.8-3.99,0-2.25-.75Z"/>
              <path class="cls-38" d="m249.35,311.23c-.64,1.14-.83,2.71-1,0,.33,0,.67,0,1,0Z"/>
            </g>
          </g>
          <path class="cls-30" d="m343.25,185.86c2.5,2.22,5.6,3.43,8.49,4.99,3.69,2,6.48,3.68,9.99,5.99l-1,1c-.6-.41-1.38-.6-2-1-3.57-2.34-13.74-8.48-16.98-9.99.35-1.24,1.31-.91,1.5-1Z"/>
          <path class="cls-41" d="m383.7,210.33c.77.67,12.28,13.78,12.99,14.73.03.04-.68.5-.5.75l-2,.5c-5.42-7.56-11.97-14.63-18.98-20.73,3.25.26,6.09,2.65,8.49,4.74Z"/>
          <path class="cls-34" d="m398.69,245.8c.67-6.71-1.85-12.8-4-18.98.11.15,1.7,1.21,2.5,2.75,1.2,5.48,3.52,10.41,1.5,16.23Z"/>
          <path class="cls-41" d="m341.25,297.24c-19.13,7.84-40.32,10.08-60.94,10.49-4.63.09-9.36.13-13.99,0-.08,0-.98-.99-1.25-1-1.89-.07-1.17,1-1.25,1-1.92-.08-4.03-.36-5.99-.5,7.92-2.59,16.85.42,25.22,0,19.83-1.04,39.09-4.58,58.19-9.99Z"/>
          <path class="cls-2" d="m86.52,274.77v.5c-3.98-3.47-8.38.6-9.49-3.5,2.08.55,3.49,1.06,1-.5,1.34-.56,9.34,1.88,8.49,3.5Z"/>
          <path class="cls-27" d="m78.03,271.27c2.49,1.56,1.08,1.05-1,.5-1.38-.37-2.74-.56-3.5-2,1.45.59,2.95.53,4.5,1.5Z"/>
          <path class="cls-4" d="m87.52,277.26c-.56-.5-.24-1.33-1-2v-.5c.44.03.5-.44,1-.5,2.01,3.21,2.44,5.16,0,3Z"/>
          <path class="cls-4" d="m266.33,307.73c-.88,1.14-.67,1.05-2,1.5l-.5-1.5c.08,0-.64-1.07,1.25-1,.27,0,1.17,1,1.25,1Z"/>
          <path class="cls-47" d="m100.5,278.76c-.48,4.38-3.21,3.56-.5-.5.65.37.47.48.5.5Z"/>
          <path class="cls-41" d="m375.21,207.34c3.99,4.14,7.67,9.23,10.49,14.23,2.54,4.51,10.15,20.8,5.49,17.23-.04-.12-.65.14-1.5-2-2.04-5.17-2.62-7.24-5.49-12.49-2.28-4.17-7.02-12.13-9.99-15.48l1-1.5Z"/>
          <path class="cls-40" d="m375.21,207.34l-1,1.5c-3.44-3.9-9.15-8.04-13.49-10.99l1-1c4.82,3.19,9.45,6.3,13.49,10.49Z"/>
          <g>
            <path class="cls-4" d="m246.35,57c-2.23-.13-3.16.66-3.75.5-2.42-3.46-4.26-2.72-5.24-3-5.93-1.68-12.83-1.23-18.98-.5-2.02.24-1.42.49-1.5.5-11.98,1.82-12.86,3.18-21.98,9.99-1.12.84-2.35,1.66-3.5,2.5,9.14-13.43,27.77-18.56,43.2-15.98,2.45.41,13.3,3.86,11.74,5.99Z"/>
            <path class="cls-37" d="m246.35,57c.5.03,1-.04,1.5,0,1.9.58,2.63,1.71,3,2-5.56-2.81-12.2,1.5-10.49,4.25,1.68,2.69,5.42,1.38,7.74.75.36-.1,4.74,1.35,3.75-4,.53.3,1,.66,1.5,1-.13,2.55-2.95,5.42-4.99,6.99-2.47-1.21-8.53-3.84-10.99-4.5,3.83-4.67,6.76-5.73,0-8.99.98.28,2.83-.47,5.24,3,.59.16,1.52-.63,3.75-.5Z"/>
            <path class="cls-37" d="m218.38,54c.49,1.36-3.09,4.04-4.5,4.99-1.24.84-2.5,1.66-3.75,2.5-7.23.75-13.78,4.3-20.23,7.49.2-.15,1.3-1.85,1.5-2,1.15-.84,2.37-1.66,3.5-2.5.32,1.11,4.72-2.02,8.24-3.5.52-.22,1.99.22,2.5,0,2.36-1.02,7.56-4.81,7.99-4.99.21-.09,3.89,1.09,3.25-1.5.08-.01-.52-.26,1.5-.5Z"/>
            <path class="cls-37" d="m124.48,128.42c-2.02,6.18-2.26,4.12-4.5,5.49.72-2.48-3.4.66-3.5-2l7.99-3.5Z"/>
            <path class="cls-25" d="m188.41,150.4c.67.73,4.5,4.42,4.5,4.74,0,.23-3.06,3.28-3,3.5.17.61,2.25.61,2.5.75,3.42,1.97,2.84.91,3,1,3.34,1.83,10.83,8.09,13.99,10.99l-1,.25c1.98,1.35,1.7,4.76.75,5.24-1.41.71-6.05-2.2-5.24-.5-.53-.45-1.46-.55-2-1-3.32-2.73-6.56-4.96-9.99-7.49-2.16-1.59-4.21-3.31-6.49-4.74,1.4.32,5.07-6.82,4.99-7.49-3.56-4.44-11.14-15.23-2-5.24Z"/>
            <path class="cls-46" d="m201.9,175.37c-3.83,2.31-11.56,2.03-16.48,2.5-1.48-1.73-2.85-.6-4.5-3.5,1.83-3.53,4.3-.77,4.5-1.75-11.85-4.78,6.04-.34,6.49-4.74,3.43,2.53,6.67,4.76,9.99,7.49Z"/>
            <path class="cls-46" d="m201.9,141.91c.95.85,1.97,1.73,3,2.5-.1.11.25.51-1.5,2.5-3.65,4.14-7.84,7.91-10.99,12.49-.24-.14-2.32-.14-2.5-.75-.06-.22,3-3.27,3-3.5,0-.33-3.83-4.01-4.5-4.74l5.49-2.25c-9.34-12.8,11.2,10.57-1.25-8.74,3.18.73,6.35,4.01,9.24,2.5Z"/>
            <path class="cls-18" d="m115.99,135.91c-10.12,6.31-20.63,13.08-26.22,23.97-4.7-2.99-27.79,11.15-29.22,10.49-4.9-2.27,26.61-14.57,29.22-14.98q7.24-6.74,14.48-13.49c3.77-1.38,10.12-7.78,11.74-5.99Z"/>
            <path class="cls-17" d="m237.36,54.5c6.76,3.26,3.83,4.32,0,8.99-1.78-.48-3.69-.65-5.49-1,1.09-4.26,4.39-5.39,4.5-5.74,1.35-4.39-13.54,9.54-9.99,2.75.92-1.32,2.56-2.86,1.5-3,3.31-1.41,2.6-.44,2.75-.5,3.35-1.26-3.33-1.21-7.99-1-.5,1.14-6.55,5.45-6.99,5.49-1.71.15,1.02-1.06-1.25-1-.04,0,.12-.55-.5-.5,1.41-.95,4.99-3.64,4.5-4.99,6.15-.74,13.05-1.18,18.98.5Z"/>
            <path class="cls-41" d="m208.89,123.93c-6-3.7-3.82-2.96-7.99-6.99,7.64-.12,14.79,2.62,22.23,4-4.09,9.75-6.71,4.41-14.23,3Z"/>
            <path class="cls-46" d="m205.39,129.42c1.96,2.74,4.12,5.38,5.49,8.49-1.19,1.3-2.31,2.68-3.5,4-4.14-8.09-23.1-20.71-2-12.49Z"/>
            <path class="cls-4" d="m256.84,90.46c-.83.86-1.68,1.66-2.5,2.5-1.31-.45-5.63.54-5.99.5-3.16-.39-6.73-2.87-9.99-3.5-.24-.25-1.12-.73-1.5-1l-2-3c.16.02.34-.02.5,0,7.45.86,14.98,1.02,21.48,4.5Z"/>
            <path class="cls-17" d="m256.84,62.49c1.22,1.01,2.55,3.16,3.5,4.5-1.02,1.36-.75,1.48-1.5,2.75-.94,1.6-3.53-.57-.5,4.25-3.12-2.02-6.67-4.37-9.99-5.99,2.05-1.57,4.87-4.44,4.99-6.99.23.16,1.89-.1,2.75,0,.27.12.44,1.24.75,1.5Z"/>
            <path class="cls-1" d="m267.33,66.49c-9.07,6.05.04,6.48-3.5,11.99-.59-.2-3.54-3.23-5.49-4.5-3.03-4.82-.44-2.65.5-4.25.74-1.26.48-1.39,1.5-2.75.49-.65,2.11-1.78,2-3,1.7.73,3.39,1.53,4.99,2.5Z"/>
            <path class="cls-17" d="m250.84,58.99c.83.65.94.96,1,1,1,5.35-3.39,3.9-3.75,4-2.32.63-6.07,1.94-7.74-.75-1.71-2.74,4.93-7.06,10.49-4.25Z"/>
            <path class="cls-39" d="m263.83,78.47c3.54-5.5-5.58-5.94,3.5-11.99,5.41,3.26,6.16.99-2.75,12.49l-.75-.5Z"/>
            <path class="cls-37" d="m227.87,56.5c-6.71,2.86-9.09,5.82-15.23,4.5l1.75-1.5c2.27-.06-.46,1.15,1.25,1,.44-.04,6.49-4.36,6.99-5.49,4.66-.21,11.34-.27,7.99,1-.15.06.57-.91-2.75.5Z"/>
            <path class="cls-43" d="m248.35,93.46c.95.87-.88,2.37-2,3-.2-1.07-2.15-1.19-3.5-1.5-1.1-.25-1.56-.7-1.5,0-.29-.56-2.79-4.79-3-4.99,3.26.62,6.83,3.1,9.99,3.5Z"/>
            <path class="cls-39" d="m231.86,62.49c-8.85-1.71-8.41,1.2-5.49-3-3.55,6.79,11.34-7.14,9.99-2.75-.11.36-3.41,1.48-4.5,5.74Z"/>
            <path class="cls-21" d="m148.45,117.43c-.99,3.26-10.13,4.96-13.99,6.49,4.35-4.25,8.21-5.25,13.99-6.49Z"/>
            <path class="cls-39" d="m262.33,63.99c.12,1.21-1.51,2.35-2,3-.95-1.33-2.27-3.48-3.5-4.5,4.86-.56,5.22,1.38,5.49,1.5Z"/>
            <g>
              <path class="cls-4" d="m227.87,56.5c1.06.13-.58,1.68-1.5,3-2.92,4.2-3.36,1.29,5.49,3,1.8.35,3.72.52,5.49,1,2.46.66,8.52,3.28,10.99,4.5,3.32,1.63,6.87,3.98,9.99,5.99,1.95,1.26,4.91,4.3,5.49,4.5l.75.5c8.9-11.5,8.16-9.23,2.75-12.49-1.6-.96-3.3-1.77-4.99-2.5-.28-.12-.63-2.06-5.49-1.5-.31-.25-.48-1.37-.75-1.5-.86-.1-2.52.16-2.75,0-.5-.34-.97-.7-1.5-1-.06-.03-.17-.35-1-1-.37-.29-1.1-1.42-3-2,6.88.56,5.37,2,8.24,3,2.71.94,6.47,1.34,8.99,2.5,4.45,2.05,8.32,5.78,12.74,6.99-4.51,4.65-8.98,9.34-13.49,13.99-.98,1.01-2.01,1.97-3,3-1.35,1.39-3.15,2.6-4.5,4-6.49-3.48-14.03-3.63-21.48-4.5-.08-.76-.95-.95-1-1-5.97-6.11-16.87-10.82-3.5,1,1.31.11,2.7-.15,4,0l2,3c-1.51-1.07-5.15-2.47-5.49-1.75,4.27,4.61,6.96,10.3,9.49,15.98,4.44-2.69,2.42-4.52.5-8.24-.06-.7.4-.25,1.5,0,3.2,3.83,3.28,1.62,3.5,1.5,1.11-.62,2.94-2.13,2-3,.36.04,4.69-.95,5.99-.5-10.59,10.93-21.02,21.89-31.47,32.97-3.56,3.78-7.42,7.09-10.99,10.99-4.25-16.03-.23-1.58,5.49-8.74-2.7-1.57-5.84-2.62-8.49-4.25,7.53,1.42,10.15,6.76,14.23-3-7.43-1.38-14.58-4.12-22.23-4-.73-.7-2.13-2.03-3-2-2.21-2.88-9.57-6.85-9.99-5.74,4.87,3.19,7.24,5.23,8.99,10.74-2.36-.34-4.65-1.07-6.99-1.5-4.02-.73-7.93-1.13-11.99-1.5-3.32-.3-6.66-.39-9.99-.5-2.91-.09-5.09-.09-7.99,0-2.3.07-4.21.23-6.49.5-.2.02.15-.31-4,.5-.31.06-.7-.07-1,0-5.77,1.25-9.63,2.25-13.99,6.49-4.97,4.85,2.11-.92,13.99-3.5.1-.02.37.29,2,0,2.48-.44,7.06-1.39,8.99-1.5.98-.06,2.44.09,4.5,0,4.09-.18,8.76.56,12.99.5.15,1.27,4.97,1.1,7.49,1.5,1.64.26,3.26.22,4.99.5,4.28.69,8.59,1.09,12.74,2.5,2.46,1.96,3.05,5.23,3.25,5.49-21.1-8.22-2.14,4.4,2,12.49-.64.71-1.41,1.33-2,2-11.42-14.96-23.93-20.38-3.5-2-2.89,1.51-6.06-1.77-9.24-2.5,12.45,19.31-8.09-4.06,1.25,8.74l-5.49,2.25c-9.14-9.99-1.56.8,2,5.24.08.67-3.6,7.81-4.99,7.49,2.28,1.43,4.34,3.16,6.49,4.74-.45,4.4-18.35-.03-6.49,4.74-.19.98-2.67-1.78-4.5,1.75-2.97-5.24-.43-6.49-2.75,1,.42-6.18-2.64-6.76-8.24-7.49-2.54-4.13-3.77-4.72-6.99-7.49-1.67-1.44-1.97-1.77-4-3-3.99-2.42-6.45-5-11.49-4-4.39.88-5.45,3.14-7.99,6.24.12.57,3.74,1.79,4.5,2.25,1.14.68,2.4,1.27,3.5,2,.67.44,1.31,1.03,2,1.5.22.15.78.35,1,.5,3.44,2.4,9.91,7.6,12.99,10.49-2.42,1.34-.87,2.62-4,5.49-.19.18-1.68-.31-2,.25-.88,1.54,2.16,6.38-4.74,8.24-2.27-2.46-13.85-9.1-16.48-9.99-.75-.25-2.6.24-3.5,0-.3-.08-1.15-1.56-5.49-2-10.23-1.03-25.55,1.52-30.22,12.24-5.9,13.56,5.16,37.92,14.48,48.45,8.91,10.07,18.12,11.77,18.73,12.74,1.85,2.92-16.53.89-21.98-1.5-10.98-4.82-9.74-13.3-15.23-21.73.81-1.26.34-3,1-4.25.08-.15,3.44-1.44-.25-1-7.86.94-32.09,21.04-37.21,28.97-2.49-2.46-1.89-2.38-2-2.5,9.1-14.1,23.46-23.32,37.96-31.22-6.97-14.85-5.99-31.45-6.49-47.45-25.72,2.31-58.51,19.91-48.45,50.7-8.46-22.04-.65-17.38,5.49-41.46.83-.37,1.33-1.58,2.5-.75l-1.25,6.74c4.26-5.02,9.29-9.49,12.24-15.48.79-.49,2.1-1.98,2.25-2,.39-.05.2.99.25,1-2.28,1.77-3.81,4.43-4.99,6.99-.04.08-1.62.57-.75,1.5,5.82-3.38,11.98-6.5,18.23-8.99,3.42-1.36,25.45-7.16,14.23-6.99-6.09.09-19.02,6.33-24.97,8.99-1.41.12-.05-.91-.25-1,1.43.66,24.52-13.48,29.22-10.49,5.59-10.89,16.11-17.67,26.22-23.97,1.26-.79,2.72-1.21,4-2,2.24-1.37,2.48.69,4.5-5.49q6.12-3.75,12.24-7.49c5.03-4.79,10.18-9.82,15.73-13.99,5.41-4.06,10.26-3.29,7.74-8.49-1.23,1.46-7.24,8.22-7.74,8.49-.15.08-1.83.75-1.5-.25,14.64-20.89,21.1-24.51,38.96-37.71,6.44-3.2,13-6.74,20.23-7.49,1.24-.84,2.5-1.66,3.75-2.5.62-.05.46.5.5.5l-1.75,1.5c6.14,1.32,8.52-1.63,15.23-4.5Z"/>
              <g>
                <path class="cls-45" d="m222.87,125.92c10.45-11.07,20.87-22.03,31.47-32.97.81-.84,1.67-1.64,2.5-2.5,1.35-1.39,3.15-2.6,4.5-4,1.19.42-1.54.91.5,2.25l-38.71,38.71-.25-1.5Z"/>
                <g>
                  <path class="cls-37" d="m200.9,116.93c4.17,4.03,1.99,3.3,7.99,6.99,2.65,1.63,5.79,2.67,8.49,4.25-5.73,7.16-9.74-7.29-5.49,8.74-.34.37-.7.67-1,1-1.38-3.11-3.53-5.75-5.49-8.49-.19-.27-.79-3.54-3.25-5.49-4.15-1.4-8.46-1.81-12.74-2.5l.5-3c2.34.43,4.63,1.16,6.99,1.5.6,1.88-1.33,2.12,4.99,2.25-1.96-1.81-2.69-5.54-4-7.24.87-.03,2.27,1.29,3,2Z"/>
                  <path class="cls-16" d="m217.38,107.44c-3.9.85-3.5,1.84.25,3,4.87,1.5,14.57-.27,14.73,2.5-1.47,1.31-2.85,2.61-4.25,4-6.29-3.11-14.99-8.88-20.98-11.49-.66-.29-9.19-2.59-4-2,2.37.27,9.07,3.56,14.23,4Z"/>
                  <path class="cls-37" d="m236.86,88.96c.38.27,1.26.75,1.5,1,.2.21,2.71,4.43,3,4.99,1.92,3.72,3.94,5.55-.5,8.24-2.53-5.69-5.22-11.37-9.49-15.98.34-.72,3.99.68,5.49,1.75Z"/>
                  <path class="cls-4" d="m235.36,110.44c-1.79,3.49-2.77,2.3-3,2.5-.17-2.76-9.87-.99-14.73-2.5-3.75-1.16-4.15-2.15-.25-3,1.91.16,5.28.37,5.49-1,4,1.83,8.23,2.96,12.49,4Z"/>
                  <path class="cls-43" d="m235.36,110.44c-4.25-1.04-8.49-2.16-12.49-4-9.86-4.51-1.96-1.57-1.25-1.5,3.72.39,17.43-1.71,13.74,5.49Z"/>
                  <path class="cls-28" d="m197.9,114.94c1.31,1.7,2.04,5.44,4,7.24-6.33-.13-4.4-.37-4.99-2.25-1.75-5.51-4.12-7.55-8.99-10.74.42-1.1,7.78,2.86,9.99,5.74Z"/>
                  <path class="cls-37" d="m221.87,94.96c-1.85,2.34,2.82,2.12,5.74,3.5,5.04,2.38,11.2,6.65,7.24,6.49-3.81-1.4-9.37-5.65-15.23-6.99-.34-.41,1.07-2.9,2.25-3Z"/>
                  <path class="cls-21" d="m234.86,104.95c3.96.16-2.2-4.11-7.24-6.49-2.92-1.38-7.59-1.16-5.74-3.5,4.41-.38,14.43,6.69,17.98,9.74-3.55.24,1.12,2.5-4.99.25Z"/>
                  <path class="cls-39" d="m167.93,116.43c3.33.11,6.67.2,9.99.5.64,1.06-1.06,1.95-1,2.5-4.23.06-8.9-.68-12.99-.5-.25-1.59,2.51-1.91,4-2.5Z"/>
                  <path class="cls-37" d="m179.17,93.46c6.15-.05-12.08,6.7-16.23,7.24,8.13-8.45,5.83-3.39,7.24-3.25.49.05,6.53-3.97,8.99-4Z"/>
                  <path class="cls-37" d="m192.9,90.46l-4.5,4c-1.89.15-13.31,4.06-6.24-1,2.6-1.86,7.54-3.01,10.74-3Z"/>
                  <path class="cls-54" d="m211.88,92.96c-1.94.11-2.15-.22-3,2-3.48-.22-7.11-.99-7.49-1l1-3c2.73-.02,8.42-.31,9.49,2Z"/>
                  <path class="cls-13" d="m189.91,118.43l-.5,3c-1.74-.28-3.35-.24-4.99-.5-3.34-4.68-3.91-1.55-7.49-1.5-.06-.55,1.64-1.44,1-2.5,4.06.37,7.97.76,11.99,1.5Z"/>
                  <path class="cls-31" d="m202.39,90.96l-1,3c-3.03-.06-6.89.32-9.99.5.79-1.05,2.29-2.07,3.5-2.5,3.37-1.2,4.09-.98,7.49-1Z"/>
                  <path class="cls-41" d="m205.39,143.9c-.31.35-.48.47-.5.5-1.03-.77-2.05-1.64-3-2.5-20.43-18.39-7.92-12.96,3.5,2Z"/>
                  <path class="cls-48" d="m159.94,116.43l-.5,2.5c-1.93.11-6.51,1.06-8.99,1.5l3-3.5c2.29-.27,4.19-.43,6.49-.5Z"/>
                  <path class="cls-19" d="m234.36,84.97l-3.5,1c-13.37-11.82-2.47-7.11,3.5-1Z"/>
                  <path class="cls-38" d="m169.68,150.4c6.24,2.88,12.96,12.69,13.49,7.99,4.21,10.18-11.68-5.99-13.49-7.99Z"/>
                  <path class="cls-48" d="m149.45,117.43l-1,3c-11.88,2.58-18.96,8.35-13.99,3.5,3.85-1.53,12.99-3.24,13.99-6.49.3-.07.69.06,1,0Z"/>
                  <path class="cls-39" d="m211.88,92.96c1.63-.09,8.49,1.01,4.74,3-.69.37-6.01-.89-7.74-1,.85-2.22,1.06-1.89,3-2Z"/>
                  <path class="cls-54" d="m167.93,116.43c-1.48.58-4.24.91-4,2.5-2.05.09-3.51-.06-4.5,0l.5-2.5c2.9-.09,5.09-.09,7.99,0Z"/>
                  <path class="cls-1" d="m152.45,106.94c.5-.27,6.51-7.03,7.74-8.49,2.52,5.2-2.33,4.43-7.74,8.49Z"/>
                  <path class="cls-29" d="m194.9,91.96c-1.21.43-2.71,1.44-3.5,2.5-.99.06-2.01-.08-3,0l4.5-4c.17,0,1.89-1.83,2,1.5Z"/>
                  <path class="cls-54" d="m153.45,116.93l-3,3.5c-1.63.29-1.9-.02-2,0l1-3c4.15-.81,3.8-.48,4-.5Z"/>
                  <path class="cls-39" d="m184.41,120.93c-2.52-.39-7.34-.23-7.49-1.5,3.59-.05,4.16-3.18,7.49,1.5Z"/>
                  <g>
                    <path class="cls-28" d="m124.48,146.9c-2.21,1.53-6.13,6.38-7.24,6.99-2.92,1.61.08-3.18-3.5,1,.96-7.57-.54-.03-2,.5-2.06-.18-5.4-.73-4.74,1.5-.05.01.4.19-1,.5l1.25-5.99c-.9,1.75-3.97,5.07-2.75,5.99-.61.15-1.46.32-2,.5l-.5-6.99c1.73-1.03,2.35-3.23,4.74-3.5,5.96-.66,2.73,2.86,3.5,3,1.53.28-2.07-4.47,14.23-3.5Z"/>
                    <path class="cls-28" d="m135.47,148.4c-8.15,6.21-4.73,7.12-16.48,7.49-.83-.02-1.67-.01-2.5,0q5.24-4.5,10.49-8.99c2.89.3,5.65.91,8.49,1.5Z"/>
                    <path class="cls-35" d="m145.95,151.4c-4.95-.94-8.42,3.76-11.49,6.99-1.94-.37-4.01-1.22-5.99-1.5l7.99-8.49c3.13.7,6.53,1.7,9.49,3Z"/>
                    <path class="cls-18" d="m98.5,159.89c-6.54,3.81-5.08,6.51-8.24,12.99-.43-8.89,2.64-16.04,9.74-21.48l-1.5,8.49Z"/>
                    <path class="cls-18" d="m145.95,151.4l-7.74,8.49c-1.04-.84-2.46-1.25-3.75-1.5,3.07-3.23,6.54-7.93,11.49-6.99Z"/>
                    <path class="cls-37" d="m126.97,146.9q-5.24,4.5-10.49,8.99c-1.63.02-7.73.67-9.49,1-.66-2.23,2.68-1.67,4.74-1.5,1.45-.53,2.95-8.07,2-.5,3.58-4.18.57.61,3.5-1,1.11-.61,5.04-5.46,7.24-6.99.82.05,1.68-.08,2.5,0Z"/>
                    <path class="cls-37" d="m136.46,148.4l-7.99,8.49c-2.58-.37-7.08-.95-9.49-1,11.75-.37,8.33-1.28,16.48-7.49.3.06.7-.07,1,0Z"/>
                    <path class="cls-37" d="m102,150.9l.5,6.99c-.86.28-3.07,1.46-4,2l1.5-8.49c1.22-.94,1.91-.45,2-.5Z"/>
                    <path class="cls-37" d="m106,157.39c-.45.1-1.06-.11-1.5,0-1.22-.92,1.85-4.25,2.75-5.99l-1.25,5.99Z"/>
                  </g>
                  <path class="cls-32" d="m246.35,96.45c-.22.12-.29,2.33-3.5-1.5,1.35.3,3.3.43,3.5,1.5Z"/>
                  <path class="cls-18" d="m234.36,84.97c.05.05.92.24,1,1-.16-.02-.34.02-.5,0-1.3-.15-2.68.11-4,0l3.5-1Z"/>
                </g>
              </g>
            </g>
            <path class="cls-31" d="m258.84,136.91l.5,1.75c10.38,10.12,20.19,21.26,26.47,34.46-3.45-4.98-6.71-9.98-10.49-14.73-6.92-8.72-14.14-18.36-13.49-10.24.17,2.11,1.43,2.61,1.5,2.75-1.56,15.3,2.81,14.83,5.49,22.73,1.39,4.09,1.06,8.29,2.5,10.24l-1,.75c.82,5.27-1.75,5.52-4,8.24.64-8.88-.54-13.12-4.25-20.98-1.72,14.87-6.87,27.88-18.23,37.96-1.57,1.04-6.61,3.77-7.49,4.99-2.26-4.83-.02-3.77,0-4-.99.81.63,1.52.75,1.5,3.52-.59,15.22-21.88,16.23-28.72.56-3.81-1.42-14.27,2-6.49.16-2.71.01-5.06-.5-7.74,4.81.74,4.1-3.61,0-7.49-.55-.52-1.44-.98-2-1.5-2.23-2.04-4.75-3.91-6.99-5.99-4.37-4.06-14.48-14.31-19.48-16.48-2.79-1.21-3.49,1.64-7.49,2.25-.21.47,3.4,4.03,5.99,8.24.53.87.96.94,1,1,3.19,5.35,6.16,12.02,7.99,17.98-9.17-2.07-4.79-3.36-9.49-7.99-1.28-2.85-3.4-5.77-4.99-8.49,2.01-1.21,3.07,7.6,6.49,3.75,1.39-1.57-2.36-6.87-4.5-6.74,2.27-4.02-3.45-5.83-5.99-3.5-.56-.76-1.06-1.63-2-2,.26-.23.23-2.47,4.74-1-1.62-3.03,2.59-5.17,4.74-6.99,1.5-1.27,2.91-2.56,4.25-4,1.08,2.48,3.26,3.24,4.25,4,6,4.56,12.36,9.47,17.98,14.48,2.88,2.57,5.24,5.99,8.24,8.49.94-.72-.13-5.78-.25-6.99-.37-3.74-1.16-5.74-1.5-7.49-.57-2.99-1.23-5.12-2-7.99-.04-.16.04-.34,0-.5,1.52-3.52,3.1-1.19,3-5.49.82,2.61,1.83,5.22,2,7.99Z"/>
            <path class="cls-31" d="m256.84,111.94c2.09,1.53,4.56,3.31,6.49,4.99,1.07.93,10.61,10.48,11.99,11.99,1.74,1.91,7.24,7.96,7.99,8.99,7.08,9.71,8.02,16.86,8.49,17.73.31.57.59,1.46,1.5,1.25,6.05,4.84.66,5.02-3,5.99-.65-.49-2.48-6.81-7.49-14.48-4.41-6.76-12.75-15.4-18.48-21.48-3.76-3.99-7.59-7.9-11.24-11.99-.42.13,2.03,7.71,2.25,8.49.5,1.8.95,3.73,1.5,5.49.11,4.31-1.47,1.97-3,5.49-1.06-3.88-1.62-7.93-3-11.74-1.02-1.52-3.81-2.1-5.49-2.75l.5-.5c.6.15,3.13.8,3.5.25-2.45-2.67-1-7.34-5.99-5.99,0-.19,2.49-1.74,3-2.25,6.01-.89,1.42,7.55,5.99,3.25.42-.4-.79-.86-.25-1.25.7-.5,3.98-.12,4.74-1.5Z"/>
            <path class="cls-41" d="m217.38,161.39c3.47,5.38,6.7,10.97,9.49,16.73-5.62-2.9-5.91,1.37-14.98-4.74-.7-.7-1.76-1.32-2.5-2-3.16-2.9-10.64-9.16-13.99-10.99,3.45-3.4,6.57-7.61,10.49-10.49.83-.61,1.57-1.22,2.25-2l.75.75c2.6,4.38,5.74,8.47,8.49,12.74Z"/>
            <path class="cls-4" d="m280.31,91.46c.15,3,1.66,6.49,1.5,9.49-4.06-1.6-2.39,3.29-2.5,4-.23,1.42-.58,3.24-2,4-1.54-2.02-3.3-4.09-4.99-5.99-5.84-6.56-8.45-8.93-2,0-4.45-.52-10.67,1.54-13.99-.5,5.56-8.17,6.76-5.34,7.24-5.49,2.68-.86-1.61-.78,1.75-4.99.44-.55,4.86-4.73,6.99-6.99,3.94.09,5.67,4,7.99,6.49Z"/>
            <path class="cls-41" d="m215.38,144.4c1.11,1.5,2.54,3.43,3.5,4.99.04.07-.11.46.5,1.5,1.6,2.72,3.72,5.64,4.99,8.49,2.16,4.81,3.18,10.51,4.99,15.48-.8,5.72-6.57-5.97-11.49-13.99-2.79-4.54-5.62-9.09-8.99-13.24-.05-.46,3.87-4.7,4.5-5.24.94.36,1.44,1.24,2,2Z"/>
            <path class="cls-4" d="m245.35,119.93c1.69.65,4.48,1.22,5.49,2.75,1.37,3.81,1.93,7.86,3,11.74.04.15-.04.34,0,.5-1.77-1.02-3.77-1.92-5.49-3-4.55-2.82-9.02-6.01-13.49-8.99-.07-.04-.55.11-.5-.5,4.71-4.23,2.52-5.76,10.99-2.5Z"/>
            <path class="cls-46" d="m270.32,102.95c.36.49,1.21,1.09,1.5,1.5,1.52,2.12,3.05,4.32,4.5,6.49-3.03.98-5.83,5.41-7.49,4.5-1.96-1.37-3.7-2.93-5.49-4.5-2.63-2.29-5.25-4.6-7.99-6.74-.24-.99.42-1.26.5-1.75h.5c3.32,2.04,9.54-.02,13.99.5Z"/>
            <path class="cls-7" d="m229.37,174.87c.02.06.84-.19,1,.25,1.81,5.1-.84,2.08-1.25,2.25-1.41.59.91,7.02,1.25,8.49-2.7.05-2.71,3.52-4.99,4.5-3.14-4.76-6.68-8.76-10.49-12.99-.75-.83-1.62-2.62-3-4,9.08,6.12,9.37,1.84,14.98,4.74-2.79-5.77-6.02-11.35-9.49-16.73l.5-.5c4.92,8.01,10.69,19.7,11.49,13.99Z"/>
            <path class="cls-41" d="m255.84,102.45c-.08.49-.74.76-.5,1.75,2.75,2.15,5.36,4.45,7.99,6.74-2.93.44,1.32,3.36,0,5.99-1.93-1.68-4.41-3.47-6.49-4.99-2.12-1.55-4.75-2.7-6.24-4.99-.31-.04-3.66,3.92-4.25,4.5-.51.51-3,2.05-3,2.25,4.99-1.34,3.54,3.33,5.99,5.99-.36.55-2.89-.1-3.5-.25-1.83-.44-3.74-1.86-5.74-2,.62-.98.19-2.15.25-2.25.69-1.17,16.95-15.68,19.23-19.23l.75.75c-1.55,1.6-4.1,3.32-4.5,5.74Z"/>
            <path class="cls-38" d="m234.86,122.93c-.63.8.02,1.9.5,2.5-2.46,2.92.57,4.13,3.5,6.99l-7.49,2c-.99-.75-3.17-1.52-4.25-4-1.34,1.43-2.75,2.73-4.25,4,3.12-4.48,7.4-8.32,11.49-11.99-.05.61.43.45.5.5Z"/>
            <path class="cls-34" d="m293.3,93.96c8.57,1.01,8.26,5.01,4,11.74.44.98,4.13-2.21,5.24-1.75.98.4,7.42,17.48,4.74,19.73,3.54.68,1.34,17.77.5,20.48-1.43,4.63-6.22,9.11-6.99,10.49-.66,1.17.74,9.35-7.99,8.74-.96-.07-1.63.15-2.5-.5,3.65-.97,9.05-1.15,3-5.99,1.58-4.16,2.92-8.56,3.5-12.99.31-2.35.46-4.62.5-6.99,11.29,1.69,9.5.5,9.49-9.49,0-3.74-.15-6.81-1.25-9.99l-10.74,1.5c-.95-3.82-1.93-7.37-3.5-10.99-1.55-3.59-3.79-7.77-5.99-10.99,3.23-1.57,1.32-2.31,1.5-2.5,1.07-1.12,4.8-.7,6.49-.5Z"/>
            <path class="cls-30" d="m282.81,148.4c5.01,7.68,6.84,14,7.49,14.48.87.65,1.54.43,2.5.5-.91,2.62-5.98,7.67-5.49,9.49.07.26-.03.68,0,1-.71-.15-1.71.1-2.5,0-1.83-.56-13.21-13.32-15.48-15.98,2.75.02,3.33-1.11,5.99.5,3.77,4.76,7.04,9.76,10.49,14.73-6.29-13.21-16.09-24.34-26.47-34.46l-.5-1.75c3.63-.65,18.24,6.56,20.23,7.99.91.65,2.53,4.86,3.75,3.5Z"/>
            <path class="cls-31" d="m293.3,93.96c-1.69-.2-5.42-.62-6.49.5-2.02.43-2.27-2.43-2.5-4,2.44-1.88,4.88-4.54,1-4-1.79-1,1.54-2.52,0-4.99.7,1.31,2.48,2.5.5,3.75,3.17-2.97,9.62,6.34,9.49,6.99-.2,1.02-2.38.26-2,1.75Z"/>
            <path class="cls-33" d="m285.31,81.47c1.54,2.47-1.79,4,0,4.99-.14.02-2.07.98-2.75,1-.51-.05.83-5.29-5.24-7.99,1.22-1.11,2.65-2.02,3.5-3.5,1.57,1.05,3.59,3.79,4.5,5.49Z"/>
            <path class="cls-17" d="m216.88,54.5c.64,2.58-3.04,1.41-3.25,1.5-.43.19-5.63,3.97-7.99,4.99-.5.22-1.98-.22-2.5,0-3.52,1.48-7.92,4.61-8.24,3.5,9.12-6.81,10-8.17,21.98-9.99Z"/>
            <path class="cls-26" d="m203.89,176.37c1.12.96,1.96,2.01,3,3-3.31-.28-1.18,2.43-1.75,3-19.49,4.96-1.79.87,4.5,3.5,2.89,1.21-3.26-.11-6.99,2.5v1c3.8-2.24,8.09.89,10.74-2.5,7,8.56,14.71,17.8,16.48,28.97.05.32-.04.67,0,1-1.59,3.12-4.75,2.65-5.24,3-2.29,1.6-3.73,4.8-5.74,6.49-2.87,2.41-5.75,4.64-9.49,5.49-.08-1.95-1.26-15.33-1.5-16.73-.6-3.51-2.76-8.57-4.5-11.74-.81-1.49-4.79-7.49-5.24-7.49-1.95,2.83-2.6,2.38-2.75,2.5-4.23-3.07.92-4.53,1-5.24.05-.48-4.86-5.85-5.49-6.74-1.19-1.66-1.76-2.07-2.5-3-.95-1.18-1.93-4.24-3-5.49,4.92-.46,12.65-.19,16.48-2.5.54.45,1.47.55,2,1Z"/>
            <path class="cls-18" d="m209.39,171.38c.74.68,1.79,1.3,2.5,2,1.37,1.37,2.25,3.17,3,4v6.49c-.81-.59-5.08-3.12-4.5-1.5-.63-1.6-2.41-1.96-3.5-3-1.03-.99-1.87-2.03-3-3-.8-1.7,3.84,1.21,5.24.5.95-.48,1.23-3.9-.75-5.24l1-.25Z"/>
            <path class="cls-9" d="m243.85,155.89c6.37,4.86,6.94,14.24,8.49,7.49,1.25,1.4,2.15,4.17,2.5,5.99.51,2.68.66,5.03.5,7.74-3.42-7.77-1.44,2.69-2,6.49-1.01,6.84-12.71,28.13-16.23,28.72-.12.02-1.74-.69-.75-1.5.14-1.81-.09-3.68,0-5.49,1.14.12,1.45-5.38,1.5-6.99.32-10.31-1.95-9.7-2-10.24-.14-1.68,1.78,1.8.5-9.24-.44-3.83-1.37-7.8-2.5-11.49-1.83-5.96-4.8-12.63-7.99-17.98,5.22,1.71,13.86,3.35,17.98,6.49Z"/>
            <path class="cls-10" d="m269.32,157.89c2.27,2.66,13.65,15.42,15.48,15.98-3.6,4.31-8.34,7.76-13.49,9.99-1.44-1.95-1.11-6.15-2.5-10.24-2.69-7.89-7.06-7.43-5.49-22.73,1.17,2.29,4.24,4.94,5.99,6.99Z"/>
            <path class="cls-40" d="m266.33,192.85c-2.09,2.52-5.07,4.95-5.49,5.49-.58.76-1.08-.04-.5,2.5-.15,0-1.33,1.76-1.75-1-3.81,4.66-9.73,6.66-14.73,9.99,11.36-10.08,16.51-23.09,18.23-37.96,3.7,7.86,4.89,12.09,4.25,20.98Z"/>
            <path class="cls-23" d="m264.33,126.92c5.73,6.08,14.07,14.71,18.48,21.48-1.21,1.36-2.84-2.85-3.75-3.5-1.99-1.43-16.6-8.64-20.23-7.99-.16-2.77-1.18-5.38-2-7.99-.55-1.77-1-3.7-1.5-5.49,3.46.69,6.38,6.54,8.99,3.5Z"/>
            <path class="cls-46" d="m245.85,154.39l-2,1.5c-4.13-3.15-12.76-4.78-17.98-6.49-.04-.06-.46-.13-1-1,2.35-.25-.07-7.49,1.5-10.49,5,2.17,15.11,12.42,19.48,16.48Z"/>
            <path class="cls-36" d="m238.86,132.42c5.68,5.54,11.68,8.97,16.98,16.48-1.96-2.06-4.06-.04-6.49,0-5.62-5.01-11.98-9.92-17.98-14.48l7.49-2Z"/>
            <path class="cls-16" d="m249.35,137.41c2.08,1.86,3.66,4.44,6.49,5.49.33,1.75,1.13,3.75,1.5,7.49-.57-.9-1.44-1.41-1.5-1.5-5.3-7.52-11.3-10.94-16.98-16.48-2.93-2.86-5.95-4.07-3.5-6.99.77.97,11.26,9.55,13.99,11.99Z"/>
            <path class="cls-24" d="m275.32,158.39c-2.66-1.61-3.24-.48-5.99-.5-1.75-2.05-4.82-4.7-5.99-6.99-.07-.14-1.33-.64-1.5-2.75-.65-8.12,6.57,1.52,13.49,10.24Z"/>
            <path class="cls-46" d="m226.37,137.91c-1.57,3,.85,10.24-1.5,10.49-2.59-4.21-6.2-7.78-5.99-8.24,4-.61,4.7-3.46,7.49-2.25Z"/>
            <path class="cls-7" d="m255.84,148.9c.06.09.93.6,1.5,1.5.12,1.21,1.19,6.27.25,6.99-3-2.5-5.36-5.92-8.24-8.49,2.43-.04,4.53-2.06,6.49,0Z"/>
            <path class="cls-38" d="m253.84,134.91c.77,2.88,1.43,5,2,7.99-2.84-1.05-4.41-3.63-6.49-5.49,2.31-2.42-1.8-1.47-1-5.49,1.73,1.07,3.72,1.98,5.49,3Z"/>
            <path class="cls-38" d="m245.85,154.39c2.24,2.08,4.77,3.95,6.99,5.99-1.05,1.35.07,1.55,0,2,0,.06-.18-.4-.5,1-1.55,6.75-2.12-2.63-8.49-7.49l2-1.5Z"/>
            <path class="cls-18" d="m219.38,150.9c-.61-1.04-.46-1.43-.5-1.5.93.88,1.9-.44,2.5-1.5,2.14-.13,5.89,5.17,4.5,6.74-3.43,3.86-4.48-4.96-6.49-3.75Z"/>
            <path class="cls-44" d="m254.84,169.38c-.35-1.82-1.25-4.6-2.5-5.99.32-1.4.49-.94.5-1l2-.5c4.1,3.88,4.81,8.23,0,7.49Z"/>
            <path class="cls-25" d="m221.37,147.9c-.6,1.06-1.57,2.38-2.5,1.5-.95-1.56-2.38-3.5-3.5-4.99,2.55-2.33,8.27-.52,5.99,3.5Z"/>
            <path class="cls-42" d="m254.84,161.89l-2,.5c.07-.45-1.05-.65,0-2,.56.52,1.45.98,2,1.5Z"/>
            <path class="cls-7" d="m282.81,121.43c2.8,4.65,6.24,9.02,8.49,13.99l-7.99,2.5c-.75-1.03-6.25-7.08-7.99-8.99-5.91-7.31-3.01-3.73,7.49-7.49Z"/>
            <path class="cls-23" d="m263.33,110.94c1.79,1.56,3.54,3.13,5.49,4.5,3.82,2.67,4.53,5.58,8.99-1.5,1.65,2.5,3.44,4.91,4.99,7.49-10.51,3.77-13.4.18-7.49,7.49-1.38-1.51-10.92-11.05-11.99-11.99,1.32-2.63-2.93-5.56,0-5.99Z"/>
            <path class="cls-7" d="m291.3,135.41c.45.99,3.98,12.68,4.5,11.74.16-1-.29-1.81-.5-2.75l1.5-.5c-.58,4.42-1.92,8.82-3.5,12.99-.9.21-1.19-.68-1.5-1.25-.47-.87-1.41-8.03-8.49-17.73l7.99-2.5Z"/>
            <path class="cls-41" d="m264.33,126.92c-2.62,3.04-5.53-2.81-8.99-3.5-.22-.78-2.67-8.36-2.25-8.49,3.65,4.09,7.48,8,11.24,11.99Z"/>
            <path class="cls-31" d="m256.84,111.94c-.77,1.37-4.05.99-4.74,1.5-.54.39.67.85.25,1.25-4.57,4.3.02-4.14-5.99-3.25.58-.58,3.94-4.54,4.25-4.5,1.5,2.29,4.12,3.44,6.24,4.99Z"/>
            <path class="cls-38" d="m281.31,91.96c1.18,1.35,3,3.54,4,4.99,2.2,3.22,4.44,7.4,5.99,10.99-3.01-3.72-5.95,3.92-10.99,5.49-.98-1.45-1.95-3.12-3-4.5,1.42-.75,1.77-2.58,2-4,1.55,1.33,2.44-2.86,2.5-4,.16-3-1.34-6.49-1.5-9.49.05.05.96.46,1,.5Z"/>
            <path class="cls-18" d="m285.31,86.47c3.88-.55,1.44,2.12-1,4-.13.1-2.42,1.35-3,1.5-.04-.04-.95-.45-1-.5-2.32-2.49-4.05-6.4-7.99-6.49,1.77-1.88,3-3.68,4.99-5.49,6.07,2.7,4.73,7.94,5.24,7.99.67-.02,2.6-.98,2.75-1Z"/>
            <path class="cls-3" d="m277.32,108.94c1.05,1.38,2.01,3.05,3,4.5,5.54,8.17,12.86,21.43,14.98,30.97.21.94.66,1.74.5,2.75-.52.94-4.05-10.75-4.5-11.74-2.25-4.97-5.69-9.33-8.49-13.99-1.55-2.58-3.35-4.99-4.99-7.49-.09-.14.06-.67-1.5-3-1.45-2.17-2.97-4.38-4.5-6.49l.5-1.5c1.69,1.9,3.46,3.97,4.99,5.99Z"/>
            <path class="cls-49" d="m272.32,102.95l-.5,1.5c-.29-.41-1.14-1-1.5-1.5-6.45-8.93-3.84-6.56,2,0Z"/>
            <path class="cls-46" d="m281.81,100.95c-.06,1.13-.94,5.33-2.5,4,.11-.7-1.56-5.59,2.5-4Z"/>
            <path class="cls-23" d="m248.35,131.92c-.8,4.03,3.31,3.08,1,5.49-2.73-2.44-13.22-11.02-13.99-11.99-.48-.6-1.13-1.7-.5-2.5,4.47,2.98,8.93,6.17,13.49,8.99Z"/>
            <path class="cls-38" d="m276.32,110.94c1.55,2.33,1.41,2.86,1.5,3-4.46,7.08-5.17,4.17-8.99,1.5,1.66.92,4.46-3.52,7.49-4.5Z"/>
            <path class="cls-31" d="m225.37,190.36c2.38,3.6,3.69,6.95,4.99,8.99h-2c-1.87-3.66-10.14-13.03-13.49-15.48v-6.49c3.81,4.22,7.35,8.22,10.49,12.99Z"/>
            <path class="cls-32" d="m230.37,185.86c.21.9,1.47,2.36,1.5,2.5.44,2,1.17,11.82-.75,12.49-1-.68-.69-1.41-.75-1.5-1.3-2.04-2.62-5.39-4.99-8.99,2.28-.97,2.3-4.45,4.99-4.5Z"/>
            <path class="cls-36" d="m291.3,107.94c1.57,3.61,2.55,7.17,3.5,10.99,1.04,4.19,1.57,5.94,2,10.49.25,2.6.55,4.85.5,7.49-.04,2.37-.19,4.65-.5,6.99l-1.5.5c-2.13-9.53-9.44-22.8-14.98-30.97,5.04-1.57,7.97-9.21,10.99-5.49Z"/>
            <path class="cls-31" d="m306.78,127.42c-3.55-.38-6.58,1.27-9.99,2-.43-4.55-.95-6.3-2-10.49l10.74-1.5c1.1,3.18,1.25,6.25,1.25,9.99Z"/>
            <path class="cls-31" d="m306.78,127.42c0,9.99,1.8,11.18-9.49,9.49.05-2.65-.25-4.89-.5-7.49,3.41-.73,6.44-2.38,9.99-2Z"/>
            <path class="cls-31" d="m284.31,90.46c.23,1.57.48,4.43,2.5,4-.18.19,1.74.92-1.5,2.5-1-1.46-2.81-3.64-4-4.99.57-.15,2.86-1.4,3-1.5Z"/>
            <path class="cls-18" d="m214.88,183.86c3.35,2.45,11.62,11.83,13.49,15.48,1.82,3.57,5.77,14.84,1.5,16.48-1.78-11.17-9.48-20.41-16.48-28.97-.17-.21-.26-1.47-3-4.5-.58-1.62,3.68.9,4.5,1.5Z"/>
            <path class="cls-32" d="m230.37,218.83c0,.81-.26,1.7.5,2.25-.83,5.41-16.63,15.02-21.48,18.23-1.41-2.23.02-7.12,0-7.49,3.74-.86,6.62-3.08,9.49-5.49,4.23-.14,8-5.74,11.49-7.49Z"/>
            <path class="cls-31" d="m230.37,218.83c-3.48,1.75-7.25,7.36-11.49,7.49,2.01-1.69,3.45-4.89,5.74-6.49.5-.35,3.66.12,5.24-3,.01.1.51-.53.5,2Z"/>
            <g>
              <path class="cls-33" d="m205.39,251.79c.02-.93.61-1.71,1-2.5,1.89-3.8,5.44-7.61,8.49-10.49,1.14-1.07,11.03-9.2,11.74-8.99,2.56.75-4.75,10.7-8.49,13.99-3.39,2.98-8.76,5.72-12.74,7.99Z"/>
              <path class="cls-10" d="m214.88,238.8c-3.05,2.88-6.6,6.69-8.49,10.49-1.02-.21-.31-.84,0-1.5,2.37-4.98,2.57-6.84,8.49-8.99Z"/>
              <path class="cls-31" d="m206.39,247.8c-.31.66-1.02,1.29,0,1.5-.39.79-.98,1.56-1,2.5-1.57.89-2.78,1.98-4.25,3l-.75-.75c3.69-1.79,3.8-7.7,5.99-6.24Z"/>
              <path class="cls-7" d="m237.86,198.35c-.05,1.62-.36,7.11-1.5,6.99.3-5.98-.98-11.58,1.5-6.99Z"/>
            </g>
            <path class="cls-23" d="m206.89,179.37c1.09,1.04,2.87,1.4,3.5,3,2.74,3.03,2.83,4.29,3,4.5-2.65,3.38-6.94.26-10.74,2.5v-1c3.73-2.61,9.88-1.29,6.99-2.5-6.28-2.62-23.99,1.47-4.5-3.5.56-.57-1.57-3.28,1.75-3Z"/>
            <g>
              <path class="cls-31" d="m233.86,167.38c1.13,3.68,2.05,7.66,2.5,11.49-1.21,5.18,1.82,8.15-4.5,9.49-.03-.14-1.29-1.6-1.5-2.5-.34-1.47-2.66-7.9-1.25-8.49.41-.17,3.06,2.85,1.25-2.25-.16-.44-.98-.19-1-.25-1.81-4.98-2.84-10.67-4.99-15.48,4.7,4.63.32,5.92,9.49,7.99Z"/>
              <path class="cls-31" d="m229.12,169.38c1.66-.76,1.33,1.51.5,1.5-.08,0-.83-1.35-.5-1.5Z"/>
            </g>
            <g>
              <g>
                <path class="cls-46" d="m176.42,192.35c-.03.08-1.31-.47-1,1.25,2.6,6.35,4.36,13.09,5.99,19.73l-1,1.5c-2.28-6.7-16.1-24.99-20.98-32.97,3.13-2.87,1.58-4.16,4-5.49,8.48,7.98,8.68,10.81,12.99,15.98Z"/>
                <path class="cls-46" d="m182.92,235.81c-.24,4.68-.3,7.07-2.5,10.99-1.17,2.08-3.78,3.29.5,1.5.19,6.16-4.09,3.68-3,5.24.58.83,2.51,1.25,3.5.75-.09.2.47.78-1.5,4-.23-5.75-4.78,1.91-6.24,3-9.91,7.3-13.64,1.87-15.23,5.49-4.52-.58-8.23-2.11-12.49-3.5-.06-1.66,4.07-.16,8.74-.5,3.7-.27,11.15-2.19,13.99-4.5.29-.23,4.27-5.07,4.74-5.74,3.25-4.62,6.74-16.34,9.49-16.73Z"/>
                <path class="cls-38" d="m181.42,254.29c-.98.5-2.91.08-3.5-.75-1.1-1.56,3.19.91,3-5.24,0-.08.93-.39-.5-1.5,2.2-3.92,2.26-6.31,2.5-10.99.34-6.79-.28-14.49-2.5-20.98l1-1.5c3.09,12.52,6.87,20.28,3,35.21-3.16,3.21-1.87,5.2-2,5.49-.2.45-.97.18-1,.25Z"/>
                <path class="cls-5" d="m176.42,192.35c.55.67.83,1.68,2,1.5-.03,3.39,2.72,4.03,4,6.24.05.09-.95.34,0,2,.17.3,4.17,4.59,4.5,5.24.02.05.68-.17.5,1,1.57,6.62,4.52,12.66,5.49,19.48-4.27-.99-1.25,12.55-2.5,19.73-4.75,1.4-5.87,9.17-4.25,9.24.32.01,3.02-6.36,2.75-1.5-3.25,5.07-6.25,7.77-11.99,9.99.14-2.4-3.14-.65-2.5-2.75.11-.37,4.54-4.25,4.74-2.25,1.11-.66.61-1.78.75-2,1.97-3.22,1.41-3.8,1.5-4,.03-.07.8.2,1-.25.13-.29-1.16-2.29,2-5.49,3.87-14.94.09-22.69-3-35.21-1.64-6.64-3.39-13.38-5.99-19.73-.31-1.72.97-1.17,1-1.25Z"/>
                <path class="cls-12" d="m179.92,258.28c-.13.22.36,1.34-.75,2-.2-2-4.63,1.88-4.74,2.25-.64,2.1,2.64.34,2.5,2.75-1.25.49-4.34.57-5.49,2-4.29.18-8.72.04-12.99-.5,1.6-3.62,5.33,1.81,15.23-5.49,1.47-1.08,6.01-8.74,6.24-3Z"/>
                <g>
                  <path class="cls-2" d="m145.45,287.75c-1.05,1.38-1.9.02-2,0h2Z"/>
                  <g>
                    <path class="cls-46" d="m164.93,245.8c-6.5,9.45-21.9,11.46-31.97,7.24.73-4.03,5.69-5.56,4.5-6.74.56.2,1.41.33,2,.5,6.9,1.96,10.98,1.38,17.73.5.42-.06.05,1.95,7.74-1.5Z"/>
                    <path class="cls-55" d="m137.46,260.28l-.5.5c-8.46-4.68-7.12-3.6.5-.5Z"/>
                    <g>
                      <path class="cls-33" d="m147.95,195.35c13.85,10.77,28.61,33.54,16.98,50.45-7.69,3.44-7.32,1.44-7.74,1.5-6.75.88-10.83,1.46-17.73-.5,6.19-.26,8.87.56,14.48-2.5,15.21-8.28,10.61-28.94-1.5-42.46l-5.49-6.24,1-.25Z"/>
                      <path class="cls-1" d="m153.95,244.3c-5.62,3.06-8.3,2.23-14.48,2.5-.59-.17-1.44-.3-2-.5-6.72-2.41-15.12-10.3-19.48-15.98l1.5-1c7.42,10.24,22.08,16.74,33.21,7.99,6.67-5.24,5.86-11.64,4.74-18.98-.03-.2.85-.16,0-4l.25-1c3.96,5.37,5.29,14.61,2.75,20.73-3.31,7.97-15.45,6.95-6.49,10.24Z"/>
                      <path class="cls-37" d="m147.95,195.35l-1,.25,5.49,6.24c-4.13-4.61-11.08-10.18-16.98-11.99-11.18-3.43-20.9-1.53-24.47,10.49-.01.05-.9-.18-1,.25-.94,3.87.11,7.88-1,11.74-3.9-24.17,16.11-34.75,38.96-16.98Z"/>
                      <path class="cls-8" d="m114.49,199.85c-4.94,7.52.12,22.74,4.99,29.47l-1.5,1c-3.93-5.13-7.95-11.53-8.99-17.98,1.11-3.85.06-7.86,1-11.74.1-.43.98-.2,1-.25.52,2.95,1.52-1.81,3.5-.5Z"/>
                      <path class="cls-1" d="m152.45,201.84c12.1,13.52,16.71,34.18,1.5,42.46-8.96-3.29,3.18-2.27,6.49-10.24,2.54-6.12,1.21-15.36-2.75-20.73l-.25,1c-2.62-4.31-5.5-10.92-9.49-14.73-.37-.36-7.52-5.75-8.24-6.24-1.69-1.15-7.03-2.19-4.25-3.5,5.91,1.81,12.85,7.38,16.98,11.99Z"/>
                      <path class="cls-56" d="m157.44,218.33c1.11,7.34,1.93,13.74-4.74,18.98-11.14,8.75-25.8,2.25-33.21-7.99-4.88-6.73-9.94-21.94-4.99-29.47,8.32-12.66,36.46-4.27,42.95,18.48Z"/>
                      <path class="cls-35" d="m135.47,189.86c-2.79,1.31,2.56,2.35,4.25,3.5.72.49,7.87,5.89,8.24,6.24,3.99,3.81,6.87,10.43,9.49,14.73.85,3.83-.03,3.8,0,4-6.49-22.75-34.64-31.14-42.95-18.48-1.97-1.31-2.97,3.45-3.5.5,3.58-12.02,13.29-13.92,24.47-10.49Z"/>
                    </g>
                  </g>
                </g>
                <path class="cls-41" d="m180.92,248.29c-4.28,1.79-1.67.58-.5-1.5,1.43,1.11.5,1.42.5,1.5Z"/>
                <path class="cls-55" d="m192.9,227.82c.28,1.98.39,3.99.5,5.99.23,4.16.26,7.84-.5,11.99-.87,4.78-1.47,5.55-4,9.49.27-4.86-2.42,1.51-2.75,1.5-1.63-.07-.51-7.84,4.25-9.24,1.24-7.18-1.77-20.71,2.5-19.73Z"/>
              </g>
              <g>
                <path class="cls-31" d="m153.95,157.39l-6.49,6.49c-1.1-.73-2.36-1.32-3.5-2l4.99-7.49c2.34.72,4.66.94,4.99,3Z"/>
                <path class="cls-50" d="m162.94,160.39c-2.56,5.62-3.12,13.91-7.99,5.24l4-8.24c2.03,1.23,2.32,1.56,4,3Z"/>
                <path class="cls-28" d="m158.94,157.39l-8.49,8.49c-.22-.15-.78-.35-1-.5-.14-3.52,5.04-4.65,4.5-7.99-.34-2.06-2.66-2.28-4.99-3-.31-.1-1.15.21-1.5-1,5.04-1.01,7.5,1.57,11.49,4Z"/>
                <path class="cls-17" d="m147.45,153.39c.35,1.21,1.18.9,1.5,1l-4.99,7.49c-.75-.45-4.38-1.68-4.5-2.25,2.54-3.11,3.6-5.37,7.99-6.24Z"/>
                <path class="cls-29" d="m149.45,165.38c-.68-.47-1.33-1.05-2-1.5l6.49-6.49c.55,3.34-4.63,4.47-4.5,7.99Z"/>
                <path class="cls-18" d="m168.93,168.88c.36.15,5.32,4.4,5.49,5.49-2.08,1.25,0,3.2-5.49-.5,1.21-2.64-1.88.85-4.74,0-.88-.26-.45-1.5-1.25-2l2.5-3c1.26-.16,2.19-.54,3.5,0Z"/>
                <g>
                  <path class="cls-31" d="m180.92,174.37c1.64,2.9,3.01,1.76,4.5,3.5,1.07,1.25,2.05,4.31,3,5.49-.11-.2-2.86-.93-2.5.75.29,1.35,3.07.31,2.5-.75.74.93,1.31,1.33,2.5,3-1.59,2.83-.51,3.75-2,6.99-.07.15.04.63,0,1-1.13.79-1.73.34-2,.75-.23.34,1.45,5.6-.5,7.49.5.93.78,2.24,1,3.25l-.5,1.5c-.33-.65-4.32-4.94-4.5-5.24-.95-1.66.05-1.91,0-2-1.27-2.21-4.03-2.85-4-6.24.03-3.73,3.32-2.59,3-3.25-.32-.66-2.48.62-2-1.75,1.13-1.02,2.13-.86.5-2,3.79-.84-3.6-3.99-2,0-4.1-1.3,4.08-4.24.75-6.99-.47-.39-2.51,1.21-3.25.25-.28-.37,1.18-.65,1-5.74-.02-.5.72-.87,1-1.25l-.75-.25c-.76.48-1.48,1.04-2.25,1.5-.17-1.09-5.14-5.35-5.49-5.49l1-1c5.6.74,8.66,1.31,8.24,7.49,2.31-7.49-.22-6.24,2.75-1Z"/>
                  <g>
                    <path class="cls-29" d="m179.67,194.35c3.8.12,4.67,3.21,4.99,6.49-.54.32-4.3-4.76-4.99-6.49Z"/>
                    <path class="cls-19" d="m178.42,193.85c-1.17.18-1.44-.83-2-1.5.04-.11.76.27.5-2.25.56-.97,1.79-.61,2.5-1.25-.49,2.37,1.67,1.09,2,1.75.32.65-2.96-.49-3,3.25Z"/>
                    <path class="cls-37" d="m179.92,186.86c-.35.08-1.73.08-2,0-1.6-3.99,5.79-.84,2,0Z"/>
                    <path class="cls-20" d="m188.41,183.36c.57,1.06-2.21,2.1-2.5.75-.36-1.68,2.39-.95,2.5-.75Z"/>
                    <path class="cls-6" d="m182.67,191.85c2.85-.97,1.25,1.95-.5,1-.47-.26.32-.94.5-1Z"/>
                    <path class="cls-29" d="m183.66,186.36c.95-.08.57,1.97-.5,1.5-.69-.31.19-1.47.5-1.5Z"/>
                  </g>
                </g>
                <g>
                  <path class="cls-31" d="m158.94,157.39l-4,8.24c4.87,8.67,5.43.38,7.99-5.24,3.22,2.77,4.45,3.36,6.99,7.49l-1,1c-1.31-.54-2.24-.16-3.5,0-2.02.25-3.39,1.45-5.49,1.25.1.7,2.47,1.42,3,1.75.8.5.37,1.74,1.25,2,2.86.85,5.96-2.64,4.74,0l-1,.25c3.93,2.92,4.55,4.06,8.49.25.18,5.09-1.28,5.38-1,5.74.74.96,2.78-.64,3.25-.25,3.33,2.75-4.85,5.69-.75,6.99.26.08,1.64.08,2,0,1.63,1.14.63.98-.5,2-.71.64-1.94.28-2.5,1.25.26,2.52-.46,2.14-.5,2.25-4.3-5.18-4.5-8-12.99-15.98-3.07-2.89-9.54-8.09-12.99-10.49l8.49-8.49Z"/>
                  <path class="cls-29" d="m176.42,174.37c-3.94,3.81-4.57,2.67-8.49-.25l1-.25c5.49,3.7,3.42,1.75,5.49.5.77-.46,1.49-1.02,2.25-1.5l.75.25c-.28.38-1.02.75-1,1.25Z"/>
                  <path class="cls-21" d="m165.43,168.88l-2.5,3c-.53-.33-2.89-1.04-3-1.75,2.11.2,3.47-1,5.49-1.25Z"/>
                  <path class="cls-52" d="m177.17,180.87c3.17-.32-2.13,3.32-2.75,2.25-.4-.7,2.57-2.23,2.75-2.25Z"/>
                </g>
                <path class="cls-18" d="m203.39,203.34c1.73,3.17,3.9,8.23,4.5,11.74.24,1.4,1.42,14.78,1.5,16.73.02.37-1.41,5.26,0,7.49-2.25,1.49-4.3,2.61-6.49,4-1.41.54-.44-1.62,0-2.5,2.13-4.22,6.31-8.16,4.74-13.49-1.53.96-2.05,1.11-3.75,1.5-.47.11-1.62,1.06-3.5.25,1.59-1.28,6.78-7.68,6.99-8.49,2.23-8.56-7.75,6.64-7.99,1.5-.47-10.07,10.54-4.83,5.49-14.48-2.44-4.67-2.77,6.28-8.99-1.25l.5-1.5c5.03-4.37,3.81,2.35,6.99-1.5Z"/>
                <path class="cls-31" d="m202.89,240.8c-.44.88-1.41,3.03,0,2.5-1.29.81-1.88,1.92-2,2-.68.45,1.23,1.1-3,1-.6-.01-2.93-1.24-4.99-.5.76-4.15.73-7.83.5-11.99,4.58-2.53,2.56.82,4.74,1,.4.03.2-.99.25-1,2.24-.25,3.02-.76,4.99-3,3.92-.47-2.8,4.11-.5,9.99Z"/>
                <path class="cls-31" d="m197.9,246.3c-1.11,5.42-8.22,11.62-6.99,16.48-1.08.58-7.92,3.21-9.24,3.5-2.53.56-7.45.88-10.24,1,1.16-1.43,4.24-1.51,5.49-2,5.74-2.22,8.74-4.92,11.99-9.99,2.52-3.94,3.12-4.71,4-9.49,2.07-.74,4.39.48,4.99.5Z"/>
                <path class="cls-18" d="m190.91,262.78c-1.23-4.87,5.88-11.06,6.99-16.48,4.22.1,2.32-.55,3-1,1.99.55-.64,1.83-1.5,4.74-1.02,3.45,2.87,6.09-5.24,6.24-1.74,1.17,5.23,1.91-3.25,6.49Z"/>
                <path class="cls-31" d="m203.39,203.34c-3.18,3.85-1.97-2.87-6.99,1.5-.16.14-1.2-.27-1.5.25-.3,1.72.93,1.16,1,1.25,6.22,7.53,6.55-3.42,8.99,1.25,5.05,9.65-5.97,4.42-5.49,14.48.24,5.14,10.22-10.06,7.99-1.5-.21.81-5.4,7.21-6.99,8.49,1.87.81,3.03-.14,3.5-.25.6.79.35,1.03-.5,2-1.98,2.23-2.76,2.74-4.99,3-.3-9.08-.6-18.5-4.99-26.72,2.62-6.33-3.16-4.44,2-8.74.14-.12.8.34,2.75-2.5.46,0,4.43,6,5.24,7.49Z"/>
                <g>
                  <path class="cls-18" d="m195.4,198.35c-5.16,4.3.62,2.41-2,8.74,4.4,8.23,4.69,17.65,4.99,26.72-.05,0,.15,1.03-.25,1-2.19-.18-.17-3.53-4.74-1-.11-2-.22-4.01-.5-5.99-.97-6.82-3.92-12.86-5.49-19.48,2.83,1.66.27-1.28,0-2.5-.22-1.01-.5-2.32-1-3.25,1.95-1.89.27-7.15.5-7.49.27-.41.87.04,2-.75.21-.15,2.52-.44,0-1,1.49-3.25.41-4.16,2-6.99.64.89,5.54,6.27,5.49,6.74-.07.71-5.23,2.18-1,5.24Z"/>
                  <path class="cls-47" d="m187.41,208.34c.18-1.17-.47-.95-.5-1l.5-1.5c.27,1.22,2.83,4.15,0,2.5Z"/>
                  <path class="cls-22" d="m188.91,194.35c.04-.37-.07-.85,0-1,2.52.56.21.85,0,1Z"/>
                  <path class="cls-37" d="m190.66,188.36c3.49,2.06,1.47,4.46,1.75,7.74.02.27,3.49,4.08-.75,3.75-4.6-.37-.29-8.42-1-11.49Z"/>
                </g>
                <path class="cls-33" d="m202.89,240.8c-2.3-5.88,4.42-10.46.5-9.99.85-.96,1.1-1.21.5-2,1.7-.39,2.22-.53,3.75-1.5,1.56,5.32-2.62,9.27-4.74,13.49Z"/>
                <path class="cls-22" d="m196.4,204.84l-.5,1.5c-.07-.09-1.3.47-1-1.25.3-.52,1.33-.11,1.5-.25Z"/>
              </g>
            </g>
          </g>
        </g>
      </g>
      <g>
        <path class="cls-4" d="m27.58,223.82c.2.47.43.95,1,1,.58,3.24.96,2.37,1,2.5.27.8.02,2.14.5,3-11.98-9.99-25.94,4.17-24.97,16.98-.64-5.15-.1-9.01,1.5-13.99.2-.61.91-1.79,1.5-2.25l-.75-.75-5.24,6.99s-.76.04-.5-.75c1.42-4.38,12.14-12.04,16.23-12.74,3.04-.52,6.64.48,9.74,0Z"/>
        <path class="cls-6" d="m6.6,233.31c-6.16,4.51-4.34,16.81-1,22.48-.8.15-1.35-.1-2-.5-.06-.04-.79-.79-1-1-1.72-4.89-1.6-9.41-1-14.48.11-.94.28-1.61.5-2.5l5.24-6.99.75.75c-.59.46-1.3,1.64-1.5,2.25Z"/>
        <path class="cls-4" d="m1.61,239.8c-.6,5.07-.72,9.6,1,14.48-.87-.88-1.66-1.82-2-3-1.12-3.93-.63-13.26,1-11.49Z"/>
        <path class="cls-51" d="m46.06,261.78c-.11.03-.47.66-2,1-8,1.76-15,5.86-27.97-.5,10.67,3.52,19.24,3.55,29.47-1.5l.5,1Z"/>
        <path class="cls-4" d="m5.6,255.79c.69,1.18,2.25,2.93,3,1.5.18.24,3.58,2.85,4.5,4-3.56.15-9.19-2.52-9.49-5.99.65.4,1.19.65,2,.5Z"/>
        <path class="cls-51" d="m15.09,261.78c-.46-.15-.94-.05-1.5-.5.08-.01.43-1.5,1.5.5Z"/>
        <path class="cls-18" d="m5.1,247.3c.4,3.18,1.57,7.4,3.5,9.99-.74,1.43-2.3-.32-3-1.5-3.34-5.66-5.16-17.97,1-22.48-1.6,4.98-2.14,8.84-1.5,13.99Z"/>
      </g>
    </g>
  </g>
</svg>