<?xml version="1.0" encoding="UTF-8"?>
<svg id="_Шар_2" data-name="Шар 2" xmlns="http://www.w3.org/2000/svg" viewBox="0 0 378.39 327.75">
  <defs>
    <style>
      .cls-1 {
        fill: #3c160b;
      }

      .cls-1, .cls-2, .cls-3, .cls-4, .cls-5, .cls-6, .cls-7, .cls-8, .cls-9, .cls-10, .cls-11, .cls-12, .cls-13, .cls-14, .cls-15, .cls-16, .cls-17, .cls-18, .cls-19, .cls-20, .cls-21, .cls-22, .cls-23, .cls-24, .cls-25, .cls-26, .cls-27, .cls-28, .cls-29, .cls-30, .cls-31, .cls-32, .cls-33, .cls-34, .cls-35, .cls-36, .cls-37, .cls-38, .cls-39, .cls-40, .cls-41, .cls-42, .cls-43, .cls-44, .cls-45, .cls-46, .cls-47, .cls-48, .cls-49, .cls-50, .cls-51, .cls-52, .cls-53, .cls-54, .cls-55, .cls-56, .cls-57, .cls-58, .cls-59, .cls-60, .cls-61, .cls-62, .cls-63, .cls-64, .cls-65, .cls-66, .cls-67 {
        stroke-width: 0px;
      }

      .cls-2 {
        fill: #9b7d6d;
      }

      .cls-3 {
        fill: #572b23;
      }

      .cls-4 {
        fill: #982e2c;
      }

      .cls-5 {
        fill: #5c4033;
      }

      .cls-6 {
        fill: #afa297;
      }

      .cls-7 {
        fill: #acaead;
      }

      .cls-8 {
        fill: #3c3f40;
      }

      .cls-9 {
        fill: #4f3127;
      }

      .cls-10 {
        fill: #b1c1bd;
      }

      .cls-11 {
        fill: #d1bab4;
      }

      .cls-12 {
        fill: #857e7b;
      }

      .cls-13 {
        fill: #eacaa6;
      }

      .cls-14 {
        fill: #5d6762;
      }

      .cls-15 {
        fill: #d09e7a;
      }

      .cls-16 {
        fill: #292923;
      }

      .cls-17 {
        fill: #dbc6b5;
      }

      .cls-18 {
        fill: #3d2c22;
      }

      .cls-19 {
        fill: #c2b09d;
      }

      .cls-20 {
        fill: #7d3e32;
      }

      .cls-21 {
        fill: #a3765e;
      }

      .cls-22 {
        fill: #6f615c;
      }

      .cls-23 {
        fill: #c0b5ad;
      }

      .cls-24 {
        fill: #bfc6c9;
      }

      .cls-25 {
        fill: #60564f;
      }

      .cls-26 {
        fill: #2c221f;
      }

      .cls-27 {
        fill: #86563c;
      }

      .cls-28 {
        fill: #e6bea2;
      }

      .cls-29 {
        fill: #393331;
      }

      .cls-30 {
        fill: #1f1a1c;
      }

      .cls-31 {
        fill: #e2a394;
      }

      .cls-32 {
        fill: #4c4940;
      }

      .cls-33 {
        fill: #c38461;
      }

      .cls-34 {
        fill: #998977;
      }

      .cls-35 {
        fill: #c6917e;
      }

      .cls-36 {
        fill: #581f04;
      }

      .cls-37 {
        fill: #7b685a;
      }

      .cls-38 {
        fill: #bfa49a;
      }

      .cls-39 {
        fill: #37201b;
      }

      .cls-40 {
        fill: #757576;
      }

      .cls-41 {
        fill: #241009;
      }

      .cls-42 {
        fill: #6c271e;
      }

      .cls-43 {
        fill: #ad6747;
      }

      .cls-44 {
        fill: #6f4f3c;
      }

      .cls-45 {
        fill: #e5937c;
      }

      .cls-46 {
        fill: #9e5f37;
      }

      .cls-47 {
        fill: #565a5a;
      }

      .cls-48 {
        fill: #d9dcdf;
      }

      .cls-49 {
        fill: #d9d3cc;
      }

      .cls-50 {
        fill: #3a2011;
      }

      .cls-51 {
        fill: #7e8284;
      }

      .cls-52 {
        fill: #ae8466;
      }

      .cls-53 {
        fill: #646a6e;
      }

      .cls-54 {
        fill: #946958;
      }

      .cls-55 {
        fill: #eaa564;
      }

      .cls-56 {
        fill: #f7f8f9;
      }

      .cls-57 {
        fill: #8e7654;
      }

      .cls-58 {
        fill: #7a574b;
      }

      .cls-59 {
        fill: #f4e6dc;
      }

      .cls-60 {
        fill: #837b6f;
      }

      .cls-61 {
        fill: #c9a78e;
      }

      .cls-62 {
        fill: #b59377;
      }

      .cls-63 {
        fill: #070707;
      }

      .cls-64 {
        fill: #9b513c;
      }

      .cls-65 {
        fill: #1b120c;
      }

      .cls-66 {
        fill: #6b331f;
      }

      .cls-67 {
        fill: #7d5e4b;
      }
    </style>
  </defs>
  <g id="_Шар_1-2" data-name="Шар 1">
    <g>
      <g>
        <path class="cls-56" d="m367.88,304.18c-2.75,5.83-25.13,21.73-29.25,23.5-.34.14-1.3.13-1.25-.5,14.17-8.98,24.78-19.42,28.5-22,.59-.41,1.2-1.14,2-1Z"/>
        <path class="cls-8" d="m364.38,303.68s-.95,0-1,0c1.22-3.77,1.47-6.81,0-10.5,3.86,3.04,2.64,6.5,1,10.5Z"/>
      </g>
      <path class="cls-12" d="m.9,150.69c1.18-.19.95.49,1,.5v.5c-3.43-1.03-1.21-.77-1-1Z"/>
      <g>
        <path class="cls-8" d="m334.38,283.68c-2.65,3.37-3.45,7.66-5,11.5-.51,1.26-1.28,2.58-2,3.75l1,.25c-.07.38-.33.65-.5,1-1.05,2.14-4.7,6.24-6.5,8-1.58,1.54-4.51,3.16-6.25,5.5-1.16-.39,8.34-10.96,9.75-13.75,4.72-9.33,1.85-13.93,4.5-12.5.85,6.17.36-2.58,4.5-4.25.71.21.47.49.5.5Z"/>
        <g>
          <path class="cls-51" d="m293.88,208.68c.41.13,1.26-.13,1.5,0-1.2,1.39-3.8.01-4,0l.5-.5c.65.18,1.48.33,2,.5Z"/>
          <path class="cls-40" d="m295.38,210.68c-1.59,1.89-1.45.69-4,.5.59-1.03,2.99-.29,4-.5Z"/>
          <path class="cls-60" d="m251.14,226.18c.48.22-1.18,7.75-1.5,8-.11.09-2.23-1.61-2.25-1.75-.06-.36,2.05-1.72,3.75-6.25Z"/>
        </g>
        <g>
          <path class="cls-41" d="m209.39,136.69c.5.15,1.74-.28,2,.25-.81.28-1.33.74-2,1.25-.67.52-1.44.87-2,1.5-9.44,2.09-20.45,7.45-30.75,8.5-7.59,2.22-18.01,7.16-25,9-9.6,2.52-21.05,3.03-23,3.5-.37.09-.25.66-.25,1-1.19-.78-2.53-1.39-3.5-2.5,11.9-.78,22.98-3.52,34-8,3.9-1.59,7.9-3.01,11.5-5.25-.17-4.23-30.82,5.74-33,6.25-6.9,1.61-13.87,3.3-21,3-.74-.49-5-.73,4.25-3,4.06-.99,7.03-.37,9.5-1,6.15-1.58,15.51-5.43,24.5-7.5,9.94-2.29,28.91-5.31,39.25-6.5,4.64-.53,11.03-.7,12.25-2,1.93,1.68,2.91,1.4,3.25,1.5Z"/>
          <path class="cls-41" d="m136.39,68.69c-13.11,2.4-17.53,7.38-20.75-2-2.02-.23-23.37-11.57-23.75-10.25,1.21.94,3.87,6.8,2.25,7.25-7.24-2.91-19.46-6.87-8.25-4.75-1.99-2.8-5.01-3.64-8.25-4.25l-4.25-6.5c6.23-.23,25.1,3.86,23.75,8,7.92,5.08,39.46,8.44,50,8.5-3.31,3-10,1.78-10.75,4Z"/>
          <path class="cls-1" d="m190.39,118.69c-1.81.61-1.89.97-2,1-.72.22-2.27,1.57-4.75,2-11.23-.69-21.86,3.3-32.75,5-7.15,1.12-14.2,1.83-21.5,1.5-.31-.32-1.15-.44-1.5-.75-.07-1.17,17.09-6.31,19.5-7.25-4.88,4.79,5.17.71,6.75.5,5.8-.79,12.44-.09,18-1,12.02-1.96,4.65-7.74-8-3.5-.35-2.89,5.07-1.4,2.75-4,5.77.23,11.88-2.7,17.25-2,1.13.15,9.63,3.61,9.75,4.75.19,1.81-3.69,1.82-3.5,3.75Z"/>
          <path class="cls-1" d="m214.39,125.69c6.04-.05,18.03-.44,22.5,0,.98.1,3.95.5,3.5,1.5-2.57,1.58-5.08,2.86-8.25,2.5-9.49-1.08,4.86-.89,4.75-2.25-3.75-4.51-35.95,4.18-35.5,6,5.79-1.48,29.93-4.28,33.25-3.25,2.4.74.3,1.37.25,1.5-9.18-1.57-8.28.48-8.75.5-.38.02.12-1.07-1-1-6.28.39-12.53,2.14-18.75,3-4.36.6-8.64,1.86-13,2.5-3.72.55-12.08.66-20.25,2-10.84,1.78-21.58,4.41-32.25,7,6.37-2.37,12.59-3.93,19-6,4.16-1.34,8.33-2.66,12.5-4,2.6.42,3.43-1,4.5-1.5,6,3.03,14.19-9.25,19.75-10,5.11-.69-1.36,2.03.75,4.25-.53,1.03-5.73,1.77-3.25,3.75l20.25-6.5Z"/>
          <path class="cls-3" d="m212.39,115.69c-.68.3-1.72,1.15-2.5,1.5-1,.45.52.54-.25,1.5-18.44,1.03-16.89,6.28-18,7-1.05.68-13.98,8.14-14.75,8.5-1.07.5-1.9,1.92-4.5,1.5,1.09-2.4,7.12-3.56,1.5-5.5,7.66-3.62,15.17-6.08,10.75-6-3.56.06-25.04,7.27-31.75,7.5,9.16-4.75,1.35-3.29-2-5,10.89-1.7,21.52-5.69,32.75-5,2.48-.43,4.03-1.78,4.75-2l10-2.5c-.61,3.9,10.7-4.75,14-1.5Z"/>
          <path class="cls-5" d="m170.39,67.19c2.66,5.34-2.55,3.45,3,6.5-6.81,5.57-23.64,15.25-32,17.5-1.62.44-3.55.34-4,1-1.8-.2-3.71-.24-5.5-.5.07-.26.39-.87.5-1,1.45-1.73,2.49-3.79,4.5-5,.13,0-.32,1.25,2,.5,1.95-.63,24.95-13.83,28.5-16.5,1.01-.76,1.28-1.36,3-2.5Z"/>
          <path class="cls-65" d="m191.39,82.19c-.1-.08-.67-1.53-1.75-1.5-5.89,2.54-18.9,11.16-22.75,12.5-.58.2-.85.6-1.25,1-9.39-.45-18.88-.94-28.25-2,.45-.66,2.37-.56,4-1,3.43,1.62,8.12,1.31,12,1,8.26-.65,7.5-3.14,13.75-6,7.09-3.24,16.25-6.49,21.75-10,6.78,3.19,23.94,16.99,8.75,11-2.47-.98-4.62-3.6-6.25-5Z"/>
          <path class="cls-41" d="m176.39,170.19c-.33,0-.67,0-1,0,.19-2.31-4.5.31-6.5-2,5.89-2.79,20.23-3.71,16.5-8,.06-.02.29-.88.75-1,3.31-.88,24.73-5.86,26.5-6,11.09-.91,18.8,1.82,1.5,2.5-3.57,4.5-31.76,9.77-33,11-1.49,1.47,5.65,3.3-4.75,3.5Z"/>
          <path class="cls-1" d="m158.39,74.19c-6.71,3.29-19.2,7.28-19.5,12-2.32.75-1.87-.49-2-.5-2.66-.2-5.25,1.71-4.5,5-.11.13-.43.74-.5,1-2.51-.36-5.05-.56-7.5-1.25-.52-.7,4.86-4.23,5.5-4.75,5.58-4.51,9.17-6.08,9.75-6.5,3.25-2.39,5.57-6.89,9.75-6.75l-5-2.25c2.51-.6,5.1-1.01,7.5-2,7.92,1.51,5.16.64,11.75-.5,1.24,1.96-7.99,2.35-5.25,6.5Z"/>
          <path class="cls-1" d="m162.89,110.19c-.28.4-.77,1.02,0,1,1.47,1.89,1.21.89,4,1,2.32,2.6-3.1,1.1-2.75,4,12.65-4.24,20.02,1.54,8,3.5-5.56.9-12.2.21-18,1-1.58.21-11.63,4.29-6.75-.5,5.91-3.55,20.43-7.69,13.75-7-1.74.18-21,6.21-33.75,9l24.5-7.5c4.04-.69,7.28-3.07,11-4.5Z"/>
          <path class="cls-27" d="m147.89,109.19c1.64,1.72,4.51,2.67,4,5.5l-24.5,7.5c-2.65.58-5.33,1.47-8,2-.46-1.57,4.75-1.3,5-2.25.03-.13-1.54-.23-1-1.5.1-.24,4.47-2.1-.5-2.25.23-.1,2.2-1.57,4.5-2.25-.36-.74-3.65.13-4.5.25v-1c5.88-.55,19.27-3.95,25-6Z"/>
          <path class="cls-20" d="m150.89,126.69c3.35,1.71,11.16.25,2,5-5.91,3.06-19.77,4.69-27,6v-1.5c.43-.11,7.96-3.31,8-3.75-1.34-1.58-3.06-2.77-4.5-4.25,7.3.33,14.35-.38,21.5-1.5Z"/>
          <path class="cls-2" d="m122.89,118.19c4.97.15.6,2.01.5,2.25-.54,1.27,1.03,1.37,1,1.5-.25.95-5.46.68-5,2.25-10.91,2.16-22.43,2.73-33,6l-1.5-.5c-2.58.36-8.13,2.94-7.5-1.5,3.9.46,40.89-8.11,45.5-10Z"/>
          <path class="cls-61" d="m81.4,96.19c.08.06-.08.44,0,.5,4.96,3.54,15.07,10.33,20.5,12-1.89,1.34-5.45,1.15-8,1.5-8.74.65-15.38-9.45-21-15.5-.05-.15-1.32-.81-1-3,2.57,1.84,6.44,3.57,9.5,4.5Z"/>
          <path class="cls-3" d="m164.39,99.19c.05.47-.41.34-1,1-2.26,2.52-4.53,2.93-7.25,4.5-.83.48.53,1.22,0,1.5-1.73.91-6.06,2.22-8.25,3-5.73,2.05-19.12,5.45-25,6-.16.02-.33-.01-.5,0-.21-.51.9-1.95,1-2,5.2-2.89,24.29-2.96,11.5-5.5-4.54-4.14,13.54,2.5,24.25-7-.75-.04-1.51.06-2.25,0-5.06-.4-10.39-.21-15.25-2,7.58-.4,15.18.79,22.75.5Z"/>
          <path class="cls-64" d="m158.89,151.19c-11.01,4.48-22.1,7.22-34,8-3.71-.63-5.57-2.04-8.5-4,7.13.3,14.1-1.39,21-3,1.51,5.23,19.16-3.68,20.25-3.5.14.02,1.62,1.83,1.25,2.5Z"/>
          <path class="cls-58" d="m246.39,79.19c.26-.17.74-.34,1-.5l.5.5c-9.11,8.45-13.48,11.24-25.5,15-2.68-1.72-4.44-1.38-7.5-1l-.5-1c2.33-.61,4.71-1.74,7-2.5,3.49-1.16,11.71-1.83,9-5.5.12-.07,1.43-2.03,1.75-2,.78.08,1.01,2.44,1.75,3,1.64,1.23,9.83-4.71,10.75-6.5,1.28,0,.23,1.49,1.75.5Z"/>
          <path class="cls-2" d="m144.39,70.19l5,2.25c-4.18-.14-6.5,4.36-9.75,6.75-.57.42-4.17,1.99-9.75,6.5-.27-1.65-3.33-.51-3.5-1.75-.14-1.06,11.25-8.01,13-9l-3.5-.5c9.04-2.83-12.1,2.34,1.75-2.75,2.16-.8,4.54-.97,6.75-1.5Z"/>
          <path class="cls-9" d="m122.89,118.19c-4.6,1.89-41.59,10.46-45.5,10-.05,0,.17-.94-.25-1-18.22-2.54-10.1-3.44,6-.5,5.78-2.01,11.83-3.04,17.75-4.5,1.67-.41,3.34-.57,5-1,.13-.03.19-.97,2.25-1.5,4.81-1.24,9.84-2.79,14.75-3.5.85-.12,4.14-.99,4.5-.25-2.3.68-4.27,2.15-4.5,2.25Z"/>
          <path class="cls-65" d="m93.89,110.19c-7.12.98-14.19,2.1-21,4.5.13-.06.62-.49,2.5-1.5,2-1.07,3.88-.61,5-2.25q-3.25-5.12-6.5-10.25c-.08-.64-.78-.44,0-1.5-.12-1.08-.67-3.53-1-4.5,5.62,6.05,12.25,16.14,21,15.5Z"/>
          <path class="cls-57" d="m191.39,82.19l-18.5,12.5c-2.56-.12-3.81.55-6-1.5,3.85-1.34,16.86-9.96,22.75-12.5,1.08-.03,1.65,1.42,1.75,1.5Z"/>
          <path class="cls-58" d="m224.89,134.19c-14.57-.49-1.59,2.84,4.5,3-.06.03.18.89-.25,1-7.64,1.88-17.06-4.11-19.75-1.5-.34-.1-1.32.18-3.25-1.5-1.22,1.3-7.61,1.47-12.25,2l-.5-.5c4.36-.64,8.64-1.9,13-2.5,3.91,1.79,12.92-1.96,18.5,0Z"/>
          <path class="cls-20" d="m172.39,135.69c-4.16,1.34-8.34,2.66-12.5,4v-3c4.73-2,9.36-4.31,14-6.5,5.62,1.94-.41,3.1-1.5,5.5Z"/>
          <path class="cls-49" d="m73.9,99.19c-.78,1.06-.08.86,0,1.5,0,.05-.82-.18-1,.25.7,7.4,5.82,8.02,2.5,12.25-1.88,1.01-2.37,1.44-2.5,1.5-.03.02.19.15-.5.5h-2.5c7.04-5.84-6.91-24.5,4-16Z"/>
          <path class="cls-31" d="m159.89,139.69c-6.41,2.07-12.63,3.63-19,6-1.23.46-2.48,1.09-3.75,1.5-3.94-2.06,15.21-7.3,22.75-10.5v3Z"/>
          <path class="cls-41" d="m110.39,149.19c-.92-1.59-2.27-3.17-3.5-4.5,1.87-.39,13.31-3.66,14-2.25-2.59,1.59-8.06,6.17-10.5,6.75Z"/>
          <path class="cls-35" d="m67.9,64.69c-.71.29-1.32.42-1.5.5.3-2.11.97-2.37,1-2.5.07,1.04,2.61-1.4,3-.25.1.3-2.54,1.35-2.5,2.25Z"/>
          <path class="cls-19" d="m247.39,52.19c.85,1.99.44,5.78,0,8-.12.62.16,1.65,0,2-1.7,3.75-6.96,1.52-7.5-.25-.43-1.39,1.62-1.79.75-2.75-.31-.34-8.64-2.43-8-.5-6.99-2.22.19-.95.25-2.75-10.37-7.53,1.02-.73,13-5.25.22.17,1.46,1.4,1.5,1.5Z"/>
          <path class="cls-41" d="m188.89,76.19c-5.5,3.51-14.66,6.76-21.75,10-6.25,2.86-5.49,5.35-13.75,6,3.53-2.53,24.65-18.75,26.25-19,1.88-.3,7.23,2.05,9.25,3Z"/>
          <path class="cls-59" d="m167.39,69.69c-3.54,2.67-26.54,15.87-28.5,16.5.3-4.72,12.79-8.71,19.5-12,3.01-1.47,5.74-3.55,9-4.5Z"/>
          <path class="cls-39" d="m173.39,73.69c-5.55-3.05-.34-1.16-3-6.5.16-.1-.11-1.33,2.75-2,1.47,2.35,4.99-1.35,3.75,3.25-.24.88-4.44,2.88-1.5,4-.45.76-1.41.76-2,1.25Z"/>
          <g>
            <path class="cls-65" d="m115.39,6.7c-1.66-.05-3.37.22-5,.5-4.77.82-9.34,2.29-14,3.5-5.34,1.39-10.81,2.59-16,4.5-4.09,1.51-12.03,3.88-14,8-1.28,2.67-.91,2.26-.5,5,3.39,22.39,67.97,16.32,84.5,18,5.01.45,9.98.7,15,1,10.17.61,30.68,1.09,40.25.5,4.57-.28,17.94-1.77,16.75-3.5,10.76-.77,24.18-4.03,33-10.5-.11.41.07,1.03,0,1.5-1.89,3.72-7.46,7.35-11,9.5-2.14,1.3-4.66,2.33-7,3.25-.13.6,6.99,1.59,8.5,2.75-11.98,4.52-23.37-2.28-13,5.25-.06,1.8-7.24.53-.25,2.75-.64-1.93,7.69.16,8,.5.87.96-1.18,1.36-.75,2.75.54,1.77,5.8,4,7.5.25.59-.2,2.39,1.34,2.5,1.5.57.86,1.64,4.43,1.5,5.75-.12,1.16-6.17,11.39.75.75,4.52,9.74-6.27,20.51-9.75,33-.36-.19-1.16,2.56-1-.75.22-4.54,12.09-27.31,10.25-28.25-.35.91-3.99,4.34-4.25,4.5-.26.16-.74.33-1,.5,4.46-17.78-3.21,1.96-12.5,6-.74-.56-.97-2.92-1.75-3-.32-.03-1.63,1.93-1.75,2-2,1.16-4.11,2.14-6,3.5,2.21-1.66-14.77-12.1-15.75-12.5-.34-.14-6.73-.74-7.25-1-6.75-3.38,2.72-1.84,1.25-3.5-20.26-7.74-19.57-7.6-2.25,4,4,2.68,18.5,12.6,21.75,13,.09.01,1.38-.99,1.5-1,.4-.04.2,1.01.25,1-.65.21-1.37.83-2,1-11.75,3.25-36.89,6.55-49,6l18.5-12.5c1.63,1.4,3.78,4.02,6.25,5,15.19,5.99-1.97-7.81-8.75-11-2.02-.95-7.37-3.3-9.25-3-1.6.25-22.72,16.47-26.25,19-3.88.31-8.57.62-12-1,8.36-2.25,25.19-11.93,32-17.5.59-.49,1.55-.49,2-1.25-2.94-1.12,1.26-3.12,1.5-4,1.24-4.6-2.28-.9-3.75-3.25-2.86.67-2.59,1.9-2.75,2-1.72,1.14-1.99,1.74-3,2.5-3.26.95-5.99,3.03-9,4.5-2.74-4.15,6.49-4.54,5.25-6.5-6.59,1.14-3.83,2.01-11.75.5-.08-.02.1-1.25-.75-1.5-1.36-.39-12.14,1.52-14.75,2,.75-2.22,7.44-1,10.75-4-10.53-.06-42.07-3.41-50-8.5,1.35-4.14-17.52-8.23-23.75-8l-4.5-2c-1.11-1.03-2.24-1.7-3.5-2.5-2.91-1.85-12.2-8.32-12.5-11.75-1.26-14.63,52.64-27.19,64-27,.42,1.51-.95,1.16-1.5,1.75Z"/>
            <g>
              <path class="cls-52" d="m221.39,89.69l.5-1c.63-.17,1.35-.79,2-1,.16-.04.34.03.5,0,1.89-1.36,4-2.34,6-3.5,2.71,3.67-5.51,4.34-9,5.5Z"/>
              <path class="cls-41" d="m220.64,50.19c9.85.07-5.06,2.98-14.5,4.5-33.11.76-66.51,3.5-99.24-3.25,13.16-1.95,26.61,1.16,39.75,1.75,23.18,1.05,45.91,1.08,69-1.5.39-.04.11-.96.5-1,1.72-.19,2.57.6,4,.5.38-.03.12-1,.5-1Z"/>
              <path class="cls-5" d="m224.39,87.69c-.16.03-.34-.04-.5,0-.05.01.15-1.04-.25-1-.12.01-1.41,1.01-1.5,1-3.25-.4-17.75-10.32-21.75-13l1-.5c.52.26,6.91.86,7.25,1,.98.4,17.95,10.84,15.75,12.5Z"/>
              <path class="cls-2" d="m239.39,69.19c-2.73-3.79-1.79-.61-6.5-2.5l-5.25-1.5c1.02-2.79-7.18-4-5-5,6.1,3.62,24.8,9.96,8.75.75,14.39,4.47,10.78,4.63,8,8.25Z"/>
              <path class="cls-5" d="m221.64,72.19c3.16.05,9.29,6.65,9.25,7.25-.34,5.31-11.35-6.02-13.75-5.75.5-.52,4.26-1.5,4.5-1.5Z"/>
              <path class="cls-41" d="m201.39,74.19l-1,.5c-17.32-11.6-18.01-11.74,2.25-4,1.47,1.66-8,.12-1.25,3.5Z"/>
              <path class="cls-61" d="m246.39,79.19c-1.52.99-.47-.5-1.75-.5-.92,1.78-9.11,7.73-10.75,6.5,9.29-4.04,16.95-23.78,12.5-6Z"/>
              <path class="cls-37" d="m227.39,65.69c.45,3.65,8.08,1.69,11,5-.69.63-1.6,2.54-2.75,2.5-3.57-2.69-14.28-6.7-8.25-7.5Z"/>
              <path class="cls-18" d="m212.64,67.69c.21-.07,4.28-.04,4.5,0,7.46,1.45,4.59,6.71-6.25,1.25,1.94-.22,1.42-1.14,1.75-1.25Z"/>
              <path class="cls-19" d="m232.89,66.69c4.7,1.89,3.77-1.29,6.5,2.5-.28.36-.83,1.34-1,1.5-2.92-3.31-10.55-1.35-11-5,.77-.1,3.8,1.19,5.5,1Z"/>
              <path class="cls-26" d="m201.64,62.19c.61-.02,8.46,2.01,9.75,3.25-4.8,1.29-13.02-3.13-9.75-3.25Z"/>
              <path class="cls-22" d="m158.64,65.69c4.3-.92-2,2.36-2.25,1.25-.03-.13,2.12-1.22,2.25-1.25Z"/>
            </g>
          </g>
          <path class="cls-5" d="m218.39,166.69l5,1.25-5.25,1.25c2.41.1,4.85-.14,7.25,0,2.8.16,5.63.89,8.5.5-.25.28-.48.47-.5.5-5.51,1.32-11.33,3.12-17,3.5v-1c9.63.47-1.88-.57-2.75-1-.45-.22.37-1.95-2.25-2.25l5.25-.25c2.89-1.72-6.81-1.2,1.75-2.5Z"/>
          <path class="cls-41" d="m212.89,147.19c-7.76,1.02-12.75,4.62-19.75,7-4.61,1.57-34.19,12.2-36.25,9.75-.15-.87.1-1.24.75-1.75,2.22-1.75,48.72-17.77,53.75-17,1.04.16,1.84.91,1.5,2Z"/>
          <path class="cls-20" d="m232.89,145.69c-6.28-.41-14.84-2.3-19,1.5-.33.04-.68-.04-1,0,.34-1.09-.46-1.84-1.5-2-2.95-9.29,17.45-5.02,21.5.5Z"/>
          <path class="cls-61" d="m235.89,150.19c-1.44-2.38-8.43-1.43-3.5-3.25-.4-.85-16.16-.02-18.5.25,4.16-3.8,12.72-1.91,19-1.5.26.02,1.41,2.93,2.5-2,.09-.42.74-.84.5-2.5,6.68,1.62,5.19,6.11,0,9Z"/>
          <path class="cls-21" d="m234.89,131.69c-.15.36.59.58.5,1-4,.04-9.34-.07-8.5,1.5-.63-.09-1.35.02-2,0-5.58-1.96-14.59,1.79-18.5,0,6.22-.86,12.47-2.61,18.75-3,1.12-.07.62,1.02,1,1,.47-.02-.43-2.07,8.75-.5Z"/>
          <path class="cls-56" d="m224.89,134.19c.65.02,1.37-.09,2,0,2.78.39,6.47,1.06,2.5,3-6.09-.16-19.07-3.49-4.5-3Z"/>
          <g>
            <path class="cls-1" d="m235.39,132.69c16.31-.17-1.8,1.09-4.75,6,4.86.44,13.66-6.38,9.5-1.5-.38.44-4.09,2.9-4.75,3-.37.06-5.86-1.24-7.5-.25,4.03,1.29,4.86,4.92,7.5,3.75-1.09,4.93-2.24,2.02-2.5,2-4.04-5.52-24.45-9.79-21.5-.5-5.03-.77-51.53,15.25-53.75,17-.65.51-.9.88-.75,1.75,2.06,2.45,31.64-8.18,36.25-9.75,7-2.38,11.99-5.98,19.75-7,.32-.04.67.04,1,0,2.34-.27,18.1-1.1,18.5-.25-4.93,1.82,2.06.87,3.5,3.25,3.32,5.48-11.76,5.77-16,6.75,9.12,1.19,23.93-4.27,18.5,4-1.07,1.64-3.3,2.86-5,3.75-5.96-1.58-12.31-2.2-18.25-.5-.5.14.25.92.5,1,2.17.67,28.17-2.35,2.75,1.5-8.56,1.3,1.14.78-1.75,2.5l-5.25.25c2.62.3,1.8,2.03,2.25,2.25.87.43,12.38,1.47,2.75,1-4.27-.21-6.36-1.36-13.75,0,5.02-4.62-16.35,1.68-6.5-2.5l-10.25.75c2.77,1.07,6.06,1.39,9,1.75-1.27,1.68,2.63.41,0,2.5-13.72-1.2-20.25.38-28.5.5-4.42.06-6.68.36-11.5,0-2.66-3.99,12.41-.75,9.5-3.5,5.42-.49,3.79-1.18,4.5-1.5l7.5-.5c10.4-.2,3.26-2.03,4.75-3.5,1.24-1.23,29.43-6.5,33-11,17.3-.68,9.59-3.41-1.5-2.5-1.77.14-23.19,5.12-26.5,6-.46.12-.69.98-.75,1-4.89,1.3-9.82,3.84-14.75,5-13.37,3.15-30.23,4.32-42.25-3.5,0-.34-.12-.91.25-1,1.95-.47,13.4-.97,23-3.5,6.99-1.84,17.4-6.78,25-9,10.3-1.05,21.31-6.41,30.75-8.5,6.34-1.4,15.93-1.66,2-1.5.67-.51,1.19-.97,2-1.25-.26-.53-1.5-.1-2-.25,2.69-2.61,12.11,3.38,19.75,1.5.43-.11.19-.97.25-1,3.98-1.94.28-2.61-2.5-3-.84-1.57,4.5-1.46,8.5-1.5Z"/>
            <g>
              <g>
                <path class="cls-59" d="m216.39,172.69v1c-5.31.35-15.98-.33-21.5-1-2.94-.36-6.23-.68-9-1.75l10.25-.75c-9.85,4.18,11.52-2.12,6.5,2.5,7.39-1.36,9.48-.21,13.75,0Z"/>
                <path class="cls-6" d="m175.39,170.19c.33,0,.67,0,1,0l-7.5.5c.07-.03-.2-.81.25-1,.78-.32,3.26.57,6.25.5Z"/>
              </g>
              <g>
                <path class="cls-59" d="m233.39,164.69c-.08.04.3.29-1.5,1-.81-.85-7.36.4-7.5,1.5-.04.3-.05.91,0,1,.43.78.98.31,1,1-2.4-.14-4.84.1-7.25,0l5.25-1.25-5-1.25c25.42-3.85-.58-.83-2.75-1.5-.25-.08-1-.86-.5-1,5.94-1.7,12.29-1.08,18.25.5Z"/>
                <path class="cls-61" d="m220.14,148.19c4.24-.34,8.82-.32,12.75,1.25-9.05-1.13-10.2,1.2-10.75,1.25-.44.04.31-1.94-1.5-1.5-18.53,6.54-14.55.12-.5-1Z"/>
                <path class="cls-27" d="m235.39,140.19c-.02.44.43.5.5,1,.24,1.66-.41,2.08-.5,2.5-2.64,1.17-3.46-2.46-7.5-3.75,1.64-.99,7.13.31,7.5.25Z"/>
                <path class="cls-11" d="m207.39,139.69c.56-.63,1.33-.98,2-1.5,13.93-.16,4.34.1-2,1.5Z"/>
                <path class="cls-2" d="m217.64,158.69c6.94-1.41,12.85,2.21-1.75.75.67-.04,1.66-.73,1.75-.75Z"/>
                <path class="cls-54" d="m220.64,151.19c.3-.13,6.72,1.35,0,1v-1Z"/>
              </g>
            </g>
          </g>
          <path class="cls-20" d="m158.89,151.19c.37-.67-1.11-2.48-1.25-2.5-1.09-.18-18.74,8.72-20.25,3.5,2.18-.51,32.82-10.48,33-6.25-3.6,2.24-7.6,3.66-11.5,5.25Z"/>
          <path class="cls-1" d="m211.89,99.69c.37-.04,4.95.26,7.5,0,0,.89,1.37.23,1.5.75.05.21-1.48.18-1,1.25-5.89.57-22.05-.8-9.5,6.75-.36.83-14.66,6.59-15.5,8.75-2.43.43-3.09,1.03-4.5,1.5-.19-1.93,3.69-1.94,3.5-3.75-.12-1.14-8.62-4.6-9.75-4.75-5.37-.7-11.48,2.23-17.25,2-2.79-.11-2.53.89-4-1,17.44-5.54,19.42-8.44,0-1,1.07-1.51,22.92-10.97,26.5-9-1.3.3-15.22,3.72-9.75,4,1.64.08,26.52-4.81,32.25-5.5Z"/>
          <path class="cls-28" d="m198.39,117.19l-10,2.5c.11-.03.19-.39,2-1,1.41-.47,2.06-1.07,4.5-1.5.73-.13,2.74-1.3,3.5,0Z"/>
          <path class="cls-58" d="m239.39,103.19c-1.52,9.33-.45,17.89-4.5,18.25l8,3c-.15,2.66-.59,1.58-2.5,2.75.45-1-2.52-1.4-3.5-1.5,1.62-4.1-8.98-3.31-15-3v-2.5c9.39-2.23-7.64-.97-10-3,6.57-.23,13.18.03,19.75-.5,1.91-.42,2.13-1.44,2.25-1.5.9-.47.92-.92,1-1,.7-.68,3.46-.8,2.25-4-2.58,2.56-5.84,2.04-9.25,2.5l1.5-2c3.93-.84-8.07-.79-12-.5v-1.5c3.22-.17,7.65-2.06,11-3,.5-.14,5.5.76,9.5-3.5l1.5,1Z"/>
          <path class="cls-1" d="m211.89,117.19c2.36,2.03,19.39.77,10,3-5.04,1.2-18.63,1.19-19,4.5-1.84.36-4.5.36-2.75,2,4.68-1.16,9.49-.96,14.25-1l-20.25,6.5c-2.48-1.98,2.72-2.72,3.25-3.75-2.11-2.22,4.36-4.94-.75-4.25-5.56.75-13.75,13.03-19.75,10,.77-.36,13.7-7.82,14.75-8.5,1.11-.72-.44-5.97,18-7,.77-.96-.75-1.05.25-1.5.96.72.87.04,2,0Z"/>
          <path class="cls-54" d="m236.89,125.69c-4.47-.44-16.46-.05-22.5,0-4.76.04-9.57-.16-14.25,1-1.75-1.64.91-1.64,2.75-2,2.26-.45,16.15-1.85,19-2,6.02-.31,16.62-1.1,15,3Z"/>
          <path class="cls-20" d="m232.89,100.69c2.86,1.42.02,2.47-2,3.5-5.96-.5-21.88,4.95-13.5,4.5v1.5c-11.55.84-14.8,3.83-5.25,1l17.25-.5-1.5,2c-4.44.6-8.56-.06-15.5,3-3.3-3.25-14.61,5.4-14,1.5-.76-1.3-2.77-.13-3.5,0,.84-2.16,15.14-7.92,15.5-8.75-12.55-7.55,3.61-6.18,9.5-6.75,4.14-.4,9.33-.16,13-1Z"/>
          <path class="cls-59" d="m234.89,114.19c-24.98,1.76-28.8,3.08-1,1-.12.06-.34,1.08-2.25,1.5-6.57.53-13.18.27-19.75.5-1.13.04-1.04.72-2,0,.78-.35,1.82-1.2,2.5-1.5,6.93-3.06,11.06-2.4,15.5-3,3.41-.46,6.66.06,9.25-2.5,1.21,3.2-1.55,3.32-2.25,4Z"/>
          <path class="cls-59" d="m136.89,85.69c-2.01,1.21-3.05,3.27-4.5,5-.75-3.29,1.84-5.2,4.5-5Z"/>
          <path class="cls-20" d="m197.39,97.69l1,2c-3.01.55-5.98.8-9,1.5-3.58-1.97-25.43,7.49-26.5,9-3.72,1.43-6.96,3.81-11,4.5.51-2.83-2.36-3.78-4-5.5,2.19-.78,6.52-2.09,8.25-3,.53-.28-.83-1.02,0-1.5,2.72-1.57,4.98-1.98,7.25-4.5,10.59-.84,23.7-.91,34-2.5Z"/>
          <path class="cls-59" d="m162.89,111.19c-.77.02-.28-.6,0-1,19.42-7.44,17.44-4.54,0,1Z"/>
          <path class="cls-58" d="m222.39,94.19c-7.49,2.34-12.61,2.77-13.25,3-.39.14-.25.67-.25,1-2.84.55-6.92.85-10.5,1.5l-1-2c4.28-.66,12.75-3.92,17.5-4.5,3.06-.38,4.82-.72,7.5,1Z"/>
          <path class="cls-50" d="m214.39,97.19c-1.84.36-3.66.65-5.5,1,0-.33-.14-.86.25-1,.64-.23,5.76-.66,13.25-3,12.02-3.76,16.39-6.55,25.5-15,.09-.09.88-.4,1-.5-5.85,11.57-22.96,16.24-34.5,18.5Z"/>
          <path class="cls-34" d="m73.9,100.69q3.25,5.12,6.5,10.25c-1.12,1.64-3,1.18-5,2.25,3.32-4.23-1.8-4.85-2.5-12.25.18-.43,1.01-.2,1-.25Z"/>
          <g>
            <path class="cls-23" d="m67.4,62.69c-.03.13-.7.39-1,2.5-6.13,2.85-2.74,3.95-6,7.75l1.5,2.75h-.5c-.76-1.3-2.39-3.82-3.5-4.75-.06-.2.91-3.58,1-3.75.5-.93,1.57-1.34,1.5-2.5,2.2,1.33,5.16-3.04,6-5,.16.77,1.49,1.5,1.5,1.75,0,.07-.23.05-.5,1.25Z"/>
            <path class="cls-37" d="m60.65,68.19c.29-.14,1.25-.02,1.25.25,0,.57-2.14.18-1.25-.25Z"/>
          </g>
          <path class="cls-3" d="m239.39,103.19l-1.5-1c2.14-2.28,1.78-5.4,1.25-5.5-.62,1.89-4.36,3.57-6.25,4-3.67.84-8.86.6-13,1-.48-1.07,1.05-1.04,1-1.25-.13-.52-1.49.14-1.5-.75,7.83-.78,15.17-3.65,22.25-7,.47.25-1.65,6.79-2.25,10.5Z"/>
          <path class="cls-38" d="m214.39,97.19l-2.5,2.5c-5.73.68-30.61,5.58-32.25,5.5-5.47-.28,8.45-3.7,9.75-4,3.02-.7,5.99-.95,9-1.5,3.58-.65,7.66-.95,10.5-1.5,1.84-.35,3.66-.64,5.5-1Z"/>
          <path class="cls-63" d="m242.39,103.19c-.8,9.08-3.32,29.36-2,7.75.99-2.48,1.29-5.21,2-7.75Z"/>
          <path class="cls-25" d="m231.89,165.69c-1.99.79-5.28,1.19-7.5,1.5.14-1.1,6.69-2.35,7.5-1.5Z"/>
          <path class="cls-50" d="m248.89,78.69s-.24-1.63,1-.75c-.55.75-.97.69-1,.75Z"/>
          <path class="cls-1" d="m221.89,120.19v2.5c-2.85.15-16.74,1.55-19,2,.37-3.31,13.96-3.3,19-4.5Z"/>
          <path class="cls-27" d="m237.89,102.19c-4,4.26-9,3.36-9.5,3.5.22-1.08,1.31-.89,2.5-1.5,2.02-1.03,4.86-2.08,2-3.5,1.88-.43,5.63-2.11,6.25-4,.53.1.89,3.22-1.25,5.5Z"/>
          <path class="cls-9" d="m230.89,104.19c-1.19.61-2.28.42-2.5,1.5-3.35.94-7.78,2.82-11,3-8.38.46,7.54-5,13.5-4.5Z"/>
          <path class="cls-9" d="m229.39,110.69l-17.25.5c-9.55,2.83-6.3-.16,5.25-1,3.93-.29,15.93-.34,12,.5Z"/>
          <path class="cls-6" d="m234.89,114.19c-.08.08-.1.53-1,1-27.8,2.08-23.98.76,1-1Z"/>
          <g>
            <path class="cls-41" d="m255.39,35.19c.07-.47-.11-1.09,0-1.5,2.87-10.81-3.88-2.66-8.75,0-5.66,3.09-12.48,5.91-18.75,7.5,12.48-5.62-3.27.25-12.5,1.5-4.45.61-4.68.58-9,.5-15.79-.28-8.65-.82,1.5-3.25.09-1.29-18.69,2.34-22,1.75-3.71-.29-28.51.66-29.5-.75-.15-.21.09-1.75,0-2.75,9.71-.05,22.2-2.14,32-3.5,6.15-.85,12.4-1.23,18.5-2.5,12.05-2.52,24.16-6.39,34.5-13.25q-21.75-7.12-43.5-14.25v-.5c12.11,2.1,67.76,10.81,57.5,31Z"/>
            <path class="cls-41" d="m110.39,14.2c-.34,2.01-.77,3.64,0,5.75,4.97,13.56,71.58,12.45,87-.25.08.06,1.34.11,2,.5,8.34,4.94,4.42,2.1-.75,3.5-2.25.61-12.45,4.23-12.75,5.5-2,.16-4.01.07-6,.5-4.82.33-9.68.87-14.5,1-10.82.29-21.68,1.13-32.5,0-11.84-1.23-25.29-5.9-36.5-10,17.33,2.48,13.74,5.41,11-5.5.16,0,0-1.43,3-1Z"/>
            <g>
              <path class="cls-63" d="m118.89,8.7c-.09.73-.08,1.07.75,1,.84-.07,8.9-2.88,16.5-3.5,7.1-.58,24.32-.49,32.5-.5,2.85,0,5.84,2.17,8.25-.5,5.33,1.16,17.76,2.84,16,10.75-2.64,11.86-75.08,13.36-78,1.5-1-4.07.68-6.62,4-8.75Z"/>
              <path class="cls-63" d="m165.39,2.7c3.71,1.34,7.67,1.67,11.5,2.5-2.41,2.67-5.4.5-8.25.5-8.18.01-25.4-.08-32.5.5-7.6.62-15.66,3.43-16.5,3.5-.83.07-.84-.27-.75-1,6.15-3.94,33.88-5.66,42.5-6,1.4-.06,2.66.03,4,0Z"/>
            </g>
            <path class="cls-1" d="m189.39,2.7c2.54,1.65,5.33,3.07,8,4.5,7.45,8.53,14.03,12.87,3.5,10.5-.7-.23-1.95-1.31-2.5-1.5,3.34.08-4.09-8.54-6-10-2.74-2.1-5.81-3.43-9.25-3.5l.75-1c1.8.21,3.71.75,5.5,1Z"/>
            <path class="cls-43" d="m197.89,4.2v.5c.31,1.85,8.01,4.29,12.5,6,8.99,10.22-4.05,1.31-13-3.5-2.67-1.43-5.46-2.85-8-4.5,2.94.42,5.61,1,8.5,1.5Z"/>
            <path class="cls-15" d="m115.39,6.7c-2.95,3.15-4.14,2.48-5,7.5-3-.43-2.84,1-3,1-.67.02-6.24-1.57-6-2.75,3.15.69,6.59-3.23,9-5.25,1.63-.28,3.34-.55,5-.5Z"/>
            <path class="cls-56" d="m69.4,26.19c2.79,5.73,14.16,8.18,20,7.5,2.07,1.44-.37,1.67,1.75,3.5,6.34,5.47,18.68,4.87,26.75,5.5,7.69.6,15.29.83,23,1.5,4.79.42,9.02,1.96,9.5,2-16.53-1.68-81.11,4.39-84.5-18,2.63,7.01,15.32,11.86,22,12,12.26.26-15.07-6.56-19-12,.02-.57-.07-.86,0-2h.5Z"/>
            <path class="cls-1" d="m206.39,43.19c-.52,1.48,7.46,1.14,12.5,1,.67-.02,1.34.03,2,0,.5-.03,1,.04,1.5,0,1.19,1.73-12.18,3.22-16.75,3.5-9.56.59-30.07.11-40.25-.5,1.14-5.79,10.76-1.31,21.75-3l-1.25-2.5c3.31.59,22.08-3.04,22-1.75-10.15,2.43-17.29,2.97-1.5,3.25Z"/>
            <path class="cls-3" d="m156.39,38.19c.09,1-.15,2.54,0,2.75.98,1.41,25.79.46,29.5.75l1.25,2.5c-10.99,1.69-20.61-2.79-21.75,3-5.01-.3-9.99-.55-15-1-.48-.04-4.71-1.58-9.5-2l2-1.5c-4.65-4.31,9.98,2.31,9.5-5,.17,0,.33,0,.5,0,3.01.06,3.32.5,3.5.5Z"/>
            <path class="cls-56" d="m255.39,33.69c-8.82,6.47-22.24,9.73-33,10.5-.5.04-1-.03-1.5,0,2.16-1.41,4.67-1.95,7-3,6.27-1.59,13.09-4.41,18.75-7.5,4.87-2.66,11.61-10.81,8.75,0Z"/>
            <path class="cls-61" d="m96.39,10.7c-.71,4.35,8.06,4.62,9,5.75,2.36,2.84-1.62,1.94-3,1.75-5.38-.76-10.3-1.55-15.75-1-2.03,1.12,7.44,6.27,9.25,7-.77.08-.85.97-1,1.5l-13-8c1.23-2.81-.04-1.35-1.5-2.5,5.19-1.91,10.66-3.11,16-4.5Z"/>
            <path class="cls-52" d="m81.9,17.69c-.5,1.16-1.39,1.27-2,2-.26.31-1.47.53-1.5.75-.12.94,4.5,5.62,5.5,6.75-17.3-10.04-15.8-1.51,1.5,2,.66.62,2.83,2.88,3,3-6.76-.95-12.59-3.94-19-6h-.5c.07-1,.84-1.83.5-2.25-.45-.57-1.85.15-3-.75,1.97-4.12,9.9-6.49,14-8,1.46,1.15,2.73-.31,1.5,2.5Z"/>
            <path class="cls-28" d="m110.39,7.2c-2.41,2.02-5.85,5.94-9,5.25-.24,1.18,5.33,2.77,6,2.75,2.74,10.91,6.33,7.98-11,5.5-13.44-4.91-1.67-.84,4.25-1,1.51-.04,1.95.36,1.75-1.5,1.38.19,5.36,1.09,3-1.75-.94-1.13-9.71-1.4-9-5.75,4.66-1.21,9.23-2.68,14-3.5Z"/>
            <path class="cls-27" d="m68.9,26.19c-.07,1.14.02,1.43,0,2,0,.08-1.27.39-1,1.25.21.68,5.76,4.69,6.75,5.25,3.94,2.21,10.13,3.15,13.25,5.5-6.68-.14-19.37-4.99-22-12-.41-2.74-.78-2.33.5-5,1.15.9,2.55.18,3,.75.34.42-.43,1.25-.5,2.25Z"/>
            <path class="cls-28" d="m165.39,30.69c-.81,2.75,4.08.97,9.25,1.5,4.53.47,9.22,1.81,13.75,2.5-9.8,1.35-22.29,3.45-32,3.5-.18,0-.49-.44-3.5-.5-.22-2.73-2.45-.83-2.75-1-1.46-.82-1.19-2.37-1.5-2.5-3.76-1.58-12.86-1.89-17.5-2.5l1.75-1c10.82,1.13,21.68.29,32.5,0Z"/>
            <path class="cls-43" d="m212.39,25.69l-11.25,4,14.25-1.5c-2.76.95-9,1.99-8.5,4-6.1,1.27-12.35,1.65-18.5,2.5-4.52-.69-9.22-2.03-13.75-2.5-5.17-.53-10.06,1.25-9.25-1.5,4.82-.13,9.68-.67,14.5-1,2.47-.17,10.97.4,17.25-.5,5.13-.73,10.07-2.93,15.25-3.5Z"/>
            <path class="cls-28" d="m206.89,32.19c-.5-2.01,5.74-3.05,8.5-4,26.51-9.18,29.37-9.44,3.25-14-2.42-1.83-5.49-2.45-8.25-3.5-4.48-1.7-12.19-4.15-12.5-6q21.75,7.12,43.5,14.25c-10.34,6.86-22.44,10.73-34.5,13.25Z"/>
            <path class="cls-27" d="m227.89,41.19c-2.33,1.05-4.84,1.59-7,3-.66.03-1.33-.02-2,0,1.37-2.01-1.86-.16-3.5-1.5,9.23-1.25,24.98-7.12,12.5-1.5Z"/>
            <path class="cls-54" d="m215.39,42.69c1.64,1.34,4.87-.51,3.5,1.5-5.03.14-13.02.48-12.5-1,4.32.08,4.55.11,9-.5Z"/>
            <path class="cls-33" d="m210.39,10.7c2.76,1.05,5.83,1.67,8.25,3.5,26.12,4.56,23.26,4.82-3.25,14l-14.25,1.5,11.25-4-.5-2c6.02.4,11.96.35,17.75-2-5.01,1.48-18.55.77-19.5,1-.43.1-.19.97-.25,1-.67.31,1.37.26-3,1-3.06.52-17.52,3.07-18.75,3.5-.39.14-.25.67-.25,1-.65.07-1.34-.05-2,0,.29-1.27,10.5-4.89,12.75-5.5,5.17-1.4,9.09,1.44.75-3.5.24-.61,4.14-.19,5.5,0,5.91.84,10.26,1.68,16.5.25-5.31-1.36-10.62-.38-16-1.25-5.4-.87-4.27-1.43-4.5-1.5,10.53,2.37,3.95-1.97-3.5-10.5,8.95,4.81,21.99,13.72,13,3.5Z"/>
            <path class="cls-59" d="m102.39,18.19c.2,1.86-.24,1.46-1.75,1.5-5.92.16-17.69-3.91-4.25,1,11.21,4.1,24.65,8.77,36.5,10l-1.75,1c4.64.61,13.74.92,17.5,2.5.31.13.04,1.68,1.5,2.5.3.17,2.53-1.73,2.75,1-.17,0-.33,0-.5,0-6.32-.17-12.66-1.09-19-1-3.65-2.09-4.78-2.47-8.5-4-2.65-1.09-5.2-2.2-7.75-3.5-4.83-.73-17.66-3.55-21.25-5-1.81-.73-11.28-5.88-9.25-7,5.45-.55,10.37.24,15.75,1Z"/>
            <path class="cls-28" d="m211.89,23.69l.5,2c-5.18.57-10.12,2.77-15.25,3.5-6.28.9-14.78.33-17.25.5,1.99-.43,4-.34,6-.5.66-.05,1.34.07,2,0,6.43-.67,12.87-2.48,19-4.5,4.37-.74,2.33-.69,3-1,.66.03,1.34-.04,2,0Z"/>
            <path class="cls-66" d="m204.89,20.19l.5-1c5.38.87,10.69-.11,16,1.25-6.23,1.43-10.59.59-16.5-.25Z"/>
            <path class="cls-46" d="m134.89,37.69c.4.26,2.95,3.36,8,5l-2,1.5c-7.71-.67-15.31-.9-23-1.5,1.64-.64,3.53-1.79,3.5-4,6.19.99,7.69.17,13.5-1Z"/>
            <path class="cls-1" d="m87.9,40.19c-3.12-2.35-9.31-3.29-13.25-5.5-.99-.56-6.54-4.56-6.75-5.25-.27-.86,1-1.17,1-1.25,3.93,5.44,31.26,12.26,19,12Z"/>
            <path class="cls-1" d="m88.4,32.19c.49.35.98.7,1.5,1,.05.43-.12.46-.5.5-5.84.68-17.21-1.77-20-7.5,6.41,2.06,12.24,5.05,19,6Z"/>
            <path class="cls-41" d="m152.39,37.69c.48,7.31-14.14.69-9.5,5-5.05-1.64-7.6-4.74-8-5-.46-.3-1.04-.73-1.5-1,6.34-.09,12.68.83,19,1Z"/>
            <path class="cls-61" d="m94.89,25.69c-.22.78-1.27.32-1,1.25.06.2,3.5,1.16,0,2.75-4.74-3.27-9.42-6.5-14-10,.61-.73,1.5-.84,2-2l13,8Z"/>
            <path class="cls-59" d="m93.89,29.69c2.21,1.53,3.22-.04,4.75,4.5-6.85-1.8.72,2.79-8-1.5-.7-.34-.71.52-.75.5-.52-.3-1.01-.65-1.5-1-.17-.12-2.34-2.38-3-3-.53-.49-1.01-1.44-1.5-2-.99-1.13-5.62-5.81-5.5-6.75.03-.22,1.24-.44,1.5-.75,4.58,3.5,9.26,6.73,14,10Z"/>
            <path class="cls-1" d="m83.9,27.19c.49.56.97,1.51,1.5,2-17.3-3.51-18.8-12.04-1.5-2Z"/>
            <path class="cls-66" d="m211.89,23.69c-.66-.04-1.34.03-2,0,.06-.03-.18-.9.25-1,.95-.23,14.49.48,19.5-1-5.79,2.35-11.72,2.4-17.75,2Z"/>
            <path class="cls-1" d="m206.89,24.69c-6.13,2.02-12.57,3.83-19,4.5,0-.33-.14-.86.25-1,1.23-.43,15.69-2.98,18.75-3.5Z"/>
            <path class="cls-36" d="m133.39,36.69c.46.27,1.04.7,1.5,1-5.81,1.17-7.31,1.99-13.5,1-3.35-.54-6.33-.94-.5-1.5,3.53.7,7.01.74,10.5-.25-2.75-.39-4.98-2.44-7.5-3.25l1-1c3.72,1.53,4.85,1.91,8.5,4Z"/>
            <g>
              <path class="cls-15" d="m124.89,32.69l-1,1c-6.55-2.1-10.49-1.76-17.5-1.25,4.74.47,13.75,4.6,14.5,4.75-5.83.56-2.85.96.5,1.5.03,2.21-1.86,3.36-3.5,4-8.07-.63-20.41-.03-26.75-5.5-2.12-1.83.32-2.06-1.75-3.5.38-.04.55-.07.5-.5.04.02.05-.84.75-.5,8.72,4.29,1.15-.3,8,1.5-1.53-4.54-2.54-2.97-4.75-4.5,3.5-1.59.06-2.55,0-2.75-.27-.93.78-.47,1-1.25.15-.53.23-1.42,1-1.5,3.59,1.45,16.42,4.27,21.25,5,2.55,1.3,5.1,2.41,7.75,3.5Z"/>
              <path class="cls-56" d="m123.89,33.69c2.52.81,4.75,2.86,7.5,3.25-3.49.99-6.97.95-10.5.25-.75-.15-9.76-4.28-14.5-4.75,7.01-.51,10.95-.85,17.5,1.25Z"/>
              <path class="cls-13" d="m96.14,28.19c1.75-.95,3.35,1.97.5,1-.18-.06-.97-.74-.5-1Z"/>
            </g>
          </g>
        </g>
        <g>
          <path class="cls-1" d="m338.88,260.68c-5.24,11.46-23.94,20.61-26,23-1.04,1.2-.85,1.09-.5,2.5-.33,0-.67-.02-1,0-5.15.24-3.53,1.31-5.75,2-1.19.37-1.88-1.03-2-1-.57.14-.9,1.72-2.75,2.5-4.82,2.03-13.86,5.48-17,8.5-1.02.45-1.99,1.03-3,1.5.56-9.6,7.34-10.41,15.25-14-8.16-3.33,3.55.73,5.25-2.5.91.09,2.07.05,3,0,.22-.01.94.8,2.75.5,2.29-2.21,7.27-7.1,9.5-8.5,9.42-5.93,10.91-.42,17.75-16.5.83-1.96,1.43-3.95,2-6,1.53,2.29.88,5.71,2.5,8Z"/>
          <path class="cls-59" d="m296.88,281.68c.61,2.37,2.25,1.27,4.5,1.5-1.7,3.23-13.41-.83-5.25,2.5-7.91,3.59-14.69,4.4-15.25,14-2.32,1.07-2.86.93-3,1,.2-1.19,6.31-12.78,3.25-11.5-1.06.44-1.18,4.49-1.75,5.75-1.67,3.69-4.06,6.6-4,7,.07.44.88.16,1,.25.32.25.88.61,1,1-4.74,1.85-11.78,5.36-11,3.5,4.64-3.32,6.44-1.74,12-15.25-3.6,2.5-10.81,7.03-13.5,9.75l-1.5-5c2.78-2.19.58-.93-3.25,1-13.46-4.07-2.64-1.75,12.25-6,7.75-3.5,16.84-6.12,24.5-9.5Z"/>
          <path class="cls-24" d="m327.38,178.19c5.55,7.33,1.34,5.74,1,6-3.75-3-8.17-5.11-12-8-4.4-3.31-2.29-2.77-2.5-3,2.94-.85,6.23-2.58,1-2-2.59-2.79-8.13-1.43-12-4,.12-.31-.07-1.02,0-1.5.14-.03-.23-1.21,2.75-1,6.11.43,17.94,8.47,21.75,13.5Z"/>
          <path class="cls-65" d="m315.38,177.69c3.35,2.16,8.52,5.95,11,9,.35.43,2.53,3.05,2.5,3.25-.03.23-3.52,2.77-3.75,2.75-.57-.06-5.02-4.79-8.75-7.5-2.61-1.9-4.9-4.25-8-5.5l5-3c.64.37,1.38.6,2,1Z"/>
          <path class="cls-43" d="m334.38,258.68c-6.84,16.08-8.33,10.57-17.75,16.5-2.23,1.4-7.21,6.29-9.5,8.5-1.81.3-2.53-.51-2.75-.5,5.57-5.55,16.23-10.74,20.75-14.5,3.57-2.96,5.92-6.87,9.25-10Z"/>
          <path class="cls-16" d="m326.88,281.18c-.18,1.17.48.95.5,1,.56,1.27-1.42,1.54-2,2-.97.76-2,.32-2.25,2.5-3.61.36-7.16-.55-10.75-.5-.35-1.41-.54-1.3.5-2.5,5.19.33,9.35-.03,14-2.5Z"/>
          <path class="cls-45" d="m328.38,184.19c-1.02.78-1.58,1.19-2,2.5-2.48-3.05-7.65-6.84-11-9l1-1.5c3.83,2.89,8.25,5,12,8Z"/>
          <path class="cls-52" d="m343.38,246.18c.1.43.97,4.75,1,5,.05.42-.74.66-.5,1.5-.64.38-.95.47-1,.5-1.52-3.12-1.54-5.38-1.5-8.5l2,1.5Z"/>
          <path class="cls-65" d="m91.39,244.18c2.54,1.01,5.53,2.29,8.25,2.5-6.9,12.74-9.06,4.78-12.5,5.5-.81.17-11.45,10.97-11.75,11.75-.22.58.83,1.07.5,1.75-.71-.33-2.39-.93-2.5-1-.53-.33-2.01-1.13-2-1.75l12-12.5-7.75-3.75-10.75,13.75c.28,1.69,1.43,1.64,1.5,1.75,6.33,9.59,22.19,13.79,33,16,8.34,2.45,13.68,2.63,22,3.5,4.73.5,32.12,2.68,34.25,2,.18-.06.98-.75.5-1-1.11-.57-21.15-2.06-24.75-2.5-2.78-2.6-13.16-.65-16-3.5,4.67.44,8.48-.06,13,0,4.71.06,36.07.37,37.75-.5.84-.43-.57-1.37-.25-1.75,1.58-1.89,2.31-.43,6-2.75,1.95,2.46-4,2.03-4.5,2.75l4.5,4.75c-.08.18-.25.86-.5,1.5-3.94-.66-7.09,1.43-10.5,3.25,3.88.74,5.91-.35,8.5,2.25.13.13-.18.73,2,3-.42.12,1.89,1.23-7.75,2-20.15,1.61-40.71-1.84-60.75-3.5-9.74-2.02-24.43-5.86-30.75-13.5-28.53-10.4-9.41-21.12,3.25-37.75-6.83-7.63,3.3,2.06,8.25,4.75,2.91,1.58,5.3,2.03,7.75,3Z"/>
          <path class="cls-65" d="m245.39,200.68c-2.65,2.13-13.13.49-19.75,1,7.18,2.71,14.86.21,22.5.5,8.31.32,16.71,2.82,25,3.5-17.5-4.07-21.42-4.54-.5-1.5.21.03-.15-1.37,2-1,.89.15,13.87,4.07,17.25,5l-.5.5c-17.98-1.24-36.2-1.36-54-4.25,0,.42,4.81-.02,4.5,3.25-.13,1.36-4.33,4.9-5.5,6-.58.55-1.37.94-2,1.5-11.34,10.03-13.7,7.54-22.5,14-.67,1.42-1.38-.91-2.75-.5-10.02,3.03-20.06,7.68-30.75,7.5,9.21-2.78,19.08-3.96,28.25-7,5.2-1.72,13.53-5.01,9-4.5-4.63.52-21.96,5.94-29,7.5-4.47.99-9.41.17-13,3.5-9.75-1.08-13.66,3.76-23.25,2,3.66-1.48,7.76-1.8,11.5-3,9.98-3.2,8.6-4.54,13.75-7,8.69-4.15,17.94-7.67,26.5-12,3.66-1.85,5.44-3.83,5.75-4,2.85-1.53,6.04-2.69,9-4,4.29.09-16.27,13.31-10.25,12,1.05-.23,15.53-9.88,18.25-11.25.21-1.36-4.69-2.01-5.5-2.25-.05-.01.18-.89-.25-1-.28-.07-4.69.06-5.75,0-2.53-.15-3.98-.16-6.5,0-3.58.22-4.83,2.43-7,.5-.04-.04-.45-.77-.5-1,10.5-2.28-5.35-1.43-20-3-3.21-.34-6.41-1.21-9-1.5-6.8-.77-13.71-1.9-20.5-2.5-1.52-.14-2.98-.39-4.5-.5-6.92-.51-14.61-1.07-21.5-.5.05-.44-1.71-1.52-.75-2,4.98-2.51,71.85,4.34,83.5,5,12.9.73,25.84.74,38.75,1Z"/>
          <path class="cls-65" d="m125.89,253.18c4.98.9,11,2.13,16,2.5,5.27.39,10.47.43,15.75.5.4,0,.2-1,.25-1,10.66.1,21.7,1.63,32.25-.5,3.1-.63,8.26-4.89,6.75-1.5-5.54,3.08-12.35,8.71-16,10.5-12.47,6.11-33.61,2.29-35.25,3-.45.2-.19.98-.25,1-.1.03.59,1.38-1.75,1-6.72-2.96-17.18-3.54-22.75-5-.59-.15-1.64-.18-2.5-.5.34-1.2-3.27-1.81-5.75-2.5,2.46-2.71-10.74-6.28-16-6.5l5.75-6.5c5.1,1.86,17.53,4.43,23.5,5.5Z"/>
          <path class="cls-5" d="m221.39,225.68c1.96,2.38,2.89,2.34,3,2.5-1.33,1.62-3.32,2.36-5,3.5-3.44.64-8,4.38-10.75,5.5-17.96,7.31-32.14,5-40.25,6,1.37-.92,1.34-2.01.5-3.5,9.56-.55,7.93-3.03,9.5-3.5,10.68.18,20.72-4.47,30.75-7.5,1.37-.41,2.08,1.92,2.75.5,3.13-1.12,6.51-2.05,9.5-3.5Z"/>
          <path class="cls-5" d="m168.89,239.68c.84,1.49.87,2.58-.5,3.5-1.25.15-5.82,1.41-4,2.75.74.54,4.66.2,6,.25l-4.5,2.75c15.73,3.31.06,3.67-9,5.5l1,.75c-.05,0,.15,1.01-.25,1-5.28-.07-10.47-.11-15.75-.5-1.77-3.62,3.32-.84,6-3.25-1.53-1.26-2.76-1.31-4.5-1.75.05-.42-.85-.82-.25-1,3.8-1.1,11.57.96,0-2.5l2-2-7.75-2c7.91.71,15.84.65,23.75,0-6.13-6.75.97-3.11,7.75-3.5Z"/>
          <path class="cls-65" d="m222.89,313.18c-2.78,1.46,1.61.8,6.5-.5-.3,1.02-.28,4.07-1.25,4.5-.42.19-2.22-.1-3.25,0-15,1.49-24.07-1.56-36.5-9-.23-1.71,3.05-.8,4-2,3.36,1.49,27.65,7.27,30.5,7Z"/>
          <path class="cls-52" d="m76.4,194.68c1.12,2.35,10.78,3.16,11.5,3.5-3.03,5.75-15.12-4.17-11.5,2,.1.17-.48,1.19,2.5,2.25,2.72,8.13,8.47,11.6,17,10.75-1.08,1.38.47.68,1.5,2-9.36,2.84-1.41,5.67-1,6,.62.5,1.85,2.26,2.5,3-.56.71-.42,1.86-.75,2-.32.13-3.19-1.68-3.75-2-10-5.7-20.85-14.91-20-27.5.37-.69,1.45-2.36,1.5-2.5-.05.62.48.47.5.5Z"/>
          <path class="cls-7" d="m40.4,153.69c0,.33-.14.86.25,1,1.91.67,20.06,3.09,24.25,3,7.28,1.23,19.83,2.45,23.5,5.5-.54-.05-1.54.72-4,.5-5.04-.45-10.2-.42-15.25-1-10.62-1.79-21.2-3.23-31.75-5.5.27-.91-2.63-3.57-2.5-3.75.42-.57,4.58.14,5.5.25Z"/>
          <path class="cls-61" d="m149.89,197.68c-11.06,6.82-28.99,12.7-41.75,16-3.4.88-7.46.5-10.75,1.5-1.03-1.32-2.58-.62-1.5-2,12.51-1.25,36.33-11.65,49.5-16,1.52.11,2.98.36,4.5.5Z"/>
          <path class="cls-1" d="m102.39,247.68l-5.75,6.5c5.26.22,18.46,3.79,16,6.5,2.48.69,6.09,1.3,5.75,2.5-8.72-2.51-16.5-7.67-25.75-8l-13.25,11.5c-.22-.09-2.12-.37-3.5-1,.33-.68-.72-1.17-.5-1.75.3-.77,10.94-11.58,11.75-11.75,3.44-.72,5.59,7.24,12.5-5.5-2.72-.21-5.71-1.49-8.25-2.5-9.69-8.83,6.98,2.03,11,3.5Z"/>
          <path class="cls-16" d="m37.4,157.19c10.55,2.27,21.12,3.71,31.75,5.5,5.05.58,10.21.55,15.25,1v1.5c-5.59-.47-3.55.07.5,1-.53.94-.01.88-.5,2-7.75-2.31-52.24-7.28-55.5-10.25-.15-.13-1.62-3.18-1.25-3.75,1.72,2.18,6.39,2.28,9.75,3Z"/>
          <path class="cls-65" d="m192.89,205.68c-5.36,1.38-10.31,3.72-15.5,5.5-6.23,2.14-32.86,12.51-36.75,12.5-1.76,0-.88-.59-1.75-1-3.76-6.16,6.23-2.72,9.25-2-4.79-4.37.81-2.54,12-6,12.26-3.79,24.9-11.57,32.75-9Z"/>
          <path class="cls-27" d="m179.39,201.68c-4.11,3.43-9.63,6.31-14.5,8.5-5.25,1.24-10.23,3.28-15.5,4.5.56-1.5.05-2.68-1-4,7.38-2.75,15.42-6.72,22-10.5,2.59.29,5.79,1.16,9,1.5Z"/>
          <path class="cls-34" d="m139.39,249.68c.11.02,1.46,1.21,1.75,1.5,1.44.29,2.01-.56,2.25-.5,1.73.44,2.97.49,4.5,1.75-2.68,2.41-7.77-.37-6,3.25-4.99-.37-11.02-1.6-16-2.5-1.8-2.07-1.38-3.35-1.5-3.5.53-.25,1.04-.66,1.5-1,4.4-.6,9.2.12,13.5,1Z"/>
          <path class="cls-58" d="m131.89,224.68c1.02.48,1.43.47,1.5.5,1.68.79,3.32,2.72,4.75,3.5,1.49.81,2.89-1.81,3.25,2,.29,3.08-12.44-.53-15,1-3.3-.86-6.34-1.66-9.5-3-1.54-1.01,3.29-1.41,4.5-1.5,6.3-.46,9.84,1.68,8.5-3,1.38.55,1.91.46,2,.5Z"/>
          <path class="cls-41" d="m176.89,292.68c5.82,6.13,8.85,5.71,11.5,7-.93,3.1-2.78-.19-2.5,2.25,2.16,1.24,4.23,3.24,6.5,4.25-.95,1.2-4.23.29-4,2-1.43-.86-3.12-1.54-4.5-2.5-.57-3.14-4.46-5.52-9-13,.71-.08,1.79.12,2,0Z"/>
          <path class="cls-41" d="m237.39,310.18c-1.32,2.56,1.03,5.02,3.75,5,.18,0,.5-.55,3.25-1.5,3.2,2.75,5.33-1.17,8.5-.5-1.77.61-3.63,1.53-5.25,2.5-4.43-1.72-8.23,1.36-12.5,2-1.09.16-11.07.64-10.25-.5,1.03-.1,2.83.19,3.25,0,.97-.43.95-3.48,1.25-4.5,2.62-.7,5.08-2.65,8-2.5Z"/>
          <path class="cls-65" d="m168.89,168.19c2,2.31,6.69-.31,6.5,2-2.99.07-5.47-.82-6.25-.5-.45.19-.18.97-.25,1-.71.32.92,1.01-4.5,1.5-8.38.76-20.01-1.5-28.5-2.5-4.85-.57-9.52-2.65-14.5-2.5l1-1c10.54,1,25.33,4.67,40.75,4.5,6.95-.08,4.05-1.69,5.75-2.5Z"/>
          <path class="cls-5" d="m238.39,181.19c.34,1.33.63,2.68,1,4,.2.7,1.3,2.74,1,3.25-5.47-.8-2.5.52-2.5.75,0,.99-.06,2.01,0,3-2.85,4.8-2.1,2.01-3,2l-5.5-7.5c2.67-1.23,6.49-3.51,8.25-6,.04-.03.49.68.75.5Z"/>
          <path class="cls-53" d="m88.4,163.19c11.33,1.02,22.67,1.92,34,3l-1,1c-6.16-.94-11.28-.18-17.5-.5-6.52-.33-13-.96-19.5-1.5v-1.5c2.46.22,3.46-.55,4-.5Z"/>
          <path class="cls-50" d="m116.89,216.68l-12,4c-1.95.34-3.46.51-5.25,1.5.46,2.93-.57,1.77-.75,2-.65-.74-1.88-2.5-2.5-3,2.42-2.78,6.98-2.5,10.25-3.5,11-3.37,20.98-8.7,10.25-1Z"/>
          <path class="cls-54" d="m148.39,210.68c1.05,1.32,1.56,2.5,1,4-2.62.61-5.34,1.07-8,1.5-2.55.42-7.41,1.41-8.5,1.5-.05,0,.15-1.03-.25-1-2.61.2-4.92,1.87-5.75.5,7.26-2.04,14.42-3.86,21.5-6.5Z"/>
          <path class="cls-5" d="m199.39,204.68c.05.23.46.96.5,1-3.4.98-6.67,2.33-10,3.5-4.94,1.74-10.05,3.14-14.75,5.5-.74-2.33,4.89-1.94,2.25-3.5,5.19-1.78,10.14-4.12,15.5-5.5,2.29-.59,4.98-.67,6.5-1Z"/>
          <path class="cls-2" d="m137.39,243.18l7.75,2-2,2c11.57,3.46,3.8,1.4,0,2.5-.6.18.3.58.25,1-.24-.06-.81.79-2.25.5-.29-.29-1.64-1.48-1.75-1.5,2.79-.79-3.55-3.47-7-7.25.29-.65,4.48.7,5,.75Z"/>
          <path class="cls-66" d="m264.88,307.18c-3.7-1.73-.84.23-5,3-.33.22-2.71,1.34-4,2-.59.31-2.21.73-3,1-3.17-.67-5.3,3.25-8.5.5.4-.14,5.55-3.38,7.75-3.5.46-.03,1.13,4.89,6.25-3,1.09,7.44,3.67-3.75,4-4.25.2-.3,1.23-.43,1.5-.75l1,5Z"/>
          <path class="cls-50" d="m135.39,233.68c-3-.73-6.01-1.22-9-2,2.56-1.53,15.29,2.08,15-1l9.25-1c-1.83,2.09.19.9,1,2l-16.25,2Z"/>
          <path class="cls-34" d="m244.39,197.18c-9.52-.62-6.21-.52-6.5-5-.06-.99,0-2.01,0-3,3.24-.99,5.41,5.13,6.5,8Z"/>
          <path class="cls-1" d="m87.9,198.18c5.61,2.65-3.56,4.9-6.25,4.5-.29-.04-4.32-2.22-5.25-2.5-3.62-6.17,8.47,3.75,11.5-2Z"/>
          <path class="cls-41" d="m129.89,224.18c1.34,4.68-2.2,2.54-8.5,3l-1-3c1.25-.28,2.96-1.08,4.25-1.5,4.29,6.61-.45-.89,3-.5.27.03,1.3,1.62,2.25,2Z"/>
          <path class="cls-58" d="m141.39,216.18l.5,1c-3.43.79-6.54,1.39-10,2l1-1.5c1.09-.09,5.95-1.08,8.5-1.5Z"/>
          <g>
            <path class="cls-8" d="m345.13,313.18c3.06-.13-2.44,2.69-4.5,3.5-2.02.8-25.53,6.11-25.75,4.75,7.32-2.23-1.5-1.79-4.5-.5-.58-3.26,16.85-3.61,23.75-4.75,4.11-.68,10.43-2.98,11-3Z"/>
            <path class="cls-8" d="m244.14,316.68c13.81-1.03,17.87,3.59,19.5,3.5,4.71-.25.15-2.99.25-3.25.31-.84,14.79,5.95,16,7.5-.43.86-13.44-5.59-15-3.5-.5.67,8.03,6.96-10.25-2.75-11.11-.77-20.8,1.71-10.5-1.5Z"/>
            <path class="cls-65" d="m174.39,298.18c-1.73,1.78,1.84,8.61,4.25,10.5,5.31,1.94,14.95,7,3,3.5-10.16-2.98-9.58-10.58-11.75-12.5l4-2.5c.67.8.46.96.5,1Z"/>
            <path class="cls-8" d="m289.38,319.68c1.16,0,2.34-.05,3.5,0,4.56.21,13.54,3.05,15.75,0,.92.44-1.32,3.44-1.5,3.5-2.71.97-32.49-3.39-17.75-3.5Z"/>
            <path class="cls-8" d="m276.63,320.18c3.38,1.11,7.22-.13,10.25,2.25-3.49-.32-11.04-.46-10.25-2.25Z"/>
            <path class="cls-10" d="m292.88,319.68c-1.16-.05-2.34,0-3.5,0,.04-.42-.19-1.35.25-1.5,2.77-.95,14.24.44,3.25,1.5Z"/>
            <g>
              <path class="cls-59" d="m156.89,100.69c.74.06,1.5-.04,2.25,0-10.71,9.5-28.79,2.86-24.25,7-20.43-4.05-45.66-9.17-61.75-23.5-4.22-3.76-10.77-12.57-6.5-11,1.29.48,10.8,10.22,22,16.5,12.63,7.08,57.07,22.16,68.25,11Z"/>
              <path class="cls-13" d="m123.39,113.19c-.1.05-1.21,1.49-1,2-4.06.28-15.55-.54-16-6-.03-.33.01-.67,0-1,.88.24,10.76-.45,17,5Z"/>
              <path class="cls-41" d="m214.39,92.19l.5,1c-4.75.58-13.22,3.84-17.5,4.5-10.29,1.59-23.41,1.66-34,2.5.59-.66,1.05-.53,1-1,14.4-.56,36.05-3.38,50-7Z"/>
              <path class="cls-41" d="m125.89,136.19v1.5c-7.29,1.33-14.67,2.92-22,4-1.01.15-2.44-.14-3.5,0-.2-.17-3.52-1.64-4.25-3,6.84-.21,24.45-1.16,29.75-2.5Z"/>
              <path class="cls-41" d="m99.39,80.69c.23-4.81,3.15-1.12,4.75-2,.52-.29.11-1.36.25-1.5,5.34-5.31-5.4-3.98-11.25-11.5,7.57.92,12.95,6.6,19.75,9.75.21.7-11.72,5.29-13.5,5.25Z"/>
              <path class="cls-55" d="m123.64,72.69c1.32-.16,1.65-.17,1.75.75.1.9-11.86,12.61-12.75,12.75-.26.04-4.75-1.82-4.75-2.25-.01-.97,14.79-11.13,15.75-11.25Z"/>
              <path class="cls-1" d="m74.4,65.19l11.25,9.5c3.65,1.39,1.64-.29.25-3h6.75c.04,1.81-2.17-.67-2.25,2-.06,1.99,1.05,2.6,2,4-10.49-3.46-12.9-4.39-21.5-12.25.33-.53,2.74-.15,3.5-.25Z"/>
              <path class="cls-50" d="m106.39,108.19c.01.33-.03.67,0,1-1.66.17-2.9,0-4.5-.5-5.42-1.66-15.54-8.46-20.5-12,7.34,1.38,20.42,10.25,25,11.5Z"/>
              <path class="cls-59" d="m65.4,43.69c1.26.8,2.39,1.47,3.5,2.5-1.68.92.28,5.13-1,11-.13-.09-.73.1-1,0-.12-.04,0-2.37-.75.5l-.75-1c.19-1.8-.5-1.42-.5-1.5-.03-2.92-1.77-10.27.5-11.5Z"/>
              <path class="cls-2" d="m104.39,77.19c-.14.14.27,1.21-.25,1.5-1.6.88-4.52-2.81-4.75,2-1.67-.04-5.69-2.57-7-3-.95-1.4-2.06-2.01-2-4l14,3.5Z"/>
              <path class="cls-62" d="m85.9,71.69c1.39,2.71,3.4,4.39-.25,3l-11.25-9.5c8.04-1.09,4.35,2.42,11.5,6.5Z"/>
              <path class="cls-41" d="m81.4,96.19c-3.06-.93-6.93-2.66-9.5-4.5-.76-.54-4.02-4.33-6.5-5.75,6.39.57,14.74,9.34,16,10.25Z"/>
              <path class="cls-66" d="m67.9,57.19c.43.31,2.77,3.71,7,5.75-2.58.98-6.66,1.62-7,1.75-.04-.9,2.6-1.95,2.5-2.25-.39-1.15-2.93,1.29-3,.25.27-1.2.5-1.18.5-1.25-.01-.25-1.34-.98-1.5-1.75.14-.33.2-1.84.5-2.5.27.1.87-.09,1,0Z"/>
              <g>
                <path class="cls-63" d="m183.89,1.7l-.75,1c3.44.06,6.51,1.4,9.25,3.5-9.26-4.49-17.25-3.73-27-3.5-1.34.03-2.6-.06-4,0-14.29-.2-28.6.18-42.75,2.5-.58-.73,2.05-1.41,2.5-1.5,22.13-4.34,40.39-4.66,62.75-2Z"/>
                <path class="cls-43" d="m198.39,16.2c.55.19,1.8,1.27,2.5,1.5.23.07-.9.63,4.5,1.5l-.5,1c-1.36-.19-5.26-.61-5.5,0-.66-.39-1.92-.44-2-.5-.59-.42-4.43-3.71-4-4.25,1.69-.62,3.45.2,5,.75Z"/>
              </g>
              <path class="cls-27" d="m103.89,141.69c1.06.99,2.01,1.93,3,3,1.23,1.33,2.58,2.9,3.5,4.5-.09.02.25.74-1.75.5-.56-.16-7.03-6.95-8.25-8,1.06-.14,2.49.15,3.5,0Z"/>
              <path class="cls-52" d="m97.89,157.69c-2.21,1.08-13.66,7.53-6.5,1,.11-.1.53-.04,2.5-1.5.68-.5,1.29-1.04,2-1.5l2,2Z"/>
              <path class="cls-61" d="m102.89,153.19c.76,3.39,3.21.65-2.5,3.5l-1.5-2c.84-.49,1.62-1.03,2.5-1.5.2,1.01.87.32,1.5,0Z"/>
              <path class="cls-32" d="m61.4,75.69h.5c9,10.11,6.39,11.71-.5,0Z"/>
              <path class="cls-26" d="m65.4,56.69c-.55,5.04-6.84,10.48-.5-1.5,0,.08.69-.3.5,1.5Z"/>
              <path class="cls-16" d="m60.4,64.69c.07,1.16-1,1.57-1.5,2.5-2.64-1.38-.52-1.89-.5-2.25.28-6.12-.38-1.69,2-.25Z"/>
              <g>
                <path class="cls-9" d="m83.9,149.19c6.26.88,1.81-.13.5-3.5,1.9,1.27,4,2.16,5.5,4,1.65,2.02,2.64,5.2,4,7.5-1.97,1.46-2.39,1.4-2.5,1.5-.61-.89-1.52-3.72-2.25-4-1.1-.42-13.35,2.81-13-15,.35,4.19,4.73,12.21,9,13,5.22.97,1.42-.67-1.25-3.5Z"/>
                <path class="cls-41" d="m86.4,130.19c.65,3.77,4.88,4.2,6.75,7-8.57-1.49-13.95-7.95-17,0-.39-10.63,12.23.17,8.75-7.5l1.5.5Z"/>
                <path class="cls-24" d="m97.39,154.69c-.48.3-1.01.68-1.5,1-.71.46-1.32,1-2,1.5-1.36-2.3-2.35-5.48-4-7.5,2.41.43,6.17,2.93,7.5,5Z"/>
                <path class="cls-61" d="m84.4,145.69c1.31,3.37,5.76,4.38-.5,3.5-.14-.15-2.31-1.38-3-2.75-3.64-7.25,1.12-2.34,3.5-.75Z"/>
                <path class="cls-1" d="m98.89,154.69l1.5,2c-1.4.7-2.38.94-2.5,1l-2-2c.49-.32,1.02-.7,1.5-1,.23-.14,1.25.15,1.5,0Z"/>
                <path class="cls-25" d="m102.89,153.19c-.63.32-1.3,1.01-1.5,0,1.83-.98,3.39-2.56,5.25-3.5,1.38.61-3.36,3.3-3.75,3.5Z"/>
              </g>
              <path class="cls-34" d="m123.39,87.69l-2,1c.51-1.89,1.16-1.22,2.25-2.5.82,1.38-.23,1.43-.25,1.5Z"/>
              <path class="cls-5" d="m121.39,88.69l2-1c-.79,2.87-2.55,3.07-2,1Z"/>
              <g>
                <path class="cls-48" d="m105.89,121.19c-1.66.43-3.33.59-5,1-7.64-1.17-16.54,6.18-23.5-.25,15.7-4.48,12.56.4,13.25.75,1.35.68,12.8-4.06,15.25-1.5Z"/>
                <path class="cls-29" d="m72.4,115.19c-1.77.89-4,1.43-2.5,0h2.5Z"/>
              </g>
            </g>
            <g>
              <path class="cls-65" d="m172.39,294.68c.74,1.09,1.34,2.3,1.5,2.5l-4,2.5s-.03-.47-.75-1c-31.43.35-63.72-.96-93.24-12.75,31.83,6.69,63.94,9.89,96.49,8.75Z"/>
              <path class="cls-49" d="m245.39,200.68c-12.91-.26-25.85-.27-38.75-1-11.64-.66-78.51-7.5-83.5-5-.96.48.8,1.56.75,2-2.04.17-2.1,1.09-3.75,2-2.81-3.3-6.92-3.72-5.25-5.5.68.25,2.4.95,2.5,0,6.96,1.45,12.66-.19,19.75.5.38-2.61.29-1.86,2.5-2,2.86-.18,24.07,2.51,31,3,2.22.16,3.25-.6,4.5-.5.39.03.11.97.5,1,2.84.24,11.52-.3,14.5,0,.39.04.11.96.5,1,3.9.37,8.07.35,12,.5.4.21.06,1.69,1,2,3.16,1.02,40.88.92,49,1l9.5,1v1c-5.59-1-11.11-.89-16.75-1Z"/>
              <path class="cls-56" d="m125.89,248.68c-.46.34-.97.75-1.5,1-2.06-2.46-10.34-2.84-13.75-4-3.98-1.35-25.73-11.59-27-13-.24-.27-3.2-5.58,1-4.5.41.11,4.97,4.61,6.5,5.5,10.44,6.08,24.81,9.63,36.5,13,.58.56-.94,1.4-1.75,2Z"/>
              <path class="cls-41" d="m94.39,224.18c-1.82,4.14-14.29-5.61-17.5-9.75-.73-.94-3.77-5.62-4-6.25-.05-.14-.33-2.1-.5-3-.41-2.13,1.07-3.23-.25-3-5.68,5.38-7.98,14.04-8.25,9.75-.25-4.02,8.38-10.15,9-11,.74-1.02,1.13-3.56,1.5-4.25-.85,12.59,10,21.8,20,27.5Z"/>
              <path class="cls-3" d="m171.39,289.18c.66-.18.84-.86,1.5-1-.46,2.09,1.12,3.05,2,4.5,4.53,7.48,8.43,9.86,9,13-4.78-3.33-4.52-3.34-8.25-7.5-.13-.14-1.14.12-1.25,0-.04-.04.17-.2-.5-1-.16-.2-.76-1.41-1.5-2.5-.23-.34-.09-2.67-1.25-3-22.63.81-45.98.62-68.25-4,20.03,1.66,40.6,5.11,60.75,3.5,9.63-.77,7.33-1.88,7.75-2Z"/>
              <path class="cls-61" d="m72.4,205.18c.17.9.45,2.86.5,3-.52.91-1.45,1.74-2,2.5-2.97,4.05-2.47,7.18-1,11.5.61,1.78,1.85,3.52,3,5-.66-.26.43,1.92.5,2-8.81,1.23-10.3-19.01-1-24Z"/>
              <path class="cls-52" d="m116.89,186.69c.6-4.45-2.97-4.38,0-6,5.79,4.86,24.83,15.75,9.75,11-1.99-.63-7.52-3.67-9.75-5Z"/>
              <path class="cls-50" d="m92.89,197.68c-2.17-1.86-2.19-3.61-6-6-.73-4.15-8.4-7.39-10.5-9.5-.72-.72-2.8-2.95-1.75-3.5,9.56,5.78,15.57,14.1,25,19.5-3.26,2.4-4.27,1.63-6.75-.5Z"/>
              <path class="cls-35" d="m132.89,217.68l-1,1.5c-1.66.29-16.01,4.71-15.5,1.25.19-1.26,8.86-2.79,10.5-3.25.83,1.37,3.14-.3,5.75-.5.4-.03.2,1,.25,1Z"/>
              <path class="cls-30" d="m15.4,154.69c-3.11-.63-6.45-1.2-9.5-2-1.3-.34-2.74-.62-4-1v-.5c4.62.97,18.55,1.42,22.75,3,7.92,2.98,1.25,2.62-9.25.5Z"/>
              <path class="cls-41" d="m92.89,175.19c1.43,2.01,11.18,13.09,12.25,10,14.81,12.05-8.91-1.23-13.75-8.5-.68-1.02-1.72-1.7-1.25-2l2.75.5Z"/>
              <path class="cls-41" d="m138.39,222.68c1.49,1.82-3.05.54-5,2.5-.07-.03-.48-.02-1.5-.5-5.47-3.7,4.99-6.35,6.5-2Z"/>
              <path class="cls-1" d="m164.89,210.18c-10.23,4.61-12.73,4.62-23,7l-.5-1c2.66-.43,5.38-.89,8-1.5,5.27-1.22,10.25-3.26,15.5-4.5Z"/>
              <path class="cls-61" d="m86.9,191.69c-1.22-.77-3.22-1.77-3-1-5.83-8.87-4.87-2.48-5-2h-1c.12-2.35-1.23-4.26-1.5-6.5,2.1,2.11,9.77,5.35,10.5,9.5Z"/>
              <path class="cls-61" d="m86.9,191.69c3.81,2.39,3.83,4.14,6,6-.31-.05-1,.65-1,.75-.04.88,2.5,6.19-3.75-3.75-6.3-2.22-2.34-1.8-2.25-2.25.07-.34-1.6-1.15-2-1.75-.22-.77,1.78.23,3,1Z"/>
              <path class="cls-61" d="m120.39,224.18l1,3c-1.21.09-6.04.49-4.5,1.5-3.96-1.68-7.89-1.93,3.5-4.5Z"/>
              <path class="cls-65" d="m129.14,181.69c10.69.68,10.82,6.67,3.5,4-.25-.09-3.99-3.53-3.5-4Z"/>
              <path class="cls-5" d="m105.64,229.68c18.89,5.01,24.45,10.81,5.5,3-1.68-.69-4.24-1.76-5.5-3Z"/>
              <path class="cls-51" d="m64.9,157.69c-4.19.09-22.34-2.33-24.25-3-.39-.14-.25-.67-.25-1,7.88.93,16.6,2.66,24.5,4Z"/>
              <path class="cls-59" d="m116.89,216.68c-.07.05.27.81-.75,1.5-6,3.47-10.67,2.4-11.25,2.5l12-4Z"/>
              <path class="cls-67" d="m69.9,222.18c-1.47-4.31-1.97-7.45,1-11.5-1.06,3.79-1.95,7.6-1,11.5Z"/>
              <path class="cls-25" d="m73.4,229.18c-.07-.08-1.16-2.26-.5-2,.85,1.09,3.89,3.2,5,4.75-.85.51-4.01-2.17-4.5-2.75Z"/>
              <path class="cls-29" d="m78.9,188.69c-.56,2.02-1.38,4.19-2.5,6-.02-.03-.55.12-.5-.5.57-1.57,1.93-4.17,2-5.5h1Z"/>
              <path class="cls-48" d="m101.14,224.68c6.69,2.37,6.83,4.74,0,.5l-.25-.25.25-.25Z"/>
              <path class="cls-5" d="m117.39,193.18c-.1.95-1.82.25-2.5,0-.86-.32-1.65-.9-2.5-1.25.27-.93,3.43.92,5,1.25Z"/>
              <path class="cls-47" d="m253.64,201.68c1.77-.78,5.61,1.12,1.5.5-.41-.06-2.5-.06-1.5-.5Z"/>
            </g>
            <path class="cls-53" d="m312.63,315.68l.25.25v.5l-.25.25h-.5l-.25-.25.25-.25.25-.25.25-.25Z"/>
          </g>
          <path class="cls-1" d="m302.88,165.69c-.07.48.12,1.19,0,1.5-.34.92-1.8,1.6-1.5,2.25.12.26,4.77,1.53,5.5,1.75l-1,1.5c-.53-.22-1.65-1.05-1.75-1-.2.1-.64,1.98-.75,2.5-1.52-.51-.78-.29-2,0-4.29-5.45-10.44-4.51-3.5,2-3.6,1.44-3.51-2.93-6.25-4-.91-.36-10.5-1.35-12.75-1.5-7.86-.53-7.85,1.89-3-2,.89-.71,1.49-1.29,1.5-2.5,5.58.23,10.86,1.17,16.5,1,5.19-.16,4.72-.64,9-1.5Z"/>
          <path class="cls-41" d="m273.38,162.69c-10.9,1.63-9.67,4.27,1.25,4.5.15,0,.24-1.1,2.75-1,0,1.21-.61,1.79-1.5,2.5-3.2-1.18-10,2.39-13.25,3-1.87.35-2.37-1.03-2.5-1-4.77.91-9.42,2.8-14.25,3.5,2.35-3.19,14.38-1.1,11-6.25-.42-.64-2.12-1.78-3-2-.29-.86,1.47-1.64,1.5-1.75,8.01-.25,8.51-2.1,18-1.5Z"/>
          <path class="cls-20" d="m273.38,162.69c4.96.31,17.87,2.09,20.5,4.5-5.64.17-10.92-.77-16.5-1-2.51-.1-2.6,1-2.75,1-10.92-.23-12.15-2.87-1.25-4.5Z"/>
          <path class="cls-41" d="m305.88,172.69c1.39.58,5.84,3.04,7.5,4l-5,3c-1.59-1.28-3.12.4-4.5,1-1.45-2.65,4.71-4.76-.5-6.5.11-.52.55-2.4.75-2.5.1-.05,1.22.78,1.75,1Z"/>
          <path class="cls-56" d="m311.38,286.18c-9.76,8.48-22.12,12.36-34,17-.12-.39-.68-.75-1-1,.93-.58,1.4-1.45,1.5-1.5.14-.07.68.07,3-1,1.01-.47,1.98-1.05,3-1.5,6.21-2.72,20.22-7.13,17-8.5,1.85-.78,2.18-2.36,2.75-2.5.12-.03.81,1.37,2,1,2.22-.69.6-1.76,5.75-2Z"/>
          <path class="cls-20" d="m300.88,289.68c3.22,1.37-10.79,5.78-17,8.5,3.14-3.02,12.18-6.47,17-8.5Z"/>
          <path class="cls-1" d="m266.38,306.68c-.81.58-.94.96-1,1-.62.05-.47-.49-.5-.5l-1-5c.13-.16.7-.7,1-1,2.69-2.72,9.9-7.25,13.5-9.75-5.56,13.51-7.36,11.93-12,15.25Z"/>
          <path class="cls-52" d="m264.88,301.18c-.3.3-.87.84-1,1-.27.32-1.3.45-1.5.75-.33.5-2.91,11.69-4,4.25-.2-1.37-.03-4.3,0-6,0-.57.81-.44,0-1.5,1.66-.99,3.48-2.3,5-3.5l1.5,5Z"/>
          <path class="cls-66" d="m277.88,300.68c-.1.05-.57.92-1.5,1.5-.12-.09-.93.19-1-.25-.06-.4,2.33-3.31,4-7,.57-1.26.69-5.31,1.75-5.75,3.06-1.28-3.05,10.31-3.25,11.5Z"/>
          <path class="cls-56" d="m314.88,171.19c-.16.02-1.69.96-3,1-1.85.65-3.35-.49-5-1-.73-.22-5.38-1.49-5.5-1.75-.3-.65,1.16-1.33,1.5-2.25,3.87,2.57,9.41,1.21,12,4Z"/>
          <path class="cls-64" d="m311.88,172.19c.04.77,1.92.92,2,1,.21.23-1.9-.32,2.5,3l-1,1.5c-.62-.4-1.36-.63-2-1-1.66-.96-6.11-3.42-7.5-4l1-1.5c1.65.51,3.15,1.65,5,1Z"/>
          <path class="cls-65" d="m313.88,173.19c-.08-.08-1.96-.23-2-1,1.31-.04,2.84-.98,3-1,5.23-.58,1.94,1.15-1,2Z"/>
          <g>
            <path class="cls-56" d="m361.38,245.18c-.67.51-8.17,3.14-10,3,4.91-3.24,3.75-6.21,2.75-11.5-.94,2.04-1.99,6.92-2.75,8.25-1.03,1.79-4.1,2.45-3.5,4.75-1.23.46-2.48.47-3.5,1.5-.03-.25-.9-4.57-1-5-.24-1.02-1.29-5.87-2.25-6l-.25,1c-2.59,3.23-.02,10.23.5,14.25,1.16.4,1.39-2.17,1.5-2.25.05-.03.36-.12,1-.5.6-.36,5.32-1.91,7-2.5-3.08,4.61-8.29,6.69-11.5,11.25-2.99,4.25-3.05,12.75-14,15,1.73.68,5.87-1.62,6,.75l-9.75,1.5c4.3,1.03,15.39-2.89,5.25,2.5-4.65,2.47-8.8,2.83-14,2.5,2.06-2.39,20.76-11.54,26-23,3.43-7.51-3.09-11.77,1-19.75.08-10.91-3.63,3.48-7.5,10-1.55,2.61-5.38,7.09-8,11.25-.61.97-1.47,1.72-2,2.75,4.91-2.71,10.63-7.44,13-13.25,1.42-.24.87.8,1,1-.57,2.05-1.17,4.04-2,6-3.33,3.13-5.68,7.04-9.25,10-4.52,3.76-15.18,8.95-20.75,14.5-.93.05-2.09.09-3,0-2.25-.23-3.89.87-4.5-1.5,9.72-4.29,15.89-7.12,23-15.5,12.54-14.78,4.35-16.73,5-18.25h1l2.25,5.25c15.42-22.2,3.31-49.07-11.75-68,3.73,2.71,8.18,7.44,8.75,7.5.23.02,3.72-2.52,3.75-2.75.03-.2-2.15-2.82-2.5-3.25.42-1.31.98-1.72,2-2.5.34-.26,4.55,1.33-1-6h1c2.52,2.35,4.69,5.36,6.5,8.25,2.76,4.42,6.87,10.63,5,10.5,6.93,4.17,2.47,18.23,13.75,33.75,2.8-12.04,5.87-23.73,10.25-35.25.45-1.19-.52-1.19-.5-1.25.66-1.69,6.23-11.54,7.5-13.5,3.39-5.23,7.73-12.14,7.5-8.25-.07,1.24-6.33,17.29-8,23.5-2.12,7.88-3.16,16.07-5,24-1.85,7.98-8.05,24.28-3.75,20.25-.66,3.19,2.58,2.86-.25,5Z"/>
            <g>
              <g>
                <path class="cls-47" d="m361.38,245.18c1.59,1.63-1.08,2.55-2.5,3-1.98.63-3.09.27-8,2-1.68.59-6.4,2.14-7,2.5-.24-.84.55-1.08.5-1.5,1.02-1.03,2.27-1.04,3.5-1.5,1.19-.45,2.42-.79,3.5-1.5,1.83.14,9.33-2.49,10-3Z"/>
                <path class="cls-7" d="m351.38,248.18c-1.08.71-2.31,1.05-3.5,1.5-.6-2.3,2.47-2.96,3.5-4.75.76-1.33,1.81-6.21,2.75-8.25,1,5.29,2.16,8.26-2.75,11.5Z"/>
                <path class="cls-47" d="m335.38,276.68c-3.83,3.42-5.87,3.45-4.5,5-.87-.18-3.51-.18-3.5.5-.02-.05-.68.17-.5-1,10.14-5.39-.95-1.47-5.25-2.5l9.75-1.5c3.46-.95,4.29-2.36,4.5-2.5.62.12,1.02-.22,1.5-.5,1.18.22-1.01,1.62-2,2.5Z"/>
              </g>
              <g>
                <path class="cls-41" d="m332.38,191.19c1.84,3.27,3.65,10.6,8,11,.4,2.22-1.33-.02-1.5,1.75-.02.22,1.58,2.1,2.5,3.75-2.85-1.22.87,4.22,1.5,6.25,1.17,3.74.69,8.82,4,8.25.54,1.54.31,2.47.5,3l-6.5-2c-11.83-12.92-8.15-15.83-8.5-16.75-4.19-10.9-11.47-9.61-1.25-17.75.3,1.78,1.18,2.38,1.25,2.5Z"/>
                <path class="cls-7" d="m338.88,260.68c-1.62-2.29-.97-5.71-2.5-8-.13-.2.42-1.24-1-1l-11,10.5c2.62-4.16,6.45-8.64,8-11.25,3.87-6.52,7.58-20.91,7.5-10-4.09,7.98,2.43,12.24-1,19.75Z"/>
                <path class="cls-41" d="m340.38,223.68c6.19,3.48,4.05,8.45,4,9-3.01,2.44-.74,3.99-.5,5.5.28,1.74,1.69,2.8.5,3-1.41-3.96-5.27-6.68-5.5-7.25-.38-.94-1.13-7.97,1-3.5,1.55-4.66-.46-5.2-4-7.5.41-.7,3.85.38,4.5.75Z"/>
                <path class="cls-61" d="m344.38,241.18c1.19-.2-.22-1.26-.5-3-.11-1.86.33-3.67.5-5.5.16-.13.74-.43,1-.5,6,7.22-1.57,24.58-1,9Z"/>
                <path class="cls-64" d="m341.38,207.68c5.16,9.3,4.01,10.27,5.5,14.5-3.31.57-2.83-4.51-4-8.25-.63-2.03-4.35-7.47-1.5-6.25Z"/>
                <path class="cls-5" d="m335.38,251.68c-2.37,5.8-8.09,10.54-13,13.25.53-1.03,1.39-1.78,2-2.75l11-10.5Z"/>
                <path class="cls-20" d="m347.38,225.18c.16.44.46.6.5,1-.66,3.32-1.47,1.89-2,3.5-.24.71-.63,1.81-.5,2.5-.26.07-.84.37-1,.5.05-.55,2.19-5.52-4-9l.5-.5,6.5,2Z"/>
                <path class="cls-61" d="m341.38,244.68c-.04,3.12-.02,5.38,1.5,8.5-.11.08-.34,2.65-1.5,2.25-.52-4.02-3.09-11.02-.5-14.25.74-.09.52,1.65.5,3.5Z"/>
                <path class="cls-20" d="m340.38,202.18c-4.35-.4-6.16-7.73-8-11,1.98,1.42,7.72,9.42,8,11Z"/>
                <path class="cls-13" d="m345.88,229.68c.53-1.61,1.34-.18,2-3.5,7.87,11.11,1.84,3.43-2,3.5Z"/>
                <path class="cls-27" d="m343.38,246.18l-2-1.5c.02-1.85.24-3.59-.5-3.5l.25-1c.96.13,2.01,4.97,2.25,6Z"/>
                <path class="cls-60" d="m346.63,230.68c.23-.1,2.07,2.11,1,2.5-.2.07-1.74-2.18-1-2.5Z"/>
                <path class="cls-20" d="m343.88,238.18c-.24-1.51-2.51-3.06.5-5.5-.17,1.83-.61,3.64-.5,5.5Z"/>
              </g>
            </g>
          </g>
          <path class="cls-24" d="m259.89,273.18c-1.68,2.22-1.79.09-2,0-.06-.02.36-1.14-.75-1-.84.11-4.62,3.38-15.25,7.5v-.5c5.67-2.64,16.45-10.75,19-16.5,4.67-2.19-.3,9.58-1,10.5Z"/>
          <path class="cls-9" d="m233.39,170.19c-2.84,3.28-5.43,6.66-8.75,9.5l-15,1.5c6.51-7.19-1.21-4.44-5.75-3.5-.29-2.53-.95-1.09-2.5-1.5-2.46-.66-3.99-.78-6.5-1,2.63-2.09-1.27-.82,0-2.5,5.52.67,16.19,1.35,21.5,1,5.67-.38,11.49-2.18,17-3.5Z"/>
          <path class="cls-47" d="m135.89,169.69c8.49,1,20.12,3.26,28.5,2.5,2.91,2.75-12.16-.49-9.5,3.5-7.48-.56-25.64-4.16-35.5-5.5,5.52-2.36,10.92.5,16.5-.5Z"/>
          <path class="cls-9" d="m229.39,186.69l5.5,7.5c-8.06-.1-16.41.66-24-1.75,6.09-2.44,12.46-2.97,18.5-5.75Z"/>
          <path class="cls-41" d="m194.89,175.19c2.51.22,4.04.34,6.5,1-10.26,2.45-21.27.3-31.75.5-.33,0-.27.62-.25,1-1.69-.41-2.22,1.1-3-2,8.25-.12,14.78-1.7,28.5-.5Z"/>
          <path class="cls-41" d="m203.89,177.69c-2.04.42-6.06,2.33-11.75,2.5-3.74.11-18.94-1.57-22.75-2.5-.02-.38-.08-.99.25-1,10.48-.2,21.49,1.95,31.75-.5,1.55.41,2.21-1.03,2.5,1.5Z"/>
          <path class="cls-51" d="m121.39,167.19c4.98-.15,9.65,1.93,14.5,2.5-5.58,1-10.98-1.86-16.5.5-2.16-.29-4.32-.71-6.5-1-.32-2.3-8.87-.32-9-2.5,6.22.32,11.33-.44,17.5.5Z"/>
          <g>
            <path class="cls-65" d="m255.39,162.69c-.09.46.11,1.06,0,1.5-.03.11-1.79.89-1.5,1.75.88.22,2.58,1.36,3,2,3.38,5.15-8.65,3.06-11,6.25-.57,3.97-3.25,4.13-7.5,7-.26.18-.71-.53-.75-.5-1.76,2.49-5.58,4.77-8.25,6-6.04,2.78-12.41,3.31-18.5,5.75,7.59,2.41,15.93,1.65,24,1.75.9.01.15,2.8,3-2,.28,4.48-3.02,4.38,6.5,5,.22.57.59.85,1,1.25-34.72-4.51-69.71-9.36-104.74-12.25l-1-1.5c8.8.33-1.76-.95-10-7-11.98-3.74-1.46.91-1.75,2.25-.87,4.05-8.66-8.93-19.5-7,3.15,2.25,5.55,5.27,8.5,7.75-2.97,1.62.6,1.55,0,6-4.47-2.65-17.56-13.85-20.25-14.5-6.16-1.48-5.85.04-3.75,3l-2.75-.5c-.47.3.57.98,1.25,2-6.66-5.94-6.09-2.16-13.5-.25,2.35-2.52,5.09-5.01,6.5-8.25.49-1.12-.03-1.06.5-2,6.35,1.46,19.16,1.83,28,3,2.18.29,4.34.71,6.5,1,9.86,1.34,28.02,4.94,35.5,5.5,4.82.36,7.08.06,11.5,0,.78,3.09,1.31,1.59,3,2,3.81.93,19.01,2.61,22.75,2.5,5.69-.17,9.71-2.08,11.75-2.5,4.54-.94,12.26-3.69,5.75,3.5l15-1.5c3.32-2.84,5.91-6.22,8.75-9.5.02-.03.25-.22.5-.5.09-.09,1.25.42,1-1,6.89-.2,13.33-5.34,20.5-6Z"/>
            <path class="cls-5" d="m101.14,171.69c5.97-.93,8.93,4.81,12.25,8.75-1.07,1.83-12.14-7.09-13-8,.3-.22.6-.73.75-.75Z"/>
            <path class="cls-7" d="m84.4,165.19c6.5.54,12.98,1.17,19.5,1.5.13,2.18,8.67.2,9,2.5-8.84-1.17-21.65-1.54-28-3-4.05-.93-6.09-1.47-.5-1Z"/>
            <path class="cls-41" d="m207.14,183.19c.64.55.02,1.09-.5,1.5-4.63,3.69-23.71,9.44.5-1.5Z"/>
          </g>
          <path class="cls-2" d="m234.89,168.69c.25,1.42-.91.91-1,1-2.87.39-5.7-.34-8.5-.5-.02-.69-.57-.22-1-1,3.54-.3,6.97.6,10.5.5Z"/>
          <path class="cls-9" d="m145.39,267.68c8.97,1.66,17.85,3.47,27,3.5-.03.02.12.11-.5.5-3.69,2.32-4.42.86-6,2.75-.32.38,1.08,1.32.25,1.75-1.68.87-33.04.56-37.75.5-1.86-3.85-5.46-8.41-7.5-12-.06-.11.04-.6,0-1,5.57,1.46,16.03,2.04,22.75,5,2.34.38,1.65-.97,1.75-1Z"/>
          <path class="cls-5" d="m128.39,276.68c-4.52-.06-8.33.44-13,0-4.45-.42-12.01-1.15-10.5-2.5,3.2-.62,13.16-6.89,16-9.5,2.04,3.59,5.64,8.15,7.5,12Z"/>
          <path class="cls-1" d="m73.4,264.68l-1,.25,1.5,1.75c-2.44-1.48-4.64-3.91-7.5-4.5-.07-.11-1.22-.06-1.5-1.75l10.75-13.75,7.75,3.75-12,12.5c-.01.62,1.47,1.41,2,1.75Z"/>
          <path class="cls-52" d="m73.4,264.68c.11.07,1.79.67,2.5,1,1.38.63,3.28.91,3.5,1-.04,3.04,24.44,9.24,28,10-.78,1.85,11.6,2.47,14,5-8.32-.87-13.66-1.05-22-3.5-.68-.2-12.07-4.48-13.25-5-3.36-1.48-9.03-4.56-12.25-6.5l-1.5-1.75,1-.25Z"/>
          <path class="cls-56" d="m200.39,251.18c-9.24,7.65-7.6,7.03-19,14.5-3.28,2.15-7.53,5.04-3.75,3.5,1.24.77.24.95.25,1-2,1.74-4.99,6.68-6,9l-4.5-4.75c.5-.72,6.45-.29,4.5-2.75.62-.39.47-.48.5-.5,3.06-2.01,5.63-4.81,8.5-7.5,3.65-1.79,10.45-7.42,16-10.5,1.19-.66,1.88-1.97,3.5-2Z"/>
          <path class="cls-6" d="m131.39,280.18c3.6.44,23.64,1.93,24.75,2.5.48.25-.32.94-.5,1-2.12.68-29.51-1.5-34.25-2-2.39-2.53-14.78-3.15-14-5,8.65,1.84,15.4,2.46,24,3.5Z"/>
          <path class="cls-43" d="m180.39,274.18c-1.91,3.11-5.27,7.82-5,11.5-1.14.41-1.54,1.53-2,2.5-.15.05-.35-.05-.5,0-.66.14-.84.82-1.5,1-2.18-2.27-1.87-2.87-2-3,1.29-1.19,1.42-3.99,2-5.5.25-.64.42-1.32.5-1.5,1.01-2.32,4-7.25,6-9,.67,3.34-1.52,4.55,2.5,4Z"/>
          <path class="cls-56" d="m73.9,266.68c3.22,1.94,8.89,5.02,12.25,6.5,1.18.52,12.57,4.8,13.25,5-10.81-2.21-26.67-6.41-33-16,2.86.59,5.06,3.02,7.5,4.5Z"/>
          <path class="cls-41" d="m104.89,274.18c-1.51,1.35,6.05,2.08,10.5,2.5,2.84,2.85,13.22.9,16,3.5-8.6-1.04-15.35-1.66-24-3.5-3.56-.76-28.04-6.96-28-10,5.89,2.51,19.9,8.58,25.5,7.5Z"/>
          <path class="cls-56" d="m171.39,280.68c-.58,1.51-.71,4.31-2,5.5-2.59-2.6-4.62-1.51-8.5-2.25,3.41-1.82,6.55-3.91,10.5-3.25Z"/>
          <path class="cls-50" d="m197.39,210.18c.22-.07-.08.71,4.5-.5l6,2c-.31.17-2.09,2.15-5.75,4-8.56,4.33-17.8,7.85-26.5,12-5.15,2.45-3.77,3.8-13.75,7,.3-4.7-.46-1.9-2.25-2.5-6.58-2.21-2.13-1.97,3-2.5.69-.27-1.31-4.02,7.5-7.5.6-.51-.47-1.24,1.25-2.5,7.86-1.93,15-6,22.25-9.5,3.62-1.14,3.57.05,3.75,0Z"/>
          <path class="cls-52" d="m246.89,230.18c-2.35.02.49-2.22-1.5-4,2.24-2.88,4.85-8.68,1.5-8.25,1.03-1.6.68-2.03.5-3.75-.05-.51.19-1.03-.5-1,1.9-1.93-3.07.64-5.25,2-2.59,1.62-6.28,4.91-8.75,7l3.5-8.5c1.17-1.1,5.37-4.64,5.5-6,14.53.79,11.1,13.67,5,22.5Z"/>
          <path class="cls-41" d="m206.89,205.18c.99,1.22-.45,1.46-1.5,2-2.53,1.31-5.49,1.63-8,3-.18.05-.13-1.14-3.75,0-7.25,3.49-14.39,7.57-22.25,9.5,8.34-6.12,15.42-6.57,18.5-10.5,3.33-1.17,6.6-2.52,10-3.5,2.17,1.93,3.42-.28,7-.5Z"/>
          <path class="cls-41" d="m216.89,207.68c.59-.26,1.75-1.15,2.5-1.5.81.24,5.71.89,5.5,2.25-2.72,1.37-17.2,11.02-18.25,11.25-6.02,1.31,14.54-11.91,10.25-12Z"/>
          <path class="cls-44" d="m232.89,222.18c-3.12,2.64-6.06,5.66-9,8.5-.75-1.26,1.63-.94.5-2.5-.11-.16-1.04-.12-3-2.5,4.97-2.42,10.08-5.64,13-10.5.63-.56,1.42-.95,2-1.5l-3.5,8.5Z"/>
          <path class="cls-9" d="m219.39,206.18c-.75.35-1.9,1.24-2.5,1.5-2.96,1.31-6.15,2.47-9,4l-6-2c1.11-.87,2.71-1.54,4-2,2.47-.89,5.09-1.41,7.5-2.5,1.06.06,5.47-.07,5.75,0,.43.11.2.99.25,1Z"/>
          <path class="cls-17" d="m234.39,215.18c-2.92,4.86-8.03,8.08-13,10.5-2.99,1.45-6.37,2.38-9.5,3.5,8.8-6.46,11.16-3.97,22.5-14Z"/>
          <path class="cls-2" d="m213.39,205.18c-2.4,1.09-5.03,1.61-7.5,2.5l-.5-.5c1.05-.54,2.49-.78,1.5-2,2.52-.16,3.97-.15,6.5,0Z"/>
          <path class="cls-24" d="m118.39,263.18c.86.32,1.91.35,2.5.5.04.4-.06.89,0,1-2.84,2.61-12.8,8.88-16,9.5-5.6,1.08-19.61-4.99-25.5-7.5l13.25-11.5c9.25.33,17.03,5.49,25.75,8Z"/>
          <path class="cls-9" d="m223.89,230.68c-5.69,5.5-7.57,8.58-8,9-2.31.32-5.56,3.59-8,5.5-.23-.86.56-1.21.5-1.25-1.16-.72-23.22,5.3-26.75,5.25,2.83,3.91,18.83-1.15,24.75-3-2.01,1.62-4.01,3.35-6,5-1.62.03-2.31,1.34-3.5,2,1.51-3.39-3.65.87-6.75,1.5-10.55,2.13-21.59.6-32.25.5l-1-.75c9.06-1.83,24.73-2.19,9-5.5l4.5-2.75c18.42.67,33.92-4.29,49-14.5,1.68-1.14,3.67-1.88,5-3.5,1.13,1.56-1.25,1.24-.5,2.5Z"/>
          <path class="cls-26" d="m180.89,263.68c-2.87,2.69-5.44,5.49-8.5,7.5-9.14-.03-18.03-1.84-27-3.5.06-.02-.2-.8.25-1,1.64-.71,22.77,3.11,35.25-3Z"/>
          <path class="cls-4" d="m301.38,174.19c-.99.24-2.16,1.46-3.5,2-6.94-6.51-.79-7.45,3.5-2Z"/>
          <path class="cls-59" d="m264.88,307.18s-.12.55.5.5c-.27.19.3,3.02-5.5,2.5,4.16-2.77,1.3-4.73,5-3Z"/>
          <g>
            <path class="cls-9" d="m189.89,209.18c-3.08,3.93-10.16,4.38-18.5,10.5-1.72,1.26-.65,1.99-1.25,2.5-8.81,3.48-6.81,7.23-7.5,7.5-5.13.53-9.58.29-3,2.5,1.79.6,2.55-2.2,2.25,2.5-3.74,1.2-7.84,1.52-11.5,3-1.46-.27-2.54-.89-3-1,.52-2.09,7.04-2.35,5.25-3.5-5.11,1.54-10.22.25-9.75,2-2.5-.55-5.05-.9-7.5-1.5l16.25-2c-.81-1.1-2.83.09-1-2l-9.25,1c-.36-3.81-1.76-1.19-3.25-2-1.43-.78-3.07-2.71-4.75-3.5,1.95-1.96,6.49-.68,5-2.5.13.07.36-.07.5,0,.87.41-.01.99,1.75,1,3.89.01,30.52-10.36,36.75-12.5,2.64,1.56-2.99,1.17-2.25,3.5,4.7-2.36,9.81-3.76,14.75-5.5Z"/>
            <path class="cls-50" d="m147.39,236.68c-2.04-.48-3.02-1.18-4.5-1.5-.47-1.75,4.64-.46,9.75-2,1.79,1.15-4.73,1.41-5.25,3.5Z"/>
            <path class="cls-1" d="m159.14,226.68c6.39-1.12-4.39,4.12-7.25,2.75,2.06-1.09,4.29-1.19,6.75-1.75.41-.09.09-.93.5-1Z"/>
          </g>
          <path class="cls-41" d="m219.39,231.68c-15.08,10.21-30.57,15.17-49,14.5-1.34-.05-5.26.29-6-.25-1.82-1.34,2.75-2.6,4-2.75,8.11-1,22.28,1.31,40.25-6,2.75-1.12,7.31-4.86,10.75-5.5Z"/>
          <path class="cls-56" d="m182.89,291.18v1c-3.82.98-1.41,2.87,1,4,.06.03.32.9.75,1,4.05.95,26.09-1.92,32.25-3.5,3.43,8.73-4.91,6.75-16,9.75,16.37,7.58,42.03,5.47,57.5-3.75.81,1.06,0,.93,0,1.5-1.11.88-5.8,6.85-6.25,7-3.83,1.26-11.99-3.36-14.75,2-2.91-.15-5.38,1.8-8,2.5-4.89,1.3-9.28,1.96-6.5.5,18.23-6.25-5.1-3.63-10.75-4.5-6.45-.99-17.59-6-23.75-9-2.65-1.29-5.68-.87-11.5-7,.28-.17-.83-.71-.25-1,2.17.32,4.16-.23,6.25-.5Z"/>
          <path class="cls-3" d="m222.89,313.18c-2.85.27-27.14-5.51-30.5-7-2.27-1.01-4.34-3.01-6.5-4.25-.28-2.44,1.57.85,2.5-2.25,6.15,3,17.29,8.01,23.75,9,5.65.87,28.98-1.75,10.75,4.5Z"/>
          <path class="cls-63" d="m260.89,262.68c-2.55,5.75-13.32,13.86-19,16.5-7.29,3.39-15.3,4.5-23,6.5-8.33.35-16.37,3.2-24.5,4.5-3.33.53-8.06.56-11.5,1-2.09.27-4.08.82-6.25.5-.58.29.53.83.25,1-.21.12-1.29-.08-2,0-.88-1.45-2.46-2.41-2-4.5.15-.05.35.05.5,0,.06-.02-.04.87,1.25.5.99-.29,3.02-2,7.75-3,9.09-1.93,18.63-2.17,27.75-4,5.4-1.08,9.83-3.02,11.75-3.5,5.38-1.35,11.58-1.59,16.75-4,4.48-2.09.66-2.61-5.25-1,.1-1.17.81-2.34,1.75-3,2.41-1.7,1.4-.12,2.75,0,10.26.89,13.61-1.4,22-7.25-.02-.49-3.74-1.63-4.5-2.25-.16-.13-1.63-1.66-2.5-2.5-1.6-1.53-5.89-7.52-9.25-10-11.03-8.15,1.28,3.87,7.75,11-9.75,8.8-29.13,15.44-41.75,20-9.41,1.26-18.5,4.06-27.75,6-1.57.33-4.67-.16-6.5.5-.27-3.68,3.09-8.39,5-11.5,1.32-2.14,3.27-3.98,4-6.5,9.43-9.71,7.71-8.28,1.5,2-.39.64-3.76,2.72-1.75,4l24.5-7c-.96-1.51-7.49.49-13.75,1-1.9.16-4.54.28-6.25,1-1.65-.84,2.35-3.49,2.75-4,5.01-1.06,21.27-7.05,18-9.5,8.75-3.15,10.91-2.82,19.5-8.5,6.35-2.38,11.7-6.73,17.25-10.5,5.67,7.34,19.24,16.39,14.75,26.5Z"/>
          <path class="cls-64" d="m258.39,307.18c-5.12,7.89-5.79,2.97-6.25,3-2.2.12-7.35,3.36-7.75,3.5-2.75.95-3.07,1.5-3.25,1.5-2.72.02-5.07-2.44-3.75-5,2.76-5.36,10.92-.74,14.75-2,.45-.15,5.14-6.12,6.25-7-.03,1.7-.2,4.63,0,6Z"/>
          <path class="cls-16" d="m213.89,289.68c-5.57,1.07-11.19,2.61-16.75,3.5-8.76,1.4-17.59-.29-13.25,3-2.41-1.13-4.82-3.02-1-4,.59-.15,9.18-1.1,12-1.5,2.59-.37,16.85-2.54,17.75-2.5.88.04,1.38.63,1.25,1.5Z"/>
          <g>
            <path class="cls-16" d="m319.88,266.18c-7.11,8.38-13.28,11.21-23,15.5-7.66,3.38-16.75,6-24.5,9.5l1.25-2c-12.03,2.03-24.38,2.53-36.5,2v-1l40.5-3c2.02-1.49,10.07-1.08,8.75-4.5.19,0-.32-.94,3.75,0,.02-.39,2.12-1.46,2.25-1.5,3.16-.94,8.57-2.1,7-3.5,5.55-.3,10.98-5.04,15.5-8.5,1.4-1.07,3.2-2.7,5-3Z"/>
            <path class="cls-14" d="m298.38,277.18c1.35.06.94.5,1,.5,1.57,1.4-3.84,2.56-7,3.5.36-1.64-.67-2.86-.5-4,.02-.16-.04-.35,0-.5,2.14.8,4.31.4,6.5.5Z"/>
            <path class="cls-16" d="m291.88,277.18c-.17,1.14.86,2.36.5,4-.13.04-2.23,1.11-2.25,1.5-4.07-.94-3.56,0-3.75,0-4.4.02-7.13-.46-11.25-1.5-.37-5.03,8.43-1.82,16-3l-.25-1c.31.06.67-.03,1,0Z"/>
            <path class="cls-63" d="m216.89,293.68c-6.15,1.57-28.19,4.45-32.25,3.5-.43-.1-.69-.97-.75-1-4.34-3.29,4.49-1.6,13.25-3,5.56-.89,11.18-2.43,16.75-3.5,8.26-1.58,17.19-2.7,25.25-5,2.11-.6,16.75-7.1,17.25-6.25-8.71,10.24-27.08,10.62-39.5,15.25Z"/>
            <g>
              <path class="cls-16" d="m257.89,273.18c-2.33,1.61,1.26,1.82,2.75,2,9.39,1.15,21.08.26,30.25,2l.25,1c-7.57,1.18-16.37-2.03-16,3,4.12,1.04,6.85,1.52,11.25,1.5,1.32,3.42-6.73,3.01-8.75,4.5l-40.5,3v1c12.12.53,24.47.03,36.5-2l-1.25,2c-14.89,4.25-25.71,1.93-12.25,6,3.82-1.93,6.03-3.19,3.25-1-1.52,1.2-3.34,2.51-5,3.5-15.46,9.22-41.13,11.33-57.5,3.75,11.09-3,19.43-1.02,16-9.75,12.42-4.63,30.79-5.01,39.5-15.25-.5-.85-15.13,5.65-17.25,6.25-8.06,2.3-16.98,3.42-25.25,5,.13-.87-.37-1.46-1.25-1.5-.9-.04-15.16,2.13-17.75,2.5l-.5-.5c8.13-1.3,16.17-4.15,24.5-4.5,7.85.66,15.7-3.17,23-6,10.63-4.12,14.41-7.39,15.25-7.5,1.11-.14.69.98.75,1Z"/>
              <path class="cls-56" d="m255.64,297.68c7.5-.53-5.61,4.88-7.5,5.5-1.75.57-20,4.71-20.25,3.25,7.06-1.67,22.09-8.35,27.75-8.75Z"/>
              <path class="cls-47" d="m241.89,279.68c-7.3,2.83-15.15,6.66-23,6,7.7-2,15.71-3.11,23-6.5v.5Z"/>
            </g>
          </g>
          <path class="cls-6" d="m194.39,290.18l.5.5c-2.82.4-11.41,1.35-12,1.5v-1c3.44-.44,8.17-.47,11.5-1Z"/>
          <path class="cls-5" d="m236.39,240.68c-1.32,1.11-6.9,5.6-7.5,6-8.59,5.68-10.75,5.35-19.5,8.5-6.16,2.22-9.5,5.19-9,3,3.2-1.45,6.26-3.26,9.75-4,.53-.29-.83-1.02,0-1.5,10.56-6.08,14.59-8.19,24.25-16.5,2.06,2.2-4.72,7.53,1.75,3.5l.25,1Z"/>
          <path class="cls-67" d="m246.89,230.18c-3.51,5.08-5.97,6.69-10.5,10.5l-.25-1c-6.47,4.03.31-1.3-1.75-3.5,2.63-2.27,9.2-7.68,11-10,1.99,1.78-.85,4.02,1.5,4Z"/>
          <path class="cls-20" d="m201.89,252.18c-.13.13.15,1.1,0,1.25-2.51,2.53-4.53,4.01-7,6.75-1.35,1.49-2.29,2.95-3.5,4.5-.4.51-4.4,3.16-2.75,4,1.71-.72,4.35-.84,6.25-1,1.65,1.57-4.01.95-9,2,6.21-10.28,7.93-11.71-1.5-2-1.23.06-3.13-.51-3-2,11.39-7.47,9.76-6.85,19-14.5.63-.01.86.98,1.5,1Z"/>
          <path class="cls-42" d="m184.39,267.68c-.72,2.52-2.68,4.35-4,6.5-4.02.55-1.83-.66-2.5-4-.01-.05.99-.23-.25-1-3.78,1.54.47-1.35,3.75-3.5-.13,1.49,1.77,2.06,3,2Z"/>
          <path class="cls-13" d="m181.89,285.18l.5.5c-4.73,1-6.76,2.71-7.75,3-1.29.37-1.19-.52-1.25-.5.46-.97.86-2.09,2-2.5,1.82-.66,4.93-.17,6.5-.5Z"/>
          <path class="cls-5" d="m205.39,207.18l.5.5c-1.29.46-2.89,1.13-4,2-4.58,1.21-4.28.43-4.5.5,2.51-1.37,5.47-1.69,8-3Z"/>
          <path class="cls-41" d="m246.89,213.18c1.18,3.08-33.24,25.13-28.25,26.5,6.07-5.27,13.12-9.85,19.25-15-2.02,7.55,8.34-5.11,7.25-5.5-.26-.09-2.56,3.3-2.75,2,1.78-1.69,4.14-4.67,5-7,.18,1.72.53,2.15-.5,3.75,3.35-.43.74,5.37-1.5,8.25-1.8,2.32-8.36,7.73-11,10-9.66,8.31-13.69,10.42-24.25,16.5-.83.48.53,1.21,0,1.5-3.49.74-6.55,2.55-9.75,4-1.8.81-3.44,1.91-5.5,2,2.47-2.73,4.48-4.22,7-6.75.15-.15-.13-1.12,0-1.25,1.66-1.68,7.79-6.39,14-12.5.43-.42,2.31-3.5,8-9,2.94-2.84,5.88-5.86,9-8.5,2.47-2.09,6.16-5.38,8.75-7,2.18-1.36,7.15-3.93,5.25-2Z"/>
          <path class="cls-59" d="m247.39,214.18c-.86,2.33-3.22,5.31-5,7-1.4,1.33-3.09,2.31-4.5,3.5-6.13,5.15-13.18,9.73-19.25,15-4.99-1.37,29.43-23.42,28.25-26.5.69-.03.45.49.5,1Z"/>
          <path class="cls-41" d="m207.89,245.18c-.44.34-1.07.65-1.5,1-5.91,1.85-21.92,6.91-24.75,3,3.53.05,25.58-5.97,26.75-5.25.06.04-.73.39-.5,1.25Z"/>
          <path class="cls-17" d="m215.89,239.68c-6.21,6.11-12.34,10.82-14,12.5-.64-.02-.87-1.01-1.5-1,1.99-1.65,3.99-3.38,6-5,.43-.35,1.06-.66,1.5-1,2.44-1.91,5.69-5.18,8-5.5Z"/>
          <path class="cls-50" d="m255.39,260.68l-17.5,9.5c-1.35-.12-.34-1.7-2.75,0-.94.66-1.65,1.83-1.75,3-2.46.67-8.87,3.59-11.5,5-1.92.48-6.35,2.42-11.75,3.5-9.12,1.83-18.66,2.07-27.75,4l-.5-.5c9.25-1.94,18.34-4.74,27.75-6,12.62-4.56,32-11.19,41.75-20,.07-.06.58.36,1.5-1,.87.84,2.34,2.37,2.5,2.5Z"/>
          <path class="cls-56" d="m255.39,260.68c.76.62,4.48,1.76,4.5,2.25-8.38,5.85-11.74,8.14-22,7.25l17.5-9.5Z"/>
          <path class="cls-39" d="m185.89,269.68c4.99-1.05,10.64-.43,9-2,6.26-.51,12.79-2.51,13.75-1l-24.5,7c-2.01-1.28,1.36-3.36,1.75-4Z"/>
          <path class="cls-29" d="m209.39,255.18c3.27,2.45-12.98,8.44-18,9.5,1.21-1.55,2.15-3.01,3.5-4.5,2.06-.09,3.7-1.19,5.5-2-.5,2.19,2.84-.78,9-3Z"/>
          <path class="cls-56" d="m221.89,278.18c2.63-1.41,9.04-4.33,11.5-5,5.91-1.61,9.73-1.09,5.25,1-5.17,2.41-11.37,2.65-16.75,4Z"/>
          <path class="cls-5" d="m252.89,258.18c-.92,1.36-1.43.94-1.5,1-6.47-7.13-18.78-19.15-7.75-11,3.36,2.48,7.65,8.47,9.25,10Z"/>
          <path class="cls-27" d="m237.89,224.68c1.41-1.19,3.1-2.17,4.5-3.5.19,1.3,2.49-2.09,2.75-2,1.09.39-9.27,13.05-7.25,5.5Z"/>
        </g>
      </g>
    </g>
  </g>
</svg>