<?xml version="1.0" encoding="UTF-8"?>
<svg id="_Шар_2" data-name="Шар 2" xmlns="http://www.w3.org/2000/svg" xmlns:xlink="http://www.w3.org/1999/xlink" viewBox="0 0 398.75 410.18">
  <defs>
    <style>
      .cls-1 {
        fill: #c5c4c2;
      }

      .cls-1, .cls-2, .cls-3, .cls-4, .cls-5, .cls-6, .cls-7, .cls-8, .cls-9, .cls-10, .cls-11, .cls-12, .cls-13, .cls-14, .cls-15, .cls-16, .cls-17, .cls-18, .cls-19, .cls-20, .cls-21, .cls-22, .cls-23, .cls-24, .cls-25, .cls-26, .cls-27, .cls-28, .cls-29, .cls-30, .cls-31, .cls-32, .cls-33, .cls-34, .cls-35, .cls-36, .cls-37, .cls-38, .cls-39, .cls-40, .cls-41, .cls-42, .cls-43, .cls-44, .cls-45, .cls-46, .cls-47, .cls-48, .cls-49, .cls-50 {
        stroke-width: 0px;
      }

      .cls-2 {
        fill: #8a5e45;
      }

      .cls-3 {
        fill: #4a372c;
      }

      .cls-4 {
        fill: #9f9490;
      }

      .cls-5 {
        fill: #3c251b;
      }

      .cls-6 {
        fill: #72716f;
      }

      .cls-7 {
        fill: #c3b0a5;
      }

      .cls-8 {
        fill: #a8aaa9;
      }

      .cls-9 {
        fill: #ad9987;
      }

      .cls-10 {
        fill: #867c6b;
      }

      .cls-11 {
        fill: #70717c;
      }

      .cls-12 {
        fill: #b58d76;
      }

      .cls-13 {
        fill: #7d502f;
      }

      .cls-14 {
        fill: #b7b2aa;
      }

      .cls-15 {
        fill: #3f2c2a;
      }

      .cls-16 {
        fill: #993f29;
      }

      .cls-17 {
        fill: #574f51;
      }

      .cls-18 {
        fill: #9a968e;
      }

      .cls-19 {
        fill: url(#_Градієнт_без_назви_176);
      }

      .cls-20 {
        fill: #a2673e;
      }

      .cls-21 {
        fill: #2c2119;
      }

      .cls-22 {
        fill: #3b322e;
      }

      .cls-23 {
        fill: #857874;
      }

      .cls-24 {
        fill: #643d29;
      }

      .cls-25 {
        fill: #f5dccc;
      }

      .cls-26 {
        fill: #615c58;
      }

      .cls-27 {
        fill: #cbae96;
      }

      .cls-28 {
        fill: #4f4b44;
      }

      .cls-29 {
        fill: #441f12;
      }

      .cls-30 {
        fill: #853320;
      }

      .cls-31 {
        fill: #221006;
      }

      .cls-32 {
        fill: #594330;
      }

      .cls-33 {
        fill: #593015;
      }

      .cls-34 {
        fill: #2a0c01;
      }

      .cls-35 {
        fill: #64483c;
      }

      .cls-36 {
        fill: #bb8056;
      }

      .cls-37 {
        fill: #a97d61;
      }

      .cls-38 {
        fill: #decfc4;
      }

      .cls-39 {
        fill: #fbf2e7;
      }

      .cls-40 {
        fill: #8b5034;
      }

      .cls-41 {
        fill: #c9936d;
      }

      .cls-42 {
        fill: #682e1d;
      }

      .cls-43 {
        fill: #090504;
      }

      .cls-44 {
        fill: #cfd7dc;
      }

      .cls-45 {
        fill: #793f21;
      }

      .cls-46 {
        fill: #eff0ef;
      }

      .cls-47 {
        fill: #e3c6b3;
      }

      .cls-48 {
        fill: #83695b;
      }

      .cls-49 {
        fill: #b8aa97;
      }

      .cls-50 {
        fill: #8b8d8d;
      }
    </style>
    <linearGradient id="_Градієнт_без_назви_176" data-name="Градієнт без назви 176" x1="219.23" y1="287.31" x2="197.24" y2="315.82" gradientUnits="userSpaceOnUse">
      <stop offset="0" stop-color="#754836"/>
      <stop offset="1" stop-color="#4f3129"/>
    </linearGradient>
  </defs>
  <g id="_Шар_1-2" data-name="Шар 1">
    <g>
      <g>
        <path class="cls-1" d="m393.75,43.68c-.34.45-.65,1.06-1,1.5-7.79,9.95-16.67,19-25.5,28-12.36,12.6-26.29,23.6-37.25,37.5-5.44,4.09-10.22,8.94-15.25,13.5-2.77,2.51-5.6,5.76-7,7-.56.49-1.29.76-1.5,1.5-.86.59-1.71,1.32-2.5,2-1.35-1.18-2.12-1.73-4-.5,30.91-30.61,64.49-58.49,93.5-91,0,.04.55-.12.5.5Z"/>
        <path class="cls-46" d="m393.75,43.68c.05-.62-.5-.46-.5-.5-.04-.52,1.15-.98-.25-1-25.58,19.91-49.14,42.31-73.25,64-2.69-1.57-1.1-1.95.25-3.5,4.18-4.8,53.35-49.55,59.25-54,5.84-4.41,12.65-7.94,18.75-12l.75.75c0,.4-4.35,5.4-5,6.25Z"/>
        <path class="cls-43" d="m393.25,43.18c-29,32.51-62.59,60.39-93.5,91-.07.05-.55-.11-.5.5-12.91,9.31-24.16,20.73-34.25,33-2.72-2.04-5.55-3.94-8.25-6v-.5c9.46-7.05,18.59-14.78,27.5-22.5,8.82-7.64,16.87-15.76,25.5-23.5,3.34-3,6.67-6,10-9,24.11-21.69,47.66-44.09,73.25-64,1.4.02.21.48.25,1Z"/>
        <path class="cls-1" d="m364,60.18c.32-.1.68-.02.75.25.45,1.7-3.46.56-.75-.25Z"/>
      </g>
      <g>
        <path class="cls-46" d="m247.25,386.66c2.47,1.34,1.61,4.1.5,6.25-5.14,9.93-23.63,7.8-29.5,8.75l-.5-1c7.47-.66,2.46-.87-1.75-1.5v-1c6.08.59,9.05-.81,14.25-3,.68-.29,1.35-.66,2-1-2.56,4.3,1.78,1.46,4,.5,3.19-1.38,5.86-2.27,7-6,.25-.82.52-1.62.5-2.5,1.35-.03,2.24-.18,3.5.5Z"/>
        <path class="cls-7" d="m211.25,393.66c1.93,2.37,4.87.51,5.25.5,4.06-.09,8.43-.03,12.5,0,.08,0,1.24.69,1.25,1-5.2,2.19-8.17,3.59-14.25,3v1c4.21.63,9.22.84,1.75,1.5-3.45.3-6.87.72-10.25,1.5-.82-.37.98-2.55,1.25-3,1.47-2.43,3.01-1.16-4.5-.5,3.79-3.91,4.98-2.34,5.25-2.5,2.1-1.21-2.16-.98,1.75-2.5Z"/>
        <path class="cls-1" d="m191.76,397.16c.49,1.56,2.47,2.45-3.25,3.5-3.06.56-5.09-.42-8.75-.5-2.79-.06-5.23-.24-8-.5,6.11-2.02,13.53-2.23,20-2.5Z"/>
        <path class="cls-27" d="m186.26,406.16c.01-1.68-.03-2.54-1-4,13.88-1.34,15.34,2.44,1,4Z"/>
        <path class="cls-2" d="m208.75,399.16c-10.59,4.96-19.46.35-7.75,1l3.25-1.5c7.51-.66,5.97-1.93,4.5.5Z"/>
        <path class="cls-34" d="m113.76,364.16c4.85,3.01,8.9,4.14,11.25,5.5,4.36,2.52,12.03,10.12,12.75,7,1,.29,1.36,1.36,2,2,.25,4.79,7.62,14.86,13,13.5,2.31,2.12,4.6,4.22,6.75,6.5,2.44.11,4.85.68,7.25,1l-.5,1.5c-11.52-.83-7.27,2.46-16.5-4.5-9.89-7.46-12.77-14.6-14.75-16.5-1.67-1.15-4.96-2.78-5.25-3-5.04-3.92-13.57-10.07-19-13h3Z"/>
        <path class="cls-31" d="m170.76,410.16c-9.44.16-8.53-.95-9-1-1.02-1.41.36-.62.5-1.5,4.67.03,10.23-.64,8.5,2.5Z"/>
        <path class="cls-48" d="m162.26,406.16c.91-4.2,3.7-3.67,7-4.5,1.17,1.21,1.15,1.6.25,3-3.63-.87-5.93,2.26-7.25,1.5Z"/>
        <path class="cls-35" d="m162.76,402.66c.08-.03.58-1.63,1.5-.75-.69,1.03-1.45.68-1.5.75Z"/>
        <path class="cls-35" d="m94.76,344.17c.06.05.89-.06,1.5.5.5.46.96,1,1.5,1.5,4.63,4.27,9.09,8.75,13.75,13,7.42.11,21.17,15.37,26.25,17v.5c-.72,3.12-8.39-4.48-12.75-7-2.35-1.36-6.4-2.49-11.25-5.5l-11.5-8c-1.91-3.69-18.35-17.1-19-18.25-.12-.22.07-1.08,0-1.75,4.95,1.33,8.99,10.59,11.5,8Z"/>
        <path class="cls-46" d="m102.76,349.17c.4.33.82.96,1.5,1.5,3.6,2.87,6.96,5.71,11,8,3.66,2.07,3.1,3.54,13.5,4,.03.02.07.16.5.5,2.07,1.64,10.17,9.51,11,10-1.41,2.07.93,4.1-2.5,3-5.08-1.63-18.83-16.89-26.25-17-4.66-4.25-9.12-8.73-13.75-13-.14-.82,3.75,1.99,5,3Z"/>
        <path class="cls-42" d="m152.76,392.16c-5.38,1.36-12.75-8.71-13-13.5,4.39,4.37,8.45,9.34,13,13.5Z"/>
        <g>
          <path class="cls-35" d="m171.76,399.66c2.77.26,5.21.44,8,.5-2.56,6.53-2.74,2.87,2.25,2,.93-.16,2.21.1,3.25,0,.97,1.46,1.01,2.32,1,4-.01,1.4.41,3.05-1.5,3-.67-.14-2.18-1.05-2.75-1-3,2.21-7.58,1.94-11.25,2,1.74-3.14-3.83-2.47-8.5-2.5l-1-.75c.59.8,1.01.69,1,.75-.14.88-1.52.09-.5,1.5-2.22-.23-1.8-1.12-3.75-1-.45.03-3.25,1.69-3.5,1.5-3.42-2.64,6.33-6.19,8.25-7-.49.75-1.71,2.8-.5,3.5,1.32.76,3.62-2.37,7.25-1.5.9-1.4.92-1.79-.25-3-.09-.09.21-.82-.25-1-.13-.05-.07.69-2.75.5l.5-1.5c1.54.2,3.4-.15,5,0Z"/>
          <path class="cls-29" d="m176.01,402.16c2.14.58-3.2,7.47-7.75,4.75,5.76.24,3.84-5.81,7.75-4.75Z"/>
          <path class="cls-12" d="m162.26,407.66c0-.06-.41.05-1-.75l1,.75Z"/>
        </g>
        <g>
          <path class="cls-40" d="m242.75,383.16c.16,3.67-.76.63-3.75,0-9.66-2.03-26.63-.51-35.5,4-5.6,2.85-8.33,9.03-11.75,6.5-.61-5.81,13.72-11.12,18.25-12,5.8-1.13,29.33-3.08,32.75,1.5Z"/>
          <path class="cls-31" d="m242.75,383.16c1.01,1.36.96,1.29,1,3,.02.88-.25,1.68-.5,2.5h-.5c-6.81-7.23-27.07-4.52-35.25,0-2.48,1.37-14.8,14.02-15.75,5,3.42,2.53,6.15-3.65,11.75-6.5,8.87-4.51,25.84-6.03,35.5-4,2.99.63,3.91,3.67,3.75,0Z"/>
          <path class="cls-45" d="m242.75,388.66h.5c-1.14,3.73-3.81,4.62-7,6l-1.5-2c.31-.17.7-.33,1-.5,3.92-2.27,3.01-3.97,7-3.5Z"/>
          <path class="cls-27" d="m234.75,392.66l1.5,2c-2.22.96-6.56,3.8-4-.5.85-.44,1.61-1.01,2.5-1.5Z"/>
        </g>
        <path class="cls-43" d="m74.26,329.67c-1.16,4.34,4.43,5.51,7.5,6.5.39.12,1.08-.11,1.5,0,.07.67-.12,1.53,0,1.75.65,1.15,17.09,14.56,19,18.25.05.47-.41.68-.75.5-1.55-.83-8.72-9.8-16.25-14-1.47-4.17-7.7-4.32-10-5-.31-.09-.71.77-1.75.5-.44-.18-.2-.99-.25-1,.09-.59,2.02-2.58,2-2.75-.05-.38-6.3-6.04-1-4.75Z"/>
        <path class="cls-2" d="m81.76,336.17c-3.07-.99-8.66-2.16-7.5-6.5,2.34.57,5.89,4.56,7.5,6.5Z"/>
      </g>
      <g>
        <path class="cls-46" d="m210.75,1.68c-1.04.34-6.39,3.61-7.75,4-.38.11-1.27-.84-3-.5-2.48.49-6.61,4.19-7.75-.5,6.15-1.05,12.38-1.72,18.5-3Z"/>
        <path class="cls-1" d="m137.76,31.18c-1.51.86-2.84,1.95-4,3.25,1.97,1.07,2.22-2.47,4.5-.75-1.74,1.62-3.08,6.66-14,12-1.72-.86-4.1-.58-4.5-2.5.32-.35,3.46-5.48,4.5-6.5,3.11-3.07,8.98-7.64,13.5-5.5Z"/>
        <path class="cls-46" d="m58.76,276.67c-.05,1.65.39,2.99.5,4.5.02.26-.78,1.21,0,5.25.5,2.59,2.04,5.05,2.5,6.25,3.47,9.09,10.15,16.87,17.75,23,10.49,8.47,10.4,4.74,11,5,7.23,5.56,23.13,8.19,32.25,8.5,4.94.52,4.97-1,5.25-1,16.12.18,18.25-1.52,21,5.5,2.23.25,6.96-.36,8,0,.81.28.64,5.27,15,6.5.59.68-.71,2.34-.75,3-8.96-1.06-11.14-3.39-11.75-3.5-4.82-.88-38.77-2.25-45-2-2.42.1-20.03,1.57-21,2-3.24,1.43,1.04,4.3,1.25,4.5-2.51,2.59-6.55-6.67-11.5-8-.42-.11-1.11.12-1.5,0-1.61-1.93-5.16-5.93-7.5-6.5-5.3-1.29.95,4.37,1,4.75.02.17-1.91,2.16-2,2.75-.39-.09-.33-1.5-7.5-1.5q-4.62-1.25-9.25-2.5c-5.24,1.02-10.48.16-15.75.5-6.39.42-17.45,1.74-22.75,5-2.27,1.4-3,4.85-3.75,2.5-.61-5.77-2.52-2.37-4-1.5l.5-2c12.85-7.99,30.68-9.95,45.5-8,.12.02.65.27,2,.5,4.18.7,13.62,4.39,14.25,4,2.01-1.23-10.74-8.43-11-4.5l-.25-1c-1.44-3.96-8.09-3.9-11.75-4.5-.78-.13-1.38-1.46-1.75-1.5-2.72-.27-18.3,1.03-21.25,3.5-1.9-2.49-10.64,2.04-15.75,4-9.27-12.86,7.09-16.15,12.5-26.5,4.9-4.3,1.55-1.33,1.5-5.5,1.99-1.9,1.18-2.28,3-4,.35,1.69-3.07,5.06-.25,4.5,1.31-.26,13.55-16.73,17.75-20,.05-.04.51,1.07,1.25.5,5.87-4.52,17.38-13.81,12.25-8.25-.04,1.91.06,3.84,0,5.75Z"/>
        <path class="cls-46" d="m85.26,342.67c-2.75-1.53-6.19-2.19-9-3.5-.34-.16-1.25-.87-1-1.5,2.3.68,8.53.83,10,5Z"/>
      </g>
      <g>
        <path class="cls-43" d="m308.75,193.17c-.4,7.46-4.82,18.41-4.5,20.25.37,2.09,3.51.63,2.5,12.25-.67,7.7-3.54,15.37-1.5,23.25-.24.84-2.11.38-2.5.25-.39-1.65-.68-3.33-1-5-.3-1.54-.93-3.88-1-4.5-.14-1.29-.56-2.07-.5-3,.24-3.8,5.32-5.39,3-9.25,2.47-3.48.82-9.06-2.5-12.25.69-1,5.94-13,6-13.75.33-4.17-2.58,3.72-6,8.75,3.64-10.28,6.23-10.9-1-4.5-1.05-.09.26-.54,0-1.5,4.56-3.38,3.92-5.08,1-1.75-.51.59-1.21.86-1,1.75-.05-.17-1.21.3-.5-3,2.63-4.33,3.8-10.75,6.5-15.5,9.17-1.28-6.36,10.53-.25,8,1.88-.78,3.66-8.16,3.25-.5Z"/>
        <path class="cls-32" d="m303.25,304.67c-.7,3.77-4.48,10.47-7.5,13l2.5-7.25c3.44-2.81,3.48-7.12,5-5.75Z"/>
        <path class="cls-43" d="m300.25,264.17c-.02-.05-.97-.45-1-.5-.19-.3-.7-2.49-2-3,1.39-1.57,2.59-3.37,4-5,.61.86.72,6.54-1,8.5Z"/>
        <path class="cls-43" d="m131.26,77.18c-.61,2.8,1.33,9.8,3,12.25,2.48,3.65,9.52,6.46,13.5,8.75,5.04,2.91,10.48,5.13,15.5,8,11.19,6.39,21.43,15.47,34.5,18-4.06,1.02-11.12,2.63-15,3-3.86.37-1.89,1.7-7.5-1.75.11,4.16.69,8.43,1.5,12.5,3.37,16.99,4.76,12.29,11,11.75,4.51-.39,8.97-.82,13.5-1,.51,4.2-7.37.92-6.5,4-3.27-.15-7.01-1.18-7.75,0,7.6,1.75,15.39,3.38,22.75,6-.06,2.47-4.68-.71-6.25,1-.94,1.02,1.58,1.85,1.25,2.75-1.45,3.92-17.07-4.95-21-4.25-17.86-7.15-33.32-11.8-45-28.5-1.36-1.94-3.78-5.46-3-6,2.03,2.04,1.79,3.36,5,1,4.28-.02,4.6,3.85,7.75,6.5.66.56,3.58,1.87,3.75,2,2.74,2.08,16.13,11.92,18.75,11.5.6-.1.35-5.31.25-6l1.5-4.5c1.31,8.61-.4,14.3,5,13.75-2.84-4.82-2.89-22.44-3.5-24-.47-1.21-2.58-.65-2.5.75-.05-.17-.95-.15-1.75-3-10.41-5.77-20.17-14.67-31.75-18-2.71-.78-2.93-4.38-6.25,4l-3.75-5,3.75,3.5c-.49-2.58.33-3.2,1.75-5.25-2.58-2.01-5.08-6.67-6-9.75-1.5-5.04-4.46-20.55,3.5-14Z"/>
        <path class="cls-46" d="m138.26,103.68c-1.32,14.76,4.15,19.21,4,20.25-.1.73-1.43.7-1.5.75-3.21,2.36-2.96,1.04-5-1-1.11-1.11-4.53-6.77-5-4.75,3.19,10.46,4.54,10.07,7.5,13.75,1.45,1.8,2.75,2.61,3.5,5-5-2.88-7-7.19-6.5-3-1.12-2.46-5.66-9.41-8-15.5l1-16.5,3.75,5c3.32-8.38,3.54-4.78,6.25-4Z"/>
        <path class="cls-46" d="m135.76,142.18c1.77,1.38,2.9,3.46,4.5,5-3.05,2.32-3.97,6.35-4,10-.1,10.14,9.23,19.07,17.75,23.5,2.72-.62,5.52-.27,8.25-.5l-2,2c-3.45.54-6.11,2.72-7.75,2.5-1.28-.17-11.37-8.74-14.75-13.5-3.51-4.93-5.28-8.56-6-14.5-.52-4.29-.9-4.12-2,2-1.97-1.82.77-11.92,1-18,1.24,3.01,3.72,5.22,3.75,8.5,1.28-.02.85-4.65,1.25-7Z"/>
        <path class="cls-43" d="m127.26,119.18c2.34,6.09,6.88,13.04,8,15.5,3.14,6.91.81,4.47.5,7-2.66-1.21-5.09-9.46-6-3.5-1.55-4.52-1.77-7.5-2.5-12-.32-2-.69-4-1-6,.18-.29-1.5-1.2,1-1Z"/>
        <path class="cls-26" d="m135.76,141.68c-.02.16.03.34,0,.5-.4,2.35.03,6.98-1.25,7-.03-3.28-2.51-5.49-3.75-8.5-.34-.82-.71-1.67-1-2.5.91-5.96,3.34,2.29,6,3.5Z"/>
        <path class="cls-20" d="m317.75,147.68c-3.21-.1.47,2.51.5,2.75.13.87-1.12,13.88-1,17.5-1.33,2.05-2.17,6.41-5,6,.38,2.4,2,2.1,3.5,1.25-1.81,2.78-4.44,4.93-6.5,7.5-1.92.68-2.79,2.12-3.5,2.5-1.84.97-3.71,1.95-5.5,3-1.46-5.04,4.66-4.14,3.5-8.5,5.54-3.9,12.98-12.86,10.5-20,.49-4.25.97-11.46,0-15.75-.5-2.21-4.78-8.62-5-11.75,4.78,4.3,6.68,9.55,8.5,15.5Z"/>
        <path class="cls-46" d="m314.75,124.18c1.14,20.08,14.83,40.55-.25,58.5-3.82-1.19-3.1-.76-5.25,0,2.06-2.57,4.69-4.72,6.5-7.5,6.52-10.02,5.29-16.72,2-27.5-1.82-5.94-3.72-11.19-8.5-15.5-.07-.06-.28-1.21-1.5-1,1.4-1.24,4.23-4.49,7-7Z"/>
        <path class="cls-31" d="m246.25,296.17c8.18-.95,15.67,1.41,20.75,1.5,3.89.07,15.21-2.46,9.5-.5-8.2,2.82-13.8.3-20.5,1-3.2.33-27.22,7.2-33.5,9-7.23,2.08-14.09,5.84-21.5,7.5q-3.25.75-6.5,1.5c-3.21-.64-6.54-.27-9.75,0-5.67.48-11.32.78-17,1-7.51.3-14.98.67-22.5.5-.71-.48-1.25-1.1-2-1.5-1.46-2.26-1.53-3.03-4.5-3-.11-3.3.48-3.8.5-4,18.96,5.29,24.92,4.48,43.5,2.5,30.07-3.2,53.54-14.34,63.5-15.5Z"/>
        <path class="cls-43" d="m185.76,247.17c6.66,1.82,27.15,8.75,32.5,8.5-7.73,5.1-18.48,8.19-28,10.5-7.18-4.28-14.57-8.52-20.5-14.5,2.62-2.08,5.39-3.93,8-6,2.46.48,5.65.86,8,1.5Z"/>
        <path class="cls-43" d="m81.76,309.67c1.92,1.84,2.74,4.25,5.5,2.5,7.67,12.33,29.76,13.71,43,13.5.29,2.25-5.41,2.81-7.5,3.5-9.11-.31-25.01-2.94-32.25-8.5-.6-.26-.5,3.47-11-5-7.6-6.13-14.28-13.91-17.75-23,.31-.13.71.53.75.5,3.63-2.28-2.45-7.02,1.25-15,.03-.02-.11-.56.5-.5.67,7.72,7,13.06,7.5,20.25,3.38,3.83,6.3,8.21,10,11.75Z"/>
        <path class="cls-43" d="m196.76,237.17c12.91,3.88,26.62,5.94,39.25,11,2.71-1.75,5.36,1.15,7,1.5,12.28,2.63,14.26-.56-.25,5.5-8.73-1.08-6.99,1-9.5,1.5,4.81-3.06-9.16-4.21-12-5-8.6-2.39-17.09-5.49-25.5-8.5-3.36-1.2-7.04-1.83-10-4,2.13-1.7,4.37-3.3,6.5-5-1.75.88,2.99,2.55,4.5,3Z"/>
        <path class="cls-31" d="m10.76,330.17c5.11-1.96,13.85-6.49,15.75-4,2.95-2.47,18.52-3.77,21.25-3.5-5.7,10.54-3.98,2.57,3.75,3.5,1.6.19,5.69,1.4,4.75,3.5-14.82-1.95-32.65.01-45.5,8-2.83,1.28-5.07-.53-6.5-.5-6.95-3.78-2.52-8.14-.5-13.25.41-1.03-2.69.31,2-4.25-.38,1.6.03,4.04,0,4.25-.36,2.19-4.86,8.1,1.75,8.25,1.93.04,3.07-1.93,3.25-2Z"/>
        <path class="cls-39" d="m251.75,177.67c.12.08.46.03,2.5,1.5-3.11.06-5.94.4-9,1-4.17.82-50.2,13.99-58.25,16.5-11.34,3.53-27.82,8.92-38.75,13-2.95,1.1-5.62,2.26-8.5,3.5-3.06,1.32-6.04,2.42-9,4-.13-.66.23-1.18.75-1.5,10.13-6.24,58.26-20.17,73-24.5l1.25-1.25c-.04-1.44-5.35-1.46-6.5-1.25v-1c8.33-2.51,16.75-4.69,25-7.5,4.88-1.66,9.72-3.58,14.5-5.5,3.39,1.85,5.95,3.98,13,3Z"/>
        <path class="cls-31" d="m182.76,311.67c-18.58,1.98-24.54,2.79-43.5-2.5.11-1.39.24-3.79.5-5,12.84,2.87,20.39,2.15,33-.5.48,1.36,5.15,6.23,5.75,6.5,3.26,1.49,4.69-1.13,4.25,1.5Z"/>
        <path class="cls-12" d="m80.26,294.67c-.42-.05-.82.85-1,.25-1.85-6.27,1.64-23.09-2.25-10.75-1.8-2.06,1.92-7.3-2.75-3.5-.22-1.56-.97-4.59-1-6,1.02.36,2.01-5.34,2-7,.59.04,1.42-.07,1.5,0,.13.12-.3,1.96.5,1.25.59-5.05,2.43-9.81,3.5-14.75.03-.13.75-.45,1-2.5.02-.15.96.02,0-3,1.78,1.36,2.13-5.82,3,1.25l1.25.25c.77-1.26,6.79-3.66,7-4,1.27-2.04-2.24-2.4-1.5-6.5,2.91-1.77,4.47,9.15-2.5,12.5,2.49-2.78-3.73-1.73-4.75-.75-.82.79-5.5,18.97-5,22,5.67,7.15-.4,12.15,1,21.25Z"/>
        <path class="cls-20" d="m199.26,188.67c-2.86.53-46.15,16.74-54.75,19.5-2.64.34.27-3.02-.25-4.5,2-1.01,2.38-.94,2.5-1l1,.5c16.98-5.8,34.33-10.33,51.5-15.5v1Z"/>
        <path class="cls-46" d="m35.76,280.67l-4.75,7,8-5,.75.75c-3.82,2.96-6.8,6.96-10.25,10.25-.07.06-1.08-.14-1.75.5-1.82,1.72-1.01,2.1-3,4-.03.03-.23-1-.75-.5-2.78,2.66-9.29,8.63-10.75,11-2.66-1.4,5.45-12.97,8.75-17-4.86,10.64,4.52-2.69,5.75-6,3.06-2.44,1.27-2.61,8-5Z"/>
        <path class="cls-5" d="m139.76,213.17c2.43,2.38,5.36,11.88,6.5,16,.44,1.58,1.2,3.65,1.5,5,.27,1.19.29,3.14.5,4.5.23,1.5.42,2.99.5,4.5-.42-.09-.71.79-1.25.5-1.36-.72-5.33-5.51-3.75-7.25-.76-.26-1.04-.65-1.5-1.25-1.09-3.64-3.46-16.73-4-17.75-1.41-2.68-2.45-.24-4.5.25-1.53.37-4.73.98-6,1.5.81-.91,1.95-1.44,3-2,2.96-1.58,5.94-2.68,9-4Z"/>
        <path class="cls-36" d="m133.76,217.67c-11.49,6.79-27.91,20.75-36,26v-5c.05-.07.08.45,1.5-1,3.31-3.38,23.88-16.59,28.5-18.5,1.27-.52,4.47-1.13,6-1.5Z"/>
        <path class="cls-29" d="m190.26,266.17c-2.66.65-5.27,1.53-8,2-2.35-1.51-4.65-3.54-7-5,3.19-.33-6.91-6.68-9-9,1.13-.91,2.38-1.61,3.5-2.5,5.93,5.98,13.32,10.22,20.5,14.5Z"/>
        <path class="cls-12" d="m79.76,249.17s.74-.3,0,.5c-.16.17-.74-.74-4,2.5-4.35,4.32-8.52,8.82-13,13-1.28,1.19-3.09,1.12-2,2.5-2.45.15-6.52,3.92-9,5,2.15-4.26,22.76-26.12,25.75-25.5.6.12-1.35,2.44,2.25,2Z"/>
        <path class="cls-29" d="m80.26,294.67c.4,2.61,5.37,14.88,7,17.5-2.76,1.75-3.58-.66-5.5-2.5-2.29-9.7-6.13-19.07-7.5-29,4.67-3.8.95,1.44,2.75,3.5,3.89-12.34.4,4.48,2.25,10.75.18.6.58-.3,1-.25Z"/>
        <path class="cls-29" d="m10.76,330.17c-.18.07-1.32,2.04-3.25,2-6.61-.15-2.11-6.06-1.75-8.25.03-.21-.38-2.65,0-4.25,1.41-5.96,4.4-6.84,2.5-11.5,1.67.75,1.66,4.77,3.5,5,1.14.14,9.73-7.94,11.5-9.5-5.41,10.35-21.77,13.64-12.5,26.5Z"/>
        <path class="cls-31" d="m101.76,256.67c-1.2,4.41,13.67,3.58,1,5.75.77.95,2.06,1.1,3,1.75.49.34,1,.68,1.5,1,.21,2.49-1.92,2.55-4,2-1.15-.31-8.07-4.76-10-6,.3-.6,2.17-2.29,2.5-2.5,1.47-.93,4.3-2.03,6-2Z"/>
        <path class="cls-12" d="m13.26,308.67c-1.13,1.84-1.88,1.28-1.5,4.5-1.84-.23-1.83-4.25-3.5-5-2.87-2.05,16.36-19.99,19.5-22.5-1.23,3.31-10.61,16.64-5.75,6-3.3,4.03-11.41,15.6-8.75,17Z"/>
        <path class="cls-46" d="m136.26,204.67c-13.42,5.86-9.68,6.48-14.5,13-5.31,7.18-3.86,3.25-2-2,.65-1.84,1.42-3.64,2-5.5.32-1.05.79-1.81.5-3,1.95-.71,10.48-3.5,11.5-3.5,1.3,0,2.37.95,2.5,1Z"/>
        <path class="cls-5" d="m195.76,243.17c-1.78,3.64-6.94,2.16-10,4-2.35-.64-5.54-1.02-8-1.5,2.7-2.13,5.31-4.36,8-6.5,2.96,2.17,6.64,2.8,10,4Z"/>
        <path class="cls-2" d="m113.76,261.67v.5c-3.06,1.38,4.11,2.73,5.5,6.5-5.77-.75-8.42-3.39-13.5-4.5-.94-.65-2.23-.8-3-1.75,12.67-2.17-2.2-1.34-1-5.75,3.04.05,8.92,3.75,12,5Z"/>
        <path class="cls-24" d="m45.26,278.67c-4.2,3.27-16.44,19.74-17.75,20-2.82.56.6-2.81.25-4.5.67-.64,1.68-.44,1.75-.5,3.45-3.29,6.43-7.29,10.25-10.25l-.75-.75-8,5,4.75-7c3.15-1.12-.2.89.25,2.5,2.48-2.14,6.81-3.5,9.25-5.5v1Z"/>
        <path class="cls-41" d="m138.76,206.17c-2.61,1.54-15.31,11.63-16.25,12-.39.16-.81-.03-.75-.5,4.82-6.52,1.08-7.14,14.5-13,.87.34,2.16.29,2.5,1.5Z"/>
        <path class="cls-37" d="m54.26,262.67c-1.24-.09-4.91,5.38-5,5.75-.44,1.89,2.42-.02,2,1.75-.93,2.33.06,2.39,0,2.5-2.08,4.24-2.71.94-3.25,1-.21.02-.08.92-1.25,1.5-12.36,6.11,1.87-7.35,7.25-14,1.09-.08.49.21.25,1.5Z"/>
        <path class="cls-31" d="m134.76,233.67c.18,1.26.2,4.48.5,5.25.16.4,1.97,2.06,2.5,2.75v1c-3.44-6.02-1.12,10.09-.25,10.5,1.23-.64,1.17-1.01,1.25-1,.12.01,2.54.6,2.25,1l-5.25.5c-2.12-6.85-3.06-16.05-2.5-23.5,1.27-1.23,1.15,1.09,1.5,3.5Z"/>
        <path class="cls-29" d="m60.76,267.67c.63-.04,4.99.69,4.5,2-6.22-3.4-3.05,2.78-6.5,7,.06-1.91-.04-3.84,0-5.75,5.13-5.56-6.38,3.73-12.25,8.25-.74.57-1.2-.54-1.25-.5v-1c.87-.72,1.5-1.29,1.5-2.5,1.17-.58,1.04-1.48,1.25-1.5.54-.06,1.17,3.24,3.25-1h.5c2.48-1.08,6.55-4.85,9-5Z"/>
        <path class="cls-12" d="m254.25,179.17c1.5,1.08,2.36,2.4,2.5,2.5-1.65,1.71-3.73,2.97-5.5,4.5-.88-.5-.65-.5-1.5,0,0-1.02-.92-1.77-1.5-2.5-.97-1.22-2.1-2.23-3-3.5,3.06-.6,5.89-.94,9-1Z"/>
        <path class="cls-2" d="m95.76,258.67c-.33.21-2.2,1.9-2.5,2.5-3.24-2.08-4.78-2.32-5-2.5l4-4c1.03.03,5.45-.46,6,.25l-2.5,3.75Z"/>
        <path class="cls-32" d="m179.76,237.17c-1.75,1.83-4.84,4.46-5,7-1.34,1.06-2.7,1.98-4,3-1.05-.27-.02-.48,0-.5,1.62-2.03,2.69-3.67,2-6.5.68-1.34,1.47-2.42,2.5-3.5,2.45.39,4.02-1.29,4.5.5Z"/>
        <path class="cls-36" d="m112.26,218.17c.02-.06-.41.06-1-.75l.75-.75c2.21-1.04,4.27-2.59,6.25-4-.13,2.48-2.66,8.42-6,5.5Z"/>
        <path class="cls-12" d="m54.26,262.67c-.46,2.49-2.07,5.17-3,7.5.42-1.77-2.44.14-2-1.75.09-.37,3.76-5.84,5-5.75Z"/>
        <g>
          <path class="cls-27" d="m102.76,228.67c-1.51,3.33-4.23,8.33-3.5,9-1.42,1.45-1.45.93-1.5,1-.6.82-.78,2.01-1,3-4.02-3.05,7.18-15.64-3-4.75-.2.22.31,1.33-.25,1.75-.42.31-2.65-.77-2.75-1.25-.07-.36,3.42-5.51,4-6.25,1.08,2.8,5.67-3.88,8-2.5Z"/>
          <path class="cls-20" d="m102.76,228.67c-2.33-1.38-6.92,5.3-8,2.5,3.36-4.31,8.12-6.98,11.75-11-.98,2.92-2.48,5.7-3.75,8.5Z"/>
          <path class="cls-38" d="m119.76,215.67c-4.7.16-1.78,10.57-4.25,4-.87.52-1.6,3.61-1.75,3.75-.48.45-.41-.4-1.5-.25.78-1.18.21-.78,0-1-.71-.72-.93-.45-1-.5,1.16-1.55-.04-2.11,0-2.5,0-.07.7,0,1-1,3.34,2.92,5.87-3.02,6-5.5,1.08-.77,2.22-1.9,3.5-2.5-.57,1.86-1.35,3.66-2,5.5Z"/>
          <path class="cls-21" d="m4.01,312.17l1.25,4.25c-8.98,17.21-4.43,5.47-1.25-4.25Z"/>
          <path class="cls-31" d="m116.76,263.17c.31.25,3.75,4.48,5.5,5.75-.52.78-1.97-.12-3-.25-1.39-3.77-8.56-5.12-5.5-6.5.92-.1,2.32.45,3,1Z"/>
          <path class="cls-29" d="m92.26,254.67l-4,4c-1.08-.87-1.64-4.04-1.5-4.25.66-1,4.57.23,5.5.25Z"/>
          <path class="cls-45" d="m89.51,240.17c2.82.8-3.85,6.91-4.5,6.5-1.28-1.41,4.1-6.61,4.5-6.5Z"/>
          <path class="cls-33" d="m81.76,248.67c.96,3.02.02,2.85,0,3l-2-2c.74-.8-.01-.48,0-.5.97-2.22-.08-2.27.25-3.5.32-.01,1.58,2.47,1.75,3Z"/>
          <path class="cls-50" d="m138.01,268.67c1.3,1.85-2.2,2.1-1.75,3.25,5.56-.75,4.3,1.27-.75.75l2.5-4Z"/>
          <path class="cls-20" d="m97.76,243.67c-1.44.93-2.15,3.11-1-2,.22-.99.4-2.18,1-3v5Z"/>
          <path class="cls-36" d="m111.26,219.17c-.04.39,1.16.95,0,2.5-.23-.16-.79,1.05-1.5-.25-.78-1.41-.95-4.5,1.5-2.25Z"/>
          <path class="cls-12" d="m112.26,223.17c-.08.01-1.17,1.29-1.5.25-.03-.09,1.02-1.13,1.5-1.25.21.22.78-.18,0,1Z"/>
        </g>
        <path class="cls-18" d="m252.25,11.68c18.27,1.46,20.9,3.7,35.5,13,2.31,3.86-14.18-5.34-19.25-7-10.01-3.28-20.48-4.26-31-4.5-.54-3.64,9.22-1.94,14.75-1.5Z"/>
        <path class="cls-43" d="m161.26,25.68l.5,1c-11.23,2.54-15.09,7.23-19.25,18l-8.25-4.25c6.01,2.02,9.3-8.25,16-13.75,4.85-.28,9.51.8,9-1,.66.06,1.34-.03,2,0Z"/>
        <path class="cls-26" d="m302.25,35.18c1.75,2.35,2.78,5.25-.25,4-.84-.35-9.64-12.6-11.75-14,2.37,1.6,10.59,8.11,12,10Z"/>
        <path class="cls-6" d="m141.76,30.18c-.2.16-2.24,2.33-3.5,3.5-2.28-1.72-2.53,1.82-4.5.75,1.16-1.3,2.49-2.39,4-3.25,1.07-.61,4.11-1.65,4-1Z"/>
        <path class="cls-46" d="m134.26,76.18c.11,2.09,1.18,5.94,2,8,1.17,2.92,2.42,4.29,4.5,6.5,2.36,2.51,4.61,4.19,7.5,6l-.5,1.5c-3.98-2.29-11.02-5.1-13.5-8.75-1.67-2.45-3.61-9.45-3-12.25.02-.07,1.15-.44,1-1,.67.02,1.33-.01,2,0Z"/>
        <path class="cls-43" d="m136.76,60.68c-1.36,5.45-10.28,16.78-2,13.5-.09,1.35-.51,1.9-.5,2-.67-.01-1.33.02-2,0-8.98-.22-2.79-5.89-2.5-6.75.16-.48.37-3.6,1-5.25,1.44-3.8,4.89-6.04,3.5-7.5,2.55.37,2.98,2.08,2.5,4Z"/>
        <path class="cls-12" d="m269.25,306.67c-24,12.59-48.41,22.71-75.5,25.5-.94-1.32-3.75.52-3.5-1.5,8.05.32,12.25-2.33,19.5-4,9.49-2.18,19.1-4.03,28.25-7.5,4.7-1.78,13.3-5.46,9.75-6,5.84-2.18,11.46-5.24,17.5-7,2-.58,3.76-2.1,4,.5Z"/>
        <path class="cls-39" d="m145.26,317.67c5.52,3.76,12.81,5.95,18.75,9l6.25,1c.93.03,1.87-.48,4-.5,4.7-.82,7.53,2.13,12,3-.44,1.97-2.71-.16-3.75.5-.94.59.3,1.68.25,1.75-1.2,1.55-16.51-5-19.25-3.25-4.81-2.61-12.81-9.13-17.5-6.5-1.03-1.42-2.55-6.18-2.75-6.5.75.4,1.29,1.02,2,1.5Z"/>
        <path class="cls-29" d="m208.75,325.67l1,1c-7.25,1.67-11.45,4.32-19.5,4-1.67-.07-2.4-.19-4-.5-4.47-.87-7.3-3.82-12-3,1.85-.02,4.03-.45,6-.5,8.88,5.48,19.28,1.21,28.5-1Z"/>
        <g>
          <g>
            <path class="cls-43" d="m301.25,281.17c1.83,7.69,2.63,15.54,2,23.5-1.52-1.37-1.55,2.94-5,5.75l-2.5,7.25c-.24,3.52-8.64,10.65-12,10.25,6.51,4.57.31,1.65-2.25,2.25-2.41.56-14.96,7.52-18.75,9-6.56,2.57-13.54,5.42-20.25,7.5-3.45,1.07-12.35,1.39-9,3.5,16.03.67-6.71,1.99-7.5,2.5-3.05,1.95,4.02,1.65-2.25,4-4.89,1.83-6.12-.36-5.25,4-1.93-4.03-2.9-1.99-7.75-1.75,2.67,6.87,13.86,13.28,16.25,8.75,2.12,3.07,11.25,1,17.25.5,3.28-.27,6.7-.61,10-.5-8.29,2.69-12.99,4.62-22.5,6-5.3.32-10.73.38-16,1v-1c2.01-.37,1.3-1.34,3.25-2q-21-3-42-6c-.95-.51-4.87-14.41-5.25-16.5-.17-.93-.97-2.5-1-3.5-.02-.63.41-1.09.5-2.5.04-.66,1.34-2.32.75-3-14.36-1.23-14.19-6.22-15-6.5-1.04-.36-5.77.25-8,0-2.75-7.02-4.88-5.32-21-5.5-.28,0-.31,1.52-5.25,1,2.09-.69,7.79-1.25,7.5-3.5,1.69-.03,12.64-.05,13-1.25-3-3.74-4.34-6.49-4.5-11.25,2.97-.03,3.04.74,4.5,3,.2.32,1.72,5.08,2.75,6.5,4.69-2.63,12.69,3.89,17.5,6.5,2.74-1.75,18.05,4.8,19.25,3.25.05-.07-1.19-1.16-.25-1.75,1.04-.66,3.31,1.47,3.75-.5,1.6.31,2.33.43,4,.5-.25,2.02,2.56.18,3.5,1.5-1.19.12-2.86-.5-3,1.25.9,1.22,20.2,1.68,23.25,1.75,29.91.69,59.99-.41,81.75-23.5.06-.06.82.27,1.5-.75-.98-.88-1.42.78-1.5.75-6.08-2.19.85-6.12,2-13.25.24-1.47.7-13.31-.5-14.25v-.5c2.75-1.93,4.09-4.81,4-2.5Z"/>
            <path class="cls-31" d="m225.5,337.67c20.95-.84,11.28,1.86-2,3-2.98.26-25.24,1.29-25.75-.25-1.12-3.38,13.44-1.05,18.75-1.25.2,0,.8-.99,1-1,2.1-.07,3.63.57,6,.5.11,0,1.89-1,2-1Z"/>
            <path class="cls-23" d="m295.75,311.67c.08.03.52-1.63,1.5-.75-.68,1.02-1.44.69-1.5.75Z"/>
          </g>
          <g>
            <path class="cls-42" d="m262.75,339.17c1.12,7.55.81,14.89-2,22-.51.8-1.84,2.61-2,3,.42-.96-.02-2.75,0-3,.03-.35.67-1.38,1-1.75-7.39,2-15.18,2.68-23,3.25-.53-1.32-.65-2.12-.5-3.5,13.54-1.02,31.66-7.83,26.25-12-.25-.2-2.36,2.59-5,4-10.04,5.38-21.76,6.06-32.75,8-.25-.09-.57.2-1-.25-.08-.08.88-.06,0-2.25,6.27-2.35-.8-2.05,2.25-4,.79-.51,23.53-1.83,7.5-2.5-3.35-2.11,5.54-2.43,9-3.5,6.71-2.08,13.69-4.93,20.25-7.5Z"/>
            <path class="cls-29" d="m224.75,359.17c2.77.98,8.52.22,11.5,0-.15,1.38-.03,2.18.5,3.5,1.3,3.2,8.79,2.52,12,2,1.34,3.02-.76.69-4.5,3.5-6,.5-15.12,2.57-17.25-.5-2.39,4.53-13.58-1.88-16.25-8.75,4.85-.24,5.82-2.28,7.75,1.75-.87-4.36.36-2.17,5.25-4,.88,2.19-.08,2.17,0,2.25.43.45.75.16,1,.25Z"/>
            <path class="cls-31" d="m258.75,364.16c-.48,1.16-1.04,1.89-1,2-1.42.18-2.09,1.04-3.5,1.5-3.3-.11-6.72.23-10,.5,3.74-2.81,5.84-.48,4.5-3.5,3.01-.49,7.34-1.95,10-3.5-.02.25.42,2.04,0,3Z"/>
            <path class="cls-39" d="m236.25,359.17c-2.97.22-8.73.98-11.5,0,10.99-1.94,22.71-2.62,32.75-8,2.64-1.41,4.75-4.2,5-4,5.41,4.17-12.71,10.98-26.25,12Z"/>
            <path class="cls-42" d="m258.75,361.16c-2.66,1.55-6.99,3.01-10,3.5-3.21.52-10.7,1.2-12-2,7.82-.57,15.61-1.25,23-3.25-.33.37-.97,1.4-1,1.75Z"/>
          </g>
        </g>
        <path class="cls-2" d="m300.75,215.17c-.19.28-4.22,3.74-5,4.5.03-.76-.64-.39-1-.5-2.23-.67,1.78-2.79,6-9,3.42-5.03,6.33-12.92,6-8.75-.06.75-5.31,12.75-6,13.75Z"/>
        <path class="cls-27" d="m299.75,204.17c-.21-.89.49-1.16,1-1.75,2.92-3.33,3.56-1.63-1,1.75Z"/>
        <path class="cls-21" d="m155.76,174.17c-.02,2.46-.98,2.72-3.25,3.5-2.89-4.13-7.18-6.7-10.25-10.75-3.27-4.31-4.21-8.68-6-9.75.03-3.65.95-7.68,4-10,8.23,7.94,17.84,14.5,28.5,18.75.55,1.54-11.61,6.66-13,8.25Z"/>
        <path class="cls-31" d="m219.75,174.67c1.41.06,2.84-.05,4.25,0,.88,2.34-.27,2.85-.25,3-25.47,3.52-49.59,12.14-73.75,20.5-10.34-6.66,0-4.26,13-8,9.02-2.59,17.4-7.4,26.5-10,5.79-1.66,25.09-5.74,30.25-5.5Z"/>
        <path class="cls-31" d="m209.75,158.67c15.52,5.53,20.77,11.52,29,16-4.78,1.92-9.62,3.84-14.5,5.5.77-2.14-.3-.86-.5-2.5-.02-.15,1.13-.66.25-3-1.41-.05-2.84.06-4.25,0,.27-.55.82-1.42.5-2-.63-1.14-6.3-3.13-8-3-.15-.4-1.13-.83-1.5-1-8.96-4.03-17.91-6.86-27-10.5,3.93-.7,19.54,8.17,21,4.25.33-.9-2.19-1.73-1.25-2.75,1.57-1.71,6.19,1.47,6.25-1Z"/>
        <path class="cls-31" d="m155.76,174.17c5.09,2.94,20.26-6.53,21.25-6-2.74,10.44-6.89,7.63-4.75,10-3.34.63-6.59,1.71-10,2-2.73.23-5.53-.12-8.25.5-8.52-4.43-17.84-13.36-17.75-23.5,1.79,1.07,2.73,5.44,6,9.75,3.07,4.05,7.36,6.62,10.25,10.75,2.27-.78,3.23-1.04,3.25-3.5Z"/>
        <path class="cls-7" d="m183.76,158.17c9.09,3.64,18.04,6.47,27,10.5-1.97.91-2.03.93-4.25.5-9.3-1.81-38.49-14.32-47.75-19.5-6.92-3.87-15.26-10.48-16.5-11-.02-.41-.35-.53-.5-1-.74-2.39-2.05-3.2-3.5-5,3.02.34-.18-1.41.5-3,11.68,16.7,27.14,21.35,45,28.5Z"/>
        <g>
          <path class="cls-43" d="m141.76,137.68c.15.47.48.59.5,1-.29-.12-2.6-1.09-2.5.25,1.86,1.56,12.37,12.47,13.25,12.75.36.11,7.74.27,5.75-2,9.26,5.18,38.45,17.69,47.75,19.5,2.22.43,2.28.41,4.25-.5.37.17,1.35.6,1.5,1l-1,.75c2.8,1.04,5.88,2.19,9,2.25.32.58-.23,1.45-.5,2-5.16-.24-24.46,3.84-30.25,5.5-9.1,2.6-17.48,7.41-26.5,10-13,3.74-23.34,1.34-13,8,24.15-8.36,48.28-16.98,73.75-20.5.2,1.64,1.27.36.5,2.5-8.25,2.81-16.67,4.99-25,7.5-17.17,5.17-34.52,9.7-51.5,15.5l6.75-4c-2.93.4-5.19,2.36-7.75,3.5-.12.05-.5,0-2.5,1-1.69.85-3.91,1.56-5.5,2.5-.34-1.21-1.63-1.16-2.5-1.5-.13-.05-1.19-1-2.5-1-.36-1.05-1.57-2.46-1.5-3.5.09-1.42,6.5-11.97,8-14.25-1.2-5.11-5.12-10.09-7-13.75-1.94-3.77-4.97-5.26-3.5-13.5,1.1-6.12,1.48-6.29,2-2-3.57,3.28,4.38,19.98,6,14.5,3.38,4.76,13.47,13.32,14.75,13.5,1.64.22,4.3-1.96,7.75-2.5,15.74-2.45,31.62-3.99,47.25-7.5-8.36-4.99-25.03,1.57-35.25,3.5-2.14-2.37,2.01.44,4.75-10-.99-.54-16.16,8.94-21.25,6,1.39-1.59,13.55-6.71,13-8.25-10.66-4.25-20.27-10.8-28.5-18.75-1.6-1.54-2.73-3.62-4.5-5,.03-.16-.02-.34,0-.5.31-2.53,2.64-.09-.5-7-.5-4.19,1.5.12,6.5,3Z"/>
          <g>
            <path class="cls-22" d="m160.26,182.17l2-2c3.41-.29,6.66-1.37,10-2,10.22-1.93,26.89-8.49,35.25-3.5-15.63,3.51-31.51,5.05-47.25,7.5Z"/>
            <path class="cls-31" d="m142.26,138.68c1.23.52,9.58,7.13,16.5,11,1.99,2.27-5.39,2.11-5.75,2-.88-.28-11.39-11.19-13.25-12.75-.1-1.34,2.21-.37,2.5-.25Z"/>
            <path class="cls-49" d="m142.01,187.17c.12-.03,2.18.92,2.25,1.25.17.76-7.18,12.77-8.75,12.25-1.09-.36,5.74-13.31,6.5-13.5Z"/>
            <path class="cls-40" d="m137.76,171.17c-1.62,5.48-9.57-11.22-6-14.5.72,5.94,2.49,9.57,6,14.5Z"/>
            <path class="cls-46" d="m220.25,172.67c-3.12-.06-6.2-1.21-9-2.25l1-.75c1.7-.13,7.37,1.86,8,3Z"/>
            <path class="cls-39" d="m147.76,203.17l-1-.5c2.56-1.14,4.82-3.1,7.75-3.5l-6.75,4Z"/>
          </g>
        </g>
        <path class="cls-42" d="m209.75,148.18c3.99.88,7.84,2.37,11.75,3.5,1.29.37,1.19-.52,1.25-.5.34.1.04.37,2,1,1.47.47,2.81,1.65,4.5,1.5.09.16,2.6,1.68,2.5,2.75-2.81,2.27-2.34,3.83-2.5,4-1.22,1.32-2.83-.45-2.5,1.25-12.15-5.84-18.32-8.38-32-9-.87-3.08,7.01.2,6.5-4,1.11-.04,2.8-.41,3.75-1l4.75.5Z"/>
        <path class="cls-3" d="m165.26,105.18c8.78,5.37,31.74,15.59,41,16-1.54,1.45-6.03,2.38-8.5,3-13.07-2.53-23.31-11.61-34.5-18,2.16-2.46,1.86-1.01,2-1Z"/>
        <g>
          <path class="cls-31" d="m171.76,124.68c.38,1.2.52,6.35,1,9.5l-1.5,4.5c-.22-1.5-.51-3-.75-4.5l-18.25-1c-.17-.13-3.09-1.44-3.75-2-3.15-2.65-3.47-6.52-7.75-6.5.07-.05,1.4-.02,1.5-.75.15-1.04-5.32-5.49-4-20.25,11.58,3.33,21.33,12.23,31.75,18,.8,2.85,1.7,2.83,1.75,3Z"/>
          <path class="cls-29" d="m171.26,138.68c.1.69.35,5.9-.25,6-2.62.42-16.01-9.42-18.75-11.5l18.25,1c.24,1.5.53,3,.75,4.5Z"/>
        </g>
        <path class="cls-22" d="m172.76,134.18c-.48-3.15-.62-8.3-1-9.5-.08-1.4,2.03-1.96,2.5-.75.61,1.56.66,19.17,3.5,24-5.4.55-3.69-5.14-5-13.75Z"/>
        <path class="cls-23" d="m135.76,123.68c-.78.54,1.64,4.06,3,6-.68,1.59,2.52,3.34-.5,3-2.96-3.68-4.31-3.29-7.5-13.75.47-2.02,3.89,3.64,5,4.75Z"/>
        <path class="cls-9" d="m150.76,97.68c7.52,4.15,8.35,4.33,16.5,6.5l-1,1c-.31-.06-.67.02-1,0-.14-.01.16-1.46-2,1-5.02-2.87-10.46-5.09-15.5-8l.5-1.5c1.46.91,2.38.93,2.5,1Z"/>
        <path class="cls-40" d="m242.75,255.17c-2.69,1.12-14.02,6.23-16,6-.23-.03-2.58-1.56-3.5-3,3.33-.54,6.69-.84,10-1.5,2.5-.5.77-2.58,9.5-1.5Z"/>
        <path class="cls-38" d="m256.25,244.17c-1.31.13-5.89.64-6.5.5l-3.25-3.5c3.27,1.04,7.02.64,9.75,3Z"/>
        <g>
          <path class="cls-46" d="m305.75,185.17v.5c-2.7,4.75-3.87,11.17-6.5,15.5-.25.41-5.41,6.81-6.5,7-.08-.57.25-1.67-.25-2-9.67,10.8-10.86,13.21,1.75,4,2.35-1.71,3.37-2.62,5.5-4.5,7.23-6.4,4.64-5.78,1,4.5-4.22,6.21-8.23,8.33-6,9-9.5,7.08-8.72,10.07,1,.5.77-.76,4.81-4.22,5-4.5,3.32,3.19,4.97,8.77,2.5,12.25,2.32,3.86-2.76,5.45-3,9.25-1.08.48-1.04-1.05-1.25-1-1.33.3-12.35,12.48-20,18.5-11.31,8.91-27.42,17.98-40.75,23.5-2.12-1.87,9.65-7.31,18.5-14,6.62-5.01,12.89-11.95,20-16.5,4.54-2.9,10.21-4.28,14.75-7.5,13.59-9.63,6.96-9.95-5-4.5-5.55,2.53-12.64,7.98-18.5,11-3.34,1.73-9.94,3.96-14,6-2.2,1.11-9.11,6.63-11,7.5-2.5,1.15-18.75,6.61-16.25,1.5,1.98.23,13.31-4.88,16-6,14.51-6.06,12.53-2.87.25-5.5-1.64-.35-4.29-3.25-7-1.5-12.63-5.06-26.33-7.12-39.25-11,0-.34-.12-.91.25-1,4.9-1.18,9.84-1.37,14.75-3,2.33,2.61,14.35,7.45,18.25,8.5,3.99,1.07,16.77,3.51,16.25,1.5.46.15,1.42,1.03,3.5,1.5.61.14,5.19-.37,6.5-.5,2.47-.24,5.1-.33,7.5-1,3.6-1.01,7.3-3.34,10.5-5.25-4.19,1-8.68,2.51-13,2.75-19.89,1.12-36.16-6.42-40.5-6.5-.01-.87,1.05-.34,2-.5.91-.15,2.1-.72,3-1q11.12-1.5,22.25-3,8.75,1.75,17.5,3.5c2.21-.93-5.16-1.61-6.5-2-18.46-5.41-4.52-2.6,13-10.5,1.18-.53,5.3-2.56,6-3,10.64-6.76-8.92,2.31-17.5,5-6.07,1.9-12.64,2.71-18.75,4.5l-5.25-3.5c5.72-1.3,10.94-3.94,16.75-5,2.52-.46,1.94-2.01,5.25.5,17.13-7.9,23.36-9.77,35.75-24,1.79-2.06,5.15-3.17,3-5,1.05-.67,1.86-1.33,3-2,1.79-1.05,3.66-2.03,5.5-3Z"/>
          <g>
            <path class="cls-27" d="m299.75,204.17c.26.96-1.05,1.41,0,1.5-2.13,1.88-3.15,2.79-5.5,4.5-.26-1.27-1.69.62-2-.25-.03-.09.72-.25.5-1.75,1.09-.19,6.25-6.59,6.5-7-.71,3.3.45,2.83.5,3Z"/>
            <path class="cls-31" d="m220.75,234.17c4.34.08,20.61,7.62,40.5,6.5l-2.75,2.5h5.25c-2.4.67-5.03.76-7.5,1-2.73-2.36-6.48-1.96-9.75-3l3.25,3.5c-2.08-.47-3.04-1.35-3.5-1.5-.14-.05-.82-1.59-2.25-2-1.6-.45-37.08-7.26-23.25-7Z"/>
            <path class="cls-31" d="m284.5,226.67c.83-.67,11.01,8.1-12.5,6l-2.25-2.25c2.61.36,10.67-2.79,11.25-2.75,1.27.08,2.37,2.52,3,2,.68-.55-.18-2.45.5-3Z"/>
            <g>
              <path class="cls-31" d="m225.75,232.67c5.32-1.65,10.71-3.95,16-5.5,6.11-1.79,12.67-2.6,18.75-4.5,8.58-2.68,28.14-11.75,17.5-5-.7.44-4.82,2.47-6,3-17.52,7.9-31.46,5.09-13,10.5,1.34.39,8.71,1.07,6.5,2q-8.75-1.75-17.5-3.5-11.12,1.5-22.25,3Z"/>
              <path class="cls-29" d="m292.75,208.17c.22,1.5-.53,1.66-.5,1.75.31.87,1.74-1.02,2,.25-12.61,9.21-11.42,6.8-1.75-4,.5.33.17,1.43.25,2Z"/>
            </g>
            <path class="cls-7" d="m263.75,243.17h-5.25l2.75-2.5c4.32-.24,8.81-1.75,13-2.75-3.2,1.91-6.9,4.24-10.5,5.25Z"/>
            <path class="cls-31" d="m295.75,219.67c-9.72,9.57-10.5,6.58-1-.5.36.11,1.03-.26,1,.5Z"/>
            <path class="cls-31" d="m287.5,224.67c.27.01,3.81,3.66,3.5,4-2.32,2.49-6.78-4.13-3.5-4Z"/>
          </g>
        </g>
        <path class="cls-2" d="m306.25,155.67c-.41,1.43-.86,3.03-1,4.5-.16,1.71-.41,1.69,0,3.5-1.1,1.1-1.73,2.67-2.5,4l-2.5,1c-.39-3.15,2.12-5.86,2.5-8.75.32-2.43.43-16.42-1-16.75.05-2.53-.01-4.99.5-7.5.39-.32.89-.48,1.5-1,.79-.68,1.64-1.41,2.5-2v23Z"/>
        <path class="cls-12" d="m317.75,147.68c3.29,10.78,4.52,17.48-2,27.5-1.5.85-3.12,1.15-3.5-1.25,2.83.41,3.67-3.95,5-6-.12-3.62,1.13-16.63,1-17.5-.03-.24-3.71-2.85-.5-2.75Z"/>
        <path class="cls-46" d="m303.75,179.67c-.06.05-.57-.09-1.5.5-1.55-.65,3.34-3.97,6.5-8.5,2.56-3.66,5.25-7.37,5.5-12,2.48,7.14-4.96,16.1-10.5,20Z"/>
        <path class="cls-31" d="m148.26,209.67q3.75,4.37,7.5,8.75l-9.5,10.75c-1.14-4.12-4.07-13.62-6.5-16,2.88-1.24,5.55-2.4,8.5-3.5Z"/>
        <path class="cls-21" d="m155.26,232.17c-2.07,2.43-4.91,6.67-7,6.5-.21-1.36-.23-3.3-.5-4.5,2.26-1.1,10.85-11.91,11.75-12,5.07-.52-1.11,6.31-4.25,10Z"/>
        <path class="cls-43" d="m156.76,235.67c-1.9,1.52-7.27,6.14-7,7.5-.8.11-.25.16-1,0-.08-1.51-.27-3-.5-4.5,2.09.17,4.93-4.07,7-6.5,2.05.49.37,2.33,1.5,3.5Z"/>
        <g>
          <path class="cls-43" d="m245.25,180.17c.9,1.27,2.03,2.28,3,3.5-25.07,19.5-48.58,40.75-73.5,60.5.16-2.54,3.25-5.17,5-7,1.07-1.12,2.49-1.6,2.5-1.75.02-.43-2.39-3.6-7,1.25-1.03,1.08-1.82,2.16-2.5,3.5-1.01,1.99-1.95,4.22-2,6.5-.02.02-1.05.23,0,.5-8.58,6.73-17.07,13.78-25.25,21-1.96-.25,1.41-11.31,1.25-18-.01-.41,1.05-.75,0-2.75l-12-13.75c-.35-2.41-.23-4.73-1.5-3.5.05-.63-.24-2.12.25-2.5,1.94,2.09,7.74,6.18,8.75,7.5.46.6.74.99,1.5,1.25-1.58,1.74,2.39,6.53,3.75,7.25.54.29.83-.59,1.25-.5.75.16.2.11,1,0,.09-.01.65.95,1.75.5.99-.41,16.18-14.24,14.5-15-2.47,3.09-6.26,4.61-9.25,7-1.13-1.17.55-3.01-1.5-3.5,3.14-3.69,9.32-10.52,4.25-10-.9.09-9.49,10.9-11.75,12-.3-1.35-1.06-3.42-1.5-5l9.5-10.75q-3.75-4.37-7.5-8.75c10.93-4.08,27.4-9.47,38.75-13,8.05-2.51,54.08-15.68,58.25-16.5Z"/>
          <g>
            <path class="cls-26" d="m146.76,250.17h-1c-.17-2.05-6.6-6.69-8-8.5-.53-.69-2.34-2.35-2.5-2.75-.3-.77-.32-3.99-.5-5.25l12,13.75c1.05,2-.01,2.34,0,2.75Z"/>
            <path class="cls-31" d="m211.25,203.67c-9.72,8.32-18.76,16.59-29.25,24-.54.38.22.41.25,1-2.67-.35-17.62-9.16-18.25-10-1.78-2.38,5.41.33,8.75-2.25-19.87-11.24-17.69-13.6,2.25-.75,9.19-4.67,27.02-12.75,36.25-12Z"/>
            <path class="cls-1" d="m225.75,193.17c-7.78,7.19-18.28,16.37-26.5,23-2.55,2.06-14.99,12.44-17,12.5-.03-.59-.79-.62-.25-1,10.49-7.41,19.53-15.68,29.25-24,3.21-2.75,29.31-24.19,14.5-10.5Z"/>
            <path class="cls-43" d="m199.26,216.17c8.22-6.63,18.72-15.81,26.5-23-.15.87.79,1.34.5,2.25-.45,1.4-20.55,18.91-21.75,19.75-1.62,1.14-4.53,3.65-5.25,1Z"/>
            <path class="cls-21" d="m149.76,243.17c-.27-1.36,5.1-5.98,7-7.5,2.99-2.39,6.78-3.91,9.25-7,1.68.76-13.51,14.59-14.5,15-1.1.45-1.66-.51-1.75-.5Z"/>
            <path class="cls-15" d="m153.51,246.67c.76.27-.52,2.76-.75,3.25-4.61,9.96-7.5,2.37.75-3.25Z"/>
            <path class="cls-3" d="m179.76,237.17c-.48-1.79-2.05-.11-4.5-.5,4.61-4.85,7.02-1.68,7-1.25,0,.15-1.43.63-2.5,1.75Z"/>
            <path class="cls-23" d="m168.01,243.67c.18,1.23-2.15,5.55-2.75,6.25-4.4,5.1-4.22,1.86,2.75-6.25Z"/>
            <path class="cls-10" d="m170.76,246.67c.05-2.28.99-4.51,2-6.5.69,2.83-.38,4.47-2,6.5Z"/>
          </g>
        </g>
        <path class="cls-5" d="m220.25,255.17c-.11,3.06.43,9.67.5,13.5.04,2.03.5,2.35.5,2.5.03,2.5-.02,5,0,7.5.04,9.76-5.69,4.4-8.5,10.5-2.25.31-1.12.66-2,1-1.19.46-2.78.44-3,.75-.09.13,1.49,2.21,1.5,2.75-8.35,1.89-16.62,4.97-25,7-4.93-2.09-8.44,2.24-17.25-2-11.72-5.65,5.63-1.46,6.25-2.75-7.42-4.88-19.37-8.22-21-17.5l15.75-5.25v-1l-5.75.25c1.22-1.85,5.36-.01,3-2.75,4.03.86,8.07-.54,12-1,1.64-.19,3.35-.21,5-.5,2.73-.47,5.34-1.35,8-2,9.52-2.31,20.27-5.4,28-10.5.98-.05,1.17-.58,2-.5Z"/>
        <path class="cls-19" d="m242.25,289.17c.43,1.54,1.36,1.47,1.5,2,.09.33-2.69-.45,2.5,5-9.96,1.16-33.43,12.3-63.5,15.5.45-2.63-.99,0-4.25-1.5-.6-.27-5.27-5.14-5.75-6.5,3.87-.81,7.65-2.07,11.5-3,8.37-2.03,16.64-5.11,25-7,.15-.03.67-.01,3-.5,4.93-1.03,10.28-.77,15-3,.48.7.77,1.22,1.75,1,4.31-1.13,8.91-1.13,13.25-2Z"/>
        <path class="cls-3" d="m177.26,268.67c-3.93.46-7.97,1.86-12,1-1.76-.38-4.59-3.01-7-3.25,16.82.93,1.92,1.16,9-4.25,1.35,1.48,9.3,3.76,10,6.5Z"/>
        <path class="cls-35" d="m175.26,263.17c2.35,1.46,4.64,3.49,7,5-1.65.29-3.36.31-5,.5-.7-2.74-8.65-5.02-10-6.5-6.19-6.81,5.01-.85,8,1Z"/>
        <g>
          <path class="cls-43" d="m166.26,254.17c2.09,2.32,12.19,8.67,9,9-2.99-1.85-14.19-7.81-8-1-7.08,5.41,7.82,5.18-9,4.25,2.41.24,5.24,2.87,7,3.25,2.36,2.74-1.78.9-3,2.75l5.75-.25v1l-15.75,5.25c1.63,9.28,13.58,12.62,21,17.5-.62,1.29-17.97-2.9-6.25,2.75,8.81,4.24,12.32-.09,17.25,2-3.85.93-7.62,2.19-11.5,3-12.61,2.65-20.16,3.37-33,.5.22-1,.45-2.86.5-3,1.07-2.89.9-.62,2,0,9.71,5.47.82-5.86,2.75-7q2.87.37,5.75.75c-5.61-4.75-10.42-10.85-12.5-18,.37-.61,1.1.82,1.25.75,2.3-1.04.27-3.95,7,4.5.67-.22-1.66-4.48-1.75-5.75-.48-6.98,16.17-17.98,21.5-22.25Z"/>
          <path class="cls-22" d="m152.01,270.67c.94-.51,5.56.71,6.75,1.75-5.65.94-9.84-.08-6.75-1.75Z"/>
        </g>
        <path class="cls-2" d="m184.76,316.17c3.3,3.13,9.45.99,10,1-2.01,4.19,1.72,3.64.5,6.5-4.66.96-9.54,1.16-14,3-.33.01-.67,0-1,0-1.97.05-4.15.48-6,.5-2.13.02-3.07.53-4,.5-6.31-3.54-5.01-4.7-2.5-10.5,5.68-.22,11.33-.52,17-1Z"/>
        <path class="cls-40" d="m167.76,317.17c-2.51,5.8-3.81,6.96,2.5,10.5l-6.25-1c-5.94-3.05-13.23-5.24-18.75-9,7.52.17,14.99-.2,22.5-.5Z"/>
        <path class="cls-48" d="m221.25,251.67c-.04.35.07.81,0,1-.17.44-1,2.37-1,2.5-.83-.08-1.02.45-2,.5-5.35.25-25.83-6.68-32.5-8.5,3.06-1.84,8.22-.36,10-4,8.41,3.01,16.9,6.1,25.5,8.5Z"/>
        <path class="cls-46" d="m76.76,267.67c-.08-.07-.91.04-1.5,0-.02-7.03-2.11.99-2,7,.03,1.41.78,4.44,1,6,1.37,9.93,5.21,19.3,7.5,29-3.7-3.54-6.62-7.92-10-11.75-.5-7.19-6.83-12.53-7.5-20.25-.11-1.24,1.13-7.3,1-8,.49-1.31-3.87-2.04-4.5-2-1.09-1.38.72-1.31,2-2.5,7.59,2.14,8.62-5.05,15.25-6l-1.25,8.5Z"/>
        <path class="cls-9" d="m65.26,269.67c.13.7-1.11,6.76-1,8-.61-.06-.47.48-.5.5-1.21,1.1-1.91.93-2,1,2.61-9.67-2.71-4.29-.5.5-.13.1-.7,1.68-2,1.5-.11-1.51-.55-2.85-.5-4.5,3.45-4.21.28-10.4,6.5-7Z"/>
        <path class="cls-21" d="m61.76,292.67c-.46-1.2-2-3.66-2.5-6.25-.78-4.04.02-4.99,0-5.25,1.3.18,1.87-1.4,2-1.5.43-.34.47-.48.5-.5.09-.07.79.1,2-1-3.7,7.98,2.38,12.72-1.25,15-.04.03-.44-.63-.75-.5Z"/>
        <path class="cls-29" d="m233.25,256.67c-3.31.66-6.67.96-10,1.5-.88-1.38-1.1-3.93-2-5.5.07-.19-.04-.65,0-1,2.84.79,16.81,1.94,12,5Z"/>
        <path class="cls-40" d="m61.26,328.67l-3,1.5c-1.35-.23-1.88-.48-2-.5.94-2.1-3.15-3.31-4.75-3.5-7.73-.93-9.45,7.04-3.75-3.5.37.04.97,1.37,1.75,1.5,3.66.6,10.31.54,11.75,4.5Z"/>
        <g>
          <path class="cls-31" d="m142.26,301.17c-1.1-.62-.93-2.89-2,0-.12-2.79-4.66-2.12-6-3.75-.35-.42-.99-4.16-2-5.5-3.44-4.55-22.66-20.28-29-24.75,2.08.55,4.21.49,4-2,11.31,7.29,13.64,2.4,19.5,8.25.68.68,6.4,8.93,6.5,9.5.02.12-1.59,1.73-1.5,2,.59,1.66,6.52-3.65,10.5,16.25Z"/>
          <path class="cls-38" d="m119.01,273.67c8.39,4.83,7.11,7.59-.25.25l.25-.25Z"/>
        </g>
        <path class="cls-31" d="m235.75,152.17c-6.46,2.97,11.92,17.47,11,8,7.93,5.8,17.33,14.35,19,15.5-2.72,6.61,3.54,9.27,8.5,11.5.16.07.62,1.17,3,2-.44,6.63-12.61-1.61-16-4-1.54-1.09-2.95-2.36-4.5-3.5-.14-.1-1-1.42-2.5-2.5-2.04-1.47-2.38-1.42-2.5-1.5-.17-.12-1.33-1.88-1.5-2-1.87-5.34-3.89-6.57-9-6-3.47-2.16-10.87-6.25-14.5-8-.33-1.7,1.28.07,2.5-1.25.16-.17-.31-1.73,2.5-4,.1-1.07-2.41-2.59-2.5-2.75-4.31-7.52-4.03-7.58,6.5-1.5Z"/>
        <path class="cls-46" d="m261.25,185.17c.47.91-.03,2.33-.5,3l-11-.5c.63-.54,1.09-1.14,1.5-1.5,1.77-1.53,3.85-2.79,5.5-4.5,1.55,1.14,2.96,2.41,4.5,3.5Z"/>
        <path class="cls-31" d="m80.76,254.17c-1.07,4.94-2.91,9.7-3.5,14.75-.8.71-.37-1.13-.5-1.25l1.25-8.5c-6.63.94-7.66,8.14-15.25,6,4.48-4.18,8.65-8.68,13-13l5,2Z"/>
        <path class="cls-46" d="m79.76,249.67l2,2c-.25,2.05-.97,2.37-1,2.5l-5-2c3.26-3.24,3.84-2.33,4-2.5Z"/>
        <path class="cls-31" d="m75.26,267.67c0,1.66-.98,7.36-2,7-.11-6.01,1.98-14.03,2-7Z"/>
        <path class="cls-40" d="m24.76,298.17c.05,4.17,3.4,1.2-1.5,5.5-1.77,1.56-10.36,9.64-11.5,9.5-.38-3.22.37-2.66,1.5-4.5,1.46-2.37,7.97-8.34,10.75-11,.52-.5.72.53.75.5Z"/>
        <path class="cls-42" d="m137.76,242.67l1,9.5c-.08,0-.02.36-1.25,1-.87-.41-3.19-16.52.25-10.5Z"/>
        <g>
          <path class="cls-43" d="m145.76,250.17q-2.87,9-5.75,18c-1.86-2.88-1.64-10.57-2.25-12.25-.21-.59-1.7-1.3-2-2.25l5.25-.5c.29-.4-2.13-.99-2.25-1l-1-9.5v-1c1.4,1.81,7.83,6.45,8,8.5Z"/>
          <path class="cls-50" d="m141.51,256.17c.6-.08,1.25.63,1.25.75-.01,2.56-5.07-.22-1.25-.75Z"/>
        </g>
        <path class="cls-21" d="m142.26,62.18l-1,.25c.69,1.02,1.45.68,1.5.75.12.15-.43,1.12.75,2,4.09,3.06,12.25,2.74,8.25,6-.16.13-1.5-.23-1.5.25,10.74,2.77,21.94,3.62,33,4.75,1,2.71-7.19.82-16,2-5.26.7-14.41,4.45-26.75,3.5-.21-.02-.6-.9-1.25-1-6.08-.89-1.77,1.18-3,3.5-.82-2.06-1.89-5.91-2-8,0-.1.41-.65.5-2,.08-1.21-.23-3.85.25-4,6.93,11.04,3.47,5.23,3.25,1.75-.45-7.15,3.16-12.43-1.5-11.25.48-1.92.05-3.63-2.5-4,.02-.33-.04-.68,0-1,3.05.65,5.29,4.32,8,6.5Z"/>
        <path class="cls-46" d="m242.75,94.68c.33-.87.61-1.64,1-2.5.79-1.74-1.28-1.31.25-2.5,4.43-1.21,15.01-2.42,13.75-6.5.09.08.41-.08.5,0,.23.22-.6,1.39.75,1.5.41.03,6.51-2.6,7.75-3,.98,1.13,14.84,16.24,13.25,17-14.27-5.11-22.35-9.25-37.25-4Z"/>
        <path class="cls-39" d="m243.75,116.18c-.65,3.99,2.04,1.48,2,3.5-2.35-.94-5.1-.71-4,1.25.27.49,3.2-.67,4-.75,3.42-.32,7.81-.26,10.5-2.5,1.66.14,3.45-.43,5,.5-2.01,1.2-3.95,2.78-6,4-2.68-1.52-10.37,1.56-14.5,3-3.33,1.16-6.83,2.44-10,4,.11-.19-.6-1.93,1.75-4,.48-.42,3.36-1.5,4.75-2.5.21-.15,1.34,1.1,3.25-3.5-7.09-.83-14.19-1.44-21.25-2.5-2.64-.4-5.36-.55-8-1,2.96-2.48-2.23-.11-2.5-4,11.69,1.77,23.22,3.32,35,4.5Z"/>
        <path class="cls-40" d="m308.75,171.67c-3.16,4.53-8.05,7.85-6.5,8.5-6.09,3.84-16.35,8.31-22,2,6.42-.45,19.36-7.28,24-12l4.5,1.5Z"/>
        <path class="cls-12" d="m249.25,125.68c-8.11,4.85-24.16,12.02-3,7-.05.02.92.41-.25,1-7.08,3.54-18.32,2.89-16.5,5.5,1.46,1,11.09-3.83,1.75,2.5-1.09.74-1.64,1.4-3,2-.29-2.03,1.11-3.59,1-3.75-.26-.39-1.19.46-4-1.75-.28-.22-.28-.22-.5-.5-.79-2.21,6.12.55,3.75-2-.18-.19-1.36.31-1.75-.25-.21-.3,2.56-3.81,4-6.25,3.17-1.56,6.67-2.84,10-4,1.23,5.35,5.46-.98,8.5.5Z"/>
        <path class="cls-31" d="m204.75,109.18c10.16,0,37.05,5.5,53.5,6,2.83.09,5.67-.06,8.5,0-1.8.97-3.75,1.96-5.5,3-1.55-.93-3.34-.36-5-.5-4.14-.36-8.35-1.08-12.5-1.5-11.78-1.18-23.31-2.73-35-4.5-1.93-.29-4.06-1.19-6-1.5.32-1.14,1.09-1,2-1Z"/>
        <path class="cls-1" d="m284.25,138.68c-8.91,7.72-18.03,15.45-27.5,22.5-3.54-3.19,13.65-9.28,11.25-12-.19-.21-1.84-.65-2.75-.5,10.28-8.32,31.75-27.51,19-10Z"/>
        <path class="cls-27" d="m302.25,63.68c-1.38,2.2-2.98,2.58-3.5,3.25-.48.62-2.55,7.33-10.25,11.25-2.54,1.29-18.13,5.78-16.25,2,.15-.05,3.82-1.82,2.5-2,3.97-1.23,15.32-7.75,5,.75,7.22-1.01,8.16-7.3,8.75-7.75.12-.09,2.45-.92,2.75-1,.26-.07.85,1.2,2.75-.5-1.27,4.73-.26,1.04,2.25.25l1.5-6.25c.28-.33,1.91-2.37,2-2.5l2.5,2.5Z"/>
        <path class="cls-38" d="m263.75,109.68c.19.02,2.81,1.87,2.5-1,1.85,1.22,3.75,2.38,5.5,3.75.26,1.61-4.17,2.3-5,2.75-2.83-.06-5.67.09-8.5,0,.51-3.27-10.87-4.05-14.25-5l2.75-3c5.66.67,11.37,1.94,17,2.5Z"/>
        <path class="cls-12" d="m289.25,173.67c-4.59,4.24-9.39,5.43-15.5,6,.05-.48-.41-.33-1-1-2.73-3.09-5.6-2.79-.5-5,5.9-2.55,11.2-3.28,17,0Z"/>
        <path class="cls-27" d="m241.75,96.68c-.53,1.3-1.1,2.65-1.5,4-.13-.01-.07.66-2.5.5-3.62-.23-9.97-1.54-10.5-1.5l-.5-6.5,8.75,2.5.5-1c-1.41-.27-3.02-1.67-4.25-2v-.5c2.25.33,4.47.9,6.75,1-2.39,7.42,2.23-2.47,3.25,3.5Z"/>
        <path class="cls-38" d="m266.25,108.68c.31,2.86-2.31,1.02-2.5,1-5.77-4.51-20.19-4.11-26-8.5,2.43.16,2.37-.51,2.5-.5,9.33.92,18.09,2.8,26,8Z"/>
        <path class="cls-29" d="m246.75,160.17c.92,9.47-17.46-5.03-11-8,4.07,2.35,7.27,5.27,11,8Z"/>
        <path class="cls-38" d="m256.75,161.17v.5c-.68-.52-4.52-2.75-4.5-3.25,4.08-3.55,8.81-6.36,13-9.75.91-.15,2.56.29,2.75.5,2.41,2.72-14.79,8.81-11.25,12Z"/>
        <path class="cls-42" d="m272.75,178.67c.59.67,1.05.52,1,1-4.4.41-5.94-2.18-2.5,1.5,1.47,1.58,3.65,3.36,3,6-4.96-2.23-11.22-4.88-8.5-11.5,1.92,1.32,4.67,2.57,7,3Z"/>
        <path class="cls-35" d="m243.75,92.18c-.39.86-.67,1.63-1,2.5-.04.1-.67,1.18-1,2-1.02-5.97-5.64,3.92-3.25-3.5-2.28-.1-4.5-.67-6.75-1-1.05-.15-1.78-.39-3-.5,3.45-1.58,12.94-4.35,15,.5Z"/>
        <path class="cls-27" d="m255.25,122.18c-1.99,1.18-4.02,2.32-6,3.5-3.04-1.48-7.27,4.85-8.5-.5,4.13-1.44,11.82-4.52,14.5-3Z"/>
        <path class="cls-7" d="m306.25,55.18c-.6,3.31-1.48,3.98-3,6.5l-2-3c.71-1.38,1.7-3.99,2-5.5l2-2c.12,1.16.44,3.61,1,4Z"/>
        <path class="cls-36" d="m291.25,70.18c1.47-2.72,4.59-4.22,6.5-6.5l-1.5,6.25c-2.51.79-3.52,4.48-2.25-.25-1.9,1.7-2.49.43-2.75.5Z"/>
        <path class="cls-38" d="m233.75,144.18c-2.77,1.78-2.82,1.02-6.5,0,1.08-.43.95-.48,1-.5,1.36-.6,1.91-1.26,3-2,1.15,1.27,2.25-1.37,2.5,2.5Z"/>
        <path class="cls-31" d="m305.25,51.18l-2,2c.53-2.62.32-4.05.5-6.5,2.33.59,1.34,2.99,1.5,4.5Z"/>
        <path class="cls-21" d="m58.26,330.17l3-1.5.25,1c.26-3.93,13.01,3.27,11,4.5-.63.39-10.07-3.3-14.25-4Z"/>
        <path class="cls-43" d="m166.76,84.18c-.92.1-1.2.53-2,.5-2.34.65-4.67,1.33-7,2-19.69,5.69-11.34,3.74-7,11-.12-.07-1.04-.09-2.5-1-2.89-1.81-5.14-3.49-7.5-6,3.26-1.46-1.4-4.7-1.5-10,.65.1,1.04.98,1.25,1,12.34.95,21.49-2.8,26.75-3.5,3.16,3.46.09,2.75-.5,6Z"/>
        <path class="cls-5" d="m139.26,80.68c.1,5.3,4.76,8.54,1.5,10-2.08-2.21-3.33-3.57-4.5-6.5,1.23-2.32-3.08-4.38,3-3.5Z"/>
        <path class="cls-46" d="m134.76,74.18c-8.28,3.28.64-8.05,2-13.5,4.66-1.18,1.05,4.1,1.5,11.25.22,3.48,3.68,9.29-3.25-1.75-.48.15-.17,2.79-.25,4Z"/>
        <path class="cls-12" d="m260.25,303.67c-12.61,6.08-26.71,8.63-39.25,15-5.13,1.74-10.54,2.27-15.75,3.5.09-.65-1.02-.59-2-.5-1.08-3.34-7.03-.55-4.5-4.5.43-.03,3.93,1.04,6.75.5,1.21-.23,9.72-5.06,22.75-9-1.46,7.15,24-4.31,30.25-5.5.84-.16,1.11.21,1.75.5Z"/>
        <path class="cls-7" d="m260.25,303.67c-.64-.29-.91-.66-1.75-.5-6.25,1.19-31.71,12.65-30.25,5.5,4.49-1.36,31.66-8.3,33.75-8.5,8.6-.82,1.33,2.01-1.75,3.5Z"/>
        <path class="cls-42" d="m247.75,313.17c3.55.54-5.05,4.22-9.75,6-9.14,3.47-18.76,5.32-28.25,7.5l-1-1c13.27-3.18,26.24-7.72,39-12.5Z"/>
        <path class="cls-12" d="m198.76,317.17c-2.53,3.94,3.42,1.16,4.5,4.5-2.72.26-5.33,1.45-8,2,1.22-2.86-2.51-2.31-.5-6.5,1.1.01,3.09.06,4,0Z"/>
        <g>
          <path class="cls-43" d="m301.25,281.17c.09-2.31-1.25.57-4,2.5-.77-2.05-2.01-.02-3.5,0,3.7-5.92,9.22-12.33,6.5-19.5,1.72-1.96,1.61-7.64,1-8.5,3.7-4.29,4.93-6.3,5,6.25.04,6.19.1,14.99-5,19.25Z"/>
          <path class="cls-1" d="m299.25,263.67c-5.82,5.18-10.92,12.89-18.5,15.5,1.36-.99,2.53-2.39,4-3.25l-.75-.75c-1.35,1.74-4.05,2.84-4.25,3-7.24.33,6.13-4.64,17.5-17.5,1.3.51,1.81,2.7,2,3Z"/>
          <path class="cls-7" d="m274.75,278.67l2,2.5c-2.85,1.53-20.02,8.69-11.5,3,1.1-.73,2.87-1.85,4-2.5,1.32-.76,4.37-2.75,5.5-3Z"/>
          <path class="cls-8" d="m280.75,279.17c-1.91,1.39-2.38.93-2.5,1v-.5c.84-.14,1.42-1.43,1.5-1.5.2-.16,2.9-1.26,4.25-3l.75.75c-1.47.86-2.64,2.26-4,3.25Z"/>
          <path class="cls-29" d="m278.25,279.67v.5c-.08.05.4-.02-1.5,1l-2-2.5c.71-.15.77-1.18,3.5,1Z"/>
          <path class="cls-27" d="m255.25,287.17c-3.82,1.43-7.62,2.75-11.5,4-.14-.53-1.07-.46-1.5-2,2.29-.46,7.2-2.02,9.5-3,1.86.31,3.82-.73,3.5,1Z"/>
        </g>
        <g>
          <path class="cls-46" d="m300.25,264.17c2.72,7.17-2.8,13.58-6.5,19.5-10.95,9.77-4.02,6.73,3.5.5,1.2.94.74,12.78.5,14.25-1.15,7.13-8.08,11.06-2,13.25-21.76,23.09-51.84,24.19-81.75,23.5-3.05-.07-22.35-.53-23.25-1.75.14-1.75,1.81-1.13,3-1.25,27.08-2.79,51.49-12.91,75.5-25.5,5.01-2.63,8.08-2.69,10.25-8-6.03,2.43-17.72,5.59-14.25,7.5-6.04,1.76-11.66,4.82-17.5,7-12.76,4.78-25.73,9.32-39,12.5-9.21,2.21-19.62,6.48-28.5,1,.33,0,.67.01,1,0,3.83-.13,7.83-1.01,8.25-1,2.53.05,10.52,3.71,2.5-.5,4.54-.44,8.84-1.96,13.25-3,5.2-1.23,10.62-1.76,15.75-3.5,12.53-6.36,26.64-8.92,39.25-15,3.08-1.48,10.35-4.32,1.75-3.5-2.09.2-29.26,7.14-33.75,8.5-13.02,3.94-21.54,8.77-22.75,9-2.82.54-6.32-.53-6.75-.5-.91.06-2.9.01-4,0-.55,0-6.7,2.13-10-1,3.21-.27,6.54-.64,9.75,0q3.25-.75,6.5-1.5c7.41-1.66,14.27-5.42,21.5-7.5,6.28-1.8,30.3-8.67,33.5-9,6.7-.7,12.3,1.82,20.5-1,5.71-1.96-5.61.57-9.5.5-5.08-.09-12.57-2.45-20.75-1.5-5.19-5.45-2.41-4.67-2.5-5,3.88-1.25,7.68-2.57,11.5-4,2.05-.77,3.95-1.72,6-2.5,1.4-.53,3.56-1.72,4-.5-8.52,5.69,8.65-1.47,11.5-3,1.9-1.02,1.42-.95,1.5-1,.12-.07.59.39,2.5-1,7.58-2.61,12.68-10.32,18.5-15.5.03.05.98.45,1,.5Z"/>
          <g>
            <path class="cls-7" d="m297.25,283.67v.5c-7.52,6.23-14.45,9.27-3.5-.5,1.49-.02,2.73-2.05,3.5,0Z"/>
            <path class="cls-31" d="m273.5,307.17c-8.93,19.64-49.29,24.42-68.75,24.75,21.22-3.11,54.3-8.25,68.75-24.75Z"/>
            <path class="cls-38" d="m290.25,297.67c-4.34,4.21-9.32,7.7-14,11.5,4.9-9.07,13.57-15.18,21-21.25,1.49,2.65-5.35,8.15-7,9.75Z"/>
            <path class="cls-2" d="m268.25,326.67c-6.92.97-13.4,2.29-20.5,3,12.84-3.91,26.24-6.03,37.75-13.5l-4,4.5c-4.41,2.09-8.62,4.38-13.25,6Z"/>
            <path class="cls-7" d="m269.25,306.67c-.24-2.6-2-1.08-4-.5-3.47-1.91,8.21-5.07,14.25-7.5-2.17,5.31-5.24,5.37-10.25,8Z"/>
            <path class="cls-29" d="m268.25,326.67c-13.4,4.7-22.71,4.23-36.75,4.5,5.33-1.32,10.83-.96,16.25-1.5,7.1-.71,13.58-2.03,20.5-3Z"/>
            <path class="cls-29" d="m203.25,321.67c.98-.09,2.09-.15,2,.5-4.41,1.04-8.71,2.56-13.25,3,8.02,4.21.03.55-2.5.5-.42,0-4.42.87-8.25,1,4.46-1.84,9.34-2.04,14-3,2.67-.55,5.28-1.74,8-2Z"/>
            <path class="cls-32" d="m276.25,309.17c4.68-3.8,9.66-7.29,14-11.5-1.57,2.94-6.06,6.82-8.75,9-3.96,3.21-15.36,10.71-5.25,2.5Z"/>
            <path class="cls-21" d="m288.5,291.67c4.51-.25-6.36,4.44-6.75,3.25.93-.88,6.38-3.23,6.75-3.25Z"/>
          </g>
        </g>
        <g>
          <path class="cls-46" d="m301.75,244.17c.32,1.67.61,3.35,1,5-1.85-.63-.79-5.18-2.5.75-7.28,9.76-29.81,26.7-31.25,28.25-2.93,3.16,1.32,1.38.25,3.5-1.13.65-2.9,1.77-4,2.5-.44-1.22-2.6-.03-4,.5-1.21-2.42-4,.09-5.75,0-3.22-.17-6.67-2.4-10-2.5,0-1.49.78-2.04,1.75-3,29.27-2.93,50.32-33.53,53.25-35,.21-.11.79.06,1.25,0Z"/>
          <path class="cls-39" d="m300.25,236.67c-.06.93.36,1.71.5,3-8.4,12.19-50.92,36.95-53.5,39.5-.97.96-1.74,1.51-1.75,3,3.33.1,6.78,2.33,10,2.5,1.75.09,4.54-2.42,5.75,0-2.05.78-3.95,1.73-6,2.5.32-1.73-1.64-.69-3.5-1-4.97-.82-11.75-1.85-11.25-3.5-3.77,1.89-6.62,4.55-7.25,1.5,2.87-1.85,3.55-1.71,3.5-5.5.08-.03,1.41-.96,1.5-1,13.32-5.52,29.44-14.59,40.75-23.5,7.65-6.02,18.67-18.2,20-18.5.21-.05.17,1.48,1.25,1Z"/>
          <path class="cls-46" d="m301.75,244.17c-.46.06-1.04-.11-1.25,0-2.93,1.47-23.98,32.07-53.25,35,2.58-2.54,45.1-27.31,53.5-39.5.07.62.7,2.96,1,4.5Z"/>
          <path class="cls-39" d="m276.75,247.17c-7.41.05-17.33,8.17-24.75,12-4.1,2.11-8.67,3.36-12.75,5.5-17.06.67-8.01,2.74-13.5,14.5-.13-4.41.1-8.84,0-13.25-2.05.38-2.93,4.22-5,2.75-.07-3.83-.61-10.44-.5-13.5,0-.13.83-2.06,1-2.5.9,1.57,1.12,4.12,2,5.5.92,1.44,3.27,2.97,3.5,3-2.5,5.11,13.75-.35,16.25-1.5,1.89-.87,8.8-6.39,11-7.5,4.06-2.04,10.66-4.27,14-6,5.86-3.02,12.94-8.47,18.5-11,11.96-5.45,18.59-5.14,5,4.5-4.54,3.22-10.21,4.6-14.75,7.5Z"/>
          <path class="cls-38" d="m256.75,263.67c-8.84,6.69-20.62,12.13-18.5,14-.09.04-1.42.97-1.5,1-3.41,1.35-7.47,1.94-11,3-.04-.83.02-1.67,0-2.5,5.49-11.76-3.56-13.83,13.5-14.5-2.97,1.56-6.88,3.1-.75,2.5.63-.06,11.3-2.16,12.5-2.5,3.11-.87,5.96-4.96,5.75-1Z"/>
          <path class="cls-46" d="m276.75,247.17c-7.11,4.55-13.38,11.49-20,16.5.21-3.96-2.64.13-5.75,1-1.2.34-11.87,2.44-12.5,2.5-6.13.6-2.22-.94.75-2.5,4.08-2.14,8.65-3.39,12.75-5.5,7.42-3.83,17.34-11.95,24.75-12Z"/>
          <path class="cls-38" d="m251.75,286.17c-2.3.98-7.21,2.54-9.5,3-4.34.87-8.94.87-13.25,2-.98.22-1.27-.3-1.75-1-.07-.11.16-.81-.5-2.5,1.64-1.96,5.48-2.84,6.5-3.5.63,3.05,3.48.39,7.25-1.5-.5,1.65,6.27,2.68,11.25,3.5Z"/>
          <path class="cls-7" d="m236.75,278.67c.05,3.79-.63,3.65-3.5,5.5-1.02.66-4.86,1.54-6.5,3.5-.04-.09-1.38.22-1.5-.25.83-1.68.58-3.96.5-5.75,3.53-1.06,7.58-1.65,11-3Z"/>
        </g>
        <path class="cls-31" d="m166.26,105.18c1.93.36,8.84,2.99,13.25,4,8.91,2.04,22.91,5,31.75,6.5,2.64.45,5.36.6,8,1-.98,3.87,3.58,1.77,2,4,.03-.8-.96-.42-2-.5-4.43-.34-8.61,1.19-13,1-9.26-.41-32.22-10.62-41-16,.33.02.69-.06,1,0Z"/>
        <g>
          <path class="cls-46" d="m194.76,152.67c13.68.62,19.85,3.16,32,9,3.63,1.74,11.02,5.83,14.5,8,2.95,1.84,6.17,3.98,9,6,.17.12,1.33,1.88,1.5,2-7.05.98-9.61-1.15-13-3-8.23-4.48-13.48-10.47-29-16-7.36-2.62-15.15-4.25-22.75-6,.74-1.18,4.48-.15,7.75,0Z"/>
          <path class="cls-29" d="m250.25,175.67c-2.83-2.02-6.05-4.16-9-6,5.11-.57,7.13.66,9,6Z"/>
          <path class="cls-23" d="m230.5,165.67c.12-.02,1.3,1.65,1.25,1.75-.56,1.21-2.01-1.62-1.25-1.75Z"/>
        </g>
        <path class="cls-35" d="m190.76,88.68l-2,4c-.53-.13-.66-.65-1.25-.5-.5.33,3.66,2.7,4.25,3,2.09,1.06,3.12,1.57,5.5,2l-4,1c-15.06-2.89-15.6-5.02.5,4,1.69.94,3.21,2.09,5,3,1.69.86,3.17,1.91,5,2.5l1,1.5c-.91,0-1.68-.14-2,1-12.66-2.04-21.64-2.31-35.5-6-8.15-2.17-8.98-2.35-16.5-6.5-4.34-7.26-12.69-5.31,7-11l23.25,2.5c-.52-2.41-8.64-3.75-11-4-3.78-.4-5.83,1.03-5.25-.5.8.03,1.08-.4,2-.5,7.63-.79,16.69,2.08,24,4.5Z"/>
        <path class="cls-27" d="m202.75,110.18c1.93.31,4.07,1.21,6,1.5.27,3.89,5.46,1.52,2.5,4-8.84-1.5-22.84-4.46-31.75-6.5-4.41-1.01-11.32-3.64-13.25-4l1-1c13.86,3.69,22.84,3.95,35.5,6Z"/>
        <g>
          <path class="cls-29" d="m251.25,186.17c-.41.36-.87.96-1.5,1.5-2.72,2.36-25.45,20.15-25,21.75.29,1.01,2.62-1.61,3-.25-2.46,1.45-4.9,2.87-7.25,4.5-1.87,1.67-2.11,2.87-2.25,3-.7.66-.75,1.33-2,2.5-3.51,3.26-6.83,7.28-11.5,8.75.07.38,6.61.31,7.5.25,3.72-.23,10.75-2.03,2.5.5-8.14,2.5-10.72,3.58,0,3.5-1,.47-1.98.66-3,1-4.91,1.63-9.84,1.82-14.75,3-.37.09-.25.66-.25,1-1.51-.45-6.25-2.12-4.5-3,7.81-6.24,16.11-12.09,23.75-18.5,9.91-8.31,22.29-22.82,33.75-29.5.85-.5.62-.5,1.5,0Z"/>
          <path class="cls-46" d="m277.25,189.17c.3.1,5.14.31,6.25.5.48.08.02,1.41.5,1.5,3.09.58,10.47-1.24,11-1,.67.3-2.03,2.75,2.25,0,2.15,1.83-1.21,2.94-3,5,.02-.37.09-.98-.25-1-2.36-.12-14.57,13.13-41.25,22.5-2.39.84-16.82,5.42-17.75,5.5-12.05,1.02,12.38-6.57,16.5-8.5,3.84-1.8,7.57-4.36,11.25-6.5,6.44-3.74,12.88-7.83,18.5-12.75-5.15-3.08-14.11,7.15-20.5,10.25-4.94,2.39-2.14.32-3.25,0-.55-.16-.46,1.8-2,3-4.19,3.27-18.22,9.78-24,9.5,3.89-3.99,13.8-7.89,17-10.5,2.98-2.44-1.23-.39-1.25-3,.52-.33.98-.67,1.5-1,.79,6.11,11.55-5.02,18.75-8.5.29-.75-3.2-2.57-6.25-1l-3.5-2c.67-.61,2.7-2.56,3-3,.47-.67.97-2.09.5-3,3.39,2.39,15.56,10.63,16,4Z"/>
          <path class="cls-7" d="m260.75,204.67c.49.89,2.34.08,2,2.5-3.68,2.13-7.41,4.7-11.25,6.5-4.12,1.93-28.55,9.52-16.5,8.5.93-.08,15.36-4.66,17.75-5.5l.5,2c-5.81,1.06-11.03,3.7-16.75,5l5.25,3.5c-5.29,1.55-10.68,3.85-16,5.5-.9.28-2.09.85-3,1,.21-3.91,6.58-8.88,4-11,2.14-3.3.8-5.03-.5-8,4.13-1.56,6.31-3.17,7-3.5,5.16-2.44,9.14-4.45,14-7.5.02,2.61,4.23.56,1.25,3-3.2,2.61-13.11,6.51-17,10.5,5.78.28,19.81-6.23,24-9.5,1.54-1.2,1.45-3.16,2-3,1.11.32-1.69,2.39,3.25,0Z"/>
          <path class="cls-39" d="m294.25,195.17c-12.38,14.23-18.62,16.1-35.75,24-3.31-2.51-2.73-.96-5.25-.5l-.5-2c26.68-9.37,38.89-22.62,41.25-22.5.34.02.27.63.25,1Z"/>
          <path class="cls-27" d="m222.75,233.67c-.95.16-2.01-.37-2,.5-13.83-.26,21.65,6.55,23.25,7,1.43.4,2.11,1.95,2.25,2,.52,2.01-12.26-.43-16.25-1.5-3.9-1.05-15.92-5.89-18.25-8.5,1.02-.34,2-.53,3-1,.07-.03.47.09,1.5-.5.6-.35,10.12-8.42,10.5-9,2.58,2.12-3.79,7.09-4,11Z"/>
          <path class="cls-20" d="m260.75,188.17c-.3.44-2.33,2.39-3,3-5.07,4.65-17.59,11.71-24,15.5-1.37.81-4.54,1.64-6,2.5-.38-1.36-2.71,1.26-3,.25-.45-1.59,22.28-19.39,25-21.75l11,.5Z"/>
          <path class="cls-37" d="m226.25,214.67c1.3,2.97,2.64,4.7.5,8-.38.58-9.9,8.65-10.5,9-1.5-2.28-3.24.48-1.5-3,8.25-2.53,1.22-.73-2.5-.5,1.9-2.94,4.88-4.8,4-9,1.25-1.17,1.3-1.84,2-2.5,2.31.04,5.8-1.17,8-2Z"/>
          <path class="cls-27" d="m233.75,206.67l-.5,4.5c-.69.33-2.87,1.94-7,3.5-2.2.83-5.69,2.04-8,2,.14-.13.38-1.33,2.25-3,2.35-1.63,4.79-3.05,7.25-4.5,1.46-.86,4.63-1.69,6-2.5Z"/>
          <path class="cls-42" d="m212.25,228.17c-.89.06-7.43.13-7.5-.25,4.67-1.47,7.99-5.48,11.5-8.75.88,4.2-2.1,6.06-4,9Z"/>
          <path class="cls-24" d="m214.75,228.67c-1.74,3.48,0,.72,1.5,3-1.03.59-1.43.47-1.5.5-10.72.08-8.14-1,0-3.5Z"/>
          <path class="cls-38" d="m261.25,193.17c-.7.36-6.36,5.58-12.5,9.5-.52.33-.98.67-1.5,1-4.86,3.05-8.84,5.06-14,7.5l.5-4.5c6.4-3.79,18.93-10.85,24-15.5l3.5,2Z"/>
          <path class="cls-39" d="m262.75,207.17c.34-2.42-1.51-1.61-2-2.5,6.39-3.1,15.35-13.33,20.5-10.25-5.62,4.92-12.06,9.01-18.5,12.75Z"/>
          <path class="cls-38" d="m248.75,202.67c6.14-3.92,11.8-9.14,12.5-9.5,3.05-1.57,6.54.25,6.25,1-7.2,3.48-17.96,14.61-18.75,8.5Z"/>
        </g>
        <g>
          <path class="cls-34" d="m303.75,179.67c1.16,4.36-4.96,3.46-3.5,8.5-1.14.67-1.95,1.32-3,2-4.28,2.75-1.58.3-2.25,0-.53-.24-7.91,1.58-11,1-.48-.09-.02-1.42-.5-1.5-1.11-.19-5.95-.4-6.25-.5-2.38-.83-2.84-1.93-3-2,.66-2.63-1.53-4.42-3-6,2.5.13,8.55,1.03,9,1,5.65,6.31,15.91,1.84,22-2,.93-.59,1.44-.45,1.5-.5Z"/>
          <path class="cls-35" d="m296,186.17c1.25.04.47.7,0,1-1.19.76-9.41,3.4-10.25,2.25,2.57-2.47,3.54-.7,3.75-.75,1.18-.31,6.15-2.51,6.5-2.5Z"/>
          <path class="cls-7" d="m277.5,182.67c3.55,2.31,7.49,3.95,11.75,4.25-1.69,2.06-14.05-3.37-11.75-4.25Z"/>
        </g>
        <g>
          <path class="cls-31" d="m309.25,132.18c.22,3.13,4.5,9.54,5,11.75.97,4.29.49,11.5,0,15.75-.25,4.63-2.94,8.34-5.5,12l-4.5-1.5c5.15-5.25,1.91-2.52,1-6.5-.41-1.81-.16-1.79,0-3.5.78.41,2.84,4.51,3.25,4.5,2.11-.07,3.1-27.51-2.25-9v-23c.21-.74.94-1.01,1.5-1.5,1.22-.21,1.43.94,1.5,1Z"/>
          <path class="cls-46" d="m305.25,160.17c.14-1.47.59-3.07,1-4.5,5.35-18.51,4.36,8.92,2.25,9-.41.01-2.47-4.09-3.25-4.5Z"/>
          <path class="cls-46" d="m308,142.18c.39,0,.39,2.5,0,2.5s-.39-2.5,0-2.5Z"/>
        </g>
        <path class="cls-39" d="m221.75,287.67c.05-.45-.49-6.96-.5-9-.02-2.5.03-5,0-7.5,4.27,1.79,5.09,18.4.5,16.5Z"/>
        <path class="cls-5" d="m221.75,287.67c-.05.5-.48.81-.25,1.5-2.68.25-6.28-.35-8.75,0,2.81-6.1,8.54-.74,8.5-10.5.01,2.04.55,8.55.5,9Z"/>
        <path class="cls-39" d="m210.75,290.17l1.5,3c-2.33.49-2.85.47-3,.5-.01-.54-1.59-2.62-1.5-2.75.22-.31,1.81-.29,3-.75Z"/>
        <path class="cls-27" d="m61.76,279.17s-.07.16-.5.5c-2.21-4.79,3.11-10.17.5-.5Z"/>
        <g>
          <path class="cls-43" d="m151.76,71.18c4-3.26-4.16-2.94-8.25-6-1.18-.88-.63-1.85-.75-2,3.26-.22-.04-.63-.5-1-2.71-2.18-4.95-5.85-8-6.5.48-3.81-.66-8,1.75-11.5,6.76,5.38,14.83,8.57,20.5,15,6.43,4.41,33.59,10.14,42,11,5.2.53,32.05.4,34,1.5.83.46.86,1.08,0,1.5-6.2,3.05-68.98,1.01-80.75-2Z"/>
          <path class="cls-28" d="m137.51,54.68c7.03,4.71,15.42,8.01,23.5,10.5,1.76.54,3.83-.44,5.25,1.25-.83,1.36-25.87-5.48-28.75-11.75Z"/>
          <path class="cls-17" d="m142.26,62.18c.46.37,3.76.78.5,1-.05-.07-.81.27-1.5-.75l1-.25Z"/>
        </g>
        <path class="cls-20" d="m228.75,91.68c1.22.11,1.95.35,3,.5v.5c-3.44-.93-7.57-.79-5,.5l.5,6.5c-.17.01-.34.67-3,1.5,0-.9-1.69-.35-3.5-.5-5.22-.44-13.27-2.23-13.5,0-4.63-.74-9.39-1.61-14-2.5l4-1c4.58.83,6.74.85,11-.5,3.42-1.09,5.2-2.87,7.75-5.5,4.16,1.17,8.56.11,12.75.5Z"/>
        <path class="cls-42" d="m208.25,96.68c-4.25,1.35-6.42,1.33-11,.5-2.38-.43-3.41-.94-5.5-2,.44-1.64-1.6-2.17-3-2.5l2-4c6.14,2.03,12.11,4.35,17.5,8Z"/>
        <g>
          <path class="cls-31" d="m257.75,83.18c1.26,4.08-9.32,5.29-13.75,6.5-1.53,1.19.54.76-.25,2.5-2.06-4.85-11.55-2.08-15-.5-4.19-.39-8.59.67-12.75-.5-2.55,2.63-4.33,4.41-7.75,5.5-5.39-3.65-11.36-5.97-17.5-8-7.31-2.42-16.37-5.29-24-4.5.59-3.25,3.66-2.54.5-6,8.81-1.18,17,.71,16-2,9.39.96,18.85,1.15,28.25,2,7.65.69,15.33,2.34,23,3,7.2.62,21.92.1,23,.5.51.19.12,1.38.25,1.5Z"/>
          <path class="cls-29" d="m187.51,80.68c13.8-.32,27.71,3.15,41.5,3.5,2.44,2.23,9.11,3.21,3.5,4.5-6.94,1.6-31.18-2.25-40.5-2-8.75-2.99-24.2-5.54-4.5-6Z"/>
          <path class="cls-46" d="m233,84.68l11.75.75c-3.78.52-8.41,1.75-11.75-.75Z"/>
        </g>
        <g>
          <path class="cls-39" d="m303.25,90.18c-2.77-1.22.15,6.51.5,10-1.78.38-.35-5.75-3-3.25-.5.47-4.71,10.03-6.5,12-17.39,20.92-19.63,31.16-46.75,44.75-1.64-1.77-14.06-6.81-14.5-7.5-.35-.56.78-1.54.75-2-.25-3.87-1.35-1.23-2.5-2.5,9.34-6.33-.29-1.5-1.75-2.5-1.82-2.61,9.42-1.96,16.5-5.5,1.17-.59.2-.98.25-1,2.97-1.51,17.71-10.68,18.75-11,5.85-1.8-3.32,4.29-9,8-4.24,2.77-9.1,6.09-13.5,8.5-2.49,1.36-16.22,5.76-3,4,15.62-2.08,35.29-16.23,45.25-28.25,8.67-10.47,12.01-21.43,13.25-21.75.82-.21,2.4.98,3,.5.48-.39.56-6.99,2.25-2.5Z"/>
          <path class="cls-46" d="m273.5,129.18c4.47-.02-10.72,11.49-12.5,12.5-4.31,2.44-23.25,9.06-23.25,5.75,17.73-4,33.73-18.24,35.75-18.25Z"/>
        </g>
        <g>
          <path class="cls-40" d="m219.25,120.18c.09,4.79.06,9.74.5,14.5-.34,4.15-5.33,2.62-8.5,3-5.34.65-10.64,1.13-16,1.5-3.17.22-6.31.66-9.5.5-.11-.54-.86-2.31-1-3-.63-3.15-.57-6.51-2-9.5,3.88-.37,10.94-1.98,15-3,2.47-.62,6.96-1.55,8.5-3,4.39.19,8.57-1.34,13-1Z"/>
          <path class="cls-40" d="m220.25,137.18s-.3.29-.5.5c-.07.08-1.91.34-2,.75-.04.17,2.07,2.77,2.25,2.75.47-.07-.15-.9.75-1.5,2.97-1.98,1.83,2.49,4.5-1.5,2.81,2.21,3.74,1.36,4,1.75.11.16-1.29,1.72-1,3.75-.05.02.08.07-1,.5-5.62,2.23-11.81,2.13-17.5,4l-4.75-.5c-.95.59-2.64.96-3.75,1-4.53.18-8.99.61-13.5,1-.67-.83-.37-1.39-.5-2-.57-2.66-.97-5.34-1.5-8,3.19.16,6.33-.28,9.5-.5,3.92.68,14.37.11,16-1.5,3.17-.38,8.15,1.15,8.5-3,.09.97.69,1.48.5,2.5Z"/>
          <path class="cls-42" d="m182.76,127.18c1.43,2.99,1.37,6.35,2,9.5-.51,2.63.6,12.08,2.5,11,.13.61-.17,1.17.5,2-6.24.54-7.63,5.24-11-11.75-.81-4.07-1.39-8.33-1.5-12.5,5.61,3.45,3.64,2.12,7.5,1.75Z"/>
          <path class="cls-38" d="m221.25,120.68c-.56,4.21,1.18,13.87-1,16.5.19-1.02-.41-1.53-.5-2.5-.44-4.76-.41-9.71-.5-14.5,1.04.08,2.03-.3,2,.5Z"/>
          <path class="cls-29" d="m185.76,139.68c.53,2.65.93,5.33,1.5,8-1.9,1.08-3.01-8.37-2.5-11,.14.69.89,2.46,1,3Z"/>
          <path class="cls-42" d="m211.25,137.68c-1.63,1.61-12.08,2.18-16,1.5,5.36-.37,10.66-.85,16-1.5Z"/>
          <path class="cls-29" d="m237.25,122.68c-2.23-.36-14.27-2.81-15-1.25q.5,7.5,1,15c.36.61,1.44,1.17,1.5,1.25.22.28.22.28.5.5-2.67,3.99-1.53-.48-4.5,1.5,0-1.27.35-2.23-1-2,.2-.21.48-.47.5-.5,2.18-2.63.44-12.29,1-16.5,1.58-2.23-2.98-.13-2-4,7.06,1.06,14.16,1.67,21.25,2.5-1.91,4.6-3.04,3.35-3.25,3.5Z"/>
          <path class="cls-25" d="m219.75,137.68c1.35-.23,1,.73,1,2-.9.6-.28,1.43-.75,1.5-.18.02-2.29-2.58-2.25-2.75.09-.41,1.93-.67,2-.75Z"/>
          <path class="cls-40" d="m237.25,122.68c-1.39,1-4.27,2.08-4.75,2.5-2.35,2.06-1.64,3.81-1.75,4-1.44,2.44-4.21,5.95-4,6.25.39.56,1.57.06,1.75.25,2.37,2.55-4.54-.21-3.75,2-.06-.08-1.14-.64-1.5-1.25q-.5-7.5-1-15c.73-1.56,12.77.89,15,1.25Z"/>
        </g>
        <path class="cls-46" d="m256.25,117.68c-2.69,2.24-7.08,2.18-10.5,2.5v-.5c.04-2.02-2.65.49-2-3.5,4.15.41,8.36,1.14,12.5,1.5Z"/>
        <path class="cls-43" d="m245.75,119.68v.5c-.8.08-3.72,1.24-4,.75-1.1-1.96,1.65-2.19,4-1.25Z"/>
        <path class="cls-39" d="m246.75,107.18l-2.75,3c3.38.95,14.76,1.73,14.25,5-16.45-.5-43.33-6-53.5-6l-1-1.5c3.17,1.02,9.42,2.84,11.5,0,3.4.35,6.57.65,10,.5,1.67-.07,3.81-.31,5.5-.5.57,1.48,10.7,2.72,11.25,2.5.28-.12.92-2.88.75-3.5,1.34.16,2.66.34,4,.5Z"/>
        <path class="cls-39" d="m237.75,101.18c5.8,4.39,20.23,3.99,26,8.5-5.63-.56-11.34-1.83-17-2.5-1.34-.16-2.66-.34-4-.5-6.1-.74-9.98-.44-10.5-.5-.49-.06-1.01.06-1.5,0-4.05-.51-8.12-2.24-12.25-2.5,1.77-1.01,3.8-1.89,5.75-2.5,2.66-.83,2.83-1.49,3-1.5.53-.04,6.88,1.27,10.5,1.5Z"/>
        <g>
          <path class="cls-46" d="m207.25,11.68c-5.49.54-22.42,2.73-23.25,8,7.09-3.19,15.76-5.68,23.5-6.5,8.82-.93,33.99.88,25-1.5-1.98-.52-7.22-.43-9.75-.5-.93-1.35.82-2.2,2.75-3,6.16-2.56,16.09-1.19,14,0-3.79-.4-7.89-.73-11.5,1,5.77.77,22.23,1.08,24,1.5.37.09.25.66.25,1-5.53-.44-15.28-2.14-14.75,1.5,10.52.24,20.99,1.22,31,4.5,5.07,1.66,21.56,10.86,19.25,7,1.16.74,1.1-.44,2.5.5,2.11,1.4,10.9,13.65,11.75,14,3.03,1.25,2-1.65.25-4,1.76-2.05,4.88,4.25,5.5,6,3.48,9.84-.01,19.24-1.75,29l-.75-1c-1.87-11.55-.75-.75-1.5,3.75-.53,3.22-1.72,6.26-3,9.25-1.89,4.43-7.31,9.2,1.75,2.5,7.13,9.84,10.84,18.26,7.25,30.5-8.63,7.74-16.68,15.86-25.5,23.5,12.75-17.51-8.72,1.68-19,10-4.19,3.39-8.92,6.19-13,9.75-.02.5,3.82,2.73,4.5,3.25,2.7,2.06,5.53,3.96,8.25,6,10.09-12.27,21.34-23.69,34.25-33-11.58,12.61-6.26,8.66,3,1-.51,2.51-.45,4.97-.5,7.5-.16,8.25.45,17.07-2.5,25-1.17,3.14-2.46,5.05-5,7.25,3.91-1.04,6.41-4.16,8.5-7.75.77-1.33,1.4-2.9,2.5-4,.91,3.98,4.15,1.25-1,6.5-4.63,4.72-17.57,11.55-24,12-.45.03-6.5-.87-9-1-3.44-3.68-1.9-1.09,2.5-1.5,6.11-.57,10.91-1.76,15.5-6,.99-.91,6.24-6.63,4.5-7.75-3.72-2.39-4.41,4.02-8.5,0,2.35.71,7.47-3.69,8.25-6.25-2.73,1.08-5.17,3.47-8,3.5,1.3,2.26-4.55.52-3,4-2.86-.14-7.44,4.31-10.25,6.5-5.1,2.21-2.23,1.91.5,5-2.33-.43-5.08-1.68-7-3-1.67-1.15-11.07-9.7-19-15.5-3.73-2.73-6.93-5.65-11-8-10.53-6.08-10.81-6.02-6.5,1.5-1.69.15-3.03-1.03-4.5-1.5-1.77-5.1-4.22-8.4-2-1-.06-.02.04.87-1.25.5-3.91-1.13-7.76-2.62-11.75-3.5,5.69-1.86,11.88-1.77,17.5-4,3.68,1.02,3.73,1.78,6.5,0,.03.46-1.1,1.44-.75,2,.44.69,12.86,5.73,14.5,7.5,27.12-13.59,29.36-23.83,46.75-44.75,1.79-1.97,6-11.53,6.5-12,2.65-2.5,1.22,3.63,3,3.25.83,8.25-1.33,16.01,4-.25-4.33,6.91-.67.42-4.5-9.75-1.69-4.49-1.77,2.11-2.25,2.5-.6.48-2.18-.71-3-.5-1.24.32-4.58,11.28-13.25,21.75-9.96,12.02-29.63,26.17-45.25,28.25-13.22,1.76.51-2.64,3-4,4.4-2.41,9.26-5.73,13.5-8.5,5.68-3.71,14.85-9.8,9-8-1.04.32-15.78,9.49-18.75,11-21.16,5.02-5.11-2.15,3-7,1.98-1.18,4.01-2.32,6-3.5,2.05-1.22,3.99-2.8,6-4,1.75-1.04,3.7-2.03,5.5-3,.83-.45,5.26-1.14,5-2.75-1.75-1.37-3.65-2.53-5.5-3.75-7.9-5.2-16.67-7.07-26-8,.4-1.35.97-2.7,1.5-4,.33-.82.96-1.9,1-2,14.9-5.26,22.98-1.11,37.25,4,1.59-.76-12.27-15.87-13.25-17,1.79-.58,3.76-.9,5.5-1.5-1.88,3.78,13.71-.71,16.25-2,7.7-3.92,9.77-10.63,10.25-11.25.52-.67,2.12-1.05,3.5-3.25.98-1.56.94-1.9,1-2,1.52-2.52,2.4-3.19,3-6.5,1.38-7.61-.64-9.21-.5-9.75.1-.41.66.07,1-.75.08-.19,2.6-1.29-1.25-2-2.94-.54-1.72,1.35-1.75,1.5-.13.69.06,1.69,0,2.5-.18,2.45.03,3.88-.5,6.5-.3,1.51-1.29,4.12-2,5.5-.54,1.05-.84,1.54-1.5,2.5-.09.13-1.72,2.17-2,2.5-1.91,2.28-5.03,3.78-6.5,6.5-.3.08-2.63.91-2.75,1-.59.45-1.53,6.74-8.75,7.75,10.32-8.5-1.03-1.98-5-.75-8.59,2.67-16.06,2.48-16.5,5-.09-.08-.41.08-.5,0-.13-.12.26-1.31-.25-1.5-1.08-.4-15.8.12-23-.5-7.67-.66-15.35-2.31-23-3-9.39-.85-18.85-1.04-28.25-2-11.06-1.13-22.26-1.98-33-4.75,0-.48,1.34-.12,1.5-.25,11.77,3.01,74.55,5.05,80.75,2,.86-.42.83-1.04,0-1.5-1.95-1.1-28.8-.97-34-1.5-8.41-.86-35.57-6.59-42-11-5.67-6.43-13.74-9.62-20.5-15-2.41,3.49-1.27,7.69-1.75,11.5-.04.32.02.67,0,1,1.39,1.45-2.06,3.7-3.5,7.5l-1,.5c.14-.5-1.19-.94-1-1.75,4.08-2.03,2.05-10.27,3.75-19.75-2.47-1.88-4.62,20.11-4.75,21.5-3.34.09,1.25-.74-1-6.75,2.48-2.07-.64-6.94,2-9.5-1.55-.85-2.9-1.96-4.5-2.75,10.92-5.34,12.26-10.38,14-12,1.26-1.17,3.3-3.34,3.5-3.5,2.37-1.87,5.49-2.47,7.75-4.5,1.08-.2.69,1,.75,1-6.69,5.5-9.99,15.77-16,13.75l8.25,4.25c4.16-10.77,8.02-15.46,19.25-18,1.11-.25,2.45-.06,3.5-.75-.07-.46-2.74-.18-4-.25-.66-.03-1.34.06-2,0-2.45-.22-4.82-.64-7.25-1v-1c20.8-2.11,38.61-16.26,60-14.5,2.41-1.84,10.4-8.55,12.5-9,4.43-.94-1.63,1.92-6,5-1.24.87-3.79,4.21-4.5,4.5-3.87,1.6-8.19-1.06-6.75,2Z"/>
          <g>
            <path class="cls-11" d="m303.75,134.68c-.61.52-1.11.68-1.5,1-9.26,7.66-14.58,11.61-3-1-.05-.61.43-.45.5-.5,1.88-1.23,2.65-.68,4,.5Z"/>
            <g>
              <path class="cls-22" d="m222.75,11.18c2.53.07,7.77-.02,9.75.5,8.99,2.38-16.18.57-25,1.5-7.73.82-16.4,3.31-23.5,6.5.83-5.27,17.76-7.46,23.25-8,5.13-.5,10.35-.64,15.5-.5Z"/>
              <path class="cls-21" d="m129.76,64.68c-1.89,6.73-2.72,7.6-2,0,.13-1.38,2.28-23.38,4.75-21.5-1.69,9.48.33,17.72-3.75,19.75-.19.81,1.14,1.25,1,1.75Z"/>
              <path class="cls-43" d="m180.76,31.68c5,7.56,20.53,9.27,28.75,10,.3.03.09-1.33,1-1,5.19,5.15,18.08,11.28,17.25-.5,1.33-.03,2.67.07,4,0v.5l-4,6.25c.43.55,6.07-.07,7-.25-.06,1.83.08,3.67,0,5.5l-13,.75,7,5.25c-19.4,4.42-44.09-.73-63.5-3.25,1.78,1.72,3.64,1.63,4,1.75,5.75,3.83,14.56,4.93,21,9-11.09-3.11-24.27-5.97-33.25-13.5-17.39-1.55-.19-22.15,16-21.5-5.32,9.78-14.71,9.9-15,17.5q6.25-4.5,12.5-9c-1.87,21.69,4.42-2.57,4.75-8.75.91-.81,4.48.94,5.5,1.25Z"/>
              <path class="cls-43" d="m252.75,25.18c-5.16,8.46-13.29,3.87-10,10.5-11.06,2.08-38.38,1.26-49-2.5,5.91.52,24.96,4.06,29.25,2.5.26-.09,3.02-3.82,3.25-4.5,8.32-1.72,8.5-4.96-1.5-6.5-5.41-.83-11.83-.86-17-2.5,1.21-3.31,1.81-4.48,5-5,2.52-.41,8.18.46,9.75,0,.84-.24,2.27-3.56,4.5-3-7.83,6.86,23.11,2.11,25.75,11Z"/>
              <path class="cls-1" d="m280.75,31.68c.83.35,4.86,1.02,6.25,2,9.12,9.38,8.91,10,.25,19l-.5-.5c2.63-3.6-4.88.03-1,1v.5c-.53.5-.89.98-1.5,1.5-1.3.36-1.42.74-3,1-.07.01-.03-.89-1.25-.5-6.91,2.22-9.74,6.9-23.25,8.5-.36.04-3.09-1.83-6.75,1-4.02-1.73-11.42,1.53-13.75-1.5,3.16-.99,30.86-4.34,42.75-10,2.02-.96,12.82-8.79,11.75-10.5-1.1-1.76-23.59-9.29-27.5-11.5-.24-.13-2.54-2.65-4.5-3-.1-.4.17-1.17-1-1.5.03-.49-.08-1.02,0-1.5,3.68.79,16.29,8.37,17.75,8.5,5.43.49,2.58-2.88,5.25-2.5Z"/>
              <path class="cls-43" d="m258.75,28.68c1.03,4.15.86,6.44,1,6.75.85,1.97,11.06,8.69,13.5,9.25.66,4.44-3.78,8.77-7.75,7.5-5.44-13.21-4.46-14.05-4.5,1-5.29,1.06-18.24,5.18-17.25,2.5h1.5c8.54-.95,11.55-.34,7-8.75l1-1.25c3.18-3.89,3.97-5.68,4.5-10.5.27-2.46-.15-5.43,0-8,1.17.33.9,1.1,1,1.5Z"/>
              <path class="cls-34" d="m297,140.68c.46,14-19.38,22.85-30.25,28.25,2.97-2.21,19.25-21.99,20.75-22.25.65-.11.98,4.84,9.5-6Z"/>
              <path class="cls-42" d="m227.75,40.18c.83,11.78-12.06,5.65-17.25.5-.91-.33-.7,1.03-1,1-8.22-.73-23.74-2.44-28.75-10,5.69,1.74,8.11,4.68,16.25,6.5,7.94,1.77,22.41,2.2,30.75,2Z"/>
              <path class="cls-40" d="m245.25,55.68h-1.5c3.39-19.22-2.15-10.32-9-9-.93.18-6.57.8-7,.25l4-6.25c2.67,1.09,16.61-2.05,17.5-.75,1.8,8.15-.25,9.69-4,15.75Z"/>
              <path class="cls-31" d="m199.26,64.68c8.81,1.43,17.62,2.21,26.5,3,7.06.63,18.29.61,20.25,1,5.34,1.05,2.7,2.14-1,2.5-5.63.54-32.74-1.58-39.75-2.5-2.72-3.35-12.01-3.49-15.25-4.5-.25-.08-1.64-1.46-1.75-1.5,3.68.61,7.31,1.4,11,2Z"/>
              <path class="cls-31" d="m194.26,30.68c7.52,1.7,24.67,2.01,32,.5-.23.68-2.99,4.41-3.25,4.5-4.29,1.56-23.34-1.98-29.25-2.5-2.16-.77-6.09-2.26-7-4.5,2.55.65,4.91,1.42,7.5,2Z"/>
              <path class="cls-29" d="m212.75,17.18c-3.19.52-3.79,1.69-5,5-.79-.25-.9-1.88-1.25-2-9.59,1.29-21.72,5.1-9.25,9,.03.68-.47.46-1,.5l-8-3.25c-.54-2.05,5.43-5.39,7-6l-1-.75c2.82-1.17,16.76-5.21,18.25-5,1.6.23-.04,1.05.25,2.5Z"/>
              <path class="cls-29" d="m251.75,37.68l1.5,8-1,1.25c4.55,8.41,1.54,7.8-7,8.75,3.75-6.06,5.8-7.6,4-15.75-.89-1.3-14.83,1.84-17.5.75v-.5c5.22-.26,15.16-1.22,20-2.5Z"/>
              <path class="cls-1" d="m280.75,31.68c-2.67-.38.18,2.99-5.25,2.5-1.46-.13-14.07-7.71-17.75-8.5.06-.39-.31-.51-.5-.75,3.12-.7,11.84,1.84,14.75,3.75,7.08-.84,8.3,2.81,8.75,3Z"/>
              <path class="cls-34" d="m307.5,108.18c-.59,8.14-11.53,18.6-18,23.5,6.43-7.51,10.37-18.52,18-23.5Z"/>
              <path class="cls-18" d="m263.25,31.68c2,3.76,9.48,10.31,11,13.5-.43,0-.51-.39-1-.5-2.44-.56-12.65-7.28-13.5-9.25-.14-.31.03-2.6-1-6.75,1.96.35,4.26,2.87,4.5,3Z"/>
              <path class="cls-44" d="m225.75,67.68c-8.88-.79-17.69-1.57-26.5-3-3.15-3.16,7.53-.58,15.25,0,.91.07,22.24.05,14.5,2.5-1.87.59-3.68-1.27-3.25.5Z"/>
              <path class="cls-14" d="m287.25,42.68l-6.75,6c-1.59.1-2.05-7-3.75-7-.78-3.11-2.52-4.19-1.75-4.5,4.03,1.89,8.12,3.86,12.25,5.5Z"/>
              <path class="cls-23" d="m188.26,62.68c.11.04,1.5,1.42,1.75,1.5,3.24,1.01,12.53,1.15,15.25,4.5-5.07-.66-10.2-.97-15-3-6.44-4.07-15.25-5.17-21-9,6.27,2.11,12.69,3.99,19,6Z"/>
              <path class="cls-13" d="m234.75,52.18c-.05,1.08.27,3.88-.25,4.5-.19.23-4.93,1.31-5.75,1.5l-7-5.25,13-.75Z"/>
              <path class="cls-30" d="m242.75,35.68c-3.29-6.63,4.84-2.04,10-10.5,2.15,7.24-4.11,9.39-10,10.5Z"/>
              <path class="cls-31" d="m303.25,90.18c3.83,10.17.17,16.66,4.5,9.75-5.33,16.26-3.17,8.5-4,.25-.35-3.49-3.27-11.22-.5-10Z"/>
              <path class="cls-16" d="m194.26,19.68l1,.75c-1.57.6-7.54,3.95-7,6l8,3.25c-1.24.1-2.23-.45-2,1-2.59-.58-4.95-1.35-7.5-2-2.42-5.93,3.33-7.27,7.5-9Z"/>
              <path class="cls-20" d="m253.25,45.68l-1.5-8c1.88-.5,4.12-1.83,6-2.5-.53,4.82-1.32,6.61-4.5,10.5Z"/>
              <path class="cls-50" d="m256.75,64.18c-1.51,2.08-11.76,2.34-15.75,2-1.79-1.2-11.02-.53-4.75-2.5,2.33,3.03,9.73-.23,13.75,1.5,3.66-2.83,6.39-.96,6.75-1Z"/>
              <path class="cls-31" d="m274.75,78.18c1.32.18-2.35,1.95-2.5,2-1.74.6-3.71.92-5.5,1.5-1.24.4-7.34,3.03-7.75,3-1.35-.11-.52-1.28-.75-1.5.44-2.52,7.91-2.33,16.5-5Z"/>
              <path class="cls-29" d="m300.25,168.67l-1-.5c2.95-7.93,2.34-16.75,2.5-25,1.43.33,1.32,14.32,1,16.75-.38,2.89-2.89,5.6-2.5,8.75Z"/>
              <path class="cls-22" d="m305.25,69.18c-1.13,7.05-2.04,17.95-4.5,13,1.28-2.99,2.47-6.03,3-9.25.75-4.5-.37-15.3,1.5-3.75Z"/>
              <path class="cls-48" d="m306.75,44.68c-.34.82-.9.34-1,.75-.14.53,1.88,2.14.5,9.75-.56-.39-.88-2.84-1-4-.16-1.51.83-3.91-1.5-4.5.06-.81-.13-1.81,0-2.5l3,.5Z"/>
              <path class="cls-31" d="m299.25,168.17l1,.5,2.5-1c-2.09,3.59-4.59,6.71-8.5,7.75,2.54-2.2,3.83-4.11,5-7.25Z"/>
              <path class="cls-21" d="m242.5,71.68c14.24-1.21.5,2.45-6,2-.17-1.11,4.86-1.9,6-2Z"/>
              <path class="cls-5" d="m272.5,60.68c4.87,1.52-4.19,4.99-4.75,2.25-.05-.26,4.5-2.33,4.75-2.25Z"/>
              <path class="cls-31" d="m257.5,66.18c9.45,2.77.21,1.82-4,1.5l4-1.5Z"/>
              <path class="cls-22" d="m279,57.68c2.31,1.25-4.56,5.77-4.25,2.75.03-.25,4.03-2.87,4.25-2.75Z"/>
              <path class="cls-40" d="m303.25,61.68c-.06.1-.02.44-1,2l-2.5-2.5c.66-.96.96-1.45,1.5-2.5l2,3Z"/>
              <path class="cls-31" d="m224.75,152.17c-1.96-.63-1.66-.9-2-1-2.22-7.4.23-4.1,2,1Z"/>
              <path class="cls-31" d="m306.75,44.68l-3-.5c.03-.15-1.19-2.04,1.75-1.5,3.85.71,1.33,1.81,1.25,2Z"/>
              <path class="cls-22" d="m284.25,55.18c-.19.16-.89,4.41-3,1,1.58-.26,1.7-.64,3-1Z"/>
              <path class="cls-23" d="m161.76,26.68l-.5-1c1.26.07,3.93-.21,4,.25-1.05.69-2.39.5-3.5.75Z"/>
              <path class="cls-28" d="m234,71.68c5.14.05,4.5.09,0,1v-1Z"/>
              <path class="cls-26" d="m287.25,52.68c-1.33,1.39-1.43.94-1.5,1v-.5c.61.02.76-.67,1-1l.5.5Z"/>
              <path class="cls-46" d="m207.75,22.18c5.17,1.64,11.59,1.67,17,2.5-7.35,5.02-18.95,7.17-27.5,4.5-12.47-3.9-.34-7.71,9.25-9,.35.12.46,1.75,1.25,2Z"/>
              <path class="cls-42" d="m226.25,31.18c-7.33,1.51-24.47,1.2-32-.5-.23-1.45.76-.9,2-1,.53-.04,1.03.18,1-.5,8.55,2.67,20.15.52,27.5-4.5,10,1.54,9.82,4.78,1.5,6.5Z"/>
              <path class="cls-38" d="m286.75,52.18c-.24.33-.39,1.02-1,1-3.88-.97,3.63-4.6,1-1Z"/>
              <g>
                <path class="cls-21" d="m290.75,43.18c-.18.81-2.91-.27-3.5-.5-4.13-1.64-8.22-3.61-12.25-5.5-.77.31.97,1.39,1.75,4.5,1.49,5.97,1.17,11.12-1.5,8.75-.74-.66-.58-4.36-1-5.25-1.51-3.19-9-9.74-11-13.5,3.91,2.21,26.4,9.74,27.5,11.5Z"/>
                <path class="cls-4" d="m275.5,40.68c.48-.05,1.21,1.81.5,2-.12.03-1.12-1.94-.5-2Z"/>
              </g>
            </g>
          </g>
        </g>
        <g>
          <path class="cls-38" d="m289.25,173.67c-5.8-3.28-11.1-2.55-17,0,2.81-2.19,7.39-6.64,10.25-6.5-1.55-3.48,4.3-1.74,3-4,2.83-.03,5.27-2.42,8-3.5-.78,2.56-5.9,6.96-8.25,6.25,4.09,4.02,4.78-2.39,8.5,0,1.74,1.12-3.51,6.84-4.5,7.75Z"/>
          <path class="cls-27" d="m282,168.67c3.68-1.63,10.68,4.42-1.25,1.25.44-.31.92-1.1,1.25-1.25Z"/>
        </g>
        <path class="cls-42" d="m231.75,92.68c1.23.33,2.84,1.73,4.25,2l-.5,1-8.75-2.5c-2.57-1.29,1.56-1.43,5-.5Z"/>
        <path class="cls-37" d="m164.76,84.68c-.58,1.53,1.47.1,5.25.5,2.36.25,10.48,1.59,11,4l-23.25-2.5c2.33-.67,4.66-1.35,7-2Z"/>
        <path class="cls-29" d="m193.26,98.18c4.61.89,9.37,1.76,14,2.5,4.57.73,9.53,3.62,13.5,0,1.81.15,3.51-.4,3.5.5-1.95.61-3.98,1.49-5.75,2.5,4.13.26,8.2,1.99,12.25,2.5-1.16,1.28-3.71.15-5,0-8.55-.99-27.45-5.73-31.25-5-.37.07-.25.69-.25,1h-.5c-16.1-9.02-15.56-6.89-.5-4Z"/>
        <path class="cls-46" d="m215.25,107.68c-2.07,2.84-8.33,1.02-11.5,0-1.83-.59-3.31-1.64-5-2.5l.5-.5c1.71.5,13.82,2.78,16,3Z"/>
        <path class="cls-29" d="m188.76,92.68c1.4.33,3.44.86,3,2.5-.59-.3-4.75-2.67-4.25-3,.59-.15.72.37,1.25.5Z"/>
        <path class="cls-12" d="m199.26,104.68l-.5.5c-1.79-.91-3.31-2.06-5-3h.5c1.65.58,3.37,2.02,5,2.5Z"/>
        <g>
          <path class="cls-31" d="m225.75,279.17c.02.83-.04,1.67,0,2.5.08,1.79.33,4.07-.5,5.75.12.47,1.46.16,1.5.25.66,1.69.43,2.39.5,2.5-4.72,2.23-10.07,1.97-15,3l-1.5-3c.88-.34-.25-.69,2-1,2.47-.35,6.07.25,8.75,0-.23-.69.2-1,.25-1.5,4.59,1.9,3.77-14.71-.5-16.5,0-.15-.46-.47-.5-2.5,2.07,1.47,2.95-2.37,5-2.75.1,4.41-.13,8.84,0,13.25Z"/>
          <path class="cls-46" d="m223.5,269.17c1.86-.04,1.47,3.36.5,3.5-.83.12-2.46-3.45-.5-3.5Z"/>
        </g>
        <path class="cls-44" d="m220.75,100.68c-3.97,3.62-8.93.73-13.5,0,.23-2.23,8.28-.44,13.5,0Z"/>
        <path class="cls-24" d="m225.75,106.18c.07.73-.91.34-1,.75-.02.07.73.41.5,1.25-3.43.15-6.6-.15-10-.5-2.18-.22-14.29-2.5-16-3-1.63-.48-3.35-1.92-5-2.5,0-.31-.12-.93.25-1,3.8-.73,22.7,4.01,31.25,5Z"/>
        <path class="cls-47" d="m242.75,106.68c.17.62-.47,3.38-.75,3.5-.55.22-10.68-1.02-11.25-2.5,2.15-.24,5.4-.6,1.5-1.5.52.06,4.4-.24,10.5.5Z"/>
        <path class="cls-37" d="m230.75,106.18c.49.06,1.01-.06,1.5,0,3.9.9.65,1.26-1.5,1.5-1.69.19-3.83.43-5.5.5.23-.84-.52-1.18-.5-1.25.09-.41,1.07-.02,1-.75,1.29.15,3.84,1.28,5,0Z"/>
      </g>
    </g>
  </g>
</svg>