<svg width="506" height="66" viewBox="0 0 506 66" fill="none" xmlns="http://www.w3.org/2000/svg">
<path d="M70.9346 62.9961H117.13" stroke="#5A5858" stroke-width="5" stroke-linecap="round"/>
<path d="M133.435 3H179.63" stroke="#5A5858" stroke-width="5" stroke-linecap="round"/>
<path d="M198.652 62.9961H242.131" stroke="#5A5858" stroke-width="5" stroke-linecap="round"/>
<path d="M261.152 3H307.348" stroke="#5A5858" stroke-width="5" stroke-linecap="round"/>
<path d="M326.37 62.9961H369.848" stroke="#5A5858" stroke-width="5" stroke-linecap="round"/>
<path d="M388.87 3H432.348" stroke="#5A5858" stroke-width="5" stroke-linecap="round"/>
<path d="M454.087 62.9961H500.283" stroke="#5A5858" stroke-width="5" stroke-linecap="round"/>
<path d="M70.9346 3C90.9563 19.4938 100.768 17.2254 117.13 3" stroke="#5A5858" stroke-width="5" stroke-linecap="round"/>
<path d="M136.152 62.9923C152.987 44.941 161.9 46.6265 176.913 62.9923" stroke="#5A5858" stroke-width="5" stroke-linecap="round"/>
<path d="M198.652 3C215.773 17.5607 224.929 17.1742 242.131 3" stroke="#5A5858" stroke-width="5" stroke-linecap="round"/>
<path d="M261.152 62.9906C277.969 44.4449 287.04 44.411 301.913 62.9906" stroke="#5A5858" stroke-width="5" stroke-linecap="round"/>
<path d="M326.37 3C340.716 21.6902 350.057 20.8508 369.848 3" stroke="#5A5858" stroke-width="5" stroke-linecap="round"/>
<path d="M388.87 62.9963C405.829 42.1017 415.379 43.3739 432.348 62.9963" stroke="#5A5858" stroke-width="5" stroke-linecap="round"/>
<path d="M451.37 3C470.281 16.9879 480.457 16.371 497.565 3" stroke="#5A5858" stroke-width="5" stroke-linecap="round"/>
<path d="M437.783 32.9991C467.493 6.10661 482.42 2.00802 503 32.9991" stroke="#5A5858" stroke-width="5" stroke-linecap="round"/>
<path d="M3 32.9969C29.7656 58.5564 40.3523 52.4379 57.3478 32.9969C88.1806 2.90739 103.765 9.08084 130.717 32.9969C152.942 56.9584 164.744 54.3315 185.065 32.9969C210.121 5.34336 225.825 3.06149 258.435 32.9969C278.662 55.4543 289.854 54.023 310.065 32.9969C338.734 6.62807 354.733 5.00522 383.435 32.9969C407.54 53.5784 419.337 52.6497 437.783 32.9969" stroke="#5A5858" stroke-width="5" stroke-linecap="round"/>
<path d="M3 3H54.6304" stroke="#5A5858" stroke-width="5" stroke-linecap="round"/>
<path d="M3 63.0004C27.6816 43.1271 37.6253 49.0843 54.6304 63.0004" stroke="#5A5858" stroke-width="5" stroke-linecap="round"/>
</svg>
