<svg width="506" height="66" viewBox="0 0 506 66" fill="none" xmlns="http://www.w3.org/2000/svg">
<path d="M493.909 35.6432C480.528 8.35582 472.503 2.68171 455.938 35.6432C443.888 56.0008 439.575 58.3674 428.816 35.6432C413.413 5.27499 405.805 6.70307 393.558 35.6432C382.902 57.2288 377.117 57.9863 366.435 35.6432C353.35 6.7031 345.825 7.75628 331.177 35.6432C319.494 59.4394 312.612 58.1224 304.055 35.6432C288.781 7.40217 280.912 4.32758 268.796 35.6432C255.548 57.8948 249.062 57.2479 238.962 35.6432C225.226 8.14732 217.434 6.19486 203.703 35.6432C190.695 59.0201 184.89 57.4382 176.581 35.6432C156.388 2.1379 154.419 11.4954 138.61 35.6432C127.266 58.5122 121.346 57.9686 111.488 35.6432C99.1955 7.70158 91.67 5.38869 76.2295 35.6432C65.2608 58.7478 58.5134 57.609 49.1075 35.6432C33.4482 5.35242 25.2316 8.74359 11.1366 35.6432L3 48.1204" stroke="#5A5858" stroke-width="5" stroke-linecap="round"/>
<path d="M9.06055 3C24.5665 21.9715 34.479 21.3594 54.5151 3" stroke="#5A5858" stroke-width="5" stroke-linecap="round"/>
<path d="M72.6973 3C90.4505 17.4201 100.403 15.2005 118.152 3" stroke="#5A5858" stroke-width="5" stroke-linecap="round"/>
<path d="M139.363 3C152.548 23.1763 162.394 20.0935 181.788 3" stroke="#5A5858" stroke-width="5" stroke-linecap="round"/>
<path d="M199.97 3C215.684 17.142 225.039 15.4994 242.394 3" stroke="#5A5858" stroke-width="5" stroke-linecap="round"/>
<path d="M263.606 3C281.826 17.3862 290.894 15.2373 306.031 3" stroke="#5A5858" stroke-width="5" stroke-linecap="round"/>
<path d="M330.273 3C345.198 16.5327 354.7 16.1324 372.697 3" stroke="#5A5858" stroke-width="5" stroke-linecap="round"/>
<path d="M387.849 3C407.354 16.8781 417.089 15.7772 433.303 3" stroke="#5A5858" stroke-width="5" stroke-linecap="round"/>
<path d="M454.515 3C470.439 22.053 479.488 21.2763 496.939 3" stroke="#5A5858" stroke-width="5" stroke-linecap="round"/>
<path d="M18.1515 59L3 49" stroke="#5A5858" stroke-width="5" stroke-linecap="round"/>
<path d="M42.3936 59C58.1767 45.0831 67.5177 46.2632 84.8178 59" stroke="#5A5858" stroke-width="5" stroke-linecap="round"/>
<path d="M106.03 59C120.891 45.2481 130.335 46.0919 148.455 59" stroke="#5A5858" stroke-width="5" stroke-linecap="round"/>
<path d="M166.637 63C185.179 43.7288 195.108 44.9479 212.091 63" stroke="#5A5858" stroke-width="5" stroke-linecap="round"/>
<path d="M230.272 59C248.824 45.2038 258.821 46.1377 275.727 59" stroke="#5A5858" stroke-width="5" stroke-linecap="round"/>
<path d="M296.939 63C312.271 44.3134 321.564 44.3532 339.364 63" stroke="#5A5858" stroke-width="5" stroke-linecap="round"/>
<path d="M357.545 63C375.624 43.146 386.301 45.5597 406.03 63" stroke="#5A5858" stroke-width="5" stroke-linecap="round"/>
<path d="M421.182 59C436.867 45.3181 446.402 46.0199 463.606 59" stroke="#5A5858" stroke-width="5" stroke-linecap="round"/>
<path d="M484.818 59L499.97 49" stroke="#5A5858" stroke-width="5" stroke-linecap="round"/>
<path d="M493.909 35L503 49" stroke="#5A5858" stroke-width="5" stroke-linecap="round"/>
</svg>
