<?xml version="1.0" encoding="UTF-8"?>
<svg id="_Шар_2" data-name="Шар 2" xmlns="http://www.w3.org/2000/svg" viewBox="0 0 265.24 265.64">
  <defs>
    <style>
      .cls-1 {
        fill: #939598;
        fill-rule: evenodd;
        stroke-width: 0px;
      }

      .cls-2 {
        fill: #fbb040;
        stroke: #fff200;
        stroke-miterlimit: 10;
        stroke-width: 4px;
      }
    </style>
  </defs>
  <g id="Layer_1" data-name="Layer 1">
    <g>
      <path class="cls-1" d="m50.01,200.1c23.81-11.7,17.98-68.14-15.15-73.66-10.9-1.83-17.23-2.22-16.84,10.12.75,23.74,8.69,45.64,21.73,63.62,2.58,3.57,6.63,1.7,10.26-.08h0Zm165.23,0c-23.8-11.7-17.98-68.14,15.15-73.66,10.88-1.83,17.26-2.22,16.86,10.12-.77,23.74-8.73,45.64-21.75,63.62-2.56,3.57-6.65,1.7-10.26-.08h0Zm-82.61,8.35c-36.39,0-56.01,4.99-62.86,11.46-4.63,4.35-3.49,6.74.86,9.52,17.87,11.56,39.15,18.25,62,18.25s44.11-6.69,62.01-18.25c4.33-2.78,5.44-5.18.83-9.52-6.86-6.47-26.46-11.46-62.84-11.46h0Zm0-190.88c-48.16,0-89.38,29.74-106.38,71.85-6.1,15.2-5.19,17.7,12.93,16.15,34.09-6.6,57.54-12.52,93.15-13.12h.61c35.57.59,59.03,6.52,93.1,13.12,18.12,1.55,19.08-.95,12.93-16.15-16.98-42.11-58.2-71.85-106.34-71.85h0Zm0,97.98c15.07,0,27.3,7.74,27.3,17.26s-12.23,17.26-27.3,17.26-27.32-7.72-27.32-17.26,12.23-17.26,27.32-17.26h0Zm0,150.08C59.39,265.64,0,206.17,0,132.82S59.39,0,132.63,0s132.61,59.47,132.61,132.82-59.37,132.82-132.61,132.82h0Z"/>
      <line class="cls-2" x1="132.18" y1="247.45" x2="132.18" y2="265.45"/>
    </g>
  </g>
</svg>