<?xml version="1.0" encoding="UTF-8"?>
<svg id="_Шар_2" data-name="Шар 2" xmlns="http://www.w3.org/2000/svg" viewBox="0 0 269.15 274.86">
  <defs>
    <style>
      .cls-1 {
        fill: #333;
        fill-rule: evenodd;
        stroke-width: 0px;
      }
    </style>
  </defs>
  <g id="Layer_1" data-name="Layer 1">
    <path class="cls-1" d="m62.75,208.23c3.64-3.41,7.4-6.9,10.79-10.62,2.03-2.2,2.94-3.25-.89-7.86-7.54-9.02-13.2-19.72-16.4-31.47-4.22-15.53-16.81-13.49-25.77-5.28-6.44,5.87-6.8,6.95-4.75,14.73,3.67,13.76,9.79,26.51,17.83,37.72,4.17,5.79,13.51,8.11,19.2,2.77h0Zm143.67,0c-3.64-3.41-7.38-6.9-10.77-10.62-2.03-2.2-2.96-3.25.88-7.86,7.54-9.02,13.21-19.72,16.4-31.47,4.22-15.53,16.81-13.49,25.77-5.28,6.44,5.87,6.8,6.95,4.75,14.73-3.67,13.76-9.79,26.51-17.83,37.72-4.16,5.79-13.49,8.11-19.2,2.77h0Zm-71.85,10.76c-9.55,0-18.73-1.67-27.25-4.8-3.24-1.16-4.25-.21-6,1.56-3.5,3.52-6.85,6.89-9.93,10.62-3.86,4.67-3.69,16.18,4.11,19.13,12.18,4.59,25.35,7.09,39.08,7.09s26.94-2.5,39.11-7.09c7.82-2.95,7.97-14.46,4.11-19.13-3.08-3.73-6.41-7.09-9.91-10.62-1.78-1.77-2.78-2.73-6-1.56-8.54,3.12-17.72,4.8-27.3,4.8h0Zm0-196.74c-49.55,0-91.66,32.67-106.78,78.05-4.58,14.08,8.29,16.42,19.8,12.59,26.65-8.88,56.92-12.63,86.99-12.29,30.1-.33,60.37,3.41,87.03,12.29,11.48,3.83,24.38,1.48,19.78-12.59-15.15-45.39-57.23-78.05-106.81-78.05h0Zm0,252.6C60.25,274.86,0,213.32,0,137.42S60.25,0,134.57,0s134.58,61.54,134.58,137.42-60.23,137.44-134.58,137.44h0Z"/>
  </g>
</svg>