<?xml version="1.0" encoding="UTF-8"?>
<svg id="_Шар_2" data-name="Шар 2" xmlns="http://www.w3.org/2000/svg" viewBox="0 0 261.55 267.06">
  <defs>
    <style>
      .cls-1 {
        fill: #333;
        fill-rule: evenodd;
        stroke-width: 0px;
      }
    </style>
  </defs>
  <g id="Layer_1" data-name="Layer 1">
    <path class="cls-1" d="m130.78,97.85c19.28,0,34.93,15.97,34.93,35.68s-15.65,35.68-34.93,35.68-34.95-15.99-34.95-35.68,15.65-35.68,34.95-35.68h0Zm0,5.85c16.14,0,29.21,13.36,29.21,29.83s-13.07,29.83-29.21,29.83-29.22-13.34-29.22-29.83,13.1-29.83,29.22-29.83h0ZM31.63,170.85c-1.53-10.79.25-18.16,5.36-22.11,11.68-9.02,33.24-8.45,50.57,1.74,4.08,10.89,12.02,19.86,22.09,25.14.08.19.16.37.25.57,8.8,22.24,9.87,50.71-11.76,59.96-30.77-10.2-55.37-34.42-66.52-65.3h0Zm200.07-69.32c-.11,3.38-1.56,6.62-4.08,8.98-2.64,2.41-6.13,3.55-9.54,3.17-21.83-2.2-37.81-8.91-54.68-13.69-8.37-8.5-19.89-13.74-32.62-13.74s-24.27,5.24-32.63,13.74c-16.87,4.78-32.85,11.49-54.67,13.69-3.42.38-6.9-.77-9.54-3.17-2.53-2.36-3.97-5.6-4.1-8.98,13.37-43.95,53.51-75.85,100.93-75.85s87.55,31.9,100.92,75.85h0Zm-68.3,134.61c-21.63-9.25-20.56-37.72-11.76-59.96.09-.21.17-.38.25-.57,10.1-5.28,18.01-14.25,22.13-25.14,17.29-10.19,38.86-10.76,50.54-1.74,5.11,3.95,6.9,11.32,5.36,22.11-11.15,30.88-35.71,55.1-66.52,65.3h0ZM130.78,0c72.23,0,130.77,59.8,130.77,133.53s-58.54,133.53-130.77,133.53S0,207.29,0,133.53,58.57,0,130.78,0h0Z"/>
  </g>
</svg>