<?xml version="1.0" encoding="UTF-8"?>
<svg id="_Шар_2" data-name="Шар 2" xmlns="http://www.w3.org/2000/svg" viewBox="0 0 262.26 267.81">
  <defs>
    <style>
      .cls-1 {
        fill: #333;
        fill-rule: evenodd;
      }

      .cls-1, .cls-2 {
        stroke-width: 0px;
      }

      .cls-2 {
        fill: #939598;
      }
    </style>
  </defs>
  <g id="Layer_1" data-name="Layer 1">
    <g>
      <path class="cls-1" d="m133.67,242.86h-2.54v24.51c0,.22.18.4.4.4h2.14c.22,0,.4-.18.4-.4v-24.12c0-.21-.18-.39-.4-.39Z"/>
      <path class="cls-1" d="m131.13,0C58.7,0,0,59.94,0,133.89s58.7,133.92,131.13,133.92,131.13-59.95,131.13-133.92S203.56,0,131.13,0Zm0,24.91c48.3,0,89.13,32.81,102.28,77.8-4.19,7.46-13.09,11-21.27,8.13-24.81-15.46-52.94-23-81.01-22.59-28.1-.41-56.2,7.13-81.03,22.59-8.16,2.87-17.06-.67-21.25-8.13,13.13-44.99,53.95-77.8,102.28-77.8ZM63.03,184.05c-2.33,8.08-7.36,14.92-14.01,19.43-14.37-17.62-23.38-39.95-24.49-64.42,11.09-1.72,22.41,2.13,30.28,10.5,8.61,9.17,11.75,22.31,8.22,34.49Zm70.64,58.81c.22,0,.4.18.4.39v24.12c0,.22-.18.4-.4.4h-2.14c-.22,0-.4-.18-.4-.4v-24.51c-19.52,0-37.83-5.34-53.56-14.7,27.35-31.14,79.76-31.14,107.11,0-15.62,9.3-33.79,14.63-53.15,14.7h2.14Zm79.57-39.38c-6.65-4.51-11.68-11.35-14.01-19.43-3.54-12.18-.4-25.32,8.22-34.49,7.83-8.37,19.17-12.22,30.27-10.5-1.11,24.47-10.11,46.8-24.48,64.42Z"/>
    </g>
    <path class="cls-2" d="m96.93,237.86l-9.09,22.34c-.08.2-.29.31-.47.24l-1.71-.69c-.18-.07-.25-.3-.17-.5l9.09-22.34c.08-.19.29-.3.47-.23l1.71.69c.18.07.25.3.17.49Z"/>
    <path class="cls-2" d="m169.62,236.55l8.23,22.67c.08.21,0,.43-.19.49l-1.73.63c-.18.06-.39-.05-.46-.26l-8.23-22.67c-.07-.2.01-.42.19-.48l1.73-.63c.18-.06.39.05.46.25Z"/>
    <path class="cls-2" d="m35.73,84.35l-20.5-12.7c-.19-.12-.26-.34-.16-.5l.97-1.57c.1-.16.33-.2.52-.08l20.5,12.7c.18.11.25.34.15.5l-.97,1.57c-.1.16-.33.2-.51.09Z"/>
    <path class="cls-2" d="m225.63,82.64l19.96-13.54c.18-.12.42-.1.52.06l1.04,1.53c.11.16.04.39-.14.51l-19.96,13.54c-.17.12-.41.09-.52-.07l-1.04-1.53c-.11-.16-.04-.39.13-.5Z"/>
  </g>
</svg>