<?xml version="1.0" encoding="UTF-8"?>
<svg id="_Шар_2" data-name="Шар 2" xmlns="http://www.w3.org/2000/svg" viewBox="0 0 265.24 270.82">
  <defs>
    <style>
      .cls-1 {
        fill: #333;
        fill-rule: evenodd;
        stroke-width: 0px;
      }
    </style>
  </defs>
  <g id="Layer_1" data-name="Layer 1">
    <path class="cls-1" d="m50.01,204.01c23.81-11.92,17.98-69.48-15.15-75.1-10.9-1.87-17.23-2.26-16.84,10.31.75,24.2,8.69,46.53,21.73,64.87,2.58,3.64,6.63,1.74,10.26-.08h0Zm165.23,0c-23.8-11.92-17.98-69.48,15.15-75.1,10.88-1.87,17.26-2.26,16.86,10.31-.77,24.2-8.73,46.53-21.75,64.87-2.56,3.64-6.65,1.74-10.26-.08h0Zm-82.61,8.51c-36.39,0-56.01,5.09-62.86,11.69-4.63,4.43-3.49,6.87.86,9.71,17.87,11.78,39.15,18.6,62,18.6s44.11-6.82,62.01-18.6c4.33-2.84,5.44-5.28.83-9.71-6.86-6.6-26.46-11.69-62.84-11.69h0Zm0-194.22c-48.16,0-89.38,30.32-106.38,73.25-6.1,15.5-5.19,18.05,12.93,16.47,34.09-6.73,57.54-12.77,93.15-13.38h.61c35.57.61,59.03,6.65,93.1,13.38,18.12,1.58,19.08-.97,12.93-16.47-16.98-42.93-58.2-73.25-106.34-73.25h0Zm0,99.51c15.07,0,27.3,7.89,27.3,17.6s-12.23,17.6-27.3,17.6-27.32-7.88-27.32-17.6,12.23-17.6,27.32-17.6h0Zm0,153.01C59.39,270.82,0,210.19,0,135.41S59.39,0,132.63,0s132.61,60.63,132.61,135.41-59.37,135.41-132.61,135.41h0Z"/>
  </g>
</svg>