<?xml version="1.0" encoding="UTF-8"?>
<svg id="_Шар_2" data-name="Шар 2" xmlns="http://www.w3.org/2000/svg" viewBox="0 0 267.18 272.83">
  <defs>
    <style>
      .cls-1 {
        fill: #333;
        fill-rule: evenodd;
        stroke-width: 0px;
      }
    </style>
  </defs>
  <g id="Layer_1" data-name="Layer 1">
    <path class="cls-1" d="m238.38,141.92c-6.52-8.21-25.36-4.29-37.54,4.11-9.15,6.33-13.48,15.97-14.73,27.05-.86,7.86.83,14.81,5.11,20.9,25.93,38.98,44.25-4.38,50.3-32.54,1.6-7.27,1.89-13.2-3.14-19.53h0ZM45.24,104.24c13.23.97,38.17-8.37,53.87-10.98,24.6-4.05,44.36-4.05,68.96,0,15.68,2.61,40.64,11.96,53.84,10.98,12.43-.91,17.47-3.46,12.37-14.75-17.42-39.01-55.98-66.11-100.7-66.11S49.83,50.84,32.54,90.23c-4.8,10.95,1.36,13.17,12.7,14.01h0Zm30.69,89.74c4.27-6.09,5.97-13.04,5.11-20.9-1.22-11.08-5.57-20.72-14.73-27.05-12.18-8.4-31.02-12.32-37.53-4.11-10.4,13.07,1.67,39.65,12.26,56.34,12.09,18.95,22.49,14.38,34.89-4.27h0Zm57.64,8.35c-50.16,1.61-70.35,47.08,0,47.08s50.18-45.47,0-47.08h0Zm0-202.34c73.81,0,133.62,61.07,133.62,136.4s-59.81,136.43-133.62,136.43S0,211.76,0,136.4,59.81,0,133.57,0h0Z"/>
  </g>
</svg>