<svg width="451" height="552" viewBox="0 0 451 552" fill="none" xmlns="http://www.w3.org/2000/svg">
<g clip-path="url(#clip0_283_32)">
<path d="M126.494 372.137C-144.099 396.879 89.2531 583.822 263.205 515.551C437.157 447.281 448 549 448 549" stroke="#2A2EA1" stroke-width="5" stroke-linecap="round"/>
<path d="M82.9734 31.5841C96.1731 -9.1947 365.823 -9.1947 391.279 31.5841L405.422 70.5311L348.852 111.768V373.855C348.852 373.855 361.109 383.019 389.865 416.926C390.532 417.711 390.988 418.475 391.243 419.217C391.432 419.765 391.511 420.302 391.484 420.827C392.1 426.307 392.577 445.179 374.78 468.243C353.566 495.735 128.318 492.333 103.244 468.243C80.2858 446.185 81.1862 423.418 81.5015 419.733C81.5023 419.562 81.52 419.39 81.5546 419.217C81.7041 418.47 82.1705 417.706 82.9734 416.926C110.316 390.35 126.815 376.146 126.815 376.146V111.768L72.1309 70.5311L82.9734 31.5841Z" fill="#DDBE85"/>
<path d="M82.9734 31.5841C96.1731 -9.1947 365.823 -9.1947 391.279 31.5841M82.9734 31.5841L72.1309 70.5311M82.9734 31.5841C82.9734 58.6179 355.923 83.5815 391.279 31.5841M391.279 31.5841L405.422 70.5311M72.1309 70.5311C121.373 99.103 313.024 104.437 405.422 70.5311M72.1309 70.5311L126.815 111.768M405.422 70.5311L348.852 111.768M348.852 111.768C269.697 131.515 220.878 130.989 126.815 111.768M348.852 111.768V373.855M126.815 111.768V376.146M126.815 376.146C126.815 376.146 110.316 390.35 82.9734 416.926C82.1705 417.706 81.7041 418.47 81.5546 419.217M126.815 376.146C130.586 409.594 331.409 424.715 348.852 373.855M126.815 376.146L125.401 370.648M81.5546 419.217C81.5546 419.217 78.1705 444.153 103.244 468.243C128.318 492.334 353.566 495.735 374.78 468.243C395.993 440.752 391.243 419.217 391.243 419.217M81.5546 419.217C76.7314 443.307 401.684 449.542 391.243 419.217M348.852 373.855C348.852 373.855 361.109 383.019 389.865 416.926C390.532 417.711 390.988 418.475 391.243 419.217" stroke="#7C5430" stroke-opacity="0.32"/>
<path d="M127.438 376.26C122.838 332.143 127.438 112.799 127.438 112.799C215.974 130.882 263.945 129.218 347.589 112.799C347.589 112.799 353.806 339.564 347.589 376.26C341.373 412.957 132.038 420.378 127.438 376.26Z" fill="#2A2EA2" stroke="#7E7777"/>
<path d="M242.5 406.5C311.859 403.111 340.993 392.129 347.5 376.5C350.561 342.074 350.375 313.205 350 261.5L126 352L127.5 376C129.721 395.469 168.95 407.276 242.5 406.5Z" fill="#CA3836" stroke="#CA3836" stroke-linecap="round"/>
<path d="M194.898 24.8264C192.566 10.9555 275.588 11.8236 283.051 24.8264C290.514 37.8291 197.23 38.6973 194.898 24.8264Z" fill="#7C5430" fill-opacity="0.88" stroke="#7C5430"/>
<path d="M125.5 225L127.5 112.5C214.514 130.194 262.88 130.202 348 112V128L125.5 225Z" fill="#9BC3F2" stroke="#80BAFF" stroke-linecap="round"/>
</g>
<defs>
<clipPath id="clip0_283_32">
<rect width="451" height="552" fill="white"/>
</clipPath>
</defs>
</svg>
