<svg width="451" height="552" viewBox="0 0 451 552" fill="none" xmlns="http://www.w3.org/2000/svg">
<path d="M126.494 372.137C-144.099 396.879 89.2529 583.822 263.205 515.551C437.157 447.281 448 549 448 549" stroke="#D22525" stroke-width="5" stroke-linecap="round"/>
<path d="M82.9734 31.5841C96.1731 -9.19469 365.823 -9.19469 391.279 31.5841L405.422 70.5311L348.852 111.768V373.855C348.852 373.855 361.109 383.019 389.865 416.926C390.532 417.711 390.988 418.475 391.243 419.217C391.432 419.765 391.511 420.302 391.484 420.827C392.1 426.307 392.577 445.179 374.78 468.243C353.566 495.735 128.318 492.333 103.244 468.243C80.2858 446.185 81.1862 423.418 81.5015 419.733C81.5023 419.562 81.52 419.39 81.5546 419.217C81.7041 418.47 82.1705 417.706 82.9734 416.926C110.316 390.35 126.815 376.146 126.815 376.146V111.768L72.1309 70.5311L82.9734 31.5841Z" fill="#DDBE85"/>
<path d="M82.9734 31.5841C96.1731 -9.19469 365.823 -9.19469 391.279 31.5841M82.9734 31.5841L72.1309 70.5311M82.9734 31.5841C82.9734 58.6179 355.923 83.5815 391.279 31.5841M391.279 31.5841L405.422 70.5311M405.422 70.5311C313.024 104.437 121.373 99.103 72.1309 70.5311M405.422 70.5311L348.852 111.768M72.1309 70.5311L126.815 111.768M126.815 111.768V376.146M126.815 111.768C220.878 130.989 269.697 131.515 348.852 111.768M126.815 376.146C126.815 376.146 110.316 390.35 82.9734 416.926C82.1705 417.706 81.7041 418.47 81.5546 419.217M126.815 376.146C130.586 409.594 331.409 424.715 348.852 373.855M126.815 376.146L125.401 370.648M348.852 373.855C348.852 373.855 361.109 383.019 389.865 416.926C390.532 417.711 390.988 418.475 391.243 419.217M348.852 373.855V111.768M81.5546 419.217C81.5546 419.217 78.1705 444.153 103.244 468.243C128.318 492.334 353.566 495.735 374.78 468.243C395.993 440.752 391.243 419.217 391.243 419.217M81.5546 419.217C76.7314 443.307 401.684 449.542 391.243 419.217" stroke="#7C5430" stroke-opacity="0.32"/>
<path d="M127.438 376.26C122.838 332.143 127.438 112.799 127.438 112.799C215.974 130.882 263.945 129.218 347.589 112.799C347.589 112.799 353.806 339.564 347.589 376.26C341.373 412.957 132.038 420.378 127.438 376.26Z" fill="#D22525" stroke="#D22525"/>
<path d="M129.794 119.215C142.749 143.873 314.974 156.321 344.76 121.753" stroke="#FF5F5E" stroke-width="4" stroke-linecap="round"/>
<path d="M129.794 128.379C142.749 167.263 314.974 186.893 344.76 132.382" stroke="#FF5F5E" stroke-width="4" stroke-linecap="round"/>
<path d="M129.794 143.041C142.749 175.286 314.974 191.565 344.76 146.36" stroke="#FF5F5E" stroke-width="4" stroke-linecap="round"/>
<path d="M129.794 165.949C142.749 195.349 314.974 210.191 344.76 168.976" stroke="#FF5F5E" stroke-width="4" stroke-linecap="round"/>
<path d="M129.794 176.947C142.749 206.347 314.974 221.19 344.76 179.974" stroke="#FF5F5E" stroke-width="4" stroke-linecap="round"/>
<path d="M129.794 208.104C142.749 237.503 314.974 252.346 344.76 211.13" stroke="#FF5F5E" stroke-width="4" stroke-linecap="round"/>
<path d="M129.794 231.014C142.749 260.413 314.974 275.256 344.76 234.04" stroke="#FF5F5E" stroke-width="4" stroke-linecap="round"/>
<path d="M129.794 305.24C142.749 334.64 314.974 349.483 344.76 308.267" stroke="#FF5F5E" stroke-width="4" stroke-linecap="round"/>
<path d="M129.794 367.555C142.749 396.954 314.974 411.797 344.76 370.581" stroke="#FF5F5E" stroke-width="4" stroke-linecap="round"/>
<path d="M129.794 314.404C142.749 343.804 314.974 358.647 344.76 317.431" stroke="#FF5F5E" stroke-width="4" stroke-linecap="round"/>
<path d="M129.794 325.4C142.749 354.8 314.974 369.643 344.76 328.427" stroke="#FF5F5E" stroke-width="4" stroke-linecap="round"/>
<path d="M194.898 24.8264C192.566 10.9555 275.588 11.8236 283.051 24.8264C290.514 37.8291 197.23 38.6973 194.898 24.8264Z" fill="#7C5430" fill-opacity="0.88" stroke="#7C5430"/>
<path d="M131.209 245.218C144.176 275.309 275.934 280.957 344.76 242.469M134.509 252.091C136.866 282.332 294.319 312.114 344.76 272.251" stroke="#FF5F5E" stroke-width="4" stroke-linecap="round"/>
<path d="M130.737 352.149C143.905 374.091 277.698 378.209 347.589 350.145M134.088 357.161C136.482 379.212 296.368 400.928 347.589 371.861" stroke="#FF5F5E" stroke-width="4" stroke-linecap="round"/>
</svg>
